<svg xmlns="http://www.w3.org/2000/svg" xmlns:xlink="http://www.w3.org/1999/xlink" width="29.039" height="36.876" viewBox="0 0 29.039 36.876">
  <defs>
    <clipPath id="clip-path">
      <rect id="Retângulo_286" data-name="Retângulo 286" width="29.039" height="36.876" transform="translate(0 0)" fill="none"/>
    </clipPath>
  </defs>
  <g id="pinte_p_min" transform="translate(0 0)">
    <g id="Grupo_1677" data-name="Grupo 1677" clip-path="url(#clip-path)">
      <path id="Caminho_2700" data-name="Caminho 2700" d="M10.533,36.877H0V.586H9.8V3.971a11.583,11.583,0,0,1,3.174-2.794A10.425,10.425,0,0,1,17.9,0a9.583,9.583,0,0,1,8.248,4.084,16.8,16.8,0,0,1,2.891,9.984c0,4.357-1.065,7.737-3.165,10.044A10.43,10.43,0,0,1,17.851,27.6a11.181,11.181,0,0,1-4.283-.8,10.155,10.155,0,0,1-3.035-1.956ZM.5,36.377h9.533V23.632l.43.444a9.745,9.745,0,0,0,3.3,2.261,10.682,10.682,0,0,0,4.092.762A9.951,9.951,0,0,0,25.5,23.776c2.013-2.213,3.034-5.478,3.034-9.708a16.322,16.322,0,0,0-2.8-9.693A9.11,9.11,0,0,0,17.9.5a9.927,9.927,0,0,0-4.691,1.119A12.183,12.183,0,0,0,9.746,4.825L9.3,5.383v-4.3H.5Zm14.275-16.2a4.407,4.407,0,0,1-3.46-1.574,7.091,7.091,0,0,1-1.354-4.73c0-2.281.447-3.963,1.329-5A4.256,4.256,0,0,1,14.654,7.3a3.987,3.987,0,0,1,3.171,1.568A7.463,7.463,0,0,1,19.1,13.654c0,2.327-.413,4.011-1.228,5a3.869,3.869,0,0,1-3.1,1.519M14.654,7.8a3.727,3.727,0,0,0-2.983,1.4c-.8.941-1.21,2.513-1.21,4.672a6.625,6.625,0,0,0,1.231,4.4,3.881,3.881,0,0,0,3.083,1.4,3.351,3.351,0,0,0,2.713-1.335c.74-.9,1.115-2.48,1.115-4.688A7.012,7.012,0,0,0,17.44,9.186,3.469,3.469,0,0,0,14.654,7.8" fill="#1a1818"/>
    </g>
  </g>
</svg>
