<svg id="pinte_s_min" xmlns="http://www.w3.org/2000/svg" xmlns:xlink="http://www.w3.org/1999/xlink" width="28.12" height="27.599" viewBox="0 0 28.12 27.599">
  <defs>
    <clipPath id="clip-path">
      <rect id="Retângulo_280" data-name="Retângulo 280" width="28.12" height="27.599" transform="translate(0 0)" fill="none"/>
    </clipPath>
  </defs>
  <g id="Grupo_1665" data-name="Grupo 1665" clip-path="url(#clip-path)">
    <path id="Caminho_2694" data-name="Caminho 2694" d="M14.3,27.6c-4.766,0-8.217-.7-10.259-2.068A9.388,9.388,0,0,1,.063,19.618L0,19.34l10.343-.973.064.186a4.64,4.64,0,0,0,1.614,2.389,4.85,4.85,0,0,0,2.788.714,4.737,4.737,0,0,0,2.947-.8,1.659,1.659,0,0,0,.758-1.386,1.57,1.57,0,0,0-.989-1.437,20.571,20.571,0,0,0-4.2-1A44.818,44.818,0,0,1,6.09,15.349a7.858,7.858,0,0,1-3.505-2.68,7.026,7.026,0,0,1-1.43-4.321A7.1,7.1,0,0,1,2.7,3.776,9.154,9.154,0,0,1,6.914.929,22.134,22.134,0,0,1,14,0a24.587,24.587,0,0,1,6.924.72,9.219,9.219,0,0,1,3.789,2.259,11.8,11.8,0,0,1,2.508,4.115l.119.307-9.957.98-.059-.2a3,3,0,0,0-1.122-1.7,4.765,4.765,0,0,0-2.691-.738,3.8,3.8,0,0,0-2.3.545,1.532,1.532,0,0,0-.673,1.253,1.306,1.306,0,0,0,.838,1.215,15.758,15.758,0,0,0,4.166.853,29.431,29.431,0,0,1,7.439,1.578,8.418,8.418,0,0,1,3.809,2.942A7.291,7.291,0,0,1,28.12,18.35a8.3,8.3,0,0,1-1.4,4.5,9.43,9.43,0,0,1-4.383,3.472A20.854,20.854,0,0,1,14.3,27.6M.618,19.784a8.864,8.864,0,0,0,3.7,5.333C6.274,26.432,9.632,27.1,14.3,27.1a20.4,20.4,0,0,0,7.848-1.235,8.96,8.96,0,0,0,4.16-3.282A7.792,7.792,0,0,0,27.62,18.35a6.8,6.8,0,0,0-1.237-3.931,7.934,7.934,0,0,0-3.589-2.764,28.951,28.951,0,0,0-7.306-1.543,15.775,15.775,0,0,1-4.331-.9,1.786,1.786,0,0,1-1.115-1.662A2.027,2.027,0,0,1,10.908,5.9a4.2,4.2,0,0,1,2.606-.65,5.252,5.252,0,0,1,2.971.824,3.379,3.379,0,0,1,1.259,1.77l8.893-.875A11.037,11.037,0,0,0,24.36,3.331,8.715,8.715,0,0,0,20.774,1.2,24.137,24.137,0,0,0,14,.5a21.634,21.634,0,0,0-6.923.9A8.649,8.649,0,0,0,3.091,4.09,6.606,6.606,0,0,0,1.655,8.348a6.535,6.535,0,0,0,1.329,4.02,7.385,7.385,0,0,0,3.283,2.515,44.635,44.635,0,0,0,7.144,1.658,20.411,20.411,0,0,1,4.345,1.047,2.054,2.054,0,0,1,1.258,1.881,2.151,2.151,0,0,1-.957,1.785,5.214,5.214,0,0,1-3.248.9,5.325,5.325,0,0,1-3.071-.8A4.986,4.986,0,0,1,10,18.9Z" fill="#1a1818"/>
  </g>
</svg>
