<svg xmlns="http://www.w3.org/2000/svg" xmlns:xlink="http://www.w3.org/1999/xlink" width="27.917" height="27.013" viewBox="0 0 27.917 27.013">
  <defs>
    <clipPath id="clip-path">
      <rect id="Retângulo_290" data-name="Retângulo 290" width="27.917" height="27.013" transform="translate(0 0)" fill="none"/>
    </clipPath>
  </defs>
  <g id="pinte_n_min" transform="translate(0 0)">
    <g id="Grupo_1685" data-name="Grupo 1685" clip-path="url(#clip-path)">
      <path id="Caminho_2704" data-name="Caminho 2704" d="M27.917,27.013H17.432V12.506a5,5,0,0,0-.84-3.288,2.96,2.96,0,0,0-2.352-.93A3.343,3.343,0,0,0,11.5,9.564c-.707.861-1.066,2.458-1.066,4.748v12.7H0V.586H9.753v3.78a13.387,13.387,0,0,1,3.834-3.227A11.353,11.353,0,0,1,18.878,0a8.757,8.757,0,0,1,6.639,2.531c1.593,1.676,2.4,4.285,2.4,7.753Zm-9.985-.5h9.485V10.284c0-3.335-.761-5.828-2.262-7.408A8.28,8.28,0,0,0,18.878.5a10.872,10.872,0,0,0-5.06,1.082A13.6,13.6,0,0,0,9.7,5.216l-.445.555V1.086H.5V26.513H9.937v-12.2c0-2.443.386-4.1,1.18-5.066A3.867,3.867,0,0,1,14.24,7.788a3.477,3.477,0,0,1,2.725,1.1,5.359,5.359,0,0,1,.967,3.621Z" fill="#1a1818"/>
    </g>
  </g>
</svg>
