<svg id="pinte_flor" xmlns="http://www.w3.org/2000/svg" xmlns:xlink="http://www.w3.org/1999/xlink" width="52.403" height="51" viewBox="0 0 52.403 51">
  <defs>
    <clipPath id="clip-path">
      <rect id="Retângulo_307" data-name="Retângulo 307" width="52.403" height="51" fill="none"/>
    </clipPath>
  </defs>
  <g id="Grupo_1717" data-name="Grupo 1717" transform="translate(0 0)" clip-path="url(#clip-path)">
    <path id="Caminho_2722" data-name="Caminho 2722" d="M19.586,26.883a6.615,6.615,0,0,1,1.965-4.807,6.526,6.526,0,0,1,9.4,0,6.862,6.862,0,0,1,0,9.613,6.526,6.526,0,0,1-9.4,0A6.613,6.613,0,0,1,19.586,26.883ZM3.131,29.059a9.274,9.274,0,0,0,6.912,2.667,13.288,13.288,0,0,0,1.895-.14A12.26,12.26,0,0,0,7.622,35.3a8.053,8.053,0,0,0-1.579,4.7,8.825,8.825,0,0,0,1.684,5.051,13.328,13.328,0,0,0,4.316,4A10.49,10.49,0,0,0,17.41,50.6a7.785,7.785,0,0,0,5.754-2.421,11.665,11.665,0,0,0,3.088-6.28,11.647,11.647,0,0,0,3.088,6.28A7.784,7.784,0,0,0,35.093,50.6a10.426,10.426,0,0,0,5.4-1.544,13.459,13.459,0,0,0,4.28-4,8.825,8.825,0,0,0,1.684-5.051,8.053,8.053,0,0,0-1.579-4.7,12.26,12.26,0,0,0-4.316-3.719,13.269,13.269,0,0,0,1.895.14A9.08,9.08,0,0,0,52,22.252a11.147,11.147,0,0,0-1.333-5.4,10.862,10.862,0,0,0-3.544-3.93,8.606,8.606,0,0,0-4.877-1.474,10.224,10.224,0,0,0-7.086,3.088,10.869,10.869,0,0,0,1.192-4.912A8.508,8.508,0,0,0,33.62,2.956,10.626,10.626,0,0,0,26.252.5a10.626,10.626,0,0,0-7.368,2.456,8.508,8.508,0,0,0-2.737,6.666,10.859,10.859,0,0,0,1.193,4.912,10.225,10.225,0,0,0-7.086-3.088A8.6,8.6,0,0,0,5.377,12.92a10.846,10.846,0,0,0-3.544,3.93A11.137,11.137,0,0,0,.5,22.252,9.283,9.283,0,0,0,3.131,29.059Z" transform="translate(-0.05 -0.05)" fill="none" stroke="#1a1818" stroke-width="1"/>
  </g>
</svg>
