<svg id="pinte_b_min" xmlns="http://www.w3.org/2000/svg" xmlns:xlink="http://www.w3.org/1999/xlink" width="29.04" height="36.877" viewBox="0 0 29.04 36.877">
  <defs>
    <clipPath id="clip-path">
      <rect id="Retângulo_318" data-name="Retângulo 318" width="29.04" height="36.877" fill="none"/>
    </clipPath>
  </defs>
  <g id="Grupo_1739" data-name="Grupo 1739" clip-path="url(#clip-path)">
    <path id="Caminho_2733" data-name="Caminho 2733" d="M17.9,36.877A10.554,10.554,0,0,1,13,35.726a11.812,11.812,0,0,1-3.2-2.82v3.385H0V0H10.534V12.052a9.989,9.989,0,0,1,3.037-1.975,11.168,11.168,0,0,1,4.282-.8,10.428,10.428,0,0,1,8.022,3.487c2.1,2.308,3.165,5.655,3.165,9.947A18.838,18.838,0,0,1,27.6,30.294a10.837,10.837,0,0,1-4.012,4.944A10.4,10.4,0,0,1,17.9,36.877M9.3,31.493l.445.559a12.381,12.381,0,0,0,3.488,3.231A10.059,10.059,0,0,0,17.9,36.377a9.9,9.9,0,0,0,5.419-1.56,10.351,10.351,0,0,0,3.824-4.723,18.35,18.35,0,0,0,1.4-7.383c0-4.164-1.021-7.4-3.035-9.61a9.944,9.944,0,0,0-7.652-3.324,10.674,10.674,0,0,0-4.092.762,9.621,9.621,0,0,0-3.3,2.285l-.432.453V.5H.5V35.791H9.3ZM14.655,29.6a4.233,4.233,0,0,1-3.378-1.59C10.4,26.968,9.961,25.283,9.961,23A7.14,7.14,0,0,1,11.3,18.288,4.407,4.407,0,0,1,14.8,16.7a3.848,3.848,0,0,1,3.062,1.532A7.323,7.323,0,0,1,19.1,22.906c0,2.376-.426,4.1-1.265,5.126A3.973,3.973,0,0,1,14.655,29.6M14.8,17.2a3.875,3.875,0,0,0-3.118,1.414A6.676,6.676,0,0,0,10.461,23c0,2.159.4,3.736,1.2,4.685A3.707,3.707,0,0,0,14.655,29.1a3.454,3.454,0,0,0,2.8-1.385c.764-.934,1.152-2.552,1.152-4.81a6.865,6.865,0,0,0-1.128-4.358A3.326,3.326,0,0,0,14.8,17.2" fill="#1a1818"/>
  </g>
</svg>
