<svg xmlns="http://www.w3.org/2000/svg" xmlns:xlink="http://www.w3.org/1999/xlink" width="48.568" height="51" viewBox="0 0 48.568 51">
  <defs>
    <clipPath id="clip-path">
      <rect id="Retângulo_285" data-name="Retângulo 285" width="48.568" height="51" fill="none"/>
    </clipPath>
  </defs>
  <g id="pinte_q" transform="translate(0 0)">
    <g id="Grupo_1675" data-name="Grupo 1675" transform="translate(0 0)" clip-path="url(#clip-path)">
      <path id="Caminho_2699" data-name="Caminho 2699" d="M29.535,31.043A36.326,36.326,0,0,0,25.6,28.508a11.63,11.63,0,0,0-2.822-.815l-2.143,4.919a16.928,16.928,0,0,1,5.433,3.14,12.236,12.236,0,0,1-2.626.271A8.42,8.42,0,0,1,16.647,33.1q-2.475-2.927-2.475-10.171,0-6.218,2.536-9.146a8.329,8.329,0,0,1,6.61-2.927,8.618,8.618,0,0,1,6.866,2.867q2.489,2.868,2.49,9.568,0,5.826-1.63,8.753Q30.228,31.527,29.535,31.043Zm16.811-7.7q0-11.017-5.991-16.932T23.347.5Q12.542.5,6.522,6.551T.5,23.528Q.5,34.786,7.381,41q5.826,5.251,15.906,5.251a28.625,28.625,0,0,0,11.348-1.962q1.117.967,3.924,2.883a44.359,44.359,0,0,0,5.674,3.3l3.8-7.666q-1.992-.875-3.169-1.539-.786-.454-3.35-2.234Q46.346,33.157,46.346,23.347Z" transform="translate(-0.063 -0.063)" fill="none" stroke="#1a1818" stroke-miterlimit="4.331" stroke-width="1"/>
    </g>
  </g>
</svg>
