<svg xmlns="http://www.w3.org/2000/svg" xmlns:xlink="http://www.w3.org/1999/xlink" width="44.494" height="27.014" viewBox="0 0 44.494 27.014">
  <defs>
    <clipPath id="clip-path">
      <rect id="Retângulo_292" data-name="Retângulo 292" width="44.494" height="27.014" transform="translate(0 0)" fill="none"/>
    </clipPath>
  </defs>
  <g id="pinte_m_min" transform="translate(0 0)">
    <g id="Grupo_1689" data-name="Grupo 1689" clip-path="url(#clip-path)">
      <path id="Caminho_2706" data-name="Caminho 2706" d="M44.494,27.014H34.033V11.993a3.943,3.943,0,0,0-.627-2.456A2.739,2.739,0,0,0,31.12,8.288a3.247,3.247,0,0,0-2.631,1.181,6.091,6.091,0,0,0-1.012,3.916V27.014H17.016V12.482a8.83,8.83,0,0,0-.184-2.243,2.934,2.934,0,0,0-1.016-1.453,2.677,2.677,0,0,0-1.685-.546A3.267,3.267,0,0,0,11.5,9.446a6.338,6.338,0,0,0-1.043,4.086V27.014H0V.586H9.777V3.955a12.606,12.606,0,0,1,3.687-2.928A11.4,11.4,0,0,1,18.5,0a9.716,9.716,0,0,1,5.044,1.135A8.315,8.315,0,0,1,26.426,4.2,14.743,14.743,0,0,1,30.532.94,11.34,11.34,0,0,1,35.394,0a8.8,8.8,0,0,1,6.691,2.556c1.6,1.693,2.409,4.359,2.409,7.924Zm-9.961-.5h9.461V10.48c0-3.433-.765-5.983-2.273-7.58A8.32,8.32,0,0,0,35.394.5a10.845,10.845,0,0,0-4.647.891,14.822,14.822,0,0,0-4.191,3.4l-.239.26-.165-.313a7.964,7.964,0,0,0-2.868-3.174A9.233,9.233,0,0,0,18.5.5a10.9,10.9,0,0,0-4.817.976A12.788,12.788,0,0,0,9.718,4.782L9.277,5.3V1.086H.5V26.514H9.961V13.532a6.792,6.792,0,0,1,1.162-4.411A3.79,3.79,0,0,1,14.131,7.74a3.2,3.2,0,0,1,1.988.649,3.428,3.428,0,0,1,1.189,1.7,9.047,9.047,0,0,1,.208,2.4V26.514h9.461V13.385a6.536,6.536,0,0,1,1.13-4.238A3.764,3.764,0,0,1,31.12,7.788,3.245,3.245,0,0,1,33.8,9.232a4.414,4.414,0,0,1,.73,2.761Z" fill="#1a1818"/>
    </g>
  </g>
</svg>
