<svg xmlns="http://www.w3.org/2000/svg" xmlns:xlink="http://www.w3.org/1999/xlink" width="31.325" height="36.951" viewBox="0 0 31.325 36.951">
  <defs>
    <clipPath id="clip-path">
      <rect id="Retângulo_332" data-name="Retângulo 332" width="31.325" height="36.951" transform="translate(0 0)" fill="none"/>
    </clipPath>
  </defs>
  <g id="pinte_y_min" transform="translate(0 0)">
    <g id="Grupo_1767" data-name="Grupo 1767" clip-path="url(#clip-path)">
      <path id="Caminho_2748" data-name="Caminho 2748" d="M9.21,36.952a57.745,57.745,0,0,1-6.671-.588l-.194-.026L1.5,28.827l.367.117a15.535,15.535,0,0,0,4.7.672,4.425,4.425,0,0,0,2.691-.757,5.807,5.807,0,0,0,1.722-2.679L0,0H11.045L16.2,16.639,20.986,0H31.325L20.913,28.041c-1.178,3.18-2.406,5.367-3.652,6.5-1.766,1.6-4.475,2.412-8.051,2.412M2.8,35.893a55.726,55.726,0,0,0,6.412.559c3.448,0,6.044-.768,7.715-2.282,1.186-1.078,2.37-3.2,3.519-6.3L30.607.5H21.363L16.217,18.385,10.676.5H.752L11.524,26.167l-.034.093a6.367,6.367,0,0,1-1.927,3,4.9,4.9,0,0,1-2.99.857,16.354,16.354,0,0,1-4.49-.585Z" fill="#1a1818"/>
    </g>
  </g>
</svg>
