<svg id="pinte_t_min" xmlns="http://www.w3.org/2000/svg" xmlns:xlink="http://www.w3.org/1999/xlink" width="19.98" height="37.036" viewBox="0 0 19.98 37.036">
  <defs>
    <clipPath id="clip-path">
      <rect id="Retângulo_275" data-name="Retângulo 275" width="19.98" height="37.036" transform="translate(0 0)" fill="none"/>
    </clipPath>
  </defs>
  <g id="Grupo_1655" data-name="Grupo 1655" clip-path="url(#clip-path)">
    <path id="Caminho_2686" data-name="Caminho 2686" d="M12.823,37.036a12.253,12.253,0,0,1-5.588-.981,6.062,6.062,0,0,1-2.71-3.009,17.3,17.3,0,0,1-.863-6.378V17.8H0V10.023H3.662V5.36L3.8,5.29,14.123,0V10.023h5.469V17.8H14.123v8.936A4.554,4.554,0,0,0,14.4,28.8,1.572,1.572,0,0,0,15.9,29.5a10.742,10.742,0,0,0,3-.621l.292-.094.789,7.388-.219.048a32.732,32.732,0,0,1-6.938.81M.5,17.3H4.162v9.37a16.834,16.834,0,0,0,.822,6.179,5.568,5.568,0,0,0,2.489,2.768,11.8,11.8,0,0,0,5.35.921,32.018,32.018,0,0,0,6.613-.752l-.677-6.332A10.48,10.48,0,0,1,15.9,30a2.056,2.056,0,0,1-1.924-.951,5.06,5.06,0,0,1-.352-2.32V17.3h5.469V10.523H13.623V.819L4.162,5.665v4.858H.5Z" fill="#1a1818"/>
  </g>
</svg>
