<svg xmlns="http://www.w3.org/2000/svg" xmlns:xlink="http://www.w3.org/1999/xlink" width="27.917" height="27.014" viewBox="0 0 27.917 27.014">
  <defs>
    <clipPath id="clip-path">
      <rect id="Retângulo_273" data-name="Retângulo 273" width="27.917" height="27.014" transform="translate(0 0)" fill="none"/>
    </clipPath>
  </defs>
  <g id="pinte_u_min" transform="translate(0 0)">
    <g id="Grupo_1651" data-name="Grupo 1651" clip-path="url(#clip-path)">
      <path id="Caminho_2684" data-name="Caminho 2684" d="M9.015,27.014A8.725,8.725,0,0,1,2.4,24.482C.808,22.807,0,20.207,0,16.754V0H10.485V14.508a5.046,5.046,0,0,0,.841,3.3,2.947,2.947,0,0,0,2.352.94A3.356,3.356,0,0,0,16.4,17.474c.715-.861,1.077-2.457,1.077-4.747V0H27.917V26.428H18.14V22.673a13.26,13.26,0,0,1-3.822,3.215,11.441,11.441,0,0,1-5.3,1.126M.5.5V16.754c0,3.32.761,5.805,2.263,7.385a8.246,8.246,0,0,0,6.252,2.375,10.946,10.946,0,0,0,5.072-1.07,13.462,13.462,0,0,0,4.107-3.622l.446-.555v4.661h8.777V.5H17.98V12.727c0,2.443-.39,4.1-1.192,5.066a3.875,3.875,0,0,1-3.11,1.457,3.457,3.457,0,0,1-2.727-1.11,5.413,5.413,0,0,1-.966-3.632V.5Z" fill="#1a1818"/>
    </g>
  </g>
</svg>
