<svg id="pinte_b" xmlns="http://www.w3.org/2000/svg" xmlns:xlink="http://www.w3.org/1999/xlink" width="47.214" height="51" viewBox="0 0 47.214 51">
  <defs>
    <clipPath id="clip-path">
      <rect id="Retângulo_319" data-name="Retângulo 319" width="47.214" height="51" fill="none"/>
    </clipPath>
  </defs>
  <g id="Grupo_1741" data-name="Grupo 1741" transform="translate(0 0)" clip-path="url(#clip-path)">
    <path id="Caminho_2734" data-name="Caminho 2734" d="M16.09,29.633h7.847q4.059,0,5.68,1.348a4.406,4.406,0,0,1,1.621,3.565,4.772,4.772,0,0,1-1.638,3.8q-1.638,1.416-5.629,1.415H16.09Zm0-19h6.823q3.513,0,4.93,1.227a4.279,4.279,0,0,1,1.416,3.412,4.539,4.539,0,0,1-1.416,3.6q-1.416,1.247-5.031,1.245H16.09ZM.5,50.512H27.178A67.723,67.723,0,0,0,34.1,49.83a16.355,16.355,0,0,0,5.867-1.638,13.323,13.323,0,0,0,4.946-4.913,13.635,13.635,0,0,0,1.809-6.994,12.241,12.241,0,0,0-2.542-7.931Q41.643,25.2,36.252,23.9a12.3,12.3,0,0,0,5.39-3.343,11.194,11.194,0,0,0,2.764-7.608,11.6,11.6,0,0,0-3.872-8.87Q36.661.5,29.429.5H.5Z" transform="translate(-0.006 -0.006)" fill="none" stroke="#1a1818" stroke-miterlimit="4.331" stroke-width="1"/>
  </g>
</svg>
