<svg id="pinte_j_min" xmlns="http://www.w3.org/2000/svg" xmlns:xlink="http://www.w3.org/1999/xlink" width="16.341" height="46.814" viewBox="0 0 16.341 46.814">
  <defs>
    <clipPath id="clip-path">
      <rect id="Retângulo_297" data-name="Retângulo 297" width="16.341" height="46.814" transform="translate(0 0)" fill="none"/>
    </clipPath>
  </defs>
  <g id="Grupo_1699" data-name="Grupo 1699" clip-path="url(#clip-path)">
    <path id="Caminho_2713" data-name="Caminho 2713" d="M7.449,46.814a38.027,38.027,0,0,1-7.2-.86L0,45.9l1.59-7.717.245.05a9.638,9.638,0,0,0,1.707.239,2.022,2.022,0,0,0,1.73-.767,6.039,6.039,0,0,0,.608-3.3V9.863H16.341v25.4a23.509,23.509,0,0,1-.709,6.9,6.591,6.591,0,0,1-2.674,3.372,10,10,0,0,1-5.509,1.288m-6.858-1.3a36.911,36.911,0,0,0,6.858.8,9.523,9.523,0,0,0,5.233-1.2,6.1,6.1,0,0,0,2.477-3.12,23.084,23.084,0,0,0,.682-6.731v-24.9H6.38V34.406a6.319,6.319,0,0,1-.71,3.605,2.519,2.519,0,0,1-2.128.965,8.879,8.879,0,0,1-1.563-.2ZM16.341,7.336H5.88V0H16.341Zm-9.961-.5h9.461V.5H6.38Z" fill="#1a1818"/>
  </g>
</svg>
