<svg xmlns="http://www.w3.org/2000/svg" xmlns:xlink="http://www.w3.org/1999/xlink" width="30.507" height="27.6" viewBox="0 0 30.507 27.6">
  <defs>
    <clipPath id="clip-path">
      <rect id="Retângulo_320" data-name="Retângulo 320" width="30.507" height="27.6" transform="translate(0 0)" fill="none"/>
    </clipPath>
  </defs>
  <g id="pinte_a_min" transform="translate(0 0)">
    <g id="Grupo_1743" data-name="Grupo 1743" clip-path="url(#clip-path)">
      <path id="Caminho_2735" data-name="Caminho 2735" d="M9.7,27.6c-3.142,0-5.568-.745-7.21-2.212A7.1,7.1,0,0,1,0,19.9a7.206,7.206,0,0,1,1.8-5.027c1.185-1.3,3.383-2.282,6.533-2.908,3.7-.744,6.136-1.273,7.233-1.571a32.983,32.983,0,0,0,3.329-1.113,3.131,3.131,0,0,0-.679-2.214,3.6,3.6,0,0,0-2.487-.662A6.688,6.688,0,0,0,12.2,7.15a4.066,4.066,0,0,0-1.437,2.166L10.7,9.5.729,8.453l.059-.272A10.905,10.905,0,0,1,2.378,4.17a8.815,8.815,0,0,1,3-2.552A12.519,12.519,0,0,1,9.215.419,30.736,30.736,0,0,1,14.434,0a41.56,41.56,0,0,1,7.223.5A9.511,9.511,0,0,1,26.293,2.65a7.587,7.587,0,0,1,2.072,3.215A11.552,11.552,0,0,1,29.113,9.8v11.45a13.624,13.624,0,0,0,.226,2.814,12.642,12.642,0,0,0,.994,2.6l.174.359H20.635l-.071-.128a9.54,9.54,0,0,1-.752-1.571,8.961,8.961,0,0,1-.276-1.221,12.715,12.715,0,0,1-3.614,2.412A16.483,16.483,0,0,1,9.7,27.6m6.03-21.692a3.987,3.987,0,0,1,2.835.8A3.735,3.735,0,0,1,19.4,9.454v.17l-.158.063A34.271,34.271,0,0,1,15.7,10.879c-1.107.3-3.552.833-7.267,1.579-3.042.6-5.148,1.532-6.261,2.755A6.732,6.732,0,0,0,.5,19.9a6.616,6.616,0,0,0,2.321,5.112C4.369,26.4,6.683,27.1,9.7,27.1a15.98,15.98,0,0,0,6.033-1.056,12.691,12.691,0,0,0,3.8-2.634l.348-.335.073.477a11.067,11.067,0,0,0,.332,1.608,8.645,8.645,0,0,0,.642,1.354h8.783a12.128,12.128,0,0,1-.861-2.345,14.1,14.1,0,0,1-.238-2.923V9.8a11.052,11.052,0,0,0-.717-3.76,7.117,7.117,0,0,0-1.931-3.009A9.03,9.03,0,0,0,21.566,1,41.136,41.136,0,0,0,14.434.5,30.232,30.232,0,0,0,9.3.911,12.019,12.019,0,0,0,5.62,2.056a8.341,8.341,0,0,0-2.835,2.4A10.123,10.123,0,0,0,1.337,8.014l9.022.951a4.373,4.373,0,0,1,1.572-2.236,7.144,7.144,0,0,1,3.8-.821m-2.3,16.174a3.706,3.706,0,0,1-2.573-.81,2.79,2.79,0,0,1,.007-4.112,9.934,9.934,0,0,1,3.942-1.649c1.467-.37,2.9-.8,4.253-1.287l.334-.12v1.942a6.847,6.847,0,0,1-.626,3.13,5.143,5.143,0,0,1-2.125,2.068,6.462,6.462,0,0,1-3.212.838m5.463-7.27c-1.271.442-2.6.84-3.961,1.183a9.774,9.774,0,0,0-3.721,1.525A2.29,2.29,0,0,0,11.2,20.9a3.231,3.231,0,0,0,2.236.68,5.961,5.961,0,0,0,2.965-.773,4.656,4.656,0,0,0,1.928-1.863,6.376,6.376,0,0,0,.57-2.9Z" fill="#1a1818"/>
    </g>
  </g>
</svg>
