<svg id="pinte_d" xmlns="http://www.w3.org/2000/svg" xmlns:xlink="http://www.w3.org/1999/xlink" width="47.009" height="51" viewBox="0 0 47.009 51">
  <defs>
    <clipPath id="clip-path">
      <rect id="Retângulo_315" data-name="Retângulo 315" width="47.009" height="51" fill="none"/>
    </clipPath>
  </defs>
  <g id="Grupo_1733" data-name="Grupo 1733" transform="translate(0 0)" clip-path="url(#clip-path)">
    <path id="Caminho_2730" data-name="Caminho 2730" d="M19.809,11.826q6,0,8.6,2.934T31,25.642q0,6.005-1.159,8.683a7.29,7.29,0,0,1-3.207,3.752q-2.047,1.075-6.891,1.074H15.954V11.826ZM.5,50.512H23.46a35.831,35.831,0,0,0,9.211-1.365,16.527,16.527,0,0,0,6.959-3.974,20.581,20.581,0,0,0,5.066-7.4q1.825-4.418,1.825-12.434a37.224,37.224,0,0,0-1.228-9.689,21.9,21.9,0,0,0-3.957-8.017,17.841,17.841,0,0,0-6.908-5.287A27.5,27.5,0,0,0,23.46.5H.5Z" transform="translate(-0.006 -0.006)" fill="none" stroke="#1a1818" stroke-miterlimit="4.331" stroke-width="1"/>
  </g>
</svg>
