<svg xmlns="http://www.w3.org/2000/svg" xmlns:xlink="http://www.w3.org/1999/xlink" width="40.821" height="51" viewBox="0 0 40.821 51">
  <defs>
    <clipPath id="clip-path">
      <rect id="Retângulo_325" data-name="Retângulo 325" width="40.821" height="51" fill="none"/>
    </clipPath>
  </defs>
  <g id="pinte_6_fim" transform="translate(0 0)">
    <g id="Grupo_1753" data-name="Grupo 1753" transform="translate(0 0)" clip-path="url(#clip-path)">
      <path id="Caminho_2740" data-name="Caminho 2740" d="M16.511,27.862A6.117,6.117,0,0,1,21.22,25.78a5.823,5.823,0,0,1,4.593,2.149q1.85,2.148,1.851,6.245,0,4-1.785,6.014A5.674,5.674,0,0,1,21.451,42.2a6.253,6.253,0,0,1-4.857-2.231,8.951,8.951,0,0,1-1.983-6.163A8.515,8.515,0,0,1,16.511,27.862ZM36.024,5.754a14.092,14.092,0,0,0-5.569-3.916A25.3,25.3,0,0,0,21.319.5q-9.782,0-15.3,6.1T.5,25.813Q.5,34.768,3.128,40.2a17.4,17.4,0,0,0,7.022,7.915Q14.544,50.6,21.815,50.6a22.18,22.18,0,0,0,10.062-2.032,14.784,14.784,0,0,0,6.279-6A17.356,17.356,0,0,0,40.42,33.81a16.18,16.18,0,0,0-4.478-11.731,14.659,14.659,0,0,0-10.954-4.626,13.921,13.921,0,0,0-5.883,1.173,17.121,17.121,0,0,0-4.957,3.618q.627-7.8,1.949-10.178a5.6,5.6,0,0,1,5.089-3.3,4.314,4.314,0,0,1,3.057,1.156,7.171,7.171,0,0,1,1.768,3.966l13.383-1.652A17.388,17.388,0,0,0,36.024,5.754Z" transform="translate(-0.049 -0.049)" fill="none" stroke="#1a1818" stroke-width="1"/>
    </g>
  </g>
</svg>
