<svg xmlns="http://www.w3.org/2000/svg" xmlns:xlink="http://www.w3.org/1999/xlink" width="21.075" height="36.901" viewBox="0 0 21.075 36.901">
  <defs>
    <clipPath id="clip-path">
      <rect id="Retângulo_308" data-name="Retângulo 308" width="21.075" height="36.901" transform="translate(0 0)" fill="none"/>
    </clipPath>
  </defs>
  <g id="pinte_f_min" transform="translate(0 0)">
    <g id="Grupo_1719" data-name="Grupo 1719" clip-path="url(#clip-path)">
      <path id="Caminho_2723" data-name="Caminho 2723" d="M14.172,36.9H3.711V18.249H0V10.473H3.711V9.551a20.112,20.112,0,0,1,.346-3.535,7.244,7.244,0,0,1,1.33-3.222A6.9,6.9,0,0,1,8.12.765,13.17,13.17,0,0,1,13.19,0a68.291,68.291,0,0,1,7.622.612l.263.032L19.886,7.152l-.242-.04c-2.541-.417-3.979-.383-4.619.111a2.269,2.269,0,0,0-.74,1.29,11.593,11.593,0,0,0-.112,1.96h4.735v7.776H14.172Zm-9.961-.5h9.461V17.749h4.736V10.973H13.672v-.25A13.059,13.059,0,0,1,13.8,8.4a2.742,2.742,0,0,1,.922-1.57c.755-.583,2.16-.655,4.761-.247l1-5.5A66,66,0,0,0,13.19.5a12.715,12.715,0,0,0-4.869.723A6.421,6.421,0,0,0,5.781,3.1a6.779,6.779,0,0,0-1.232,3,19.592,19.592,0,0,0-.338,3.447v1.422H.5v6.776H4.211Z" fill="#1a1818"/>
    </g>
  </g>
</svg>
