<svg xmlns="http://www.w3.org/2000/svg" xmlns:xlink="http://www.w3.org/1999/xlink" width="30.546" height="27.6" viewBox="0 0 30.546 27.6">
  <defs>
    <clipPath id="clip-path">
      <rect id="Retângulo_316" data-name="Retângulo 316" width="30.546" height="27.6" transform="translate(0 0)" fill="none"/>
    </clipPath>
  </defs>
  <g id="pinte_c_min" transform="translate(0 0)">
    <g id="Grupo_1735" data-name="Grupo 1735" clip-path="url(#clip-path)">
      <path id="Caminho_2731" data-name="Caminho 2731" d="M16.07,27.6a26.351,26.351,0,0,1-6.94-.778,12.315,12.315,0,0,1-4.821-2.54,12.851,12.851,0,0,1-3.161-4.116A14.509,14.509,0,0,1,0,13.91,14.786,14.786,0,0,1,1.395,7.136a12.35,12.35,0,0,1,2.79-3.572A12.909,12.909,0,0,1,7.82,1.214,20.116,20.116,0,0,1,15.362,0c4.263,0,7.567.778,9.821,2.314a12.265,12.265,0,0,1,4.773,6.774l.087.282-9.862,1.313-.056-.213a4.11,4.11,0,0,0-1.5-2.364,4.975,4.975,0,0,0-2.966-.794,4.739,4.739,0,0,0-3.8,1.68,7.809,7.809,0,0,0-1.466,5.186,6.754,6.754,0,0,0,1.449,4.681,4.773,4.773,0,0,0,3.672,1.576,5.087,5.087,0,0,0,3.134-.951,5.751,5.751,0,0,0,1.9-2.952l.062-.2,9.94,1.13-.074.28a13.565,13.565,0,0,1-2.612,5.21,12.216,12.216,0,0,1-4.647,3.427A18.217,18.217,0,0,1,16.07,27.6M15.362.5A19.623,19.623,0,0,0,8.011,1.676,12.412,12.412,0,0,0,4.518,3.937,11.846,11.846,0,0,0,1.84,7.365,14.286,14.286,0,0,0,.5,13.91a14.025,14.025,0,0,0,1.1,6.038,12.378,12.378,0,0,0,3.039,3.957,11.839,11.839,0,0,0,4.628,2.436,25.893,25.893,0,0,0,6.8.759,17.723,17.723,0,0,0,6.944-1.176,11.71,11.71,0,0,0,4.46-3.287,12.959,12.959,0,0,0,2.438-4.74l-8.956-1.018a6.108,6.108,0,0,1-2.013,3,5.574,5.574,0,0,1-3.435,1.052A5.256,5.256,0,0,1,11.466,19.2a7.228,7.228,0,0,1-1.579-5.018,8.28,8.28,0,0,1,1.587-5.513,5.282,5.282,0,0,1,4.181-1.853,5.452,5.452,0,0,1,3.26.89,4.511,4.511,0,0,1,1.634,2.428l8.84-1.177A11.687,11.687,0,0,0,24.9,2.727C22.733,1.25,19.523.5,15.362.5" fill="#1a1818"/>
    </g>
  </g>
</svg>
