<svg xmlns="http://www.w3.org/2000/svg" xmlns:xlink="http://www.w3.org/1999/xlink" width="40.491" height="51" viewBox="0 0 40.491 51">
  <defs>
    <clipPath id="clip-path">
      <rect id="Retângulo_323" data-name="Retângulo 323" width="40.491" height="51" fill="none"/>
    </clipPath>
  </defs>
  <g id="pinte_8_fim" transform="translate(0 0)">
    <g id="Grupo_1749" data-name="Grupo 1749" transform="translate(0 0)" clip-path="url(#clip-path)">
      <path id="Caminho_2738" data-name="Caminho 2738" d="M15.783,29.712a5.833,5.833,0,0,1,4.378-1.983,5.984,5.984,0,0,1,4.478,2.049,7.345,7.345,0,0,1,1.934,5.254,7.4,7.4,0,0,1-1.917,5.238,5.787,5.787,0,0,1-4.33,2.066,6.022,6.022,0,0,1-4.46-2.033,7.25,7.25,0,0,1-1.95-5.237A7.491,7.491,0,0,1,15.783,29.712Zm.4-19.48A5.39,5.39,0,0,1,20.162,8.7a5.345,5.345,0,0,1,3.966,1.57,5.556,5.556,0,0,1,1.553,4.081,5.381,5.381,0,0,1-1.487,3.932,5.085,5.085,0,0,1-3.8,1.52,5.719,5.719,0,0,1-4.181-1.537,5.407,5.407,0,0,1-1.569-4.048A5.39,5.39,0,0,1,16.18,10.232ZM2.483,28.308A12.669,12.669,0,0,0,.5,35.529a15.094,15.094,0,0,0,2.114,7.9,13.3,13.3,0,0,0,6.18,5.354Q12.859,50.6,20.559,50.6a35.292,35.292,0,0,0,7.716-.809,16.655,16.655,0,0,0,6.047-2.528,13.607,13.607,0,0,0,4.1-4.874,14.31,14.31,0,0,0,1.669-6.791,12.745,12.745,0,0,0-1.934-6.873,13.568,13.568,0,0,0-5.865-4.99,15.159,15.159,0,0,0,4.362-4.1A11,11,0,0,0,38.5,13.52,11.441,11.441,0,0,0,33.86,4.2Q29.216.5,19.5.5,12.165.5,7.7,3.474,1.986,7.341,1.987,13.421A11.148,11.148,0,0,0,3.97,19.964,12.849,12.849,0,0,0,8.6,23.731,12.614,12.614,0,0,0,2.483,28.308Z" transform="translate(-0.049 -0.049)" fill="none" stroke="#1a1818" stroke-width="1"/>
    </g>
  </g>
</svg>
