<svg xmlns="http://www.w3.org/2000/svg" xmlns:xlink="http://www.w3.org/1999/xlink" width="40.821" height="51" viewBox="0 0 40.821 51">
  <defs>
    <clipPath id="clip-path">
      <rect id="Retângulo_322" data-name="Retângulo 322" width="40.821" height="51" fill="none"/>
    </clipPath>
  </defs>
  <g id="pinte_9_fim" transform="translate(0 0)">
    <g id="Grupo_1747" data-name="Grupo 1747" transform="translate(0 0)" clip-path="url(#clip-path)">
      <path id="Caminho_2737" data-name="Caminho 2737" d="M24.424,23.235A6.1,6.1,0,0,1,19.7,25.318a5.772,5.772,0,0,1-4.577-2.149,9.313,9.313,0,0,1-1.835-6.213q0-4.031,1.768-6.047A5.663,5.663,0,0,1,19.5,8.894a6.221,6.221,0,0,1,4.825,2.231,8.957,8.957,0,0,1,1.983,6.163A8.563,8.563,0,0,1,24.424,23.235ZM4.928,45.343a14.1,14.1,0,0,0,5.551,3.916A25.168,25.168,0,0,0,19.6,50.6q9.781,0,15.3-6.1t5.519-19.216q0-8.923-2.627-14.358A17.521,17.521,0,0,0,30.77,3Q26.374.5,19.1.5A22.072,22.072,0,0,0,9.059,2.532a14.9,14.9,0,0,0-6.279,6A17.315,17.315,0,0,0,.5,17.32a16.134,16.134,0,0,0,4.478,11.7,14.692,14.692,0,0,0,10.987,4.626,14.078,14.078,0,0,0,5.883-1.157A16.594,16.594,0,0,0,26.8,28.853q-.662,7.8-1.983,10.211a5.583,5.583,0,0,1-5.056,3.271,4.368,4.368,0,0,1-3.073-1.156,7.083,7.083,0,0,1-1.784-3.966L1.524,38.9A17.763,17.763,0,0,0,4.928,45.343Z" transform="translate(-0.049 -0.049)" fill="none" stroke="#1a1818" stroke-width="1"/>
    </g>
  </g>
</svg>
