<svg xmlns="http://www.w3.org/2000/svg" xmlns:xlink="http://www.w3.org/1999/xlink" width="29.04" height="36.877" viewBox="0 0 29.04 36.877">
  <defs>
    <clipPath id="clip-path">
      <rect id="Retângulo_314" data-name="Retângulo 314" width="29.04" height="36.877" fill="none"/>
    </clipPath>
  </defs>
  <g id="pinte_d_min" transform="translate(-12 143)">
    <g id="Grupo_1731" data-name="Grupo 1731" transform="translate(12 -143)" clip-path="url(#clip-path)">
      <path id="Caminho_2729" data-name="Caminho 2729" d="M11.139,36.877a9.516,9.516,0,0,1-8.3-4.136A17.068,17.068,0,0,1,0,22.808c0-4.34,1.061-7.715,3.153-10.03a10.4,10.4,0,0,1,8.035-3.5,11.237,11.237,0,0,1,4.306.8,9.754,9.754,0,0,1,3.012,1.969V0H29.04V36.291h-9.8V32.9a11.7,11.7,0,0,1-3.2,2.819,10.454,10.454,0,0,1-4.9,1.153m.049-27.1a9.915,9.915,0,0,0-7.664,3.336C1.518,15.333.5,18.595.5,22.808a16.579,16.579,0,0,0,2.751,9.648,9.042,9.042,0,0,0,7.888,3.921,9.965,9.965,0,0,0,4.669-1.095,12.339,12.339,0,0,0,3.485-3.23l.446-.557v4.3h8.8V.5H19.006V13.284l-.432-.461a9.4,9.4,0,0,0-3.27-2.284,10.747,10.747,0,0,0-4.116-.762m3.2,19.824A3.973,3.973,0,0,1,11.2,28.032a7.561,7.561,0,0,1-1.265-4.809c0-2.31.413-3.99,1.228-4.991a3.861,3.861,0,0,1,3.1-1.533,4.392,4.392,0,0,1,3.461,1.588A7.1,7.1,0,0,1,19.079,23c0,2.3-.447,3.986-1.329,5.02A4.256,4.256,0,0,1,14.386,29.6m-.122-12.4a3.339,3.339,0,0,0-2.711,1.348c-.741.91-1.116,2.484-1.116,4.676a7.108,7.108,0,0,0,1.152,4.493,3.451,3.451,0,0,0,2.8,1.385,3.727,3.727,0,0,0,2.983-1.4c.8-.942,1.21-2.522,1.21-4.7a6.634,6.634,0,0,0-1.233-4.39A3.862,3.862,0,0,0,14.264,17.2" fill="#1a1818"/>
    </g>
  </g>
</svg>
