<svg xmlns="http://www.w3.org/2000/svg" xmlns:xlink="http://www.w3.org/1999/xlink" width="41.998" height="51" viewBox="0 0 41.998 51">
  <defs>
    <clipPath id="clip-path">
      <rect id="Retângulo_326" data-name="Retângulo 326" width="41.998" height="51" fill="none"/>
    </clipPath>
  </defs>
  <g id="pinte_5_fim" transform="translate(0 0)">
    <g id="Grupo_1755" data-name="Grupo 1755" transform="translate(0 0)" clip-path="url(#clip-path)">
      <path id="Caminho_2741" data-name="Caminho 2741" d="M2.427,26.969l11.656,1.679A11.124,11.124,0,0,1,17.106,26.1a8.109,8.109,0,0,1,3.829-.974,6.469,6.469,0,0,1,5.005,2.049q1.881,2.049,1.881,6.449,0,4.3-1.865,6.466a5.959,5.959,0,0,1-4.719,2.167,6.219,6.219,0,0,1-4.4-1.73,8.407,8.407,0,0,1-2.351-5.056L.647,36.978a21.656,21.656,0,0,0,2.52,5.778A16.419,16.419,0,0,0,7.113,46.9a16.975,16.975,0,0,0,5.912,2.754,32.87,32.87,0,0,0,8.347.924,23.582,23.582,0,0,0,11.135-2.318,16.062,16.062,0,0,0,6.718-6.718,19.09,19.09,0,0,0,2.368-9.17,15.025,15.025,0,0,0-4.6-11.253Q32.389,16.657,25,16.656a18.855,18.855,0,0,0-4.416.538,23.594,23.594,0,0,0-4.518,1.612l1.176-7.39h22V.5H6.76Z" transform="translate(-0.054 -0.042)" fill="none" stroke="#1a1818" stroke-width="1"/>
    </g>
  </g>
</svg>
