<svg id="pinte_r" xmlns="http://www.w3.org/2000/svg" xmlns:xlink="http://www.w3.org/1999/xlink" width="50.499" height="51" viewBox="0 0 50.499 51">
  <defs>
    <clipPath id="clip-path">
      <rect id="Retângulo_283" data-name="Retângulo 283" width="50.499" height="51" fill="none"/>
    </clipPath>
  </defs>
  <g id="Grupo_1671" data-name="Grupo 1671" transform="translate(0 0)" clip-path="url(#clip-path)">
    <path id="Caminho_2697" data-name="Caminho 2697" d="M16.022,10.6H22.81q4.231,0,5.766,1.3a4.6,4.6,0,0,1,1.536,3.719,4.621,4.621,0,0,1-.972,2.9,4.089,4.089,0,0,1-2.507,1.569,23.319,23.319,0,0,1-4.094.682H16.022Zm0,39.915v-20.3h1.365a6.486,6.486,0,0,1,3.786,1.16,11.639,11.639,0,0,1,2.8,3.854l8.261,15.284H49.693L42.209,36.02a19.656,19.656,0,0,0-2.164-3.107,15.576,15.576,0,0,0-2.472-2.629A15.409,15.409,0,0,0,33.55,28.44a18.68,18.68,0,0,0,5.428-1.979,13.884,13.884,0,0,0,4.881-4.9,13.919,13.919,0,0,0,1.775-7.181,13.813,13.813,0,0,0-2.319-8.1,11.668,11.668,0,0,0-6.107-4.555A37.441,37.441,0,0,0,26.256.5H.5V50.512Z" transform="translate(-0.006 -0.006)" fill="none" stroke="#1a1818" stroke-miterlimit="4.331" stroke-width="1"/>
  </g>
</svg>
