<svg xmlns="http://www.w3.org/2000/svg" xmlns:xlink="http://www.w3.org/1999/xlink" width="29.039" height="36.876" viewBox="0 0 29.039 36.876">
  <defs>
    <clipPath id="clip-path">
      <rect id="Retângulo_284" data-name="Retângulo 284" width="29.039" height="36.876" transform="translate(0 0)" fill="none"/>
    </clipPath>
  </defs>
  <g id="pinte_q_min" transform="translate(0 0)">
    <g id="Grupo_1673" data-name="Grupo 1673" clip-path="url(#clip-path)">
      <path id="Caminho_2698" data-name="Caminho 2698" d="M29.039,36.877H18.506V24.85a9.932,9.932,0,0,1-3.013,1.95,11.233,11.233,0,0,1-4.305.8,10.424,10.424,0,0,1-8.023-3.487C1.065,21.805,0,18.467,0,14.191a18.929,18.929,0,0,1,1.437-7.6A10.808,10.808,0,0,1,5.462,1.638,10.409,10.409,0,0,1,11.139,0a10.53,10.53,0,0,1,4.924,1.176,11.633,11.633,0,0,1,3.176,2.795V.586h9.8Zm-10.033-.5h9.533V1.086h-8.8v4.3l-.446-.558A12.223,12.223,0,0,0,15.83,1.618,10.04,10.04,0,0,0,11.139.5,9.922,9.922,0,0,0,5.73,2.06,10.307,10.307,0,0,0,1.9,6.8,18.416,18.416,0,0,0,.5,14.191c0,4.148,1.021,7.372,3.034,9.585A9.945,9.945,0,0,0,11.188,27.1a10.743,10.743,0,0,0,4.115-.762,9.494,9.494,0,0,0,3.272-2.26l.431-.452Zm-4.742-16.2a3.879,3.879,0,0,1-3.085-1.518A7.3,7.3,0,0,1,9.936,13.97c0-2.357.426-4.073,1.265-5.1A3.979,3.979,0,0,1,14.385,7.3a4.254,4.254,0,0,1,3.378,1.578c.873,1.034,1.315,2.714,1.315,4.995A7.133,7.133,0,0,1,17.737,18.6a4.4,4.4,0,0,1-3.473,1.575M14.385,7.8a3.455,3.455,0,0,0-2.8,1.386c-.765.935-1.152,2.545-1.152,4.784a6.85,6.85,0,0,0,1.128,4.37,3.359,3.359,0,0,0,2.7,1.337,3.866,3.866,0,0,0,3.094-1.4,6.674,6.674,0,0,0,1.22-4.4c0-2.159-.4-3.731-1.2-4.673a3.726,3.726,0,0,0-3-1.4" fill="#1a1818"/>
    </g>
  </g>
</svg>
