<svg xmlns="http://www.w3.org/2000/svg" xmlns:xlink="http://www.w3.org/1999/xlink" width="40.491" height="51" viewBox="0 0 40.491 51">
  <defs>
    <clipPath id="clip-path">
      <rect id="Retângulo_335" data-name="Retângulo 335" width="40.491" height="51" fill="none"/>
    </clipPath>
  </defs>
  <g id="pinte_0_fim" transform="translate(0 0)">
    <g id="Grupo_1773" data-name="Grupo 1773" transform="translate(0 0)" clip-path="url(#clip-path)">
      <path id="Caminho_2753" data-name="Caminho 2753" d="M15.338,12.843a5,5,0,0,1,4.824-3.387,5.238,5.238,0,0,1,4.907,3.322Q26.705,16.1,26.7,25.747a47.583,47.583,0,0,1-.71,9.682,8.915,8.915,0,0,1-2.214,4.543,4.97,4.97,0,0,1-3.553,1.437q-3.106,0-4.742-3.387T13.851,25.384Q13.851,16.23,15.338,12.843ZM1.475,35.611A21.537,21.537,0,0,0,4.2,42.931a16,16,0,0,0,6.179,5.716,21.538,21.538,0,0,0,9.881,1.95q10.906,0,15.366-6.114t4.461-19.3a46.429,46.429,0,0,0-1.355-11.3A21.166,21.166,0,0,0,36.9,8.91a16.709,16.709,0,0,0-3.123-4.064,14.861,14.861,0,0,0-5.122-3.139A22.674,22.674,0,0,0,20.625.5Q10.446.5,5.473,6.019T.5,25.35A50.036,50.036,0,0,0,1.475,35.611Z" transform="translate(-0.049 -0.049)" fill="none" stroke="#1a1818" stroke-width="1"/>
    </g>
  </g>
</svg>
