<svg xmlns="http://www.w3.org/2000/svg" xmlns:xlink="http://www.w3.org/1999/xlink" width="30.529" height="27.6" viewBox="0 0 30.529 27.6">
  <defs>
    <clipPath id="clip-path">
      <rect id="Retângulo_312" data-name="Retângulo 312" width="30.529" height="27.6" transform="translate(0 0)" fill="none"/>
    </clipPath>
  </defs>
  <g id="pinte_e_min" transform="translate(0 0)">
    <g id="Grupo_1727" data-name="Grupo 1727" clip-path="url(#clip-path)">
      <path id="Caminho_2727" data-name="Caminho 2727" d="M15.191,27.6a18.968,18.968,0,0,1-8.216-1.479,12.21,12.21,0,0,1-5-4.707A14.238,14.238,0,0,1,0,13.849,13.355,13.355,0,0,1,3.971,3.83C6.6,1.289,10.279,0,14.9,0A19.469,19.469,0,0,1,23.8,1.713,11.667,11.667,0,0,1,28.816,6.7a18.168,18.168,0,0,1,1.713,8.442v1.373H10.641a5.954,5.954,0,0,0,1.2,3.15,4.486,4.486,0,0,0,3.571,1.6,5.43,5.43,0,0,0,2.662-.7,6.3,6.3,0,0,0,1.657-1.573l.084-.106,10.315.952-.195.337a14.34,14.34,0,0,1-5.518,5.7c-2.145,1.145-5.249,1.726-9.226,1.726M14.9.5C10.413.5,6.853,1.741,4.318,4.19A12.874,12.874,0,0,0,.5,13.849a13.745,13.745,0,0,0,1.9,7.3A11.715,11.715,0,0,0,7.2,25.673,18.489,18.489,0,0,0,15.191,27.1c3.894,0,6.918-.561,8.99-1.668A13.616,13.616,0,0,0,29.3,20.263l-9.265-.855A6.612,6.612,0,0,1,18.32,21a5.922,5.922,0,0,1-2.908.766,4.966,4.966,0,0,1-3.95-1.773,6.7,6.7,0,0,1-1.353-3.7l-.031-.278H30.029v-.873a17.682,17.682,0,0,0-1.655-8.209,11.18,11.18,0,0,0-4.8-4.778A18.984,18.984,0,0,0,14.9.5m5.55,11.255H10.1l.029-.276a7.163,7.163,0,0,1,1.2-3.618,4.758,4.758,0,0,1,3.983-1.977A4.761,4.761,0,0,1,18.8,7.2a6.905,6.905,0,0,1,1.623,4.279Zm-9.785-.5h9.229a6.187,6.187,0,0,0-1.446-3.7,4.273,4.273,0,0,0-3.132-1.173,4.233,4.233,0,0,0-3.586,1.78,6.4,6.4,0,0,0-1.065,3.091" fill="#1a1818"/>
    </g>
  </g>
</svg>
