<svg xmlns="http://www.w3.org/2000/svg" xmlns:xlink="http://www.w3.org/1999/xlink" width="50.242" height="51" viewBox="0 0 50.242 51">
  <defs>
    <clipPath id="clip-path">
      <rect id="Retângulo_306" data-name="Retângulo 306" width="50.242" height="51" fill="none"/>
    </clipPath>
  </defs>
  <g id="pinte_g" transform="translate(0 -0.001)">
    <g id="Grupo_1715" data-name="Grupo 1715" transform="translate(0 0.001)" clip-path="url(#clip-path)">
      <path id="Caminho_2721" data-name="Caminho 2721" d="M36.679,32.191v4.556a25.846,25.846,0,0,1-5.216,2.476,15.673,15.673,0,0,1-4.786.726,10.38,10.38,0,0,1-8.237-3.367q-2.955-3.367-2.954-11.224,0-7.393,2.921-10.811a9.794,9.794,0,0,1,7.841-3.416,9.437,9.437,0,0,1,5.43,1.452A7.817,7.817,0,0,1,34.7,16.774L49.125,14.2A20.031,20.031,0,0,0,45.18,6.459a15.591,15.591,0,0,0-6.6-4.506Q34.6.5,26.578.5,18.26.5,13.341,2.844a21.172,21.172,0,0,0-9.573,8.9A27.847,27.847,0,0,0,.5,25.522,28.751,28.751,0,0,0,3.487,38.859,20.1,20.1,0,0,0,11.9,47.607q5.429,2.938,14.046,2.938a39.84,39.84,0,0,0,12.1-1.634,47.326,47.326,0,0,0,11.735-6.157V22.123H26.678V32.191Z" transform="translate(-0.022 -0.023)" fill="none" stroke="#1a1818" stroke-miterlimit="4.331" stroke-width="1"/>
    </g>
  </g>
</svg>
