<svg xmlns="http://www.w3.org/2000/svg" xmlns:xlink="http://www.w3.org/1999/xlink" width="44.901" height="51" viewBox="0 0 44.901 51">
  <defs>
    <clipPath id="clip-path">
      <rect id="Retângulo_281" data-name="Retângulo 281" width="44.901" height="51" fill="none"/>
    </clipPath>
  </defs>
  <g id="pinte_s" transform="translate(0 -0.001)">
    <g id="Grupo_1667" data-name="Grupo 1667" transform="translate(0 0.001)" clip-path="url(#clip-path)">
      <path id="Caminho_2695" data-name="Caminho 2695" d="M5.923,45.791q4.754,4.754,17.1,4.754a29.079,29.079,0,0,0,11.652-2.03,16.109,16.109,0,0,0,7.2-5.959,15.341,15.341,0,0,0,2.574-8.583,13.6,13.6,0,0,0-1.931-7.164,14.768,14.768,0,0,0-6.173-5.364Q32.1,19.284,22.3,17.171q-3.962-.825-5.018-1.783a2.692,2.692,0,0,1-1.089-2.08,3.389,3.389,0,0,1,1.32-2.69,5.994,5.994,0,0,1,3.928-1.106A7.578,7.578,0,0,1,26.406,11a7.574,7.574,0,0,1,2.36,4.753l14.1-.825Q41.938,7.4,37.069,3.95T22.924.5q-7.561,0-11.9,1.9a14.344,14.344,0,0,0-6.5,5.216,12.686,12.686,0,0,0-2.162,7.048A11.814,11.814,0,0,0,6.583,24q4.193,3.665,14.03,5.876,6.007,1.32,7.659,2.806a4.443,4.443,0,0,1,1.651,3.367,4.5,4.5,0,0,1-1.734,3.483,7.309,7.309,0,0,1-4.934,1.5,7.906,7.906,0,0,1-6.6-2.938,10.846,10.846,0,0,1-1.882-5.282L.542,33.709A18.747,18.747,0,0,0,5.923,45.791Z" transform="translate(-0.024 -0.023)" fill="none" stroke="#1a1818" stroke-miterlimit="4.331" stroke-width="1"/>
    </g>
  </g>
</svg>
