<svg id="pinte_h_min" xmlns="http://www.w3.org/2000/svg" xmlns:xlink="http://www.w3.org/1999/xlink" width="27.918" height="36.291" viewBox="0 0 27.918 36.291">
  <defs>
    <clipPath id="clip-path">
      <rect id="Retângulo_303" data-name="Retângulo 303" width="27.918" height="36.291" fill="none"/>
    </clipPath>
  </defs>
  <g id="Grupo_1709" data-name="Grupo 1709" clip-path="url(#clip-path)">
    <path id="Caminho_2718" data-name="Caminho 2718" d="M27.918,36.291H17.432V21.783a5,5,0,0,0-.839-3.288,2.965,2.965,0,0,0-2.352-.93A3.346,3.346,0,0,0,11.5,18.841c-.708.86-1.066,2.458-1.066,4.749v12.7H0V0H10.438V12.828A13.087,13.087,0,0,1,14.113,10.2a11.731,11.731,0,0,1,4.839-.926,8.643,8.643,0,0,1,6.566,2.544c1.593,1.685,2.4,4.289,2.4,7.741Zm-9.986-.5h9.486V19.562c0-3.32-.761-5.809-2.263-7.4a8.166,8.166,0,0,0-6.2-2.388,11.239,11.239,0,0,0-4.634.882,13.205,13.205,0,0,0-3.95,2.948l-.43.446V.5H.5V35.791H9.938V23.59c0-2.444.386-4.1,1.18-5.066a3.864,3.864,0,0,1,3.123-1.459,3.483,3.483,0,0,1,2.725,1.1,5.362,5.362,0,0,1,.966,3.621Z" fill="#1a1818"/>
  </g>
</svg>
