<svg id="pinte_o_min" xmlns="http://www.w3.org/2000/svg" xmlns:xlink="http://www.w3.org/1999/xlink" width="30.285" height="27.599" viewBox="0 0 30.285 27.599">
  <defs>
    <clipPath id="clip-path">
      <rect id="Retângulo_288" data-name="Retângulo 288" width="30.285" height="27.599" transform="translate(0 0)" fill="none"/>
    </clipPath>
  </defs>
  <g id="Grupo_1681" data-name="Grupo 1681" clip-path="url(#clip-path)">
    <path id="Caminho_2702" data-name="Caminho 2702" d="M15.094,27.6c-4.209,0-7.663-1.087-10.266-3.23A13.033,13.033,0,0,1,0,13.873,13.266,13.266,0,0,1,4.081,3.915C6.785,1.317,10.483,0,15.07,0c5.241,0,9.264,1.548,11.955,4.6a13.394,13.394,0,0,1,3.26,9.125,13.311,13.311,0,0,1-4.044,9.983c-2.68,2.582-6.431,3.89-11.147,3.89M15.07.5C10.616.5,7.036,1.771,4.427,4.275A12.787,12.787,0,0,0,.5,13.873a12.551,12.551,0,0,0,4.646,10.11C7.657,26.05,11.005,27.1,15.094,27.1c4.582,0,8.216-1.262,10.8-3.75a12.828,12.828,0,0,0,3.89-9.623A12.9,12.9,0,0,0,26.65,4.932C24.058,1.991,20.162.5,15.07.5m.073,20.386a4.684,4.684,0,0,1-3.719-1.749,8.088,8.088,0,0,1-1.463-5.288A8.012,8.012,0,0,1,11.436,8.6a4.757,4.757,0,0,1,3.78-1.761,4.588,4.588,0,0,1,3.633,1.737A7.906,7.906,0,0,1,20.3,13.752c0,2.458-.484,4.278-1.438,5.409a4.669,4.669,0,0,1-3.719,1.725m.073-13.55a4.224,4.224,0,0,0-3.4,1.584,7.545,7.545,0,0,0-1.357,4.929,7.635,7.635,0,0,0,1.345,4.966,4.152,4.152,0,0,0,3.337,1.571,4.131,4.131,0,0,0,3.336-1.548c.877-1.039,1.321-2.75,1.321-5.086A7.443,7.443,0,0,0,18.467,8.9a4.059,4.059,0,0,0-3.251-1.559" fill="#1a1818"/>
  </g>
</svg>
