<svg xmlns="http://www.w3.org/2000/svg" xmlns:xlink="http://www.w3.org/1999/xlink" width="41.049" height="51" viewBox="0 0 41.049 51">
  <defs>
    <clipPath id="clip-path">
      <rect id="Retângulo_328" data-name="Retângulo 328" width="41.049" height="51" fill="none"/>
    </clipPath>
  </defs>
  <g id="pinte_3_fim" transform="translate(-0.001)">
    <g id="Grupo_1759" data-name="Grupo 1759" transform="translate(0.001 0)" clip-path="url(#clip-path)">
      <path id="Caminho_2743" data-name="Caminho 2743" d="M16.109,10.3a5.331,5.331,0,0,1,3.867-1.437,4.916,4.916,0,0,1,3.635,1.322,4.781,4.781,0,0,1,1.322,3.535,5.344,5.344,0,0,1-1.768,4A6.141,6.141,0,0,1,18.753,19.4,12.854,12.854,0,0,1,17,19.238l-.694,9.617a17.012,17.012,0,0,1,4.362-.793,6.144,6.144,0,0,1,4.709,1.851,7.341,7.341,0,0,1,1.735,5.221,7.565,7.565,0,0,1-1.8,5.287A5.839,5.839,0,0,1,20.8,42.4a5.95,5.95,0,0,1-4.247-1.569q-1.669-1.569-2.462-5.634L.643,36.984A20.88,20.88,0,0,0,4.427,44.5a15.57,15.57,0,0,0,6.279,4.543A28.373,28.373,0,0,0,21.131,50.6q6.775,0,10.938-2.1a14.831,14.831,0,0,0,6.378-5.981,16.159,16.159,0,0,0,2.214-8.113,11.844,11.844,0,0,0-1.338-5.8,10.481,10.481,0,0,0-3.75-3.916,15.315,15.315,0,0,0-4.3-1.619,14.608,14.608,0,0,0,5.189-4.461,9.93,9.93,0,0,0,1.718-5.684,11.108,11.108,0,0,0-4.23-8.889Q29.723.5,20.24.5,11.978.5,7.468,3.74a15.972,15.972,0,0,0-6.1,9.319l12.722,2.28Q14.621,11.737,16.109,10.3Z" transform="translate(-0.064 -0.049)" fill="none" stroke="#1a1818" stroke-width="1"/>
    </g>
  </g>
</svg>
