<svg xmlns="http://www.w3.org/2000/svg" xmlns:xlink="http://www.w3.org/1999/xlink" width="33.319" height="25.992" viewBox="0 0 33.319 25.992">
  <defs>
    <clipPath id="clip-path">
      <path id="Caminho_1646" data-name="Caminho 1646" d="M.952-6.585H32.367V-25.249H.952Z" fill="none"/>
    </clipPath>
    <clipPath id="clip-path-2">
      <path id="Caminho_1654" data-name="Caminho 1654" d="M0,0H33.319V-25.992H0Z" fill="none"/>
    </clipPath>
  </defs>
  <g id="alfabeto_o_fim" transform="translate(0 25.992)">
    <g id="Grupo_1118" data-name="Grupo 1118" clip-path="url(#clip-path)">
      <g id="Grupo_1116" data-name="Grupo 1116" transform="translate(27.565 -17.093)">
        <path id="Caminho_1644" data-name="Caminho 1644" d="M0,0-6.535-2.444-26.352,1.739s-1.175-3.968,1.467-5.5c6.445-3.732,14.728-3.162,14.728-3.162s7.355.6,11.468,5.62Z" fill="#ffbd8a"/>
      </g>
      <g id="Grupo_1117" data-name="Grupo 1117" transform="translate(2.411 -20.731)">
        <path id="Caminho_1645" data-name="Caminho 1645" d="M0,0C7.961-4.658,19.312-5.5,25.981,1.8c.017.016-.009.043-.026.027A18.809,18.809,0,0,0,22.5-.784C15.616-4.881,6.765-3.313,0,0" fill="#be6f3c"/>
      </g>
    </g>
    <g id="Grupo_1126" data-name="Grupo 1126" clip-path="url(#clip-path-2)">
      <g id="Grupo_1119" data-name="Grupo 1119" transform="translate(27.233 -16.617)">
        <path id="Caminho_1647" data-name="Caminho 1647" d="M0,0A9.875,9.875,0,0,1-6.583,7.018c-5.651,1.925-13.538-1.8-13.787-2.671s-1.863-1.118-1.863-1.118c-3.478-.434-3.788-1.614-3.788-1.614s0-1.3,2.422-1.863c0,0,10.682-8.136,23.6.248" fill="#fff"/>
      </g>
      <g id="Grupo_1120" data-name="Grupo 1120" transform="translate(27.252 -16.614)">
        <path id="Caminho_1648" data-name="Caminho 1648" d="M0,0A10.122,10.122,0,0,1-8.165,7.478,18.949,18.949,0,0,1-19.493,5.231a2.741,2.741,0,0,1-1-.8c-.326-.823-1.351-.993-2.144-1.114a7.527,7.527,0,0,1-2.823-.883,1.594,1.594,0,0,1-.737-.818c.071-1.2,1.762-1.895,2.474-2A20.315,20.315,0,0,1-5.607-2.839,21.213,21.213,0,0,1-.028.012,26.289,26.289,0,0,0-5.675-2.631,20.745,20.745,0,0,0-23.545-.093c-.925.22-2.151.657-2.338,1.7l-.006-.039a1.076,1.076,0,0,0,.236.322,6.045,6.045,0,0,0,3.061,1.141c.837.12,2.006.374,2.34,1.291a2.881,2.881,0,0,0,.885.688A18.859,18.859,0,0,0-8.19,7.326,10.169,10.169,0,0,0,0,0" fill="#2b2e34"/>
      </g>
      <g id="Grupo_1121" data-name="Grupo 1121" transform="translate(21.407 -15.748)">
        <path id="Caminho_1649" data-name="Caminho 1649" d="M0,0C0,2.641-2.483,4.782-5.546,4.782S-11.092,2.641-11.092,0s2.483-4.782,5.546-4.782S0-2.641,0,0" fill="#2b2e34"/>
      </g>
      <g id="Grupo_1122" data-name="Grupo 1122" transform="translate(15.597 -17.093)">
        <path id="Caminho_1650" data-name="Caminho 1650" d="M0,0A1.3,1.3,0,0,1-1.3,1.3,1.3,1.3,0,0,1-2.6,0,1.3,1.3,0,0,1-1.3-1.3,1.3,1.3,0,0,1,0,0" fill="#fff"/>
      </g>
      <g id="Grupo_1123" data-name="Grupo 1123" transform="translate(25.949 -13.822)">
        <path id="Caminho_1651" data-name="Caminho 1651" d="M0,0A2,2,0,0,1,2.257,1.6c.006.015-.014.029-.024.014A3.5,3.5,0,0,0,0,0" fill="#2b2e34"/>
      </g>
      <g id="Grupo_1124" data-name="Grupo 1124" transform="translate(23.925 -11.401)">
        <path id="Caminho_1652" data-name="Caminho 1652" d="M0,0C.859.093,1.888.88,1.686,1.825a.014.014,0,0,1-.027,0A1.812,1.812,0,0,0,1.011.772,5.189,5.189,0,0,0-.013.025.014.014,0,0,1,0,0" fill="#2b2e34"/>
      </g>
      <g id="Grupo_1125" data-name="Grupo 1125" transform="translate(21.442 -9.91)">
        <path id="Caminho_1653" data-name="Caminho 1653" d="M0,0A1.513,1.513,0,0,1,1.041,1.951a.013.013,0,0,1-.025-.007A1.9,1.9,0,0,0,.695.887,3.794,3.794,0,0,0-.018.022.014.014,0,0,1,0,0" fill="#2b2e34"/>
      </g>
    </g>
    <g id="Grupo_1129" data-name="Grupo 1129" clip-path="url(#clip-path)">
      <g id="Grupo_1127" data-name="Grupo 1127" transform="translate(18.65 -9.152)">
        <path id="Caminho_1655" data-name="Caminho 1655" d="M0,0A2.19,2.19,0,0,1,.335,2.165a.014.014,0,0,1-.026,0C.282,1.8.235,1.437.173,1.079S.054.361-.027.007A.014.014,0,0,1,0,0" fill="#2b2e34"/>
      </g>
      <g id="Grupo_1128" data-name="Grupo 1128" transform="translate(15.178 -9.153)">
        <path id="Caminho_1656" data-name="Caminho 1656" d="M0,0A2.577,2.577,0,0,1,.5,2.56c-.006.013-.027.009-.026,0A6.093,6.093,0,0,0,.312,1.266,9.9,9.9,0,0,0-.026.01.014.014,0,0,1,0,0" fill="#2b2e34"/>
      </g>
    </g>
    <g id="Grupo_1133" data-name="Grupo 1133" clip-path="url(#clip-path-2)">
      <g id="Grupo_1130" data-name="Grupo 1130" transform="translate(4.921 -16.614)">
        <path id="Caminho_1658" data-name="Caminho 1658" d="M0,0A5.89,5.89,0,0,0,.851,3.442,3.243,3.243,0,0,1,0,0" fill="#2b2e34"/>
      </g>
      <g id="Grupo_1131" data-name="Grupo 1131" transform="translate(9.691 -19.657)">
        <path id="Caminho_1659" data-name="Caminho 1659" d="M0,0A9.718,9.718,0,0,1,4.169-1.411S6.654-3.44,6.529-5.593c0,0,.358,2.816-.359,3.975l1.311.248a5.063,5.063,0,0,0,3.727-4.057s.331,3.6-1.491,4.554L11.231-.5S15.1-2.177,15.472-4.651c0,0-.207,3.7-2.236,4.651l1.449.743S17.891-.666,18.5-2.694c0,0-1.126,3.194-2.6,3.957l.683.473s3.85-.621,4.471-2.277a6.421,6.421,0,0,1-3.188,3.1s3.437.662,4.8-.87a4.711,4.711,0,0,1-2.344,1.767,3.251,3.251,0,0,1-3.29-.684,2.653,2.653,0,0,0-.438-.319C15.816,2.009,8.251-2.439,0,0" fill="#2b2e34"/>
      </g>
      <g id="Grupo_1132" data-name="Grupo 1132" transform="translate(27.252 -16.614)">
        <path id="Caminho_1660" data-name="Caminho 1660" d="M0,0A10.122,10.122,0,0,1-8.165,7.478,18.949,18.949,0,0,1-19.493,5.231a2.741,2.741,0,0,1-1-.8c-.326-.823-1.351-.993-2.144-1.114a7.527,7.527,0,0,1-2.823-.883,1.594,1.594,0,0,1-.737-.818c.071-1.2,1.762-1.895,2.474-2A20.315,20.315,0,0,1-5.607-2.839,21.213,21.213,0,0,1-.028.012,26.289,26.289,0,0,0-5.675-2.631,20.745,20.745,0,0,0-23.545-.093c-.925.22-2.151.657-2.338,1.7l-.006-.039a1.076,1.076,0,0,0,.236.322,6.045,6.045,0,0,0,3.061,1.141c.837.12,2.006.374,2.34,1.291a2.881,2.881,0,0,0,.885.688A18.859,18.859,0,0,0-8.19,7.326,10.169,10.169,0,0,0,0,0" fill="#2b2e34"/>
      </g>
    </g>
  </g>
</svg>
