<svg xmlns="http://www.w3.org/2000/svg" xmlns:xlink="http://www.w3.org/1999/xlink" width="29.932" height="27.6" viewBox="0 0 29.932 27.6">
  <defs>
    <clipPath id="clip-path">
      <path id="Caminho_1968" data-name="Caminho 1968" d="M0,0H29.932V-27.6H0Z" fill="none"/>
    </clipPath>
  </defs>
  <g id="alfabeto_z_fim" transform="translate(0 27.6)">
    <g id="Grupo_1435" data-name="Grupo 1435" clip-path="url(#clip-path)">
      <g id="Grupo_1412" data-name="Grupo 1412" transform="translate(18.178 -21.332)">
        <path id="Caminho_1945" data-name="Caminho 1945" d="M0,0S1.388-5.134,3.958-5.925c0,0,1.022-.4.859,1.293a17.626,17.626,0,0,1-.09,3.46" fill="#eee7e0"/>
      </g>
      <g id="Grupo_1413" data-name="Grupo 1413" transform="translate(18.166 -21.335)">
        <path id="Caminho_1946" data-name="Caminho 1946" d="M0,0A10.516,10.516,0,0,1,2.442-4.917c.5-.561,1.882-1.834,2.422-.7a2.235,2.235,0,0,1,.1.984,11.841,11.841,0,0,1-.21,3.471A29.655,29.655,0,0,0,4.7-4.621a2.277,2.277,0,0,0-.059-.908A.476.476,0,0,0,4-5.823,4.485,4.485,0,0,0,1.484-3.35C.916-2.28.476-1.069,0,0" fill="#c4c0b7"/>
      </g>
      <g id="Grupo_1414" data-name="Grupo 1414" transform="translate(23.077 -18.806)">
        <path id="Caminho_1947" data-name="Caminho 1947" d="M0,0S2.2-4.346-.439-4.434c0,0-.11-.835-1.3-.571,0,0-.857-.989-1.318-.462A.729.729,0,0,0-4.24-5.928s-.659-.889-1.252-.181c0,0-.923-.478-1.252.247,0,0-.857-.593-1.12.263a.659.659,0,0,0-1.121.2l-3.888,1.384s-2.307.329-2.5,2.142a.956.956,0,0,0-1.187.956s-1.054.527-.922,1.449a2.244,2.244,0,0,0-.725,1.648A1.894,1.894,0,0,0-19.2,4.091s-1.186.993-.922,1.979a2.178,2.178,0,0,0-.857,1.593,2.357,2.357,0,0,0-.593,2.2,2.883,2.883,0,0,0-.857,2.287s-.791.2-.395,1.935c0,0-.485,1.532-.111,2.158a2.642,2.642,0,0,0,1.746,1.611" fill="#2b2e34"/>
      </g>
      <g id="Grupo_1415" data-name="Grupo 1415" transform="translate(16.098 -0.553)">
        <path id="Caminho_1948" data-name="Caminho 1948" d="M0,0A28.7,28.7,0,0,1-.325-5.244c.095.379,4.419.51,4.929.494a4.986,4.986,0,0,1,1.088.115s6.854,3.559,7.71.2-1.977-5.272-3.558-7.381A7.857,7.857,0,0,1,8.13-15.179c-1.977-7.513-9.589-5.4-9.589-5.4A9.233,9.233,0,0,0-2-23.153a25.89,25.89,0,0,0-1.933-3.6c-.615-.7-1.406.527-1.406.527-3.163,4.745-.7,7.776-.7,7.776s-8,11.028-8.172,18.058L-.461.53A.439.439,0,0,0,0,0" fill="#eee7e0"/>
      </g>
      <g id="Grupo_1416" data-name="Grupo 1416" transform="translate(16.111 -0.556)">
        <path id="Caminho_1949" data-name="Caminho 1949" d="M0,0A.471.471,0,0,1-.572.543l-.91-.056L-3.3.373C-5.636.229-11.823-.153-14.229-.3l-.09,0,0-.091c.308-6.023,4.8-13.2,8.174-18.122l0,.139c-1.614-2.316-.919-5.414.538-7.612.52-.917,1.39-1.652,2.047-.352A16.911,16.911,0,0,1-1.582-21.9a5.131,5.131,0,0,1,.168,1.322l-.072-.059a10.051,10.051,0,0,1,3.091-.235,7.1,7.1,0,0,1,6.573,5.679,10.51,10.51,0,0,0,2.653,4.441c1.317,1.436,2.821,3.036,2.821,5.117-.044,1.222-.293,2.363-1.66,2.654C9.8-2.622,7.536-3.686,5.664-4.565,3.827-4.857,1.653-4.6-.2-5.108c-.058-.029-.129-.042-.167-.127l.052-.006A26.105,26.105,0,0,0,0,0M-.024,0A26.657,26.657,0,0,1-.362-5.38l.051.132c.163.156.465.16.686.208,1.763.291,3.609.094,5.327.343,1.929.872,4.085,1.87,6.242,1.515,1.245-.275,1.448-1.346,1.5-2.453-.029-3.008-2.954-4.711-4.337-7.106a7.357,7.357,0,0,1-1.049-2.42,8.944,8.944,0,0,0-1.236-2.8c-1.764-2.666-5.34-3.3-8.277-2.566l-.075.018A4.955,4.955,0,0,0-1.7-21.871,16.626,16.626,0,0,0-3.69-26.257c-.16-.235-.315-.517-.546-.6-.751-.158-1.319,1.194-1.645,1.73-1.077,2-1.441,4.662-.082,6.609l.052.071-.048.068A56.893,56.893,0,0,0-13.073-5.235,17.25,17.25,0,0,0-14.129-.39l-.088-.1c2.441.18,8.565.628,10.918.8L-1.48.443l.91.066A.441.441,0,0,0-.024,0" fill="#c4c0b7"/>
      </g>
      <g id="Grupo_1417" data-name="Grupo 1417" transform="translate(12.103 -25.024)">
        <path id="Caminho_1950" data-name="Caminho 1950" d="M0,0S-.461-1.12-1.054.4-1.582,4.613,0,4.943,1.086,2.078,0,0" fill="#ffa393"/>
      </g>
      <g id="Grupo_1418" data-name="Grupo 1418" transform="translate(26.816 -11.589)">
        <path id="Caminho_1951" data-name="Caminho 1951" d="M0,0S-5.1,1.335-5.165,6.541c0,0,5.77,3.04,7.6.749C4.134,5.153,1.567,1.257,0,0" fill="#4f4d44"/>
      </g>
      <g id="Grupo_1419" data-name="Grupo 1419" transform="translate(26.818 -11.601)">
        <path id="Caminho_1952" data-name="Caminho 1952" d="M0,0C1.848,1.469,4.168,5,2.592,7.289c-1.7,2.154-5.812.2-7.809-.7A6.67,6.67,0,0,1,0,0M0,.024A7.279,7.279,0,0,0-5.145,6.51c1.828.928,6,2.626,7.534.631C3.825,4.971,1.615,1.558,0,.024" fill="#3e3e3a"/>
      </g>
      <g id="Grupo_1420" data-name="Grupo 1420" transform="translate(19.67 -12.733)">
        <path id="Caminho_1953" data-name="Caminho 1953" d="M0,0A1.95,1.95,0,0,1-2.628.775a1.949,1.949,0,0,1-.355-2.716A1.949,1.949,0,0,1-.356-2.716,1.949,1.949,0,0,1,0,0" fill="#fff"/>
      </g>
      <g id="Grupo_1421" data-name="Grupo 1421" transform="translate(19.663 -12.738)">
        <path id="Caminho_1954" data-name="Caminho 1954" d="M0,0C1.316-2.28-1.373-4.057-2.939-1.912-4.4.351-1.535,2.151,0,0M.014.009C-.9,1.533-3.192,1.5-3.378-.491-3.562-2.047-1.786-3.713-.3-2.783A2,2,0,0,1,.014.009" fill="#2b2e34"/>
      </g>
      <g id="Grupo_1422" data-name="Grupo 1422" transform="translate(19.637 -12.682)">
        <path id="Caminho_1955" data-name="Caminho 1955" d="M0,0C-.55.845-1.4,1.267-1.9.944s-.454-1.271.1-2.116,1.4-1.267,1.9-.943S.55-.845,0,0" fill="#2b2e34"/>
      </g>
      <g id="Grupo_1423" data-name="Grupo 1423" transform="translate(22.647 -6.365)">
        <path id="Caminho_1956" data-name="Caminho 1956" d="M0,0C.255,1.094,1.413,1.671,2.257,2.29c.311.208.631.4.939.632C2.014,2.59-.175,1.458,0,0" fill="#2b2e34"/>
      </g>
      <g id="Grupo_1424" data-name="Grupo 1424" transform="translate(26.694 -7.78)">
        <path id="Caminho_1957" data-name="Caminho 1957" d="M0,0C.138.547.035,1.045-.23,1.111S-.821.788-.959.241-.993-.8-.729-.87-.138-.547,0,0" fill="#2b2e34"/>
      </g>
      <g id="Grupo_1425" data-name="Grupo 1425" transform="translate(28.784 -8.021)">
        <path id="Caminho_1958" data-name="Caminho 1958" d="M0,0C.138.547.035,1.045-.23,1.111S-.821.788-.959.241-.993-.8-.729-.87-.138-.547,0,0" fill="#2b2e34"/>
      </g>
      <g id="Grupo_1426" data-name="Grupo 1426" transform="translate(3.3 -6.967)">
        <path id="Caminho_1959" data-name="Caminho 1959" d="M0,0C1.156.871,2.329,1.7,3.559,2.447c.444.284.951.443,1.4.716A11.5,11.5,0,0,1,7.013,4.889c.223.309-1.1.324-1.271.289a4.13,4.13,0,0,1-1.159-.287A10.145,10.145,0,0,1,1.957,2.72C1.79,2.56-.663-.212,0,0" fill="#2b2e34"/>
      </g>
      <g id="Grupo_1427" data-name="Grupo 1427" transform="translate(5.06 -10.782)">
        <path id="Caminho_1960" data-name="Caminho 1960" d="M0,0A17.986,17.986,0,0,0,2.577,2.093a7.37,7.37,0,0,1,1.36.844A4.786,4.786,0,0,1,4.974,4.4a.1.1,0,0,1-.073.148,2.811,2.811,0,0,1-2.612-.771L1.7,3.081a9.509,9.509,0,0,1-1.844-3A.085.085,0,0,1,0,0" fill="#2b2e34"/>
      </g>
      <g id="Grupo_1428" data-name="Grupo 1428" transform="translate(15.696 -2.832)">
        <path id="Caminho_1961" data-name="Caminho 1961" d="M0,0A4.55,4.55,0,0,1-1.1,1.094,1.444,1.444,0,0,1-1.8,1.48,1.1,1.1,0,0,1-2.664,1.2a.073.073,0,0,1-.009-.1A2.1,2.1,0,0,1-2.1.534c.18-.136.428-.092.655-.154C-.983.25-.516.1-.063-.076A.052.052,0,0,1,0,0" fill="#2b2e34"/>
      </g>
      <g id="Grupo_1429" data-name="Grupo 1429" transform="translate(7.047 -13.917)">
        <path id="Caminho_1962" data-name="Caminho 1962" d="M0,0A8.713,8.713,0,0,0,1.4,1.321c.244.2.612.283.727.593a2.036,2.036,0,0,1,.154,1.2.142.142,0,0,1-.112.118A1.724,1.724,0,0,1,.923,3.042C.47,2.726.4,2.1.135,1.644A3.743,3.743,0,0,1-.163.027.087.087,0,0,1,0,0" fill="#2b2e34"/>
      </g>
      <g id="Grupo_1430" data-name="Grupo 1430" transform="translate(15.892 -5.829)">
        <path id="Caminho_1963" data-name="Caminho 1963" d="M0,0A4,4,0,0,1-.615-1.968,2.179,2.179,0,0,1,0-3.931a.038.038,0,0,1,.062.023C.256-2.909-.215-2-.11-1a3.871,3.871,0,0,0,.169.968A.033.033,0,0,1,0,0" fill="#2b2e34"/>
      </g>
      <g id="Grupo_1431" data-name="Grupo 1431" transform="translate(17.997 -5.391)">
        <path id="Caminho_1964" data-name="Caminho 1964" d="M0,0C-.269-1.238-.811-3.681.6-4.38a.037.037,0,0,1,.05.042A25.3,25.3,0,0,0,.106-1.131C.076-.76.069-.386.065-.009A.033.033,0,0,1,0,0" fill="#2b2e34"/>
      </g>
      <g id="Grupo_1432" data-name="Grupo 1432" transform="translate(20.172 -5.299)">
        <path id="Caminho_1965" data-name="Caminho 1965" d="M0,0A12.645,12.645,0,0,1-.343-2.3,2.6,2.6,0,0,1-.048-4.074a.85.85,0,0,1,.524-.4.036.036,0,0,1,.038.052A2.975,2.975,0,0,0,.345-3.378,19.556,19.556,0,0,0,.106-1.156C.081-.775.076-.392.066-.008A.034.034,0,0,1,0,0" fill="#2b2e34"/>
      </g>
      <g id="Grupo_1433" data-name="Grupo 1433" transform="translate(16.69 -21.396)">
        <path id="Caminho_1966" data-name="Caminho 1966" d="M0,0A14.785,14.785,0,0,1,3.789,1.973C5.01,2.759,6.22,4.15,5.828,5.709a.053.053,0,0,1-.1.008A7.954,7.954,0,0,0,4.589,4.08a14.015,14.015,0,0,0-2.9-2.816C1.141.843.556.458-.041.09A.05.05,0,0,1,0,0" fill="#2b2e34"/>
      </g>
      <g id="Grupo_1434" data-name="Grupo 1434" transform="translate(5.001 -7.939)">
        <path id="Caminho_1967" data-name="Caminho 1967" d="M0,0S3.713-8.857,7-10.627c0,0,.191.049-.754,1.156S2.282-4.66,1.139-1.182,0,0,0,0" fill="#fff"/>
      </g>
    </g>
  </g>
</svg>
