<svg xmlns="http://www.w3.org/2000/svg" xmlns:xlink="http://www.w3.org/1999/xlink" width="33.994" height="24.748" viewBox="0 0 33.994 24.748">
  <defs>
    <clipPath id="clip-path">
      <path id="Caminho_1508" data-name="Caminho 1508" d="M0,0H33.994V-24.748H0Z" fill="none"/>
    </clipPath>
  </defs>
  <g id="alfabeto_g_fim" transform="translate(0 24.748)">
    <g id="Grupo_980" data-name="Grupo 980" clip-path="url(#clip-path)">
      <g id="Grupo_942" data-name="Grupo 942" transform="translate(14.851 -18.129)">
        <path id="Caminho_1470" data-name="Caminho 1470" d="M0,0S-8.432,1.135-10.3,11.427a3.626,3.626,0,0,0,.912,3.122c1.551,1.672,4.965,3.971,11.806,3.441,0,0,8.53-.73,11.43-6.546a3.469,3.469,0,0,0,.119-2.767C12.834,5.666,9.211-1.194,0,0" fill="#363939"/>
      </g>
      <g id="Grupo_943" data-name="Grupo 943" transform="translate(14.849 -18.142)">
        <path id="Caminho_1471" data-name="Caminho 1471" d="M0,0C6.556-.907,11.7,2.406,14.049,8.521c1.07,2.488-1.07,4.872-2.895,6.327A18.686,18.686,0,0,1-4.89,17.358c-2.428-.816-5.791-2.6-5.56-5.583.048-.618.324-1.452.436-2.065.16-.574.4-1.179.584-1.747A16.4,16.4,0,0,1-8.348,5.857,12.692,12.692,0,0,1,0,0M0,.026c-4.95.954-8.515,5.013-9.8,9.745-.1.588-.389,1.438-.441,2.022a3.964,3.964,0,0,0,1.741,3.5A12.927,12.927,0,0,0-.765,17.988,18.009,18.009,0,0,0,11,14.653c1.728-1.41,3.79-3.658,2.791-6.034-.1-.242-.289-.721-.4-.955C10.817,2.1,6.141-.732,0,.026" fill="#2b2e34"/>
      </g>
      <g id="Grupo_944" data-name="Grupo 944" transform="translate(4.976 -4.097)">
        <path id="Caminho_1472" data-name="Caminho 1472" d="M0,0A2.873,2.873,0,0,1-.642-1.561,7.129,7.129,0,0,1-.151-4.282C-.269-3.674-.53-2.871-.578-2.27A3.652,3.652,0,0,0,0,0M6.105-12.64a7.3,7.3,0,0,1,1.555-.753,12.44,12.44,0,0,0-1.555.753" fill="#5d5f64"/>
      </g>
      <g id="Grupo_945" data-name="Grupo 945" transform="translate(8.438 -1.505)">
        <path id="Caminho_1473" data-name="Caminho 1473" d="M0,0A10.335,10.335,0,0,1-2.083-1.342a3.965,3.965,0,0,1-1.74-3.5c.051-.584.337-1.434.441-2.022a15.03,15.03,0,0,1,.729-2.08A23.142,23.142,0,0,1,2.2-14.879a11.59,11.59,0,0,1,2.834-1.377,13.236,13.236,0,0,1,2.734-.465c.189-.007.376-.011.561-.011,5.075,0,8.987,2.664,11.307,7.419-1.082-.818-5.606-4-10.56-4a10.059,10.059,0,0,0-6.254,2.1C-4.063-5.95-.61-.805,0,0" fill="#0f0f0e"/>
      </g>
      <g id="Grupo_946" data-name="Grupo 946" transform="translate(6.239 -2.842)">
        <path id="Caminho_1474" data-name="Caminho 1474" d="M0,0A7.18,7.18,0,0,1-1.263-1.255a3.658,3.658,0,0,1-.577-2.27c.047-.6.308-1.4.426-2.012.124-.343.269-.691.432-1.041A18.223,18.223,0,0,0-1.688-3.86,3.632,3.632,0,0,0-.776-.738,8.762,8.762,0,0,0,0,0M4.617-13.724l.027-.023c.057-.047.123-.1.2-.148A12.44,12.44,0,0,1,6.4-14.648c.131-.048.266-.1.407-.14a12.685,12.685,0,0,0-2.187,1.064" fill="#2b2e34"/>
      </g>
      <g id="Grupo_947" data-name="Grupo 947" transform="translate(8.524 -1.397)">
        <path id="Caminho_1475" data-name="Caminho 1475" d="M0,0A13.62,13.62,0,0,1-2.286-1.446a8.882,8.882,0,0,1-.775-.738,3.625,3.625,0,0,1-.912-3.122,18.1,18.1,0,0,1,.706-2.718c.159-.342.336-.686.528-1.03a14.938,14.938,0,0,0-.729,2.08c-.1.588-.39,1.438-.441,2.021a3.967,3.967,0,0,0,1.74,3.5A10.335,10.335,0,0,0-.086-.109C-.032-.037,0,0,0,0M19.8-9.232s-.084-.07-.244-.19c-2.32-4.755-6.232-7.419-11.307-7.419-.185,0-.372,0-.561.011q.4-.026.817-.026c3.694,0,8.208,1.611,11.3,7.624M2.118-14.988c.071-.062.142-.122.213-.182a12.755,12.755,0,0,1,2.187-1.064c.14-.045.284-.088.433-.131a11.619,11.619,0,0,0-2.833,1.377" fill="#030201"/>
      </g>
      <g id="Grupo_948" data-name="Grupo 948" transform="translate(11.934 -17.204)">
        <path id="Caminho_1476" data-name="Caminho 1476" d="M0,0S1.521.47,1.521,1.484a6.81,6.81,0,0,0,.206,2.031C1.884,4.093.671,5.222,0,4.854s-2.247-.617-2.356.072a1.421,1.421,0,0,1-1.25,1.2c-.634.109-1.105,1.565-1.685,2.993s-1.861.293-1.861.293A14.093,14.093,0,0,1,0,0" fill="#a15520"/>
      </g>
      <g id="Grupo_949" data-name="Grupo 949" transform="translate(11.936 -17.191)">
        <path id="Caminho_1477" data-name="Caminho 1477" d="M0,0A15.315,15.315,0,0,0-6.058,6.574a12.376,12.376,0,0,0-.986,2.838l-.036-.1a1.588,1.588,0,0,0,.889.413.81.81,0,0,0,.757-.509,15.1,15.1,0,0,1,1.4-2.878c.225-.311.652-.273.955-.46a1.253,1.253,0,0,0,.615-.786c.039-.169.063-.4.235-.511a2.775,2.775,0,0,1,2.381.2C.729,4.9,1.719,4.1,1.614,3.494,1.122,1.8,2.135.845,0,0M0-.026c2.229.7,1.327,1.772,1.821,3.466C1.97,4.158,1.066,4.931.4,5.02a.922.922,0,0,1-.567-.138A2.55,2.55,0,0,0-2.14,4.7c-.137.082-.147.237-.2.427a1.436,1.436,0,0,1-.69.834c-.3.189-.71.127-.944.429a3.73,3.73,0,0,0-.531.907c-.647,1.3-.788,3.64-2.767,2.142A13.661,13.661,0,0,1,0-.026" fill="#833d1a"/>
      </g>
      <g id="Grupo_950" data-name="Grupo 950" transform="translate(26.202 -7.107)">
        <path id="Caminho_1478" data-name="Caminho 1478" d="M0,0A4.849,4.849,0,0,1,2.184-1.076c1.257-.473,2.849-.765,3.918.261l-.015.021A5.428,5.428,0,0,0,2.211-1,22.784,22.784,0,0,1,0,0" fill="#2b2e34"/>
      </g>
      <g id="Grupo_951" data-name="Grupo 951" transform="translate(26.207 -6.24)">
        <path id="Caminho_1479" data-name="Caminho 1479" d="M0,0A7.717,7.717,0,0,1,3.053-.247c1.673.018,3.629.169,4.731,1.61l-.019.018A8.521,8.521,0,0,0,3.051-.162C2.054-.127.941.057,0,0" fill="#2b2e34"/>
      </g>
      <g id="Grupo_952" data-name="Grupo 952" transform="translate(26.214 -5.671)">
        <path id="Caminho_1480" data-name="Caminho 1480" d="M0,0A9.15,9.15,0,0,1,2.471.918c.781.314,1.8.789,1.984,1.69A3.526,3.526,0,0,0,3.5,1.754,11.736,11.736,0,0,0,1.824.747,6.337,6.337,0,0,1,0,0" fill="#2b2e34"/>
      </g>
      <g id="Grupo_953" data-name="Grupo 953" transform="translate(7.619 -4.855)">
        <path id="Caminho_1481" data-name="Caminho 1481" d="M0,0A22.534,22.534,0,0,1-2.508-.286,9.909,9.909,0,0,0-6.566.5L-6.581.478C-5.479-.53-3.892-.455-2.5-.371A5.4,5.4,0,0,1,0,0" fill="#2b2e34"/>
      </g>
      <g id="Grupo_954" data-name="Grupo 954" transform="translate(8.33 -4.04)">
        <path id="Caminho_1482" data-name="Caminho 1482" d="M0,0C-1.105.306-2.221.482-3.344.678a18.865,18.865,0,0,0-3.183,1.17,4.1,4.1,0,0,0-1.778,1.3l-.024-.011A3.234,3.234,0,0,1-6.648,1.6,16.4,16.4,0,0,1-3.365.6,10.284,10.284,0,0,1,0,0" fill="#2b2e34"/>
      </g>
      <g id="Grupo_955" data-name="Grupo 955" transform="translate(8.331 -3.061)">
        <path id="Caminho_1483" data-name="Caminho 1483" d="M0,0C-.6.27-1.21.434-1.82.655A5.734,5.734,0,0,0-3.984,2.926l-.025-.008A3.185,3.185,0,0,1-1.858.579,2.917,2.917,0,0,1,0,0" fill="#2b2e34"/>
      </g>
      <g id="Grupo_956" data-name="Grupo 956" transform="translate(14.864 -4.064)">
        <path id="Caminho_1484" data-name="Caminho 1484" d="M0,0A2.407,2.407,0,0,0,.648.354C1.371.54,2.025-.179,2.184-.837A.086.086,0,0,1,2.289-.9l.056.041c.478.484,1.19,1.038,1.867.615.237-.1.513-.463.624-.486C4.318.738,2.848.457,2.194-.752l.161-.019c-.132.239-.271.457-.41.684C1.7.405,1.141.92.551.606A1.34,1.34,0,0,1-.027.023Z" fill="#2b2e34"/>
      </g>
      <g id="Grupo_957" data-name="Grupo 957" transform="translate(16.227 -5.221)">
        <path id="Caminho_1485" data-name="Caminho 1485" d="M0,0S-.281-.254,0-.38,1.594-.842,1.7-.507s-.516.851-.8.86A2.763,2.763,0,0,1,0,0" fill="#2b2e34"/>
      </g>
      <g id="Grupo_958" data-name="Grupo 958" transform="translate(25.542 -8.37)">
        <path id="Caminho_1486" data-name="Caminho 1486" d="M0,0A3,3,0,0,1-3,3,3,3,0,0,1-6,0,3,3,0,0,1-3-3,3,3,0,0,1,0,0" fill="#cc9f39"/>
      </g>
      <g id="Grupo_959" data-name="Grupo 959" transform="translate(25.528 -8.37)">
        <path id="Caminho_1487" data-name="Caminho 1487" d="M0,0A2.978,2.978,0,0,0-5.021-2.034,2.851,2.851,0,0,0-2.987,2.891,3,3,0,0,0,0,0M.026,0A2.989,2.989,0,0,1-5.14,2.153,3.132,3.132,0,0,1-5.2-2.208,3.043,3.043,0,0,1,.026,0" fill="#2b2e34"/>
      </g>
      <g id="Grupo_960" data-name="Grupo 960" transform="translate(14.093 -7.096)">
        <path id="Caminho_1488" data-name="Caminho 1488" d="M0,0A3,3,0,0,1-3,3,3,3,0,0,1-6,0,3,3,0,0,1-3-3,3,3,0,0,1,0,0" fill="#cc9f39"/>
      </g>
      <g id="Grupo_961" data-name="Grupo 961" transform="translate(14.08 -7.096)">
        <path id="Caminho_1489" data-name="Caminho 1489" d="M0,0A2.977,2.977,0,0,0-5.02-2.034,2.85,2.85,0,0,0-2.987,2.891,3,3,0,0,0,0,0M.026,0A2.989,2.989,0,0,1-5.14,2.153,3.132,3.132,0,0,1-5.2-2.208,3.043,3.043,0,0,1,.026,0" fill="#2b2e34"/>
      </g>
      <g id="Grupo_962" data-name="Grupo 962" transform="translate(24.411 -8.089)">
        <path id="Caminho_1490" data-name="Caminho 1490" d="M0,0A2.216,2.216,0,0,1-2.216,2.216,2.216,2.216,0,0,1-4.432,0,2.216,2.216,0,0,1-2.216-2.216,2.216,2.216,0,0,1,0,0" fill="#2b2e34"/>
      </g>
      <g id="Grupo_963" data-name="Grupo 963" transform="translate(13.661 -6.778)">
        <path id="Caminho_1491" data-name="Caminho 1491" d="M0,0A2.216,2.216,0,0,1-2.216,2.216,2.216,2.216,0,0,1-4.432,0,2.216,2.216,0,0,1-2.216-2.216,2.216,2.216,0,0,1,0,0" fill="#2b2e34"/>
      </g>
      <g id="Grupo_964" data-name="Grupo 964" transform="translate(23.686 -9.438)">
        <path id="Caminho_1492" data-name="Caminho 1492" d="M0,0C.236.3.286.659.112.794s-.505,0-.741-.306-.286-.66-.112-.794S-.236-.3,0,0" fill="#fff"/>
      </g>
      <g id="Grupo_965" data-name="Grupo 965" transform="translate(12.971 -8.126)">
        <path id="Caminho_1493" data-name="Caminho 1493" d="M0,0C.236.3.286.659.112.794s-.505,0-.741-.306-.286-.66-.112-.794S-.236-.3,0,0" fill="#fff"/>
      </g>
      <g id="Grupo_966" data-name="Grupo 966" transform="translate(5.595 -10.305)">
        <path id="Caminho_1494" data-name="Caminho 1494" d="M0,0S-3.19-3.15-1.832-8.857c0,0,.028-.652.748-.272S2.027-7.661,2.027-7.661,4.6-6.292,4.535-5.781A14.659,14.659,0,0,1,2.027-2.118,15.651,15.651,0,0,0,0,0" fill="#2b2e34"/>
      </g>
      <g id="Grupo_967" data-name="Grupo 967" transform="translate(5.594 -10.318)">
        <path id="Caminho_1495" data-name="Caminho 1495" d="M0,0A24.223,24.223,0,0,1,2.474-2.724,19.228,19.228,0,0,0,4.4-5.785c-.077-.233-.355-.42-.548-.581A15.342,15.342,0,0,0,1.423-7.833l-1.71-.848L-1.144-9.1c-.284-.163-.626-.132-.644.254A10.627,10.627,0,0,0,0,0M0,.026A8.346,8.346,0,0,1-2.245-5.338a12.488,12.488,0,0,1,.371-3.508c.027-.434.435-.521.768-.328l.869.4L1.5-8a13.362,13.362,0,0,1,2.5,1.421c.268.235.637.413.667.824A14.707,14.707,0,0,1,2.645-2.577C1.768-1.67.805-.961,0,.026" fill="#2b2e34"/>
      </g>
      <g id="Grupo_968" data-name="Grupo 968" transform="translate(3.872 -19.271)">
        <path id="Caminho_1496" data-name="Caminho 1496" d="M0,0A35.9,35.9,0,0,1,2.935,3.37c.326.652,1.957,2.826.272,4.185L1.685,8.642S-.978,6.413,0,0" fill="#997f79"/>
      </g>
      <g id="Grupo_969" data-name="Grupo 969" transform="translate(3.872 -19.271)">
        <path id="Caminho_1497" data-name="Caminho 1497" d="M0,0S6,5.308,3.207,7.555C3.207,7.555,3.37,5.326,0,0" fill="#71605d"/>
      </g>
      <g id="Grupo_970" data-name="Grupo 970" transform="translate(27.261 -12.718)">
        <path id="Caminho_1498" data-name="Caminho 1498" d="M0,0S2.249-3.878-.562-9.027c0,0-.2-.622-.793-.065S-3.971-6.858-3.971-6.858s-2.118,2-1.925,2.473A14.672,14.672,0,0,0-2.513-1.51,15.6,15.6,0,0,1,0,0" fill="#2b2e34"/>
      </g>
      <g id="Grupo_971" data-name="Grupo 971" transform="translate(27.263 -12.705)">
        <path id="Caminho_1499" data-name="Caminho 1499" d="M0,0C-1.035-.741-2.15-1.172-3.235-1.817A14.648,14.648,0,0,1-6.027-4.345c-.081-.4.231-.673.427-.97A13.274,13.274,0,0,1-3.559-7.344l1.475-1.211.733-.613c.274-.269.681-.3.827.115A12.441,12.441,0,0,1,.757-5.766,8.341,8.341,0,0,1,0,0M0-.026a10.626,10.626,0,0,0-.6-9c-.119-.363-.455-.311-.688-.075l-.718.626L-3.438-7.209A15.377,15.377,0,0,0-5.394-5.155a1.6,1.6,0,0,0-.375.705A19.246,19.246,0,0,0-3.109-2,24.465,24.465,0,0,1,0-.026" fill="#2b2e34"/>
      </g>
      <g id="Grupo_972" data-name="Grupo 972" transform="translate(26.565 -21.821)">
        <path id="Caminho_1500" data-name="Caminho 1500" d="M0,0A36,36,0,0,0-1.945,4.023c-.143.715-1.145,3.241.838,4.109l1.754.649S2.631,5.93,0,0" fill="#997f79"/>
      </g>
      <g id="Grupo_973" data-name="Grupo 973" transform="translate(26.565 -21.821)">
        <path id="Caminho_1501" data-name="Caminho 1501" d="M0,0S-4.389,6.7-1.107,8.132c0,0-.743-2.107,1.107-8.132" fill="#71605d"/>
      </g>
      <g id="Grupo_974" data-name="Grupo 974" transform="translate(14.837 -17.331)">
        <path id="Caminho_1502" data-name="Caminho 1502" d="M0,0C-.323-.788-.206-1.649-.546-2.42A4.67,4.67,0,0,0-1.831-4.43l.008-.025C-.679-4.182-.5-2.81-.27-1.851A3.386,3.386,0,0,1,0,0" fill="#2b2e34"/>
      </g>
      <g id="Grupo_975" data-name="Grupo 975" transform="translate(18.871 -24.73)">
        <path id="Caminho_1503" data-name="Caminho 1503" d="M0,0C-.456,1.212-1.292,2.219-1.7,3.443c-.343,1.2-.93,2.419-.693,3.681l-.024.011c-.7-1.561.376-3.215,1-4.616A8.892,8.892,0,0,1-.022-.014Z" fill="#2b2e34"/>
      </g>
      <g id="Grupo_976" data-name="Grupo 976" transform="translate(18.817 -0.302)">
        <path id="Caminho_1504" data-name="Caminho 1504" d="M0,0S-.254-1.649.725-1.54s.653-.978,1.522-1.087S3.673-3.69,4.555-3.213a3.11,3.11,0,0,1,1.2,1.039A27.4,27.4,0,0,1,0,0" fill="#fc9f2c"/>
      </g>
      <g id="Grupo_977" data-name="Grupo 977" transform="translate(18.824 -0.313)">
        <path id="Caminho_1505" data-name="Caminho 1505" d="M0,0A57.028,57.028,0,0,0,5.7-2.255l-.04.144A2.7,2.7,0,0,0,4.149-3.283c-.7-.064-1.161.632-1.843.749-.594.049-.585.682-1,.992a.818.818,0,0,1-.555.119C-.017-1.538,0-.522,0,0M-.014.022A1.626,1.626,0,0,1,.221-1.491c.275-.266.683-.027.953-.233.247-.2.314-.578.584-.8a.878.878,0,0,1,.518-.194c.661-.061,1.18-.7,1.882-.652a2.956,2.956,0,0,1,1.68,1.154l.058.087-.1.057A20.182,20.182,0,0,1-.014.022" fill="#cb8029"/>
      </g>
      <g id="Grupo_978" data-name="Grupo 978" transform="translate(24.571 -20.651)">
        <path id="Caminho_1506" data-name="Caminho 1506" d="M0,0A1.831,1.831,0,0,1-.331,1.67c-.639.688-1.509.079-1.4.728s-1.563,1.15-1.563,1.15-.089-.105.4-.864A18.807,18.807,0,0,1,0,0" fill="#fc9f2c"/>
      </g>
      <g id="Grupo_979" data-name="Grupo 979" transform="translate(24.571 -20.651)">
        <path id="Caminho_1507" data-name="Caminho 1507" d="M0,0-.083.026l.01.038a2.049,2.049,0,0,1,.06.5A1.512,1.512,0,0,1-.4,1.61a1.165,1.165,0,0,1-.871.349,1.385,1.385,0,0,0-.369.046.288.288,0,0,0-.142.1.334.334,0,0,0-.051.189.684.684,0,0,0,.011.114l0,.047a.532.532,0,0,1-.216.366,3.053,3.053,0,0,1-.8.461c-.136.056-.258.1-.347.132s-.141.046-.141.046l.025.084.067-.057-.052.044.066-.02-.014-.024-.052.044.066-.02-.024.007.025,0v0l-.024.007.025,0v0a2.1,2.1,0,0,1,.395-.783,10.307,10.307,0,0,1,1.65-1.665C-.844.789-.539.54-.314.36S.053.07.053.069L0,0-.083.026,0,0-.053-.069s-.577.444-1.229,1a10.394,10.394,0,0,0-1.683,1.7c-.363.562-.42.77-.423.878a.138.138,0,0,0,.028.09l.037.043.054-.016a5.672,5.672,0,0,0,.8-.318,2.565,2.565,0,0,0,.558-.359.7.7,0,0,0,.275-.5l-.007-.076A.6.6,0,0,1-1.653,2.3a.151.151,0,0,1,.021-.09c.015-.025.059-.047.148-.059a1.622,1.622,0,0,0,1.217-.42A1.685,1.685,0,0,0,.162.559,2.087,2.087,0,0,0,.083-.026L.046-.146l-.1.077Z" fill="#cb8029"/>
      </g>
    </g>
  </g>
</svg>
