<svg xmlns="http://www.w3.org/2000/svg" xmlns:xlink="http://www.w3.org/1999/xlink" width="24.452" height="26.243" viewBox="0 0 24.452 26.243">
  <defs>
    <clipPath id="clip-path">
      <path id="Caminho_1389" data-name="Caminho 1389" d="M0,0H24.452V-26.243H0Z" fill="none"/>
    </clipPath>
  </defs>
  <g id="alfabeto_d_fim" transform="translate(0 26.243)">
    <g id="Grupo_861" data-name="Grupo 861" clip-path="url(#clip-path)">
      <g id="Grupo_845" data-name="Grupo 845" transform="translate(12.661 -12.479)">
        <path id="Caminho_1373" data-name="Caminho 1373" d="M0,0A2.739,2.739,0,0,0-.412,1.336,2.726,2.726,0,0,0-.822,0a2.728,2.728,0,0,0-.95-1.02A2.673,2.673,0,0,0-.427-.7,2.723,2.723,0,0,0,.929-1.007,2.733,2.733,0,0,0,0,0" fill="#1ec1d2"/>
      </g>
      <g id="Grupo_846" data-name="Grupo 846" transform="translate(24.029 -19.443)">
        <path id="Caminho_1374" data-name="Caminho 1374" d="M0,0A2.684,2.684,0,0,0-.972-.874l-9.456-5.459a2.69,2.69,0,0,0-1.318-.315h-.139a2.686,2.686,0,0,0-1.317.314L-22.659-.874A2.913,2.913,0,0,0-23.578,0l7.38,4.3,3.04,1.739a2.678,2.678,0,0,0,1.341.321,2.717,2.717,0,0,0,1.357-.312l3.065-1.769Z" fill="#1ec1d2"/>
      </g>
      <g id="Grupo_847" data-name="Grupo 847" transform="translate(24.046 -19.439)">
        <path id="Caminho_1375" data-name="Caminho 1375" d="M0,0C-1.934,1.171-6.787,4.1-8.672,5.2a16.785,16.785,0,0,1-2.255,1.224A3.209,3.209,0,0,1-13.5,6.068l-1.461-.836C-17.873,3.545-20.764,1.82-23.647.083a.1.1,0,0,1-.037-.14,3.433,3.433,0,0,1,1.338-1.1c2.468-1.387,4.963-2.826,7.384-4.284l1.465-.877A2.894,2.894,0,0,1-11.812-6.8a2.948,2.948,0,0,1,1.7.472l1.48.852c1.469.857,4.425,2.6,5.882,3.471l1.461.882A3.265,3.265,0,0,1,0,0M-.035-.009a3.658,3.658,0,0,0-1.323-1.01l-1.495-.824C-4.343-2.669-7.32-4.356-8.8-5.2l-1.477-.855A2.615,2.615,0,0,0-11.812-6.5a2.627,2.627,0,0,0-1.559.4l-1.491.83c-2.473,1.365-4.967,2.81-7.4,4.251A3.212,3.212,0,0,0-23.511.053l-.033-.147c2.939,1.641,5.844,3.34,8.775,5a18.752,18.752,0,0,0,2.178,1.167,3.1,3.1,0,0,0,1.564,0A19.033,19.033,0,0,0-8.847,4.9C-6.993,3.837-1.968,1.058-.035-.009" fill="#156a92"/>
      </g>
      <g id="Grupo_848" data-name="Grupo 848" transform="translate(12.226 0.929)">
        <path id="Caminho_1376" data-name="Caminho 1376" d="M0,0A2.38,2.38,0,0,1-1.249-.311l-9.457-5.46a2.691,2.691,0,0,1-.93-.983l-.07-.121a2.7,2.7,0,0,1-.386-1.3V-19.092a2.523,2.523,0,0,1,.316-1.281l7.393,4.29,3.028,1.748a2.715,2.715,0,0,1,.946,1.016A2.731,2.731,0,0,1,0-11.988V0Z" fill="#1ec1d2"/>
      </g>
      <g id="Grupo_849" data-name="Grupo 849" transform="translate(12.214 0.916)">
        <path id="Caminho_1377" data-name="Caminho 1377" d="M0,0C-.044-2.232-.154-7.9-.162-10.053l-.009-1.678a2.544,2.544,0,0,0-.4-1.5A2.571,2.571,0,0,0-1.7-14.306l-1.453-.84c-2.809-1.638-5.893-3.458-8.665-5.125l.14-.035A2.846,2.846,0,0,0-12-18.7c-.032,2.834-.037,5.718.017,8.548l.026,1.709a2.654,2.654,0,0,0,.418,1.556,2.6,2.6,0,0,0,1.143,1.124l1.481.853c1.473.853,4.428,2.6,5.889,3.474l1.464.884A2.906,2.906,0,0,0,0,0M.025.026A2.7,2.7,0,0,1-1.619-.447l-1.5-.825c-1.49-.833-4.477-2.514-5.956-3.364l-1.48-.857A2.952,2.952,0,0,1-11.8-6.74,2.927,2.927,0,0,1-12.2-8.448l.026-1.709c.053-2.829.051-5.716.018-8.548a3.014,3.014,0,0,1,.31-1.709.1.1,0,0,1,.14-.035c2.821,1.57,5.931,3.363,8.752,4.973A17.15,17.15,0,0,1-.785-14.128a3.389,3.389,0,0,1,.973,1.96c.022.3,0,1.787,0,2.115C.181-7.9.069-2.194.025.026" fill="#156a92"/>
      </g>
      <g id="Grupo_850" data-name="Grupo 850" transform="translate(12.226 0.929)">
        <path id="Caminho_1378" data-name="Caminho 1378" d="M0,0A2.383,2.383,0,0,0,1.25-.311l9.456-5.46a2.683,2.683,0,0,0,.93-.983l.07-.121a2.7,2.7,0,0,0,.386-1.3V-19.092a2.1,2.1,0,0,0-.29-1.28L4.383-16.083,1.356-14.335A2.707,2.707,0,0,0,.41-13.319,2.732,2.732,0,0,0,0-11.988V0Z" fill="#1ec1d2"/>
      </g>
      <g id="Grupo_851" data-name="Grupo 851" transform="translate(12.214 0.942)">
        <path id="Caminho_1379" data-name="Caminho 1379" d="M0,0C-.045-2.254-.154-7.912-.162-10.088c0-.338-.023-1.8,0-2.117a3.408,3.408,0,0,1,.98-1.958A17.8,17.8,0,0,1,3-15.508c2.829-1.611,5.935-3.4,8.766-4.966a.1.1,0,0,1,.136.029,2.787,2.787,0,0,1,.287,1.713c-.033,2.834-.034,5.719.018,8.548l.026,1.71a2.925,2.925,0,0,1-.408,1.707,2.949,2.949,0,0,1-1.244,1.248L9.1-4.663C7.619-3.818,4.631-2.124,3.141-1.3l-1.5.825A2.705,2.705,0,0,1,0,0M.025-.026a2.916,2.916,0,0,0,1.56-.556l1.464-.885c1.463-.879,4.416-2.616,5.89-3.474l1.481-.853a2.6,2.6,0,0,0,1.143-1.124,2.661,2.661,0,0,0,.417-1.556l.026-1.71c.054-2.828.05-5.716.018-8.548a2.64,2.64,0,0,0-.293-1.593l.136.029C9.1-18.634,5.995-16.817,3.188-15.178l-1.454.84A2.571,2.571,0,0,0,.6-13.269a2.549,2.549,0,0,0-.406,1.5l-.01,1.679C.179-7.955.07-2.229.025-.026" fill="#156a92"/>
      </g>
      <g id="Grupo_852" data-name="Grupo 852" transform="translate(2.702 -12.964)">
        <path id="Caminho_1380" data-name="Caminho 1380" d="M0,0A2.565,2.565,0,0,1-.367-1.236c0-.8.562-1.124,1.258-.726a2.558,2.558,0,0,1,.886.936A2.561,2.561,0,0,1,2.144.209c0,.8-.564,1.124-1.257.726A2.557,2.557,0,0,1,0,0" fill="#0f3342"/>
      </g>
      <g id="Grupo_853" data-name="Grupo 853" transform="translate(2.805 -7.427)">
        <path id="Caminho_1381" data-name="Caminho 1381" d="M0,0A2.54,2.54,0,0,1-.364-1.239c0-.8.562-1.121,1.256-.725a2.573,2.573,0,0,1,.888.937A2.559,2.559,0,0,1,2.146.206c0,.8-.565,1.126-1.257.726A2.544,2.544,0,0,1,0,0" fill="#0f3342"/>
      </g>
      <g id="Grupo_854" data-name="Grupo 854" transform="translate(7.544 -10.059)">
        <path id="Caminho_1382" data-name="Caminho 1382" d="M0,0A2.542,2.542,0,0,1-.366-1.236c0-.8.563-1.124,1.258-.727a2.582,2.582,0,0,1,.886.936A2.563,2.563,0,0,1,2.146.209c0,.8-.565,1.124-1.259.726A2.565,2.565,0,0,1,0,0" fill="#0f3342"/>
      </g>
      <g id="Grupo_855" data-name="Grupo 855" transform="translate(7.648 -4.523)">
        <path id="Caminho_1383" data-name="Caminho 1383" d="M0,0A2.568,2.568,0,0,1-.366-1.239c0-.8.564-1.121,1.257-.725a2.563,2.563,0,0,1,.887.937A2.55,2.55,0,0,1,2.145.207c0,.8-.564,1.124-1.257.726A2.537,2.537,0,0,1,0,0" fill="#0f3342"/>
      </g>
      <g id="Grupo_856" data-name="Grupo 856" transform="translate(6.085 -21.08)">
        <path id="Caminho_1384" data-name="Caminho 1384" d="M0,0A2.664,2.664,0,0,0-1.307.315a.8.8,0,0,0,0,1.512A2.673,2.673,0,0,0,0,2.139a2.669,2.669,0,0,0,1.306-.312.8.8,0,0,0,0-1.512A2.66,2.66,0,0,0,0,0" fill="#0f3342"/>
      </g>
      <g id="Grupo_857" data-name="Grupo 857" transform="translate(18.37 -21.08)">
        <path id="Caminho_1385" data-name="Caminho 1385" d="M0,0A2.672,2.672,0,0,0-1.307.315a.8.8,0,0,0,0,1.512A2.681,2.681,0,0,0,0,2.139a2.661,2.661,0,0,0,1.3-.312A.8.8,0,0,0,1.3.315,2.652,2.652,0,0,0,0,0" fill="#0f3342"/>
      </g>
      <g id="Grupo_858" data-name="Grupo 858" transform="translate(12.226 -21.146)">
        <path id="Caminho_1386" data-name="Caminho 1386" d="M0,0A2.66,2.66,0,0,0-1.306.315a.8.8,0,0,0,0,1.513A2.669,2.669,0,0,0,0,2.139a2.676,2.676,0,0,0,1.307-.311.8.8,0,0,0,0-1.513A2.666,2.666,0,0,0,0,0" fill="#0f3342"/>
      </g>
      <g id="Grupo_859" data-name="Grupo 859" transform="translate(18.044 -9.804)">
        <path id="Caminho_1387" data-name="Caminho 1387" d="M0,0A2.726,2.726,0,0,0-.389,1.313c0,.85.6,1.194,1.337.772a2.723,2.723,0,0,0,.941-1,2.71,2.71,0,0,0,.39-1.311c0-.85-.6-1.194-1.335-.772A2.707,2.707,0,0,0,0,0" fill="#0f3342"/>
      </g>
      <g id="Grupo_860" data-name="Grupo 860" transform="translate(21.961 -17.76)">
        <path id="Caminho_1388" data-name="Caminho 1388" d="M0,0C-.143.1,1.424-.375,1.4.211,1.37.848,1.3,10.5,1.3,10.5s-.021,1.184-.5,1.334c-.378.119.547.484.853-.776C2.031,9.537,1.785.169,1.785.169S1.947-1.184,0,0" fill="#fff"/>
      </g>
    </g>
  </g>
</svg>
