<svg xmlns="http://www.w3.org/2000/svg" xmlns:xlink="http://www.w3.org/1999/xlink" width="17.328" height="25.807" viewBox="0 0 17.328 25.807">
  <defs>
    <clipPath id="clip-path">
      <path id="Caminho_1366" data-name="Caminho 1366" d="M0,0H17.328V-25.807H0Z" fill="none"/>
    </clipPath>
  </defs>
  <g id="alfabeto_b_fim" transform="translate(0 25.807)">
    <g id="Grupo_838" data-name="Grupo 838" clip-path="url(#clip-path)">
      <g id="Grupo_815" data-name="Grupo 815" transform="translate(15.4 -18.564)">
        <path id="Caminho_1343" data-name="Caminho 1343" d="M0,0S-1.678-.145-2.256.486L-1.8,3.978l1.331.193Z" fill="#ffecc3"/>
      </g>
      <g id="Grupo_816" data-name="Grupo 816" transform="translate(15.407 -18.569)">
        <path id="Caminho_1344" data-name="Caminho 1344" d="M0,0C-.1,1.374-.228,2.8-.4,4.186l-.01.09-.088-.014-1.329-.208-.054-.008-.007-.053L-2.3.5l0-.017L-2.29.467A3.131,3.131,0,0,1,0,0M-.014.011A3.418,3.418,0,0,0-2.228.487l.486,3.488-.06-.061,1.334.177-.1.076c.149-1.4.342-2.749.553-4.156" fill="#f1cb8c"/>
      </g>
      <g id="Grupo_817" data-name="Grupo 817" transform="translate(16.117 -13.875)">
        <path id="Caminho_1345" data-name="Caminho 1345" d="M0,0-1.156-.67s-1.016-3.962.385-4.105S.245-.687,0,0" fill="#ffb330"/>
      </g>
      <g id="Grupo_818" data-name="Grupo 818" transform="translate(16.114 -13.883)">
        <path id="Caminho_1346" data-name="Caminho 1346" d="M0,0A11.371,11.371,0,0,0,.047-3.537a1.579,1.579,0,0,0-.475-1A.563.563,0,0,0-.946-4.58c-.836.484-.473,1.952-.371,2.747.071.389.136.783.228,1.167L-1.12-.707C-.755-.488-.4-.251,0,0M.006.016C-.377-.175-.8-.382-1.21-.6A8.707,8.707,0,0,1-1.544-3.01c.029-.565-.012-1.339.558-1.661A.773.773,0,0,1,.04-4.159,6.988,6.988,0,0,1,.006.016" fill="#ffa72d"/>
      </g>
      <g id="Grupo_819" data-name="Grupo 819" transform="translate(7.65 -15.304)">
        <path id="Caminho_1347" data-name="Caminho 1347" d="M0,0S-4.146-2.644-6.529,1.428c0,0,1.507-3.075,5.361.289A3.412,3.412,0,0,1,0,4.715S.385.631,0,0" fill="#ffecc3"/>
      </g>
      <g id="Grupo_820" data-name="Grupo 820" transform="translate(7.656 -15.31)">
        <path id="Caminho_1348" data-name="Caminho 1348" d="M0,0A6.842,6.842,0,0,1,.2,2.358C.178,3.149.133,3.939.071,4.728l-.157-.013A4.039,4.039,0,0,0-.31,3.108,3.926,3.926,0,0,0-1.836,1.3C-3.245.153-5.415-.423-6.487,1.458l-.094-.051A5.454,5.454,0,0,1-5.347-.03C-3.83-1.293-1.591-.961,0,0M-.012.012c-1.894-1.136-4.511-1.2-5.942.683-.2.238-.355.513-.535.767l-.094-.051C-5.49-.557-3.221-.011-1.737,1.166A4.021,4.021,0,0,1-.146,3.047a3.872,3.872,0,0,1,.217,1.68l-.157-.013C.03,3.538.125,2.355.124,1.172A3.434,3.434,0,0,0-.012.012" fill="#f1cb8c"/>
      </g>
      <g id="Grupo_821" data-name="Grupo 821" transform="translate(7.708 -10.854)">
        <path id="Caminho_1349" data-name="Caminho 1349" d="M0,0S.771-7.358-3.644-13.315a1.011,1.011,0,0,1,.42-1.4c.911-.631,4.7.42,6.658,3.223s2.92,7.639,2.92,7.639S5.816,5.326,0,0" fill="#ffecc3"/>
      </g>
      <g id="Grupo_822" data-name="Grupo 822" transform="translate(8.289 -24.832)">
        <path id="Caminho_1350" data-name="Caminho 1350" d="M0,0A15.222,15.222,0,0,1,4.5,9.871l1.27.253S3.989,1.727,0,0" fill="#ffdda8"/>
      </g>
      <g id="Grupo_823" data-name="Grupo 823" transform="translate(7.716 -10.857)">
        <path id="Caminho_1351" data-name="Caminho 1351" d="M0,0C4.088,3.731,5.93.334,6.258-3.856,5.621-6.561,4.773-9.622,3-11.922A8.717,8.717,0,0,0-.546-14.414a3.787,3.787,0,0,0-2.626-.265.988.988,0,0,0-.436,1.339A18.094,18.094,0,0,1-1.833-10.3c.254.514.464,1.1.669,1.631A22.02,22.02,0,0,1,0,0M-.016.006a22,22,0,0,0-1.22-8.649c-.207-.529-.421-1.111-.676-1.62A18.049,18.049,0,0,0-3.7-13.283a1.1,1.1,0,0,1,.463-1.492A3.849,3.849,0,0,1-.5-14.533a8.891,8.891,0,0,1,3.615,2.514A20.609,20.609,0,0,1,6.433-3.846C6.068.389,4.06,3.919-.016.006" fill="#f1cb8c"/>
      </g>
      <g id="Grupo_824" data-name="Grupo 824" transform="translate(7.649 -10.589)">
        <path id="Caminho_1352" data-name="Caminho 1352" d="M0,0S.41-4.469,4.054-4.434A7.075,7.075,0,0,1,8.774-3a1.072,1.072,0,0,1,.311.474C9.531-1.188,11.218,5.1,4.963,8.666a.156.156,0,0,1-.138.008L3.493,8.085A.145.145,0,0,1,3.4,7.929C3.619,6.487,5.752-8.56,0,0" fill="#ffecc3"/>
      </g>
      <g id="Grupo_825" data-name="Grupo 825" transform="translate(7.652 -10.597)">
        <path id="Caminho_1353" data-name="Caminho 1353" d="M0,0C5.374-8.159,4.008,4.8,3.492,7.92c-.021.11.035.083.129.137s.351.154.45.2c.144.06.667.3.8.354a.077.077,0,0,0,.037,0l.266-.17c.188-.118.643-.413.822-.527A10.939,10.939,0,0,0,7.218,6.835,9.266,9.266,0,0,0,8.244,5.577,8.69,8.69,0,0,0,9.562.943a11.218,11.218,0,0,0-.456-3.22,1.408,1.408,0,0,0-.263-.573,6.272,6.272,0,0,0-3.55-1.459C2.12-4.881.444-2.972,0,0M-.006.016C.2-1.9,1.266-4.046,3.331-4.393A7.338,7.338,0,0,1,8.915-2.911,3.387,3.387,0,0,1,9.37-1.669a9.522,9.522,0,0,1-.848,7.032,3.575,3.575,0,0,1-.357.556,7.5,7.5,0,0,1-.84,1.019,11.1,11.1,0,0,1-1.232,1.1c-.18.12-.645.418-.83.54-.142.085-.332.278-.511.166L4.6,8.677c-.2-.087-.706-.31-.9-.4a1.58,1.58,0,0,1-.321-.161c-.115-.113-.045-.266-.036-.388l.045-.324C3.782,4.31,5.309-7.726-.006.016" fill="#f1cb8c"/>
      </g>
      <g id="Grupo_826" data-name="Grupo 826" transform="translate(11.072 -3.25)">
        <path id="Caminho_1354" data-name="Caminho 1354" d="M0,0C-1.682,2.593-4.94,2.558-6.062,2.348a8.655,8.655,0,0,0-3.114.14c-.171.105-.74.63-.74.63A6.731,6.731,0,0,1-11,.666C-4.905.315-3.364-7.6-3.364-7.6s.876-2.418,2.033-2.523c0,0,2.108-.5,1.822,3.749C.236-2.6,0,0,0,0" fill="#ffb330"/>
      </g>
      <g id="Grupo_827" data-name="Grupo 827" transform="translate(6.608 -13.586)">
        <path id="Caminho_1355" data-name="Caminho 1355" d="M0,0S-3.429-3.217-5.487-.289c0,0-1.506,1.83-.56,6.735h1.191S-4.24.771,0,0" fill="#ffb330"/>
      </g>
      <g id="Grupo_828" data-name="Grupo 828" transform="translate(11.059 -3.255)">
        <path id="Caminho_1356" data-name="Caminho 1356" d="M0,0C.163-1.786.283-3.587.356-5.381a8.573,8.573,0,0,0-.306-3.5A1.652,1.652,0,0,0-1.114-9.97c-1.049-.11-1.767,1.605-2.118,2.414A14.363,14.363,0,0,1-4.214-4.7C-5.431-1.95-7.832.566-10.987.726l.051-.069a11.879,11.879,0,0,0,.43,1.276,3.13,3.13,0,0,0,.664,1.116l-.127,0c.168-.158.336-.314.511-.466a1.049,1.049,0,0,1,.664-.3,8.681,8.681,0,0,1,2.772-.046,6.406,6.406,0,0,0,1.344.086A5.757,5.757,0,0,0,0,0M.025.009A5.991,5.991,0,0,1-6.062,2.463a8.983,8.983,0,0,0-3.015.111,6.4,6.4,0,0,0-.761.62l-.066.058a1.9,1.9,0,0,1-.472-.634,9.668,9.668,0,0,1-.683-2A6.788,6.788,0,0,0-5.908-2.193,14.061,14.061,0,0,0-3.471-7.642c.41-.967,1.127-2.745,2.4-2.6A1.92,1.92,0,0,1,.3-8.984,8.268,8.268,0,0,1,.555-5.37C.439-3.57.287-1.78.025.009" fill="#ffa72d"/>
      </g>
      <g id="Grupo_829" data-name="Grupo 829" transform="translate(6.616 -13.583)">
        <path id="Caminho_1357" data-name="Caminho 1357" d="M0,0C-2.958.615-4.371,3.73-4.783,6.453l-.01.074h-.071l-1.192-.012h-.059l-.009-.056a11.8,11.8,0,0,1,.411-6.6C-4.437-2.628-1.556-1.662,0,0M-.017,0C-1.64-1.471-4.3-2.445-5.605-.085A10.318,10.318,0,0,0-5.987,6.43l-.069-.056,1.192-.012-.082.073C-4.591,3.679-3.045.441-.017,0" fill="#ffa72d"/>
      </g>
      <g id="Grupo_830" data-name="Grupo 830" transform="translate(0.249 -2.453)">
        <path id="Caminho_1358" data-name="Caminho 1358" d="M0,0A5.164,5.164,0,0,0,.925,2.22a9.45,9.45,0,0,1,.734-.635s.679-.11.95-.135L1.825-.407A11.327,11.327,0,0,1,0,0" fill="#3b2515"/>
      </g>
      <g id="Grupo_831" data-name="Grupo 831" transform="translate(0.249 -2.453)">
        <path id="Caminho_1359" data-name="Caminho 1359" d="M0,0A5.164,5.164,0,0,0,.925,2.22a9.45,9.45,0,0,1,.734-.635s.679-.11.95-.135L1.825-.407A11.327,11.327,0,0,1,0,0Z" fill="none" stroke="#3b2515" stroke-width="0.35"/>
      </g>
      <g id="Grupo_832" data-name="Grupo 832" transform="translate(4.895 -1.465)">
        <path id="Caminho_1360" data-name="Caminho 1360" d="M0,0S-.58.049-.383.3.188.051,0,0" fill="#3b2515"/>
      </g>
      <g id="Grupo_833" data-name="Grupo 833" transform="translate(4.142 -2.212)">
        <path id="Caminho_1361" data-name="Caminho 1361" d="M0,0S-.14-.565-.352-.332-.021.193,0,0" fill="#3b2515"/>
      </g>
      <g id="Grupo_834" data-name="Grupo 834" transform="translate(6.49 -1.144)">
        <path id="Caminho_1362" data-name="Caminho 1362" d="M0,0S.425.4.476.087-.087-.174,0,0" fill="#3b2515"/>
      </g>
      <g id="Grupo_835" data-name="Grupo 835" transform="translate(5.687 -1.755)">
        <path id="Caminho_1363" data-name="Caminho 1363" d="M0,0S.447-.061.336.148-.134.068,0,0" fill="#3b2515"/>
      </g>
      <g id="Grupo_836" data-name="Grupo 836" transform="translate(4.717 -23.994)">
        <path id="Caminho_1364" data-name="Caminho 1364" d="M0,0S0-.543-.222-.567a.243.243,0,0,0-.222.394C-.321.025-.123.345,0,0" fill="#fff"/>
      </g>
      <g id="Grupo_837" data-name="Grupo 837" transform="translate(4.717 -23.674)">
        <path id="Caminho_1365" data-name="Caminho 1365" d="M0,0A16.189,16.189,0,0,1,1.581,3.17a2.859,2.859,0,0,0-.53-2.146A2.439,2.439,0,0,0,0,0" fill="#fff"/>
      </g>
    </g>
  </g>
</svg>
