<svg xmlns="http://www.w3.org/2000/svg" xmlns:xlink="http://www.w3.org/1999/xlink" width="25.915" height="25.726" viewBox="0 0 25.915 25.726">
  <defs>
    <clipPath id="clip-path">
      <path id="Caminho_1342" data-name="Caminho 1342" d="M0,0H25.915V-25.726H0Z" fill="none"/>
    </clipPath>
  </defs>
  <g id="alfabeto_a_fim" transform="translate(0 25.726)">
    <g id="Grupo_814" data-name="Grupo 814" clip-path="url(#clip-path)">
      <g id="Grupo_733" data-name="Grupo 733" transform="translate(7.822 -11.068)">
        <path id="Caminho_1261" data-name="Caminho 1261" d="M0,0S3.072-15.04,8.469-14.6,11.56-8,11.56-8Z" fill="#d8f3f7"/>
      </g>
      <g id="Grupo_734" data-name="Grupo 734" transform="translate(7.831 -11.083)">
        <path id="Caminho_1262" data-name="Caminho 1262" d="M0,0C3.354-2.412,8.084-5.853,11.452-8.131c.413-1.581,1.067-4.519-1.058-5.817C6.752-16.009,4.5-12.279,3.189-9.384A59.609,59.609,0,0,0,0,0M-.019.029C.822-4.415,2.437-10.417,5.793-13.592a3.939,3.939,0,0,1,4.692-.51c2.144,1.225,1.9,4.144,1.227,6.173C8.4-5.462,3.448-2.326-.019.029" fill="#9de1e2"/>
      </g>
      <g id="Grupo_735" data-name="Grupo 735" transform="translate(10.994 -14.501)">
        <path id="Caminho_1263" data-name="Caminho 1263" d="M0,0S10.681-.342,10.21,8.984c0,0-2.672,3.039-5.554,2.1A45.744,45.744,0,0,1-2.312,7.726Z" fill="#ffbc31"/>
      </g>
      <g id="Grupo_736" data-name="Grupo 736" transform="translate(10.994 -14.51)">
        <path id="Caminho_1264" data-name="Caminho 1264" d="M0,0C3.78-.1,8.231,1.357,9.678,5.176a9.428,9.428,0,0,1,.587,3.839,7.72,7.72,0,0,1-2.879,2.032,4.127,4.127,0,0,1-2.628.16A36.371,36.371,0,0,1-2.316,7.743a58.615,58.615,0,0,0,6.3,3.011,4.288,4.288,0,0,0,3.34.133,8.416,8.416,0,0,0,2.827-1.9A9.082,9.082,0,0,0,9.627,5.2C8.126,1.429,3.681.155,0,0" fill="#fb9329"/>
      </g>
      <g id="Grupo_737" data-name="Grupo 737" transform="translate(19.67 -11.132)">
        <path id="Caminho_1265" data-name="Caminho 1265" d="M0,0S-1.209,6.495-3.6,7.892c0,0,2.614.68,5.136-2.277,0,0,.351-3.4-1.534-5.615" fill="#2b2e34"/>
      </g>
      <g id="Grupo_738" data-name="Grupo 738" transform="translate(19.668 -11.141)">
        <path id="Caminho_1266" data-name="Caminho 1266" d="M0,0A7.726,7.726,0,0,1,1.626,5.661,5.721,5.721,0,0,1-3.607,7.932l-.081-.018.073-.041C-1.571,6.559-.629,2.292,0,0M0,.017c-.472,2.577-1.361,6.31-3.588,7.911l-.008-.058c1.962.337,3.838-.851,5.057-2.307A8.634,8.634,0,0,0,0,.017" fill="#2b2e34"/>
      </g>
      <g id="Grupo_739" data-name="Grupo 739" transform="translate(10.307 -5.812)">
        <path id="Caminho_1267" data-name="Caminho 1267" d="M0,0C1.727-.678,3.6-8.684,4.243-8.691,4.98-8.7,7.472-6.943,7.472-6.943,7.026-2.005,3.029,1.506,3.029,1.506S-.129.051,0,0" fill="#2b2e34"/>
      </g>
      <g id="Grupo_740" data-name="Grupo 740" transform="translate(10.31 -5.804)">
        <path id="Caminho_1268" data-name="Caminho 1268" d="M0,0C.818.5,2.165,1.031,3.049,1.447c2.012-2.116,4.09-5.2,4.37-8.4A17.946,17.946,0,0,0,4.544-8.61c-.119-.025-.265-.1-.372-.02a1.309,1.309,0,0,0-.222.342C3.173-6.479,2.691-4.556,1.867-2.761,1.38-1.8.974-.56,0,0M-.006-.016C.97-.6,1.316-1.824,1.764-2.805,2.386-4.372,2.91-5.98,3.541-7.546a4.292,4.292,0,0,1,.588-1.132c.115-.1.3-.022.433.012a15.854,15.854,0,0,1,2.959,1.69,10.94,10.94,0,0,1-.477,2.429A14.282,14.282,0,0,1,3.063,1.54l-.028.025L3,1.549C2.3,1.191,1.022.59.342.224.283.191.12.1.064.067.041.041-.011.043-.006-.016" fill="#2b2e34"/>
      </g>
      <g id="Grupo_741" data-name="Grupo 741" transform="translate(16.23 -3.391)">
        <path id="Caminho_1269" data-name="Caminho 1269" d="M0,0A4.949,4.949,0,0,1-1.249-.364c-.409-.153-.816-.318-1.22-.492l-.264-.131A14.732,14.732,0,0,0-.754-3.246a15.852,15.852,0,0,0,2.6.575A6.614,6.614,0,0,1,0,0" fill="#e1a027"/>
      </g>
      <g id="Grupo_742" data-name="Grupo 742" transform="translate(16.187 -3.359)">
        <path id="Caminho_1270" data-name="Caminho 1270" d="M0,0A6.145,6.145,0,0,1-1.814-.586c-.211-.1-.414-.2-.611-.3.4.174.81.339,1.219.492a4.956,4.956,0,0,0,1.25.364L0,0" fill="#d47d21"/>
      </g>
      <g id="Grupo_743" data-name="Grupo 743" transform="translate(16.856 -3.345)">
        <path id="Caminho_1271" data-name="Caminho 1271" d="M0,0A4.237,4.237,0,0,1-.551-.036,7.3,7.3,0,0,0,1.364-2.7a7.956,7.956,0,0,0,.814.045,3.27,3.27,0,0,0,2-.533c0,.107.006.252.006.4A4.37,4.37,0,0,1,4.16-2.2c-.01.015-.029.042-.057.08a5.113,5.113,0,0,1-.406.483A7.39,7.39,0,0,1,1.465-.278,3.955,3.955,0,0,1,0,0" fill="#1d1700"/>
      </g>
      <g id="Grupo_744" data-name="Grupo 744" transform="translate(16.906 -3.306)">
        <path id="Caminho_1272" data-name="Caminho 1272" d="M0,0H0A4.864,4.864,0,0,1-.642-.042L-.6-.075A4.237,4.237,0,0,0-.05-.039,3.958,3.958,0,0,0,1.415-.317a7.37,7.37,0,0,0,2.232-1.36,6.038,6.038,0,0,1-.438.419A6.679,6.679,0,0,1,2.064-.49,4.6,4.6,0,0,1,0,0" fill="#160c00"/>
      </g>
      <g id="Grupo_745" data-name="Grupo 745" transform="translate(16.286 -3.383)">
        <path id="Caminho_1273" data-name="Caminho 1273" d="M0,0-.056-.008A6.614,6.614,0,0,0,1.792-2.679l.054.007A6.734,6.734,0,0,1,0,0" fill="#1d1700"/>
      </g>
      <g id="Grupo_746" data-name="Grupo 746" transform="translate(16.242 -3.351)">
        <path id="Caminho_1274" data-name="Caminho 1274" d="M0,0-.055-.008-.011-.04l.056.008L0,0" fill="#160c00"/>
      </g>
      <g id="Grupo_747" data-name="Grupo 747" transform="translate(16.305 -3.381)">
        <path id="Caminho_1275" data-name="Caminho 1275" d="M0,0-.019,0A6.728,6.728,0,0,0,1.827-2.675l.088.01A7.3,7.3,0,0,1,0,0" fill="#1d1700"/>
      </g>
      <g id="Grupo_748" data-name="Grupo 748" transform="translate(16.264 -3.348)">
        <path id="Caminho_1276" data-name="Caminho 1276" d="M0,0-.023,0,.022-.035l.019,0L0,0M2.7-.448a6.74,6.74,0,0,0,1.146-.767A5.478,5.478,0,0,1,2.7-.448" fill="#160c00"/>
      </g>
      <g id="Grupo_749" data-name="Grupo 749" transform="translate(10.526 -5.935)">
        <path id="Caminho_1277" data-name="Caminho 1277" d="M0,0-.008,0A2.315,2.315,0,0,0,.214-.189,1.649,1.649,0,0,1,0,0M-.027-.015C-.2-.113-.368-.2-.517-.289c-.449-.254-.769-.445-.976-.573-.116-.071-.2-.121-.245-.153l.759-2.106c.268.136,1.124.564,2.265,1.058A4.675,4.675,0,0,1-.027-.015" fill="#e1a027"/>
      </g>
      <g id="Grupo_750" data-name="Grupo 750" transform="translate(13.418 -4.419)">
        <path id="Caminho_1278" data-name="Caminho 1278" d="M0,0C-1.225-.615-2.177-1.121-2.892-1.517a1.789,1.789,0,0,0,.214-.188,5.845,5.845,0,0,0,1.15-1.841c.312.134.645.273.993.412.75.3,1.568.6,2.4.855A20.377,20.377,0,0,1,0,0" fill="#1d1700"/>
      </g>
      <g id="Grupo_751" data-name="Grupo 751" transform="translate(13.498 -4.379)">
        <path id="Caminho_1279" data-name="Caminho 1279" d="M0,0-.053-.027a15.432,15.432,0,0,0,1.936-2.26l.1.029A14.712,14.712,0,0,1,0,0M-2.98-1.561-3-1.572A4.669,4.669,0,0,0-1.686-3.62l.048.021a7,7,0,0,1-1.12,1.854,2.462,2.462,0,0,1-.222.184" fill="#1d1700"/>
      </g>
      <g id="Grupo_752" data-name="Grupo 752" transform="translate(13.444 -4.405)">
        <path id="Caminho_1280" data-name="Caminho 1280" d="M0,0-.026-.013A20.372,20.372,0,0,0,1.833-2.292l.1.032A15.432,15.432,0,0,1,0,0M-2.7-1.719a6.946,6.946,0,0,0,1.12-1.854l.03.014A5.829,5.829,0,0,1-2.7-1.719" fill="#1d1700"/>
      </g>
      <g id="Grupo_753" data-name="Grupo 753" transform="translate(16.901 -3.131)">
        <path id="Caminho_1281" data-name="Caminho 1281" d="M0,0A5.883,5.883,0,0,1-2.606-.657c-.27-.133-.53-.261-.778-.386a22.867,22.867,0,0,0,2.235.871c.082.025.165.046.249.065L-.921-.1l.081.018A4.167,4.167,0,0,0-.05,0,5.554,5.554,0,0,0,3.418-1.379q-.117.1-.249.213A5.025,5.025,0,0,1,0,0Z" fill="#dadbdc"/>
      </g>
      <g id="Grupo_754" data-name="Grupo 754" transform="translate(18.115 -6.146)">
        <path id="Caminho_1282" data-name="Caminho 1282" d="M0,0A15.66,15.66,0,0,1-2.586-.567l.053-.075A15.429,15.429,0,0,0,.036-.084L0,0" fill="#e1a027"/>
      </g>
      <g id="Grupo_755" data-name="Grupo 755" transform="translate(16.001 -3.238)">
        <path id="Caminho_1283" data-name="Caminho 1283" d="M0,0C-.084-.018-.166-.04-.249-.065a23.116,23.116,0,0,1-2.235-.87l-.157-.079.013-.012.056-.051q.43.216.9.449A6.285,6.285,0,0,0,.081-.049.29.29,0,0,1,.052-.03Z" fill="#d47d21"/>
      </g>
      <g id="Grupo_756" data-name="Grupo 756" transform="translate(21.104 -5.542)">
        <path id="Caminho_1284" data-name="Caminho 1284" d="M0,0A9.673,9.673,0,0,0,.016-1.175,3.006,3.006,0,0,1-2.07-.546a7.764,7.764,0,0,1-.776-.042c.013-.028.025-.056.037-.084.254.025.5.039.735.039h.006A2.919,2.919,0,0,0-.044-1.239l.058-.054A11.16,11.16,0,0,1,.03-.035L0,0" fill="#1d1700"/>
      </g>
      <g id="Grupo_757" data-name="Grupo 757" transform="translate(16.756 -3.213)">
        <path id="Caminho_1285" data-name="Caminho 1285" d="M0,0A4.008,4.008,0,0,1-.606-.046L-.588-.06A4.946,4.946,0,0,0,.146,0H.212C.142,0,.071,0,0,0" fill="#160c00"/>
      </g>
      <g id="Grupo_758" data-name="Grupo 758" transform="translate(16.851 -3.134)">
        <path id="Caminho_1286" data-name="Caminho 1286" d="M0,0A4.177,4.177,0,0,1-.791-.075l-.08-.017L-.851-.1a3.626,3.626,0,0,0,.778.082,4.5,4.5,0,0,0,1.5-.268,5.259,5.259,0,0,0,1.8-.988,8.806,8.806,0,0,0,.9-.789,6.023,6.023,0,0,1-.657.692A5.558,5.558,0,0,1,0,0" fill="#2b2e34"/>
      </g>
      <g id="Grupo_759" data-name="Grupo 759" transform="translate(18.169 -6.14)">
        <path id="Caminho_1287" data-name="Caminho 1287" d="M0,0-.055-.006-.019-.09l.055.006L0,0" fill="#1d1700"/>
      </g>
      <g id="Grupo_760" data-name="Grupo 760" transform="translate(16.778 -3.156)">
        <path id="Caminho_1288" data-name="Caminho 1288" d="M0,0A3.624,3.624,0,0,1-.777-.082l.052-.029L-.7-.131l.051.008-.064.039a3,3,0,0,0,.693.068,4.741,4.741,0,0,0,1.4-.219L1.5-.268A4.5,4.5,0,0,1,0,0M3.294-1.256c.043-.035.084-.07.124-.1a8.154,8.154,0,0,0,.989-.977l0,.015-.01.015s-.067.1-.2.263a8.806,8.806,0,0,1-.9.789" fill="#160c00"/>
      </g>
      <g id="Grupo_761" data-name="Grupo 761" transform="translate(21.012 -5.391)">
        <path id="Caminho_1289" data-name="Caminho 1289" d="M0,0C.057-.077.087-.122.087-.122s0-.019.005-.029S.111-.175.121-.186A11.164,11.164,0,0,0,.106-1.445l.025-.023A11.079,11.079,0,0,1,.136-.129L0,0M-2.754-.739l-.089-.01.036-.084.09.01-.037.084" fill="#1d1700"/>
      </g>
      <g id="Grupo_762" data-name="Grupo 762" transform="translate(16.762 -3.172)">
        <path id="Caminho_1290" data-name="Caminho 1290" d="M0,0A3.043,3.043,0,0,1-.693-.067l.064-.039.035,0a.133.133,0,0,1-.019.014,4.031,4.031,0,0,0,.607.046c.071,0,.142,0,.212,0A4.643,4.643,0,0,0,1.4-.219,4.752,4.752,0,0,1,0,0M3.434-1.345a5.862,5.862,0,0,0,.817-.873l.136-.13a11.271,11.271,0,0,0-.005-1.338l.056-.053.008.191s.011.285.011.589a4.05,4.05,0,0,1-.034.636h0a8.154,8.154,0,0,1-.989.977" fill="#160c00"/>
      </g>
      <g id="Grupo_763" data-name="Grupo 763" transform="translate(8.691 -6.804)">
        <path id="Caminho_1291" data-name="Caminho 1291" d="M0,0-.057-.037-.114-.075.7-2.327.239-.8-.009-.11l.035.023Z" fill="#dadbdc"/>
      </g>
      <g id="Grupo_764" data-name="Grupo 764" transform="translate(10.391 -5.875)">
        <path id="Caminho_1292" data-name="Caminho 1292" d="M0,0C-.419-.217-.834-.435-1.247-.65c-.231-.138-.379-.232-.453-.279l.026-.088c.134.087.66.421,1.7,1L0,0M-1.462-1.727-1-3.256l.028-.079.034-.094.089.046s.092.048.261.133.414.2.719.349c.374.177.837.389,1.361.616L1.455-2.2c-1.386-.6-2.349-1.1-2.349-1.1Z" fill="#e1a027"/>
      </g>
      <g id="Grupo_765" data-name="Grupo 765" transform="translate(10.337 -5.84)">
        <path id="Caminho_1293" data-name="Caminho 1293" d="M0,0C-.526-.292-.918-.52-1.192-.685q.62.324,1.247.65L0,0" fill="#d47d21"/>
      </g>
      <g id="Grupo_766" data-name="Grupo 766" transform="translate(10.414 -5.863)">
        <path id="Caminho_1294" data-name="Caminho 1294" d="M0,0,0,0,.024-.02l.006,0L0,0" fill="#e1a027"/>
      </g>
      <g id="Grupo_767" data-name="Grupo 767" transform="translate(10.373 -5.841)">
        <path id="Caminho_1295" data-name="Caminho 1295" d="M0,0,.037-.024l0,0L0,0" fill="#d47d21"/>
      </g>
      <g id="Grupo_768" data-name="Grupo 768" transform="translate(11.507 -5.305)">
        <path id="Caminho_1296" data-name="Caminho 1296" d="M0,0Q-.551-.276-1.093-.558l.03-.017Q-.6-.32,0,0" fill="#1d1700"/>
      </g>
      <g id="Grupo_769" data-name="Grupo 769" transform="translate(13.206 -4.427)">
        <path id="Caminho_1297" data-name="Caminho 1297" d="M0,0C-.417-.192-.916-.4-1.408-.625c-.563-.3-1.042-.555-1.444-.778a.118.118,0,0,0,.019-.011l.041-.022c.362.188.727.375,1.093.558C-1.206-.617-.642-.324,0,0" fill="#160c00"/>
      </g>
      <g id="Grupo_770" data-name="Grupo 770" transform="translate(15.33 -6.773)">
        <path id="Caminho_1298" data-name="Caminho 1298" d="M0,0A34.732,34.732,0,0,1-3.4-1.271c.013-.027.025-.053.037-.08.31.133.64.271.984.409.763.3,1.6.61,2.435.866C.035-.05.017-.025,0,0" fill="#1d1700"/>
      </g>
      <g id="Grupo_771" data-name="Grupo 771" transform="translate(13.36 -4.252)">
        <path id="Caminho_1299" data-name="Caminho 1299" d="M0,0Q-.537-.27-1.006-.512c.543.256.982.459.982.459L.016-.09l.053.027L.013-.012Z" fill="#160c00"/>
      </g>
      <g id="Grupo_772" data-name="Grupo 772" transform="translate(10.41 -5.865)">
        <path id="Caminho_1300" data-name="Caminho 1300" d="M0,0-.019-.01.009-.029l.019.01L0,0" fill="#1d1700"/>
      </g>
      <g id="Grupo_773" data-name="Grupo 773" transform="translate(10.352 -5.831)">
        <path id="Caminho_1301" data-name="Caminho 1301" d="M0,0-.016-.009C0-.02.021-.032.039-.044l.019.01L.021-.01,0,0" fill="#160c00"/>
      </g>
      <g id="Grupo_774" data-name="Grupo 774" transform="translate(15.529 -6.713)">
        <path id="Caminho_1302" data-name="Caminho 1302" d="M0,0-.095-.029-.043-.1l.1.028L0,0M-3.633-1.345l-.05-.022c.011-.026.023-.053.034-.08l.052.022-.036.08" fill="#1d1700"/>
      </g>
      <g id="Grupo_775" data-name="Grupo 775" transform="translate(13.336 -4.306)">
        <path id="Caminho_1303" data-name="Caminho 1303" d="M0,0S-.439-.2-.982-.458q-.291-.15-.555-.289c.491.221.99.433,1.407.625l.17.086L0,0M-2.981-1.524l0,0,.021-.01-.018.012" fill="#160c00"/>
      </g>
      <g id="Grupo_776" data-name="Grupo 776" transform="translate(15.434 -6.741)">
        <path id="Caminho_1304" data-name="Caminho 1304" d="M0,0-.1-.032l.052-.075.1.031L0,0M-3.507-1.3l-.031-.013L-3.5-1.4l.032.014c-.012.026-.025.052-.037.079" fill="#1d1700"/>
      </g>
      <g id="Grupo_777" data-name="Grupo 777" transform="translate(13.761 -4.247)">
        <path id="Caminho_1305" data-name="Caminho 1305" d="M0,0-.276-.12l.012-.012L0,0M4.317-1.815a15.852,15.852,0,0,1-2.6-.575l.053-.076A15.672,15.672,0,0,0,4.353-1.9l-.036.084" fill="#e1a027"/>
      </g>
      <g id="Grupo_778" data-name="Grupo 778" transform="translate(16.082 -3.287)">
        <path id="Caminho_1306" data-name="Caminho 1306" d="M0,0A6.3,6.3,0,0,1-1.749-.579l-.9-.449L-2.6-1.08l.276.12.611.3A6.141,6.141,0,0,0,.1-.072Q.053-.034,0,0" fill="#d47d21"/>
      </g>
      <g id="Grupo_779" data-name="Grupo 779" transform="translate(20.553 -4.982)">
        <path id="Caminho_1307" data-name="Caminho 1307" d="M0,0A5.113,5.113,0,0,0,.406-.483Q.448-.54.463-.564a4.354,4.354,0,0,0,.028-.585c0-.15,0-.295-.006-.4a3.271,3.271,0,0,1-2,.534,7.689,7.689,0,0,1-.814-.046c.013-.028.026-.056.038-.084a7.5,7.5,0,0,0,.776.043,3,3,0,0,0,2.086-.63A9.673,9.673,0,0,1,.551-.56C.441-.43.326-.3.206-.178.139-.119.071-.06,0,0" fill="#1d1700"/>
      </g>
      <g id="Grupo_780" data-name="Grupo 780" transform="translate(16.901 -3.218)">
        <path id="Caminho_1308" data-name="Caminho 1308" d="M0,0A4.933,4.933,0,0,1-.733-.055l.1-.075A4.864,4.864,0,0,0,0-.088H0a4.608,4.608,0,0,0,2.064-.49A4.868,4.868,0,0,1,.066,0H0M3.214-1.345a6.038,6.038,0,0,0,.438-.419c.07-.06.139-.119.206-.178a7.765,7.765,0,0,1-.644.6" fill="#160c00"/>
      </g>
      <g id="Grupo_781" data-name="Grupo 781" transform="translate(18.274 -3.424)">
        <path id="Caminho_1309" data-name="Caminho 1309" d="M0,0,.106-.039.139-.052a5.89,5.89,0,0,0,1.475-.8c.062-.044.123-.089.184-.135A5.259,5.259,0,0,1,0,0" fill="#2b2e34"/>
      </g>
      <g id="Grupo_782" data-name="Grupo 782" transform="translate(18.132 -6.056)">
        <path id="Caminho_1310" data-name="Caminho 1310" d="M0,0-.054-.006-.018-.09l.055.006L0,0" fill="#1d1700"/>
      </g>
      <g id="Grupo_783" data-name="Grupo 783" transform="translate(16.133 -3.279)">
        <path id="Caminho_1311" data-name="Caminho 1311" d="M0,0-.051-.008c.036-.023.07-.047.105-.072l.055.007C.073-.047.037-.023,0,0M2.03-.113c.082-.025.165-.053.251-.084l-.034.013-.106.039L2.03-.113M3.755-1c.1-.076.2-.155.308-.241l-.124.106c-.06.046-.122.09-.184.135" fill="#160c00"/>
      </g>
      <g id="Grupo_784" data-name="Grupo 784" transform="translate(18.413 -3.476)">
        <path id="Caminho_1312" data-name="Caminho 1312" d="M0,0A6.724,6.724,0,0,0,1.475-.8,5.908,5.908,0,0,1,0,0" fill="#2b2e34"/>
      </g>
      <g id="Grupo_785" data-name="Grupo 785" transform="translate(20.759 -5.16)">
        <path id="Caminho_1313" data-name="Caminho 1313" d="M0,0Q.18-.187.345-.382c0,.011,0,.02,0,.03S.311-.308.253-.231C.173-.155.088-.078,0,0M-2.539-.886-2.627-.9c.013-.028.025-.055.037-.083L-2.5-.97c-.012.028-.025.056-.038.084" fill="#1d1700"/>
      </g>
      <g id="Grupo_786" data-name="Grupo 786" transform="translate(16.968 -3.219)">
        <path id="Caminho_1314" data-name="Caminho 1314" d="M0,0A4.862,4.862,0,0,0,2-.577a5.519,5.519,0,0,0,1.146-.768,7.585,7.585,0,0,0,.643-.6c.089-.078.173-.156.254-.231a5.812,5.812,0,0,1-.817.873c-.1.086-.206.166-.308.241a6.7,6.7,0,0,1-1.475.8c-.085.031-.168.059-.25.085A4.687,4.687,0,0,1,0,0M-.8-.055l-.035,0c.037-.023.073-.047.109-.072l.023,0c-.032.025-.064.05-.1.074" fill="#160c00"/>
      </g>
      <g id="Grupo_787" data-name="Grupo 787" transform="translate(10.444 -5.88)">
        <path id="Caminho_1315" data-name="Caminho 1315" d="M0,0,0,0C.022-.021.048-.04.074-.059l.008,0C.054-.035.027-.017,0,0" fill="#e1a027"/>
      </g>
      <g id="Grupo_788" data-name="Grupo 788" transform="translate(8.717 -6.891)">
        <path id="Caminho_1316" data-name="Caminho 1316" d="M0,0-.035-.023.213-.71Z" fill="#dadbdc"/>
      </g>
      <g id="Grupo_789" data-name="Grupo 789" transform="translate(10.42 -5.894)">
        <path id="Caminho_1317" data-name="Caminho 1317" d="M0,0C-1.042-.577-1.569-.911-1.7-1l.213-.71.568-1.578s.963.5,2.348,1.1L1.392-2.1C.251-2.6-.605-3.026-.873-3.163l-.759,2.107c.049.031.129.082.245.153.207.127.527.318.976.572.149.085.312.176.49.275C.053-.037.027-.018,0,0" fill="#e1a027"/>
      </g>
      <g id="Grupo_790" data-name="Grupo 790" transform="translate(13.404 -4.403)">
        <path id="Caminho_1318" data-name="Caminho 1318" d="M0,0C-.639-.284-1.271-.588-1.9-.9c-.4-.213-.755-.4-1.064-.575.027-.017.055-.035.082-.055.716.395,1.667.9,2.892,1.517L0,0" fill="#1d1700"/>
      </g>
      <g id="Grupo_791" data-name="Grupo 791" transform="translate(13.359 -4.356)">
        <path id="Caminho_1319" data-name="Caminho 1319" d="M0,0-.153-.071C-.8-.4-1.359-.688-1.852-.949c.626.314,1.258.618,1.9.9L0,0" fill="#160c00"/>
      </g>
      <g id="Grupo_792" data-name="Grupo 792" transform="translate(15.278 -6.697)">
        <path id="Caminho_1320" data-name="Caminho 1320" d="M0,0C-.826-.255-1.644-.556-2.395-.855c-.348-.139-.681-.278-.993-.413l.037-.079A34.534,34.534,0,0,0,.053-.075L0,0" fill="#1d1700"/>
      </g>
      <g id="Grupo_793" data-name="Grupo 793" transform="translate(13.485 -4.367)">
        <path id="Caminho_1321" data-name="Caminho 1321" d="M0,0-.056-.025l.015-.013.053.027L0,0" fill="#1d1700"/>
      </g>
      <g id="Grupo_794" data-name="Grupo 794" transform="translate(13.429 -4.315)">
        <path id="Caminho_1322" data-name="Caminho 1322" d="M0,0-.053-.027,0-.077l.055.025L0,0" fill="#160c00"/>
      </g>
      <g id="Grupo_795" data-name="Grupo 795" transform="translate(10.438 -5.884)">
        <path id="Caminho_1323" data-name="Caminho 1323" d="M0,0-.019-.01C.008-.029.034-.047.06-.067l.02.011L0,0M5.037-.754l-.1-.028c.018-.025.036-.05.053-.076l.1.029-.053.075M1.421-2.094l-.047-.021c.011-.027.022-.054.034-.081l.049.022-.036.08" fill="#1d1700"/>
      </g>
      <g id="Grupo_796" data-name="Grupo 796" transform="translate(13.43 -4.392)">
        <path id="Caminho_1324" data-name="Caminho 1324" d="M0,0-.026-.012l.014-.015.027.013L0,0" fill="#1d1700"/>
      </g>
      <g id="Grupo_797" data-name="Grupo 797" transform="translate(13.376 -4.342)">
        <path id="Caminho_1325" data-name="Caminho 1325" d="M0,0-.17-.086l.153.072L.028-.062.054-.05,0,0" fill="#160c00"/>
      </g>
      <g id="Grupo_798" data-name="Grupo 798" transform="translate(15.381 -6.666)">
        <path id="Caminho_1326" data-name="Caminho 1326" d="M0,0-.1-.032-.05-.107l.1.032L0,0M-3.491-1.3l-.03-.013.036-.08.031.014c-.012.026-.025.052-.037.079" fill="#1d1700"/>
      </g>
      <g id="Grupo_799" data-name="Grupo 799" transform="translate(5.182 -13.384)">
        <path id="Caminho_1327" data-name="Caminho 1327" d="M0,0S-.085-.509.254-.649A.3.3,0,0,0,.461-.922l.1-.365.479.464.309-.531.314.531.419-.823.21.823.262-.583.419.583s0-.852.209-.823.262.823.262.823.524-1.273.839-.823a.6.6,0,0,1,0,.775.687.687,0,0,1,.628.188,1.151,1.151,0,0,1,.2.558A.3.3,0,0,0,5.2.061c.3.308,1.33,1.435.97,1.886-.419.524.733.084.314.644a1.336,1.336,0,0,1-1.1.508l.786.419H5.124l.524.524h-.51a.31.31,0,0,0-.268.464l.2.353s.429.546-.467.284c0,0,.581,1.467,0,1.309s.31.839-.318.786A.861.861,0,0,1,3.657,6.9a.315.315,0,0,0-.447-.062L3.141,6.9a.31.31,0,0,1-.5-.2l-.083-.612-.629.733.105-.953-.569.548a.31.31,0,0,1-.525-.2,1.833,1.833,0,0,1,.1-.865l-.53.21-.228-.7" fill="#2b2e34"/>
      </g>
      <g id="Grupo_800" data-name="Grupo 800" transform="translate(5.174 -13.383)">
        <path id="Caminho_1328" data-name="Caminho 1328" d="M0,0A.753.753,0,0,1,.1-.547C.2-.694.455-.71.44-.93L.532-1.3l.05-.03.02.012.484.458-.078.011.3-.534a.054.054,0,0,1,.094,0l.319.529-.1,0,.413-.826a.066.066,0,0,1,.088-.03,6.95,6.95,0,0,1,.251.865L2.237-.854l.258-.586a.077.077,0,0,1,.133-.013l.419.584-.139.045a2.7,2.7,0,0,1,.08-.688c.034-.1.073-.214.216-.208.141.04.161.141.2.21a2.512,2.512,0,0,1,.121.681L3.395-.85a4.268,4.268,0,0,1,.258-.5c.235-.413.62-.72.809-.054a.625.625,0,0,1-.136.56l-.04-.073a.668.668,0,0,1,.707.265,1.12,1.12,0,0,1,.14.362c.029.13.015.256.109.335C5.6.484,6.591,1.41,6.186,2c-.182.23.1.192.253.229.335.052.141.346.008.488a1.4,1.4,0,0,1-1.057.434l.03-.1.789.411a.062.062,0,0,1-.029.117l-1.047.009.05-.122.529.52a.078.078,0,0,1-.056.133l-.391,0c-.245-.04-.428.142-.306.356-.009-.014.221.382.188.328.372.528-.18.559-.559.422L4.7,5.108a3.931,3.931,0,0,1,.264.982.531.531,0,0,1-.083.387c-.1.122-.278.059-.376.05l0-.006c0,.146.1.32.12.5.039.531-.725.275-.934.038-.1-.1-.13-.167-.214-.185a.223.223,0,0,0-.226.061.417.417,0,0,1-.378.108c-.41-.105-.3-.637-.377-.946l.135.04-.636.727a.068.068,0,0,1-.119-.052l.114-.952.1.049c-.16.135-.489.493-.668.607-.689.22-.561-.8-.392-1.176l.041.043-.533.2L.5,5.569.286,4.86l0-.01L.3,4.855l.241.7L.514,5.54l.525-.219.043.017a1.951,1.951,0,0,0-.1.592c0,.192-.018.413.149.49.188.1.319-.048.449-.183L2,5.822a.059.059,0,0,1,.1.049L2,6.825l-.119-.051.622-.74a.075.075,0,0,1,.108-.009,5.047,5.047,0,0,1,.123.692.231.231,0,0,0,.4.079A.4.4,0,0,1,3.52,6.7c.124.025.216.15.289.227a.784.784,0,0,0,.534.22c.1-.012.1-.01.1-.11-.057-.293-.334-.811.232-.67.039,0,.058,0,.071-.016a.954.954,0,0,0-.018-.56,5.157,5.157,0,0,0-.193-.619.09.09,0,0,1,.051-.116c.151,0,.328.092.462.064.049-.014.054,0,.051-.049A.481.481,0,0,0,5.006,4.9l-.192-.34a.4.4,0,0,1,.237-.588c.165-.021.444-.007.605-.009L5.6,4.1l-.519-.528a.072.072,0,0,1,.051-.122l1.047.009-.029.116-.782-.426a.054.054,0,0,1,.03-.1,1.29,1.29,0,0,0,.982-.388c.1-.122.284-.316.041-.348-.115-.033-.314-.005-.37-.15a.282.282,0,0,1,.073-.2C6.3,1.773,6.2,1.5,6.1,1.283A4.992,4.992,0,0,0,5.2.091a.353.353,0,0,1-.1-.179A1.226,1.226,0,0,0,4.93-.609.588.588,0,0,0,4.3-.83L4.252-.866a.628.628,0,0,0,.116-.512c-.17-.563-.42-.239-.614.09A4.065,4.065,0,0,0,3.517-.8a.066.066,0,0,1-.086.036L3.391-.82c-.036-.237-.042-.589-.207-.754a.228.228,0,0,0-.054.106,2.569,2.569,0,0,0-.069.644.077.077,0,0,1-.139.044L2.5-1.363l.134-.013L2.37-.8a.073.073,0,0,1-.137-.011l-.2-.825.124.014L1.727-.8l-.079.026L1.623-.794l-.31-.534h.1L1.1-.8l-.078.011-.474-.47.07-.019L.5-.916c0,.237-.248.254-.373.393A.733.733,0,0,0,.017,0Z" fill="#2b2e34"/>
      </g>
      <g id="Grupo_801" data-name="Grupo 801" transform="translate(4.906 -13.637)">
        <path id="Caminho_1329" data-name="Caminho 1329" d="M0,0A2.012,2.012,0,0,0-2.1-.241a4.812,4.812,0,0,0-2.77,4.327,1.31,1.31,0,0,0,.576,1.257,3.059,3.059,0,0,0,.278.194,3.888,3.888,0,0,0,3.348.356A2.721,2.721,0,0,0,1.1,4.191,3.8,3.8,0,0,0,0,0" fill="#ffbc31"/>
      </g>
      <g id="Grupo_802" data-name="Grupo 802" transform="translate(4.912 -13.644)">
        <path id="Caminho_1330" data-name="Caminho 1330" d="M0,0A3.878,3.878,0,0,1,1.165,4.276C.635,5.853-1.32,6.46-2.817,6.092c-.942-.246-2.211-.85-2.086-2.006a6.435,6.435,0,0,1,.39-1.869C-3.925.54-1.706-1.307,0,0M-.011.014C-1.718-1.244-3.743.7-4.4,2.261A5.741,5.741,0,0,0-4.846,4.1c-.132,1.1,1.155,1.676,2.054,1.878A3.28,3.28,0,0,0,1,4.217,3.8,3.8,0,0,0-.011.014" fill="#fb9329"/>
      </g>
      <g id="Grupo_803" data-name="Grupo 803" transform="translate(1.562 -10.243)">
        <path id="Caminho_1331" data-name="Caminho 1331" d="M0,0A3.207,3.207,0,0,1,.811-1.74c.422-.472,1.034-.943,1.646-.674A1.809,1.809,0,0,1,3.609-.55a2.3,2.3,0,0,1-1.99,2.237,1.458,1.458,0,0,1-1-.144A1.408,1.408,0,0,1,0,0" fill="#2b2e34"/>
      </g>
      <g id="Grupo_804" data-name="Grupo 804" transform="translate(1.571 -10.241)">
        <path id="Caminho_1332" data-name="Caminho 1332" d="M0,0C-.185,1.409,1,1.966,2.191,1.418a2.187,2.187,0,0,0,.854-3.4,1.239,1.239,0,0,0-1.337-.36A3.235,3.235,0,0,0,0,0M-.017,0A3.108,3.108,0,0,1,1.655-2.48a1.373,1.373,0,0,1,1.432.452A2.283,2.283,0,0,1,3.192.859C2.146,2.257-.343,2.174-.017,0" fill="#2b2e34"/>
      </g>
      <g id="Grupo_805" data-name="Grupo 805" transform="translate(4.054 -13.536)">
        <path id="Caminho_1333" data-name="Caminho 1333" d="M0,0C.006-1.325-.948-2.312-1.779-3.227a2.1,2.1,0,0,1-.361-.449l.02,0A3.336,3.336,0,0,1-.485-2.158,3.507,3.507,0,0,1,.035,0Z" fill="#2b2e34"/>
      </g>
      <g id="Grupo_806" data-name="Grupo 806" transform="translate(2.888 -13.402)">
        <path id="Caminho_1334" data-name="Caminho 1334" d="M0,0C-.216-1.307-1.323-2.12-2.3-2.882a2.038,2.038,0,0,1-.431-.383l.018-.006A3.329,3.329,0,0,1-.841-2.045,3.49,3.49,0,0,1,.035,0Z" fill="#2b2e34"/>
      </g>
      <g id="Grupo_807" data-name="Grupo 807" transform="translate(8.125 -11.595)">
        <path id="Caminho_1335" data-name="Caminho 1335" d="M0,0S-.681.419,0,.524,20.8-2.305,17.342-10.74,2.6-1.344,0,0" fill="#d8f3f7"/>
      </g>
      <g id="Grupo_808" data-name="Grupo 808" transform="translate(8.116 -11.61)">
        <path id="Caminho_1336" data-name="Caminho 1336" d="M0,0C1.607-1.169,2.719-2.9,4.014-4.4,5.272-5.943,6.569-7.464,7.973-8.891c2.407-2.519,7.7-7.163,9.547-1.629C19.845-3.61,7.047-.34,2.136.311A11.911,11.911,0,0,1-.1.541C-.512.434-.231.135,0,0M.017.03c-1.21.907,1.78.236,2.1.191A53.549,53.549,0,0,0,10.71-2.236a16.127,16.127,0,0,0,5.142-2.916,5.6,5.6,0,0,0,1.63-2.426,4.537,4.537,0,0,0-1.9-5.071,3.318,3.318,0,0,0-2.748.325c-3.479,1.933-5.965,5.2-8.643,8.077C2.839-2.844,1.6-1.088.017.03" fill="#9de1e2"/>
      </g>
      <g id="Grupo_809" data-name="Grupo 809" transform="translate(2.16 -10.882)">
        <path id="Caminho_1337" data-name="Caminho 1337" d="M0,0S-.052.472.3.262s1.17-1.223.821-1.572S.14-.821,0,0" fill="#fff"/>
      </g>
      <g id="Grupo_810" data-name="Grupo 810" transform="translate(17.803 -12.158)">
        <path id="Caminho_1338" data-name="Caminho 1338" d="M0,0S2.252,1.488,2.264,3.734s.7.79.459-.437S-.658-1.154,0,0" fill="#fff"/>
      </g>
      <g id="Grupo_811" data-name="Grupo 811" transform="translate(14.055 -6.132)">
        <path id="Caminho_1339" data-name="Caminho 1339" d="M0,0C-1.093,1.812-.017,3.859,1.056,5.4c.164.228.328.459.478.707l-.026.024A5.333,5.333,0,0,1-.622,1.584,3.3,3.3,0,0,1-.028-.022Z" fill="#2b2e34"/>
      </g>
      <g id="Grupo_812" data-name="Grupo 812" transform="translate(7.385 -4.302)">
        <path id="Caminho_1340" data-name="Caminho 1340" d="M0,0C-.086-.676.792-.834,1.3-.852l-.1.159a2.269,2.269,0,0,1,.479-3l.026.024a5.127,5.127,0,0,0-.322.7A2.982,2.982,0,0,0,1.392-.8a.107.107,0,0,1-.05.15A3.393,3.393,0,0,0,.5-.561a.568.568,0,0,0-.464.553Z" fill="#2b2e34"/>
      </g>
      <g id="Grupo_813" data-name="Grupo 813" transform="translate(9.064 -3.25)">
        <path id="Caminho_1341" data-name="Caminho 1341" d="M0,0C.264-.416.724-.865,1.265-.727l-.111.1A17,17,0,0,1,.476-3.9C.49-4.244.423-4.763.714-5.007l.018.03A.875.875,0,0,0,.7-4.468c.075.542.19,1.077.26,1.622.091.73.223,1.458.366,2.182a.088.088,0,0,1-.071.1A1.189,1.189,0,0,0,.029.019Z" fill="#2b2e34"/>
      </g>
    </g>
  </g>
</svg>
