<svg xmlns="http://www.w3.org/2000/svg" xmlns:xlink="http://www.w3.org/1999/xlink" width="25.362" height="15.008" viewBox="0 0 25.362 15.008">
  <defs>
    <clipPath id="clip-path">
      <path id="Caminho_1944" data-name="Caminho 1944" d="M0,0H25.362V-15.008H0Z" fill="none"/>
    </clipPath>
  </defs>
  <g id="alfabeto_x_fim" transform="translate(0 15.008)">
    <g id="Grupo_1411" data-name="Grupo 1411" clip-path="url(#clip-path)">
      <g id="Grupo_1396" data-name="Grupo 1396" transform="translate(19.658 -11.817)">
        <path id="Caminho_1929" data-name="Caminho 1929" d="M0,0S2.348-1.82,4.5-.556s.758,5.208-.607,6.371A10.4,10.4,0,0,1-2.43,8.493l-.3-1.565A6.208,6.208,0,0,0,.152,6.776c1.062-.413,5.2-3.1,4.247-5.309A1.809,1.809,0,0,0,2.643.414,3.47,3.47,0,0,0-.118,2.293Z" fill="#916ab5"/>
      </g>
      <g id="Grupo_1397" data-name="Grupo 1397" transform="translate(19.652 -11.825)">
        <path id="Caminho_1930" data-name="Caminho 1930" d="M0,0A4.191,4.191,0,0,1,4.5-.628c2.209,1.348,1,4.9-.469,6.4A10.9,10.9,0,0,1-2.42,8.559l-.052.005-.01-.052L-2.8,6.949l-.021-.1a5.055,5.055,0,0,0,3.859-.641c1.4-.949,3.644-2.51,3.377-4.416C4.118.361,2.331.181,1.272.911A5.15,5.15,0,0,0-.12,2.3,3.794,3.794,0,0,1,2.149.438,1.917,1.917,0,0,1,4.578,1.753C4.984,3.912,1.947,6.019.253,6.844a5.713,5.713,0,0,1-2.992.164l.086-.086.286,1.568-.062-.048A10.149,10.149,0,0,0,3.958,5.7,5.975,5.975,0,0,0,5.519,1.4C5.51-.32,3.708-1.193,2.175-.884A6.315,6.315,0,0,0,0,0" fill="#341c55"/>
      </g>
      <g id="Grupo_1398" data-name="Grupo 1398" transform="translate(5.953 -2.057)">
        <path id="Caminho_1931" data-name="Caminho 1931" d="M0,0V1.264a12.013,12.013,0,0,0,8.344,0V-.253Z" fill="#916ab5"/>
      </g>
      <g id="Grupo_1399" data-name="Grupo 1399" transform="translate(5.963 -2.057)">
        <path id="Caminho_1932" data-name="Caminho 1932" d="M0,0C.032.421.046.843.061,1.264L.019,1.2a11.336,11.336,0,0,0,4.142.754,15.135,15.135,0,0,0,4.147-.762l-.05.072A14.011,14.011,0,0,1,8.344-.253c.032.523.056,1.047.069,1.57a10.533,10.533,0,0,1-4.252.733,11.689,11.689,0,0,1-4.2-.722L-.081,1.31A10.412,10.412,0,0,1,0,0" fill="#341c55"/>
      </g>
      <g id="Grupo_1400" data-name="Grupo 1400" transform="translate(0.037 -13.082)">
        <path id="Caminho_1933" data-name="Caminho 1933" d="M0,0S-.607,7.939,4.6,11.125c0,0,6.928,1.669,10.569,0S19.476,6.169,20.1,0Z" fill="#916ab5"/>
      </g>
      <g id="Grupo_1401" data-name="Grupo 1401" transform="translate(0.046 -13.081)">
        <path id="Caminho_1934" data-name="Caminho 1934" d="M0,0C-.064,4.068.994,8.74,4.615,11.087a22.961,22.961,0,0,0,8.724.487C19.206,10.532,19.42,4.757,20.1,0c-.445,4.908-.779,10.739-6.736,11.738a25.237,25.237,0,0,1-8.8-.576C.873,8.886-.306,4.052,0,0" fill="#341c55"/>
      </g>
      <g id="Grupo_1402" data-name="Grupo 1402" transform="translate(0.59 -8.294)">
        <path id="Caminho_1935" data-name="Caminho 1935" d="M0,0S7.629,4.539,18.747.222a14.125,14.125,0,0,1-1.14,3.3.834.834,0,0,1-.56.388c-1.681.337-9.214,1.674-15-.1A1.808,1.808,0,0,1,1.043,2.9,14.282,14.282,0,0,1,0,0" fill="#6cc247"/>
      </g>
      <g id="Grupo_1403" data-name="Grupo 1403" transform="translate(13.364 -1.521)">
        <path id="Caminho_1936" data-name="Caminho 1936" d="M0,0A5.6,5.6,0,0,0,2.452-2.548c.828-.124,1.46-.243,1.821-.315A.86.86,0,0,0,4.716-3.1c-.053.088-.107.174-.163.259A7.372,7.372,0,0,1,1.729-.486,9.064,9.064,0,0,1,0,0" fill="#805ea7"/>
      </g>
      <g id="Grupo_1404" data-name="Grupo 1404" transform="translate(17.916 -4.361)">
        <path id="Caminho_1937" data-name="Caminho 1937" d="M0,0C.056-.085.111-.171.163-.259L.176-.272C.122-.183.063-.092,0,0" fill="#4a3170"/>
      </g>
      <g id="Grupo_1405" data-name="Grupo 1405" transform="translate(18.972 -6.687)">
        <path id="Caminho_1938" data-name="Caminho 1938" d="M0,0C.23-.756.365-1.385.365-1.385q-1.311.508-2.556.86a16.107,16.107,0,0,0-.075-4.447s3.274-.505,3.429-1.356A56.458,56.458,0,0,1,.012-.023L0,0" fill="#805ea7"/>
      </g>
      <g id="Grupo_1406" data-name="Grupo 1406" transform="translate(15.816 -4.069)">
        <path id="Caminho_1939" data-name="Caminho 1939" d="M0,0A9.354,9.354,0,0,0,.965-3.142C1.794-3.379,2.647-3.663,3.521-4c0,0-.136.629-.365,1.386A12.932,12.932,0,0,1,2.277-.564l-.013.013a.852.852,0,0,1-.443.236C1.46-.243.827-.124,0,0" fill="#6c9375"/>
      </g>
      <g id="Grupo_1407" data-name="Grupo 1407" transform="translate(20.142 -13.082)">
        <path id="Caminho_1940" data-name="Caminho 1940" d="M0,0C0,1-4.5,1.821-10.052,1.821S-20.1,1-20.1,0s4.5-1.82,10.053-1.82S0-1,0,0" fill="#4d307a"/>
      </g>
      <g id="Grupo_1408" data-name="Grupo 1408" transform="translate(20.132 -13.082)">
        <path id="Caminho_1941" data-name="Caminho 1941" d="M0,0A.689.689,0,0,0-.382-.487a6.244,6.244,0,0,0-1.847-.631,49.4,49.4,0,0,0-13.037-.348c-6.325.658-6.333,2.275-.006,2.985C-13.089,1.848-.651,2.077,0,0M.019,0A.71.71,0,0,1-.368.509a6.594,6.594,0,0,1-1.849.659A41.725,41.725,0,0,1-15.28,1.59C-21.744.9-21.749-.9-15.286-1.643a42.566,42.566,0,0,1,13.069.474,6.565,6.565,0,0,1,1.849.66A.708.708,0,0,1,.019,0" fill="#341c55"/>
      </g>
      <g id="Grupo_1409" data-name="Grupo 1409" transform="translate(13.32 -1.309)">
        <path id="Caminho_1942" data-name="Caminho 1942" d="M0,0V.693L.883.451.914-.192S.358-.053,0,0" fill="#6c5197"/>
      </g>
      <g id="Grupo_1410" data-name="Grupo 1410" transform="translate(1.773 -11.412)">
        <path id="Caminho_1943" data-name="Caminho 1943" d="M0,0S-.944-.337-1.011,0-.371,5.147.91,6.586,2.259,8.159,2.259,8.428-.751,5.656-1.016,2.811-1.551-.472-1.281-.472.438-.236,0,0" fill="#d5bfde"/>
      </g>
    </g>
  </g>
</svg>
