<svg xmlns="http://www.w3.org/2000/svg" xmlns:xlink="http://www.w3.org/1999/xlink" width="22.273" height="29.146" viewBox="0 0 22.273 29.146">
  <defs>
    <clipPath id="clip-path">
      <path id="Caminho_1896" data-name="Caminho 1896" d="M0,0H22.273V-29.146H0Z" fill="none"/>
    </clipPath>
  </defs>
  <g id="alfabeto_u_fim" transform="translate(0 29.146)">
    <g id="Grupo_1363" data-name="Grupo 1363" clip-path="url(#clip-path)">
      <g id="Grupo_1306" data-name="Grupo 1306" transform="translate(12.515 -21.521)">
        <path id="Caminho_1839" data-name="Caminho 1839" d="M0,0A16.459,16.459,0,0,0,.827-4.532L-.179-3.56-1.264-7.307a3.054,3.054,0,0,1-4.26-.256s-.527,2.223.383,2.885A10.92,10.92,0,0,0-7.02-4.39s1.041,3.306,2.959,3.364L-5.675-.3S-1.6,1.935,0,0" fill="#265f2c"/>
      </g>
      <g id="Grupo_1307" data-name="Grupo 1307" transform="translate(12.522 -21.518)">
        <path id="Caminho_1840" data-name="Caminho 1840" d="M0,0C-1.425,1.606-4.094.53-5.717-.243l-.13-.068.136-.061L-4.1-1.1l.03.147c-1.694-.176-2.5-2.013-3.022-3.42l-.021-.061a8.486,8.486,0,0,1,1.961-.3l-.028.1A1.278,1.278,0,0,1-5.6-5.293,4.874,4.874,0,0,1-5.55-7.629a3.817,3.817,0,0,0,.961.766A3.055,3.055,0,0,0-1.3-7.344l.052-.041.019.063c.318,1.106.8,2.647,1.1,3.74l-.107-.029L.781-4.575.87-4.659A13.865,13.865,0,0,1,0,0M-.013-.007A15.646,15.646,0,0,0,.765-4.532l.093.037-1,.978-.076.074-.031-.1C-.562-4.631-1-6.2-1.313-7.3l.071.022a4,4,0,0,1-1.051.57,2.93,2.93,0,0,1-3.262-.838l.056-.015a6.169,6.169,0,0,0-.137,1.5A1.652,1.652,0,0,0-5-4.641,10.41,10.41,0,0,0-7-4.33l.039-.084C-6.422-2.98-5.526-1.043-3.742-1.09l-1.91.849.005-.129c1.585.79,4.182,1.884,5.634.363" fill="#1a321e"/>
      </g>
      <g id="Grupo_1308" data-name="Grupo 1308" transform="translate(12.226 -21.334)">
        <path id="Caminho_1841" data-name="Caminho 1841" d="M0,0A6.1,6.1,0,0,1-2.277-2.023a5.533,5.533,0,0,1-1.193-2.8l.015,0A9.394,9.394,0,0,0-1.748-1.467,18.2,18.2,0,0,0,0,0" fill="#1a321e"/>
      </g>
      <g id="Grupo_1309" data-name="Grupo 1309" transform="translate(8.503 -23.403)">
        <path id="Caminho_1842" data-name="Caminho 1842" d="M0,0C.41-.027.807-.016,1.207-.079A1.961,1.961,0,0,0,2.455-1.5l.014,0A1.373,1.373,0,0,1,1.613-.164,2.145,2.145,0,0,1,0,0" fill="#1a321e"/>
      </g>
      <g id="Grupo_1310" data-name="Grupo 1310" transform="translate(9.593 -21.965)">
        <path id="Caminho_1843" data-name="Caminho 1843" d="M0,0A6.271,6.271,0,0,0,.9-.022a2,2,0,0,0,.862-.792c.052-.059.131-.239.19-.247A1.347,1.347,0,0,1,.916.024.919.919,0,0,1,0,0" fill="#1a321e"/>
      </g>
      <g id="Grupo_1311" data-name="Grupo 1311" transform="translate(12.01 -20.667)">
        <path id="Caminho_1844" data-name="Caminho 1844" d="M0,0S2.618-5.315,3.976-6.129s1.435,0,1.435,0,.35,1.047-.232,1.164-1.2.232-1.2.232A10.709,10.709,0,0,0,.893.323" fill="#a15e22"/>
      </g>
      <g id="Grupo_1312" data-name="Grupo 1312" transform="translate(12.004 -20.671)">
        <path id="Caminho_1845" data-name="Caminho 1845" d="M0,0A23.169,23.169,0,0,1,3.535-5.777c.376-.411,1.674-1.248,1.928-.353a1.564,1.564,0,0,1,.055.968c-.145.34-.6.29-.895.38L4-4.656A12.889,12.889,0,0,0,.892.324,10.469,10.469,0,0,1,3.969-4.8L4.6-4.92c.2-.041.427-.074.618-.119s.249-.26.252-.46a2.177,2.177,0,0,0-.093-.623c-.062-.415-.579-.363-.876-.227-1.087.4-1.64,1.519-2.242,2.434C1.46-2.649.743-1.27,0,0" fill="#864d1e"/>
      </g>
      <g id="Grupo_1313" data-name="Grupo 1313" transform="translate(11.471 -9.606)">
        <path id="Caminho_1846" data-name="Caminho 1846" d="M0,0A2.842,2.842,0,0,1-3.045,2.582,2.842,2.842,0,0,1-6.09,0,2.842,2.842,0,0,1-3.045-2.582,2.842,2.842,0,0,1,0,0" fill="#573662"/>
      </g>
      <g id="Grupo_1314" data-name="Grupo 1314" transform="translate(11.456 -9.606)">
        <path id="Caminho_1847" data-name="Caminho 1847" d="M0,0C-.1-2.345-3.371-3.076-5.005-1.786a2.224,2.224,0,0,0-.057,3.644C-3.4,3.126-.1,2.331,0,0M.03,0C-.042,2.588-3.3,3.485-5.122,1.935a2.45,2.45,0,0,1-.057-3.943C-3.37-3.535,0-2.557.03,0" fill="#3e2447"/>
      </g>
      <g id="Grupo_1315" data-name="Grupo 1315" transform="translate(14.516 -8.648)">
        <path id="Caminho_1848" data-name="Caminho 1848" d="M0,0A2.842,2.842,0,0,1-3.045,2.582,2.842,2.842,0,0,1-6.09,0,2.842,2.842,0,0,1-3.045-2.582,2.842,2.842,0,0,1,0,0" fill="#573662"/>
      </g>
      <g id="Grupo_1316" data-name="Grupo 1316" transform="translate(14.501 -8.648)">
        <path id="Caminho_1849" data-name="Caminho 1849" d="M0,0C-.1-2.345-3.371-3.076-5.005-1.786a2.224,2.224,0,0,0-.057,3.644C-3.4,3.126-.1,2.331,0,0M.03,0C-.042,2.588-3.3,3.485-5.122,1.935a2.45,2.45,0,0,1-.057-3.943C-3.37-3.535,0-2.557.03,0" fill="#3e2447"/>
      </g>
      <g id="Grupo_1317" data-name="Grupo 1317" transform="translate(16.591 -5.872)">
        <path id="Caminho_1850" data-name="Caminho 1850" d="M0,0A2.686,2.686,0,0,1-2.793,2.565,2.686,2.686,0,0,1-5.586,0,2.686,2.686,0,0,1-2.793-2.565,2.686,2.686,0,0,1,0,0" fill="#7f6189"/>
      </g>
      <g id="Grupo_1318" data-name="Grupo 1318" transform="translate(16.576 -5.872)">
        <path id="Caminho_1851" data-name="Caminho 1851" d="M0,0C-.035-2.223-3.085-3.123-4.616-1.745a2.322,2.322,0,0,0-.061,3.559C-3.115,3.17-.034,2.22,0,0M.03,0A2.8,2.8,0,0,1-4.741,1.887,2.557,2.557,0,0,1-4.8-1.956,2.869,2.869,0,0,1,.03,0" fill="#3e2447"/>
      </g>
      <g id="Grupo_1319" data-name="Grupo 1319" transform="translate(7.146 -11.23)">
        <path id="Caminho_1852" data-name="Caminho 1852" d="M0,0A2.927,2.927,0,0,1-3.045,2.793,2.927,2.927,0,0,1-6.09,0,2.927,2.927,0,0,1-3.045-2.793,2.927,2.927,0,0,1,0,0" fill="#7f6189"/>
      </g>
      <g id="Grupo_1320" data-name="Grupo 1320" transform="translate(7.13 -11.23)">
        <path id="Caminho_1853" data-name="Caminho 1853" d="M0,0C-.035-2.43-3.367-3.42-5.042-1.909A2.532,2.532,0,0,0-5.1,1.979C-3.4,3.466-.034,2.427,0,0M.03,0a3.054,3.054,0,0,1-5.2,2.052,2.767,2.767,0,0,1-.061-4.173C-3.336-3.878.041-2.678.03,0" fill="#3e2447"/>
      </g>
      <g id="Grupo_1321" data-name="Grupo 1321" transform="translate(6.622 -7.025)">
        <path id="Caminho_1854" data-name="Caminho 1854" d="M0,0A2.842,2.842,0,0,1-3.045,2.582,2.842,2.842,0,0,1-6.09,0,2.842,2.842,0,0,1-3.045-2.582,2.842,2.842,0,0,1,0,0" fill="#7f6189"/>
      </g>
      <g id="Grupo_1322" data-name="Grupo 1322" transform="translate(6.607 -7.025)">
        <path id="Caminho_1855" data-name="Caminho 1855" d="M0,0C-.1-2.345-3.371-3.076-5.005-1.786a2.224,2.224,0,0,0-.057,3.644C-3.4,3.126-.1,2.331,0,0M.03,0C-.042,2.588-3.3,3.485-5.122,1.935a2.45,2.45,0,0,1-.057-3.943C-3.37-3.535,0-2.557.03,0" fill="#3e2447"/>
      </g>
      <g id="Grupo_1323" data-name="Grupo 1323" transform="translate(11.801 -13.498)">
        <path id="Caminho_1856" data-name="Caminho 1856" d="M0,0A2.994,2.994,0,0,1-3.162,2.793,2.994,2.994,0,0,1-6.323,0,2.994,2.994,0,0,1-3.162-2.793,2.994,2.994,0,0,1,0,0" fill="#573662"/>
      </g>
      <g id="Grupo_1324" data-name="Grupo 1324" transform="translate(11.786 -13.498)">
        <path id="Caminho_1857" data-name="Caminho 1857" d="M0,0C-.07-2.484-3.5-3.385-5.22-1.924A2.472,2.472,0,0,0-5.279,2C-3.527,3.431-.068,2.48,0,0M.03,0C-.018,2.742-3.415,3.793-5.341,2.07A2.7,2.7,0,0,1-5.4-2.141C-3.476-3.842.013-2.719.03,0" fill="#3e2447"/>
      </g>
      <g id="Grupo_1325" data-name="Grupo 1325" transform="translate(21.382 -13.54)">
        <path id="Caminho_1858" data-name="Caminho 1858" d="M0,0A2.636,2.636,0,0,1-2.793,2.444,2.636,2.636,0,0,1-5.586,0,2.636,2.636,0,0,1-2.793-2.444,2.636,2.636,0,0,1,0,0" fill="#573662"/>
      </g>
      <g id="Grupo_1326" data-name="Grupo 1326" transform="translate(21.367 -13.54)">
        <path id="Caminho_1859" data-name="Caminho 1859" d="M0,0C-.074-2.173-3.088-2.924-4.595-1.673a2.138,2.138,0,0,0-.059,3.418C-3.116,2.971-.074,2.169,0,0M.03,0C-.017,2.426-3.012,3.334-4.716,1.82a2.368,2.368,0,0,1-.058-3.712C-3.083-3.384.024-2.4.03,0" fill="#3e2447"/>
      </g>
      <g id="Grupo_1327" data-name="Grupo 1327" transform="translate(18.744 -10.547)">
        <path id="Caminho_1860" data-name="Caminho 1860" d="M0,0A2.686,2.686,0,0,1-2.793,2.565,2.686,2.686,0,0,1-5.586,0,2.686,2.686,0,0,1-2.793-2.565,2.686,2.686,0,0,1,0,0" fill="#7f6189"/>
      </g>
      <g id="Grupo_1328" data-name="Grupo 1328" transform="translate(18.729 -10.547)">
        <path id="Caminho_1861" data-name="Caminho 1861" d="M0,0C-.035-2.223-3.085-3.123-4.616-1.745a2.322,2.322,0,0,0-.061,3.559C-3.115,3.17-.034,2.22,0,0M.03,0A2.8,2.8,0,0,1-4.741,1.887,2.557,2.557,0,0,1-4.8-1.956,2.869,2.869,0,0,1,.03,0" fill="#3e2447"/>
      </g>
      <g id="Grupo_1329" data-name="Grupo 1329" transform="translate(14.768 -13.54)">
        <path id="Caminho_1862" data-name="Caminho 1862" d="M0,0A2.792,2.792,0,0,1-2.793,2.793,2.792,2.792,0,0,1-5.586,0,2.792,2.792,0,0,1-2.793-2.793,2.792,2.792,0,0,1,0,0" fill="#573662"/>
      </g>
      <g id="Grupo_1330" data-name="Grupo 1330" transform="translate(14.753 -13.54)">
        <path id="Caminho_1863" data-name="Caminho 1863" d="M0,0A2.766,2.766,0,0,0-4.653-1.875a2.687,2.687,0,0,0-.066,3.816A2.841,2.841,0,0,0,0,0M.03,0A2.828,2.828,0,0,1-2.778,2.918,2.99,2.99,0,0,1-4.853-2.075,2.84,2.84,0,0,1,.03,0" fill="#3e2447"/>
      </g>
      <g id="Grupo_1331" data-name="Grupo 1331" transform="translate(8.271 -20.183)">
        <path id="Caminho_1864" data-name="Caminho 1864" d="M0,0A2.792,2.792,0,0,1-2.793,2.793,2.792,2.792,0,0,1-5.586,0,2.792,2.792,0,0,1-2.793-2.793,2.792,2.792,0,0,1,0,0" fill="#573662"/>
      </g>
      <g id="Grupo_1332" data-name="Grupo 1332" transform="translate(8.255 -20.183)">
        <path id="Caminho_1865" data-name="Caminho 1865" d="M0,0A2.766,2.766,0,0,0-4.653-1.875a2.687,2.687,0,0,0-.066,3.816A2.841,2.841,0,0,0,0,0M.03,0A2.828,2.828,0,0,1-2.778,2.918,2.99,2.99,0,0,1-4.853-2.075,2.84,2.84,0,0,1,.03,0" fill="#3e2447"/>
      </g>
      <g id="Grupo_1333" data-name="Grupo 1333" transform="translate(5.668 -16.291)">
        <path id="Caminho_1866" data-name="Caminho 1866" d="M0,0A2.792,2.792,0,0,1-2.793,2.793,2.792,2.792,0,0,1-5.586,0,2.792,2.792,0,0,1-2.793-2.793,2.792,2.792,0,0,1,0,0" fill="#7f6189"/>
      </g>
      <g id="Grupo_1334" data-name="Grupo 1334" transform="translate(5.653 -16.291)">
        <path id="Caminho_1867" data-name="Caminho 1867" d="M0,0A2.766,2.766,0,0,0-4.653-1.875a2.687,2.687,0,0,0-.066,3.816A2.841,2.841,0,0,0,0,0M.03,0A2.828,2.828,0,0,1-2.778,2.918,2.99,2.99,0,0,1-4.853-2.075,2.84,2.84,0,0,1,.03,0" fill="#3e2447"/>
      </g>
      <g id="Grupo_1335" data-name="Grupo 1335" transform="translate(8.717 -16.333)">
        <path id="Caminho_1868" data-name="Caminho 1868" d="M0,0A2.792,2.792,0,0,1-2.793,2.793,2.792,2.792,0,0,1-5.586,0,2.792,2.792,0,0,1-2.793-2.793,2.792,2.792,0,0,1,0,0" fill="#7f6189"/>
      </g>
      <g id="Grupo_1336" data-name="Grupo 1336" transform="translate(8.702 -16.333)">
        <path id="Caminho_1869" data-name="Caminho 1869" d="M0,0A2.766,2.766,0,0,0-4.653-1.875a2.687,2.687,0,0,0-.066,3.816A2.841,2.841,0,0,0,0,0M.03,0A2.828,2.828,0,0,1-2.778,2.918,2.99,2.99,0,0,1-4.853-2.075,2.84,2.84,0,0,1,.03,0" fill="#3e2447"/>
      </g>
      <g id="Grupo_1337" data-name="Grupo 1337" transform="translate(18.007 -15.014)">
        <path id="Caminho_1870" data-name="Caminho 1870" d="M0,0A2.792,2.792,0,0,1-2.793,2.793,2.792,2.792,0,0,1-5.586,0,2.792,2.792,0,0,1-2.793-2.793,2.792,2.792,0,0,1,0,0" fill="#7f6189"/>
      </g>
      <g id="Grupo_1338" data-name="Grupo 1338" transform="translate(17.992 -15.014)">
        <path id="Caminho_1871" data-name="Caminho 1871" d="M0,0A2.766,2.766,0,0,0-4.653-1.875a2.687,2.687,0,0,0-.066,3.816A2.841,2.841,0,0,0,0,0M.03,0A2.828,2.828,0,0,1-2.778,2.918,2.99,2.99,0,0,1-4.853-2.075,2.84,2.84,0,0,1,.03,0" fill="#3e2447"/>
      </g>
      <g id="Grupo_1339" data-name="Grupo 1339" transform="translate(17.193 -13.273)">
        <path id="Caminho_1872" data-name="Caminho 1872" d="M0,0A4.913,4.913,0,0,0-1.644-4.233,2.583,2.583,0,0,1,.769-1.7,2.322,2.322,0,0,1,0,0" fill="#684973"/>
      </g>
      <g id="Grupo_1340" data-name="Grupo 1340" transform="translate(13.973 -18.223)">
        <path id="Caminho_1873" data-name="Caminho 1873" d="M0,0A2.994,2.994,0,0,1-3.162,2.793,2.994,2.994,0,0,1-6.323,0,2.994,2.994,0,0,1-3.162-2.793,2.994,2.994,0,0,1,0,0" fill="#7f6189"/>
      </g>
      <g id="Grupo_1341" data-name="Grupo 1341" transform="translate(13.958 -18.223)">
        <path id="Caminho_1874" data-name="Caminho 1874" d="M0,0C-.07-2.484-3.5-3.385-5.22-1.924A2.472,2.472,0,0,0-5.279,2C-3.527,3.431-.068,2.48,0,0M.03,0C-.018,2.742-3.415,3.793-5.341,2.07A2.7,2.7,0,0,1-5.4-2.141C-3.475-3.841.013-2.719.03,0" fill="#3e2447"/>
      </g>
      <g id="Grupo_1342" data-name="Grupo 1342" transform="translate(7.844 -2.921)">
        <path id="Caminho_1875" data-name="Caminho 1875" d="M0,0A2.792,2.792,0,0,1-2.793,2.793,2.792,2.792,0,0,1-5.586,0,2.792,2.792,0,0,1-2.793-2.793,2.792,2.792,0,0,1,0,0" fill="#7f6189"/>
      </g>
      <g id="Grupo_1343" data-name="Grupo 1343" transform="translate(7.829 -2.921)">
        <path id="Caminho_1876" data-name="Caminho 1876" d="M0,0A2.766,2.766,0,0,0-4.653-1.875a2.687,2.687,0,0,0-.066,3.816A2.841,2.841,0,0,0,0,0M.03,0A2.828,2.828,0,0,1-2.778,2.918,2.99,2.99,0,0,1-4.853-2.075,2.84,2.84,0,0,1,.03,0" fill="#3e2447"/>
      </g>
      <g id="Grupo_1344" data-name="Grupo 1344" transform="translate(13.158 -3.148)">
        <path id="Caminho_1877" data-name="Caminho 1877" d="M0,0A2.686,2.686,0,0,1-2.793,2.565,2.686,2.686,0,0,1-5.586,0,2.686,2.686,0,0,1-2.793-2.565,2.686,2.686,0,0,1,0,0" fill="#7f6189"/>
      </g>
      <g id="Grupo_1345" data-name="Grupo 1345" transform="translate(13.143 -3.148)">
        <path id="Caminho_1878" data-name="Caminho 1878" d="M0,0C-.035-2.223-3.085-3.123-4.616-1.745a2.321,2.321,0,0,0-.061,3.559C-3.115,3.17-.034,2.22,0,0M.03,0A2.8,2.8,0,0,1-4.741,1.887,2.557,2.557,0,0,1-4.8-1.956,2.869,2.869,0,0,1,.03,0" fill="#3e2447"/>
      </g>
      <g id="Grupo_1346" data-name="Grupo 1346" transform="translate(10.889 -6.867)">
        <path id="Caminho_1879" data-name="Caminho 1879" d="M0,0A2.842,2.842,0,0,1-3.045,2.582,2.842,2.842,0,0,1-6.09,0,2.842,2.842,0,0,1-3.045-2.582,2.842,2.842,0,0,1,0,0" fill="#7f6189"/>
      </g>
      <g id="Grupo_1347" data-name="Grupo 1347" transform="translate(10.874 -6.867)">
        <path id="Caminho_1880" data-name="Caminho 1880" d="M0,0C-.1-2.345-3.371-3.076-5.005-1.786a2.224,2.224,0,0,0-.057,3.644C-3.4,3.126-.1,2.331,0,0M.03,0C-.042,2.588-3.3,3.485-5.122,1.935a2.45,2.45,0,0,1-.057-3.943C-3.37-3.535,0-2.557.03,0" fill="#3e2447"/>
      </g>
      <g id="Grupo_1348" data-name="Grupo 1348" transform="translate(13.493 -22.086)">
        <path id="Caminho_1881" data-name="Caminho 1881" d="M0,0A1.741,1.741,0,0,1,1.019-1.133,14.132,14.132,0,0,1,4.863-2.306L4.032-1.181,7.889-.6A3.055,3.055,0,0,0,8.7,3.591s-2.133.815-2.909,0a10.838,10.838,0,0,1-.039,1.9S2.341,4.895,2.031,3l-.5,1.7S-.5,1.946,0,0" fill="#265f2c"/>
      </g>
      <g id="Grupo_1349" data-name="Grupo 1349" transform="translate(13.501 -22.084)">
        <path id="Caminho_1882" data-name="Caminho 1882" d="M0,0C-.315,1.689.654,3.313,1.567,4.66l-.1.018c.062-.228.528-1.829.577-2.008.188,1.778,2.229,2.4,3.72,2.749l-.082.052a2.659,2.659,0,0,0,.054-.457c.023-.528.007-1.06-.015-1.588.743.823,2.046.4,2.965.127l-.008.068A3.286,3.286,0,0,1,7.536,2.259,3.432,3.432,0,0,1,7.85-.62l.026.056-3.86-.555-.1-.015c.292-.408.593-.81.893-1.21l.055.1a11.021,11.021,0,0,0-2.7.676C1.328-1.248.245-.988,0,0M-.015,0C.222-1,1.313-1.276,2.139-1.626a9.98,9.98,0,0,1,2.848-.755c-.3.414-.6.828-.911,1.236l-.041-.1,3.852.608.054.009-.028.047A3.036,3.036,0,0,0,7.88,2.745a3.868,3.868,0,0,0,.893.857l-.063.023c-.921.289-2.135.7-2.969.007l.108-.046A8.42,8.42,0,0,1,5.8,5.574c-1.486-.327-3.446-.888-3.854-2.562l.147.009-.52,1.69-.036.117-.068-.1C.579,3.349-.34,1.693-.015,0" fill="#1a321e"/>
      </g>
      <g id="Grupo_1350" data-name="Grupo 1350" transform="translate(13.525 -22.168)">
        <path id="Caminho_1883" data-name="Caminho 1883" d="M0,0A13.967,13.967,0,0,0,1.925,1.219,9.4,9.4,0,0,0,5.651,1.8l0,.015a5.525,5.525,0,0,1-3.035-.267A5.8,5.8,0,0,1,0,0" fill="#1a321e"/>
      </g>
      <g id="Grupo_1351" data-name="Grupo 1351" transform="translate(16.621 -19.251)">
        <path id="Caminho_1884" data-name="Caminho 1884" d="M0,0A2.281,2.281,0,0,1-.33-1.591,1.375,1.375,0,0,1,.678-2.821l.007.014a1.958,1.958,0,0,0-.97,1.628c.047.4.233.8.285,1.179" fill="#1a321e"/>
      </g>
      <g id="Grupo_1352" data-name="Grupo 1352" transform="translate(14.917 -19.841)">
        <path id="Caminho_1885" data-name="Caminho 1885" d="M0,0A.989.989,0,0,1-.294-.872,1.347,1.347,0,0,1,.417-2.195c.01.058-.139.193-.177.257A2,2,0,0,0-.246-.873c.038.3.2.588.246.873" fill="#1a321e"/>
      </g>
      <g id="Grupo_1353" data-name="Grupo 1353" transform="translate(13.38 -15.962)">
        <path id="Caminho_1886" data-name="Caminho 1886" d="M0,0C-.241.241-.3.568-.142.73s.49.1.731-.141S.893.021.73-.142.241-.241,0,0" fill="#caacce"/>
      </g>
      <g id="Grupo_1354" data-name="Grupo 1354" transform="translate(9.631 -20.144)">
        <path id="Caminho_1887" data-name="Caminho 1887" d="M0,0C-.522.208-.9.492-.843.633S-.318.72.2.511s.9-.491.843-.633S.522-.208,0,0" fill="#caacce"/>
      </g>
      <g id="Grupo_1355" data-name="Grupo 1355" transform="translate(4.435 -17.979)">
        <path id="Caminho_1888" data-name="Caminho 1888" d="M0,0C-.442.347-.679.784-.528.976S.1,1.044.546.7s.679-.784.528-.976S.442-.347,0,0" fill="#caacce"/>
      </g>
      <g id="Grupo_1356" data-name="Grupo 1356" transform="translate(4.544 -22.206)">
        <path id="Caminho_1889" data-name="Caminho 1889" d="M0,0C-.522.208-.872.561-.781.789s.587.242,1.109.034S1.2.261,1.109.034.522-.208,0,0" fill="#caacce"/>
      </g>
      <g id="Grupo_1357" data-name="Grupo 1357" transform="translate(1.13 -17.773)">
        <path id="Caminho_1890" data-name="Caminho 1890" d="M0,0C-.4.4-.6.836-.459.981S.124.919.522.522s.6-.837.459-.981S.4-.4,0,0" fill="#caacce"/>
      </g>
      <g id="Grupo_1358" data-name="Grupo 1358" transform="translate(2.69 -12.832)">
        <path id="Caminho_1891" data-name="Caminho 1891" d="M0,0C-.487.281-.8.652-.7.828S-.118.92.369.639s.8-.652.7-.828S.487-.281,0,0" fill="#caacce"/>
      </g>
      <g id="Grupo_1359" data-name="Grupo 1359" transform="translate(12.194 -7.314)">
        <path id="Caminho_1892" data-name="Caminho 1892" d="M0,0C-.3.236-.444.558-.318.718s.472.1.773-.137S.9.023.773-.137.3-.236,0,0" fill="#caacce"/>
      </g>
      <g id="Grupo_1360" data-name="Grupo 1360" transform="translate(1.463 -8.012)">
        <path id="Caminho_1893" data-name="Caminho 1893" d="M0,0C-.27.291-.4.614-.279.722S.149.679.419.388.814-.226.7-.334.27-.291,0,0" fill="#caacce"/>
      </g>
      <g id="Grupo_1361" data-name="Grupo 1361" transform="translate(5.675 -7.904)">
        <path id="Caminho_1894" data-name="Caminho 1894" d="M0,0C-.352.513-.454,1.055-.228,1.21S.466,1.074.818.56,1.272-.5,1.046-.649.352-.513,0,0" fill="#caacce"/>
      </g>
      <g id="Grupo_1362" data-name="Grupo 1362" transform="translate(3.566 -4.533)">
        <path id="Caminho_1895" data-name="Caminho 1895" d="M0,0C-.327.3-.49.659-.363.8S.132.8.459.5.948-.163.822-.3.327-.3,0,0" fill="#caacce"/>
      </g>
    </g>
  </g>
</svg>
