<svg xmlns="http://www.w3.org/2000/svg" xmlns:xlink="http://www.w3.org/1999/xlink" width="25.193" height="24.333" viewBox="0 0 25.193 24.333">
  <defs>
    <clipPath id="clip-path">
      <path id="Caminho_1372" data-name="Caminho 1372" d="M.763-.737H25.956V-25.07H.763Z" fill="none"/>
    </clipPath>
  </defs>
  <g id="alfabeto_c_fim" transform="translate(-0.763 25.07)">
    <g id="Grupo_844" data-name="Grupo 844" clip-path="url(#clip-path)">
      <g id="Grupo_839" data-name="Grupo 839" transform="translate(13.441 -13.091)">
        <path id="Caminho_1367" data-name="Caminho 1367" d="M0,0-.141.483S.067.574,0,0" fill="#fff"/>
      </g>
      <g id="Grupo_840" data-name="Grupo 840" transform="translate(13.942 -14.904)">
        <path id="Caminho_1368" data-name="Caminho 1368" d="M0,0A.011.011,0,0,0,.022,0c.162-.973,1.851-9.85,9.564-8.814,7.456,1-6.719,19.46-9.211,22.627a.514.514,0,0,1-.776.037C-3.172,10.961-18.819-5.884-10.4-9.243-1.616-12.742-.123-1.123,0,0" fill="#f12c18"/>
      </g>
      <g id="Grupo_841" data-name="Grupo 841" transform="translate(13.909 -14.9)">
        <path id="Caminho_1369" data-name="Caminho 1369" d="M0,0C-.528-4.067-2.522-9.8-7.46-9.621c-1.613.133-3.6.645-4.533,2.05C-14.848-2.6-3.932,9.61-.576,13.381l.231.25c.036.038.082.091.11.117a.357.357,0,0,0,.524-.033l.427-.531C3.983,9.1,11.824-1.675,11.435-6.779,11.3-8.245,9.952-8.608,8.687-8.627A6.892,6.892,0,0,0,3.771-7.033,12.07,12.07,0,0,0,.112-.133L.1-.049C.087-.017.1.01.061.036A.044.044,0,0,1,0,0M.066-.007c0-.013-.019-.025-.03-.018S.023,0,.024-.018C.036-.094.063-.236.078-.313a13.1,13.1,0,0,1,3.5-6.939A7.132,7.132,0,0,1,5.945-8.707c2.016-.687,5.744-.993,6.075,1.848C12.579-1.786,4.054,9.024.94,13.359c0,0-.412.543-.412.543a.675.675,0,0,1-.986.086c-.079-.067-.286-.3-.366-.371-3.76-3.917-15-16-11.735-21.543,1.089-1.654,3.241-2.135,5.084-2.244C-2.315-10.2-.462-4.233.066-.007" fill="#d02819"/>
      </g>
      <g id="Grupo_842" data-name="Grupo 842" transform="translate(18.479 -21.885)">
        <path id="Caminho_1370" data-name="Caminho 1370" d="M0,0A5.471,5.471,0,0,1,4.767-.871,1.822,1.822,0,0,1,5.95.23C6.141.783,6.116,2.8,5.857,2.8c0,0,.248-5.415-5.857-2.8" fill="#fff"/>
      </g>
      <g id="Grupo_843" data-name="Grupo 843" transform="translate(14.523 -1.263)">
        <path id="Caminho_1371" data-name="Caminho 1371" d="M0,0V.026S-.266.69-.639.282s-2.036-2.2-2.036-2.2S-8.042-7.745-8.468-9.075c0,0-10.208-13.544-.613-14.019,0,0-3.583,1.426-1.773,5.68,0,0,.357,2.24,10.854,17.414" fill="#d02819"/>
      </g>
    </g>
  </g>
</svg>
