<svg xmlns="http://www.w3.org/2000/svg" xmlns:xlink="http://www.w3.org/1999/xlink" width="33.377" height="26.836" viewBox="0 0 33.377 26.836">
  <defs>
    <clipPath id="clip-path">
      <path id="Caminho_1537" data-name="Caminho 1537" d="M0,0H33.377V-26.836H0Z" fill="none"/>
    </clipPath>
  </defs>
  <g id="alfabeto_h_fim" transform="translate(0 26.836)">
    <g id="Grupo_1009" data-name="Grupo 1009" clip-path="url(#clip-path)">
      <g id="Grupo_981" data-name="Grupo 981" transform="translate(15.035 -25.238)">
        <path id="Caminho_1509" data-name="Caminho 1509" d="M0,0C0,.3-.457.543-1.021.543S-2.042.3-2.042,0s.457-.543,1.021-.543S0-.3,0,0" fill="#1ec1d2"/>
      </g>
      <g id="Grupo_982" data-name="Grupo 982" transform="translate(15.026 -25.238)">
        <path id="Caminho_1510" data-name="Caminho 1510" d="M0,0C-.066-.627-1.882-.589-1.985,0c.026.424.632.5.973.47S-.076.439,0,0M.017,0C-.133.694-1.11.72-1.637.459-1.822.374-2.05.257-2.081,0c.076-.855,1.992-.838,2.1,0" fill="#1c80aa"/>
      </g>
      <g id="Grupo_983" data-name="Grupo 983" transform="translate(14.479 -21.142)">
        <path id="Caminho_1511" data-name="Caminho 1511" d="M0,0H-.93V-3.788a.242.242,0,0,1,.243-.243h.444A.243.243,0,0,1,0-3.788Z" fill="#1ec1d2"/>
      </g>
      <g id="Grupo_984" data-name="Grupo 984" transform="translate(14.473 -21.148)">
        <path id="Caminho_1512" data-name="Caminho 1512" d="M0,0C-.069-1.309-.095-2.538-.077-3.819A.173.173,0,0,0-.2-3.95c-.06-.011-.174-.008-.259-.013-.161,0-.361-.054-.415.137-.075,1.271.08,2.559.008,3.832L-.924-.052c.3.01.6.032.924.052M.012.012C-.3.034-.642.057-.981.066c-.025-.752-.032-1.5.012-2.256.031-.559.009-1.093.007-1.657.037-.239.321-.246.5-.241a2.3,2.3,0,0,1,.289,0c.369.078.233.553.263.809C.107-2.194.068-1.042.012.012" fill="#1c80aa"/>
      </g>
      <g id="Grupo_985" data-name="Grupo 985" transform="translate(14.94 -21.486)">
        <path id="Caminho_1513" data-name="Caminho 1513" d="M0,0H-1.853a.512.512,0,0,0-.512.512V1.775H.512V.512A.512.512,0,0,0,0,0" fill="#1ec1d2"/>
      </g>
      <g id="Grupo_986" data-name="Grupo 986" transform="translate(14.94 -21.495)">
        <path id="Caminho_1514" data-name="Caminho 1514" d="M0,0A.535.535,0,0,1,.452.237.915.915,0,0,1,.565.75C.589,1.094.6,1.439.6,1.783v.088c-.988.021-1.977-.024-2.966-.056H-2.4V1.783C-2.353,1.277-2.47.8-2.382.294c.127-.385.591-.383.912-.356C-.98-.047-.49,0,0,0M0,.018C-.634.023-1.321.085-1.943.094a.472.472,0,0,0-.323.25,6.793,6.793,0,0,0-.068,1.439l-.031-.031c.959-.031,1.918-.075,2.877-.058l-.089.089c0-.344.013-.689.036-1.033C.522.39.411.039,0,.018" fill="#1c80aa"/>
      </g>
      <g id="Grupo_987" data-name="Grupo 987" transform="translate(8.361 -6.929)">
        <path id="Caminho_1515" data-name="Caminho 1515" d="M0,0A4.132,4.132,0,0,0-.963,1.688l-2.309.793s-1.1-.862-1.378,0-.069,1.55,1.171,1.206S5.032.379,5.032.379L2.674.241l-.341.4-2.366.735A4.67,4.67,0,0,1,.863,0" fill="#1ec1d2" stroke="#1c80aa" stroke-width="0.175"/>
      </g>
      <g id="Grupo_988" data-name="Grupo 988" transform="translate(26.625 -15.164)">
        <path id="Caminho_1516" data-name="Caminho 1516" d="M0,0A1.669,1.669,0,0,0,.861-.93C1.206-1.688,2-4.066,2.584-4.066s.379,1.792.379,1.792S2.654,1,1.5,1.723-6.306,6.65-7.546,7.029c-1.175.359-8.344,4.426-13.109-.5a4.1,4.1,0,0,1-1.1-2.126c-.41-2.279-.33-7.151,7.073-9.126A8.509,8.509,0,0,1-7.849-3.029,6.309,6.309,0,0,1-6.8-1.857,12.175,12.175,0,0,0-5.375-.1C-4.824.345-3.721,1.93,0,0" fill="#142947"/>
      </g>
      <g id="Grupo_989" data-name="Grupo 989" transform="translate(26.63 -15.152)">
        <path id="Caminho_1517" data-name="Caminho 1517" d="M0,0C-1.5.774-3.564,1.533-5.022.269A7.665,7.665,0,0,1-5.8-.462,27.489,27.489,0,0,0-7.835-2.9,8.016,8.016,0,0,0-12.65-4.724a7.721,7.721,0,0,0-2.075.146,11.133,11.133,0,0,0-5.418,3.042,7.043,7.043,0,0,0-1.52,5.877,4.008,4.008,0,0,0,.847,1.874c2.354,2.842,6.4,3.183,9.729,2.086A42.109,42.109,0,0,0-7.133,6.76c2.816-1.473,5.486-3.263,8.2-4.912A2.539,2.539,0,0,0,2.312.276a11.251,11.251,0,0,0,.622-3.095c.052-.647-.139-1.85-.833-.8A11.655,11.655,0,0,0,1.192-1.7C.932-1.066.692-.293,0,0M-.01-.024C.669-.32.9-1.084,1.152-1.719,1.374-2.171,2.246-4.91,2.9-3.885a6.587,6.587,0,0,1-.121,3.19A3.659,3.659,0,0,1,1.187,2.031c-2.705,1.7-5.4,3.426-8.256,4.866-.568.249-1.4.544-1.975.8-3.927,1.638-8.837,2.165-11.9-1.375a5.62,5.62,0,0,1-1.025-4.1,7.073,7.073,0,0,1,3.258-5.353c3.4-2.289,7.76-2.719,11,.085a26.645,26.645,0,0,1,2,2.5,7.608,7.608,0,0,0,.754.737C-3.545,1.48-1.5.723-.01-.024" fill="#142232"/>
      </g>
      <g id="Grupo_990" data-name="Grupo 990" transform="translate(17.39 -10.409)">
        <path id="Caminho_1518" data-name="Caminho 1518" d="M0,0S-.259-11.952-8.063-8.786c0,0-5.439,2.409-4.555,7.921a2.778,2.778,0,0,0,1.544,2.084C-9.489,1.959-6.2,2.494,0,0" fill="#a1e6fa"/>
      </g>
      <g id="Grupo_991" data-name="Grupo 991" transform="translate(17.402 -10.401)">
        <path id="Caminho_1519" data-name="Caminho 1519" d="M0,0C-2.949,1.234-6.137,2.277-9.375,1.849c-1.711-.208-3.308-1.115-3.414-3a6.711,6.711,0,0,1,1.118-4.634A8.052,8.052,0,0,1-5.665-9.4C-1.145-9.407-.093-3.557,0,0M-.022-.014c-.3-2.958-.871-6.7-3.429-8.567C-5.509-9.966-8.268-9.025-9.982-7.49a6.958,6.958,0,0,0-2.562,6.309c.2,2.7,3.446,2.983,5.576,2.847A25.041,25.041,0,0,0-.022-.014" fill="#80d2e5"/>
      </g>
      <g id="Grupo_992" data-name="Grupo 992" transform="translate(5.97 -8.633)">
        <path id="Caminho_1520" data-name="Caminho 1520" d="M0,0S6.339,2.48,10.939.361s11.308-6.2,11.308-6.2l.121.862S11.847,2.939,4.725,2.348A6.948,6.948,0,0,1,0,0" fill="#142232"/>
      </g>
      <g id="Grupo_993" data-name="Grupo 993" transform="translate(28.061 -15.078)">
        <path id="Caminho_1521" data-name="Caminho 1521" d="M0,0S-2.332-2.566-1.471-3.29.653-1.1.653-1.1" fill="#b7bfbe"/>
      </g>
      <g id="Grupo_994" data-name="Grupo 994" transform="translate(28.051 -15.069)">
        <path id="Caminho_1522" data-name="Caminho 1522" d="M0,0A4.975,4.975,0,0,1-1.547-2.216a1.467,1.467,0,0,1-.12-.918c.367-.847,1.255-.12,1.562.372A4.645,4.645,0,0,1,.65-1.105C.328-1.616.021-2.13-.331-2.6c-.245-.3-.509-.731-.919-.7-.454.116-.388.693-.219,1.049C-1.071-1.458-.379-.767,0,0" fill="#97a2a0"/>
      </g>
      <g id="Grupo_995" data-name="Grupo 995" transform="translate(29.929 -15.078)">
        <path id="Caminho_1523" data-name="Caminho 1523" d="M0,0S3.346-.637,3.381.741s-3.536,0-3.536,0" fill="#b7bfbe"/>
      </g>
      <g id="Grupo_996" data-name="Grupo 996" transform="translate(29.926 -15.091)">
        <path id="Caminho_1524" data-name="Caminho 1524" d="M0,0C1.042-.3,2.446-.486,3.294.344a.677.677,0,0,1-.1.971,2.247,2.247,0,0,1-1.508.109A7.1,7.1,0,0,1-.157.767c.595.058,1.275.307,1.894.381.475.058,1.433.3,1.57-.326A.653.653,0,0,0,2.862.114,13.265,13.265,0,0,0,0,0" fill="#97a2a0"/>
      </g>
      <g id="Grupo_997" data-name="Grupo 997" transform="translate(29.279 -13.612)">
        <path id="Caminho_1525" data-name="Caminho 1525" d="M0,0S-.481,4.065-1.723,3.41-.942,0-.942,0" fill="#b7bfbe"/>
      </g>
      <g id="Grupo_998" data-name="Grupo 998" transform="translate(29.292 -13.61)">
        <path id="Caminho_1526" data-name="Caminho 1526" d="M0,0A5.621,5.621,0,0,1-.752,2.934c-.177.288-.416.652-.812.607-.875-.13-.773-1.233-.5-1.833A5.971,5.971,0,0,1-.965-.009c-.225.581-.643,1.2-.841,1.818a1.577,1.577,0,0,0-.085,1.338c.369.495.84.217,1.065-.254A29.413,29.413,0,0,0-.026,0L0,0" fill="#97a2a0"/>
      </g>
      <g id="Grupo_999" data-name="Grupo 999" transform="translate(29.875 -14.663)">
        <path id="Caminho_1527" data-name="Caminho 1527" d="M0,0C-.184.807-.74,1.368-1.241,1.254S-2,.392-1.814-.415s.74-1.368,1.241-1.253S.184-.807,0,0" fill="#1ec1d2"/>
      </g>
      <g id="Grupo_1000" data-name="Grupo 1000" transform="translate(29.866 -14.665)">
        <path id="Caminho_1528" data-name="Caminho 1528" d="M0,0C.285-1.815-1.219-2.209-1.759-.4-2.2,1.471-.5,1.779,0,0M.017,0A1.878,1.878,0,0,1-.729,1.249a.689.689,0,0,1-.931-.235C-2.2.148-1.808-1.869-.544-1.755.191-1.536.158-.594.017,0" fill="#1c80aa"/>
      </g>
      <g id="Grupo_1001" data-name="Grupo 1001" transform="translate(29.48 -14.805)">
        <path id="Caminho_1529" data-name="Caminho 1529" d="M0,0C-.092.4-.331.689-.535.642s-.294-.409-.2-.811S-.406-.857-.2-.811.092-.4,0,0" fill="#142947"/>
      </g>
      <g id="Grupo_1002" data-name="Grupo 1002" transform="translate(29.472 -14.807)">
        <path id="Caminho_1530" data-name="Caminho 1530" d="M0,0C.053-.219-.014-.637-.215-.718-.619-.7-.986.421-.51.573-.282.559-.052.232,0,0M.017,0C-.05.286-.145.777-.542.715-.753.632-.762.43-.783.287A2.058,2.058,0,0,1-.775-.177C-.615-1.252.371-1.083.017,0" fill="#142232"/>
      </g>
      <g id="Grupo_1003" data-name="Grupo 1003" transform="translate(15.035 -25.238)">
        <path id="Caminho_1531" data-name="Caminho 1531" d="M0,0S10.97-3.088,12.9-.332,1.021,1.331,0,0" fill="#b7bfbe"/>
      </g>
      <g id="Grupo_1004" data-name="Grupo 1004" transform="translate(15.047 -25.234)">
        <path id="Caminho_1532" data-name="Caminho 1532" d="M0,0A8.319,8.319,0,0,0,3.267.881a29.314,29.314,0,0,0,8.54.087c1.123-.24,1.685-.841.6-1.7C9.923-2.4,2.979-.565,0,0M-.025-.008A27.861,27.861,0,0,1,10.2-1.479a4.568,4.568,0,0,1,2.45.8,1.331,1.331,0,0,1,.489.744c.069,1.138-2.184,1.273-3,1.374a29.222,29.222,0,0,1-6.9-.356A13.64,13.64,0,0,1,.717.453,1.723,1.723,0,0,1-.025-.008" fill="#97a2a0"/>
      </g>
      <g id="Grupo_1005" data-name="Grupo 1005" transform="translate(12.993 -25.238)">
        <path id="Caminho_1533" data-name="Caminho 1533" d="M0,0S-11.246-3.459-12.8,0-.5.952,0,0" fill="#b7bfbe"/>
      </g>
      <g id="Grupo_1006" data-name="Grupo 1006" transform="translate(13.005 -25.243)">
        <path id="Caminho_1534" data-name="Caminho 1534" d="M0,0A3.681,3.681,0,0,1-1.569.739a29.836,29.836,0,0,1-5.1,1,21.1,21.1,0,0,1-3.475.141,4.57,4.57,0,0,1-2.53-.683.9.9,0,0,1-.309-.846c.28-1.245,1.64-1.684,2.749-1.842A24.294,24.294,0,0,1,0,0M-.024.01c-3-.653-9.124-2.343-11.834-.917-.66.345-1.418,1.358-.709,1.978,1.868,1.2,7.04.262,9.276-.1A22.27,22.27,0,0,0-.775.378,2.022,2.022,0,0,0-.024.01" fill="#97a2a0"/>
      </g>
      <g id="Grupo_1007" data-name="Grupo 1007" transform="translate(14.479 -7.48)">
        <path id="Caminho_1535" data-name="Caminho 1535" d="M0,0A.556.556,0,0,0-.741.551s1.068.423,2.1,3.778l-4.169,1.8s-1.344-.792-1.551.448,1.344.689,1.344.689L10.561.861s.344-.844-.31-.887A.477.477,0,0,0,9.7.551L7.012,1.93s-.483-3.1-2.274-3.825c0,0-1.034-.207-.586.517A5.984,5.984,0,0,1,6.288,2.067L2.158,3.928S.982.655,0,0" fill="#1ec1d2"/>
      </g>
      <g id="Grupo_1008" data-name="Grupo 1008" transform="translate(14.479 -7.48)">
        <path id="Caminho_1536" data-name="Caminho 1536" d="M0,0A.556.556,0,0,0-.741.551s1.068.423,2.1,3.778l-4.169,1.8s-1.344-.792-1.551.448,1.344.689,1.344.689L10.561.861s.344-.844-.31-.887A.477.477,0,0,0,9.7.551L7.012,1.93s-.483-3.1-2.274-3.825c0,0-1.034-.207-.586.517A5.984,5.984,0,0,1,6.288,2.067L2.158,3.928S.982.655,0,0Z" fill="none" stroke="#1c80aa" stroke-width="0.175"/>
      </g>
    </g>
  </g>
</svg>
