<svg xmlns="http://www.w3.org/2000/svg" xmlns:xlink="http://www.w3.org/1999/xlink" width="34.141" height="22.747" viewBox="0 0 34.141 22.747">
  <defs>
    <clipPath id="clip-path">
      <path id="Caminho_1449" data-name="Caminho 1449" d="M0,0H34.141V-22.747H0Z" fill="none"/>
    </clipPath>
  </defs>
  <g id="alfabeto_e_fim" transform="translate(0 22.747)">
    <g id="Grupo_921" data-name="Grupo 921" clip-path="url(#clip-path)">
      <g id="Grupo_862" data-name="Grupo 862" transform="translate(20.693 -21.587)">
        <path id="Caminho_1390" data-name="Caminho 1390" d="M0,0S5.1-3.034,8.79.861s5.17,5.282,4.446,6.9-2.068,3.246-3.136,3.31c0,0-2.689,3.3-4.826,3.338,0,0-2.206,2.346-3.861.932A3.629,3.629,0,0,1,0,12.264Z" fill="#a9b8b6"/>
      </g>
      <g id="Grupo_863" data-name="Grupo 863" transform="translate(20.7 -21.583)">
        <path id="Caminho_1391" data-name="Caminho 1391" d="M0,0C.041,3.618.078,8.7.083,12.259A3.663,3.663,0,0,0,1.806,15.5c1.256.634,2.557-.378,3.459-1.171,1.982-.2,3.53-1.9,4.807-3.3,1.359-.072,3.415-2.945,3.282-4.232a5.2,5.2,0,0,0-1.386-2.421c-.62-.72-1.279-1.407-1.936-2.1S8.73.879,8.026.258C5.756-1.6,2.467-1.313,0,0M-.015-.009C2.453-1.434,5.793-1.715,8.116.145a26.7,26.7,0,0,1,2.018,2.034c.651.7,1.3,1.391,1.919,2.121a5.241,5.241,0,0,1,1.381,2.486c.153,1.279-2.075,4.307-3.311,4.3C8.831,12.522,7.3,14.256,5.268,14.478c-.626.753-2.327,1.859-3.545,1.176A3.791,3.791,0,0,1-.1,12.247C-.114,8.755-.036,3.579-.015-.009" fill="#545d5d"/>
      </g>
      <g id="Grupo_864" data-name="Grupo 864" transform="translate(21.434 -5.795)">
        <path id="Caminho_1392" data-name="Caminho 1392" d="M0,0-.05-1.074a3.951,3.951,0,0,0,.923.865Z" fill="#a2a8a6"/>
      </g>
      <g id="Grupo_865" data-name="Grupo 865" transform="translate(23.338 -5.886)">
        <path id="Caminho_1393" data-name="Caminho 1393" d="M0,0A1.813,1.813,0,0,1-.831-.2,3.762,3.762,0,0,1-1.97-1.326l-.036-.759c.125.037.251.074.376.1a.076.076,0,0,0,.021,0,.09.09,0,0,0,.086-.068,4.749,4.749,0,0,0,.007-1.922,6.638,6.638,0,0,0,1.709-4.6,6.78,6.78,0,0,0-.04-.752,2.225,2.225,0,0,0-.07-.39,2.285,2.285,0,0,1-.051-.43c-.041-.641-.047-1.748-.152-2.356a5.252,5.252,0,0,0-1.32-2.407,5.393,5.393,0,0,0-.857-.743,6.952,6.952,0,0,1,2.513,2A3.733,3.733,0,0,1,3.11-15.211c3.631,0,7.1,6.126,7.1,6.126C8.394-11.846,6.4-12.327,5.23-12.327a3.327,3.327,0,0,0-1.016.138C-.819-11.155.63-3.018.836-2.225,1.015-1.54,1.578-.8,1.142-.3A2.58,2.58,0,0,1,0,0" fill="#798786"/>
      </g>
      <g id="Grupo_866" data-name="Grupo 866" transform="translate(23.413 -5.774)">
        <path id="Caminho_1394" data-name="Caminho 1394" d="M0,0A1.876,1.876,0,0,1-.95-.267l-.156.037A3.955,3.955,0,0,1-2.029-1.1l-.017-.342A3.777,3.777,0,0,0-.906-.312a1.813,1.813,0,0,0,.831.2,2.58,2.58,0,0,0,1.142-.3A.983.983,0,0,1,.784-.2,1.636,1.636,0,0,1,0,0" fill="#4e5858"/>
      </g>
      <g id="Grupo_867" data-name="Grupo 867" transform="translate(30.779 -10.517)">
        <path id="Caminho_1395" data-name="Caminho 1395" d="M0,0A17.916,17.916,0,0,0-.842-2.09,5.1,5.1,0,0,0-3.986-3.923v-.026A3.228,3.228,0,0,1-1-2.449,3.524,3.524,0,0,1,0,0" fill="#545d5d"/>
      </g>
      <g id="Grupo_868" data-name="Grupo 868" transform="translate(25.954 -7.181)">
        <path id="Caminho_1396" data-name="Caminho 1396" d="M0,0A9.01,9.01,0,0,1-.164-1.482a7.753,7.753,0,0,0-1.21-2.126l.017-.02A2.693,2.693,0,0,1-.081-1.5,2.121,2.121,0,0,1,.026,0Z" fill="#545d5d"/>
      </g>
      <g id="Grupo_869" data-name="Grupo 869" transform="translate(25.977 -20.679)">
        <path id="Caminho_1397" data-name="Caminho 1397" d="M0,0A6.189,6.189,0,0,0-1.591.94a5.3,5.3,0,0,0-.882,2.287c-.036.2-.075.412-.132.621h-.027A3.405,3.405,0,0,1-1.654.883,1.965,1.965,0,0,1,0-.026Z" fill="#545d5d"/>
      </g>
      <g id="Grupo_870" data-name="Grupo 870" transform="translate(13.446 -21.577)">
        <path id="Caminho_1398" data-name="Caminho 1398" d="M0,0S-5.1-3.034-8.79.861s-5.17,5.282-4.446,6.9,2.068,3.246,3.136,3.31c0,0,2.689,3.3,4.826,3.338,0,0,2.206,2.346,3.861.932A3.629,3.629,0,0,0,0,12.264Z" fill="#a9b8b6"/>
      </g>
      <g id="Grupo_871" data-name="Grupo 871" transform="translate(13.453 -21.581)">
        <path id="Caminho_1399" data-name="Caminho 1399" d="M0,0C.017,3.631.095,8.687.083,12.268a3.813,3.813,0,0,1-1.821,3.4c-1.292.644-2.7-.3-3.6-1.2l.053.024a3.494,3.494,0,0,1-1.457-.436,12.343,12.343,0,0,1-3.4-2.952c-.833-.055-1.67-.991-2.193-1.708a4.6,4.6,0,0,1-1.117-2.6,5.238,5.238,0,0,1,1.381-2.485c.616-.73,1.268-1.426,1.918-2.121A26.907,26.907,0,0,1-8.131.153C-5.808-1.706-2.468-1.426,0,0M-.015.009C-2.482-1.3-5.772-1.594-8.041.267c-.7.621-1.342,1.336-2.006,2.017s-1.316,1.377-1.936,2.1A5.187,5.187,0,0,0-13.369,6.8c-.135,1.285,1.926,4.16,3.282,4.232,1.276,1.4,2.825,3.1,4.807,3.3.9.793,2.2,1.805,3.459,1.17A3.662,3.662,0,0,0-.1,12.268C-.092,8.726-.051,3.6-.015.009" fill="#545d5d"/>
      </g>
      <g id="Grupo_872" data-name="Grupo 872" transform="translate(12.705 -5.784)">
        <path id="Caminho_1400" data-name="Caminho 1400" d="M0,0-.871-.208a3.835,3.835,0,0,0,.922-.868Z" fill="#a2a8a6"/>
      </g>
      <g id="Grupo_873" data-name="Grupo 873" transform="translate(10.801 -5.875)">
        <path id="Caminho_1401" data-name="Caminho 1401" d="M0,0A2.58,2.58,0,0,1-1.142-.3c-.436-.5.127-1.237.306-1.922.207-.793,1.655-8.931-3.378-9.965a3.319,3.319,0,0,0-1.016-.138c-1.169,0-3.164.482-4.982,3.243,0,0,3.471-6.126,7.1-6.126a3.733,3.733,0,0,1,2.894,1.56s1.485-1.835,2.662-2.034a5.628,5.628,0,0,0-1.329,1.158A5.229,5.229,0,0,0-.024-12.139a3,3,0,0,0-.553-1.273c-.5-.649-1.07-1.411-1.958-1.411l-.1,0,0,.026a6.172,6.172,0,0,1,1.591.94,5.3,5.3,0,0,1,.882,2.288c.027.154.056.309.093.466-.014.449-.035.918-.035,1.562,0,.474.012,1.042.046,1.767A7,7,0,0,0,1.621-3.852a3.7,3.7,0,0,0,.107,1.383.057.057,0,0,0,.055.043.054.054,0,0,0,.027-.007c.06-.025.136-.063.217-.1l-.057,1.2A3.762,3.762,0,0,1,.831-.2,1.813,1.813,0,0,1,0,0" fill="#798786"/>
      </g>
      <g id="Grupo_874" data-name="Grupo 874" transform="translate(10.726 -5.763)">
        <path id="Caminho_1402" data-name="Caminho 1402" d="M0,0A1.636,1.636,0,0,1-.784-.2a.982.982,0,0,1-.283-.215,2.578,2.578,0,0,0,1.142.3,1.813,1.813,0,0,0,.831-.2,3.777,3.777,0,0,0,1.14-1.126L2.03-1.1a3.8,3.8,0,0,1-.922.868L.95-.267A1.876,1.876,0,0,1,0,0" fill="#4e5858"/>
      </g>
      <g id="Grupo_875" data-name="Grupo 875" transform="translate(12.498 -9.772)">
        <path id="Caminho_1403" data-name="Caminho 1403" d="M0,0A6.946,6.946,0,0,1-1.672-3.878c-.1-2.171,0-2.93,0-3.964s1.1-4.619,5.964-4.894S10.5-9.393,10.634-8.6s.1,2.5.207,2.8A6.773,6.773,0,0,1,9.228-.113C7.084,2.086,0,0,0,0" fill="#a9b8b6"/>
      </g>
      <g id="Grupo_876" data-name="Grupo 876" transform="translate(12.498 -9.772)">
        <path id="Caminho_1404" data-name="Caminho 1404" d="M0,0,.064-.059S.041-.084,0-.134A6.8,6.8,0,0,1-1.584-3.882C-1.619-4.6-1.63-5.17-1.63-5.641c0-.941.046-1.507.046-2.2A4.7,4.7,0,0,1-.445-10.517,6.336,6.336,0,0,1,4.3-12.649h0q.264-.015.513-.015A5.844,5.844,0,0,1,9.273-10.9a5.1,5.1,0,0,1,1.275,2.317,14.02,14.02,0,0,1,.115,1.572c.011.282.02.549.034.765a2.238,2.238,0,0,0,.061.476,2.166,2.166,0,0,1,.061.353,6.674,6.674,0,0,1,.039.732A6.458,6.458,0,0,1,9.166-.174,4.856,4.856,0,0,1,5.737.807,20.185,20.185,0,0,1,1.874.361C1.327.25.864.139.539.055S.025-.084.025-.084L0,0,.064-.059,0,0-.025.084a24.008,24.008,0,0,0,5.762.9A5.006,5.006,0,0,0,9.291-.052a6.624,6.624,0,0,0,1.742-4.635,6.8,6.8,0,0,0-.04-.752,2.321,2.321,0,0,0-.069-.389,2.186,2.186,0,0,1-.052-.431c-.041-.641-.046-1.747-.152-2.356A5.252,5.252,0,0,0,9.4-11.022a6.018,6.018,0,0,0-4.59-1.817c-.17,0-.344.005-.523.015a6.51,6.51,0,0,0-4.867,2.2A4.862,4.862,0,0,0-1.759-7.842c0,.685-.046,1.253-.046,2.2,0,.474.011,1.042.046,1.767A7.018,7.018,0,0,0-.064.059l.016.018.023.007Z" fill="#545d5d"/>
      </g>
      <g id="Grupo_877" data-name="Grupo 877" transform="translate(20.419 -16.08)">
        <path id="Caminho_1405" data-name="Caminho 1405" d="M0,0A1.108,1.108,0,0,1,1.911-.063a1.126,1.126,0,0,1,.1.307L2,.24C1.5-.681.7-.512,0,0" fill="#545d5d"/>
      </g>
      <g id="Grupo_878" data-name="Grupo 878" transform="translate(13.761 -15.839)">
        <path id="Caminho_1406" data-name="Caminho 1406" d="M0,0C-.754-.507-1.264-.748-1.962,0L-1.977-.01A1.061,1.061,0,0,1-1-.65,1.566,1.566,0,0,1,0,0" fill="#545d5d"/>
      </g>
      <g id="Grupo_879" data-name="Grupo 879" transform="translate(12.705 -8.537)">
        <path id="Caminho_1407" data-name="Caminho 1407" d="M0,0-1.557,3.792s-.413.9-.115,1.241S-.625,4.78-.3,4.228,1.522,1.7,1.293.919.15-.365,0,0" fill="#dcd9af"/>
      </g>
      <g id="Grupo_880" data-name="Grupo 880" transform="translate(12.697 -8.54)">
        <path id="Caminho_1408" data-name="Caminho 1408" d="M0,0C.058-.14.233-.149.359-.108A1.458,1.458,0,0,1,1.388,1.285,6.763,6.763,0,0,1,.215,3.611a5.856,5.856,0,0,1-.99,1.258c-1.2.884-1.16-.383-.773-1.2C-1.116,2.416-.516,1.212,0,0M.016.007c-.484,1.224-.9,2.505-1.475,3.7-.41.706-.474,2,.622,1.092A15.211,15.211,0,0,0,.886,2.162c.2-.448.508-.951.273-1.441C1.056.4.33-.4.016.007" fill="#b4b79a"/>
      </g>
      <g id="Grupo_881" data-name="Grupo 881" transform="translate(21.494 -8.389)">
        <path id="Caminho_1409" data-name="Caminho 1409" d="M0,0,1.557,3.792s.414.9.115,1.241S.625,4.78.3,4.228-1.522,1.7-1.293.919-.15-.365,0,0" fill="#dcd9af"/>
      </g>
      <g id="Grupo_882" data-name="Grupo 882" transform="translate(21.486 -8.386)">
        <path id="Caminho_1410" data-name="Caminho 1410" d="M0,0C-.057-.126-.217-.129-.335-.086a1.355,1.355,0,0,0-.882,1.34A8.257,8.257,0,0,0-.061,3.513a4.045,4.045,0,0,0,1.229,1.5c.9.416.552-.91.307-1.317C.9,2.505.484,1.225,0,0M.016-.007C.532,1.205,1.132,2.409,1.564,3.658c.385.815.428,2.09-.773,1.2A5.814,5.814,0,0,1-.2,3.6,6.761,6.761,0,0,1-1.371,1.278,1.457,1.457,0,0,1-.343-.115c.126-.04.3-.032.359.108" fill="#b4b79a"/>
      </g>
      <g id="Grupo_883" data-name="Grupo 883" transform="translate(11.791 -14.736)">
        <path id="Caminho_1411" data-name="Caminho 1411" d="M0,0S.862-.81,1.465-.224s0,2.964,0,2.964A5.289,5.289,0,0,0,.793,6.377s.6-.31.706-.086,2.689,4.5,6.084,1.878c0,0,.985-.637,1.138-1.206s.175-.441,1.214-.19a5.314,5.314,0,0,0-.783-3.929A4.292,4.292,0,0,1,8.81.6C8.962-.655,10.048-.534,10.565,0Z" fill="#a9b8b6"/>
      </g>
      <g id="Grupo_884" data-name="Grupo 884" transform="translate(11.785 -14.742)">
        <path id="Caminho_1412" data-name="Caminho 1412" d="M0,0C.394-.393,1.179-.721,1.582-.151A2.976,2.976,0,0,1,1.75,1.6a9.5,9.5,0,0,1-.217,1.181,5.855,5.855,0,0,0-.78,2.661,3.667,3.667,0,0,0,.1.922L.773,6.332a1.654,1.654,0,0,1,.5-.162.256.256,0,0,1,.274.1c1.227,2.208,3.781,3.718,6,1.849a3.148,3.148,0,0,0,1.07-1.092c.071-.161.084-.508.343-.544a4.959,4.959,0,0,1,1,.2l-.111.064a5.526,5.526,0,0,0-.759-3.865C8.726,2.05,8.33-.036,9.487-.383A1.2,1.2,0,0,1,10.577,0,1.266,1.266,0,0,0,9.5-.319c-.807.273-.681,1.347-.609,2.027.137,1.1.939,1.92,1.112,3.018A4.874,4.874,0,0,1,10.03,6.8a.088.088,0,0,1-.107.065,6.217,6.217,0,0,0-.935-.213c-.043.006-.062.022-.089.07A2.669,2.669,0,0,1,7.627,8.234a4.014,4.014,0,0,1-1.863.809c-1.854.212-3.389-1.271-4.3-2.729-.154-.138-.464.05-.636.12A.057.057,0,0,1,.743,6.4,4.975,4.975,0,0,1,1.4,2.729c.138-.775.747-2.885-.346-3.118A1.616,1.616,0,0,0,0,0" fill="#545d5d"/>
      </g>
      <g id="Grupo_885" data-name="Grupo 885" transform="translate(14.48 -11.317)">
        <path id="Caminho_1413" data-name="Caminho 1413" d="M0,0S-.345.011-.345,1.217c0,1.191.093,10.3,6.874,10.046a.722.722,0,0,0,.554-.295,1.017,1.017,0,0,0-.065-1.3.708.708,0,0,0-.5-.279A6.183,6.183,0,0,1,5.17,9.145a2.455,2.455,0,0,1-.586-3.136C5.361,4.24,5.791.92,5.239,0" fill="#a9b8b6"/>
      </g>
      <g id="Grupo_886" data-name="Grupo 886" transform="translate(14.48 -11.308)">
        <path id="Caminho_1414" data-name="Caminho 1414" d="M0,0C-.264.133-.265.522-.3.784A17.449,17.449,0,0,0-.14,3.457c.407,3.415,1.937,7.6,5.959,7.738a4.023,4.023,0,0,0,.873-.026.9.9,0,0,0,.3-1.4.8.8,0,0,0-.72-.327,2.833,2.833,0,0,1-1.333-.351,2.482,2.482,0,0,1-.719-2.125,8.253,8.253,0,0,1,.555-1.719,13.7,13.7,0,0,0,.659-3.5A4.378,4.378,0,0,0,5.247-.013a3.739,3.739,0,0,1,.277,1.764A13.78,13.78,0,0,1,4.937,5.3c-.428,1.081-.895,2.273-.154,3.337a1.012,1.012,0,0,0,.64.493,7.758,7.758,0,0,0,.873.15.938.938,0,0,1,.827.4,1.03,1.03,0,0,1-.4,1.6A5.55,5.55,0,0,1,2.534,9.946C.268,7.883-.309,4.61-.384,1.679A4.6,4.6,0,0,1-.268.335C-.219.2-.162.03,0-.018Z" fill="#545d5d"/>
      </g>
      <g id="Grupo_887" data-name="Grupo 887" transform="translate(13.532 -13.969)">
        <path id="Caminho_1415" data-name="Caminho 1415" d="M0,0A.92.92,0,0,1-.827.991.921.921,0,0,1-1.655,0,.921.921,0,0,1-.827-.991.92.92,0,0,1,0,0" fill="#fff"/>
      </g>
      <g id="Grupo_888" data-name="Grupo 888" transform="translate(13.523 -13.969)">
        <path id="Caminho_1416" data-name="Caminho 1416" d="M0,0C-.1-1.2-1.508-1.178-1.6,0-1.649,1.233-.063,1.192,0,0M.018,0c0,1.447-1.609,1.36-1.712,0C-1.72-1.415.043-1.452.018,0" fill="#2b2e34"/>
      </g>
      <g id="Grupo_889" data-name="Grupo 889" transform="translate(13.532 -13.912)">
        <path id="Caminho_1417" data-name="Caminho 1417" d="M0,0A.748.748,0,0,1-.639.823.749.749,0,0,1-1.279,0a.749.749,0,0,1,.64-.823A.748.748,0,0,1,0,0" fill="#2b2e34"/>
      </g>
      <g id="Grupo_890" data-name="Grupo 890" transform="translate(13.523 -13.912)">
        <path id="Caminho_1418" data-name="Caminho 1418" d="M0,0C-.1-.976-1.14-.953-1.222,0-1.281,1.006-.059.973,0,0M.018,0C.069.728-.639,1.286-1.133.561c-.347-.49-.217-1.438.5-1.478C-.15-.906.031-.393.018,0" fill="#2b2e34"/>
      </g>
      <g id="Grupo_891" data-name="Grupo 891" transform="translate(13.003 -14.267)">
        <path id="Caminho_1419" data-name="Caminho 1419" d="M0,0A.3.3,0,0,1-.3.3.3.3,0,0,1-.6,0,.3.3,0,0,1-.3-.3.3.3,0,0,1,0,0" fill="#fff"/>
      </g>
      <g id="Grupo_892" data-name="Grupo 892" transform="translate(20.601 -13.969)">
        <path id="Caminho_1420" data-name="Caminho 1420" d="M0,0A.92.92,0,0,0,.827.991.921.921,0,0,0,1.655,0,.921.921,0,0,0,.827-.991.92.92,0,0,0,0,0" fill="#fff"/>
      </g>
      <g id="Grupo_893" data-name="Grupo 893" transform="translate(20.592 -13.969)">
        <path id="Caminho_1421" data-name="Caminho 1421" d="M0,0C-.025-1.452,1.738-1.414,1.711,0,1.608,1.36,0,1.447,0,0M.018,0c.063,1.192,1.648,1.233,1.6,0C1.525-1.179.121-1.2.018,0" fill="#2b2e34"/>
      </g>
      <g id="Grupo_894" data-name="Grupo 894" transform="translate(20.601 -13.912)">
        <path id="Caminho_1422" data-name="Caminho 1422" d="M0,0A.748.748,0,0,0,.639.823.748.748,0,0,0,1.279,0a.748.748,0,0,0-.64-.823A.748.748,0,0,0,0,0" fill="#2b2e34"/>
      </g>
      <g id="Grupo_895" data-name="Grupo 895" transform="translate(20.592 -13.912)">
        <path id="Caminho_1423" data-name="Caminho 1423" d="M0,0C-.014-.393.168-.906.648-.917c.72.04.85.987.5,1.478C.656,1.286-.051.728,0,0M.018,0C.077.973,1.3,1.006,1.24,0,1.157-.953.117-.975.018,0" fill="#2b2e34"/>
      </g>
      <g id="Grupo_896" data-name="Grupo 896" transform="translate(21.13 -14.267)">
        <path id="Caminho_1424" data-name="Caminho 1424" d="M0,0A.3.3,0,0,0,.6,0,.3.3,0,0,0,.3-.3.3.3,0,0,0,0,0" fill="#fff"/>
      </g>
      <g id="Grupo_897" data-name="Grupo 897" transform="translate(15.187 -16.127)">
        <path id="Caminho_1425" data-name="Caminho 1425" d="M0,0A3.3,3.3,0,0,1,3.639-.162l-.006.017A4.541,4.541,0,0,0,0,0" fill="#545d5d"/>
      </g>
      <g id="Grupo_898" data-name="Grupo 898" transform="translate(14.865 -15.116)">
        <path id="Caminho_1426" data-name="Caminho 1426" d="M0,0A3.373,3.373,0,0,1,4.028-.368a2.226,2.226,0,0,1,.477.382A3.989,3.989,0,0,0,0,0" fill="#545d5d"/>
      </g>
      <g id="Grupo_899" data-name="Grupo 899" transform="translate(14.867 -14.45)">
        <path id="Caminho_1427" data-name="Caminho 1427" d="M0,0A3.71,3.71,0,0,1,4.352,0l-.01.014C3.05-.874,1.33-.538,0,0" fill="#545d5d"/>
      </g>
      <g id="Grupo_900" data-name="Grupo 900" transform="translate(14.29 -12.587)">
        <path id="Caminho_1428" data-name="Caminho 1428" d="M0,0A3.479,3.479,0,0,1,5.137-.6a4.406,4.406,0,0,1,.539.614c-.2-.18-.387-.375-.6-.542C3.444-1.885,1.408-1.355,0,0" fill="#545d5d"/>
      </g>
      <g id="Grupo_901" data-name="Grupo 901" transform="translate(14.659 -11.876)">
        <path id="Caminho_1429" data-name="Caminho 1429" d="M0,0A3.693,3.693,0,0,1,4.486-.29a4.883,4.883,0,0,1,.489.475L4.962.2C3.605-1.16,1.5-.892,0,0" fill="#545d5d"/>
      </g>
      <g id="Grupo_902" data-name="Grupo 902" transform="translate(14.867 -11.049)">
        <path id="Caminho_1430" data-name="Caminho 1430" d="M0,0C1.212-.8,3.082-1.073,4.214,0L4.2.015C2.963-.879,1.283-.529,0,0" fill="#545d5d"/>
      </g>
      <g id="Grupo_903" data-name="Grupo 903" transform="translate(14.391 -8.822)">
        <path id="Caminho_1431" data-name="Caminho 1431" d="M0,0C.424-2.269,3.74-2.334,5.018-.781A1.6,1.6,0,0,1,5.377,0,2.848,2.848,0,0,0,2.656-1.659,2.475,2.475,0,0,0,0,0" fill="#545d5d"/>
      </g>
      <g id="Grupo_904" data-name="Grupo 904" transform="translate(14.655 -7.407)">
        <path id="Caminho_1432" data-name="Caminho 1432" d="M0,0A2.347,2.347,0,0,1,2.45-2.057,2.439,2.439,0,0,1,4.727-.962a1.341,1.341,0,0,1,.12.848C4.9-1.374,3.528-1.93,2.45-1.882A2.4,2.4,0,0,0,0,0" fill="#545d5d"/>
      </g>
      <g id="Grupo_905" data-name="Grupo 905" transform="translate(3.333 -10.509)">
        <path id="Caminho_1433" data-name="Caminho 1433" d="M0,0A3.748,3.748,0,0,1,1.022-2.445a3.227,3.227,0,0,1,2.989-1.5v.026A5.111,5.111,0,0,0,.868-2.087C.5-1.444.309-.615,0,0" fill="#545d5d"/>
      </g>
      <g id="Grupo_906" data-name="Grupo 906" transform="translate(8.159 -7.168)">
        <path id="Caminho_1434" data-name="Caminho 1434" d="M0,0A2.124,2.124,0,0,1,.107-1.5,2.7,2.7,0,0,1,1.383-3.631L1.4-3.61A7.738,7.738,0,0,0,.19-1.484,6.334,6.334,0,0,1,0,0" fill="#545d5d"/>
      </g>
      <g id="Grupo_907" data-name="Grupo 907" transform="translate(8.165 -20.695)">
        <path id="Caminho_1435" data-name="Caminho 1435" d="M0,0C.946-.06,1.543.734,2.059,1.407a3.273,3.273,0,0,1,.57,2.466H2.6c-.058-.209-.1-.416-.132-.621A5.3,5.3,0,0,0,1.588.966,6.172,6.172,0,0,0,0,.026Z" fill="#545d5d"/>
      </g>
      <g id="Grupo_908" data-name="Grupo 908" transform="translate(12.45 -9.962)">
        <path id="Caminho_1436" data-name="Caminho 1436" d="M0,0A6.764,6.764,0,0,1-1.537-3.692c-.034-.72-.046-1.284-.046-1.755,0-.081,0-.165,0-.252.007-.8.045-1.322.045-1.953,0-.021,0-.044,0-.067s0-.046,0-.069a3.546,3.546,0,0,1,.162-.777c.053-.145.116-.313.162-.438.025-.059.052-.12.08-.18a.384.384,0,0,1,.06-.005c.191,0,.668.128.408,1.467-.322,1.655-.552,4.642,0,5.7S.22-.93.22-.93L.206-.871A5.438,5.438,0,0,0,0,0" fill="#798786"/>
      </g>
      <g id="Grupo_909" data-name="Grupo 909" transform="translate(12.45 -9.958)">
        <path id="Caminho_1437" data-name="Caminho 1437" d="M0,0C-.029-.036-.368-.452-.538-.721A6.618,6.618,0,0,1-1.581-4.484s0-.412,0-.966c0,.47.011,1.034.046,1.754A6.756,6.756,0,0,0,0,0,.008.008,0,0,0,0,0M-1.581-5.7c0-.673.015-1.481.046-2.021,0,.024,0,.046,0,.067,0,.631-.038,1.156-.045,1.954m.05-2.089a2.559,2.559,0,0,1,.062-.5l.1-.275a3.6,3.6,0,0,0-.163.777m.324-1.215.066-.178.015,0c-.029.061-.056.121-.081.181" fill="#4e5858"/>
      </g>
      <g id="Grupo_910" data-name="Grupo 910" transform="translate(12.452 -9.956)">
        <path id="Caminho_1438" data-name="Caminho 1438" d="M0,0,0,0v0A5.44,5.44,0,0,1,.2-.877Z" fill="#4e5858"/>
      </g>
      <g id="Grupo_911" data-name="Grupo 911" transform="translate(14.756 -5.884)">
        <path id="Caminho_1439" data-name="Caminho 1439" d="M0,0A1.962,1.962,0,0,1,.757-1.374C1.966-2.212,4.654-2,4.506-.106H4.489C4.4-1.39,2.976-1.8,1.883-1.725A2.461,2.461,0,0,0,0,0" fill="#545d5d"/>
      </g>
      <g id="Grupo_912" data-name="Grupo 912" transform="translate(21.004 -1.927)">
        <path id="Caminho_1440" data-name="Caminho 1440" d="M0,0C.292.248.231.623.334.951a.75.75,0,0,1-.324.93L0,1.867A1.868,1.868,0,0,0,.218.715,1.534,1.534,0,0,1,0,0" fill="#545d5d"/>
      </g>
      <g id="Grupo_913" data-name="Grupo 913" transform="translate(20.185 -2.04)">
        <path id="Caminho_1441" data-name="Caminho 1441" d="M0,0A.9.9,0,0,1,.355.726,1,1,0,0,1,0,1.975l-.012-.012A2.011,2.011,0,0,0,.3.738,2.736,2.736,0,0,1,0,0" fill="#545d5d"/>
      </g>
      <g id="Grupo_914" data-name="Grupo 914" transform="translate(19.659 -2.174)">
        <path id="Caminho_1442" data-name="Caminho 1442" d="M0,0C.232.325.1.7.162,1.056c.06.342-.029.868-.443.934l-.007-.016A1.849,1.849,0,0,0,.078.792,1.57,1.57,0,0,1,0,0" fill="#545d5d"/>
      </g>
      <g id="Grupo_915" data-name="Grupo 915" transform="translate(19.264 -2.533)">
        <path id="Caminho_1443" data-name="Caminho 1443" d="M0,0A1.209,1.209,0,0,1,.044.9c-.022.516-.231,1.13-.838,1.161l0-.017A1.764,1.764,0,0,0-.012.895,2.708,2.708,0,0,1,0,0" fill="#545d5d"/>
      </g>
      <g id="Grupo_916" data-name="Grupo 916" transform="translate(18.897 -3.254)">
        <path id="Caminho_1444" data-name="Caminho 1444" d="M0,0A1.731,1.731,0,0,1-.2,1c-.131.5-.357,1.342-1.039,1.214V2.192a.837.837,0,0,0,.5-.358A3.016,3.016,0,0,0-.254.978,2.672,2.672,0,0,1,0,0" fill="#545d5d"/>
      </g>
      <g id="Grupo_917" data-name="Grupo 917" transform="translate(18.785 -4.117)">
        <path id="Caminho_1445" data-name="Caminho 1445" d="M0,0A6.465,6.465,0,0,1-.8,1.411c-.252.451-.6,1.037-1.108,1.172A17.324,17.324,0,0,0-.646,1.029,3.187,3.187,0,0,1,0,0" fill="#545d5d"/>
      </g>
      <g id="Grupo_918" data-name="Grupo 918" transform="translate(16.028 -2.536)">
        <path id="Caminho_1446" data-name="Caminho 1446" d="M0,0A9.583,9.583,0,0,1,1.344-1.6,4,4,0,0,1,2.519-2.648c.107-.065.433-.19.517-.115a2.413,2.413,0,0,0-.841.553l-.783.678C.877-1.094.561-.379,0,0" fill="#545d5d"/>
      </g>
      <g id="Grupo_919" data-name="Grupo 919" transform="translate(15.184 -4.124)">
        <path id="Caminho_1447" data-name="Caminho 1447" d="M0,0A2.75,2.75,0,0,1,3.449-1.884a2.582,2.582,0,0,1,.578.232c-.206-.025-.407-.06-.605-.1C1.572-1.978.863-1.628,0,0" fill="#545d5d"/>
      </g>
      <g id="Grupo_920" data-name="Grupo 920" transform="translate(22.547 -17.868)">
        <path id="Caminho_1448" data-name="Caminho 1448" d="M0,0S.21-.282.324.363A11.991,11.991,0,0,1,.553,2.811C.5,3.425.305,6.229-.458,6.745S.353,5.262.3,3.2-.152.894,0,0" fill="#ebeeee"/>
      </g>
    </g>
  </g>
</svg>
