<svg xmlns="http://www.w3.org/2000/svg" xmlns:xlink="http://www.w3.org/1999/xlink" width="12.394" height="29.358" viewBox="0 0 12.394 29.358">
  <defs>
    <clipPath id="clip-path">
      <path id="Caminho_1775" data-name="Caminho 1775" d="M0,0H12.394V-29.358H0Z" fill="none"/>
    </clipPath>
  </defs>
  <g id="alfabeto_s_fim" transform="translate(0 29.358)">
    <g id="Grupo_1242" data-name="Grupo 1242" clip-path="url(#clip-path)">
      <g id="Grupo_1211" data-name="Grupo 1211" transform="translate(1.594 -15.105)">
        <path id="Caminho_1744" data-name="Caminho 1744" d="M0,0,1.854,6.077l-.464.309,2.819,8.291s.632,1.133,1.2-.412S9.218,0,9.218,0Z" fill="#ffb156"/>
      </g>
      <g id="Grupo_1212" data-name="Grupo 1212" transform="translate(9.373 -14.538)">
        <path id="Caminho_1745" data-name="Caminho 1745" d="M0,0A22.309,22.309,0,0,0-1.107,3.982c-.037,1.056.219,2.309-.226,3.309A13.575,13.575,0,0,0-2.352,11.26c-.017,1-1.673,1.514-1.673,1.514s.3,1.519.9,1.737,1.189-2.249,1.189-2.249L1.175.463Z" fill="#ffa444"/>
      </g>
      <g id="Grupo_1213" data-name="Grupo 1213" transform="translate(1.586 -15.11)">
        <path id="Caminho_1746" data-name="Caminho 1746" d="M0,0C2.731-.011,6.528-.095,9.226-.091h.123L9.319.03C8.35,3.9,7.2,8.174,6.12,12.036c-.282.686-.807,4.271-1.934,2.664-.841-2.451-2.062-5.86-2.86-8.284L1.307,6.36l.049-.032.465-.306L1.792,6.1C1.34,4.586.438,1.521,0,0M.015.011C.5,1.52,1.459,4.55,1.931,6.061l.016.051L1.9,6.143l-.461.312.029-.088c.488,1.376.936,2.765,1.4,4.149l1.38,4.155c1.03,1.525,1.522-2.038,1.78-2.66C6.762,9.322,8.4,2.766,9.132-.018L9.226.1C6.579.082,2.707.046.015.011" fill="#ff923c"/>
      </g>
      <g id="Grupo_1214" data-name="Grupo 1214" transform="translate(2.98 -8.821)">
        <path id="Caminho_1747" data-name="Caminho 1747" d="M0,0C1.288-.775,2.706-1.3,3.955-2.135A13.522,13.522,0,0,0,7.363-4.991l.017.009c-.094.161-.171.339-.282.493A9.574,9.574,0,0,1,4.01-2.046,22.726,22.726,0,0,1,0,0" fill="#ff923c"/>
      </g>
      <g id="Grupo_1215" data-name="Grupo 1215" transform="translate(2.54 -12.159)">
        <path id="Caminho_1748" data-name="Caminho 1748" d="M0,0Q1.6-1.571,3.291-3.053,5.274-1.094,7.367.745l.045.04-.033.05a15.534,15.534,0,0,1-6.1,4.948A20.428,20.428,0,0,0,7.259.759l.012.09Q5.306-1.078,3.234-2.888h.107C2.253-1.915,1.135-.864,0,0" fill="#ff923c"/>
      </g>
      <g id="Grupo_1216" data-name="Grupo 1216" transform="translate(4.704 -4.264)">
        <path id="Caminho_1749" data-name="Caminho 1749" d="M0,0A7.72,7.72,0,0,1,1.547-1.073c.829-.621,1.675-1.306,2.518-1.868A6.3,6.3,0,0,1,2.11-1.364,13.949,13.949,0,0,1,0,0" fill="#ff923c"/>
      </g>
      <g id="Grupo_1217" data-name="Grupo 1217" transform="translate(5.185 -2.066)">
        <path id="Caminho_1750" data-name="Caminho 1750" d="M0,0A3,3,0,0,1,.984-.678,6.712,6.712,0,0,1,2.65-1.771,5.885,5.885,0,0,1,1.018-.626,2.439,2.439,0,0,1,0,0" fill="#ff923c"/>
      </g>
      <g id="Grupo_1218" data-name="Grupo 1218" transform="translate(5.604 -1.178)">
        <path id="Caminho_1751" data-name="Caminho 1751" d="M0,0A.608.608,0,0,1,.486.213c.281.106.591.123.784.4L1.262.635C.92.657.717.424.459.268A.608.608,0,0,1-.008.017Z" fill="#ff923c"/>
      </g>
      <g id="Grupo_1219" data-name="Grupo 1219" transform="translate(2.793 -11.404)">
        <path id="Caminho_1752" data-name="Caminho 1752" d="M0,0A2.19,2.19,0,0,1,.824.614c.449.334,1.05.591,1.327,1.083A5.039,5.039,0,0,1,.786.663,1.831,1.831,0,0,1,0,0" fill="#ff923c"/>
      </g>
      <g id="Grupo_1220" data-name="Grupo 1220" transform="translate(3.265 -9.613)">
        <path id="Caminho_1753" data-name="Caminho 1753" d="M0,0C.682-.866,1.608-1.468,2.355-2.265A16.5,16.5,0,0,1,4.781-4.454,19.84,19.84,0,0,1,2.426-2.189,26.978,26.978,0,0,1,0,0" fill="#ff923c"/>
      </g>
      <g id="Grupo_1221" data-name="Grupo 1221" transform="translate(4.543 -12.778)">
        <path id="Caminho_1754" data-name="Caminho 1754" d="M0,0A2.339,2.339,0,0,1,.9.565a4.559,4.559,0,0,1,1.458,1A5.379,5.379,0,0,1,.866.616,1.955,1.955,0,0,1,0,0" fill="#ff923c"/>
      </g>
      <g id="Grupo_1222" data-name="Grupo 1222" transform="translate(6.21 -10.562)">
        <path id="Caminho_1755" data-name="Caminho 1755" d="M0,0A4.415,4.415,0,0,1,1.03,1.034,8.612,8.612,0,0,1,2.693,2.811,10.076,10.076,0,0,1,.986,1.077,3.649,3.649,0,0,1,0,0" fill="#ff923c"/>
      </g>
      <g id="Grupo_1223" data-name="Grupo 1223" transform="translate(4.236 -9.18)">
        <path id="Caminho_1756" data-name="Caminho 1756" d="M0,0C.734.6,1.211,1.427,1.914,2.054a16.792,16.792,0,0,0,2.118,1.8c-.851-.142-1.615-1.09-2.193-1.725A14.01,14.01,0,0,1,0,0" fill="#ff923c"/>
      </g>
      <g id="Grupo_1224" data-name="Grupo 1224" transform="translate(4.235 -5.327)">
        <path id="Caminho_1757" data-name="Caminho 1757" d="M0,0A5.825,5.825,0,0,1,1.212,1.028c.7.535,1.424,1.03,2.114,1.58a4.227,4.227,0,0,1-1.76-1.177C1.085.922.344.6,0,0" fill="#ff923c"/>
      </g>
      <g id="Grupo_1225" data-name="Grupo 1225" transform="translate(9.535 -14.193)">
        <path id="Caminho_1758" data-name="Caminho 1758" d="M0,0C-.4.264-.515,1.184-.232,2.008S-.1,3.605-1,3.579s-1.45-.695-1.189-1.442,1.5-2.214.262-2.188-1.29.746-1.739.54L-4.12.283s-.438-.309-.412.232.592,3.94.026,4.326S-5.69,4.223-5.613,3.064-5.3.257-5.974.18A2.735,2.735,0,0,0-7.441.618S-9.656,1.21-8.626-1.03a2.271,2.271,0,0,1,.283-3.708A2.432,2.432,0,0,1-7.158-8.283s-.687-2.2,2.952-3.776c0,0,2.472-1.442,0-2.4,0,0-.39-.022.073-.382s4.352-.9,3.644,4c0,0,2.626.026,1.828,3.038,0,0,2.592.927.6,3.4a1.508,1.508,0,0,1,0,2.7s.446.386,0,1.467.017,2.009-.55,2.009S.824.489.824.489.824-.541,0,0" fill="#fc8cc2"/>
      </g>
      <g id="Grupo_1226" data-name="Grupo 1226" transform="translate(9.523 -14.211)">
        <path id="Caminho_1759" data-name="Caminho 1759" d="M0,0C.216-.156.58-.265.731.033c.228.5.034,1.116.381,1.572a.352.352,0,0,0,.334.151c.138-.007.205-.138.221-.269.036-.266.015-.544.043-.818,0-.773.767-1.67.176-2.365l.036-.029C3.1-2.527,3.011-3.6,1.865-4.381c1.064-1.3,1.119-2.679-.611-3.364.023-.092.1-.484.118-.575A1.914,1.914,0,0,0-.586-10.744,7.392,7.392,0,0,0-.55-12.669a3.9,3.9,0,0,0-.223-.873l-.213-.394c-.088-.12-.187-.231-.279-.348a2.564,2.564,0,0,0-2.887-.42.453.453,0,0,0-.115.14c0,.016-.007-.008,0,.005.548.192,1.312.561,1.235,1.265a2.229,2.229,0,0,1-1.139,1.318,12.125,12.125,0,0,0-1.137.6C-6.338-10.738-7.357-9.594-7.08-8.3l.014.059-.051.031a2.374,2.374,0,0,0-1.161,3.44l.028.052-.044.04a2.2,2.2,0,0,0-.253,3.637A4.865,4.865,0,0,0-8.8-.322c-.117.509.082.922.644.951A2.505,2.505,0,0,0-7.468.577,2.647,2.647,0,0,1-6,.131a.46.46,0,0,1,.354.213c.573,1.3-.343,2.844.358,4.118.258.519.857.617.94-.061a12.994,12.994,0,0,0-.122-3.024L-4.551.619c-.03-.175,0-.514.271-.436.126.059.373.168.507.234A.509.509,0,0,0-3.446.5c.213-.076.389-.273.615-.369A1.87,1.87,0,0,1-1.576-.01c.05.034.118.059.146.12.206,1.015-1.03,1.708-.758,2.7.265.913,2.076,1.124,2.075-.045A12.711,12.711,0,0,0-.381,1.351,1.536,1.536,0,0,1,0,0M.01.016A1.523,1.523,0,0,0-.359,1.349,12.544,12.544,0,0,1-.087,2.77a.823.823,0,0,1-.984.826A1.123,1.123,0,0,1-2.189,2.1,13.646,13.646,0,0,0-1.423.466a.423.423,0,0,0-.04-.334C-1.61-.06-1.9-.02-2.12-.01A2.8,2.8,0,0,0-3.433.551c-.2.051-.5-.168-.694-.233-.307-.206-.406,0-.361.295l.09.756a13.023,13.023,0,0,1,.14,3.048c-.027.262-.189.568-.493.559-.806-.122-.94-1.313-.9-1.97-.012-.579.4-2.642-.352-2.765a2.543,2.543,0,0,0-1.4.434c-1.461.343-1.88-.438-1.273-1.723l.016.073a2.331,2.331,0,0,1,.281-3.81l-.016.092A2.461,2.461,0,0,1-7.649-8.06c.15-.1.307-.188.46-.282l-.037.09c-.373-1.892,1.47-3.215,2.993-3.874,1.338-.857,1.463-1.753-.124-2.289-.249-.2.128-.473.3-.56a2.775,2.775,0,0,1,3.218.939,4.882,4.882,0,0,1,.444,3.217l-.092-.107A2.134,2.134,0,0,1,1.345-9.887,3.041,3.041,0,0,1,1.42-7.774l-.049-.094a2.7,2.7,0,0,1,.9.593c.892.852.4,2.1-.28,2.916l-.013-.084a2.608,2.608,0,0,1,.607.6c.62.842.159,1.663-.615,2.183l0-.064a1.024,1.024,0,0,1,.2.809C2.1-.362,1.785.112,1.768.674A3.254,3.254,0,0,1,1.643,1.7a.258.258,0,0,1-.19.1C.969,1.831.885,1.2.835.845.823.268.749-.46.01.016" fill="#f663ad"/>
      </g>
      <g id="Grupo_1227" data-name="Grupo 1227" transform="translate(6.206 -24.056)">
        <path id="Caminho_1760" data-name="Caminho 1760" d="M0,0C-1.534.825-5.549,1.629-5.376,3.845l-.018.006c-.39-1.257,1.051-2.232,2.076-2.578A19.446,19.446,0,0,1,0,0" fill="#f663ad"/>
      </g>
      <g id="Grupo_1228" data-name="Grupo 1228" transform="translate(10.386 -24.539)">
        <path id="Caminho_1761" data-name="Caminho 1761" d="M0,0A7.3,7.3,0,0,0-1.229-.5a1.273,1.273,0,0,0-.415.154A5.029,5.029,0,0,1-3.368.224a7.364,7.364,0,0,1,2.135-.78A1.455,1.455,0,0,1,0,0" fill="#f663ad"/>
      </g>
      <g id="Grupo_1229" data-name="Grupo 1229" transform="translate(0.148 -17.614)">
        <path id="Caminho_1762" data-name="Caminho 1762" d="M0,0A2.3,2.3,0,0,1,.99-1.391c.265-.125.538-.2.8-.307A20.809,20.809,0,0,1,5.807-3.1l0,.018a31.975,31.975,0,0,1-3.2,1.152,6.9,6.9,0,0,0-1.549.673A4.038,4.038,0,0,0,0,0" fill="#f663ad"/>
      </g>
      <g id="Grupo_1230" data-name="Grupo 1230" transform="translate(11.841 -21.304)">
        <path id="Caminho_1763" data-name="Caminho 1763" d="M0,0A2.255,2.255,0,0,0-1.174-.693,3.947,3.947,0,0,0-2.511-.25a2.309,2.309,0,0,1-.937.236A4,4,0,0,1-.679-.688C-.386-.581-.03-.3,0,0" fill="#f663ad"/>
      </g>
      <g id="Grupo_1231" data-name="Grupo 1231" transform="translate(4.859 -16.64)">
        <path id="Caminho_1764" data-name="Caminho 1764" d="M0,0A9.2,9.2,0,0,0-3.028.9c-.276.141-.685.443-.849.55a1.981,1.981,0,0,0-.344.936l-.019,0A1.571,1.571,0,0,1-4.034,1.35a3.485,3.485,0,0,1,.927-.6A7.214,7.214,0,0,1,0,0" fill="#f663ad"/>
      </g>
      <g id="Grupo_1232" data-name="Grupo 1232" transform="translate(12.273 -17.609)">
        <path id="Caminho_1765" data-name="Caminho 1765" d="M0,0A2.31,2.31,0,0,0-1.05-1.058c-.538-.052-.88.491-1.335.72A1.951,1.951,0,0,1-3.4-.01c.827-.287,1.442-1.125,2.36-1.108A1.243,1.243,0,0,1,0,0" fill="#f663ad"/>
      </g>
      <g id="Grupo_1233" data-name="Grupo 1233" transform="translate(11.613 -14.798)">
        <path id="Caminho_1766" data-name="Caminho 1766" d="M0,0C.03-.673.044-1.441-.831-.981a2.746,2.746,0,0,1-1.906.116,15.26,15.26,0,0,0,2.349-.32C.26-1.283.255-.314,0,0" fill="#f663ad"/>
      </g>
      <g id="Grupo_1234" data-name="Grupo 1234" transform="translate(8.04 -28.236)">
        <path id="Caminho_1767" data-name="Caminho 1767" d="M0,0S-.829-.887-.726-.309C-.488,1.036.227.875.227.875S.632.837,0,0" fill="#fcdceb"/>
      </g>
      <g id="Grupo_1235" data-name="Grupo 1235" transform="translate(8.266 -26.897)">
        <path id="Caminho_1768" data-name="Caminho 1768" d="M0,0S.2-.4.369-.129c.4.616.18.764.18.764S-.232.78,0,0" fill="#fcdceb"/>
      </g>
      <g id="Grupo_1236" data-name="Grupo 1236" transform="translate(3.508 -23.166)">
        <path id="Caminho_1769" data-name="Caminho 1769" d="M0,0C-.178.269-.245.538-.15.6S.166.5.344.227s.244-.538.149-.6S.178-.269,0,0" fill="#ade8f5"/>
      </g>
      <g id="Grupo_1237" data-name="Grupo 1237" transform="translate(6.704 -22.065)">
        <path id="Caminho_1770" data-name="Caminho 1770" d="M0,0C.249.2.51.3.582.211S.51-.114.261-.319s-.51-.3-.582-.21S-.249-.2,0,0" fill="#ffed9d"/>
      </g>
      <g id="Grupo_1238" data-name="Grupo 1238" transform="translate(3.072 -18.091)">
        <path id="Caminho_1771" data-name="Caminho 1771" d="M0,0C.079.313.232.543.342.516S.478.212.4-.1.167-.644.057-.616-.079-.313,0,0" fill="#7d55ab"/>
      </g>
      <g id="Grupo_1239" data-name="Grupo 1239" transform="translate(8.069 -18.027)">
        <path id="Caminho_1772" data-name="Caminho 1772" d="M0,0C-.321-.027-.589.042-.6.155s.243.228.564.255S.554.368.564.255.321.027,0,0" fill="#ade8f5"/>
      </g>
      <g id="Grupo_1240" data-name="Grupo 1240" transform="translate(9.697 -20.061)">
        <path id="Caminho_1773" data-name="Caminho 1773" d="M0,0C-.081.312-.058.588.052.617S.317.416.4.1.457-.484.346-.513.081-.312,0,0" fill="#7d55ab"/>
      </g>
      <g id="Grupo_1241" data-name="Grupo 1241" transform="translate(5.523 -15.501)">
        <path id="Caminho_1774" data-name="Caminho 1774" d="M0,0C-.081.312-.058.588.052.617S.317.416.4.1.457-.484.346-.513.081-.312,0,0" fill="#ffed9d"/>
      </g>
    </g>
  </g>
</svg>
