<svg xmlns="http://www.w3.org/2000/svg" xmlns:xlink="http://www.w3.org/1999/xlink" width="22.036" height="20.772" viewBox="0 0 22.036 20.772">
  <defs>
    <clipPath id="clip-path">
      <path id="Caminho_1575" data-name="Caminho 1575" d="M0,0H22.036V-20.772H0Z" fill="none"/>
    </clipPath>
  </defs>
  <g id="alfabeto_j_fim" transform="translate(0 20.772)">
    <g id="Grupo_1047" data-name="Grupo 1047" clip-path="url(#clip-path)">
      <g id="Grupo_1025" data-name="Grupo 1025" transform="translate(12.422 -17.562)">
        <path id="Caminho_1553" data-name="Caminho 1553" d="M0,0S.609-1.771,3.377-.941s2.214,3.82,2.214,3.82S-.609,3.1,0,0" fill="#2b2e34"/>
      </g>
      <g id="Grupo_1026" data-name="Grupo 1026" transform="translate(17.229 -15.749)">
        <path id="Caminho_1554" data-name="Caminho 1554" d="M0,0C.08-.247.046-.479-.077-.519s-.288.127-.368.374-.046.479.077.519S-.08.247,0,0" fill="#fff"/>
      </g>
      <g id="Grupo_1027" data-name="Grupo 1027" transform="translate(13.932 -17.312)">
        <path id="Caminho_1555" data-name="Caminho 1555" d="M0,0C.145-.215.176-.448.069-.52s-.312.043-.457.258-.176.448-.069.52S-.145.215,0,0" fill="#fff"/>
      </g>
      <g id="Grupo_1028" data-name="Grupo 1028" transform="translate(15.439 -18.521)">
        <path id="Caminho_1556" data-name="Caminho 1556" d="M0,0S.175-1.6-.517-1.751s-.516-.46-.295-.493S.406-2.3.129,0" fill="#2b2e34"/>
      </g>
      <g id="Grupo_1029" data-name="Grupo 1029" transform="translate(16.715 -17.875)">
        <path id="Caminho_1557" data-name="Caminho 1557" d="M0,0S1.191-1.08,1.721-.61s.675.148.572-.05S1.622-1.678-.076-.1" fill="#2b2e34"/>
      </g>
      <g id="Grupo_1030" data-name="Grupo 1030" transform="translate(5.392 -17.882)">
        <path id="Caminho_1558" data-name="Caminho 1558" d="M0,0C1.183-.529,2.943.481,2.657,1.863A9.445,9.445,0,0,0,0,0" fill="#2b2e34"/>
      </g>
      <g id="Grupo_1031" data-name="Grupo 1031" transform="translate(1.91 -15.39)">
        <path id="Caminho_1559" data-name="Caminho 1559" d="M0,0C1.183-.529,2.943.481,2.657,1.863A9.445,9.445,0,0,0,0,0" fill="#2b2e34"/>
      </g>
      <g id="Grupo_1032" data-name="Grupo 1032" transform="translate(0 -8.859)">
        <path id="Caminho_1560" data-name="Caminho 1560" d="M0,0C.594-1.152,2.6-1.462,3.239-.2A9.437,9.437,0,0,0,0,0" fill="#2b2e34"/>
      </g>
      <g id="Grupo_1033" data-name="Grupo 1033" transform="translate(22.035 -8.827)">
        <path id="Caminho_1561" data-name="Caminho 1561" d="M0,0A9.431,9.431,0,0,0-2.846-1.559C-1.733-2.427-.049-1.295,0,0" fill="#2b2e34"/>
      </g>
      <g id="Grupo_1034" data-name="Grupo 1034" transform="translate(21.34 -4.601)">
        <path id="Caminho_1562" data-name="Caminho 1562" d="M0,0A9.443,9.443,0,0,0-2.846-1.559C-1.733-2.427-.049-1.295,0,0" fill="#2b2e34"/>
      </g>
      <g id="Grupo_1035" data-name="Grupo 1035" transform="translate(16.327)">
        <path id="Caminho_1563" data-name="Caminho 1563" d="M0,0A9.476,9.476,0,0,0-1.249-2.995C.162-2.977.77-1.042,0,0" fill="#2b2e34"/>
      </g>
      <g id="Grupo_1036" data-name="Grupo 1036" transform="translate(7.922 -10.511)">
        <path id="Caminho_1564" data-name="Caminho 1564" d="M0,0C-2.048,3.547-2.4,7.177-.792,8.107S3.785,6.915,5.833,3.368s2.4-7.177.792-8.107S2.048-3.547,0,0" fill="#2b2e34"/>
      </g>
      <g id="Grupo_1037" data-name="Grupo 1037" transform="translate(15.023 -16.56)">
        <path id="Caminho_1565" data-name="Caminho 1565" d="M0,0A9.489,9.489,0,0,0-6.889-.673,7.529,7.529,0,0,0-11.845,3.74,7.625,7.625,0,0,0-8.524,13.815l5.4-9.683L-6.974,14.411S1.182,18.244,4.5,9.94C6.712,4.418,2.841,1.4,0,0" fill="#ff3518"/>
      </g>
      <g id="Grupo_1038" data-name="Grupo 1038" transform="translate(15.04 -16.594)">
        <path id="Caminho_1566" data-name="Caminho 1566" d="M0,0C2.989,1.4,5.742,4.123,5.349,7.683c-.329,3.338-2.444,6.8-5.82,7.738a10.118,10.118,0,0,1-6.677-.641.361.361,0,0,1-.189-.465c.656-1.708,1.31-3.416,1.981-5.119s1.348-3.4,2.026-5.1l.369.171c-.934,1.6-1.865,3.192-2.769,4.8-.919,1.6-1.8,3.225-2.679,4.854a.149.149,0,0,1-.185.067,7.79,7.79,0,0,1-4.087-4.96,7.876,7.876,0,0,1,.333-4.912C-10.63-.987-4.44-2.3,0,0M-.034.068C-4.368-2.161-10.163-.485-11.712,4.354a7.525,7.525,0,0,0,.91,7.319,6.592,6.592,0,0,0,2.315,2.035l-.185.068c.926-1.6,1.841-3.2,2.722-4.83.9-1.616,1.766-3.247,2.633-4.879a.2.2,0,0,1,.275-.085.2.2,0,0,1,.094.255c-.607,1.727-1.2,3.457-1.826,5.178s-1.242,3.442-1.87,5.16l-.189-.465c4.2,1.718,8.593.815,10.647-3.492C6.207,6.084,4.408,2.235-.034.068" fill="#e32b19"/>
      </g>
      <g id="Grupo_1039" data-name="Grupo 1039" transform="translate(10.281 -17.323)">
        <path id="Caminho_1567" data-name="Caminho 1567" d="M0,0A.051.051,0,0,0,0-.1c-.978-.088-3.361.032-5.806,2.688a8.429,8.429,0,0,0-1.645,7.4,8.163,8.163,0,0,0,3.4,4.342.071.071,0,0,0,.084-.113c-1.047-1.094-4.7-3.407-2.6-9.737C-5.4.957-1.172.128,0,0" fill="#fff"/>
      </g>
      <g id="Grupo_1040" data-name="Grupo 1040" transform="translate(19.324 -11.377)">
        <path id="Caminho_1568" data-name="Caminho 1568" d="M0,0A2.151,2.151,0,0,1-2.15,2.15,2.15,2.15,0,0,1-4.3,0,2.15,2.15,0,0,1-2.15-2.15,2.151,2.151,0,0,1,0,0" fill="#2b2e34"/>
      </g>
      <g id="Grupo_1041" data-name="Grupo 1041" transform="translate(14.53 -4.061)">
        <path id="Caminho_1569" data-name="Caminho 1569" d="M0,0A2.15,2.15,0,0,1-2.15,2.15,2.149,2.149,0,0,1-4.3,0,2.15,2.15,0,0,1-2.15-2.15,2.151,2.151,0,0,1,0,0" fill="#2b2e34"/>
      </g>
      <g id="Grupo_1042" data-name="Grupo 1042" transform="translate(7.539 -7.341)">
        <path id="Caminho_1570" data-name="Caminho 1570" d="M0,0A1.486,1.486,0,0,1-1.486,1.486,1.486,1.486,0,0,1-2.972,0,1.486,1.486,0,0,1-1.486-1.486,1.486,1.486,0,0,1,0,0" fill="#2b2e34"/>
      </g>
      <g id="Grupo_1043" data-name="Grupo 1043" transform="translate(8.782 -14.336)">
        <path id="Caminho_1571" data-name="Caminho 1571" d="M0,0A1.8,1.8,0,0,1-1.795,1.795,1.8,1.8,0,0,1-3.589,0,1.8,1.8,0,0,1-1.795-1.795,1.8,1.8,0,0,1,0,0" fill="#2b2e34"/>
      </g>
      <g id="Grupo_1044" data-name="Grupo 1044" transform="translate(12.906 -9.92)">
        <path id="Caminho_1572" data-name="Caminho 1572" d="M0,0A1.625,1.625,0,0,1-1.625,1.625,1.625,1.625,0,0,1-3.249,0,1.625,1.625,0,0,1-1.625-1.625,1.625,1.625,0,0,1,0,0" fill="#2b2e34"/>
      </g>
      <g id="Grupo_1045" data-name="Grupo 1045" transform="translate(17.527 -4.521)">
        <path id="Caminho_1573" data-name="Caminho 1573" d="M0,0A.73.73,0,0,0,1.033-.2a8.461,8.461,0,0,0,1.2-2.462c.2-1.1-2.04-.61-2.7.251A1.948,1.948,0,0,0,0,0" fill="#2b2e34"/>
      </g>
      <g id="Grupo_1046" data-name="Grupo 1046" transform="translate(17.527 -4.521)">
        <path id="Caminho_1574" data-name="Caminho 1574" d="M0,0A.73.73,0,0,0,1.033-.2a8.461,8.461,0,0,0,1.2-2.462c.2-1.1-2.04-.61-2.7.251A1.948,1.948,0,0,0,0,0Z" fill="none" stroke="#2b2e34" stroke-width="0.38"/>
      </g>
    </g>
  </g>
</svg>
