<svg xmlns="http://www.w3.org/2000/svg" xmlns:xlink="http://www.w3.org/1999/xlink" width="28.254" height="26.872" viewBox="0 0 28.254 26.872">
  <defs>
    <clipPath id="clip-path">
      <path id="Caminho_1452" data-name="Caminho 1452" d="M.807-.768H27.446V-26.1H.807Z" fill="none"/>
    </clipPath>
    <clipPath id="clip-path-2">
      <path id="Caminho_1469" data-name="Caminho 1469" d="M0,0H28.254V-26.872H0Z" fill="none"/>
    </clipPath>
  </defs>
  <g id="alfabeto_f_fim" transform="translate(0 26.872)">
    <g id="Grupo_924" data-name="Grupo 924" clip-path="url(#clip-path)">
      <g id="Grupo_922" data-name="Grupo 922" transform="translate(10.468 -16.195)">
        <path id="Caminho_1450" data-name="Caminho 1450" d="M0,0S-9.42-4.272-5.093-7.448s9.365-2.574,9.365.274a30.924,30.924,0,0,1-.657,5.8S5.422-6.955,7.174-8.434s2.958-1.917,4.382-.6,3.012,4.929,3.012,4.929a1.738,1.738,0,0,1-1.2,2.354C11.446-.986,6.024.657,6.024.657a38.513,38.513,0,0,1,7.5-1.588C16.1-.986,17.252.657,16.868,2.41s-1.314,4.819-1.314,4.819-.767,1.15-2.848.548S5.641,3.122,5.641,3.122,11.83,8.1,11.775,10.077s0,2.191-1.588,3.067-8.6,4.053-8.927.548S2.3,3.724,2.3,3.724.548,11.118-.876,12.6s-3.505,0-3.505,0-3.232-2.3-3.451-3.669S-8.6,6.3-6.736,5.422s7.01-2.68,7.01-2.68S-5.477,4.765-6.572,4.765-9.749,4.272-9.584,2.3s-.533-5.468,1.917-5.312C-5.08-2.848,0,0,0,0" fill="#ff561c"/>
      </g>
      <g id="Grupo_923" data-name="Grupo 923" transform="translate(10.457 -16.201)">
        <path id="Caminho_1451" data-name="Caminho 1451" d="M0,0C-1.568-.756-7.824-4.251-8.982-2.4a5.9,5.9,0,0,0-.5,3.156c.1,1.027-.339,2.278.494,3.085,1.774,1.629,4.162.429,6.133-.137q1.56-.5,3.106-1.05l.066.189Q-1.449,3.47-3.206,4.13c-1.167.446-2.342.887-3.47,1.406a2.026,2.026,0,0,0-1.2,1.22,5.892,5.892,0,0,0,.2,2.254A6.706,6.706,0,0,0-5.64,11.445c1.216,1.126,3.321,2.58,4.744,1.01A18.284,18.284,0,0,0,1.221,7.321q.534-1.8.977-3.618l.227.051c-.278,1.359-.513,2.732-.706,4.107a37.485,37.485,0,0,0-.377,4.144c.045.962-.215,2.187.645,2.827,1.779,1.044,5.113-.411,6.885-1.144a6.625,6.625,0,0,0,2.567-1.621,2.282,2.282,0,0,0,.22-.969,3.083,3.083,0,0,0-.27-1.979A16.054,16.054,0,0,0,8.722,5.953c-1-.968-2.038-1.893-3.111-2.775l.082-.1a57.1,57.1,0,0,0,4.656,3.417c1.187.744,2.507,1.6,3.97,1.376a2.011,2.011,0,0,0,1.2-.647c.437-1.455.864-2.914,1.223-4.389a2.637,2.637,0,0,0-1.8-3.542,10.209,10.209,0,0,0-4.484.277C8.974-.113,7.506.284,6.055.726L6.016.6c2.344-.729,4.7-1.451,7-2.295,1.259-.365,2.061-1.412,1.34-2.684-.862-1.658-2.374-5.279-4.482-5.328A5.046,5.046,0,0,0,6.849-7.925,23.7,23.7,0,0,0,3.717-1.334l-.186-.051a30.959,30.959,0,0,0,.655-5.166A2.283,2.283,0,0,0,2.609-9.207c-2.772-.884-5.851.383-8.027,2.122C-8.258-4.3-2.067-1.062,0,0M.022.011C-2.167-.99-8.429-4.325-5.5-7.175A10.355,10.355,0,0,1,.928-9.651a3.633,3.633,0,0,1,3.135,1.37,2.9,2.9,0,0,1,.295,1.735C4.343-5.962,4.3-5.38,4.244-4.8A33.109,33.109,0,0,1,3.72-1.343l-.186-.05c.388-1.171.825-2.322,1.319-3.451A10.181,10.181,0,0,1,7.361-8.715c1.285-1.087,2.819-1.808,4.22-.437a16.587,16.587,0,0,1,2.935,4.7,1.9,1.9,0,0,1,.074,1.842,2.606,2.606,0,0,1-1.518,1.072C10.756-.7,8.4.007,6.055.726L6.016.6C7.474.162,8.944-.229,10.434-.543A10.267,10.267,0,0,1,14.967-.8,2.721,2.721,0,0,1,16.818,2.85c-.356,1.48-.777,2.94-1.209,4.4a2,2,0,0,1-1.274.716c-1.494.234-2.836-.623-4.046-1.377A57.251,57.251,0,0,1,5.611,3.178l.082-.1c1.081.882,2.129,1.8,3.134,2.77a16.156,16.156,0,0,1,2.712,3.191,2.261,2.261,0,0,1,.334,1.024,5.187,5.187,0,0,1-.272,2.1,2.211,2.211,0,0,1-.785.74,20.827,20.827,0,0,1-3.8,1.76c-1.607.523-5.033,1.692-5.779-.545A23.591,23.591,0,0,1,1.491,7.83Q1.78,5.757,2.2,3.706l.228.051q-.444,1.828-.978,3.631A18.219,18.219,0,0,1-.716,12.613c-1.528,1.7-3.773.232-5.082-.983A6.788,6.788,0,0,1-7.915,9.072a5.937,5.937,0,0,1-.2-2.381,2.255,2.255,0,0,1,1.342-1.37c1.148-.522,2.322-.955,3.495-1.4S-.931,3.067.252,2.653l.066.189Q-1.235,3.379-2.8,3.878a16.7,16.7,0,0,1-4,.966,3.569,3.569,0,0,1-2.3-.9c-.871-.847-.435-2.117-.52-3.189a5.94,5.94,0,0,1,.538-3.225c.735-1,2.129-.5,3.116-.236A32.691,32.691,0,0,1,.022.011" fill="#832216"/>
      </g>
    </g>
    <g id="Grupo_941" data-name="Grupo 941" clip-path="url(#clip-path-2)">
      <g id="Grupo_925" data-name="Grupo 925" transform="translate(13.932 -16.88)">
        <path id="Caminho_1453" data-name="Caminho 1453" d="M0,0S1.687-3.7,2.918-3.615s1.231,1.076.573,1.688S.441.863.441.863s3.79-3.711,4.981-3.519S4.464.1,2.067,1.14l.22.585S6.736.686,6.86,2.034s-4.683.978-4.683.978,4.984.411,4.751,1.849S2.067,3.615,2.067,3.615l-.15.716S4.587,7.01,3.574,8.078.589,4.888.589,4.888s1.684,4.231.465,4.806S-.863,5.314-.863,5.314l-.931.163s-.712,3.792-3.08,3.231,2.1-4.08,2.1-4.08S-7.394,8.5-7.3,7.051s3.793-3.464,3.793-3.464L-4.039,3s-4.806.837-4.861-.471,5.2-.493,5.2-.493S-8.585,1.342-8.311.246s5.266.959,5.266.959l.4-.575S-4.875-2.437-4.265-3.313-2-1.246-1.676.63c0,0-1.569-4.409-.624-4.779S-.526-2.547-.674-.164" fill="#f7491c"/>
      </g>
      <g id="Grupo_926" data-name="Grupo 926" transform="translate(10.037 -19.813)">
        <path id="Caminho_1454" data-name="Caminho 1454" d="M0,0A7.459,7.459,0,0,1,.7,1.513c.43.816.87,1.627,1.327,2.428A4.709,4.709,0,0,1,.872,2.046,11.263,11.263,0,0,1,0,0" fill="#832316"/>
      </g>
      <g id="Grupo_927" data-name="Grupo 927" transform="translate(12.064 -20.195)">
        <path id="Caminho_1455" data-name="Caminho 1455" d="M0,0A10.468,10.468,0,0,1,.329,1.959,4.345,4.345,0,0,1,.367,3.944C.316,3.359.248,2.55.239,1.97A18.141,18.141,0,0,1,0,0" fill="#832316"/>
      </g>
      <g id="Grupo_928" data-name="Grupo 928" transform="translate(14.896 -16.251)">
        <path id="Caminho_1456" data-name="Caminho 1456" d="M0,0A2.05,2.05,0,0,1,.592-1.371,6.229,6.229,0,0,1,2.2-3.28c-.464.7-1.083,1.262-1.569,1.939A12.082,12.082,0,0,0,0,0" fill="#832316"/>
      </g>
      <g id="Grupo_929" data-name="Grupo 929" transform="translate(19.016 -19.036)">
        <path id="Caminho_1457" data-name="Caminho 1457" d="M0,0A13.8,13.8,0,0,1-1.53,1.021,11.5,11.5,0,0,0-3.681,3.166,4.952,4.952,0,0,1-1.561.977,5,5,0,0,1,0,0" fill="#832316"/>
      </g>
      <g id="Grupo_930" data-name="Grupo 930" transform="translate(20.161 -14.818)">
        <path id="Caminho_1458" data-name="Caminho 1458" d="M0,0A8.533,8.533,0,0,1-1.516.017,8.436,8.436,0,0,0-3.948.576,3.485,3.485,0,0,1-1.519-.036,3.525,3.525,0,0,1,0,0" fill="#832316"/>
      </g>
      <g id="Grupo_931" data-name="Grupo 931" transform="translate(20.159 -12.244)">
        <path id="Caminho_1459" data-name="Caminho 1459" d="M0,0A6.5,6.5,0,0,1-1.567-.537a12.684,12.684,0,0,1-2.59-.957,14.941,14.941,0,0,1,2.608.907A5.359,5.359,0,0,1,0,0" fill="#832316"/>
      </g>
      <g id="Grupo_932" data-name="Grupo 932" transform="translate(17.17 -9.181)">
        <path id="Caminho_1460" data-name="Caminho 1460" d="M0,0A16.214,16.214,0,0,1-1.167-1.65a7.159,7.159,0,0,1-1.092-1.7A12.579,12.579,0,0,1-.823-1.272,4.478,4.478,0,0,1,0,0" fill="#832316"/>
      </g>
      <g id="Grupo_933" data-name="Grupo 933" transform="translate(14.622 -7.869)">
        <path id="Caminho_1461" data-name="Caminho 1461" d="M0,0A12.8,12.8,0,0,1-.4-2.175,4.709,4.709,0,0,1-.473-4.382c.065.917.117,1.831.22,2.744A6.271,6.271,0,0,1,0,0" fill="#832316"/>
      </g>
      <g id="Grupo_934" data-name="Grupo 934" transform="translate(9.311 -8.916)">
        <path id="Caminho_1462" data-name="Caminho 1462" d="M0,0A13.191,13.191,0,0,1,1.417-1.823a3.834,3.834,0,0,1,1.73-1.505A14.824,14.824,0,0,0,1.485-1.764C.929-1.238.587-.464,0,0" fill="#832316"/>
      </g>
      <g id="Grupo_935" data-name="Grupo 935" transform="translate(7.341 -10.588)">
        <path id="Caminho_1463" data-name="Caminho 1463" d="M0,0A4.908,4.908,0,0,1,1.362-.987c.768-.477,1.622-1.2,2.588-.959a6.931,6.931,0,0,0-2.559,1A7.958,7.958,0,0,1,0,0" fill="#832316"/>
      </g>
      <g id="Grupo_936" data-name="Grupo 936" transform="translate(6.032 -14.549)">
        <path id="Caminho_1464" data-name="Caminho 1464" d="M0,0A19.1,19.1,0,0,1,2.642.028,6.433,6.433,0,0,1,5.255.391C4.385.26,3.511.234,2.638.118S.835.192,0,0" fill="#832316"/>
      </g>
      <g id="Grupo_937" data-name="Grupo 937" transform="translate(6.637 -16.641)">
        <path id="Caminho_1465" data-name="Caminho 1465" d="M0,0A12.763,12.763,0,0,1,2.061.717a5.631,5.631,0,0,1,1.5.679c.107.082.39.278.376.4A3.665,3.665,0,0,0,3,1.275c-.491-.224-.97-.5-1.477-.69A5.983,5.983,0,0,1,0,0" fill="#832316"/>
      </g>
      <g id="Grupo_938" data-name="Grupo 938" transform="translate(9.811 -14.165)">
        <path id="Caminho_1466" data-name="Caminho 1466" d="M0,0A.959.959,0,0,0,.069-.559a1.384,1.384,0,0,1,.279-.9A2.172,2.172,0,0,0,.657-2.03a1.127,1.127,0,0,0,.513-.339,1.356,1.356,0,0,1,.837-.472,2.383,2.383,0,0,0,1.059-.391,1.329,1.329,0,0,1,1.2-.235,2.5,2.5,0,0,1,1.044.615s1.315.333,1.15,1.043c0,0,1.289,2.463.015,3.613a1.458,1.458,0,0,1-1.219.657,2.038,2.038,0,0,1-2.246.931s-2.026-.055-1.971-1.2c0,0,.049-.356-.6-.712C.438,1.475-.493.168,0,0" fill="#ffc955"/>
      </g>
      <g id="Grupo_939" data-name="Grupo 939" transform="translate(9.816 -14.159)">
        <path id="Caminho_1467" data-name="Caminho 1467" d="M0,0C-.418.239.3,1.161.47,1.442a1.317,1.317,0,0,1,.551.48.53.53,0,0,1,.073.261C1.126,3.1,2.29,3.241,3.01,3.3a1.944,1.944,0,0,0,2.2-.929,1.362,1.362,0,0,0,1.215-.627A2.541,2.541,0,0,0,6.78-.91a7.7,7.7,0,0,0-.349-.912c.088-.607-.675-.865-1.143-1A1.674,1.674,0,0,0,3-3.107a4.108,4.108,0,0,1-1.255.4c-.434.137-.623.62-1.076.726L.7-2.018c-.112.354-.41.61-.533.951C.018-.726.166-.339,0,0M-.01-.013C.124-.351-.036-.745.1-1.092c.114-.362.41-.622.508-.989.446-.119.644-.618,1.086-.754A4.618,4.618,0,0,0,2.92-3.23a1.877,1.877,0,0,1,.593-.313,1.985,1.985,0,0,1,1.822.658c.4.112,1.264.445,1.149,1.075a5.13,5.13,0,0,1,.364.879,2.652,2.652,0,0,1-.33,2.779,1.492,1.492,0,0,1-1.271.687L5.322,2.5a2.071,2.071,0,0,1-2.317.973C2.215,3.42.971,3.18.978,2.178a.406.406,0,0,0-.053-.2A1.4,1.4,0,0,0,.4,1.494C.214,1.2-.462.222-.01-.013" fill="#832316"/>
      </g>
      <g id="Grupo_940" data-name="Grupo 940" transform="translate(12.233 -14.667)">
        <path id="Caminho_1468" data-name="Caminho 1468" d="M0,0C-.587.475-1.323.538-1.644.141s-.1-1.1.481-1.578S.16-1.975.481-1.578.587-.475,0,0" fill="#ffeabd"/>
      </g>
    </g>
  </g>
</svg>
