<svg xmlns="http://www.w3.org/2000/svg" xmlns:xlink="http://www.w3.org/1999/xlink" width="25.901" height="25.836" viewBox="0 0 25.901 25.836">
  <defs>
    <clipPath id="clip-path">
      <path id="Caminho_1743" data-name="Caminho 1743" d="M0,0H25.9V-25.836H0Z" fill="none"/>
    </clipPath>
  </defs>
  <g id="alfabeto_r_fim" transform="translate(0 25.836)">
    <g id="Grupo_1210" data-name="Grupo 1210" clip-path="url(#clip-path)">
      <g id="Grupo_1192" data-name="Grupo 1192" transform="translate(24.589 -12.907)">
        <path id="Caminho_1721" data-name="Caminho 1721" d="M0,0A11.682,11.682,0,0,1-11.682,11.682,11.682,11.682,0,0,1-23.364,0,11.682,11.682,0,0,1-11.682-11.682,11.682,11.682,0,0,1,0,0" fill="#dff5fa"/>
      </g>
      <g id="Grupo_1193" data-name="Grupo 1193" transform="translate(24.589 -12.907)">
        <path id="Caminho_1722" data-name="Caminho 1722" d="M0,0A11.682,11.682,0,0,1-11.682,11.682,11.682,11.682,0,0,1-23.364,0,11.682,11.682,0,0,1-11.682-11.682,11.682,11.682,0,0,1,0,0Z" fill="none" stroke="#23949c" stroke-width="2.45"/>
      </g>
      <g id="Grupo_1194" data-name="Grupo 1194" transform="translate(25.026 -13.279)">
        <path id="Caminho_1723" data-name="Caminho 1723" d="M0,0A11.682,11.682,0,0,1-11.682,11.682,11.682,11.682,0,0,1-23.364,0,11.682,11.682,0,0,1-11.682-11.682,11.682,11.682,0,0,1,0,0" fill="#dff5fa"/>
      </g>
      <g id="Grupo_1195" data-name="Grupo 1195" transform="translate(25.026 -13.279)">
        <path id="Caminho_1724" data-name="Caminho 1724" d="M0,0A11.682,11.682,0,0,1-11.682,11.682,11.682,11.682,0,0,1-23.364,0,11.682,11.682,0,0,1-11.682-11.682,11.682,11.682,0,0,1,0,0Z" fill="none" stroke="#1ec1d2" stroke-width="1.75"/>
      </g>
      <g id="Grupo_1196" data-name="Grupo 1196" transform="translate(14.295 -12.997)">
        <path id="Caminho_1725" data-name="Caminho 1725" d="M0,0A.869.869,0,0,1-.869.869.869.869,0,0,1-1.738,0,.869.869,0,0,1-.869-.869.869.869,0,0,1,0,0" fill="#3a6d7a"/>
      </g>
      <g id="Grupo_1197" data-name="Grupo 1197" transform="translate(13.426 -12.997)">
        <path id="Caminho_1726" data-name="Caminho 1726" d="M0,0-.888-3.165" fill="none" stroke="#3a6d7a" stroke-linecap="round" stroke-linejoin="round" stroke-width="0.35"/>
      </g>
      <g id="Grupo_1198" data-name="Grupo 1198" transform="translate(12.576 -16.027)">
        <path id="Caminho_1727" data-name="Caminho 1727" d="M0,0A2.579,2.579,0,0,1-1.382.963a4.763,4.763,0,0,0,1.007-2.3A5.038,5.038,0,0,0,1.681.1,2.667,2.667,0,0,1,0,0" fill="#3a6d7a"/>
      </g>
      <g id="Grupo_1199" data-name="Grupo 1199" transform="translate(18.427 -14.276)">
        <path id="Caminho_1728" data-name="Caminho 1728" d="M0,0-5.173,1.547" fill="none" stroke="#3a6d7a" stroke-linecap="round" stroke-linejoin="round" stroke-width="0.35"/>
      </g>
      <g id="Grupo_1200" data-name="Grupo 1200" transform="translate(18.292 -14.236)">
        <path id="Caminho_1729" data-name="Caminho 1729" d="M0,0A2.58,2.58,0,0,0-.075,1.683,4.762,4.762,0,0,1,1.329-.4,5.038,5.038,0,0,1-.987-1.365,2.676,2.676,0,0,0,0,0" fill="#3a6d7a"/>
      </g>
      <g id="Grupo_1201" data-name="Grupo 1201" transform="translate(9.624 -20.473)">
        <path id="Caminho_1730" data-name="Caminho 1730" d="M0,0-.591.341l-.819-1.42.59-.341Z" fill="#3a6d7a"/>
      </g>
      <path id="Caminho_1731" data-name="Caminho 1731" d="M13.155-21.3h-.682v-1.639h.682Z" fill="#3a6d7a"/>
      <g id="Grupo_1202" data-name="Grupo 1202" transform="translate(17.683 -20.136)">
        <path id="Caminho_1732" data-name="Caminho 1732" d="M0,0-.578-.363.293-1.751l.578.362Z" fill="#3a6d7a"/>
      </g>
      <g id="Grupo_1203" data-name="Grupo 1203" transform="translate(17.186 -6.085)">
        <path id="Caminho_1733" data-name="Caminho 1733" d="M0,0,.591-.341l.819,1.42L.82,1.42Z" fill="#3a6d7a"/>
      </g>
      <path id="Caminho_1734" data-name="Caminho 1734" d="M13.655-5.258h.682v1.639h-.682Z" fill="#3a6d7a"/>
      <g id="Grupo_1204" data-name="Grupo 1204" transform="translate(9.127 -6.422)">
        <path id="Caminho_1735" data-name="Caminho 1735" d="M0,0,.578.363-.293,1.751l-.578-.362Z" fill="#3a6d7a"/>
      </g>
      <g id="Grupo_1205" data-name="Grupo 1205" transform="translate(6.602 -17.575)">
        <path id="Caminho_1736" data-name="Caminho 1736" d="M0,0-.341.591l-1.42-.82L-1.42-.82Z" fill="#3a6d7a"/>
      </g>
      <g id="Grupo_1206" data-name="Grupo 1206" transform="translate(20.233 -17.633)">
        <path id="Caminho_1737" data-name="Caminho 1737" d="M0,0,.341.591l1.42-.82L1.42-.82Z" fill="#3a6d7a"/>
      </g>
      <path id="Caminho_1738" data-name="Caminho 1738" d="M5.575-12.947H3.936v-.682H5.575Z" fill="#3a6d7a"/>
      <path id="Caminho_1739" data-name="Caminho 1739" d="M22.753-12.947H21.114v-.682h1.639Z" fill="#3a6d7a"/>
      <g id="Grupo_1207" data-name="Grupo 1207" transform="translate(20.242 -8.936)">
        <path id="Caminho_1740" data-name="Caminho 1740" d="M0,0,.341-.591l1.42.82L1.42.82Z" fill="#3a6d7a"/>
      </g>
      <g id="Grupo_1208" data-name="Grupo 1208" transform="translate(6.61 -8.878)">
        <path id="Caminho_1741" data-name="Caminho 1741" d="M0,0-.341-.591l-1.42.82L-1.42.82Z" fill="#3a6d7a"/>
      </g>
      <g id="Grupo_1209" data-name="Grupo 1209" transform="translate(14.415 -25.404)">
        <path id="Caminho_1742" data-name="Caminho 1742" d="M0,0S11.2,1.3,11.187,12.417c0,0-.283,1.13-.576-.9S10.794,2.572.453.372c0,0-1.662-.4-.453-.372" fill="#fff"/>
      </g>
    </g>
  </g>
</svg>
