<svg xmlns="http://www.w3.org/2000/svg" xmlns:xlink="http://www.w3.org/1999/xlink" width="31.378" height="26.78" viewBox="0 0 31.378 26.78">
  <defs>
    <clipPath id="clip-path">
      <path id="Caminho_1605" data-name="Caminho 1605" d="M0,0H31.378V-26.78H0Z" fill="none"/>
    </clipPath>
  </defs>
  <g id="alfabeto_m_fim" transform="translate(0 26.78)">
    <g id="Grupo_1077" data-name="Grupo 1077" clip-path="url(#clip-path)">
      <g id="Grupo_1061" data-name="Grupo 1061" transform="translate(5.38 -24.854)">
        <path id="Caminho_1589" data-name="Caminho 1589" d="M0,0A8.286,8.286,0,0,1,2.053,1.243c.756.7,3.133,2.322,3.133,2.322A41.548,41.548,0,0,1,9.843,6.753a7.731,7.731,0,0,0,2.636,1.89,31.433,31.433,0,0,1,5.4,3.62c.27.486,4.94,3.284,4.94,3.284S14.659,28.011,4.592,19.934C-4.6,12.563-5.132,4.746,0,0" fill="#ff3430"/>
      </g>
      <g id="Grupo_1062" data-name="Grupo 1062" transform="translate(5.382 -24.845)">
        <path id="Caminho_1590" data-name="Caminho 1590" d="M0,0C-4.684,4.4-3.735,10.446-.054,15.144a26.926,26.926,0,0,0,3.877,4.039,12.023,12.023,0,0,0,7.483,3.392c4.786.156,8.9-3.5,11.5-7.009-.991-.593-1.976-1.195-2.95-1.817a10.326,10.326,0,0,1-2.085-1.55,36.085,36.085,0,0,0-6.547-4.165A7.3,7.3,0,0,1,9.883,6.911a2.706,2.706,0,0,0-.613-.585C8.118,5.462,6.894,4.7,5.678,3.925c-.983-.607-1.911-1.3-2.835-1.994A10.833,10.833,0,0,0,0,0M0-.017A10.659,10.659,0,0,1,2.892,1.867c.929.681,1.857,1.37,2.842,1.968C6.958,4.6,8.19,5.359,9.353,6.218a2.845,2.845,0,0,1,.638.6,8.3,8.3,0,0,0,2.05,1.531,31.326,31.326,0,0,1,5.136,3.213c.487.317.816.812,1.3,1.14,1.406,1.006,2.89,1.9,4.363,2.808C20.352,19.2,16.046,22.8,11.3,22.714a12.037,12.037,0,0,1-7.586-3.406,27.086,27.086,0,0,1-3.907-4.06C-3.895,10.566-4.8,4.275,0-.017" fill="#f62d2d"/>
      </g>
      <g id="Grupo_1063" data-name="Grupo 1063" transform="translate(6.196 -24.394)">
        <path id="Caminho_1591" data-name="Caminho 1591" d="M0,0A1.783,1.783,0,0,1,0,1.4,9.058,9.058,0,0,0-.864,4C-.81,4.484.972,7.941.54,8.968s-1.016,1.739-.67,2.22,1.859,1.021,1.967,1.939a9.316,9.316,0,0,0,1.134,3.458c.486.54,1.459.864,1.513,1.512s1.566.324,1.837,1.081,3.372.378,3.522,1.08L10.912,21.5l-7.7-1.945-5.045-6.375L-3.215,8.157l1-5.942Z" fill="#f32c1b"/>
      </g>
      <g id="Grupo_1064" data-name="Grupo 1064" transform="translate(28.183 -9.376)">
        <path id="Caminho_1592" data-name="Caminho 1592" d="M0,0,2.557,1.623s-13.2,14.422-24,2.591S-23.5-16.159-23.5-16.159l1.509,1.141s-6.033,7.6.378,15.666S-3.673,6.321,0,0" fill="#e1efcb"/>
      </g>
      <g id="Grupo_1065" data-name="Grupo 1065" transform="translate(28.185 -9.368)">
        <path id="Caminho_1593" data-name="Caminho 1593" d="M0,0A12.429,12.429,0,0,1-8.558,5.592a13.375,13.375,0,0,1-12.115-3.77A12.736,12.736,0,0,1-24.264-10.3a13.754,13.754,0,0,1,2.221-4.767l.013.1-1.506-1.145.082,0a12.608,12.608,0,0,0-2.954,5.433c-1.67,6.268,2.144,12.521,6.748,16.515C-14.392,10.341-7.7,9.174-2.3,5.562A34.711,34.711,0,0,0,2.54,1.638S0,0,0,0M0-.017,2.571,1.59l.029.019-.024.025C-1.711,5.988-7.788,9.892-14.147,8.7A14.806,14.806,0,0,1-22.47,3.1c-3.142-3.777-5.347-8.863-4.024-13.808a12.759,12.759,0,0,1,2.952-5.5l.037-.039.045.034,1.512,1.136.054.04c-4.2,5.824-3.119,13.028,2.3,17.637C-13.964,7.528-4,6.485,0-.017" fill="#c5d8b1"/>
      </g>
      <g id="Grupo_1066" data-name="Grupo 1066" transform="translate(30.183 -8.134)">
        <path id="Caminho_1594" data-name="Caminho 1594" d="M0,0C-.544.821-6.554,9.38-18.332,5.362-30.7,1.143-27.69-12-27.69-12.433A52.947,52.947,0,0,1-25.5-17.4l-1.733-1.182s-2.485,5.132-2.485,5.618S-33.062,2.161-19.286,6.861,1.188.811,1.188.811Z" fill="#36a144"/>
      </g>
      <g id="Grupo_1067" data-name="Grupo 1067" transform="translate(30.181 -8.143)">
        <path id="Caminho_1595" data-name="Caminho 1595" d="M0,0,1.2.808A16.818,16.818,0,0,1-9.858,7.9a20.127,20.127,0,0,1-13-2.585C-29.078,1.7-30.953-5.65-29.854-12.393c.025-.111.072-.5.095-.62a6.549,6.549,0,0,1,.366-1c.675-1.561,1.412-3.092,2.15-4.623l.041.028,1.73,1.186.027.019-.014.029c-.437.9-.868,1.809-1.286,2.72a11.221,11.221,0,0,0-.944,2.439,20.667,20.667,0,0,0-.073,6.358C-26.826.71-22.194,4.661-15.882,5.97A15.226,15.226,0,0,0,0,0M0,.017A15.071,15.071,0,0,1-9.908,6.308,17.432,17.432,0,0,1-23.932,2.142c-3.827-3.637-4.66-9.357-3.81-14.367a11.269,11.269,0,0,1,.938-2.458q.623-1.37,1.276-2.726l.013.048-1.735-1.178.062-.017c-.484,1.011-.962,2.025-1.426,3.046a10.9,10.9,0,0,0-1.121,3.135c-1.042,6.667.805,13.99,6.962,17.549C-14.568,9.856-4.5,8.809,1.178.812l0,.019Z" fill="#30883c"/>
      </g>
      <g id="Grupo_1068" data-name="Grupo 1068" transform="translate(0.051 -18.294)">
        <path id="Caminho_1596" data-name="Caminho 1596" d="M0,0S1.235,1.843.761,3.176s.527,3.311.527,3.311A14.608,14.608,0,0,1,2.93,10.233c.284,1.53,2.873,3.313,2.873,3.313s3.218.318,3.169,1.513S11.2,16.276,11.2,16.276s1.873-.137,2.449.655,2.861.176,3.4.55a6.489,6.489,0,0,0,1.81.742S8.387,19.479,2.823,11.43C2.823,11.43-.5,7.595,0,0" fill="#265f2c"/>
      </g>
      <g id="Grupo_1069" data-name="Grupo 1069" transform="translate(6.132 -18.455)">
        <path id="Caminho_1597" data-name="Caminho 1597" d="M0,0C-.412.344-.607.791-.434,1S.212,1.091.624.746s.606-.791.434-1S.412-.344,0,0" fill="#2b2e34"/>
      </g>
      <g id="Grupo_1070" data-name="Grupo 1070" transform="translate(6.962 -14.054)">
        <path id="Caminho_1598" data-name="Caminho 1598" d="M0,0C-.1.528.038,1,.3,1.044S.859.7.956.176s-.038-1-.3-1.044S.1-.528,0,0" fill="#2b2e34"/>
      </g>
      <g id="Grupo_1071" data-name="Grupo 1071" transform="translate(11.572 -16.313)">
        <path id="Caminho_1599" data-name="Caminho 1599" d="M0,0C-.465.269-.733.675-.6.907s.62.2,1.085-.065.733-.675.6-.907S.465-.269,0,0" fill="#2b2e34"/>
      </g>
      <g id="Grupo_1072" data-name="Grupo 1072" transform="translate(10.618 -11.482)">
        <path id="Caminho_1600" data-name="Caminho 1600" d="M0,0C.177.507.526.846.779.758S1.1.187.918-.32.392-1.167.139-1.078-.177-.507,0,0" fill="#2b2e34"/>
      </g>
      <g id="Grupo_1073" data-name="Grupo 1073" transform="translate(16.524 -6.253)">
        <path id="Caminho_1601" data-name="Caminho 1601" d="M0,0C-.352.405-.474.877-.271,1.053S.381,1.043.734.638,1.208-.239,1-.415.352-.405,0,0" fill="#2b2e34"/>
      </g>
      <g id="Grupo_1074" data-name="Grupo 1074" transform="translate(20.775 -6.409)">
        <path id="Caminho_1602" data-name="Caminho 1602" d="M0,0C-.525.115-.9.421-.846.683s.53.382,1.054.267.9-.421.846-.683S.525-.115,0,0" fill="#2b2e34"/>
      </g>
      <g id="Grupo_1075" data-name="Grupo 1075" transform="translate(18.984 -9.296)">
        <path id="Caminho_1603" data-name="Caminho 1603" d="M0,0C.115.525.421.9.683.846S1.065.316.95-.208s-.421-.9-.683-.846S-.115-.525,0,0" fill="#2b2e34"/>
      </g>
      <g id="Grupo_1076" data-name="Grupo 1076" transform="translate(26.948 -9.094)">
        <path id="Caminho_1604" data-name="Caminho 1604" d="M0,0S.226-.309.387-.151s-1.521,3.594-7.856,5c0,0-1.219.324-.345,0s1.017-.326,1.079-.42a1.36,1.36,0,0,1,.773-.347A1.6,1.6,0,0,0-4.5,3.5c.575-.67,2.5-.967,2.649-1.341A7.859,7.859,0,0,1-.6.782Z" fill="#fff"/>
      </g>
    </g>
  </g>
</svg>
