<svg xmlns="http://www.w3.org/2000/svg" xmlns:xlink="http://www.w3.org/1999/xlink" width="32.361" height="28.262" viewBox="0 0 32.361 28.262">
  <defs>
    <clipPath id="clip-path">
      <path id="Caminho_1682" data-name="Caminho 1682" d="M0,0H32.361V-28.262H0Z" fill="none"/>
    </clipPath>
    <clipPath id="clip-path-2">
      <path id="Caminho_1684" data-name="Caminho 1684" d="M11.553-9.569l-.02.077h0c.122.269.248.528.38.777h0L11.48-9.756Zm3.814,4.934a13.776,13.776,0,0,1-1.116-.944h0a11.458,11.458,0,0,0,1.116.944" fill="none"/>
    </clipPath>
  </defs>
  <g id="alfabeto_p_fim" transform="translate(0 28.262)">
    <g id="Grupo_1154" data-name="Grupo 1154" clip-path="url(#clip-path)">
      <g id="Grupo_1134" data-name="Grupo 1134" transform="translate(12.63 -16.539)">
        <path id="Caminho_1662" data-name="Caminho 1662" d="M0,0S-3.032-4.414,1.944-6.42A4.634,4.634,0,0,0,4.476-8.346c.678-1.364,1.641-4.173,4.851-3.05a3.754,3.754,0,0,1,2.644,4.173s-.317,2.649-.879,2.97" fill="#064a9c"/>
      </g>
      <g id="Grupo_1135" data-name="Grupo 1135" transform="translate(12.623 -16.535)">
        <path id="Caminho_1663" data-name="Caminho 1663" d="M0,0C-1.747-2.606-1.129-5.38,1.936-6.473A5,5,0,0,0,3.887-7.6a7.062,7.062,0,0,0,1.14-1.959,4.519,4.519,0,0,1,1.465-1.759c2.035-1.194,5.092.362,5.5,2.647a7.713,7.713,0,0,1-.357,3.412,1.977,1.977,0,0,1-.531,1,2.283,2.283,0,0,0,.468-1.022,7.741,7.741,0,0,0,.274-3.362c-.419-2.159-3.336-3.663-5.286-2.571A6,6,0,0,0,4.587-8.495,4.453,4.453,0,0,1,1.965-6.377C-1.037-5.17-1.522-2.677,0,0" fill="#0f396a"/>
      </g>
      <g id="Grupo_1136" data-name="Grupo 1136" transform="translate(11.524 -12.26)">
        <path id="Caminho_1664" data-name="Caminho 1664" d="M0,0S-6.9,3.424-8.747-6.848c0,0-.482-3.771-2.568-5.376C-11.315-12.224-.8-10.165,0,0" fill="#064a9c"/>
      </g>
      <g id="Grupo_1137" data-name="Grupo 1137" transform="translate(11.517 -12.264)">
        <path id="Caminho_1665" data-name="Caminho 1665" d="M0,0C-.509-6.3-5.4-10.706-11.318-12.171l.041-.089c2.625,2.179,2.264,5.913,3.568,8.792C-6.352-.156-3.414,1.4,0,0M.014.008C-3.341,1.569-6.54-.07-7.82-3.421a23.644,23.644,0,0,1-1.2-4.661,7.585,7.585,0,0,0-2.318-4.1l-.178-.138.219.048C-5.3-10.914-.295-6.377.014.008" fill="#0f396a"/>
      </g>
      <g id="Grupo_1138" data-name="Grupo 1138" transform="translate(0.522 -0.487)">
        <path id="Caminho_1666" data-name="Caminho 1666" d="M0,0A4.461,4.461,0,0,0,2.266-4c-.14-2.646.831-5.789,3.442-6.914a10.626,10.626,0,0,1,4.261-.911l.012.031,1.05,2.709A11.967,11.967,0,0,1,0,0M.016,0A12.418,12.418,0,0,0,10.973-9.059l-1.082-2.7.045.031a10.8,10.8,0,0,0-4.16.955c-2.76,1.223-3.5,4.562-3.392,7.313A4.5,4.5,0,0,1,.016,0" fill="#0f396a"/>
      </g>
      <g id="Grupo_1139" data-name="Grupo 1139" transform="translate(0.53 -0.489)">
        <path id="Caminho_1667" data-name="Caminho 1667" d="M0,0A12.3,12.3,0,0,0,10.994-9.068l-1.066-2.7s-4.591,0-6.317,2.7A8.754,8.754,0,0,0,2.327-3.932,4.338,4.338,0,0,1,0,0" fill="#064a9c"/>
      </g>
      <g id="Grupo_1140" data-name="Grupo 1140" transform="translate(10.731 -11.704)">
        <path id="Caminho_1668" data-name="Caminho 1668" d="M0,0C-1.914.661-4.378,1.15-5.3,3.167c-.4.989-.451,2.1-.84,3.088a1.675,1.675,0,0,1-.417.507,2.86,2.86,0,0,0,.342-.542,23.279,23.279,0,0,1,.772-3.113C-4.615,1.4-1.751.212,0,0" fill="#0f396a"/>
      </g>
      <g id="Grupo_1141" data-name="Grupo 1141" transform="translate(4.177 -2.924)">
        <path id="Caminho_1669" data-name="Caminho 1669" d="M0,0A11.247,11.247,0,0,0,2.745-2.986a4.9,4.9,0,0,0,.482-1.267A6.418,6.418,0,0,1,6.685-8.34l.008.015A7.831,7.831,0,0,0,3.315-4.231,7.334,7.334,0,0,1,0,0" fill="#0f396a"/>
      </g>
      <g id="Grupo_1142" data-name="Grupo 1142" transform="translate(8.21 -5.271)">
        <path id="Caminho_1670" data-name="Caminho 1670" d="M0,0A7.076,7.076,0,0,0,1.339-1.786c.265-.611.614-1.472.912-2.062l.015.006A7.1,7.1,0,0,1,1.121-1.26,2.562,2.562,0,0,1,0,0" fill="#0f396a"/>
      </g>
      <g id="Grupo_1143" data-name="Grupo 1143" transform="translate(3.821 -21.881)">
        <path id="Caminho_1671" data-name="Caminho 1671" d="M0,0C1.912.287,3.124,2.033,4.343,3.364a22.39,22.39,0,0,1,3,4.713l-.01,0C5.738,5.626,4.23,2.715,1.817.976A5.457,5.457,0,0,0,0,0" fill="#0f396a"/>
      </g>
      <g id="Grupo_1144" data-name="Grupo 1144" transform="translate(4.185 -19.717)">
        <path id="Caminho_1672" data-name="Caminho 1672" d="M0,0A4.719,4.719,0,0,1,1.925,1.42,23.052,23.052,0,0,1,3.063,3.53,10.8,10.8,0,0,0,6.287,6.967l-.007.015a7.573,7.573,0,0,1-3.3-3.408A8.49,8.49,0,0,0,1.819,1.507,7.885,7.885,0,0,0,0,0" fill="#0f396a"/>
      </g>
      <g id="Grupo_1145" data-name="Grupo 1145" transform="translate(4.19 -17.302)">
        <path id="Caminho_1673" data-name="Caminho 1673" d="M0,0C.738,3.156,2.718,4.475,5.773,5.031a11.206,11.206,0,0,1,1.169.181A7.534,7.534,0,0,1,2.43,3.924,5.4,5.4,0,0,1,0,0" fill="#0f396a"/>
      </g>
      <g id="Grupo_1146" data-name="Grupo 1146" transform="translate(13.786 -20.639)">
        <path id="Caminho_1674" data-name="Caminho 1674" d="M0,0A.694.694,0,0,1,.477.409c.239.252.532.574.435.948C.688,1.07.643.726.436.443A1.565,1.565,0,0,1-.009.014Z" fill="#0f396a"/>
      </g>
      <g id="Grupo_1147" data-name="Grupo 1147" transform="translate(15.66 -22.846)">
        <path id="Caminho_1675" data-name="Caminho 1675" d="M0,0A1.547,1.547,0,0,1,.78.789a2.316,2.316,0,0,1,.561,1.753A8.164,8.164,0,0,0,.736.818,9.966,9.966,0,0,1,0,0" fill="#0f396a"/>
      </g>
      <g id="Grupo_1148" data-name="Grupo 1148" transform="translate(18.183 -25.012)">
        <path id="Caminho_1676" data-name="Caminho 1676" d="M0,0A2.905,2.905,0,0,1,1.059,1.217,2.927,2.927,0,0,1,1.6,3.8l-.016,0A4.08,4.08,0,0,0,.677.83L-.01.013Z" fill="#0f396a"/>
      </g>
      <g id="Grupo_1149" data-name="Grupo 1149" transform="translate(20.696 -26.094)">
        <path id="Caminho_1677" data-name="Caminho 1677" d="M0,0A5.616,5.616,0,0,1,1.364,2.754a4.037,4.037,0,0,1-.356,3.033L.993,5.78a6.446,6.446,0,0,0,.282-3.008A8.481,8.481,0,0,0,0,0" fill="#0f396a"/>
      </g>
      <g id="Grupo_1150" data-name="Grupo 1150" transform="translate(10.57 -11.981)">
        <path id="Caminho_1678" data-name="Caminho 1678" d="M0,0A1.5,1.5,0,0,1-.1-.762c.111-.817.711-2.713,3.544-6a8.666,8.666,0,0,1,11-1.885c1.926,1.043,7.222,5.256,7.182,7.9s-.482,4.815-6.5,8.988S2.467,5.823,1.436,3.426C.682,1.674.2.5,0,0" fill="#1ec1d2"/>
      </g>
      <g id="Grupo_1151" data-name="Grupo 1151" transform="translate(10.582 -11.985)">
        <path id="Caminho_1679" data-name="Caminho 1679" d="M0,0C.514,1.2,1.007,2.406,1.539,3.591A13.125,13.125,0,0,0,7.3,8.63c4.43,1.96,7.091.275,10.488-2.563a10.062,10.062,0,0,0,3.465-4.553,5.135,5.135,0,0,0-.133-3.76,15.532,15.532,0,0,0-3.868-4.333c-4.125-3.7-9.829-4.6-13.766-.127C2.282-5.294-.6-1.9,0,0M-.023.009c-.634-1.843,2.243-5.4,3.391-6.816A8.547,8.547,0,0,1,14.1-8.891a22.832,22.832,0,0,1,6.007,4.977A5.175,5.175,0,0,1,21.666-.393c.085,2.744-1.712,4.984-3.728,6.637A33.21,33.21,0,0,1,14.8,8.6,7.759,7.759,0,0,1,7.2,8.841a13.174,13.174,0,0,1-5.727-5.22Z" fill="#2290bf"/>
      </g>
      <g id="Grupo_1152" data-name="Grupo 1152" transform="translate(25.007 -20.632)">
        <path id="Caminho_1680" data-name="Caminho 1680" d="M0,0S-5,7.037.267,17.161c0,0,7.6-4.241,6.915-9.256A6.137,6.137,0,0,0,5.055,4.093,58.808,58.808,0,0,0,0,0" fill="#94dfe4"/>
      </g>
      <g id="Grupo_1153" data-name="Grupo 1153" transform="translate(25.004 -20.644)">
        <path id="Caminho_1681" data-name="Caminho 1681" d="M0,0A51.718,51.718,0,0,1,4.359,3.344,10.769,10.769,0,0,1,6.275,5.33C9.7,10.128,4.252,14.95.29,17.211l-.041.024-.018-.042A31.378,31.378,0,0,1-1.1,14.1l-.2-.527-.156-.54A15.543,15.543,0,0,1,0,0M0,.024A17.057,17.057,0,0,0-1.337,13a22.085,22.085,0,0,0,.708,2.122c.279.692.625,1.356.937,2.034l-.06-.018c3.763-2.275,9.1-6.991,5.823-11.664A10.586,10.586,0,0,0,4.235,3.484C2.884,2.273,1.433,1.132,0,.024" fill="#2290bf"/>
      </g>
    </g>
    <g id="Grupo_1155" data-name="Grupo 1155" clip-path="url(#clip-path-2)">
      <path id="Caminho_1683" data-name="Caminho 1683" d="M11.481-9.756h3.886v5.121H11.481Z" fill="#8ec7dc"/>
    </g>
    <g id="Grupo_1172" data-name="Grupo 1172" clip-path="url(#clip-path)">
      <g id="Grupo_1156" data-name="Grupo 1156" transform="translate(11.533 -9.492)">
        <path id="Caminho_1685" data-name="Caminho 1685" d="M0,0C0-.012-.011-.025-.017-.037s.006-.019.008-.029L-.627-1.632c-.007-.021-.013-.042-.02-.063L-.053-.264.02-.077,0,0" fill="#186590"/>
      </g>
      <g id="Grupo_1157" data-name="Grupo 1157" transform="translate(11.517 -9.529)">
        <path id="Caminho_1686" data-name="Caminho 1686" d="M0,0A15.413,15.413,0,0,1-.61-1.6L.008-.029,0,0" fill="#1572ad"/>
      </g>
      <g id="Grupo_1158" data-name="Grupo 1158" transform="translate(21.453 -2.508)">
        <path id="Caminho_1687" data-name="Caminho 1687" d="M0,0A8.789,8.789,0,0,1-3.571-.847a13.124,13.124,0,0,1-5.762-5.04c-.458-1.022-.888-2.062-1.327-3.1q-.159-.533-.292-1.108c0-.024,0-.049,0-.073.409.8,4.364,8.194,10.932,8.194A9.523,9.523,0,0,0,3.064-2.5c.214.485.441.965.656,1.424a9.45,9.45,0,0,1-1.284.614,12.69,12.69,0,0,1-1.348.371A6.485,6.485,0,0,1,0,0M-10.979-10.211l-.006-.023.007.012a.041.041,0,0,0,0,.011" fill="#21aec9"/>
      </g>
      <g id="Grupo_1159" data-name="Grupo 1159" transform="translate(21.322 -2.392)">
        <path id="Caminho_1688" data-name="Caminho 1688" d="M0,0A11.431,11.431,0,0,1-5.956-2.243a13.762,13.762,0,0,1-1.115-.944A12.242,12.242,0,0,1-9.41-6.323l-.432-1.041L-10.436-8.8c-.032-.1-.063-.2-.094-.3.44,1.034.869,2.074,1.328,3.1A13.127,13.127,0,0,0-3.441-.963,8.794,8.794,0,0,0,.131-.116,6.494,6.494,0,0,0,1.219-.207Q.631-.078,0,0M2.567-.578A9.439,9.439,0,0,0,3.85-1.192c.014.028.027.056.04.084a12.577,12.577,0,0,1-1.323.53m-13.388-9.629c-.01-.04-.019-.08-.028-.12a.041.041,0,0,0,0-.011c.006.011.016.031.029.058s0,.049,0,.073" fill="#2396bf"/>
      </g>
      <g id="Grupo_1160" data-name="Grupo 1160" transform="translate(25.291 -3.537)">
        <path id="Caminho_1689" data-name="Caminho 1689" d="M0,0C-.231-.5-.479-.993-.7-1.5A18.208,18.208,0,0,0,6.419-6.606C5.374-3.864,2.407-1.463.035-.017L0,0" fill="#5bbad0"/>
      </g>
      <g id="Grupo_1161" data-name="Grupo 1161" transform="translate(25.212 -3.5)">
        <path id="Caminho_1690" data-name="Caminho 1690" d="M0,0C-.013-.028-.026-.056-.04-.084c-.215-.459-.441-.939-.655-1.425l.069-.023c.225.5.474.995.7,1.495L0,0M.113-.054C2.486-1.5,5.453-3.9,6.5-6.643l.17-.184A14.28,14.28,0,0,1,.113-.054" fill="#2396bf"/>
      </g>
      <g id="Grupo_1162" data-name="Grupo 1162" transform="translate(20.134 -18.086)">
        <path id="Caminho_1691" data-name="Caminho 1691" d="M0,0C-1.382.5-1.8,1.431-.706,2.545a.111.111,0,0,1-.012.161c-.478.176-1.148.412-1.241.98-.033.566.516.991.926,1.309a.041.041,0,0,1-.017.072c-.493.112-1.246.338-1.3.915.036.559.614.945,1.031,1.268a.117.117,0,0,1,.026.163c-1.236.78-.924,1.571.146,2.274a.119.119,0,0,1-.008.2c-.952.608-1.137,1.337-.012,1.889l.355.165.008.016c-1.484-.363-1.8-1.353-.475-2.272l0,.2c-1.239-.743-1.549-1.843-.161-2.64l-.014.2c-.46-.377-1.052-.8-1.051-1.467.117-.683.882-.85,1.444-.984l-.017.072c-.442-.364-1-.743-1.015-1.384.063-.654.732-.976,1.28-1.161l-.05.18a1.757,1.757,0,0,1-.6-1.7A1.857,1.857,0,0,1,0,0" fill="#064a9c"/>
      </g>
      <g id="Grupo_1163" data-name="Grupo 1163" transform="translate(16.072 -16.688)">
        <path id="Caminho_1692" data-name="Caminho 1692" d="M0,0C-1.273.5-1.32,1.17-.295,2.017a.1.1,0,0,1,.006.149,3.515,3.515,0,0,0-.667.54c-.75.8-.255,1.553.572,2a.078.078,0,0,1,.013.121c-.637.613-1.23,1.578-.106,2.036L-.118,7a.13.13,0,0,1,.083.169c-.608.783-.95,1.709.042,2.339a1.246,1.246,0,0,1-.63-1.837,2.887,2.887,0,0,1,.371-.63l.063.2c-1.027-.276-1.55-.98-.854-1.933a3.034,3.034,0,0,1,.569-.6l.01.125c-.834-.552-1.3-1.332-.6-2.223a2.707,2.707,0,0,1,.647-.611l-.012.171C-.819,1.849-1.274,1.428-1.2.861c.131-.554.708-.779,1.2-.885Z" fill="#064a9c"/>
      </g>
      <g id="Grupo_1164" data-name="Grupo 1164" transform="translate(13.783 -16.086)">
        <path id="Caminho_1693" data-name="Caminho 1693" d="M0,0C-1.015.344-.938.918-.461,1.7A.076.076,0,0,1-.5,1.806c-1.242.471-1.181,1.361-.175,2.082A.129.129,0,0,1-.7,4.1c-.535.288-1.076.8-.539,1.375a4.4,4.4,0,0,0,.492.43l-.012.022c-.416-.193-.888-.454-.931-.978,0-.531.462-.865.884-1.075l-.024.211-.283-.26c-.854-.837-.37-1.683.552-2.165L-.6,1.78A1.366,1.366,0,0,1-.994.627,1.024,1.024,0,0,1,0-.024Z" fill="#064a9c"/>
      </g>
      <g id="Grupo_1165" data-name="Grupo 1165" transform="translate(29.034 -14.306)">
        <path id="Caminho_1694" data-name="Caminho 1694" d="M0,0A1.364,1.364,0,0,1-1.364,1.364,1.365,1.365,0,0,1-2.729,0,1.365,1.365,0,0,1-1.364-1.364,1.364,1.364,0,0,1,0,0" fill="#fff"/>
      </g>
      <g id="Grupo_1166" data-name="Grupo 1166" transform="translate(29.03 -14.306)">
        <path id="Caminho_1695" data-name="Caminho 1695" d="M0,0A1.352,1.352,0,0,0-2.7,0,1.351,1.351,0,0,0,0,0M.008,0A1.378,1.378,0,1,1-2.747,0,1.378,1.378,0,1,1,.008,0" fill="#0f396a"/>
      </g>
      <g id="Grupo_1167" data-name="Grupo 1167" transform="translate(28.553 -14.306)">
        <path id="Caminho_1696" data-name="Caminho 1696" d="M0,0A.883.883,0,0,1-.883.883.883.883,0,0,1-1.766,0,.883.883,0,0,1-.883-.883.883.883,0,0,1,0,0" fill="#2b2e34"/>
      </g>
      <g id="Grupo_1168" data-name="Grupo 1168" transform="translate(13.251 -0.959)">
        <path id="Caminho_1697" data-name="Caminho 1697" d="M0,0S5.512,3.519,9.276-3.383c0,0-2.751-1.364-4.831,0S1.406.092,0,0" fill="#064a9c"/>
      </g>
      <g id="Grupo_1169" data-name="Grupo 1169" transform="translate(13.243 -0.961)">
        <path id="Caminho_1698" data-name="Caminho 1698" d="M0,0C.944-.019,1.558-.805,2.167-1.421c2.153-2.455,3.96-3.407,7.138-2l.046.021-.025.045A11.188,11.188,0,0,1,7.683-1.089,5.873,5.873,0,0,1,0,0M.016,0A6.234,6.234,0,0,0,7.644-1.127,10.175,10.175,0,0,0,9.241-3.4l.021.066A6.639,6.639,0,0,0,6.689-3.9C4.822-3.991,3.468-2.568,2.251-1.339,1.641-.75.944.072.016,0" fill="#0f396a"/>
      </g>
      <g id="Grupo_1170" data-name="Grupo 1170" transform="translate(31.971 -10.646)">
        <path id="Caminho_1699" data-name="Caminho 1699" d="M0,0C-.963.279-2.74.859-3.5-.02A7.512,7.512,0,0,0,0,0" fill="#2290bf"/>
      </g>
      <g id="Grupo_1171" data-name="Grupo 1171" transform="translate(21.322 -27.353)">
        <path id="Caminho_1700" data-name="Caminho 1700" d="M0,0S2.661.843,2.661,2.588a9.2,9.2,0,0,1-.3,2.648A4.811,4.811,0,0,0,0,0" fill="#80cbed"/>
      </g>
    </g>
  </g>
</svg>
