<svg xmlns="http://www.w3.org/2000/svg" xmlns:xlink="http://www.w3.org/1999/xlink" width="33.605" height="21.962" viewBox="0 0 33.605 21.962">
  <defs>
    <clipPath id="clip-path">
      <path id="Caminho_1838" data-name="Caminho 1838" d="M0,0H33.6V-21.962H0Z" fill="none"/>
    </clipPath>
  </defs>
  <g id="alfabeto_t_fim" transform="translate(0 21.962)">
    <g id="Grupo_1305" data-name="Grupo 1305" clip-path="url(#clip-path)">
      <g id="Grupo_1243" data-name="Grupo 1243" transform="translate(19.695 -8.549)">
        <path id="Caminho_1776" data-name="Caminho 1776" d="M0,0S2.919,3.823,4.672,3.372.946-2.915.946-2.915Z" fill="#607940"/>
      </g>
      <g id="Grupo_1244" data-name="Grupo 1244" transform="translate(19.711 -8.561)">
        <path id="Caminho_1777" data-name="Caminho 1777" d="M0,0C.812.818,1.614,1.629,2.472,2.363c.6.506,1.375,1.192,2.211.938.269-.078.257-.392.18-.639A12.734,12.734,0,0,0,3.015-.162C2.366-1.076,1.5-2,.945-2.916a20.719,20.719,0,0,1,2.389,2.5A8.8,8.8,0,0,1,5.065,2.612c.243,1.683-2.152.512-2.79,0A8.426,8.426,0,0,1,0,0" fill="#4b5b30"/>
      </g>
      <g id="Grupo_1245" data-name="Grupo 1245" transform="translate(22.38 -6.523)">
        <path id="Caminho_1778" data-name="Caminho 1778" d="M0,0A1.9,1.9,0,0,1-.743-.157C-1-.39-1.25-.629-1.5-.872l.051,0c.326-.039,1.185-.122,1.5-.16.346-.05.7-.11,1.047-.178.168.225.332.453.484.686-.091.172-.432.266-1.074.453A1.789,1.789,0,0,1,0,0" fill="#546837"/>
      </g>
      <g id="Grupo_1246" data-name="Grupo 1246" transform="translate(21.638 -6.68)">
        <path id="Caminho_1779" data-name="Caminho 1779" d="M0,0A2.746,2.746,0,0,1-.952-.706l.195-.009c.25.243.5.482.757.715M2.325-.369C2.173-.6,2.009-.831,1.84-1.056l.2-.04c.257.373.362.578.283.727" fill="#4b5b30"/>
      </g>
      <g id="Grupo_1247" data-name="Grupo 1247" transform="translate(10.513 -10.3)">
        <path id="Caminho_1780" data-name="Caminho 1780" d="M0,0S5.937,5.008,15.309,1.835l-1.571-3.7L6.287-4.323Z" fill="#dee9a3"/>
      </g>
      <g id="Grupo_1248" data-name="Grupo 1248" transform="translate(10.525 -10.314)">
        <path id="Caminho_1781" data-name="Caminho 1781" d="M0,0A17.853,17.853,0,0,0,9.4,2.817l1-.017.991-.12a16.381,16.381,0,0,0,1.956-.389c.642-.171,1.267-.4,1.9-.591l-.095.211C14.744,1,13.938-.849,13.539-1.767l.123.113c-1.244-.4-2.478-.837-3.711-1.274-1.2-.46-2.577-.856-3.671-1.4,2.523.7,5.025,1.466,7.509,2.287l.088.03.035.084c.419,1.008,1.19,2.869,1.6,3.88a27.427,27.427,0,0,1-3.6.8c-.315.038-1.174.121-1.5.16a24.73,24.73,0,0,1-3.019.014,13.3,13.3,0,0,1-3.933-.889A10.074,10.074,0,0,1,0,0" fill="#a9b575"/>
      </g>
      <g id="Grupo_1249" data-name="Grupo 1249" transform="translate(8.359 -15.713)">
        <path id="Caminho_1782" data-name="Caminho 1782" d="M0,0A23.38,23.38,0,0,0-6.461,1.091c-2.853,1.033-1.747,4.148-.815,5.487s1.106-.291,1.106-.291.582-2.27.7-3.085,8.906.351,8.906.351Z" fill="#607940"/>
      </g>
      <g id="Grupo_1250" data-name="Grupo 1250" transform="translate(8.359 -15.694)">
        <path id="Caminho_1783" data-name="Caminho 1783" d="M0,0C-2.387.286-5.031.5-7.182,1.6-8.87,2.7-8.207,5.136-7.2,6.5c.513.7.8.573.891-.258.228-1.021.483-2.046.649-3.066.055-.349.471-.386.731-.434a26.7,26.7,0,0,1,5.357.3c1.008.134,2.013.287,3.014.472l-.005.038a76.614,76.614,0,0,0-8.315-.414,1.178,1.178,0,0,0-.41.1l.011-.032-.021.12c-.235,1.183-.546,2.348-.852,3.438C-6.871,8.241-7.965,5.52-8.14,4.89c-.689-2.277.268-3.747,2.552-4.273A17.354,17.354,0,0,1,0,0" fill="#4b5b30"/>
      </g>
      <g id="Grupo_1251" data-name="Grupo 1251" transform="translate(6.699 -12.883)">
        <path id="Caminho_1784" data-name="Caminho 1784" d="M0,0C-.7-.069-1.4-.119-2.1-.119H-2.16L-4.6-1.617c.327-.126.664-.236,1.005-.334q.216.135.441.263C-2.124-1.113-1-.639,0,0" fill="#546837"/>
      </g>
      <g id="Grupo_1252" data-name="Grupo 1252" transform="translate(6.984 -12.694)">
        <path id="Caminho_1785" data-name="Caminho 1785" d="M0,0-2.1-.1l-.348-.213h.057c.7,0,1.4.05,2.1.12.1.061.191.124.284.189M-4.887-1.806l-.2-.123,1.029-.323c.058.038.117.075.176.112-.342.1-.678.208-1.006.334" fill="#4b5b30"/>
      </g>
      <g id="Grupo_1253" data-name="Grupo 1253" transform="translate(23.151 -8.772)">
        <path id="Caminho_1786" data-name="Caminho 1786" d="M0,0A17.79,17.79,0,0,1,2.969,3.143C3.58,4.279,6.025,6.2,10.216,6.287c0,0,.524-.437-.7-1.659S5.763.7,3.4,0A6.016,6.016,0,0,0,5.164-1.222Z" fill="#8cb163"/>
      </g>
      <g id="Grupo_1254" data-name="Grupo 1254" transform="translate(23.163 -8.786)">
        <path id="Caminho_1787" data-name="Caminho 1787" d="M0,0A15.138,15.138,0,0,1,2.857,2.712a5.635,5.635,0,0,0,1.518,1.7,9.173,9.173,0,0,0,5.831,1.775l-.076.027a.488.488,0,0,0,.01-.443A4.307,4.307,0,0,0,9.046,4.428C8.473,3.86,7.892,3.305,7.3,2.771A12.2,12.2,0,0,0,3.065.023a8.555,8.555,0,0,0,1.223-.6,4.347,4.347,0,0,0,.849-.642l.029.024A5.29,5.29,0,0,1,3.442.123L3.427-.1A10.856,10.856,0,0,1,7.566,2.471c.6.547,1.168,1.13,1.728,1.71A4.213,4.213,0,0,1,10.4,5.688a.688.688,0,0,1-.151.732l-.048,0A12.564,12.564,0,0,1,4.2,4.659a4.744,4.744,0,0,1-1.178-1.1,8.818,8.818,0,0,0-.89-1.271C1.456,1.5.715.767-.025.029Z" fill="#79994b"/>
      </g>
      <g id="Grupo_1255" data-name="Grupo 1255" transform="translate(12.9 -11.988)">
        <path id="Caminho_1788" data-name="Caminho 1788" d="M0,0A18.129,18.129,0,0,1-2.328,2.561c-.815.582,0,3.187,0,3.187s1.164,4.963.232,6.069c0,0-3.609-.379-4.948-6.069,0,0-.465-4.584,2.736-5.108A8.069,8.069,0,0,0-7.451-1.8C-9.6-2.794-13.388-4.89-12.457-7.858S-10.594-9.663-7.8-9.139-4.308-4.89-4.308-4.89Z" fill="#8cb163"/>
      </g>
      <g id="Grupo_1256" data-name="Grupo 1256" transform="translate(12.915 -11.976)">
        <path id="Caminho_1789" data-name="Caminho 1789" d="M0,0A15.4,15.4,0,0,1-2.224,2.586c-.441.331-.366.978-.33,1.477.263,1.574.758,3.1.892,4.7a5.069,5.069,0,0,1-.328,3.141l-.055.069-.082-.014A5.84,5.84,0,0,1-5.791,9.126,12.252,12.252,0,0,1-7.116,5.75a8.071,8.071,0,0,1,.027-1.615C-6.96,2.53-6.086.774-4.344.5l-.087.2C-5.645-.95-7.639-1.63-9.372-2.6c-2.761-1.569-4.71-4.034-2.428-7,.6-.653,1.627-.33,2.32-.128.486.142.966.28,1.455.384,2.152.314,3.349,2.486,3.721,4.436l-.037.007c-.473-1.866-1.664-3.92-3.742-4.161-2.489-.48-3.564-1.584-4.3,1.679-.278,2.06,1.633,3.486,3.2,4.464,1.76,1,3.766,1.726,4.967,3.471L-4.1.718-4.3.758C-6.589,1.083-7.151,3.81-7,5.723a14.92,14.92,0,0,0,.635,1.955A7.345,7.345,0,0,0-3.91,10.871a4.531,4.531,0,0,0,1.816.778l-.137.055a2.575,2.575,0,0,0,.313-1.382,22.056,22.056,0,0,0-.569-4.551c-.214-.876-.739-2.668.14-3.348A28.514,28.514,0,0,0,0,0" fill="#79994b"/>
      </g>
      <g id="Grupo_1257" data-name="Grupo 1257" transform="translate(25.628 -9.358)">
        <path id="Caminho_1790" data-name="Caminho 1790" d="M0,0C-.162-.4-.339-.823-.511-1.241l2.544.76L0,0M-12.806-2.529l.078-.1-2.7-3.06,5.033,1.5-2.36,1.623.039-.052c-.031.028-.061.057-.091.087Z" fill="#8c9474"/>
      </g>
      <g id="Grupo_1258" data-name="Grupo 1258" transform="translate(20.676 -7.861)">
        <path id="Caminho_1791" data-name="Caminho 1791" d="M0,0A14.612,14.612,0,0,1-8.646-2.952c.29-.363.567-.738.846-1.111l2.36-1.623L3.974-2.877c.212.487.438,1,.64,1.46L2.5-.916,2.487-.925l-.012.014h0L2.463-.9l.572.572A14.685,14.685,0,0,1,0,0M-7.857-4.023l0,0,0,0,0,.005" fill="#818f58"/>
      </g>
      <g id="Grupo_1259" data-name="Grupo 1259" transform="translate(25.29 -9.278)">
        <path id="Caminho_1792" data-name="Caminho 1792" d="M0,0C-.2-.458-.428-.973-.641-1.46l.468.139C0-.9.176-.475.338-.08Z" fill="#6f7e4a"/>
      </g>
      <g id="Grupo_1260" data-name="Grupo 1260" transform="translate(23.875 -8.221)">
        <path id="Caminho_1793" data-name="Caminho 1793" d="M0,0Q-.347-.285-.7-.556l2.115-.5.338-.08,2.034-.482.337.1c-.047.037-.094.073-.142.108A18.277,18.277,0,0,1,0,0M-.724-.551Z" fill="#657d43"/>
      </g>
      <g id="Grupo_1261" data-name="Grupo 1261" transform="translate(23.711 -8.185)">
        <path id="Caminho_1794" data-name="Caminho 1794" d="M0,0Q-.285-.286-.572-.572L-.56-.586h0L-.547-.6l.011.009q.353.273.7.556L0,0M4.147-1.446q.072-.052.141-.108l.049.015c-.063.032-.127.063-.19.093" fill="#5e753b"/>
      </g>
      <g id="Grupo_1262" data-name="Grupo 1262" transform="translate(11.921 -10.893)">
        <path id="Caminho_1795" data-name="Caminho 1795" d="M0,0A19.8,19.8,0,0,1-4.787-5.072l3.07.916L.979-1.1.9-.994l0,0C.6-.7.3-.349,0,0" fill="#657d43"/>
      </g>
      <g id="Grupo_1263" data-name="Grupo 1263" transform="translate(12.03 -10.813)">
        <path id="Caminho_1796" data-name="Caminho 1796" d="M0,0-.109-.08c.3-.349.6-.7.9-.991l.006,0,.09-.087-.039.052C.567-.738.29-.363,0,0" fill="#5e753b"/>
      </g>
      <g id="Grupo_1264" data-name="Grupo 1264" transform="translate(7.134 -15.964)">
        <path id="Caminho_1797" data-name="Caminho 1797" d="M0,0A2.928,2.928,0,0,0,.891-.7a11.456,11.456,0,0,1,10.74-3.929c6.811,1.223,10.3,8.47,10.3,8.47s.262.96.524.873c0,0-1.833,3.57-10.7,2.625a14.381,14.381,0,0,1-6.272-2.2C3.449,3.831.923,1.916,0,0" fill="#424f36"/>
      </g>
      <g id="Grupo_1265" data-name="Grupo 1265" transform="translate(7.152 -15.958)">
        <path id="Caminho_1798" data-name="Caminho 1798" d="M0,0A14.427,14.427,0,0,0,4.595,4.377,16.815,16.815,0,0,0,7.362,5.964,19.091,19.091,0,0,0,16.75,7.181c2.019-.253,4.325-.808,5.583-2.527l.146.169a.255.255,0,0,1-.234-.052,1.98,1.98,0,0,1-.429-.908c-3.054-6.07-9.535-10.4-16.42-7.7A12.361,12.361,0,0,0,1.276-1.07,3.763,3.763,0,0,1,0,0M-.036-.013A4.068,4.068,0,0,0,1.181-1.158,11.568,11.568,0,0,1,2.4-2.335,11.136,11.136,0,0,1,12.8-4.5C16.858-3.19,19.964.134,22.011,3.79a2.022,2.022,0,0,0,.391.8l.146.17a5.513,5.513,0,0,1-2.593,1.99A17.994,17.994,0,0,1,7.215,6.29,21.762,21.762,0,0,1,1.921,2.568,8.786,8.786,0,0,1-.036-.013" fill="#303727"/>
      </g>
      <g id="Grupo_1266" data-name="Grupo 1266" transform="translate(7.695 -16.334)">
        <path id="Caminho_1799" data-name="Caminho 1799" d="M0,0C5.964,5.665,13.811,9.162,21.594,4.8l.01.017a14.152,14.152,0,0,1-3.4,1.562C11.91,8.4,4.214,4.617,0,0" fill="#a9b575"/>
      </g>
      <g id="Grupo_1267" data-name="Grupo 1267" transform="translate(7.858 -14.83)">
        <path id="Caminho_1800" data-name="Caminho 1800" d="M0,0A35.485,35.485,0,0,0,3.314-2.479l-.037.1A14.954,14.954,0,0,1,2.969-4.25l.018,0a15.561,15.561,0,0,1,.5,1.9c-.436.327-.9.62-1.342.934A6.673,6.673,0,0,1,0,0" fill="#a9b575"/>
      </g>
      <g id="Grupo_1268" data-name="Grupo 1268" transform="translate(9.251 -13.36)">
        <path id="Caminho_1801" data-name="Caminho 1801" d="M0,0C1.353-.732,2.8-1.248,4.155-1.982l-.032.044c.025-.325.056-.65.091-.974s.066-.649.112-.971l.1.112q-1.223,0-2.445-.09A20.082,20.082,0,0,1,4.425-3.97h.11c-.08.7-.187,1.389-.3,2.079C2.8-1.327,1.475-.357,0,0" fill="#a9b575"/>
      </g>
      <g id="Grupo_1269" data-name="Grupo 1269" transform="translate(10.839 -12.06)">
        <path id="Caminho_1802" data-name="Caminho 1802" d="M0,0C.442-.208.907-.636,1.4-.6A3.372,3.372,0,0,1,0,0" fill="#a9b575"/>
      </g>
      <g id="Grupo_1270" data-name="Grupo 1270" transform="translate(13.668 -10.266)">
        <path id="Caminho_1803" data-name="Caminho 1803" d="M0,0C.59-1.414,1.575-2.6,2.243-3.98l.04.131A21.088,21.088,0,0,1,0-5.016l.008-.017A21.671,21.671,0,0,1,2.453-3.97c-.408.681-.908,1.308-1.263,2.021A12.229,12.229,0,0,1,0,0" fill="#a9b575"/>
      </g>
      <g id="Grupo_1271" data-name="Grupo 1271" transform="translate(13.668 -17.235)">
        <path id="Caminho_1804" data-name="Caminho 1804" d="M0,0C.235-.709.818-1.2,1.1-1.886l.011.091A7.024,7.024,0,0,1-.112-3.077L-.1-3.09A7.134,7.134,0,0,1,1.259-1.851C.749-1.3.56-.467,0,0" fill="#a9b575"/>
      </g>
      <g id="Grupo_1272" data-name="Grupo 1272" transform="translate(14.837 -19.091)">
        <path id="Caminho_1805" data-name="Caminho 1805" d="M0,0C.833.271,1.658.563,2.477.87c.328.667.63,1.347.924,2.029l-.031.027c-.75.643-1.475,1.314-2.184,2l-.016-.08c1.175.4,2.347.814,3.511,1.248l.06.023,0,.064c.073,1.05.127,2.211.165,3.268l-.042,1.091H4.849C4.817,9.128,4.624,7.6,4.547,6.2l.064.087C3.447,5.852,2.291,5.4,1.137,4.938l-.074-.03.058-.05c.743-.652,1.47-1.321,2.17-2.018l-.013.068c-.323-.641-.639-1.286-.93-1.941l.043.04C1.6.681.727.381,0,0" fill="#a9b575"/>
      </g>
      <g id="Grupo_1273" data-name="Grupo 1273" transform="translate(19.215 -20.496)">
        <path id="Caminho_1806" data-name="Caminho 1806" d="M0,0A2.7,2.7,0,0,1-.716.892a5.272,5.272,0,0,1-1.25,1.439A6.188,6.188,0,0,1-.763.853,2.256,2.256,0,0,1,0,0" fill="#a9b575"/>
      </g>
      <g id="Grupo_1274" data-name="Grupo 1274" transform="translate(22.733 -19.077)">
        <path id="Caminho_1807" data-name="Caminho 1807" d="M0,0A13.417,13.417,0,0,1-1.309,2.058a18.4,18.4,0,0,1-3.254.82l0-.018a16.906,16.906,0,0,1,3.212-.846A10.69,10.69,0,0,1,0,0" fill="#a9b575"/>
      </g>
      <g id="Grupo_1275" data-name="Grupo 1275" transform="translate(21.413 -17.046)">
        <path id="Caminho_1808" data-name="Caminho 1808" d="M0,0C.175.983-.058,1.968.067,2.953a11.994,11.994,0,0,1-1.992,1.2l-.011-.016A12.009,12.009,0,0,1-.05,2.853l-.035.063c.013-.243.044-.486.044-.729A8.715,8.715,0,0,1,0,0" fill="#a9b575"/>
      </g>
      <g id="Grupo_1276" data-name="Grupo 1276" transform="translate(21.403 -14.139)">
        <path id="Caminho_1809" data-name="Caminho 1809" d="M0,0A14.709,14.709,0,0,1,2.48-.2c.275-.026.549-.077.824-.1l-.057.03a13.931,13.931,0,0,1,1.535-1.8l.015.012A14.019,14.019,0,0,1,3.348-.141C2.236-.211,1.077.151,0,0" fill="#a9b575"/>
      </g>
      <g id="Grupo_1277" data-name="Grupo 1277" transform="translate(24.722 -14.363)">
        <path id="Caminho_1810" data-name="Caminho 1810" d="M0,0C.488,1.027.592,2.164,1.045,3.2c.106.322.274.806.319,1.052a5.446,5.446,0,0,1,.462.949C1.6,4.93,1.4,4.638,1.2,4.346,1.075,3.988.977,3.621.879,3.254.7,2.144.094,1.093,0,0" fill="#a9b575"/>
      </g>
      <g id="Grupo_1278" data-name="Grupo 1278" transform="translate(16.571 -8.931)">
        <path id="Caminho_1811" data-name="Caminho 1811" d="M0,0C.151-.464.157-1.1.517-1.43A3.393,3.393,0,0,1,0,0" fill="#a9b575"/>
      </g>
      <g id="Grupo_1279" data-name="Grupo 1279" transform="translate(21.629 -8.302)">
        <path id="Caminho_1812" data-name="Caminho 1812" d="M0,0C-.039-.364-.267-.9-.065-1.216a.954.954,0,0,1,.108.6A2.672,2.672,0,0,1,0,0" fill="#a9b575"/>
      </g>
      <g id="Grupo_1280" data-name="Grupo 1280" transform="translate(24.095 -8.448)">
        <path id="Caminho_1813" data-name="Caminho 1813" d="M0,0C-.107-.35-.434-.837-.3-1.181A.958.958,0,0,1-.074-.61,2.7,2.7,0,0,1,0,0" fill="#a9b575"/>
      </g>
      <g id="Grupo_1281" data-name="Grupo 1281" transform="translate(28.573 -9.989)">
        <path id="Caminho_1814" data-name="Caminho 1814" d="M0,0C-.17-.261-.587-.611-.517-.927A.742.742,0,0,1-.193-.5,2.02,2.02,0,0,1,0,0" fill="#a9b575"/>
      </g>
      <g id="Grupo_1282" data-name="Grupo 1282" transform="translate(2.693 -20.015)">
        <path id="Caminho_1815" data-name="Caminho 1815" d="M0,0A.856.856,0,0,1,1.153-.34.855.855,0,0,1,1.309.852a.855.855,0,0,1-1.153.34A.856.856,0,0,1,0,0" fill="#fff"/>
      </g>
      <g id="Grupo_1283" data-name="Grupo 1283" transform="translate(2.7 -20.01)">
        <path id="Caminho_1816" data-name="Caminho 1816" d="M0,0A.752.752,0,1,0,1.258.818C1.935-.109.607-.861,0,0M-.016-.01C.726-1.149,1.941-.243,1.345.875a.908.908,0,0,1-1.252.4A.9.9,0,0,1-.016-.01" fill="#2b2e34"/>
      </g>
      <g id="Grupo_1284" data-name="Grupo 1284" transform="translate(2.707 -20.038)">
        <path id="Caminho_1817" data-name="Caminho 1817" d="M0,0C.241-.371.614-.556.832-.414s.2.557-.042.928S.177,1.07-.042.928-.241.371,0,0" fill="#2b2e34"/>
      </g>
      <g id="Grupo_1285" data-name="Grupo 1285" transform="translate(0.307 -19.471)">
        <path id="Caminho_1818" data-name="Caminho 1818" d="M0,0A7.574,7.574,0,0,0,.8,1.068c.572.473,1.327.48,1.859.775.046.018.193.183.123.2a.28.28,0,0,0-.167-.113,3.578,3.578,0,0,0-.651-.114,3.373,3.373,0,0,1-1.2-.7A1.473,1.473,0,0,1,0,0" fill="#303727"/>
      </g>
      <g id="Grupo_1286" data-name="Grupo 1286" transform="translate(21.763 -19.126)">
        <path id="Caminho_1819" data-name="Caminho 1819" d="M0,0A15.044,15.044,0,0,1,5.323,4.967s.212.571-.433-.2A17.875,17.875,0,0,0,.147.43C-2.282-.959,0,0,0,0" fill="#f9fae9"/>
      </g>
      <g id="Grupo_1287" data-name="Grupo 1287" transform="translate(5.901 -19.909)">
        <path id="Caminho_1820" data-name="Caminho 1820" d="M0,0C-.09.156-.354.171-.591.035S-.946-.338-.856-.494-.5-.665-.265-.529.09-.156,0,0" fill="#79994b"/>
      </g>
      <g id="Grupo_1288" data-name="Grupo 1288" transform="translate(6.877 -19.074)">
        <path id="Caminho_1821" data-name="Caminho 1821" d="M0,0A.334.334,0,0,1-.439.135C-.635.07-.755-.1-.708-.237A.333.333,0,0,1-.269-.372C-.074-.307.047-.14,0,0" fill="#79994b"/>
      </g>
      <g id="Grupo_1289" data-name="Grupo 1289" transform="translate(5.882 -19.126)">
        <path id="Caminho_1822" data-name="Caminho 1822" d="M0,0A.237.237,0,0,1-.311.109.237.237,0,0,1-.494-.166.237.237,0,0,1-.183-.274.238.238,0,0,1,0,0" fill="#79994b"/>
      </g>
      <g id="Grupo_1290" data-name="Grupo 1290" transform="translate(10.374 -2.481)">
        <path id="Caminho_1823" data-name="Caminho 1823" d="M0,0C-.216.049-.451-.178-.525-.506s.042-.633.258-.681.451.177.525.505S.216-.049,0,0" fill="#79994b"/>
      </g>
      <g id="Grupo_1291" data-name="Grupo 1291" transform="translate(10.433 -0.901)">
        <path id="Caminho_1824" data-name="Caminho 1824" d="M0,0C-.166.075-.385-.053-.489-.285A.41.41,0,0,1-.376-.839c.166-.075.385.053.489.284A.413.413,0,0,1,0,0" fill="#79994b"/>
      </g>
      <g id="Grupo_1292" data-name="Grupo 1292" transform="translate(9.649 -1.845)">
        <path id="Caminho_1825" data-name="Caminho 1825" d="M0,0A.291.291,0,0,1-.358-.191a.292.292,0,0,1,.095-.4A.292.292,0,0,1,.095-.4.292.292,0,0,1,0,0" fill="#79994b"/>
      </g>
      <g id="Grupo_1293" data-name="Grupo 1293" transform="translate(9.851 -4.342)">
        <path id="Caminho_1826" data-name="Caminho 1826" d="M0,0A.447.447,0,0,1-.308-.546a.446.446,0,0,1,.481-.4A.446.446,0,0,1,.481-.4.447.447,0,0,1,0,0" fill="#79994b"/>
      </g>
      <g id="Grupo_1294" data-name="Grupo 1294" transform="translate(9.243 -3.33)">
        <path id="Caminho_1827" data-name="Caminho 1827" d="M0,0C-.178.04-.367-.129-.423-.376S-.379-.858-.2-.9s.367.129.423.377S.178-.04,0,0" fill="#79994b"/>
      </g>
      <g id="Grupo_1295" data-name="Grupo 1295" transform="translate(29.35 -4.023)">
        <path id="Caminho_1828" data-name="Caminho 1828" d="M0,0C.047-.194.324-.293.619-.221s.494.287.447.481S.741.553.447.481-.047.194,0,0" fill="#79994b"/>
      </g>
      <g id="Grupo_1296" data-name="Grupo 1296" transform="translate(28.05 -4.608)">
        <path id="Caminho_1829" data-name="Caminho 1829" d="M0,0C.006-.164.2-.29.426-.281s.409.149.4.313S.632.322.4.313-.006.164,0,0" fill="#79994b"/>
      </g>
      <g id="Grupo_1297" data-name="Grupo 1297" transform="translate(32.296 -3.245)">
        <path id="Caminho_1830" data-name="Caminho 1830" d="M0,0A.263.263,0,0,1,.3-.213a.264.264,0,0,1,.28.236.263.263,0,0,1-.3.212A.262.262,0,0,1,0,0" fill="#79994b"/>
      </g>
      <g id="Grupo_1298" data-name="Grupo 1298" transform="translate(31.062 -3.699)">
        <path id="Caminho_1831" data-name="Caminho 1831" d="M0,0A.4.4,0,0,1,.564-.03.4.4,0,0,1,.7.519a.4.4,0,0,1-.564.03A.4.4,0,0,1,0,0" fill="#79994b"/>
      </g>
      <g id="Grupo_1299" data-name="Grupo 1299" transform="translate(30.489 -4.595)">
        <path id="Caminho_1832" data-name="Caminho 1832" d="M0,0A.371.371,0,0,1,.473-.19C.7-.136.844.037.806.2S.555.441.332.387-.039.159,0,0" fill="#79994b"/>
      </g>
      <g id="Grupo_1300" data-name="Grupo 1300" transform="translate(1.543 -9.54)">
        <path id="Caminho_1833" data-name="Caminho 1833" d="M0,0C-.181.018-.348-.173-.373-.425s.1-.473.283-.49.348.172.373.425S.181-.018,0,0" fill="#4b5b30"/>
      </g>
      <g id="Grupo_1301" data-name="Grupo 1301" transform="translate(1.099 -10.685)">
        <path id="Caminho_1834" data-name="Caminho 1834" d="M0,0A.292.292,0,0,1-.279-.295.293.293,0,0,1-.063-.639C.074-.652.2-.52.216-.344A.292.292,0,0,1,0,0" fill="#4b5b30"/>
      </g>
      <g id="Grupo_1302" data-name="Grupo 1302" transform="translate(1.886 -11.106)">
        <path id="Caminho_1835" data-name="Caminho 1835" d="M0,0C-.181-.019-.307-.238-.281-.491s.194-.443.375-.424S.4-.677.375-.424.181.019,0,0" fill="#4b5b30"/>
      </g>
      <g id="Grupo_1303" data-name="Grupo 1303" transform="translate(22.756 -5.993)">
        <path id="Caminho_1836" data-name="Caminho 1836" d="M0,0A.292.292,0,0,1-.279-.295.293.293,0,0,1-.063-.639C.074-.652.2-.52.216-.344A.292.292,0,0,1,0,0" fill="#4b5b30"/>
      </g>
      <g id="Grupo_1304" data-name="Grupo 1304" transform="translate(23.9 -5.519)">
        <path id="Caminho_1837" data-name="Caminho 1837" d="M0,0C-.181-.019-.307-.238-.281-.491s.194-.443.375-.424S.4-.677.375-.424.181.019,0,0" fill="#4b5b30"/>
      </g>
    </g>
  </g>
</svg>
