<svg xmlns="http://www.w3.org/2000/svg" xmlns:xlink="http://www.w3.org/1999/xlink" width="33.655" height="23.928" viewBox="0 0 33.655 23.928">
  <defs>
    <clipPath id="clip-path">
      <path id="Caminho_1643" data-name="Caminho 1643" d="M0,0H33.655V-23.928H0Z" fill="none"/>
    </clipPath>
  </defs>
  <g id="alfabeto_n_fim" transform="translate(0 23.928)">
    <g id="Grupo_1115" data-name="Grupo 1115" clip-path="url(#clip-path)">
      <g id="Grupo_1078" data-name="Grupo 1078" transform="translate(11.059 -15.35)">
        <path id="Caminho_1606" data-name="Caminho 1606" d="M0,0V-7.325s2.143-2.31,6.811-.639L7.7-2.559,5.141,1.323Z" fill="#636d6b"/>
      </g>
      <g id="Grupo_1079" data-name="Grupo 1079" transform="translate(11.063 -15.353)">
        <path id="Caminho_1607" data-name="Caminho 1607" d="M0,0C-.042.021,5.32,1.278,5.1,1.3,5.092,1.31,7.717-2.669,7.661-2.55L6.786-7.958,6.8-7.94l-.853-.273C4-8.787,1.535-8.677.03-7.322.038-5.207.016-2.147,0,0M-.007,0c0-2.174-.051-5.2-.03-7.342C1.574-8.8,3.969-8.773,5.957-8.25l.858.268.012,0,0,.013c0,.017.913,5.4.915,5.417S5.173,1.329,5.17,1.347l-.016.024-.027-.007Z" fill="#383c3d"/>
      </g>
      <g id="Grupo_1080" data-name="Grupo 1080" transform="translate(7.822 -18.615)">
        <path id="Caminho_1608" data-name="Caminho 1608" d="M0,0C-2.414-.35-3.261.111-3.354.9s-.958.4-.958.4c-2.027-.276-2.432.793-2.432.793s1.142-.3,1.621,0a3.284,3.284,0,0,0,1.032.387s-1.382,1.02-2.1.777a1.207,1.207,0,0,0-1.161.144s1.161.258,1.382.719a1.617,1.617,0,0,0,2.294.092,3.482,3.482,0,0,1,3.9-1.364" fill="#f12c18"/>
      </g>
      <g id="Grupo_1081" data-name="Grupo 1081" transform="translate(7.821 -18.611)">
        <path id="Caminho_1609" data-name="Caminho 1609" d="M0,0C-.99-.077-3.058-.445-3.315.886a.566.566,0,0,1-.364.524,1.019,1.019,0,0,1-.647-.073c-.786-.106-1.957-.071-2.4.767l-.025-.028a2.477,2.477,0,0,1,1.7.043,3.226,3.226,0,0,0,1.012.353,6.484,6.484,0,0,1-.786.5A2.235,2.235,0,0,1-6.1,3.316a1.329,1.329,0,0,0-1.228.119l-.018-.069a4.023,4.023,0,0,1,1.015.374c.351.159.421.553.793.693a1.587,1.587,0,0,0,1.912-.338A3.462,3.462,0,0,1,.228,2.856a3.471,3.471,0,0,0-3.789,1.3,1.667,1.667,0,0,1-2.01.357c-.379-.137-.444-.525-.8-.7a4.116,4.116,0,0,0-1.072-.388A1.355,1.355,0,0,1-6.085,3.25a2.2,2.2,0,0,0,1.236-.326A6.4,6.4,0,0,0-4.1,2.467l.009.036a6.357,6.357,0,0,1-1.286-.488,3.41,3.41,0,0,0-1.4.112c.433-.9,1.61-.971,2.484-.856.389.17.881.119.911-.394C-3.106-.5-1.006-.145,0,0" fill="#ab2218"/>
      </g>
      <g id="Grupo_1082" data-name="Grupo 1082" transform="translate(8.596 -18.974)">
        <path id="Caminho_1610" data-name="Caminho 1610" d="M0,0S-.381-.569-.774.07l.295,4.066.9-.061Z" fill="#636d6b"/>
      </g>
      <g id="Grupo_1083" data-name="Grupo 1083" transform="translate(8.6 -18.975)">
        <path id="Caminho_1611" data-name="Caminho 1611" d="M0,0C.164,1.168.335,2.879.452,4.072l0,.04-.04,0-.9.048H-.506l0-.024L-.57,3.122C-.648,2.217-.761.98-.805.073-.617-.3-.24-.372,0,0M-.008,0C-.286-.355-.577-.208-.751.07l.086,1.015c.055.906.12,2.147.206,3.051l-.026-.023.9-.075L.376,4.08C.245,2.874.072,1.2-.008,0" fill="#383c3d"/>
      </g>
      <g id="Grupo_1084" data-name="Grupo 1084" transform="translate(7.353 -9.747)">
        <path id="Caminho_1612" data-name="Caminho 1612" d="M0,0-.292-3.887S-.686-5.213,1.083-5.361,7.225-5.95,7.225-5.95V-7.621l8.206-.786.639,6.928S1.079,2.806,0,0" fill="#142947"/>
      </g>
      <g id="Grupo_1085" data-name="Grupo 1085" transform="translate(10.728 -11.766)">
        <path id="Caminho_1613" data-name="Caminho 1613" d="M0,0A1.535,1.535,0,0,1,2.077-.431L2.264-1.4.1-1.979l-.621.844Z" fill="#142232"/>
      </g>
      <g id="Grupo_1086" data-name="Grupo 1086" transform="translate(18.046 -9.493)">
        <path id="Caminho_1614" data-name="Caminho 1614" d="M0,0,3.085-.267a.188.188,0,0,0,.172-.2l-.48-5.55a.188.188,0,0,0-.2-.172l-3.085.267a.188.188,0,0,0-.172.2L-.2-.172A.188.188,0,0,0,0,0" fill="#ff561c"/>
      </g>
      <g id="Grupo_1087" data-name="Grupo 1087" transform="translate(18.047 -9.485)">
        <path id="Caminho_1615" data-name="Caminho 1615" d="M0,0C-.257.018-.22-.293-.244-.461-.378-1.773-.565-3.179-.668-4.49l-.1-1.154a.314.314,0,0,1,.128-.34.833.833,0,0,1,.323-.055l.577-.045,2.309-.165a.235.235,0,0,1,.25.207l.02.29c.1,1.79.393,3.572.484,5.356-.052.2-.274.2-.434.206C1.931-.129.954-.081,0,0M0-.017C.952-.1,1.923-.222,2.876-.326c.13-.026.269.015.3-.108-.15-1.763-.226-3.548-.416-5.311-.028-.12.022-.428-.187-.409l-2.3.234L-.3-5.866c-.129.026-.258-.016-.289.094a.55.55,0,0,0,0,.113l.1,1.153C-.366-3.2-.306-1.778-.214-.463-.192-.317-.243,0,0-.017" fill="#832216"/>
      </g>
      <g id="Grupo_1088" data-name="Grupo 1088" transform="translate(23.512 -17.713)">
        <path id="Caminho_1616" data-name="Caminho 1616" d="M0,0-9.64.833A.232.232,0,0,1-9.891.622l-.066-.763a.233.233,0,0,1,.211-.251l9.64-.833a.231.231,0,0,1,.251.211l.066.763A.231.231,0,0,1,0,0" fill="#b7bfbe"/>
      </g>
      <g id="Grupo_1089" data-name="Grupo 1089" transform="translate(23.512 -17.718)">
        <path id="Caminho_1617" data-name="Caminho 1617" d="M0,0A.227.227,0,0,0,.2-.231L.173-.579.14-.926a.253.253,0,0,0-.154-.268c-2.581.21-7.091.631-9.729.83a.211.211,0,0,0-.192.212l.028.346.028.348A.249.249,0,0,0-9.73.809C-6.562.581-3.166.214,0,0M0,.009C-2.918.294-6.105.572-9.04.8l-.348.032a1.3,1.3,0,0,1-.354.01.288.288,0,0,1-.174-.3L-9.948.2l-.031-.349a.255.255,0,0,1,.232-.26c1.957-.17,6.449-.6,8.346-.725l1.044-.081A1.261,1.261,0,0,1,0-1.223a.283.283,0,0,1,.169.3L.193-.58l.026.348A.239.239,0,0,1,0,.009" fill="#97a2a0"/>
      </g>
      <g id="Grupo_1090" data-name="Grupo 1090" transform="translate(11.753 -10.913)">
        <path id="Caminho_1618" data-name="Caminho 1618" d="M0,0A1.073,1.073,0,0,1-1.073-1.073,1.073,1.073,0,0,1,0-2.145,1.073,1.073,0,0,1,1.073-1.073,1.073,1.073,0,0,1,0,0M0-3.5A2.557,2.557,0,0,0-2.557-.943,2.557,2.557,0,0,0,0,1.614,2.557,2.557,0,0,0,2.557-.943,2.557,2.557,0,0,0,0-3.5" fill="#fff"/>
      </g>
      <g id="Grupo_1091" data-name="Grupo 1091" transform="translate(11.753 -14.422)">
        <path id="Caminho_1619" data-name="Caminho 1619" d="M0,0A2.589,2.589,0,0,1,1.866,4.432a2.652,2.652,0,0,1-3.7-.037A2.551,2.551,0,0,1,0,0M0,.017A2.585,2.585,0,0,0-1.786,4.352,2.494,2.494,0,0,0,1.75,4.315,2.545,2.545,0,0,0,0,.017" fill="#e1e5e4"/>
      </g>
      <g id="Grupo_1092" data-name="Grupo 1092" transform="translate(11.753 -10.922)">
        <path id="Caminho_1620" data-name="Caminho 1620" d="M0,0A1.047,1.047,0,0,0,0-2.088C-1.362-2.139-1.278-.037,0,0M0,.018a1.1,1.1,0,1,1,0-2.2,1.1,1.1,0,1,1,0,2.2" fill="#e1e5e4"/>
      </g>
      <g id="Grupo_1093" data-name="Grupo 1093" transform="translate(11.458 -12.938)">
        <path id="Caminho_1621" data-name="Caminho 1621" d="M0,0-.123-1.777H.295V0" fill="#ac6238"/>
      </g>
      <g id="Grupo_1094" data-name="Grupo 1094" transform="translate(11.449 -12.937)">
        <path id="Caminho_1622" data-name="Caminho 1622" d="M0,0A9.059,9.059,0,0,1-.15-1.808l.036,0c.16-.009.321-.028.481-.04.019.32.037.641.027.961A3.641,3.641,0,0,1,.295,0,7.656,7.656,0,0,1,.237-1.778L.3-1.711c-.139-.011-.279-.027-.418-.035l.032-.034A6.7,6.7,0,0,1,0,0" fill="#834623"/>
      </g>
      <g id="Grupo_1095" data-name="Grupo 1095" transform="translate(12.646 -12.234)">
        <path id="Caminho_1623" data-name="Caminho 1623" d="M0,0,1.907-.123V.248L-.009.377" fill="#ac6238"/>
      </g>
      <g id="Grupo_1096" data-name="Grupo 1096" transform="translate(12.646 -12.242)">
        <path id="Caminho_1624" data-name="Caminho 1624" d="M0,0A10.576,10.576,0,0,1,1.938-.15l0,.036.031.371,0,.055A8.793,8.793,0,0,1-.008.4,7.025,7.025,0,0,1,1.9.193l-.06.064.031-.371.035.033A7.847,7.847,0,0,1,0,0" fill="#834623"/>
      </g>
      <g id="Grupo_1097" data-name="Grupo 1097" transform="translate(10.791 -11.986)">
        <path id="Caminho_1625" data-name="Caminho 1625" d="M0,0-1.777.129V.44L.176.315" fill="#ac6238"/>
      </g>
      <g id="Grupo_1098" data-name="Grupo 1098" transform="translate(10.791 -11.977)">
        <path id="Caminho_1626" data-name="Caminho 1626" d="M0,0A8.268,8.268,0,0,1-1.776.152l.029-.031c0,.1.015.207.023.31L-1.781.377c.323-.048.648-.083.974-.1A4.2,4.2,0,0,1,.176.315,8.1,8.1,0,0,1-1.837.484l0-.053C-1.822.318-1.81.2-1.808.09A6.959,6.959,0,0,1,0,0" fill="#834623"/>
      </g>
      <g id="Grupo_1099" data-name="Grupo 1099" transform="translate(11.753 -11.01)">
        <path id="Caminho_1627" data-name="Caminho 1627" d="M0,0V1.356H.319V0" fill="#ac6238"/>
      </g>
      <g id="Grupo_1100" data-name="Grupo 1100" transform="translate(11.762 -11.01)">
        <path id="Caminho_1628" data-name="Caminho 1628" d="M0,0A4.888,4.888,0,0,1,.023,1.356l-.032-.032C.1,1.316.2,1.3.31,1.289l-.067.067A4.5,4.5,0,0,1,.3,0,2.184,2.184,0,0,1,.4.678a6.287,6.287,0,0,1-.03.751c-.137-.014-.276-.035-.413-.044C-.011.933-.185.416,0,0" fill="#834623"/>
      </g>
      <g id="Grupo_1101" data-name="Grupo 1101" transform="translate(33.568 -15.012)">
        <path id="Caminho_1629" data-name="Caminho 1629" d="M0,0A.855.855,0,0,0-.983-.537C-1.671-.344-5.405.786-5.405.786s-.737,0-.934,1.278S-11.056,3.98-11.056,3.98s-15.674,2.162-20.686.688c0,0-1.229-.347-1.622.515s-.3,7.838,1.818,8.968S-10.642,15.3-5.7,12.616C.147,9.447-.049,8.009,0,0" fill="#b7bfbe"/>
      </g>
      <g id="Grupo_1102" data-name="Grupo 1102" transform="translate(33.572 -15.013)">
        <path id="Caminho_1630" data-name="Caminho 1630" d="M0,0C-.012,1.675.013,3.349-.087,5.021a7.563,7.563,0,0,1-1.529,4.7,14.575,14.575,0,0,1-4.059,2.928A16.9,16.9,0,0,1-10.5,14.027a84.667,84.667,0,0,1-15.027.85,38.669,38.669,0,0,1-5.006-.4,3.269,3.269,0,0,1-1.194-.4,2.7,2.7,0,0,1-.783-.983A13.2,13.2,0,0,1-33.536,8.2a8.793,8.793,0,0,1,.207-3.116c.349-.588,1.141-.557,1.72-.4a14.979,14.979,0,0,0,2.475.378,91.612,91.612,0,0,0,15.022-.744c2.448-.336,5.092-.38,7.28-1.643.421-.256.467-.608.572-1.05A1.119,1.119,0,0,1-5.414.771l2.8-.832,1.4-.416A.992.992,0,0,1-.5-.52.994.994,0,0,1,0,0M-.009,0A.984.984,0,0,0-.5-.509a.979.979,0,0,0-.707.046l-1.4.422L-5.405.8a1.077,1.077,0,0,0-.819.833c-.072.2-.072.406-.157.609a1.289,1.289,0,0,1-.427.465C-9,3.99-11.651,4.044-14.1,4.391A89.665,89.665,0,0,1-29.137,5.1a15.086,15.086,0,0,1-2.48-.386c-.572-.156-1.346-.191-1.687.387A8.836,8.836,0,0,0-33.5,8.2a13.194,13.194,0,0,0,1.039,4.87,2.683,2.683,0,0,0,.769.96,3.23,3.23,0,0,0,1.172.383,38.619,38.619,0,0,0,5,.388,84.86,84.86,0,0,0,15.011-.858,17.3,17.3,0,0,0,4.8-1.365A14.561,14.561,0,0,0-1.658,9.682,7.519,7.519,0,0,0-.119,5.019C-.011,3.35-.029,1.674-.009,0" fill="#97a2a0"/>
      </g>
      <g id="Grupo_1103" data-name="Grupo 1103" transform="translate(5.547 -7.563)">
        <path id="Caminho_1631" data-name="Caminho 1631" d="M0,0A.934.934,0,0,1-.934.934.934.934,0,0,1-1.867,0,.934.934,0,0,1-.934-.934.934.934,0,0,1,0,0" fill="#4cbccb"/>
      </g>
      <g id="Grupo_1104" data-name="Grupo 1104" transform="translate(5.529 -7.563)">
        <path id="Caminho_1632" data-name="Caminho 1632" d="M0,0A.853.853,0,0,0-.916-.747.863.863,0,0,0-1.754,0C-1.895,1.127-.032.973,0,0M.035,0C.029,1.518-1.748,1.331-1.946,0A1,1,0,1,1,.035,0" fill="#636d6b"/>
      </g>
      <g id="Grupo_1105" data-name="Grupo 1105" transform="translate(9.339 -7.486)">
        <path id="Caminho_1633" data-name="Caminho 1633" d="M0,0A.934.934,0,0,1-.934.934.934.934,0,0,1-1.867,0,.934.934,0,0,1-.934-.934.934.934,0,0,1,0,0" fill="#4cbccb"/>
      </g>
      <g id="Grupo_1106" data-name="Grupo 1106" transform="translate(9.321 -7.486)">
        <path id="Caminho_1634" data-name="Caminho 1634" d="M0,0A.854.854,0,0,0-.916-.747.863.863,0,0,0-1.754,0C-1.895,1.127-.032.973,0,0M.035,0C.029,1.518-1.748,1.331-1.946,0A1,1,0,1,1,.035,0" fill="#636d6b"/>
      </g>
      <g id="Grupo_1107" data-name="Grupo 1107" transform="translate(17.874 -8.16)">
        <path id="Caminho_1635" data-name="Caminho 1635" d="M0,0A.934.934,0,0,1-.934.934.934.934,0,0,1-1.867,0,.934.934,0,0,1-.934-.934.934.934,0,0,1,0,0" fill="#4cbccb"/>
      </g>
      <g id="Grupo_1108" data-name="Grupo 1108" transform="translate(17.856 -8.16)">
        <path id="Caminho_1636" data-name="Caminho 1636" d="M0,0A.854.854,0,0,0-.916-.747.863.863,0,0,0-1.754,0C-1.895,1.127-.032.973,0,0M.035,0C.029,1.518-1.748,1.331-1.946,0A1,1,0,1,1,.035,0" fill="#636d6b"/>
      </g>
      <g id="Grupo_1109" data-name="Grupo 1109" transform="translate(22.086 -8.842)">
        <path id="Caminho_1637" data-name="Caminho 1637" d="M0,0A.934.934,0,0,1-.934.934.934.934,0,0,1-1.867,0,.934.934,0,0,1-.934-.934.934.934,0,0,1,0,0" fill="#4cbccb"/>
      </g>
      <g id="Grupo_1110" data-name="Grupo 1110" transform="translate(22.069 -8.842)">
        <path id="Caminho_1638" data-name="Caminho 1638" d="M0,0A.853.853,0,0,0-.916-.747.863.863,0,0,0-1.754,0C-1.895,1.127-.032.973,0,0M.035,0C.029,1.518-1.748,1.331-1.946,0A1,1,0,1,1,.035,0" fill="#636d6b"/>
      </g>
      <g id="Grupo_1111" data-name="Grupo 1111" transform="translate(26.766 -10.027)">
        <path id="Caminho_1639" data-name="Caminho 1639" d="M0,0A.934.934,0,0,1-.934.934.934.934,0,0,1-1.867,0,.934.934,0,0,1-.934-.934.934.934,0,0,1,0,0" fill="#4cbccb"/>
      </g>
      <g id="Grupo_1112" data-name="Grupo 1112" transform="translate(26.749 -10.027)">
        <path id="Caminho_1640" data-name="Caminho 1640" d="M0,0A.853.853,0,0,0-.916-.747.863.863,0,0,0-1.754,0C-1.895,1.127-.032.973,0,0M.035,0C.029,1.518-1.748,1.331-1.946,0A1,1,0,1,1,.035,0" fill="#636d6b"/>
      </g>
      <g id="Grupo_1113" data-name="Grupo 1113" transform="translate(31.716 -15.294)">
        <path id="Caminho_1641" data-name="Caminho 1641" d="M0,0S1.829,8.342-3.183,11s-27.263,2.679-27.263,2.679a4.61,4.61,0,0,0,.988.857c.97.611,14.454,1.59,22.33-.556S1.3,8.068,1.3,8.068s.922-5.331.555-7.786C1.852.282,1.684-.738,0,0" fill="#97a2a0"/>
      </g>
      <g id="Grupo_1114" data-name="Grupo 1114" transform="translate(14.578 -16.63)">
        <path id="Caminho_1642" data-name="Caminho 1642" d="M0,0V-.254L8.257-.975l.036.394Z" fill="#142232"/>
      </g>
    </g>
  </g>
</svg>
