<svg xmlns="http://www.w3.org/2000/svg" xmlns:xlink="http://www.w3.org/1999/xlink" width="31.274" height="24.943" viewBox="0 0 31.274 24.943">
  <defs>
    <clipPath id="clip-path">
      <path id="Caminho_1552" data-name="Caminho 1552" d="M0,0H31.274V-24.943H0Z" fill="none"/>
    </clipPath>
  </defs>
  <g id="alfabeto_i_fim" transform="translate(0 24.943)">
    <g id="Grupo_1024" data-name="Grupo 1024" clip-path="url(#clip-path)">
      <g id="Grupo_1010" data-name="Grupo 1010" transform="translate(22.278 -15.261)">
        <path id="Caminho_1538" data-name="Caminho 1538" d="M0,0A9.567,9.567,0,0,1-9.567,9.567,9.567,9.567,0,0,1-19.135,0,9.567,9.567,0,0,1-9.567-9.567,9.567,9.567,0,0,1,0,0" fill="#ff561c"/>
      </g>
      <g id="Grupo_1011" data-name="Grupo 1011" transform="translate(22.262 -15.194)">
        <path id="Caminho_1539" data-name="Caminho 1539" d="M0,0A9.541,9.541,0,0,0-16.206-6.655a9.465,9.465,0,0,0-.069,13.38C-10.356,12.558-.038,8.337,0,0M.033,0a9.552,9.552,0,0,1-13.28,8.923A9.739,9.739,0,0,1-13.278-9,9.631,9.631,0,0,1,.033,0" fill="#d6421d"/>
      </g>
      <g id="Grupo_1012" data-name="Grupo 1012" transform="translate(21.463 -14.879)">
        <path id="Caminho_1540" data-name="Caminho 1540" d="M0,0A9.186,9.186,0,0,1-9.186,9.186,9.186,9.186,0,0,1-18.372,0,9.186,9.186,0,0,1-9.186-9.186,9.186,9.186,0,0,1,0,0" fill="#6cc247"/>
      </g>
      <g id="Grupo_1013" data-name="Grupo 1013" transform="translate(21.447 -14.879)">
        <path id="Caminho_1541" data-name="Caminho 1541" d="M0,0A9.159,9.159,0,0,0-15.555-6.386a9.082,9.082,0,0,0-.069,12.841C-9.945,12.05-.037,8,0,0M.033,0A9.17,9.17,0,0,1-12.72,8.571a9.358,9.358,0,0,1-.03-17.216A9.249,9.249,0,0,1,.033,0" fill="#539b3e"/>
      </g>
      <g id="Grupo_1014" data-name="Grupo 1014" transform="translate(18.144 -11.526)">
        <path id="Caminho_1542" data-name="Caminho 1542" d="M0,0S1,1.853-1.826,4.728a4.5,4.5,0,0,0-1.3,2.486c-.167,1.185.192,2.549,2.555,2.858,0,0,2.237.606,4.928-2.085s8.53-4.208,8.719-.341S8.719,9.768,8.719,9.768,5.4,8.693,4.45,9.034l1.118-.956s3.981.895,4.7,1.084c.816.212,3.227-.851,1.592-2.35-1.537-1.41-4.2-.883-7.859,2.641a7.316,7.316,0,0,1-2.835,1.734,3.674,3.674,0,0,1-3.028-.13C-3.9,9.806-5.383,8.712-3.6,5.336S-.8,0-.8,0Z" fill="#f1cb8c"/>
      </g>
      <g id="Grupo_1015" data-name="Grupo 1015" transform="translate(18.14 -11.519)">
        <path id="Caminho_1543" data-name="Caminho 1543" d="M0,0-.792.007-.779,0-2.927,4.147c-1.115,2.071-2.491,4.436.007,6.117A5.3,5.3,0,0,0-.9,11.318,5.91,5.91,0,0,0,3.358,9.909c.6-.483,1.136-1.064,1.74-1.552A9.928,9.928,0,0,1,9.172,6.086c2.537-.667,5.167,2.394,1.537,3.153a1.4,1.4,0,0,1-.6-.057c-1.438-.373-3.226-.717-4.5-1.073,0,0-1.121.952-1.121.952L4.44,8.985a8.062,8.062,0,0,1,3.307.451c1.889.636,5.171,1.625,5.3-1.4C13.223,5.1,10.292,4.99,8.183,5.75A10.35,10.35,0,0,0,4.014,8.4c-1.62,1.542-4.033,2.383-6.1,1.263-1.577-.831-1.264-3-.37-4.236A10.426,10.426,0,0,1-1.43,4.235C-.457,3.108.553,1.532,0,0M.008-.014C.6,1.53-.391,3.14-1.367,4.289a10.457,10.457,0,0,0-1.017,1.19c-.849,1.2-1.173,3.285.353,4.081C.009,10.643,2.33,9.781,3.922,8.3A10.493,10.493,0,0,1,8.15,5.647c1.492-.474,3.678-.81,4.638.753a2.939,2.939,0,0,1-.254,3.184,2.286,2.286,0,0,1-1.542.592C9.3,10.227,7.76,9.357,6.1,9.129a3.972,3.972,0,0,0-1.633-.06l-.214.071.17-.147,1.114-.96.019-.017.024.006c1.52.338,3.04.672,4.558,1.029a2.093,2.093,0,0,0,2.018-.713c.53-.674-.169-1.436-.755-1.79-1.369-.835-3.06-.184-4.325.569-2.064,1.123-3.4,3.3-5.671,4.071a3.8,3.8,0,0,1-3.437-.159C-3,10.417-4.122,9.708-4.39,8.506c-.308-1.612.7-3.037,1.387-4.4L-.8-.021c0-.005.8.01.808.007" fill="#e0b173"/>
      </g>
      <g id="Grupo_1016" data-name="Grupo 1016" transform="translate(19.201 -15.127)">
        <path id="Caminho_1544" data-name="Caminho 1544" d="M0,0A9.567,9.567,0,0,1-9.567,9.567,9.567,9.567,0,0,1-19.135,0,9.567,9.567,0,0,1-9.567-9.567,9.567,9.567,0,0,1,0,0" fill="#ff561c"/>
      </g>
      <g id="Grupo_1017" data-name="Grupo 1017" transform="translate(17.334 -14.445)">
        <path id="Caminho_1545" data-name="Caminho 1545" d="M0,0A8.347,8.347,0,0,1-8.347,8.347,8.347,8.347,0,0,1-16.694,0,8.347,8.347,0,0,1-8.347-8.347,8.347,8.347,0,0,1,0,0" fill="#6cc247"/>
      </g>
      <g id="Grupo_1018" data-name="Grupo 1018" transform="translate(17.317 -14.445)">
        <path id="Caminho_1546" data-name="Caminho 1546" d="M0,0A8.319,8.319,0,0,0-14.123-5.792a8.243,8.243,0,0,0-.069,11.654C-9.041,10.931-.035,7.254,0,0M.033,0A8.333,8.333,0,0,1-11.56,7.8,8.518,8.518,0,0,1-11.59-7.87,8.409,8.409,0,0,1,.033,0" fill="#539b3e"/>
      </g>
      <g id="Grupo_1019" data-name="Grupo 1019" transform="translate(11.906 -14.445)">
        <path id="Caminho_1547" data-name="Caminho 1547" d="M0,0A2.919,2.919,0,0,1-2.919,2.919,2.919,2.919,0,0,1-5.838,0,2.919,2.919,0,0,1-2.919-2.919,2.919,2.919,0,0,1,0,0" fill="#5766b5"/>
      </g>
      <g id="Grupo_1020" data-name="Grupo 1020" transform="translate(19.185 -15.06)">
        <path id="Caminho_1548" data-name="Caminho 1548" d="M0,0A9.541,9.541,0,0,0-16.206-6.655a9.465,9.465,0,0,0-.069,13.38C-10.356,12.558-.038,8.337,0,0M.033,0a9.552,9.552,0,0,1-13.28,8.923A9.739,9.739,0,0,1-13.278-9,9.631,9.631,0,0,1,.033,0" fill="#d6421d"/>
      </g>
      <g id="Grupo_1021" data-name="Grupo 1021" transform="translate(11.889 -14.445)">
        <path id="Caminho_1549" data-name="Caminho 1549" d="M0,0A2.891,2.891,0,0,0-4.857-1.954,2.73,2.73,0,0,0-2.9,2.782,2.919,2.919,0,0,0,0,0M.033,0A2.956,2.956,0,0,1-2.9,3.056a3.135,3.135,0,0,1-2.174-5.23A2.971,2.971,0,0,1,.033,0" fill="#485ca2"/>
      </g>
      <g id="Grupo_1022" data-name="Grupo 1022" transform="translate(8.784 -14.282)">
        <path id="Caminho_1550" data-name="Caminho 1550" d="M0,0A1.285,1.285,0,0,1-1.714.58a1.285,1.285,0,0,1-.354-1.774,1.284,1.284,0,0,1,1.713-.58A1.285,1.285,0,0,1,0,0" fill="#95a2d3"/>
      </g>
      <g id="Grupo_1023" data-name="Grupo 1023" transform="translate(5.406 -20.16)">
        <path id="Caminho_1551" data-name="Caminho 1551" d="M0,0A8.533,8.533,0,0,1,1.534-.755c.771-.3,2.272-.335.709-.8C-.032-2.242-3.387,1.2-3.671,2.7-3.9,3.94-3.5,4.24-2.42,2.591A6.545,6.545,0,0,1,0,0" fill="#b2dc98"/>
      </g>
    </g>
  </g>
</svg>
