<svg xmlns="http://www.w3.org/2000/svg" xmlns:xlink="http://www.w3.org/1999/xlink" width="25.152" height="25.177" viewBox="0 0 25.152 25.177">
  <defs>
    <clipPath id="clip-path">
      <path id="Caminho_1588" data-name="Caminho 1588" d="M0,0H25.152V-25.177H0Z" fill="none"/>
    </clipPath>
  </defs>
  <g id="alfabeto_l_fim" transform="translate(0 25.177)">
    <g id="Grupo_1060" data-name="Grupo 1060" clip-path="url(#clip-path)">
      <g id="Grupo_1048" data-name="Grupo 1048" transform="translate(23.179 -24.362)">
        <path id="Caminho_1576" data-name="Caminho 1576" d="M0,0S1.744-.986,1.934-.758s-.607,1.821-.607,1.821L.379,1.4,0,.948Z" fill="#6cc247"/>
      </g>
      <g id="Grupo_1049" data-name="Grupo 1049" transform="translate(23.183 -24.36)">
        <path id="Caminho_1577" data-name="Caminho 1577" d="M0,0C0,.291.04.728.022.925c.129.149.26.3.386.449L.362,1.361c.278-.089.738-.288.928-.317a8.68,8.68,0,0,0,.6-1.394c.168-.586-.117-.432-.515-.29C1.058-.521.318-.149,0,0M-.007,0A4.849,4.849,0,0,1,1.858-.816c.4.06-.405,1.638-.506,1.907-.329.123-.658.244-.99.359-.136-.161-.267-.327-.4-.493C-.029.633-.022.308-.007,0" fill="#509b3f"/>
      </g>
      <g id="Grupo_1050" data-name="Grupo 1050" transform="translate(22.364 -18.788)">
        <path id="Caminho_1578" data-name="Caminho 1578" d="M0,0,2.143-4.512A1.659,1.659,0,0,1,.815-5.575L-3.337-3.449l-.363.662L-2.441,0Z" fill="#ffd09a"/>
      </g>
      <g id="Grupo_1051" data-name="Grupo 1051" transform="translate(22.366 -18.784)">
        <path id="Caminho_1579" data-name="Caminho 1579" d="M0,0-2.443.028h-.02c-.438-.936-.858-1.88-1.283-2.822l.009-.017.364-.66.006-.011.01-.005C-2.122-4.11-.392-4.978.821-5.6a1.588,1.588,0,0,0,.906.928,2.5,2.5,0,0,0,.453.137L2.165-4.5C1.466-2.995.733-1.486,0,0M0-.007c.695-1.521,1.39-3.021,2.12-4.52l.019.039a2.042,2.042,0,0,1-.815-.367A1.555,1.555,0,0,1,.8-5.574l.021.009c-1.2.611-2.925,1.52-4.142,2.147.065-.085-.36.662-.346.646.351.709.945,1.991,1.225,2.737L0-.007" fill="#ffc991"/>
      </g>
      <g id="Grupo_1052" data-name="Grupo 1052" transform="translate(0.178 -3.426)">
        <path id="Caminho_1580" data-name="Caminho 1580" d="M0,0,18.848-18.811s-.17.472,0,.624.645.139.7.221-.114.746.114.878,1.081.095,1.1.323.019,1.024.189,1.081,1.233.322,1.233.322L4.406,2.94Z" fill="#6cc247"/>
      </g>
      <g id="Grupo_1053" data-name="Grupo 1053" transform="translate(0.186 -3.427)">
        <path id="Caminho_1581" data-name="Caminho 1581" d="M0,0,4.424,2.9l-.06.006c2.2-2.3,6.645-6.893,8.867-9.173,2.818-2.794,6.229-6.61,8.934-9.049L21.1-15.6a1.594,1.594,0,0,1-.183-.054.305.305,0,0,1-.109-.184,5.32,5.32,0,0,1-.088-.922c-.066-.137-.307-.133-.45-.167-.2-.049-.6-.021-.712-.221-.121-.273,0-.555-.045-.8-.233-.112-.618-.031-.751-.309a.957.957,0,0,1,.055-.561l.048.031C13.523-13.426,5.47-5.37,0,0M-.016,0C5.411-5.494,13.407-13.474,18.82-18.83l.087-.088a1.707,1.707,0,0,0-.112.469c-.041.432.5.305.756.447a.139.139,0,0,1,.037.11,1.824,1.824,0,0,0,.03.712c.044.091.182.1.3.129a4.517,4.517,0,0,1,.731.132c.055.023.139.058.151.154l.01.186a1.973,1.973,0,0,0,.148.85c.042.017.114.031.169.046.279.068.867.226,1.148.3q-4.446,4.633-8.927,9.233C11.136-3.875,6.66.713,4.432,2.974L4.4,3,4.372,2.98Z" fill="#509b3f"/>
      </g>
      <g id="Grupo_1054" data-name="Grupo 1054" transform="translate(2.376 -3.712)">
        <path id="Caminho_1582" data-name="Caminho 1582" d="M0,0C1.672-1.79,3.429-3.493,5.2-5.186c2.878-2.891,5.706-5.832,8.7-8.606l.012.012C11.111-10.808,8.149-8,5.237-5.146,3.527-3.41,1.8-1.594,0,0" fill="#509b3f"/>
      </g>
      <g id="Grupo_1055" data-name="Grupo 1055" transform="translate(4.036 -2.481)">
        <path id="Caminho_1583" data-name="Caminho 1583" d="M0,0C1.739-1.858,3.563-3.63,5.4-5.392c2.99-3.005,5.931-6.06,9.036-8.948l.011.011c-2.908,3.087-5.983,6.007-9.007,8.977C3.662-3.547,1.873-1.663,0,0" fill="#509b3f"/>
      </g>
      <g id="Grupo_1056" data-name="Grupo 1056" transform="translate(4.584 -0.485)">
        <path id="Caminho_1584" data-name="Caminho 1584" d="M0,0C-.456.684-1.812.58-3.029-.232S-4.862-2.257-4.406-2.94s1.812-.58,3.029.232S.456-.684,0,0" fill="#ffd09a"/>
      </g>
      <g id="Grupo_1057" data-name="Grupo 1057" transform="translate(4.578 -0.49)">
        <path id="Caminho_1585" data-name="Caminho 1585" d="M0,0C.891-1.67-3.151-4.341-4.362-2.911-5.345-1.23-1.174,1.457,0,0M.014.009A1.547,1.547,0,0,1-1.515.461a4.059,4.059,0,0,1-2.7-1.828c-.839-1.25-.142-2.33,1.345-2.051C-1.509-3.23.757-1.524.014.009" fill="#ffc991"/>
      </g>
      <g id="Grupo_1058" data-name="Grupo 1058" transform="translate(3.447 -1.323)">
        <path id="Caminho_1586" data-name="Caminho 1586" d="M0,0C-.213.319-.847.271-1.415-.109s-.857-.945-.644-1.265.847-.27,1.416.109S.213-.319,0,0" fill="#6cc247"/>
      </g>
      <g id="Grupo_1059" data-name="Grupo 1059" transform="translate(3.444 -1.325)">
        <path id="Caminho_1587" data-name="Caminho 1587" d="M0,0C.408-.789-1.464-2.018-2.036-1.359-2.485-.566-.561.673,0,0M.007,0c-.64.76-2.494-.524-2.081-1.389C-1.436-2.152.455-.873.007,0" fill="#509b3f"/>
      </g>
    </g>
  </g>
</svg>
