<svg xmlns="http://www.w3.org/2000/svg" xmlns:xlink="http://www.w3.org/1999/xlink" width="25.321" height="20.294" viewBox="0 0 25.321 20.294">
  <defs>
    <clipPath id="clip-path">
      <path id="Caminho_1720" data-name="Caminho 1720" d="M0,0H25.321V-20.294H0Z" fill="none"/>
    </clipPath>
  </defs>
  <g id="alfabeto_q_fim" transform="translate(0 20.294)">
    <g id="Grupo_1191" data-name="Grupo 1191" clip-path="url(#clip-path)">
      <g id="Grupo_1173" data-name="Grupo 1173" transform="translate(0.148 -11.22)">
        <path id="Caminho_1702" data-name="Caminho 1702" d="M0,0V2.282A1.621,1.621,0,0,1,1.457,4.321C1.068,6.166,0,5.924,0,5.924V11.07l9.759-1.7s.68-1.845,1.845-1.991S13.741,8.5,13.741,8.5L24.957,6.263V-4.613S8.206-.534,0,0" fill="#ffe162"/>
      </g>
      <g id="Grupo_1174" data-name="Grupo 1174" transform="translate(25.304 -16.082)">
        <path id="Caminho_1703" data-name="Caminho 1703" d="M0,0C-.388-1.165-4.278-2.519-4.278-2.519a3.239,3.239,0,0,1-1.942.1c-.68-.34-.34-.729-.34-.729-.583-.34-7.574-.922-7.574-.922S-24.865,3.551-25.156,4.862l6.8,1.681Z" fill="#ffe162"/>
      </g>
      <g id="Grupo_1175" data-name="Grupo 1175" transform="translate(0.136 -11.257)">
        <path id="Caminho_1704" data-name="Caminho 1704" d="M0,0C8.432-.9,16.673-2.906,24.928-4.771l.218-.052V-4.6c-.013,2.713-.035,8.165-.067,10.876v.09l-.087.017C21.657,7.009,17.036,7.9,13.766,8.57l-.037.008L13.7,8.547c-1.6-1.862-3.078-1.171-3.852.932-3.267.607-6.537,1.2-9.814,1.748l-.174.03v-.175l.028-5.146V5.794c1.156.252,1.656-1.436,1.5-2.332A1.611,1.611,0,0,0,.007,2.35l-.051-.009V2.294ZM.026.024l.043,2.27-.05-.056A1.74,1.74,0,0,1,1.557,3.419c.194.994-.29,2.737-1.571,2.634l.147-.117L.16,11.082l-.172-.145C3.237,10.349,6.494,9.8,9.753,9.276l-.083.069a5.09,5.09,0,0,1,.672-1.184c1-1.419,2.534-.859,3.461.31l-.062-.023c3.265-.615,7.91-1.6,11.207-2.279l-.087.106c-.034-2.709-.056-8.167-.067-10.876l.217.171c-4.118,1-8.254,1.911-12.418,2.694A101.52,101.52,0,0,1,.026.024" fill="#ba7227"/>
      </g>
      <g id="Grupo_1176" data-name="Grupo 1176" transform="translate(25.288 -16.117)">
        <path id="Caminho_1705" data-name="Caminho 1705" d="M0,0A2.256,2.256,0,0,0-.882-.845,18.523,18.523,0,0,0-4.309-2.368h.1A2.6,2.6,0,0,1-6.468-2.4a.559.559,0,0,1-.177-.829l.034.2a40.906,40.906,0,0,0-7.516-.927c.339-.166-5.684,4.286-5.611,4.256-1.409,1.082-2.839,2.138-4.19,3.292a4.861,4.861,0,0,0-1.194,1.278l-.034-.008a4.616,4.616,0,0,1,1.112-1.4A50.369,50.369,0,0,1-19.956.022c1.833-1.41,3.864-2.884,5.773-4.175.035-.023.031-.028.075-.02,1.266.143,2.532.285,3.8.416l1.9.19a9.382,9.382,0,0,1,1.931.312l.136.06c-.162.195-.235.368.044.558a2.6,2.6,0,0,0,2.039-.026A14.839,14.839,0,0,1-.8-.965a2.2,2.2,0,0,1,.834.954Z" fill="#ba7227"/>
      </g>
      <g id="Grupo_1177" data-name="Grupo 1177" transform="translate(10.786 -19.383)">
        <path id="Caminho_1706" data-name="Caminho 1706" d="M0,0A.4.4,0,0,1,.412-.266C3.388-.269,8.76,1.3,9.979,1.669c3.387,1.019-1.423,0-1.423,0S5.248.94,2.953.358C.976-.144-.109.434,0,0" fill="#fff"/>
      </g>
      <g id="Grupo_1178" data-name="Grupo 1178" transform="translate(18.452 -17.071)">
        <path id="Caminho_1707" data-name="Caminho 1707" d="M0,0C0,.764-.929,1.384-2.076,1.384S-4.151.764-4.151,0s.929-1.384,2.075-1.384S0-.764,0,0" fill="#fba93f"/>
      </g>
      <g id="Grupo_1179" data-name="Grupo 1179" transform="translate(18.434 -17.071)">
        <path id="Caminho_1708" data-name="Caminho 1708" d="M0,0C-.148-1.624-3.832-1.588-4.038,0-4.1,1.754-.06,1.57,0,0M.035,0C-.113,1.589-2.277,1.877-3.406,1.117a1.255,1.255,0,0,1-.052-2.329C-2.3-1.929-.11-1.575.035,0" fill="#ba7227"/>
      </g>
      <g id="Grupo_1180" data-name="Grupo 1180" transform="translate(10.614 -14.821)">
        <path id="Caminho_1709" data-name="Caminho 1709" d="M0,0C0,.492-.647.891-1.445.891S-2.89.492-2.89,0s.647-.891,1.445-.891S0-.492,0,0" fill="#fba93f"/>
      </g>
      <g id="Grupo_1181" data-name="Grupo 1181" transform="translate(10.596 -14.821)">
        <path id="Caminho_1710" data-name="Caminho 1710" d="M0,0C-.074-.978-2.632-.921-2.777,0c-.012.654.837.813,1.349.745S-.071.657,0,0M.035,0C-.1,1.108-1.556,1.257-2.354.746A1.025,1.025,0,0,1-2.969,0c.028-1.409,2.9-1.438,3,0" fill="#ba7227"/>
      </g>
      <g id="Grupo_1182" data-name="Grupo 1182" transform="translate(12.627 -8.614)">
        <path id="Caminho_1711" data-name="Caminho 1711" d="M0,0C0,.85-.923,1.538-2.062,1.538S-4.125.85-4.125,0-3.2-1.538-2.062-1.538,0-.85,0,0" fill="#fba93f"/>
      </g>
      <g id="Grupo_1183" data-name="Grupo 1183" transform="translate(12.609 -8.614)">
        <path id="Caminho_1712" data-name="Caminho 1712" d="M0,0C-.155-1.817-3.811-1.794-4.012,0-4.065,1.955-.095,1.779,0,0M.035,0c-.081,1.679-2.29,2.117-3.461,1.209A1.435,1.435,0,0,1-3.485-1.3C-2.292-2.176-.032-1.656.035,0" fill="#ba7227"/>
      </g>
      <g id="Grupo_1184" data-name="Grupo 1184" transform="translate(2.309 -4.253)">
        <path id="Caminho_1713" data-name="Caminho 1713" d="M0,0A1.419,1.419,0,0,0,1.275,1.529,1.419,1.419,0,0,0,2.549,0,1.419,1.419,0,0,0,1.275-1.529,1.419,1.419,0,0,0,0,0" fill="#fba93f"/>
      </g>
      <g id="Grupo_1185" data-name="Grupo 1185" transform="translate(2.292 -4.253)">
        <path id="Caminho_1714" data-name="Caminho 1714" d="M0,0C-.063-2.32,2.727-2.232,2.662,0,2.452,2.131,0,2.306,0,0M.035,0C.122,1.741,2.574,1.918,2.471,0A1.365,1.365,0,0,0,1.292-1.343,1.36,1.36,0,0,0,.035,0" fill="#ba7227"/>
      </g>
      <g id="Grupo_1186" data-name="Grupo 1186" transform="translate(19.788 -7.089)">
        <path id="Caminho_1715" data-name="Caminho 1715" d="M0,0A1.682,1.682,0,0,1-1.8,1.525,1.681,1.681,0,0,1-3.605,0,1.681,1.681,0,0,1-1.8-1.525,1.682,1.682,0,0,1,0,0" fill="#fba93f"/>
      </g>
      <g id="Grupo_1187" data-name="Grupo 1187" transform="translate(19.771 -7.089)">
        <path id="Caminho_1716" data-name="Caminho 1716" d="M0,0C-.141-1.786-3.321-1.773-3.492,0-3.565,1.925-.091,1.762,0,0M.035,0C-.072,2.306-3.409,2.109-3.683,0-3.671-2.249,0-2.281.035,0" fill="#ba7227"/>
      </g>
      <g id="Grupo_1188" data-name="Grupo 1188" transform="translate(19.127 -11.463)">
        <path id="Caminho_1717" data-name="Caminho 1717" d="M0,0C0,1.126.637,2.039,1.423,2.039S2.846,1.126,2.846,0,2.209-2.039,1.423-2.039,0-1.126,0,0" fill="#fba93f"/>
      </g>
      <g id="Grupo_1189" data-name="Grupo 1189" transform="translate(19.109 -11.463)">
        <path id="Caminho_1718" data-name="Caminho 1718" d="M0,0C-.027-.907.329-2.19,1.441-2.226,3.1-2.076,3.265.179,2.578,1.341a1.246,1.246,0,0,1-1.865.605A2.414,2.414,0,0,1,0,0M.035,0A1.866,1.866,0,0,0,1.441,1.894C2.353,1.94,2.862.81,2.768,0,2.716-1.317,1.521-2.661.451-1.254A2.164,2.164,0,0,0,.035,0" fill="#ba7227"/>
      </g>
      <g id="Grupo_1190" data-name="Grupo 1190" transform="translate(22.389 -17.159)">
        <path id="Caminho_1719" data-name="Caminho 1719" d="M0,0A3.969,3.969,0,0,1,1.055.264c.108.128-.028.494-.577.212S-.282-.046,0,0" fill="#fff"/>
      </g>
    </g>
  </g>
</svg>
