<svg xmlns="http://www.w3.org/2000/svg" xmlns:xlink="http://www.w3.org/1999/xlink" width="27.167" height="25.979" viewBox="0 0 27.167 25.979">
  <defs>
    <clipPath id="clip-path">
      <path id="Caminho_1928" data-name="Caminho 1928" d="M0,0H27.167V-25.979H0Z" fill="none"/>
    </clipPath>
  </defs>
  <g id="alfabeto_v_fim" transform="translate(0 25.979)">
    <g id="Grupo_1395" data-name="Grupo 1395" clip-path="url(#clip-path)">
      <g id="Grupo_1364" data-name="Grupo 1364" transform="translate(7.174 -12.824)">
        <path id="Caminho_1897" data-name="Caminho 1897" d="M0,0C-5.927.133-6.674-2.99-6.915-4.071s-.774-1.883,1.949-2.1S.107-3.4.107-3.4l-.162.834s-2.716-1.762-3.453-2.4-3.46-.187-3.46-.187" fill="#eee7e0"/>
      </g>
      <g id="Grupo_1365" data-name="Grupo 1365" transform="translate(7.175 -12.809)">
        <path id="Caminho_1898" data-name="Caminho 1898" d="M0,0C-2.613.215-5.988-.488-6.812-3.356c-.122-.376-.177-.759-.268-1.132s-.2-.833.093-1.151a2.029,2.029,0,0,1,1.07-.471c2.382-.624,4.661.827,6.146,2.6l.044.053-.014.073c-.032.171-.174.91-.2,1.067-1.144-.759-2.291-1.5-3.377-2.355A1.684,1.684,0,0,0-4.1-5.125a9.4,9.4,0,0,0-2.862-.028,7.328,7.328,0,0,1,2.91-.182,1.882,1.882,0,0,1,.888.468c.511.381,1.054.731,1.586,1.093S-.51-3.06.031-2.711l-.241.1.165-.833.03.125C-1.431-5.028-3.562-6.571-5.9-6.011a1.806,1.806,0,0,0-1.015.437c-.248.283-.142.7-.044,1.055.111.372.186.751.321,1.1C-5.645-.618-2.533-.156,0,0" fill="#c4c0b7"/>
      </g>
      <g id="Grupo_1366" data-name="Grupo 1366" transform="translate(0.171 -17.523)">
        <path id="Caminho_1899" data-name="Caminho 1899" d="M0,0C-.009-.182-.12-.63.061-.614c.728.064,2.19-.436,3.284.294C4.787.641,6.65,2.222,6.933,2.232l-.271,2.44S2.646,4.985,1.2,2.737C.275,1.308.056,1.119,0,0" fill="#ffa393"/>
      </g>
      <g id="Grupo_1367" data-name="Grupo 1367" transform="translate(0.186 -17.523)">
        <path id="Caminho_1900" data-name="Caminho 1900" d="M0,0A3.3,3.3,0,0,0,.835,2.046a5.088,5.088,0,0,0,1.5,1.6,8.3,8.3,0,0,0,4.3.921l-.1.1c.114-.81.241-1.619.333-2.433l.047.056a1.76,1.76,0,0,1-.483-.268c-.424-.29-.872-.628-1.293-.918C3.99.356,2.972-.755,1.486-.635c-.436,0-.879.058-1.32.051C.074-.586-.02-.62-.029-.52A2.421,2.421,0,0,0,0,0M-.03,0A2.374,2.374,0,0,1-.066-.528c.006-.043.039-.105.1-.106A3.047,3.047,0,0,0,.428-.649C2.907-1.141,3.4-.519,5.238.969A8.758,8.758,0,0,0,6.971,2.2c-.094.856-.149,1.716-.221,2.575C4.855,4.9,2.594,4.669,1.3,3.114A5.767,5.767,0,0,1-.03,0" fill="#c4c0b7"/>
      </g>
      <g id="Grupo_1368" data-name="Grupo 1368" transform="translate(6.373 -15.073)">
        <path id="Caminho_1901" data-name="Caminho 1901" d="M0,0,.3-.418l-2.687-1.89A3.622,3.622,0,0,0-4.646-3.1s-1.431.08-1.481.06-.087.027-.09.076,2.062.116,2.322.461S0,0,0,0" fill="#de968b"/>
      </g>
      <g id="Grupo_1369" data-name="Grupo 1369" transform="translate(9.091 -19.996)">
        <path id="Caminho_1902" data-name="Caminho 1902" d="M0,0S-3.14-1.853-2.414-5.217c0,0-.217-1.068-.6,0S-4.875.18-1.092,2.421" fill="#181818"/>
      </g>
      <g id="Grupo_1370" data-name="Grupo 1370" transform="translate(9.084 -19.983)">
        <path id="Caminho_1903" data-name="Caminho 1903" d="M0,0A4.669,4.669,0,0,1-2.454-5.24c-.045-.152-.181-.7-.4-.2C-3.919-2.512-3.735.5-1.092,2.421c-3.061-1.5-3.172-5.149-1.862-7.91.262-.531.518-.146.6.249a4.393,4.393,0,0,0-.018,1.521A6.369,6.369,0,0,0,0,0" fill="#2b2e34"/>
      </g>
      <g id="Grupo_1371" data-name="Grupo 1371" transform="translate(6.363 -14.828)">
        <path id="Caminho_1904" data-name="Caminho 1904" d="M0,0S.561-.823,1.522-2.334c0,0,.641-2.616,1.682-3.3s5.446-2.692,8.49.512a14.306,14.306,0,0,1,2.082,7.4c.08,4.533-.32,8.7-4.806,10.62,0,0-.961-.08-3.043,1.281S0,13.7,0,13.7s-.641-4.84,0-5.824S-.481,2.4,0,0" fill="#eee7e0"/>
      </g>
      <g id="Grupo_1372" data-name="Grupo 1372" transform="translate(6.363 -14.828)">
        <path id="Caminho_1905" data-name="Caminho 1905" d="M0,0S.561-.823,1.522-2.334c0,0,.641-2.616,1.682-3.3s5.446-2.692,8.49.512a14.306,14.306,0,0,1,2.082,7.4c.08,4.533-.32,8.7-4.806,10.62,0,0-.961-.08-3.043,1.281S0,13.7,0,13.7s-.641-4.84,0-5.824S-.481,2.4,0,0Z" fill="none" stroke="#c4c0b7" stroke-width="0.3"/>
      </g>
      <g id="Grupo_1373" data-name="Grupo 1373" transform="translate(18.304 -19.783)">
        <path id="Caminho_1906" data-name="Caminho 1906" d="M0,0S-3.8,1.885-4.385,3.434A4.337,4.337,0,0,1-5.827,5.463c-.374.48-.8.662-.374,2.146a7.219,7.219,0,0,1,.374,3.07c0,1.672,1.068,1.234,1.228,2.627s-1.077,1.63-.592,2.713A5.637,5.637,0,0,0-2.85,17.971a8.258,8.258,0,0,0,4.865-7.549C1.941,4.9,1.985,3.027,0,0" fill="#181818"/>
      </g>
      <g id="Grupo_1374" data-name="Grupo 1374" transform="translate(18.308 -19.798)">
        <path id="Caminho_1907" data-name="Caminho 1907" d="M0,0C2.158,2.787,2.107,6.438,2.156,9.786a8.286,8.286,0,0,1-5.013,8.3c-1-.558-2.282-1.238-2.5-2.472a1.219,1.219,0,0,1,.2-.7,1.951,1.951,0,0,0,.086-2.532c-1.344-.949-.573-2.669-1.035-3.971a5.4,5.4,0,0,1-.379-2.125c.169-.745.887-1.14,1.342-1.679A4.718,4.718,0,0,0-4.5,3.406,5.48,5.48,0,0,1-2.477,1.391,18.848,18.848,0,0,1,0,0M-.008.029c-1.5.917-3.417,1.862-4.272,3.46a4.894,4.894,0,0,1-.666,1.282c-.42.524-1.1.906-1.281,1.575a5.676,5.676,0,0,0,.348,2.015c.451,1.4-.43,2.962.889,3.954a2.091,2.091,0,0,1-.079,2.658,1.117,1.117,0,0,0-.18.639c.225,1.155,1.483,1.775,2.435,2.286A8.31,8.31,0,0,0,1.849,9.79C1.827,6.442,1.976,2.91-.008.029" fill="#2b2e34"/>
      </g>
      <g id="Grupo_1375" data-name="Grupo 1375" transform="translate(7.764 -17.221)">
        <path id="Caminho_1908" data-name="Caminho 1908" d="M0,0A11.346,11.346,0,0,1,.387,2.419C.441,3.7-.093,4.266.12,4.891s.7,3,.11,3.226S.018,10.451-1.382,9.8l-.25-4.565.168-2.446-.168-.327" fill="#181818"/>
      </g>
      <g id="Grupo_1376" data-name="Grupo 1376" transform="translate(7.779 -17.225)">
        <path id="Caminho_1909" data-name="Caminho 1909" d="M0,0A8.626,8.626,0,0,1,.5,2.744c.041.7-.346,1.35-.3,2.016A9.74,9.74,0,0,1,.533,7.516a.753.753,0,0,1-.293.652c-.359.245-.32.83-.478,1.22a.8.8,0,0,1-1.212.541h0l-.07-.024q-.1-1.185-.16-2.372c-.036-.765-.074-1.53-.093-2.3.074-.816.157-1.631.262-2.444.025.079-.148-.33-.146-.318l.027-.014.186.318c0,.822-.036,1.649-.07,2.471C-1.4,6.682-1.3,8.3-1.261,9.8c0,0-.085-.121-.076-.114.814.466.982-.393,1.156-1.005A.9.9,0,0,1,.2,8.069c.169-.089.217-.346.239-.562a7.367,7.367,0,0,0-.479-2.7c-.112-.719.307-1.371.291-2.072A19.374,19.374,0,0,0,0,0" fill="#2b2e34"/>
      </g>
      <g id="Grupo_1377" data-name="Grupo 1377" transform="translate(5.484 -13.595)">
        <path id="Caminho_1910" data-name="Caminho 1910" d="M0,0A1.309,1.309,0,0,1,1.282-1.321,1.31,1.31,0,0,1,2.387.152,1.31,1.31,0,0,1,1.105,1.473,1.31,1.31,0,0,1,0,0" fill="#fff"/>
      </g>
      <g id="Grupo_1378" data-name="Grupo 1378" transform="translate(5.494 -13.594)">
        <path id="Caminho_1911" data-name="Caminho 1911" d="M0,0A1.169,1.169,0,1,0,2.323.148,1.172,1.172,0,1,0,0,0M-.02,0c.155-2.007,2.433-1.76,2.452.156C2.323,2.123-.16,2.005-.02,0" fill="#2b2e34"/>
      </g>
      <g id="Grupo_1379" data-name="Grupo 1379" transform="translate(5.487 -13.636)">
        <path id="Caminho_1912" data-name="Caminho 1912" d="M0,0C.043-.676.4-1.2.8-1.178s.686.593.643,1.27-.4,1.2-.8,1.178S-.043.676,0,0" fill="#2b2e34"/>
      </g>
      <g id="Grupo_1380" data-name="Grupo 1380" transform="translate(14.143 -12.751)">
        <path id="Caminho_1913" data-name="Caminho 1913" d="M0,0A1.309,1.309,0,0,1,1.282-1.321,1.31,1.31,0,0,1,2.387.152,1.31,1.31,0,0,1,1.105,1.473,1.31,1.31,0,0,1,0,0" fill="#fff"/>
      </g>
      <g id="Grupo_1381" data-name="Grupo 1381" transform="translate(14.153 -12.751)">
        <path id="Caminho_1914" data-name="Caminho 1914" d="M0,0A1.169,1.169,0,1,0,2.323.148,1.172,1.172,0,1,0,0,0M-.02,0c.155-2.007,2.433-1.76,2.452.156C2.323,2.123-.16,2.005-.02,0" fill="#2b2e34"/>
      </g>
      <g id="Grupo_1382" data-name="Grupo 1382" transform="translate(14.145 -12.792)">
        <path id="Caminho_1915" data-name="Caminho 1915" d="M0,0C.043-.676.4-1.2.8-1.178s.686.594.643,1.27-.4,1.2-.8,1.178S-.043.676,0,0" fill="#2b2e34"/>
      </g>
      <g id="Grupo_1383" data-name="Grupo 1383" transform="translate(6.823 -6.512)">
        <path id="Caminho_1916" data-name="Caminho 1916" d="M0,0A1.314,1.314,0,0,1,.347.1,2.486,2.486,0,0,0,2.268.035C3.544-.467,4.9-.1,5.1.439s-.556,1.92-.636,2.309.6,2.432-.52,2.752S1.582,5.981.781,5.18c0,0-.011-.2-.926-.04-.8.14-2.1.372-2.329-.672a1.381,1.381,0,0,1,.09-.8,2.82,2.82,0,0,0,.2-1.369C-2.3,1.5-2.683.3-1.351.035A3.344,3.344,0,0,1,0,0" fill="#ffa393"/>
      </g>
      <g id="Grupo_1384" data-name="Grupo 1384" transform="translate(6.821 -6.497)">
        <path id="Caminho_1917" data-name="Caminho 1917" d="M0,0C-1.234-.143-2.558.084-2.164,1.656a3.258,3.258,0,0,1-.12,2.185C-2.686,5.5-.733,5.071.263,4.933c.209,0,.575-.056.649.225L.874,5.074a2.115,2.115,0,0,0,1.534.582,4.821,4.821,0,0,0,1.706-.3c.507-.324.457-1.043.4-1.577-.023-.432-.236-.929-.039-1.346.144-.4.333-.844.438-1.247A1.139,1.139,0,0,0,4.955.422,2.507,2.507,0,0,0,2.606-.006,3.807,3.807,0,0,1,.851.248C.552.222.291.047,0,0M0-.03A2.874,2.874,0,0,0,1.727.134,6.5,6.5,0,0,1,3.457-.33c.992-.035,2.207.341,1.692,1.586-.134.417-.341.84-.514,1.239-.207.41-.025.836-.01,1.274.052.631.074,1.546-.674,1.772-1.047.31-2.508.615-3.3-.369.019.082.025.047.018.055A.145.145,0,0,0,.64,5.215c-.988-.092-2.294.653-3.07-.289-.53-.7.068-1.472.12-2.188.065-.69-.312-1.469.03-2.164C-1.832-.2-.755-.112,0-.03" fill="#de968b"/>
      </g>
      <g id="Grupo_1385" data-name="Grupo 1385" transform="translate(6.089 -4.788)">
        <path id="Caminho_1918" data-name="Caminho 1918" d="M0,0C.382.449.6.891.489.986S-.024.8-.406.346s-.6-.89-.49-.986.514.191.9.64" fill="#4a1316"/>
      </g>
      <g id="Grupo_1386" data-name="Grupo 1386" transform="translate(9.511 -4.643)">
        <path id="Caminho_1919" data-name="Caminho 1919" d="M0,0C.417-.417.84-.671.944-.566S.8-.039.378.378s-.84.67-.944.566S-.417.417,0,0" fill="#4a1316"/>
      </g>
      <g id="Grupo_1387" data-name="Grupo 1387" transform="translate(18.199 -19.73)">
        <path id="Caminho_1920" data-name="Caminho 1920" d="M0,0S1.539-.464,1.326-5.7c0,0,.066-.949.514-.261s2.9,6.815-.407,8.712" fill="#181818"/>
      </g>
      <g id="Grupo_1388" data-name="Grupo 1388" transform="translate(18.195 -19.744)">
        <path id="Caminho_1921" data-name="Caminho 1921" d="M0,0C.812-.6.93-1.743,1.092-2.674a24.244,24.244,0,0,0,.183-3.012c.029-.2.072-.62.359-.537a1.183,1.183,0,0,1,.41.541A12.4,12.4,0,0,1,3.222-1.907C3.483-.219,3.158,1.98,1.445,2.781A3.71,3.71,0,0,0,2.829.681a10.654,10.654,0,0,0-.447-5.089A4.222,4.222,0,0,0,1.6-6.139c-.175-.052-.2.334-.215.46a10.437,10.437,0,0,1-.417,4.53A2.055,2.055,0,0,1,.009.029Z" fill="#2b2e34"/>
      </g>
      <g id="Grupo_1389" data-name="Grupo 1389" transform="translate(26.87 -18.456)">
        <path id="Caminho_1922" data-name="Caminho 1922" d="M0,0S-2.723-.454-3.46.187c-.662.575-4.3,2.67-5.045,3.1a.067.067,0,0,1-.1-.075l.1-.418a1.19,1.19,0,0,1,.354-.609c.9-.83,3.867-3.373,6.149-3.2C.721-.8.187,0-.053,1.082-.289,2.142-1.36,5.3-7,5.3a1.142,1.142,0,0,1-.671-.223A2.53,2.53,0,0,1-8.677,3.651" fill="#eee7e0"/>
      </g>
      <g id="Grupo_1390" data-name="Grupo 1390" transform="translate(26.868 -18.441)">
        <path id="Caminho_1923" data-name="Caminho 1923" d="M0,0A8.48,8.48,0,0,0-3.028.064a1.158,1.158,0,0,0-.409.231,46.794,46.794,0,0,1-5,3.051.187.187,0,0,1-.129.027.165.165,0,0,1-.119-.095c-.04-.1.014-.168.026-.25a1.556,1.556,0,0,1,.482-.937A15.016,15.016,0,0,1-3.415-.933a4.489,4.489,0,0,1,2.072-.138C-.684-1,.373-.766.294.1-.039,3.723-3.053,5.372-6.412,5.36l-.516.007c-.9-.006-1.574-.925-1.761-1.727l.029-.007A2.454,2.454,0,0,0-7.4,5.124a6.1,6.1,0,0,0,1.994-.06A5.961,5.961,0,0,0-.536,2,7.378,7.378,0,0,0,.012.09c.059-.7-.847-.83-1.389-.934C-3.44-1.26-5.345-.016-6.918,1.192a5.944,5.944,0,0,0-1.435,1.4A4.38,4.38,0,0,0-8.5,3.2c-.007.035,0,0,0,0a.031.031,0,0,0-.022-.019c-.088.028.156-.1.156-.106C-6.788,2.083-5.1,1.194-3.576.127A2.489,2.489,0,0,1-2.045-.247,7.889,7.889,0,0,1,0,0" fill="#c4c0b7"/>
      </g>
      <g id="Grupo_1391" data-name="Grupo 1391" transform="translate(26.599 -16.383)">
        <path id="Caminho_1924" data-name="Caminho 1924" d="M0,0A3.409,3.409,0,0,0,.4-1.931a.137.137,0,0,0-.138-.142c-.747.033-2.158-.42-3.222.289A46.634,46.634,0,0,1-8.339,1.231,1.279,1.279,0,0,0-7.97,2.458c.571.543.556.663,1.242.766a10.477,10.477,0,0,0,4.151-.8c.2-.119.4-.243.594-.365A5.888,5.888,0,0,0,0,0" fill="#ffa393"/>
      </g>
      <g id="Grupo_1392" data-name="Grupo 1392" transform="translate(26.612 -16.376)">
        <path id="Caminho_1925" data-name="Caminho 1925" d="M0,0A6.214,6.214,0,0,1-4.23,3.105a11.738,11.738,0,0,1-2.01.275A1.875,1.875,0,0,1-7.6,3.016c-.523-.471-1.077-1.064-.844-1.82.014-.061.015-.04.09-.069a28.959,28.959,0,0,0,5.044-2.84c1.017-.879,2.39-.553,3.6-.434a.2.2,0,0,1,.161.193A3.943,3.943,0,0,1,0,0M-.026-.015A3.4,3.4,0,0,0,.323-1.946.074.074,0,0,0,.262-2.01a5.4,5.4,0,0,1-.727-.016,3.686,3.686,0,0,0-2.718.513C-4.4-.8-5.779-.065-7.01.64c-.293.165-.832.469-1.135.609a.889.889,0,0,1-.2.071l.089-.069a1.188,1.188,0,0,0,.36,1.1c.279.241.605.677,1.016.691,2.541.115,5.5-.726,6.857-3.06" fill="#c4c0b7"/>
      </g>
      <g id="Grupo_1393" data-name="Grupo 1393" transform="translate(24.677 -17.899)">
        <path id="Caminho_1926" data-name="Caminho 1926" d="M0,0C.25-.352,2.275-.344,2.271-.393s-.033-.125-.1-.123S.751-.6.751-.6A3.6,3.6,0,0,0-1.306.04a5.3,5.3,0,0,1-.541.329l-4.57,2.378s0,.7.261.948a1.813,1.813,0,0,0,.08-.541C-6.076,2.844-.141.2,0,0" fill="#de968b"/>
      </g>
      <g id="Grupo_1394" data-name="Grupo 1394" transform="translate(8.866 -18.298)">
        <path id="Caminho_1927" data-name="Caminho 1927" d="M0,0A3.228,3.228,0,0,1,2.538-2.495c2.247-.532,1.631,0,1.631,0s-2.175.251-2.755.874S-.145.92,0,.213" fill="#fff"/>
      </g>
    </g>
  </g>
</svg>
