<svg xmlns="http://www.w3.org/2000/svg" width="14.173" height="14.617" viewBox="0 0 14.173 14.617">
  <g id="ico_caderno" transform="translate(0 14.617)">
    <g id="Grupo_1451" data-name="Grupo 1451" transform="translate(1.532 -14.617)">
      <path id="Caminho_1992" data-name="Caminho 1992" d="M0,0V1.6H.865V3.124H0V4.987H.865V6.514H0V8.1H.865V9.63H0v1.862H.865V13.02H0v1.6H8.99V.453h2.318V14.617h1.333V0Z" fill="#f84942"/>
    </g>
    <path id="Caminho_1993" data-name="Caminho 1993" d="M10.522,0H12.84V-14.164H10.522Z" fill="#fff"/>
    <g id="Grupo_1452" data-name="Grupo 1452" transform="translate(1.532 -13.02)">
      <path id="Caminho_1994" data-name="Caminho 1994" d="M0,0H-1.532V1.527h2.4V0Z" fill="#595db0"/>
    </g>
    <g id="Grupo_1453" data-name="Grupo 1453" transform="translate(1.532 -9.63)">
      <path id="Caminho_1995" data-name="Caminho 1995" d="M0,0H-1.532V1.527h2.4V0Z" fill="#595db0"/>
    </g>
    <g id="Grupo_1454" data-name="Grupo 1454" transform="translate(1.532 -6.515)">
      <path id="Caminho_1996" data-name="Caminho 1996" d="M0,0H-1.532V1.528h2.4V0Z" fill="#595db0"/>
    </g>
    <g id="Grupo_1455" data-name="Grupo 1455" transform="translate(1.532 -3.125)">
      <path id="Caminho_1997" data-name="Caminho 1997" d="M0,0H-1.532V1.528h2.4V0Z" fill="#595db0"/>
    </g>
  </g>
</svg>
