<svg xmlns="http://www.w3.org/2000/svg" xmlns:xlink="http://www.w3.org/1999/xlink" width="14.173" height="13.328" viewBox="0 0 14.173 13.328">
  <defs>
    <clipPath id="clip-path">
      <path id="Caminho_2004" data-name="Caminho 2004" d="M0,0H14.173V-13.328H0Z" fill="none"/>
    </clipPath>
  </defs>
  <g id="ico_desafio" transform="translate(0 13.328)">
    <g id="Grupo_1462" data-name="Grupo 1462" clip-path="url(#clip-path)">
      <g id="Grupo_1456" data-name="Grupo 1456" transform="translate(11.924 -7.979)">
        <path id="Caminho_1998" data-name="Caminho 1998" d="M0,0C-.2-.041-.406-.078-.608-.114A4.855,4.855,0,0,1-.393,1.315,4.872,4.872,0,0,1-5.259,6.181a4.872,4.872,0,0,1-4.867-4.866A4.872,4.872,0,0,1-5.259-3.552,4.848,4.848,0,0,1-1.628-1.913c.044-.172.086-.34.12-.486A.588.588,0,0,1-1.3-2.693c.286-.238.541-.447.8-.655a6.641,6.641,0,0,0-4.757-2,6.664,6.664,0,0,0-6.665,6.664A6.665,6.665,0,0,0-5.259,7.979,6.665,6.665,0,0,0,1.4,1.315,6.682,6.682,0,0,0,1.124-.594C.9-.441.665-.286.405-.116.385-.107.128.058,0,0" fill="#0fbed2"/>
      </g>
      <g id="Grupo_1457" data-name="Grupo 1457" transform="translate(6.664 -11.531)">
        <path id="Caminho_1999" data-name="Caminho 1999" d="M0,0A4.872,4.872,0,0,0-4.867,4.867,4.872,4.872,0,0,0,0,9.733,4.872,4.872,0,0,0,4.866,4.867a4.855,4.855,0,0,0-.215-1.429c-.224-.04-.44-.076-.634-.11l-.34.206c-.21.126-.43.253-.643.379a3.138,3.138,0,0,1,.161.953A3.2,3.2,0,0,1,0,8.062a3.2,3.2,0,0,1-3.2-3.2A3.2,3.2,0,0,1,0,1.671,3.178,3.178,0,0,1,2.537,2.944c.192-.115.386-.229.576-.344l.324-.2c.06-.241.13-.509.195-.766A4.853,4.853,0,0,0,0,0" fill="#fff"/>
      </g>
      <g id="Grupo_1458" data-name="Grupo 1458" transform="translate(8.459 -6.664)">
        <path id="Caminho_2000" data-name="Caminho 2000" d="M0,0A1.8,1.8,0,0,1-1.795,1.795,1.8,1.8,0,0,1-3.59,0,1.8,1.8,0,0,1-1.795-1.795,1.784,1.784,0,0,1-.47-1.2c.409-.241.812-.482,1.213-.721A3.182,3.182,0,0,0-1.795-3.195,3.194,3.194,0,0,0-4.99,0,3.194,3.194,0,0,0-1.795,3.195,3.2,3.2,0,0,0,1.4,0,3.175,3.175,0,0,0,1.24-.954c-.417.248-.84.5-1.261.743A1.838,1.838,0,0,1,0,0" fill="#f84942"/>
      </g>
      <g id="Grupo_1459" data-name="Grupo 1459" transform="translate(6.664 -8.459)">
        <path id="Caminho_2001" data-name="Caminho 2001" d="M0,0A1.795,1.795,0,0,0,0,3.59,1.8,1.8,0,0,0,1.795,1.795a1.838,1.838,0,0,0-.021-.211C1.181,1.933.6,2.281,0,2.628V1.371C.451,1.108.889.85,1.325.593A1.784,1.784,0,0,0,0,0" fill="#ffbe31"/>
      </g>
      <g id="Grupo_1460" data-name="Grupo 1460" transform="translate(9.201 -8.587)">
        <path id="Caminho_2002" data-name="Caminho 2002" d="M0,0Q-.6.358-1.213.721c-.435.257-.873.515-1.324.778V2.756c.6-.347,1.181-.695,1.773-1.044C-.343,1.464.081,1.216.5.969.709.843.929.716,1.14.59l.34-.2A2.706,2.706,0,0,1,.747.213,3.572,3.572,0,0,1,.9-.539l-.324.2L0,0" fill="#595db0"/>
      </g>
      <g id="Grupo_1461" data-name="Grupo 1461" transform="translate(14.16 -9.532)">
        <path id="Caminho_2003" data-name="Caminho 2003" d="M0,0A.236.236,0,0,0-.232-.145C-.68-.27-1.106-.414-1.765-.584c.082-.493.129-1.105.222-1.641a.23.23,0,0,0-.069-.266.222.222,0,0,0-.28.012c-.307.248-.578.465-.847.684s-.511.418-.8.656a.584.584,0,0,0-.209.294c-.034.146-.076.313-.12.485C-3.93-.1-4,.165-4.059.406a3.584,3.584,0,0,0-.153.752,2.676,2.676,0,0,0,.733.172l.634.109c.2.036.409.074.608.114.128.058.385-.107.4-.115.26-.171.491-.326.719-.479C-.782.736-.462.518-.092.266A.223.223,0,0,0,0,0" fill="#f84942"/>
      </g>
    </g>
  </g>
</svg>
