<svg xmlns="http://www.w3.org/2000/svg" xmlns:xlink="http://www.w3.org/1999/xlink" width="14.173" height="14.174" viewBox="0 0 14.173 14.174">
  <defs>
    <clipPath id="clip-path">
      <path id="Caminho_2009" data-name="Caminho 2009" d="M0,0H14.173V-14.174H0Z" fill="none"/>
    </clipPath>
  </defs>
  <g id="ico_cartografia" transform="translate(0 14.174)">
    <g id="Grupo_1467" data-name="Grupo 1467" clip-path="url(#clip-path)">
      <g id="Grupo_1463" data-name="Grupo 1463" transform="translate(3.227 -2.705)">
        <path id="Caminho_2005" data-name="Caminho 2005" d="M0,0A.246.246,0,0,1-.113-.27S1.96-5.684,2.024-5.834c.013-.025.024-.041.034-.057a1.705,1.705,0,0,0,.107-.135,2.946,2.946,0,0,1,.466-.395l4.453-2.65a.29.29,0,0,1,.326.061.266.266,0,0,1,.113.279L5.649-3.614a3.162,3.162,0,0,1-.193.458l0,.018c-.02.023-.051.054-.081.085a2.434,2.434,0,0,1-.458.326L.3.066A.3.3,0,0,1,0,0M9.4-8.819A6.979,6.979,0,0,0,4.64-11.428,7.1,7.1,0,0,0-.578-9.909,7.075,7.075,0,0,0-3.187-5.154,7.109,7.109,0,0,0-1.668.047,7.094,7.094,0,0,0,3.88,2.7,7.014,7.014,0,0,0,8.305,1.137a7.045,7.045,0,0,0,2.642-5.532A7.087,7.087,0,0,0,9.4-8.819" fill="#0fbed2"/>
      </g>
      <g id="Grupo_1464" data-name="Grupo 1464" transform="translate(8.68 -5.844)">
        <path id="Caminho_2006" data-name="Caminho 2006" d="M0,0,0-.017a1.249,1.249,0,0,1-.084.1C-.051.055-.021.024,0,0" fill="#ffbe31"/>
      </g>
      <g id="Grupo_1465" data-name="Grupo 1465" transform="translate(8.141 -5.432)">
        <path id="Caminho_2007" data-name="Caminho 2007" d="M0,0A2.407,2.407,0,0,0,.457-.326L-2.89-3.107c-.064.15-2.138,5.564-2.138,5.564a.25.25,0,0,0,.114.27.3.3,0,0,0,.3.066Z" fill="#ffbe31"/>
      </g>
      <g id="Grupo_1466" data-name="Grupo 1466" transform="translate(8.682 -5.861)">
        <path id="Caminho_2008" data-name="Caminho 2008" d="M0,0A3.21,3.21,0,0,0,.193-.458L2.067-5.575a.267.267,0,0,0-.112-.279.291.291,0,0,0-.326-.062l-4.454,2.65a2.993,2.993,0,0,0-.466.395,1.7,1.7,0,0,1-.106.136.389.389,0,0,0-.034.057L-.084.1C-.054.072,0,0,0,0" fill="#f84942"/>
      </g>
    </g>
  </g>
</svg>
