<?xml version="1.0" encoding="utf-8"?>
<!-- Generator: Adobe Illustrator 26.0.3, SVG Export Plug-In . SVG Version: 6.00 Build 0)  -->
<svg version="1.1" xmlns="http://www.w3.org/2000/svg" xmlns:xlink="http://www.w3.org/1999/xlink" x="0px" y="0px"
	 viewBox="0 0 1078.3 1078.3" style="enable-background:new 0 0 1078.3 1078.3;" xml:space="preserve">
<style type="text/css">
	.st0{fill:#FFFFFF;}
	.st1{fill:none;stroke:#000000;stroke-width:32.8947;stroke-miterlimit:10;}
	.st2{fill:#53C2EE;stroke:#000000;stroke-width:32.8947;stroke-miterlimit:10;}
</style>
<g id="Layer_2">
</g>
<g id="acessibilidade_onu">
	<g>
		<circle class="st0" cx="539.2" cy="539.2" r="528.6"/>
		<g>
			<g id="limbs">
				<path id="arms" class="st1" d="M145,447.8c0,0,393.3,238.2,786.6,0"/>
				<line id="right_leg" class="st1" x1="778.9" y1="915.8" x2="539.3" y2="559.4"/>
				<line id="left_leg" class="st1" x1="299.5" y1="915.8" x2="539.3" y2="559.4"/>
			</g>
			<g id="circles">
				<circle id="head" class="st2" cx="539.3" cy="323.5" r="114.9"/>
				<circle id="right_hand" class="st2" cx="971.5" cy="413.3" r="51.3"/>
				<circle id="left_hand" class="st2" cx="106.9" cy="413.3" r="51.3"/>
				<circle id="right_foot" class="st2" cx="778.9" cy="915.8" r="51.3"/>
				<circle id="left_foot" class="st2" cx="299.5" cy="915.8" r="51.3"/>
			</g>
			<g id="arcs">
				<path id="right_arc" d="M846.9,841.6c8.2,7.5,15.1,16.3,20.5,26.1c87.3-87,136.2-205.3,135.9-328.6c0-10.1-0.4-20.1-1-30.1
					c-9.9,3.2-20.3,4.8-30.8,4.8c-0.6,0-1.3,0-1.9,0c0.5,8.4,0.8,16.8,0.8,25.3C970.6,652.3,926.3,761,846.9,841.6z"/>
				<path id="bottom_arc" d="M537.9,971.6c-48.7,0.1-97-8.1-143-24.1c-3.5,10.6-8.8,20.5-15.5,29.4c103.1,37,216,36.8,319-0.7
					c-6.7-8.9-11.8-18.9-15.2-29.5C636.5,963.2,587.4,971.6,537.9,971.6z"/>
				<path id="left_arc" d="M106.3,513.9c-11.1-0.1-22.1-2-32.6-5.6c-0.7,10.2-1,20.5-1,30.9c-0.4,123.5,48.7,241.9,136.2,329
					c0.4,0.4,0.8,0.8,1.2,1.2c5.2-9.9,11.9-18.9,20-26.5c-80-80.7-124.8-190-124.5-303.7C105.6,530.7,105.8,522.3,106.3,513.9z"/>
				<path id="top_arc" d="M866.9,210.2c-181.7-181.7-476.3-181.7-658,0l0,0c-31.2,31.1-57.8,66.5-79.1,105.2
					c10.8,2.5,21.1,6.8,30.5,12.7c19.5-34.7,43.7-66.5,71.8-94.6c168.9-168.9,442.6-168.9,611.5,0l0,0
					c28.5,28.4,52.9,60.7,72.5,95.8c9.2-6.1,19.4-10.6,30.2-13.4C925,277.1,898.3,241.5,866.9,210.2z"/>
			</g>
		</g>
	</g>
</g>
</svg>
