<svg xmlns="http://www.w3.org/2000/svg" width="21.986" height="21.985" viewBox="0 0 21.986 21.985">
  <g id="pv_a0indicacao_sublinhar" transform="translate(0 21.986)">
    <g id="Grupo_2156" data-name="Grupo 2156">
      <g id="Grupo_2146" data-name="Grupo 2146" transform="translate(6.337 -10.993)">
        <path id="Caminho_3340" data-name="Caminho 3340" d="M0,0A4.688,4.688,0,0,0,4.688,4.688V0Z" fill="#ffbe31"/>
      </g>
      <g id="Grupo_2147" data-name="Grupo 2147" transform="translate(11.026 -15.681)">
        <path id="Caminho_3341" data-name="Caminho 3341" d="M0,0A4.688,4.688,0,0,0-4.688,4.688H0Z" fill="#fc86bf"/>
      </g>
      <g id="Grupo_2148" data-name="Grupo 2148" transform="translate(3.764 -10.993)">
        <path id="Caminho_3342" data-name="Caminho 3342" d="M0,0H-3.764A10.992,10.992,0,0,0,7.229,10.992V7.229A7.229,7.229,0,0,1,0,0" fill="#fb651e"/>
      </g>
      <g id="Grupo_2149" data-name="Grupo 2149" transform="translate(18.222 -10.993)">
        <path id="Caminho_3343" data-name="Caminho 3343" d="M0,0H3.764A10.993,10.993,0,0,0-7.229-10.993v3.764A7.229,7.229,0,0,1,0,0" fill="#fb651e"/>
      </g>
      <g id="Grupo_2150" data-name="Grupo 2150" transform="translate(10.993 -18.222)">
        <path id="Caminho_3344" data-name="Caminho 3344" d="M0,0V-3.764A10.993,10.993,0,0,0-10.993,7.229h3.764A7.23,7.23,0,0,1,0,0" fill="#ffbe31"/>
      </g>
    </g>
  </g>
</svg>
