<svg xmlns="http://www.w3.org/2000/svg" xmlns:xlink="http://www.w3.org/1999/xlink" width="21.985" height="21.985" viewBox="0 0 21.985 21.985">
  <defs>
    <clipPath id="clip-path">
      <path id="Caminho_3325" data-name="Caminho 3325" d="M0,0H21.985V-21.985H0Z" fill="none"/>
    </clipPath>
  </defs>
  <g id="pv_a0indicacao_autoexplica" transform="translate(0 21.985)">
    <g id="Grupo_2129" data-name="Grupo 2129" clip-path="url(#clip-path)">
      <g id="Grupo_2123" data-name="Grupo 2123" transform="translate(6.337 -10.993)">
        <path id="Caminho_3319" data-name="Caminho 3319" d="M0,0A4.688,4.688,0,0,0,4.688,4.688V0Z" fill="#ffbe31"/>
      </g>
      <g id="Grupo_2124" data-name="Grupo 2124" transform="translate(11.025 -15.681)">
        <path id="Caminho_3320" data-name="Caminho 3320" d="M0,0A4.688,4.688,0,0,0-4.688,4.688H0Z" fill="#fc86bf"/>
      </g>
      <g id="Grupo_2125" data-name="Grupo 2125" transform="translate(3.764 -10.992)">
        <path id="Caminho_3321" data-name="Caminho 3321" d="M0,0H-3.764A10.992,10.992,0,0,0,7.229,10.992V7.229A7.229,7.229,0,0,1,0,0" fill="#5bb745"/>
      </g>
      <g id="Grupo_2126" data-name="Grupo 2126" transform="translate(18.221 -10.993)">
        <path id="Caminho_3322" data-name="Caminho 3322" d="M0,0H3.764A10.993,10.993,0,0,0-7.229-10.993v3.764A7.229,7.229,0,0,1,0,0" fill="#5bb745"/>
      </g>
      <g id="Grupo_2127" data-name="Grupo 2127" transform="translate(10.993 -18.221)">
        <path id="Caminho_3323" data-name="Caminho 3323" d="M0,0V-3.764A10.993,10.993,0,0,0-10.993,7.229h3.764A7.23,7.23,0,0,1,0,0" fill="#ffbe31"/>
      </g>
    </g>
  </g>
</svg>
