<svg xmlns="http://www.w3.org/2000/svg" xmlns:xlink="http://www.w3.org/1999/xlink" width="21.984" height="21.984" viewBox="0 0 21.984 21.984">
  <defs>
    <clipPath id="clip-path">
      <path id="Caminho_3332" data-name="Caminho 3332" d="M0,0H21.984V-21.984H0Z" fill="none"/>
    </clipPath>
  </defs>
  <g id="pv_a0indicacao_mapa" transform="translate(0 21.984)">
    <g id="Grupo_2137" data-name="Grupo 2137" clip-path="url(#clip-path)">
      <g id="Grupo_2131" data-name="Grupo 2131" transform="translate(6.337 -10.992)">
        <path id="Caminho_3326" data-name="Caminho 3326" d="M0,0A4.688,4.688,0,0,0,4.688,4.688V0Z" fill="#ffbe31"/>
      </g>
      <g id="Grupo_2132" data-name="Grupo 2132" transform="translate(11.025 -15.68)">
        <path id="Caminho_3327" data-name="Caminho 3327" d="M0,0A4.688,4.688,0,0,0-4.688,4.688H0Z" fill="#fc86bf"/>
      </g>
      <g id="Grupo_2133" data-name="Grupo 2133" transform="translate(3.764 -10.992)">
        <path id="Caminho_3328" data-name="Caminho 3328" d="M0,0H-3.764A10.992,10.992,0,0,0,7.229,10.991V7.229A7.229,7.229,0,0,1,0,0" fill="#00aecc"/>
      </g>
      <g id="Grupo_2134" data-name="Grupo 2134" transform="translate(18.22 -10.992)">
        <path id="Caminho_3329" data-name="Caminho 3329" d="M0,0H3.764A10.992,10.992,0,0,0-7.229-10.992v3.763A7.229,7.229,0,0,1,0,0" fill="#00aecc"/>
      </g>
      <g id="Grupo_2135" data-name="Grupo 2135" transform="translate(10.992 -18.22)">
        <path id="Caminho_3330" data-name="Caminho 3330" d="M0,0V-3.764A10.993,10.993,0,0,0-10.993,7.229h3.764A7.23,7.23,0,0,1,0,0" fill="#ffbe31"/>
      </g>
    </g>
  </g>
</svg>
