<svg xmlns="http://www.w3.org/2000/svg" width="21.986" height="21.985" viewBox="0 0 21.986 21.985">
  <g id="pv_a0indicacao_registrar" transform="translate(0.001 21.985)">
    <g id="Grupo_2153" data-name="Grupo 2153">
      <g id="Grupo_2091" data-name="Grupo 2091" transform="translate(6.336 -10.992)">
        <path id="Caminho_3291" data-name="Caminho 3291" d="M0,0A4.688,4.688,0,0,0,4.688,4.688V0Z" fill="#ffbe31"/>
      </g>
      <g id="Grupo_2092" data-name="Grupo 2092" transform="translate(11.025 -15.68)">
        <path id="Caminho_3292" data-name="Caminho 3292" d="M0,0A4.688,4.688,0,0,0-4.688,4.688H0Z" fill="#fc86bf"/>
      </g>
      <g id="Grupo_2093" data-name="Grupo 2093" transform="translate(3.763 -10.992)">
        <path id="Caminho_3293" data-name="Caminho 3293" d="M0,0H-3.764A10.992,10.992,0,0,0,7.229,10.992V7.229A7.229,7.229,0,0,1,0,0" fill="#349053"/>
      </g>
      <g id="Grupo_2094" data-name="Grupo 2094" transform="translate(18.221 -10.992)">
        <path id="Caminho_3294" data-name="Caminho 3294" d="M0,0H3.764A10.993,10.993,0,0,0-7.229-10.993v3.764A7.229,7.229,0,0,1,0,0" fill="#349053"/>
      </g>
      <g id="Grupo_2095" data-name="Grupo 2095" transform="translate(10.992 -18.221)">
        <path id="Caminho_3295" data-name="Caminho 3295" d="M0,0V-3.764A10.993,10.993,0,0,0-10.993,7.229h3.764A7.23,7.23,0,0,1,0,0" fill="#ffbe31"/>
      </g>
    </g>
  </g>
</svg>
