<svg xmlns="http://www.w3.org/2000/svg" width="21.985" height="21.985" viewBox="0 0 21.985 21.985">
  <g id="pv_a0indicacao_dicionario" transform="translate(0 21.985)">
    <g id="Grupo_2155" data-name="Grupo 2155">
      <g id="Grupo_2139" data-name="Grupo 2139" transform="translate(6.337 -10.992)">
        <path id="Caminho_3333" data-name="Caminho 3333" d="M0,0A4.688,4.688,0,0,0,4.688,4.688V0Z" fill="#ffbe31"/>
      </g>
      <g id="Grupo_2140" data-name="Grupo 2140" transform="translate(11.026 -15.68)">
        <path id="Caminho_3334" data-name="Caminho 3334" d="M0,0A4.688,4.688,0,0,0-4.688,4.688H0Z" fill="#fc86bf"/>
      </g>
      <g id="Grupo_2141" data-name="Grupo 2141" transform="translate(3.764 -10.992)">
        <path id="Caminho_3335" data-name="Caminho 3335" d="M0,0H-3.764A10.992,10.992,0,0,0,7.229,10.992V7.229A7.229,7.229,0,0,1,0,0" fill="#fc469b"/>
      </g>
      <g id="Grupo_2142" data-name="Grupo 2142" transform="translate(18.222 -10.992)">
        <path id="Caminho_3336" data-name="Caminho 3336" d="M0,0H3.764A10.993,10.993,0,0,0-7.229-10.993v3.764A7.229,7.229,0,0,1,0,0" fill="#fc469b"/>
      </g>
      <g id="Grupo_2143" data-name="Grupo 2143" transform="translate(10.993 -18.221)">
        <path id="Caminho_3337" data-name="Caminho 3337" d="M0,0V-3.764A10.993,10.993,0,0,0-10.993,7.229h3.764A7.23,7.23,0,0,1,0,0" fill="#ffbe31"/>
      </g>
    </g>
  </g>
</svg>
