<svg xmlns="http://www.w3.org/2000/svg" width="21.986" height="21.985" viewBox="0 0 21.986 21.985">
  <g id="pv_a0indicacao_estudo" transform="translate(0 21.985)">
    <g id="Grupo_2154" data-name="Grupo 2154">
      <g id="Grupo_2099" data-name="Grupo 2099" transform="translate(6.337 -10.993)">
        <path id="Caminho_3298" data-name="Caminho 3298" d="M0,0A4.688,4.688,0,0,0,4.688,4.688V0Z" fill="#ffbe31"/>
      </g>
      <g id="Grupo_2100" data-name="Grupo 2100" transform="translate(11.025 -15.681)">
        <path id="Caminho_3299" data-name="Caminho 3299" d="M0,0A4.688,4.688,0,0,0-4.688,4.688H0Z" fill="#fc86bf"/>
      </g>
      <g id="Grupo_2101" data-name="Grupo 2101" transform="translate(3.764 -10.992)">
        <path id="Caminho_3300" data-name="Caminho 3300" d="M0,0H-3.764A10.992,10.992,0,0,0,7.229,10.992V7.229A7.229,7.229,0,0,1,0,0" fill="#f53557"/>
      </g>
      <g id="Grupo_2102" data-name="Grupo 2102" transform="translate(18.221 -10.993)">
        <path id="Caminho_3301" data-name="Caminho 3301" d="M0,0H3.764A10.993,10.993,0,0,0-7.229-10.993v3.764A7.229,7.229,0,0,1,0,0" fill="#f53557"/>
      </g>
      <g id="Grupo_2103" data-name="Grupo 2103" transform="translate(10.993 -18.221)">
        <path id="Caminho_3302" data-name="Caminho 3302" d="M0,0V-3.764A10.993,10.993,0,0,0-10.993,7.229h3.764A7.23,7.23,0,0,1,0,0" fill="#ffbe31"/>
      </g>
    </g>
  </g>
</svg>
