<svg id="pv_balaopensamento_esq" xmlns="http://www.w3.org/2000/svg" xmlns:xlink="http://www.w3.org/1999/xlink" width="30.346" height="25.482" viewBox="0 0 30.346 25.482">
  <defs>
    <clipPath id="clip-path">
      <path id="Caminho_3466" data-name="Caminho 3466" d="M30.346,0H0V-25.482H30.346Z" transform="translate(0 25.482)" fill="none"/>
    </clipPath>
  </defs>
  <g id="Grupo_2227" data-name="Grupo 2227" transform="translate(0 0)" clip-path="url(#clip-path)">
    <g id="Grupo_2223" data-name="Grupo 2223" transform="translate(13.398 1)">
      <path id="Caminho_3462" data-name="Caminho 3462" d="M-2.2,0A7.941,7.941,0,0,1-9-8.941a7.941,7.941,0,0,1,9-6.721A7.941,7.941,0,0,1,6.8-6.721,7.941,7.941,0,0,1-2.2,0" transform="translate(9.074 15.741)" fill="#fff"/>
    </g>
    <g id="Grupo_2224" data-name="Grupo 2224" transform="translate(13.398 1)">
      <path id="Caminho_3463" data-name="Caminho 3463" d="M-2.2,0A7.941,7.941,0,0,1-9-8.941a7.941,7.941,0,0,1,9-6.721A7.941,7.941,0,0,1,6.8-6.721,7.941,7.941,0,0,1-2.2,0Z" transform="translate(9.074 15.741)" fill="none" stroke="#ffbe31" stroke-width="2"/>
    </g>
    <g id="Grupo_2225" data-name="Grupo 2225" transform="translate(1 13.681)">
      <path id="Caminho_3464" data-name="Caminho 3464" d="M-1.5,0A5.419,5.419,0,0,1-6.139-6.1,5.419,5.419,0,0,1,0-10.693a5.42,5.42,0,0,1,4.636,6.1A5.419,5.419,0,0,1-1.5,0" transform="translate(6.192 10.747)" fill="#fff"/>
    </g>
    <g id="Grupo_2226" data-name="Grupo 2226" transform="translate(1 13.681)">
      <path id="Caminho_3465" data-name="Caminho 3465" d="M-1.5,0A5.419,5.419,0,0,1-6.139-6.1,5.419,5.419,0,0,1,0-10.693a5.42,5.42,0,0,1,4.636,6.1A5.419,5.419,0,0,1-1.5,0Z" transform="translate(6.192 10.747)" fill="none" stroke="#ffbe31" stroke-width="2"/>
    </g>
  </g>
</svg>
