<svg xmlns="http://www.w3.org/2000/svg" xmlns:xlink="http://www.w3.org/1999/xlink" width="35" height="107.763" viewBox="0 0 35 107.763">
  <defs>
    <clipPath id="clip-path">
      <path id="Caminho_3371" data-name="Caminho 3371" d="M0,0H30.593V-107.763H0Z" fill="none"/>
    </clipPath>
  </defs>
  <g id="pv_caderno" transform="translate(-1257 -2348.119)">
    <g id="Retângulo_384" data-name="Retângulo 384" transform="translate(1281 2350)" fill="#9ae4fa" stroke="#595db0" stroke-width="1">
      <rect width="11" height="11" stroke="none"/>
      <rect x="0.5" y="0.5" width="10" height="10" fill="none"/>
    </g>
    <g id="Retângulo_385" data-name="Retângulo 385" transform="translate(1281 2372)" fill="#9ae4fa" stroke="#595db0" stroke-width="1">
      <rect width="11" height="11" stroke="none"/>
      <rect x="0.5" y="0.5" width="10" height="10" fill="none"/>
    </g>
    <g id="Retângulo_386" data-name="Retângulo 386" transform="translate(1281 2394)" fill="#9ae4fa" stroke="#595db0" stroke-width="1">
      <rect width="11" height="11" stroke="none"/>
      <rect x="0.5" y="0.5" width="10" height="10" fill="none"/>
    </g>
    <g id="Retângulo_387" data-name="Retângulo 387" transform="translate(1281 2416)" fill="#9ae4fa" stroke="#595db0" stroke-width="1">
      <rect width="11" height="11" stroke="none"/>
      <rect x="0.5" y="0.5" width="10" height="10" fill="none"/>
    </g>
    <g id="Retângulo_388" data-name="Retângulo 388" transform="translate(1281 2438)" fill="#9ae4fa" stroke="#595db0" stroke-width="1">
      <rect width="11" height="11" stroke="none"/>
      <rect x="0.5" y="0.5" width="10" height="10" fill="none"/>
    </g>
    <g id="pv_caderno-2" data-name="pv_caderno" transform="translate(1257 2455.882)">
      <g id="Grupo_2194" data-name="Grupo 2194" clip-path="url(#clip-path)">
        <g id="Grupo_2193" data-name="Grupo 2193" transform="translate(29.343 -95.714)">
          <path id="Caminho_3370" data-name="Caminho 3370" d="M0,0H0A6.562,6.562,0,0,0-6.562-6.562H-21.531A6.562,6.562,0,0,0-28.093,0a6.562,6.562,0,0,0,6.562,6.562h2.442M-.526-1.659A6.551,6.551,0,0,0,0-4.237,6.562,6.562,0,0,0-6.562-10.8H-21.53a6.563,6.563,0,0,0-6.563,6.562A6.563,6.563,0,0,0-21.53,2.325h2.442M0,21.991H0A6.561,6.561,0,0,0-6.562,15.43H-21.531a6.561,6.561,0,0,0-6.562,6.561,6.561,6.561,0,0,0,6.562,6.562h2.442M-.526,20.332A6.547,6.547,0,0,0,0,17.755a6.563,6.563,0,0,0-6.562-6.563H-21.53a6.564,6.564,0,0,0-6.563,6.563,6.563,6.563,0,0,0,6.563,6.562h2.442M0,43.916H0a6.562,6.562,0,0,0-6.562-6.562H-21.531a6.562,6.562,0,0,0-6.562,6.562,6.562,6.562,0,0,0,6.562,6.562h2.442M-.526,42.257A6.548,6.548,0,0,0,0,39.679a6.562,6.562,0,0,0-6.562-6.562H-21.53a6.563,6.563,0,0,0-6.563,6.562,6.562,6.562,0,0,0,6.563,6.562h2.442M0,65.974H0a6.561,6.561,0,0,0-6.562-6.561H-21.531a6.561,6.561,0,0,0-6.562,6.561,6.561,6.561,0,0,0,6.562,6.562h2.442M-.526,64.315A6.547,6.547,0,0,0,0,61.738a6.562,6.562,0,0,0-6.562-6.563H-21.53a6.563,6.563,0,0,0-6.563,6.563A6.562,6.562,0,0,0-21.53,68.3h2.442M0,87.9H0A6.562,6.562,0,0,0-6.562,81.34H-21.531A6.562,6.562,0,0,0-28.093,87.9a6.562,6.562,0,0,0,6.562,6.562h2.442M-.526,86.243A6.551,6.551,0,0,0,0,83.665,6.563,6.563,0,0,0-6.562,77.1H-21.53a6.564,6.564,0,0,0-6.563,6.563,6.563,6.563,0,0,0,6.563,6.562h2.442" fill="none" stroke="#ffbe31" stroke-width="2.5"/>
        </g>
      </g>
    </g>
  </g>
</svg>
