<svg xmlns="http://www.w3.org/2000/svg" width="61" height="47.06" viewBox="0 0 61 47.06">
  <g id="pv_estrategias" transform="translate(-1138 -2600)">
    <g id="Grupo_2212" data-name="Grupo 2212" transform="translate(1138 2600)">
      <path id="Caminho_3438" data-name="Caminho 3438" d="M0,0A18.19,18.19,0,0,0,18.19,18.19V0Z" transform="translate(17.572 47.059) rotate(-90)" fill="#f186b6"/>
      <path id="Caminho_3437" data-name="Caminho 3437" d="M18.19,0A18.19,18.19,0,0,0,0,18.19H18.19Z" transform="translate(35.762 10.68) rotate(90)" fill="#08b051"/>
      <path id="Caminho_3427" data-name="Caminho 3427" d="M474.729,358.235h-4.648A11.4,11.4,0,0,0,458.7,346.852V342.2a16.049,16.049,0,0,1,16.031,16.031" transform="translate(-413.729 -342.204)" fill="#00b3cc"/>
      <path id="Caminho_3428" data-name="Caminho 3428" d="M433.064,358.291h16.087V342.2H433.064Zm13.977-5.073a2.967,2.967,0,0,1-5.934.052,2.967,2.967,0,1,1-2.965-3.021h0v0h0a2.968,2.968,0,1,1,2.957-3.188h.016a2.967,2.967,0,1,1,3.209,3.176v.027a2.968,2.968,0,0,1,2.717,2.957" transform="translate(-404.183 -342.204)" fill="#e34a48"/>
      <path id="Caminho_3429" data-name="Caminho 3429" d="M387.044,388.2a18.19,18.19,0,0,0,18.19,18.19V388.2Z" transform="translate(-387.044 -359.335)" fill="#f186b6"/>
      <path id="Caminho_3430" data-name="Caminho 3430" d="M405.234,359.222a18.19,18.19,0,0,0-18.19,18.19h18.19Z" transform="translate(-387.044 -348.542)" fill="#08b051"/>
      <path id="Caminho_3431" data-name="Caminho 3431" d="M408.457,393.392A12.758,12.758,0,1,0,395.7,380.634a12.758,12.758,0,0,0,12.758,12.758" transform="translate(-390.267 -351.765)" fill="#e34a48"/>
      <path id="Caminho_3432" data-name="Caminho 3432" d="M403.667,388.2a7.758,7.758,0,0,0,7.758,7.758V388.2Z" transform="translate(-393.235 -359.335)" fill="#fff"/>
      <path id="Caminho_3433" data-name="Caminho 3433" d="M416.028,375.844V383.6h7.758a7.758,7.758,0,0,0-7.758-7.758" transform="translate(-397.838 -354.732)" fill="#fff"/>
      <path id="Caminho_3434" data-name="Caminho 3434" d="M411.424,375.844a7.758,7.758,0,0,0-7.758,7.758h7.758Z" transform="translate(-393.234 -354.732)" fill="#00b3cc"/>
      <path id="Caminho_3435" data-name="Caminho 3435" d="M416.028,395.963a7.758,7.758,0,0,0,7.758-7.758h-7.758Z" transform="translate(-397.838 -359.335)" fill="#00b3cc"/>
      <path id="Caminho_3436" data-name="Caminho 3436" d="M465.473,363.4v.011H458.7v-7.084a6.929,6.929,0,0,1,6.775,7.073" transform="translate(-413.729 -347.464)" fill="#ffc10e"/>
    </g>
    <path id="Caminho_3439" data-name="Caminho 3439" d="M25.8,10.68h0Zm5.358,0h0Zm-5.358,0h5.358V5.338H25.8ZM20.438,5.329H25.8V0H20.438Zm10.715,0h5.339V0H31.153Z" transform="translate(1130.388 2600)" fill="#ffb300"/>
    <rect id="Retângulo_401" data-name="Retângulo 401" width="5.339" height="5.329" transform="translate(1161.542 2610.671)" fill="#ffb300"/>
  </g>
</svg>
