<svg id="pv_estrategiastitdois" xmlns="http://www.w3.org/2000/svg" width="46.236" height="45.226" viewBox="0 0 46.236 45.226">
  <g id="Grupo_2213" data-name="Grupo 2213">
    <path id="Caminho_3440" data-name="Caminho 3440" d="M27.374,14.666v30.56H10.922A10.922,10.922,0,0,1,0,34.3V25.587A10.92,10.92,0,0,1,10.921,14.666Z" fill="#32a43d"/>
    <path id="Caminho_3441" data-name="Caminho 3441" d="M3.6,29.615V29.6a10.417,10.417,0,0,0,10.22-10.371A10.42,10.42,0,0,0,24.083,29.6v.013A10.416,10.416,0,0,0,13.82,39.978,10.418,10.418,0,0,0,3.6,29.615M13.81,40.171c0-.065.009-.128.01-.193,0,.065.009.128.009.193,0,.026,0,.051,0,.077h-.012c0-.027,0-.052,0-.078m-.014.079h.018c0,.036.005.071.005.106ZM24.087,29.691c0-.026,0-.052,0-.078H24.1ZM13.829,19.042c0,.031,0,.061,0,.092l-.005-.271h0c0,.06.008.119.008.179m0,.092c0,.031-.005.061-.006.093,0-.032,0-.062,0-.094h.01m-.015-.092c0,.031,0,.061,0,.091H13.8l.023-.269c0,.06-.009.119-.009.179" fill="#fff"/>
    <path id="Caminho_3442" data-name="Caminho 3442" d="M32.309,27.854A13.927,13.927,0,1,0,18.382,13.927,13.927,13.927,0,0,0,32.309,27.854" fill="#e970a8"/>
    <path id="Caminho_3443" data-name="Caminho 3443" d="M32.309,23.107a9.261,9.261,0,0,0,9.34-9.181,9.341,9.341,0,0,0-18.68,0,9.261,9.261,0,0,0,9.34,9.181" fill="#fff"/>
    <path id="Caminho_3444" data-name="Caminho 3444" d="M32.309,20.045a6.119,6.119,0,1,0-6.225-6.118,6.172,6.172,0,0,0,6.225,6.118" fill="#ffb300"/>
  </g>
</svg>
