<svg xmlns="http://www.w3.org/2000/svg" xmlns:xlink="http://www.w3.org/1999/xlink" width="22.029" height="24.934" viewBox="0 0 22.029 24.934">
  <defs>
    <clipPath id="clip-path">
      <rect id="Retângulo_364" data-name="Retângulo 364" width="22.029" height="24.934" transform="translate(0 0)" fill="none"/>
    </clipPath>
  </defs>
  <g id="pv_ideiabox" transform="translate(0 0)">
    <g id="Grupo_1875" data-name="Grupo 1875" clip-path="url(#clip-path)">
      <path id="Caminho_2989" data-name="Caminho 2989" d="M22.029,24.934h-7.7A7.429,7.429,0,0,1,6.9,17.5V0H22.029Z" fill="#009cbf"/>
      <path id="Caminho_2990" data-name="Caminho 2990" d="M0,6.9a6.9,6.9,0,0,0,6.9,6.9V6.9Z" fill="#e671a8"/>
      <path id="Caminho_2991" data-name="Caminho 2991" d="M6.9,0V6.9h6.9A6.9,6.9,0,0,0,6.9,0" fill="#e671a8"/>
      <path id="Caminho_2992" data-name="Caminho 2992" d="M6.9,0A6.9,6.9,0,0,0,0,6.9H6.9Z" fill="#30972f"/>
      <path id="Caminho_2993" data-name="Caminho 2993" d="M6.9,13.8a6.9,6.9,0,0,0,6.9-6.9H6.9Z" fill="#fff"/>
      <path id="Caminho_2994" data-name="Caminho 2994" d="M6.9,12.343A5.441,5.441,0,1,0,1.461,6.9,5.441,5.441,0,0,0,6.9,12.343" fill="#d5282f"/>
      <path id="Caminho_2995" data-name="Caminho 2995" d="M2.793,6.9A4.109,4.109,0,0,0,6.9,11.011V6.9Z" fill="#fff"/>
      <path id="Caminho_2996" data-name="Caminho 2996" d="M6.9,2.793V6.9h4.109A4.109,4.109,0,0,0,6.9,2.793" fill="#fff"/>
      <path id="Caminho_2997" data-name="Caminho 2997" d="M6.9,2.793A4.109,4.109,0,0,0,2.793,6.9H6.9Z" fill="#009cbf"/>
      <path id="Caminho_2998" data-name="Caminho 2998" d="M6.9,11.011A4.109,4.109,0,0,0,11.011,6.9H6.9Z" fill="#009cbf"/>
      <path id="Caminho_2999" data-name="Caminho 2999" d="M14.687,23.468a6.558,6.558,0,1,1,6.561-6.559,6.567,6.567,0,0,1-6.561,6.559m0-11.963a5.406,5.406,0,1,0,5.409,5.4,5.412,5.412,0,0,0-5.409-5.4" fill="#fff"/>
      <path id="Caminho_3000" data-name="Caminho 3000" d="M16.625,16.282a1.215,1.215,0,1,0-1.216-1.216,1.216,1.216,0,0,0,1.216,1.216" fill="#fff"/>
      <path id="Caminho_3001" data-name="Caminho 3001" d="M12.9,16.282a1.215,1.215,0,1,0-1.216-1.216A1.216,1.216,0,0,0,12.9,16.282" fill="#fff"/>
      <path id="Caminho_3002" data-name="Caminho 3002" d="M17.181,17.83H11.413a3.349,3.349,0,0,0,6.7,0Z" fill="#fff"/>
    </g>
  </g>
</svg>
