<svg xmlns="http://www.w3.org/2000/svg" width="48.5" height="47.578" viewBox="0 0 48.5 47.578">
  <g id="pv_jogos_brincadeiras_um" transform="translate(-67 -2062.537)">
    <path id="Caminho_3103" data-name="Caminho 3103" d="M3.605,7.211a19.459,19.459,0,0,0,19.46-19.459,19.46,19.46,0,0,0-19.46-19.46,19.46,19.46,0,0,0-19.46,19.46A19.459,19.459,0,0,0,3.605,7.211" transform="translate(87.645 2098.534)" fill="#0fbed2"/>
    <path id="Caminho_3104" data-name="Caminho 3104" d="M0,3.251H0A17.711,17.711,0,0,0,17.544-14.2l6.834-.1,0,1.5A24.693,24.693,0,0,1,.015,10.009Z" transform="translate(91.118 2100.105)" fill="#ffbe31"/>
    <path id="Caminho_3105" data-name="Caminho 3105" d="M0,1.253H0A17.171,17.171,0,0,1,17.625,18.17l6.835-.1,0-1.5A23.931,23.931,0,0,0-.012-5.505h0Z" transform="translate(91.039 2068.046)" fill="#ffbe31"/>
    <path id="Caminho_3106" data-name="Caminho 3106" d="M4.517,1.252h0A17.71,17.71,0,0,0-13.027,18.7l-6.834.1,0-1.5A24.693,24.693,0,0,1,4.5-5.506Z" transform="translate(86.865 2068.043)" fill="#f84942"/>
    <path id="Caminho_3107" data-name="Caminho 3107" d="M4.531,3.134h0A17.171,17.171,0,0,1-13.091-13.783l-6.835.1,0,1.5A23.931,23.931,0,0,0,4.546,9.892h0Z" transform="translate(86.928 2100.175)" fill="#fff"/>
    <path id="Caminho_3108" data-name="Caminho 3108" d="M3.677.46A2.481,2.481,0,0,0,1.2-2.021H-13.689A2.481,2.481,0,0,0-16.17.46V15.344a2.48,2.48,0,0,0,2.481,2.481H1.2a2.48,2.48,0,0,0,2.481-2.481ZM-9.538,2.392A2.062,2.062,0,0,1-11.6,4.454a2.062,2.062,0,0,1-2.061-2.062A2.061,2.061,0,0,1-11.6.331,2.062,2.062,0,0,1-9.538,2.392m0,11.021A2.062,2.062,0,0,1-11.6,15.473a2.061,2.061,0,0,1-2.061-2.061A2.061,2.061,0,0,1-11.6,11.352a2.062,2.062,0,0,1,2.062,2.061M-4.184,7.9A2.062,2.062,0,0,1-6.246,9.963,2.061,2.061,0,0,1-8.307,7.9,2.062,2.062,0,0,1-6.246,5.84,2.062,2.062,0,0,1-4.184,7.9M1.169,2.392A2.062,2.062,0,0,1-.893,4.454,2.062,2.062,0,0,1-2.953,2.392,2.061,2.061,0,0,1-.893.331,2.062,2.062,0,0,1,1.169,2.392m0,11.021A2.062,2.062,0,0,1-.893,15.473a2.061,2.061,0,0,1-2.061-2.061A2.061,2.061,0,0,1-.893,11.352a2.062,2.062,0,0,1,2.062,2.061" transform="translate(97.747 2078.424)" fill="#fff"/>
  </g>
</svg>
