<svg id="pv_modelo" xmlns="http://www.w3.org/2000/svg" xmlns:xlink="http://www.w3.org/1999/xlink" width="58.875" height="51.82" viewBox="0 0 58.875 51.82">
  <defs>
    <clipPath id="clip-path">
      <rect id="Retângulo_352" data-name="Retângulo 352" width="58.875" height="51.82" transform="translate(0 0)" fill="none"/>
    </clipPath>
  </defs>
  <g id="Grupo_1842" data-name="Grupo 1842" clip-path="url(#clip-path)">
    <path id="Caminho_2942" data-name="Caminho 2942" d="M29.639,51.821a25.993,25.993,0,0,1-18.252-7.434l-.252-.248,11.73-6.5.129.071A13.474,13.474,0,0,0,43.045,26.592l.008-.146,11.729-6.5.078.345A26.053,26.053,0,0,1,42.141,48.606a25.758,25.758,0,0,1-12.5,3.215M12.012,44.257A25.374,25.374,0,0,0,54.418,20.751L43.566,26.766a14,14,0,0,1-20.7,11.474Zm-7.781-12.9L4.16,31A25.915,25.915,0,0,1,47.339,7.067l.264.248-11.9,6.6-.124-.061A13.493,13.493,0,0,0,16.146,24.62l-.013.138ZM29.594.53A25.428,25.428,0,0,0,4.61,30.541l11.024-6.112A14.022,14.022,0,0,1,35.685,13.315L46.71,7.2A25.311,25.311,0,0,0,29.594.53" fill="#5a5b5e"/>
    <path id="Caminho_2943" data-name="Caminho 2943" d="M7.674,46.8,0,32.956l.339-.188L51.2,4.575l7.675,13.846ZM1.052,33.257,7.976,45.748,57.823,18.119,50.9,5.627Z" fill="#5a5b5e"/>
    <path id="Caminho_2944" data-name="Caminho 2944" d="M43.632,17.961c-.576-1.039-.627-2.148.389-2.712s1.929.068,2.506,1.107.673,2.123-.39,2.712S44.208,19,43.632,17.961m-1.215.673a2.86,2.86,0,0,0,4.206,1.31,2.862,2.862,0,0,0,1.119-4.261,2.856,2.856,0,0,0-4.207-1.31,3,3,0,0,0-1.118,4.261m-.951,3.023-1.325.735-2.116-3.819.485-.269-.435-.784-2.093,1.16.435.784.485-.269,2.117,3.819-.485.269.434.784,3.848-2.133-.891-1.789-.931.516Zm-5.21,2.888-1.341.743-.87-1.571,1.355-.751-.46-.83-1.356.751L32.8,21.47l1.317-.73.49.775L35.529,21l-.925-1.56-3.94,2.184.435.784.577-.32,2.117,3.819-.485.268.434.784,3.871-2.145-.877-1.727-.923.512Zm-7.8,4.323-2.117-3.819.64-.354a1.882,1.882,0,0,1,2.859.8,2.015,2.015,0,0,1-.727,3.01Zm-1.123.622-.577.32.435.784,2.577-1.429a3.015,3.015,0,0,0,1.268-4.374c-.939-1.694-2.513-1.977-4.315-.978l-2.516,1.394.434.784.578-.32Zm-6.839,1.3c-.576-1.039-.627-2.148.389-2.711s1.93.067,2.506,1.107S24.064,31.3,23,31.892s-1.93-.067-2.506-1.107m-1.215.674a2.862,2.862,0,0,0,4.207,1.31,2.862,2.862,0,0,0,1.118-4.262A2.857,2.857,0,0,0,20.4,27.2a3,3,0,0,0-1.118,4.262m-1.628,3.4-.454.252.434.784,2.07-1.147-.435-.784-.538.3-2.117-3.818.562-.312-.435-.784-1.954,1.083.6,4.044a3.8,3.8,0,0,0,.264,1.111l-.016.009a2.776,2.776,0,0,0-.62-.612l-3.37-2.811-1.977,1.1.435.785.561-.312,2.117,3.819-.469.26.434.784,1.908-1.058-.435-.784-.562.312-1.749-3.157.015-.008a3.481,3.481,0,0,0,.608.589l3.039,2.541,1.078-.6L16.1,32.586a3.362,3.362,0,0,0-.185-.823l.015-.009Z" fill="#5a5b5e"/>
    <path id="Caminho_2945" data-name="Caminho 2945" d="M29.434,6.735c.031-.714.354-1.3,1.052-1.268s.967.641.936,1.355-.321,1.3-1.05,1.268-.969-.641-.938-1.355M28.6,6.7a1.833,1.833,0,1,0,3.658.159,1.718,1.718,0,0,0-1.745-1.993A1.805,1.805,0,0,0,28.6,6.7M27.479,8.18l-.9.144-.413-2.593.33-.052-.085-.533-1.42.227.084.532.329-.053.413,2.593-.329.052.086.533,2.611-.416L28.047,7.42l-.632.1Zm-3.2.656-.862.325L23.033,8.15l.873-.328-.2-.535-.873.329L22.49,6.7l.847-.319.223.5.594-.223L23.74,5.657,21.2,6.611l.191.5.371-.139.924,2.457-.312.117.19.505,2.491-.938-.371-1.1-.592.224Zm-4.538,2.172L18.346,8.782l.372-.233a1.134,1.134,0,0,1,1.744.39,1.212,1.212,0,0,1-.343,1.83Zm-.655.409-.336.211.285.457,1.5-.94a1.814,1.814,0,0,0,.623-2.667,1.71,1.71,0,0,0-2.622-.451l-1.467.918.286.457.336-.211Zm-3.634,1.47c-.489-.521-.682-1.16-.172-1.638s1.135-.245,1.623.276.7,1.139.172,1.639-1.134.244-1.623-.277m-.61.571a1.721,1.721,0,0,0,2.646.145,1.72,1.72,0,0,0,.025-2.649,1.719,1.719,0,0,0-2.646-.145,1.8,1.8,0,0,0-.025,2.649m.006,2.288-.158.269.465.273.72-1.227-.465-.273-.187.32-2.265-1.329.2-.333-.465-.273-.68,1.159,1.548,1.909a2.336,2.336,0,0,0,.477.494l-.005.009a1.683,1.683,0,0,0-.509-.126l-2.6-.424-.687,1.173.464.273.2-.333,2.264,1.328-.163.278.465.273.663-1.131-.465-.273-.195.333-1.872-1.1.006-.009a2.078,2.078,0,0,0,.495.119l2.35.385.375-.64-1.461-1.827A1.989,1.989,0,0,0,13,14.676l.005-.009Z" fill="#5a5b5e"/>
    <path id="Caminho_2946" data-name="Caminho 2946" d="M46.017,35.594c-.635-.329-1.029-.867-.707-1.487s.989-.608,1.623-.279,1.043.839.707,1.487-.989.608-1.623.279m-.385.742a1.832,1.832,0,1,0,1.685-3.25,1.717,1.717,0,0,0-2.542.743,1.8,1.8,0,0,0,.857,2.507m.136,1.959L45.192,39,43.158,37.34l.211-.258-.417-.341-.91,1.115.417.34.211-.258L44.7,39.6l-.211.258.418.341,1.672-2.049-.9-.8-.4.5Zm-2.681,2.854-.686.616-.721-.8.693-.623-.381-.425-.694.623-.651-.725.674-.6.392.389.472-.424-.752-.79L39.418,40.19l.36.4.3-.266,1.754,1.954-.249.223.361.4,1.98-1.777-.746-.9-.472.424ZM38.37,44.225,37.16,41.9l.39-.2a1.132,1.132,0,0,1,1.706.528,1.211,1.211,0,0,1-.486,1.8Zm-.685.355-.352.183.249.479,1.572-.817a1.813,1.813,0,0,0,.833-2.609,1.709,1.709,0,0,0-2.578-.658l-1.535.8.249.478.352-.183Zm-4.419-.121c-.167-.695-.018-1.345.661-1.508s1.108.349,1.274,1.044.049,1.338-.661,1.509-1.107-.35-1.274-1.045m-.812.195a1.832,1.832,0,1,0,3.56-.854,1.718,1.718,0,0,0-2.227-1.435,1.8,1.8,0,0,0-1.333,2.289m-1.846,1.371H30.3l0,.539,1.423.005,0-.539-.371,0,.009-2.625h.386l0-.539-1.344,0-.87,2.3a2.287,2.287,0,0,0-.187.661h-.011a1.685,1.685,0,0,0-.146-.5l-.945-2.463-1.36,0v.539h.386l-.009,2.625h-.322l0,.539,1.312,0v-.539h-.386l.007-2.17h.011a2.082,2.082,0,0,0,.146.488l.851,2.224.741,0,.843-2.183a1.945,1.945,0,0,0,.144-.486h.011Z" fill="#5a5b5e"/>
  </g>
</svg>
