<svg xmlns="http://www.w3.org/2000/svg" width="45.785" height="27.723" viewBox="0 0 45.785 27.723">
  <g id="pv_o0parasabermais" transform="translate(-1323 -880.36)">
    <g id="Grupo_87" data-name="Grupo 87" transform="translate(1344.579 881.793)">
      <path id="Caminho_69" data-name="Caminho 69" d="M0,0A8.5,8.5,0,0,0-8.5,8.5v13h32.71V0Z" fill="#f84942"/>
    </g>
    <g id="Grupo_90" data-name="Grupo 90" transform="translate(1349.946 902.301)">
      <path id="Caminho_72" data-name="Caminho 72" d="M0,0H0A9.684,9.684,0,0,0,11.736-6.732l3.624.913-.211.8A13.5,13.5,0,0,1-.948,3.572h0Z" fill="#fff"/>
    </g>
    <g id="Grupo_91" data-name="Grupo 91" transform="translate(1354.727 884.301)">
      <path id="Caminho_73" data-name="Caminho 73" d="M0,0H0A9.389,9.389,0,0,1,6.913,11.429l3.625.913.211-.8A13.086,13.086,0,0,0,.948-3.572Z" fill="#fff"/>
    </g>
    <g id="Grupo_92" data-name="Grupo 92" transform="translate(1354.907 884.348)">
      <path id="Caminho_74" data-name="Caminho 74" d="M0,0H0A9.683,9.683,0,0,0-11.735,6.732l-3.625-.913.211-.8A13.5,13.5,0,0,1,.948-3.572Z" fill="#ffbe31"/>
    </g>
    <g id="Grupo_93" data-name="Grupo 93" transform="translate(1350.134 902.324)">
      <path id="Caminho_75" data-name="Caminho 75" d="M0,0H0A9.39,9.39,0,0,1-6.914-11.429l-3.624-.913-.211.8A13.086,13.086,0,0,0-.948,3.572h0Z" fill="#fff"/>
    </g>
    <g id="Grupo_94" data-name="Grupo 94" transform="translate(1350.905 897.516)">
      <path id="Caminho_76" data-name="Caminho 76" d="M0,0,1.963,3.38C2.614,4.5,4.5,4.66,6.169,3.738S8.67,1.162,8.02.043L6.056-3.337Z" fill="#ffbe31"/>
    </g>
    <g id="Grupo_95" data-name="Grupo 95" transform="translate(1351.092 900.56)">
      <path id="Caminho_77" data-name="Caminho 77" d="M0,0A7.247,7.247,0,0,1-5.729-8.584a7.428,7.428,0,0,1,8.717-5.723A7.246,7.246,0,0,1,8.716-5.721,7.427,7.427,0,0,1,0,0" fill="#ffbe31"/>
    </g>
    <g id="Grupo_96" data-name="Grupo 96" transform="translate(1360.171 898.193)">
      <path id="Caminho_78" data-name="Caminho 78" d="M0,0H0L.777,1.078c.431.6-.44,1.643-1.944,2.338L-6.275,5.777-7.053,4.7c-.43-.6.441-1.642,1.945-2.338Z" fill="#0ebfda"/>
    </g>
    <g id="Grupo_97" data-name="Grupo 97" transform="translate(1361.339 901.14)">
      <path id="Caminho_79" data-name="Caminho 79" d="M0,0H0L.65.914c.36.506-.16,1.3-1.16,1.764L-5.617,5.07l-.65-.914c-.359-.5.161-1.293,1.161-1.763Z" fill="#0ebfda"/>
    </g>
    <g id="Grupo_98" data-name="Grupo 98" transform="translate(1361.966 903.851)">
      <path id="Caminho_80" data-name="Caminho 80" d="M0,0H0L.633.895A.812.812,0,0,1,.305,2.139L-4.14,4.232l-.632-.9A.806.806,0,0,1-4.444,2.1Z" fill="#0ebfda"/>
    </g>
    <g id="Grupo_99" data-name="Grupo 99" transform="translate(1324.896 903.273)">
      <path id="Caminho_81" data-name="Caminho 81" d="M0,0A11.18,11.18,0,0,1,11.18-11.18" fill="none" stroke="#0ebfda" stroke-linejoin="round" stroke-width="3.791"/>
    </g>
    <g id="Grupo_100" data-name="Grupo 100" transform="translate(1336.066 897.791)">
      <path id="Caminho_82" data-name="Caminho 82" d="M0,0H.008V5.482H-5.724A5.607,5.607,0,0,1,0,0" fill="#fc86bf"/>
    </g>
  </g>
</svg>
