<?xml version="1.0" encoding="UTF-8"?>
<svg id="Layer_1" xmlns="http://www.w3.org/2000/svg" version="1.1" viewBox="0 0 50 31.63">
  <!-- Generator: Adobe Illustrator 29.6.0, SVG Export Plug-In . SVG Version: 2.1.1 Build 207)  -->
  <defs>
    <style>
      .st0 {
        fill: #f16112;
      }

      .st1 {
        fill: #00973d;
      }

      .st2 {
        fill: #990d7c;
      }
    </style>
  </defs>
  <path class="st0" d="M7.12,15.15H.02v8.95c0,3.92,3.1,7.11,6.98,7.27v-14.74c0-.5.05-1,.12-1.48Z"/>
  <path class="st1" d="M.02,15.02h7.12c.77-4.76,4.89-8.39,9.86-8.39h7.21V0h-9.72C6.49,0,0,6.77,0,15.13v.02h.02v-.13Z"/>
  <path class="st1" d="M7.14,15.02H.02v.13h7.1s.01-.09.02-.13Z"/>
  <path class="st2" d="M49.13,6.63v-.96C49.13,2.54,46.59,0,43.46,0h-2.15v6.63h7.82Z"/>
  <rect class="st2" x="24.21" y="0" width="17.1" height="6.63"/>
</svg>