<svg xmlns="http://www.w3.org/2000/svg" xmlns:xlink="http://www.w3.org/1999/xlink" width="49.128" height="31.61" viewBox="0 0 49.128 31.61">
  <defs>
    <clipPath id="clip-path">
      <path id="Caminho_3160" data-name="Caminho 3160" d="M0,0H49.128V-31.39H0Z" fill="none"/>
    </clipPath>
  </defs>
  <g id="pv_o0sec7box" transform="translate(-65.765 -2637.39)">
    <g id="pv_o0sec7box-2" data-name="pv_o0sec7box" transform="translate(65.765 2668.78)">
      <g id="Grupo_1984" data-name="Grupo 1984" clip-path="url(#clip-path)">
        <g id="Grupo_1981" data-name="Grupo 1981" transform="translate(14.595 -16.37)">
          <path id="Caminho_3157" data-name="Caminho 3157" d="M0,0V9.082A7.288,7.288,0,0,1-7.288,16.37a7.288,7.288,0,0,1-7.288-7.288V0Z" fill="#595db0"/>
        </g>
        <g id="Grupo_1982" data-name="Grupo 1982" transform="translate(41.305 -31.39)">
          <path id="Caminho_3158" data-name="Caminho 3158" d="M0,0H-26.816c-8,0-14.489,6.772-14.489,15.127,0,.008,0,.015,0,.023h14.488v0H0Z" fill="#fc86bf"/>
        </g>
        <g id="Grupo_1983" data-name="Grupo 1983" transform="translate(49.127 -25.721)">
          <path id="Caminho_3159" data-name="Caminho 3159" d="M0,0A5.669,5.669,0,0,0-5.669-5.669H-24.918v15.1H0Z" fill="#595db0"/>
        </g>
      </g>
    </g>
    <path id="Caminho_3266" data-name="Caminho 3266" d="M9.339,0H43.893V27H0V10C0,4.477,4.181,0,9.339,0Z" transform="translate(71 2642)" fill="#d2cde8"/>
  </g>
</svg>
