<svg xmlns="http://www.w3.org/2000/svg" width="531.29" height="107.144" viewBox="0 0 531.29 107.144">
  <g id="pv_o0secapresentacao" transform="translate(0 121.316)">
    <g id="Grupo_2206" data-name="Grupo 2206">
      <g id="Grupo_2201" data-name="Grupo 2201" transform="translate(227.541 -87.477)">
        <path id="Caminho_3399" data-name="Caminho 3399" d="M0,0A19.755,19.755,0,0,1,19.755-19.755,19.743,19.743,0,0,1,39.492-.345a19.748,19.748,0,0,1,19.739-19.41A19.755,19.755,0,0,1,78.987,0,19.756,19.756,0,0,1,59.231,19.756h0v.022h0A19.755,19.755,0,1,1,39.546,41h-.1A19.748,19.748,0,1,1,18.083,19.857v-.179A19.752,19.752,0,0,1,0,0M93.031-33.77H-14.043V73.3H93.031Z" fill="#d9ecc4"/>
      </g>
      <g id="Grupo_2202" data-name="Grupo 2202" transform="translate(106.838 -49.864)">
        <path id="Caminho_3400" data-name="Caminho 3400" d="M0,0,.056,0V35.691H-37.265C-37.265,15.98-20.58,0,0,0" fill="#d9ecc4"/>
      </g>
      <g id="Grupo_2203" data-name="Grupo 2203" transform="translate(35.691 -14.821)">
        <path id="Caminho_3401" data-name="Caminho 3401" d="M0,0H-35.691A106.546,106.546,0,0,1,70.734-106.426v35.692A70.814,70.814,0,0,0,0,0" fill="#d9ecc4"/>
      </g>
      <g id="Grupo_2204" data-name="Grupo 2204" transform="translate(517.035 -120.461)">
        <path id="Caminho_3402" data-name="Caminho 3402" d="M0,0A17.842,17.842,0,0,0-21.074,13.887,71.333,71.333,0,0,1-89.319,70.565v35.691a107.153,107.153,0,0,0,103.2-85.183A17.845,17.845,0,0,0,0,0" fill="#d9ecc4"/>
      </g>
      <g id="Grupo_2205" data-name="Grupo 2205" transform="translate(427.771 -86)">
        <path id="Caminho_3403" data-name="Caminho 3403" d="M0,0-.055,0V-35.316H36.873C36.873-15.811,20.363,0,0,0" fill="#d9ecc4"/>
      </g>
      <path id="Caminho_3404" data-name="Caminho 3404" d="M320.573-14.173H427.716V-121.316H320.573Zm61.388-101.718-.187,25.29,14.711-20.569-7.993,23.993,20.352-15.015L393.828-81.844l23.991-7.992L397.251-75.124l25.287-.187-24.106,7.635,24.106,7.64-25.287-.19L417.819-45.51,393.828-53.5l15.016,20.347L388.492-48.17l7.993,23.992L381.774-44.747l.187,25.288-7.638-24.107-7.637,24.107.187-25.288L352.164-24.178l7.991-23.992L339.806-33.156,354.821-53.5,330.83-45.51,351.4-60.226l-25.286.19,24.107-7.64-24.107-7.635,25.286.187L330.83-89.836l23.991,7.992-15.015-20.348,20.349,15.015-7.991-23.993L366.873-90.6l-.187-25.29,7.637,24.109Z" fill="#b5dc95"/>
      <path id="Caminho_3405" data-name="Caminho 3405" d="M106.425-85.556h35.691v-35.691H106.425Z" fill="#b5dc95"/>
      <path id="Caminho_3406" data-name="Caminho 3406" d="M177.807-49.865H142.116V-85.556h35.691Z" fill="#b5dc95"/>
      <path id="Caminho_3407" data-name="Caminho 3407" d="M177.808-85.556H213.5v-35.691H177.808Z" fill="#b5dc95"/>
      <path id="Caminho_3408" data-name="Caminho 3408" d="M213.5-14.173H177.808V-49.864H213.5Z" fill="#b5dc95"/>
      <path id="Caminho_3412" data-name="Caminho 3412" d="M142.116-14.173H106.425V-49.864h35.691Z" fill="#b5dc95"/>
    </g>
  </g>
</svg>
