<svg xmlns="http://www.w3.org/2000/svg" width="104.146" height="31.406" viewBox="0 0 104.146 31.406">
  <g id="pv_o4autorbox" transform="translate(-632 -2319.281)">
    <g id="Grupo_708" data-name="Grupo 708" transform="translate(646.595 2334.317)">
      <path id="Caminho_1235" data-name="Caminho 1235" d="M0,0V9.082A7.288,7.288,0,0,1-7.288,16.37a7.288,7.288,0,0,1-7.288-7.288V0Z" fill="#ffbe31"/>
    </g>
    <g id="Grupo_709" data-name="Grupo 709" transform="translate(632 2334.424)">
      <path id="Caminho_1236" data-name="Caminho 1236" d="M0,0C0,.008,0,.015,0,.023H14.489v-15.15C6.487-15.127,0-8.355,0,0" fill="#f84942"/>
    </g>
    <g id="Grupo_710" data-name="Grupo 710" transform="translate(647.563 2319.281)">
      <path id="Caminho_1237" data-name="Caminho 1237" d="M0,0A5.669,5.669,0,0,0-5.669,5.669V31.095H25.742V0Z" fill="#f84942"/>
    </g>
    <path id="Caminho_1239" data-name="Caminho 1239" d="M41.324-44.256H72.735V-63.24H41.324Z" transform="translate(632 2382.562)" fill="#ffbe31"/>
    <g id="Grupo_712" data-name="Grupo 712" transform="translate(704.735 2319.322)">
      <path id="Caminho_1240" data-name="Caminho 1240" d="M0,0V13.315a5.669,5.669,0,0,0,5.669,5.669H25.742a5.669,5.669,0,0,0,5.669-5.669V5.669A5.669,5.669,0,0,0,25.742,0Z" fill="#0ebfda"/>
    </g>
  </g>
</svg>
