<svg xmlns="http://www.w3.org/2000/svg" width="292.384" height="60.107" viewBox="0 0 292.384 60.107">
  <g id="pv_p0tit1" transform="translate(-685.622 -551.513)">
    <g id="Grupo_16" data-name="Grupo 16" transform="translate(743.945 553.366)">
      <path id="Caminho_4" data-name="Caminho 4" d="M0,0V19.445H19.374V38.852h19.44V19.445h19.44V0H38.814V19.44H19.374V0ZM19.374,38.885H0V58.254H19.374Zm19.44,19.369h19.44V38.885H38.814Z" fill="#ffbe31"/>
    </g>
    <path id="Caminho_5" data-name="Caminho 5" d="M281.52-127.848H223.266v58.254H281.52Zm0,58.254-50.614-39.881a10.749,10.749,0,0,1,10.748-10.749,10.742,10.742,0,0,1,10.738,10.561,10.744,10.744,0,0,1,10.739-10.561,10.749,10.749,0,0,1,10.748,10.749,10.748,10.748,0,0,1-10.748,10.748h0v.011h0a10.749,10.749,0,0,1,10.748,10.749,10.748,10.748,0,0,1-10.748,10.748,10.742,10.742,0,0,1-10.71-9.951h-.057a10.743,10.743,0,0,1-10.71,9.951,10.748,10.748,0,0,1-10.748-10.748,10.746,10.746,0,0,1,9.838-10.706v-.1a10.745,10.745,0,0,1-9.838-10.705" transform="translate(579 681.214)" fill="#0ebfda"/>
    <g id="Grupo_17" data-name="Grupo 17" transform="translate(743.849 592.301)">
      <path id="Caminho_6" data-name="Caminho 6" d="M0,0H.03V19.318h-20.2C-20.17,8.649-11.139,0,0,0" fill="#fc86bf"/>
    </g>
    <g id="Grupo_18" data-name="Grupo 18" transform="translate(695.383 611.619)">
      <path id="Caminho_7" data-name="Caminho 7" d="M0,0A48.455,48.455,0,0,1,48.454-48.454" fill="none" stroke="#fc86bf" stroke-linejoin="round" stroke-width="19.523"/>
    </g>
    <g id="Grupo_19" data-name="Grupo 19" transform="translate(966.479 563.041)">
      <path id="Caminho_8" data-name="Caminho 8" d="M0,0A48.686,48.686,0,0,1-47.671,38.817" fill="none" stroke="#fc86bf" stroke-linecap="round" stroke-linejoin="round" stroke-width="19.523"/>
    </g>
    <g id="Grupo_24" data-name="Grupo 24" transform="translate(918.837 572.684)">
      <path id="Caminho_13" data-name="Caminho 13" d="M0,0H-.03V-19.318h20.2C20.17-8.649,11.139,0,0,0" fill="#fc86bf"/>
    </g>
    <path id="Caminho_15" data-name="Caminho 15" d="M281.553-69.594h58.254v-58.254H281.553Zm16.759-25.039-13.749.1,13.108-4.152-13.108-4.152,13.749.1-11.183-8,13.045,4.345-8.164-11.064,11.064,8.164-4.346-13.044,8,11.182-.1-13.749,4.151,13.108,4.152-13.108-.1,13.749,8-11.182-4.346,13.044,11.064-8.164-8.164,11.064,13.045-4.345-11.183,8,13.749-.1-13.107,4.152,13.107,4.152-13.749-.1,11.183,8-13.045-4.346,8.164,11.064-11.064-8.164,4.346,13.045-8-11.183.1,13.748-4.152-13.107-4.151,13.107.1-13.748-8,11.183,4.346-13.045L292.01-79.915l8.164-11.064-13.045,4.346Z" transform="translate(579 681.214)" fill="#34b653"/>
  </g>
</svg>
