<svg xmlns="http://www.w3.org/2000/svg" width="45.456" height="23.584" viewBox="0 0 45.456 23.584">
  <g id="pv_p1sec1tidois" transform="translate(-123.999 -337.308)">
    <g id="pv_p1sec1titum" transform="translate(123.999 337.776)">
      <rect id="Retângulo_141" data-name="Retângulo 141" width="23" height="22" transform="translate(0.001 0.532)" fill="#fff"/>
      <rect id="Retângulo_142" data-name="Retângulo 142" width="18" height="11" transform="translate(22.001 -0.468)" fill="#fff"/>
      <rect id="Retângulo_143" data-name="Retângulo 143" width="19" height="12" transform="translate(18.001 5.532)" fill="#fff"/>
      <g id="pv_p1sec1titum-2" data-name="pv_p1sec1titum" transform="translate(0 0.116)">
        <path id="Caminho_1202" data-name="Caminho 1202" d="M404-16.581h22.46v-23H404Zm0-23,19.515,15.743a4.194,4.194,0,0,1-4.144,4.243,4.191,4.191,0,0,1-4.141-4.168,4.19,4.19,0,0,1-4.141,4.168,4.194,4.194,0,0,1-4.144-4.243,4.194,4.194,0,0,1,4.144-4.243h0v0h0a4.194,4.194,0,0,1-4.144-4.243,4.194,4.194,0,0,1,4.144-4.243,4.183,4.183,0,0,1,4.129,3.928h.022a4.183,4.183,0,0,1,4.129-3.928,4.194,4.194,0,0,1,4.144,4.243,4.2,4.2,0,0,1-3.793,4.226v.038a4.2,4.2,0,0,1,3.793,4.226" transform="translate(-403.999 39.581)" fill="#f37920"/>
        <g id="Grupo_676" data-name="Grupo 676" transform="translate(22.46 0)">
          <path id="Caminho_1203" data-name="Caminho 1203" d="M-6.478-.01s0-.009,0-.013h-8.984V8.929A8.961,8.961,0,0,0-6.478-.01" transform="translate(15.463 0.023)" fill="#b01f8d"/>
        </g>
        <g id="Grupo_677" data-name="Grupo 677" transform="translate(22.461 0)">
          <path id="Caminho_1204" data-name="Caminho 1204" d="M-11.9,0h0A16.539,16.539,0,0,1-28.4,16.477v6.405h1.445A23.013,23.013,0,0,0-5.409,0H-11.9Z" transform="translate(28.404)" fill="#34b653"/>
        </g>
      </g>
    </g>
  </g>
</svg>
