<svg xmlns="http://www.w3.org/2000/svg" xmlns:xlink="http://www.w3.org/1999/xlink" width="46.672" height="42.733" viewBox="0 0 46.672 42.733">
  <defs>
    <clipPath id="clip-path">
      <path id="Caminho_1260" data-name="Caminho 1260" d="M0,0H16.17V-16.169H0Z" fill="none"/>
    </clipPath>
  </defs>
  <g id="pv_p1sec8tit1" transform="translate(-963 -2654.092)">
    <path id="Caminho_1244" data-name="Caminho 1244" d="M0,0A2.021,2.021,0,0,0-2.021-2.021H-14.149A2.021,2.021,0,0,0-16.17,0V12.127a2.021,2.021,0,0,0,2.021,2.021H-2.021A2.021,2.021,0,0,0,0,12.127ZM-10.767,1.574a1.68,1.68,0,0,1-1.68,1.68,1.68,1.68,0,0,1-1.679-1.68A1.679,1.679,0,0,1-12.447-.1a1.68,1.68,0,0,1,1.68,1.679m0,8.979a1.68,1.68,0,0,1-1.68,1.679,1.679,1.679,0,0,1-1.679-1.679,1.679,1.679,0,0,1,1.679-1.679,1.68,1.68,0,0,1,1.68,1.679m4.362-4.489a1.68,1.68,0,0,1-1.68,1.679A1.679,1.679,0,0,1-9.764,6.064a1.68,1.68,0,0,1,1.679-1.68,1.68,1.68,0,0,1,1.68,1.68m4.362-4.49a1.68,1.68,0,0,1-1.68,1.68A1.68,1.68,0,0,1-5.4,1.574,1.679,1.679,0,0,1-3.723-.1a1.68,1.68,0,0,1,1.68,1.679m0,8.979a1.68,1.68,0,0,1-1.68,1.679A1.679,1.679,0,0,1-5.4,10.553,1.679,1.679,0,0,1-3.723,8.874a1.68,1.68,0,0,1,1.68,1.679" transform="translate(998.204 2667.409)" fill="#fff"/>
    <path id="Caminho_1245" data-name="Caminho 1245" d="M0,0A9.5,9.5,0,0,1,9.5-9.5" transform="translate(964.802 2685.522)" fill="none" stroke="#0ebfda" stroke-linejoin="round" stroke-width="3.604"/>
    <path id="Caminho_1246" data-name="Caminho 1246" d="M0,0H.007V4.739H-4.948A4.847,4.847,0,0,1,0,0" transform="translate(974.296 2680.782)" fill="#ffbe31"/>
    <path id="Caminho_1247" data-name="Caminho 1247" d="M0,0A9.5,9.5,0,0,0,9.5,9.5" transform="translate(964.802 2685.522)" fill="none" stroke="#0ebfda" stroke-linejoin="round" stroke-width="3.604"/>
    <path id="Caminho_1248" data-name="Caminho 1248" d="M0,0H.007V-4.739H-4.948A4.847,4.847,0,0,0,0,0" transform="translate(974.296 2690.261)" fill="#ffbe31"/>
    <path id="Caminho_1253" data-name="Caminho 1253" d="M0,0A15.854,15.854,0,0,0,15.855-15.854,15.854,15.854,0,0,0,0-31.709,15.854,15.854,0,0,0-15.855-15.854,15.854,15.854,0,0,0,0,0" transform="translate(989.915 2689.295)" fill="#0ebfda"/>
    <path id="Caminho_1254" data-name="Caminho 1254" d="M0,0H0A14.43,14.43,0,0,0,14.294-14.214l5.568-.083,0,1.225A20.118,20.118,0,0,1,.012,5.506Z" transform="translate(989.807 2687.349)" fill="#ffbe31"/>
    <path id="Caminho_1255" data-name="Caminho 1255" d="M0,0H0A13.99,13.99,0,0,1,14.357,13.783l5.569-.084,0-1.226A19.5,19.5,0,0,0-.012-5.506h0Z" transform="translate(989.745 2659.601)" fill="#ffbe31"/>
    <path id="Caminho_1256" data-name="Caminho 1256" d="M0,0H0A14.429,14.429,0,0,0-14.294,14.214l-5.568.083,0-1.225A20.118,20.118,0,0,1-.012-5.506Z" transform="translate(990.022 2659.598)" fill="#f84942"/>
    <path id="Caminho_1257" data-name="Caminho 1257" d="M0,0H0A13.99,13.99,0,0,1-14.357-13.783l-5.569.084,0,1.226A19.5,19.5,0,0,0,.012,5.506h0Z" transform="translate(990.085 2687.31)" fill="#fff"/>
    <g id="Grupo_732" data-name="Grupo 732" transform="translate(981 2681.338)">
      <g id="Grupo_731" data-name="Grupo 731" clip-path="url(#clip-path)">
        <g id="Grupo_730" data-name="Grupo 730" transform="translate(16.17 -14.148)">
          <path id="Caminho_1259" data-name="Caminho 1259" d="M0,0A2.021,2.021,0,0,0-2.021-2.021H-14.149A2.021,2.021,0,0,0-16.17,0V12.127a2.021,2.021,0,0,0,2.021,2.021H-2.021A2.021,2.021,0,0,0,0,12.127ZM-10.767,1.574a1.68,1.68,0,0,1-1.68,1.68,1.68,1.68,0,0,1-1.679-1.68A1.679,1.679,0,0,1-12.447-.1a1.68,1.68,0,0,1,1.68,1.679m0,8.979a1.68,1.68,0,0,1-1.68,1.679,1.679,1.679,0,0,1-1.679-1.679,1.679,1.679,0,0,1,1.679-1.679,1.68,1.68,0,0,1,1.68,1.679m4.362-4.489a1.68,1.68,0,0,1-1.68,1.679A1.679,1.679,0,0,1-9.764,6.064a1.68,1.68,0,0,1,1.679-1.68,1.68,1.68,0,0,1,1.68,1.68m4.362-4.49a1.68,1.68,0,0,1-1.68,1.68A1.68,1.68,0,0,1-5.4,1.574,1.679,1.679,0,0,1-3.723-.1a1.68,1.68,0,0,1,1.68,1.679m0,8.979a1.68,1.68,0,0,1-1.68,1.679A1.679,1.679,0,0,1-5.4,10.553,1.679,1.679,0,0,1-3.723,8.874a1.68,1.68,0,0,1,1.68,1.679" fill="#fff"/>
        </g>
      </g>
    </g>
  </g>
</svg>
