<svg xmlns="http://www.w3.org/2000/svg" width="48.5" height="47.578" viewBox="0 0 48.5 47.578">
  <g id="pv_p1sec10titum" transform="translate(-1360 -3060.537)">
    <path id="Caminho_3128" data-name="Caminho 3128" d="M3.605,7.211a19.459,19.459,0,0,0,19.46-19.459,19.46,19.46,0,0,0-19.46-19.46,19.46,19.46,0,0,0-19.46,19.46A19.459,19.459,0,0,0,3.605,7.211" transform="translate(1380.645 3096.533)" fill="#0fbed2"/>
    <path id="Caminho_3129" data-name="Caminho 3129" d="M0,3.251H0A17.711,17.711,0,0,0,17.544-14.2l6.834-.1,0,1.5A24.693,24.693,0,0,1,.015,10.009Z" transform="translate(1384.118 3098.105)" fill="#fff"/>
    <path id="Caminho_3130" data-name="Caminho 3130" d="M0,1.253H0A17.171,17.171,0,0,1,17.625,18.17l6.835-.1,0-1.5A23.931,23.931,0,0,0-.012-5.505h0Z" transform="translate(1384.039 3066.046)" fill="#ffbe31"/>
    <path id="Caminho_3131" data-name="Caminho 3131" d="M4.517,1.252h0A17.71,17.71,0,0,0-13.027,18.7l-6.834.1,0-1.5A24.693,24.693,0,0,1,4.5-5.506Z" transform="translate(1379.865 3066.043)" fill="#f84942"/>
    <path id="Caminho_3132" data-name="Caminho 3132" d="M4.531,3.134h0A17.171,17.171,0,0,1-13.091-13.783l-6.835.1,0,1.5A23.931,23.931,0,0,0,4.546,9.892h0Z" transform="translate(1379.928 3098.175)" fill="#fff"/>
    <path id="Caminho_3133" data-name="Caminho 3133" d="M.138,3.333c.965,1.9,1.753,3.45,1.752,3.45S2.921,8.185,4.184,9.9L10.7,18.732a2.7,2.7,0,0,0,4.594,0L21.807,9.9C23.07,8.185,24.1,6.783,24.1,6.783s.786-1.553,1.75-3.45A10.474,10.474,0,0,0,26.6-1.056a13.6,13.6,0,0,0-13.6-13.6,13.6,13.6,0,0,0-13.6,13.6A10.474,10.474,0,0,0,.138,3.333M9.97-4.018a4.276,4.276,0,0,1,6.05,0,4.278,4.278,0,0,1,0,6.05,4.276,4.276,0,0,1-6.05,0,4.276,4.276,0,0,1,0-6.05" transform="translate(1371.255 3085.14)" fill="#f84942"/>
    <path id="Caminho_3134" data-name="Caminho 3134" d="M2.228,1.114A6.012,6.012,0,0,1-3.784,7.126,6.012,6.012,0,0,1-9.8,1.114,6.012,6.012,0,0,1-3.784-4.9,6.012,6.012,0,0,1,2.228,1.114" transform="translate(1388.035 3082.903)" fill="#ffbe31"/>
  </g>
</svg>
