<svg xmlns="http://www.w3.org/2000/svg" width="123.88" height="40.378" viewBox="0 0 123.88 40.378">
  <g id="pv_p1sec2tit1_" data-name="pv_p1sec2tit1 " transform="translate(-925.109 -248.584)">
    <path id="Caminho_129" data-name="Caminho 129" d="M14.667-15.087h7.309V-22.6H14.667Zm0-7.514M0-15.087H7.334V-22.6H0ZM0-22.6m7.334,7.527v7.53H0V0H7.334V-7.542h7.333V0h7.309V-7.544H14.667v-7.53Z" transform="translate(925.109 288.962)" fill="#ffbe31"/>
    <path id="Caminho_130" data-name="Caminho 130" d="M0,0A13.927,13.927,0,0,0,13.927-13.927,13.927,13.927,0,0,0,0-27.854,13.927,13.927,0,0,0-13.927-13.927,13.927,13.927,0,0,0,0,0" transform="translate(946.757 276.438)" fill="#fc86bf"/>
    <path id="Caminho_131" data-name="Caminho 131" d="M0,0A9.261,9.261,0,0,0,9.34-9.181,9.261,9.261,0,0,0,0-18.361a9.261,9.261,0,0,0-9.34,9.18A9.261,9.261,0,0,0,0,0" transform="translate(946.757 271.692)" fill="#fff"/>
    <path id="Caminho_132" data-name="Caminho 132" d="M0,0A6.172,6.172,0,0,0,6.225-6.118,6.172,6.172,0,0,0,0-12.236,6.172,6.172,0,0,0-6.225-6.118,6.172,6.172,0,0,0,0,0" transform="translate(946.757 268.629)" fill="#fc86bf"/>
    <path id="Caminho_133" data-name="Caminho 133" d="M0,0A5.669,5.669,0,0,0-5.669,5.669V31.095H25.742V0Z" transform="translate(960.407 249.277)" fill="#34b653"/>
    <path id="Caminho_135" data-name="Caminho 135" d="M61.057-20.66H92.468V-39.644H61.057Z" transform="translate(925.109 288.962)" fill="#ffbe31"/>
    <path id="Caminho_136" data-name="Caminho 136" d="M0,0V13.315a5.669,5.669,0,0,0,5.669,5.669H25.742a5.669,5.669,0,0,0,5.669-5.669V5.669A5.669,5.669,0,0,0,25.742,0Z" transform="translate(1017.578 249.318)" fill="#0ebfda"/>
  </g>
</svg>
