<svg xmlns="http://www.w3.org/2000/svg" width="159.231" height="39.584" viewBox="0 0 159.231 39.584">
  <g id="pv_p1sec1tit1" transform="translate(-367 -266.584)">
    <path id="Retângulo_135" data-name="Retângulo 135" d="M0,0H159a0,0,0,0,1,0,0V1a38,38,0,0,1-38,38H0a0,0,0,0,1,0,0V0A0,0,0,0,1,0,0Z" transform="translate(367 267)" fill="#fff"/>
    <path id="Caminho_1201" data-name="Caminho 1201" d="M404.185-39.576H365.347V0h38.838Zm0,39.576-5.694-19.773-.04,0c-7.493,0-13.573,6.282-13.708,14.082,0,.088.012.174.012.262,0,.036,0,.07-.005.106h.025l-.032.144c0-.049.007-.1.007-.145h-.015c0-.035,0-.07,0-.105,0-.088.011-.174.013-.262-.135-7.791-6.2-14.067-13.684-14.081,0,.035-.005.07-.005.106l-.02-.107h.025a.108.108,0,0,0,0-.018c7.485-.014,13.554-6.3,13.683-14.092,0-.042-.006-.083-.007-.126s-.006-.083-.006-.125c0-.088.011-.173.013-.261l.032.384h-.025c0,.043-.006.085-.007.127.13,7.8,6.212,14.093,13.708,14.093l.039,0c0,.007,0,.013,0,.02M384.736-34.01h.014c0-.041.005-.082.005-.124,0-.088-.011-.173-.012-.261Z" transform="translate(44 306.168)" fill="#0ebfda"/>
    <path id="Caminho_1202" data-name="Caminho 1202" d="M404,0h38.655V-39.576H404Zm0-39.576,33.586,27.094a7.218,7.218,0,0,1-7.132,7.3,7.212,7.212,0,0,1-7.126-7.174A7.212,7.212,0,0,1,416.2-5.18a7.218,7.218,0,0,1-7.132-7.3,7.218,7.218,0,0,1,7.132-7.3h0v-.008h0a7.218,7.218,0,0,1-7.132-7.3,7.218,7.218,0,0,1,7.132-7.3,7.2,7.2,0,0,1,7.107,6.76h.038a7.2,7.2,0,0,1,7.107-6.76,7.218,7.218,0,0,1,7.132,7.3,7.234,7.234,0,0,1-6.528,7.273v.066a7.234,7.234,0,0,1,6.528,7.273" transform="translate(44 306.168)" fill="#fc86bf"/>
    <g id="Grupo_676" data-name="Grupo 676" transform="translate(502.117 266.607)">
      <path id="Caminho_1203" data-name="Caminho 1203" d="M0,0C0-.008,0-.015,0-.023H-15.463V15.383A15.423,15.423,0,0,0,0,0" fill="#f84942"/>
    </g>
    <g id="Grupo_677" data-name="Grupo 677" transform="translate(515.059 266.584)">
      <path id="Caminho_1204" data-name="Caminho 1204" d="M0,0H0A28.465,28.465,0,0,1-28.4,28.358V39.382h2.487A39.607,39.607,0,0,0,11.172,0H0Z" fill="#34b653"/>
    </g>
    <path id="Caminho_1206" data-name="Caminho 1206" d="M323.414,0h42.2V-39.558h-42.2Z" transform="translate(44 306.168)" fill="#f84942"/>
    <path id="Caminho_1207" data-name="Caminho 1207" d="M0,0-2.8,8.951-5.591,0l.068,9.389-5.386-7.637,2.926,8.909-7.45-5.576,5.5,7.556-8.783-2.968,7.53,5.463-9.258-.069,8.826,2.835-8.826,2.836,9.258-.07-7.53,5.463,8.783-2.967-5.5,7.555,7.45-5.575-2.926,8.908,5.386-7.636-.068,9.389,2.8-8.951L0,35.805l-.068-9.389,5.386,7.636L2.392,25.144l7.449,5.575-5.5-7.555,8.784,2.967L5.6,20.668l9.258.07L6.03,17.9l8.826-2.835L5.6,15.136l7.53-5.463L4.344,12.641l5.5-7.556L2.392,10.661,5.318,1.752-.068,9.389Z" transform="translate(391.312 268.487)" fill="#fff"/>
  </g>
</svg>
