<svg id="pv_p1seciniciaistitum" xmlns="http://www.w3.org/2000/svg" width="99.091" height="72.071" viewBox="0 0 99.091 72.071">
  <path id="Caminho_3391" data-name="Caminho 3391" d="M37.13,56.352h0A18.235,18.235,0,1,0,18.9,38.118,18.234,18.234,0,0,0,37.13,56.352" fill="#ffb300"/>
  <path id="Caminho_3392" data-name="Caminho 3392" d="M50.295,38.124V38.1A13.377,13.377,0,0,1,37.17,24.785,13.377,13.377,0,0,1,23.991,38.1a.052.052,0,0,1,0,.017,13.375,13.375,0,0,1,13.18,13.311A13.38,13.38,0,0,1,50.295,38.124M37.182,51.68c0-.085-.01-.164-.013-.247,0,.083-.011.162-.011.247,0,.033,0,.066,0,.1h.015c0-.033.005-.066.005-.1m.02.1h-.025c0,.046,0,.092-.007.138ZM23.985,38.223c0-.035,0-.067,0-.1h-.024ZM37.158,24.547c0,.04.006.079.006.118l0-.347c0,.076-.011.152-.011.229m.006.118c0,.04,0,.08.006.12,0-.04.006-.08.006-.12h-.012m.018-.118c0,.04-.006.079-.006.118H37.2l-.03-.346h0c0,.076.012.152.012.229" fill="#fff"/>
  <path id="Caminho_3393" data-name="Caminho 3393" d="M6.5,43.081a6.5,6.5,0,0,1-6.5-6.5C0,16.411,17.018,0,37.935,0a6.5,6.5,0,0,1,0,13C24.186,13,13,23.579,13,36.581a6.5,6.5,0,0,1-6.5,6.5" fill="#ffb300"/>
  <path id="Caminho_3394" data-name="Caminho 3394" d="M99.091,72.071c-20.376,0-36.953-15.985-36.953-35.634h13c0,12.481,10.745,22.634,23.953,22.634Z" fill="#00a8c3"/>
  <path id="Caminho_3395" data-name="Caminho 3395" d="M75.141,36.581h-13c0-13-11.186-23.581-24.935-23.581V0C58.123,0,75.141,16.411,75.141,36.581" fill="#da3137"/>
</svg>
