<svg xmlns="http://www.w3.org/2000/svg" width="114.641" height="61.728" viewBox="0 0 114.641 61.728">
  <g id="pv_p1sec7titum" transform="translate(-65.765 -2723.185)">
    <g id="pv_sec_arte_historia" transform="translate(65.765 2795.371)">
      <path id="Caminho_3137" data-name="Caminho 3137" d="M30.864-41.322H61.651V-67.858H30.864Z" fill="#0fbed2"/>
      <path id="Caminho_3138" data-name="Caminho 3138" d="M87.973-67.858H61.725v26.746H87.973ZM84.126-54.475H84.1a9.478,9.478,0,0,0-9.265,9.517c0,.06.009.117.009.177,0,.024,0,.048,0,.072h.016l-.021.1c0-.033,0-.065,0-.1h-.011c0-.024,0-.047,0-.071,0-.06.007-.117.008-.177a9.477,9.477,0,0,0-9.247-9.516c0,.024,0,.047,0,.072l-.013-.073h.017v-.012a9.479,9.479,0,0,0,9.248-9.524c0-.028,0-.056,0-.085s0-.056,0-.084c0-.06.007-.118.008-.177l.022.26h-.017c0,.029,0,.058,0,.086A9.477,9.477,0,0,0,84.1-54.486l.026,0s0,.009,0,.013M74.83-64.1h.009c0-.028,0-.055,0-.083,0-.06-.008-.118-.009-.177Z" fill="#f84942"/>
      <g id="Grupo_1961" data-name="Grupo 1961" transform="translate(98.098 -41.337)">
        <path id="Caminho_3139" data-name="Caminho 3139" d="M0,0V.015H-10.125V-10.073A10.1,10.1,0,0,1,0,0" fill="#ffbe31"/>
      </g>
      <g id="Grupo_1962" data-name="Grupo 1962" transform="translate(107.112 -41.322)">
        <path id="Caminho_3140" data-name="Caminho 3140" d="M0,0H0A19.18,19.18,0,0,0-19.139-19.108v-7.428h1.676A26.687,26.687,0,0,1,7.528,0Z" fill="#0fbed2"/>
      </g>
      <g id="Grupo_1963" data-name="Grupo 1963" transform="translate(17.7 -41.322)">
        <path id="Caminho_3141" data-name="Caminho 3141" d="M0,0A13.163,13.163,0,0,0,13.163,13.163V0Z" fill="#0fbed2"/>
      </g>
      <g id="Grupo_1964" data-name="Grupo 1964" transform="translate(30.864 -54.485)">
        <path id="Caminho_3142" data-name="Caminho 3142" d="M0,0V13.163H13.163A13.163,13.163,0,0,0,0,0" fill="#fff"/>
      </g>
      <g id="Grupo_1965" data-name="Grupo 1965" transform="translate(30.864 -54.485)">
        <path id="Caminho_3143" data-name="Caminho 3143" d="M0,0A13.163,13.163,0,0,0-13.163,13.163H0Z" fill="#fc86bf"/>
      </g>
      <g id="Grupo_1967" data-name="Grupo 1967" transform="translate(10.568 -41.322)">
        <path id="Caminho_3145" data-name="Caminho 3145" d="M0,0H-10.568A30.863,30.863,0,0,0,20.3,30.863V20.3A20.3,20.3,0,0,1,0,0" fill="#ffbe31"/>
      </g>
      <g id="Grupo_1968" data-name="Grupo 1968" transform="translate(51.159 -41.322)">
        <path id="Caminho_3146" data-name="Caminho 3146" d="M0,0H10.568A30.863,30.863,0,0,0-20.3-30.864V-20.3A20.3,20.3,0,0,1,0,0" fill="#ffbe31"/>
      </g>
      <g id="Grupo_1969" data-name="Grupo 1969" transform="translate(30.864 -61.618)">
        <path id="Caminho_3147" data-name="Caminho 3147" d="M0,0V-10.568A30.864,30.864,0,0,0-30.864,20.3H-20.3A20.3,20.3,0,0,1,0,0" fill="#595db0"/>
      </g>
      <g id="Grupo_1973" data-name="Grupo 1973" transform="translate(31.192 -61.13)">
        <path id="Caminho_3151" data-name="Caminho 3151" d="M0,0A1.531,1.531,0,0,0-1.53,1.531v17.4A1.531,1.531,0,0,0,0,20.459a1.531,1.531,0,0,0,1.53-1.531V1.531A1.531,1.531,0,0,0,0,0" fill="#f84942"/>
      </g>
      <g id="Grupo_1974" data-name="Grupo 1974" transform="translate(21.669 -54.428)">
        <path id="Caminho_3152" data-name="Caminho 3152" d="M0,0A1.53,1.53,0,0,0-.3,2.143L8.3,13.557a1.531,1.531,0,1,0,2.445-1.842L2.143.3A1.53,1.53,0,0,0,0,0" fill="#f84942"/>
      </g>
    </g>
  </g>
</svg>
