<svg xmlns="http://www.w3.org/2000/svg" width="87.671" height="44.584" viewBox="0 0 87.671 44.584">
  <g id="pv_p1sec1titum" transform="translate(-123.999 -337.776)">
    <g id="pv_p1sec1titum-2" data-name="pv_p1sec1titum" transform="translate(123.999 338)">
      <rect id="Retângulo_141" data-name="Retângulo 141" width="45" height="42" transform="translate(0.001 0.776)" fill="#fff"/>
      <rect id="Retângulo_142" data-name="Retângulo 142" width="35" height="20" transform="translate(43.001 -0.224)" fill="#fff"/>
      <rect id="Retângulo_143" data-name="Retângulo 143" width="36" height="22" transform="translate(35.001 10.776)" fill="#fff"/>
      <g id="pv_p1sec1titum-3" data-name="pv_p1sec1titum">
        <path id="Caminho_1202" data-name="Caminho 1202" d="M404,4.775h43.319V-39.576H404Zm0-44.351M441.637-9.213a8.089,8.089,0,0,1-7.993,8.183,8.082,8.082,0,0,1-7.986-8.04,8.082,8.082,0,0,1-7.986,8.04,8.089,8.089,0,0,1-7.993-8.183,8.089,8.089,0,0,1,7.993-8.183h0V-17.4h0a8.089,8.089,0,0,1-7.993-8.183,8.089,8.089,0,0,1,7.993-8.183,8.069,8.069,0,0,1,7.965,7.576h.043a8.068,8.068,0,0,1,7.965-7.576,8.089,8.089,0,0,1,7.993,8.183,8.107,8.107,0,0,1-7.316,8.151v.074a8.107,8.107,0,0,1,7.316,8.151" transform="translate(-403.999 39.585)" fill="#f84942"/>
        <g id="Grupo_676" data-name="Grupo 676" transform="translate(43.319 0)">
          <path id="Caminho_1203" data-name="Caminho 1203" d="M1.866,0c0-.009,0-.017,0-.026H-15.463V17.242A17.284,17.284,0,0,0,1.866,0" transform="translate(15.463 0.023)" fill="#fc86bf"/>
        </g>
        <g id="Grupo_677" data-name="Grupo 677" transform="translate(43.32 0)">
          <path id="Caminho_1204" data-name="Caminho 1204" d="M3.427,0h0A31.9,31.9,0,0,1-28.4,31.78V44.134h2.787A44.386,44.386,0,0,0,15.947,0H3.427Z" transform="translate(28.404)" fill="#34b653"/>
        </g>
      </g>
    </g>
  </g>
</svg>
