<svg xmlns="http://www.w3.org/2000/svg" width="10.59" height="21.174" viewBox="0 0 10.59 21.174">
  <g id="pv_p0tit3" transform="translate(-9 30.174)">
    <g id="Grupo_43" data-name="Grupo 43" transform="translate(13.81 -19.404)">
      <path id="Caminho_27" data-name="Caminho 27" d="M0,0A4.8,4.8,0,0,0-4.8-4.8H-4.81V4.8H-4.8A4.8,4.8,0,0,0,0,0" fill="#fc86bf"/>
    </g>
    <g id="Grupo_44" data-name="Grupo 44" transform="translate(19.59 -18.922)">
      <path id="Caminho_28" data-name="Caminho 28" d="M0,0V-1.331a10.627,10.627,0,0,0-10.59-9.921v2.988a7.635,7.635,0,0,1,7.626,7.6,7.635,7.635,0,0,1-7.626,7.6V9.922A10.628,10.628,0,0,0,0,0" fill="#0ebfda"/>
    </g>
  </g>
</svg>
