<svg xmlns="http://www.w3.org/2000/svg" width="119.145" height="33.899" viewBox="0 0 119.145 33.899">
  <g id="pv_p1sec4tit3" transform="translate(-1191.606 -1433.101)">
    <g id="pv_sec_para_fazer_juntos_c_um">
      <path id="Caminho_3093" data-name="Caminho 3093" d="M0,0V9.238a7.413,7.413,0,0,1-7.413,7.413,7.413,7.413,0,0,1-7.413-7.413V0Z" transform="translate(1206.432 1448.378)" fill="#ffbe31"/>
      <path id="Caminho_3094" data-name="Caminho 3094" d="M0,0C0,.008,0,.015,0,.023H14.737v-15.41C6.6-15.387,0-8.5,0,0" transform="translate(1191.606 1448.488)" fill="#f84942"/>
      <path id="Caminho_3095" data-name="Caminho 3095" d="M0,0H102.1a7.628,7.628,0,0,0-7.623-7.47H-2.305V.3A9.218,9.218,0,0,1,0,0" transform="translate(1208.649 1440.571)" fill="#ffbe31"/>
    </g>
    <path id="pv_p1sec4tit3-2" data-name="pv_p1sec4tit3" d="M9.7.6h1.322L11,27H0V10C0,4.477,4.176.6,9.7.6Z" transform="translate(1198 1440)" fill="#fff"/>
  </g>
</svg>
