<svg xmlns="http://www.w3.org/2000/svg" width="114.668" height="61.728" viewBox="0 0 114.668 61.728">
  <g id="pv_p1sec8titum" transform="translate(-960 -2584.927)">
    <path id="Caminho_3161" data-name="Caminho 3161" d="M30.864-67.887H61.531v26.536H30.864Z" transform="translate(960 2657.113)" fill="#595db0"/>
    <path id="Caminho_3162" data-name="Caminho 3162" d="M0,0V.015H-10.125V-10.073A10.1,10.1,0,0,1,0,0" transform="translate(1058.126 2615.747)" fill="#ffbe31"/>
    <path id="Caminho_3163" data-name="Caminho 3163" d="M0,0H0A19.18,19.18,0,0,0-19.139-19.108v-7.428h1.676A26.687,26.687,0,0,1,7.528,0Z" transform="translate(1067.14 2615.762)" fill="#595db0"/>
    <path id="Caminho_3164" data-name="Caminho 3164" d="M61.465-41.35H88V-67.886H61.465ZM84.52-49.719a4.9,4.9,0,0,1-4.9,4.9,4.893,4.893,0,0,1-4.891-4.81,4.894,4.894,0,0,1-4.892,4.81,4.9,4.9,0,0,1-4.9-4.9,4.9,4.9,0,0,1,4.9-4.9h0v0h0a4.9,4.9,0,0,1-4.9-4.9,4.9,4.9,0,0,1,4.9-4.9,4.892,4.892,0,0,1,4.878,4.533h.027a4.892,4.892,0,0,1,4.878-4.533,4.9,4.9,0,0,1,4.9,4.9,4.9,4.9,0,0,1-4.481,4.877v.044a4.894,4.894,0,0,1,4.481,4.877" transform="translate(960 2657.113)" fill="#f84942"/>
    <path id="Caminho_3165" data-name="Caminho 3165" d="M0,0A13.163,13.163,0,0,0-13.163-13.163V0Z" transform="translate(1004.027 2615.791)" fill="#fff"/>
    <path id="Caminho_3166" data-name="Caminho 3166" d="M0,0V-13.163H-13.163A13.163,13.163,0,0,0,0,0" transform="translate(990.864 2628.954)" fill="#fc86bf"/>
    <path id="Caminho_3168" data-name="Caminho 3168" d="M0,0A13.163,13.163,0,0,0-13.163,13.163H0Z" transform="translate(990.864 2602.628)" fill="#ffbe31"/>
    <path id="Caminho_3170" data-name="Caminho 3170" d="M0,0V-10.568A30.863,30.863,0,0,0-30.864,20.3H-20.3A20.3,20.3,0,0,1,0,0" transform="translate(990.864 2595.495)" fill="#0fbed2"/>
    <path id="Caminho_3171" data-name="Caminho 3171" d="M0,0H-10.568A30.864,30.864,0,0,0,20.3,30.864V20.3A20.3,20.3,0,0,1,0,0" transform="translate(970.568 2615.791)" fill="#ffbe31"/>
    <path id="Caminho_3172" data-name="Caminho 3172" d="M0,0H0A20.3,20.3,0,0,1,20.3,20.3H30.864A30.864,30.864,0,0,0,0-10.568Z" transform="translate(990.864 2595.495)" fill="#ffbe31"/>
    <path id="Caminho_3173" data-name="Caminho 3173" d="M0,0,7.352,3.978,0-16.3" transform="translate(990.864 2611.813)" fill="#ffbe31"/>
    <path id="Caminho_3174" data-name="Caminho 3174" d="M0,0-7.352,3.978,0-16.3" transform="translate(990.864 2611.813)" fill="#f84942"/>
  </g>
</svg>
