<svg xmlns="http://www.w3.org/2000/svg" width="55.684" height="25.068" viewBox="0 0 55.684 25.068">
  <g id="pv_p0tit4" transform="translate(-107 -655.09)">
    <g id="Grupo_47" data-name="Grupo 47" transform="translate(119.534 680.158)">
      <path id="Caminho_30" data-name="Caminho 30" d="M0,0A12.534,12.534,0,0,0,12.534-12.534,12.533,12.533,0,0,0,0-25.068,12.534,12.534,0,0,0-12.534-12.534,12.534,12.534,0,0,0,0,0" fill="#fc86bf"/>
    </g>
    <g id="Grupo_48" data-name="Grupo 48" transform="translate(119.534 675.886)">
      <path id="Caminho_31" data-name="Caminho 31" d="M0,0A8.335,8.335,0,0,0,8.406-8.263,8.335,8.335,0,0,0,0-16.525,8.335,8.335,0,0,0-8.406-8.263,8.335,8.335,0,0,0,0,0" fill="#fff"/>
    </g>
    <g id="Grupo_49" data-name="Grupo 49" transform="translate(119.534 673.13)">
      <path id="Caminho_32" data-name="Caminho 32" d="M0,0A5.554,5.554,0,0,0,5.6-5.506,5.555,5.555,0,0,0,0-11.013,5.555,5.555,0,0,0-5.6-5.506,5.554,5.554,0,0,0,0,0" fill="#fc86bf"/>
    </g>
    <g id="Grupo_50" data-name="Grupo 50" transform="translate(130.345 658.151)">
      <path id="Caminho_33" data-name="Caminho 33" d="M0,0C-2.889,0-5.231,1.407-5.231,3.143V14.978H7.29V0Z" fill="#34b653"/>
    </g>
    <path id="Caminho_35" data-name="Caminho 35" d="M30.642-12.163H43.163V-27.385H30.642Z" transform="translate(107 685.569)" fill="#ffbe31"/>
    <g id="Grupo_52" data-name="Grupo 52" transform="translate(150.164 658.184)">
      <path id="Caminho_36" data-name="Caminho 36" d="M0,0V9.99a5.231,5.231,0,0,0,5.231,5.232H7.29A5.231,5.231,0,0,0,12.521,9.99V5.231A5.231,5.231,0,0,0,7.29,0Z" fill="#0ebfda"/>
    </g>
  </g>
</svg>
