<svg xmlns="http://www.w3.org/2000/svg" width="147.84" height="29.528" viewBox="0 0 147.84 29.528">
  <g id="pv_p1sec4tit1" transform="translate(-1427.667 -1185.211)">
    <path id="Caminho_177" data-name="Caminho 177" d="M0,0A24.8,24.8,0,0,1,24.677,24.91" transform="translate(1546.638 1189.828)" fill="none" stroke="#0ebfda" stroke-linejoin="round" stroke-width="8.383"/>
    <path id="Caminho_178" data-name="Caminho 178" d="M0,0C0,.006,0,.013,0,.019H-12.1V-12.74C-5.419-12.74,0-7.036,0,0" transform="translate(1558.742 1214.719)" fill="#0ebfda"/>
    <path id="Caminho_180" data-name="Caminho 180" d="M0-203.239H62.451V-232.2H0Z" transform="translate(1427.667 1417.907)" fill="#0ebfda"/>
    <path id="Caminho_181" data-name="Caminho 181" d="M83.947-222.9h9.486V-232.7H83.947Zm0-9.794M64.912-222.9H74.43V-232.7H64.912Zm0-9.794,9.517,9.811v9.814H64.912v9.832h9.517v-9.831h9.518v9.831h9.487v-9.832H83.947v-9.814Z" transform="translate(1395 1417.907)" fill="#fff"/>
    <path id="Caminho_186" data-name="Caminho 186" d="M122.536-203.168h29.1v-29.1h-29.1Zm0-29.1,25.285,19.923a5.369,5.369,0,0,1-5.37,5.369,5.366,5.366,0,0,1-5.364-5.275,5.367,5.367,0,0,1-5.365,5.275,5.37,5.37,0,0,1-5.37-5.369,5.37,5.37,0,0,1,5.37-5.37h0v-.005h0a5.37,5.37,0,0,1-5.37-5.37,5.37,5.37,0,0,1,5.37-5.369,5.366,5.366,0,0,1,5.35,4.971h.029a5.366,5.366,0,0,1,5.35-4.971,5.369,5.369,0,0,1,5.37,5.369,5.369,5.369,0,0,1-4.915,5.348v.049a5.369,5.369,0,0,1,4.915,5.348" transform="translate(1395 1417.907)" fill="#f84942"/>
    <path id="Caminho_189" data-name="Caminho 189" d="M93.434-203.169h29.1v-29.1h-29.1Z" transform="translate(1395 1417.907)" fill="#ffbe31"/>
    <path id="Caminho_190" data-name="Caminho 190" d="M93.434-203.169h29.1v-29.1h-29.1Z" transform="translate(1395 1417.907)" fill="#ffbe31"/>
    <path id="Caminho_191" data-name="Caminho 191" d="M0,0V-.019A11.574,11.574,0,0,1-11.356-11.542,11.575,11.575,0,0,1-22.76-.017a.076.076,0,0,1,0,.015,11.573,11.573,0,0,1,11.4,11.517A11.576,11.576,0,0,1,0,0M-11.346,11.729c0-.073-.009-.142-.011-.214,0,.072-.01.141-.01.214,0,.029,0,.057,0,.086h.013c0-.029,0-.057,0-.086m.017.087h-.021c0,.04,0,.079-.006.119ZM-22.765.085c0-.03,0-.058,0-.087h-.021Zm11.4-11.833c0,.035,0,.068,0,.1l.005-.3h0c0,.066-.01.131-.01.2m0,.1c0,.035.005.069.006.1,0-.035.005-.069.005-.1h-.011m.016-.1c0,.035-.005.068-.005.1h.022l-.026-.3h0c0,.066.01.131.01.2" transform="translate(1514.375 1199.464)" fill="#fff"/>
  </g>
</svg>
