<svg xmlns="http://www.w3.org/2000/svg" width="41.719" height="21.254" viewBox="0 0 41.719 21.254">
  <g id="pv_p1sec11titum_b" transform="translate(-239.385 -9.216)">
    <path id="Caminho_3273" data-name="Caminho 3273" d="M259.911,30.47a3.222,3.222,0,1,1,0-6.444,15.169,15.169,0,0,0,14.813-12.059,3.223,3.223,0,0,1,6.313,1.3,21.638,21.638,0,0,1-21.126,17.2" fill="#32a43d"/>
    <path id="Caminho_3274" data-name="Caminho 3274" d="M257.422,23.767a3.829,3.829,0,1,1-7.657.069,3.831,3.831,0,1,1-3.827-3.99h0v-.005h0a3.923,3.923,0,1,1,3.817-4.212h.02a3.833,3.833,0,1,1,4.141,4.2v.035a3.886,3.886,0,0,1,3.506,3.906m-18.037,6.7h20.759V9.216H239.385Z" fill="#da3137"/>
    <path id="Caminho_3275" data-name="Caminho 3275" d="M268.449,9.228V9.216h-8.3v8.273a8.282,8.282,0,0,0,8.3-8.261" fill="#e970a8"/>
  </g>
</svg>
