<svg xmlns="http://www.w3.org/2000/svg" width="61.823" height="37.434" viewBox="0 0 61.823 37.434">
  <g id="pv_pelobrasil" transform="translate(-389.154 -3882.283)">
    <g id="Grupo_1439" data-name="Grupo 1439" transform="translate(389.154 3896.9)">
      <g id="Grupo_1437" data-name="Grupo 1437" transform="translate(0 0)">
        <path id="Caminho_1969" data-name="Caminho 1969" d="M5.464,30.213H0A18.867,18.867,0,0,1,18.846,11.366v5.465A13.4,13.4,0,0,0,5.464,30.213Z" transform="translate(0 -11.366)" fill="#00862f"/>
      </g>
      <g id="Grupo_1438" data-name="Grupo 1438" transform="translate(10.583 10.945)">
        <path id="Caminho_1970" data-name="Caminho 1970" d="M16.532,19.93h.012v7.9H8.281a8.082,8.082,0,0,1,8.251-7.9" transform="translate(-8.281 -19.93)" fill="#e95a00"/>
      </g>
    </g>
    <g id="pv_pelobrasil-2" data-name="pv_pelobrasil" transform="translate(0 -7.717)">
      <g id="Grupo_1444" data-name="Grupo 1444" transform="translate(414 3890)">
        <path id="Caminho_1980" data-name="Caminho 1980" d="M40.507,27.146h0a13.756,13.756,0,0,0,.186-19.22l3.725-3.785.821.83a19.18,19.18,0,0,1-1.037,25.9Z" transform="translate(-12.801 1.075)" fill="#fff"/>
        <path id="Caminho_1981" data-name="Caminho 1981" d="M26.487,9.426h0a13.338,13.338,0,0,1,18.974-.257l3.725-3.785-.823-.831A18.592,18.592,0,0,0,22.791,5.7Z" transform="translate(-17.402 0)" fill="#e95a00"/>
        <path id="Caminho_1982" data-name="Caminho 1982" d="M27.784,8.1h0a13.758,13.758,0,0,0-.186,19.22l-3.725,3.785-.821-.83A19.183,19.183,0,0,1,24.088,4.373Z" transform="translate(-18.513 1.136)" fill="#fff"/>
        <path id="Caminho_1983" data-name="Caminho 1983" d="M45.316,22.235h0a13.339,13.339,0,0,1-18.976.257l-3.724,3.785.823.83a18.59,18.59,0,0,0,25.571-1.144Z" transform="translate(-17.447 5.774)" fill="#00862f"/>
        <path id="Caminho_1984" data-name="Caminho 1984" d="M28.807,10.044c.29-.183,1.408-.647,1.174-.985l-.306-.372c-.191-.568.865-.846,1.794-.81.618.025.967-.019.959.576l-.193.6c.452.945.661.569,1.805.375l.894-.058c.976-.063.795-.055,1.565-.669.362-.479.505-.428.69.1.452.723.592.6.287,1.352,0,0-.05.971-.092,1.141s.508.053.508.053a3.863,3.863,0,0,1,1.125-.472,1.859,1.859,0,0,1,1.013.208c.82.413.666.674,1.158.748,2.48.382,1.018-.2,3.069,1.035.778.467,1.515.311,1.82,1.376.244.849-.421,1.59-1.029,2.42-.214.276-.427.553-.641.83-.382.5-.147.28-.557.442a.178.178,0,0,0-.086.063.482.482,0,0,0-.074.168,3.433,3.433,0,0,0-.077.586c-.034.456-.069,1.166-.069,1.166s-.38,1.1-.509,1.386c-1.392,3.154-1.655,1.454-3.654,2.654-.107.064-1.153,1.09-1.153,1.09-.049.98.03.825-.533,1.625l-.768.917-.736,1.083c-.121.154-.242.306-.362.46,0,0-.128.063-.155,0a.609.609,0,0,1-.01-.259c.005-.137-.014-.462-.014-.462a1.98,1.98,0,0,0-.262-.311c-.072-.044-.777-.382-.777-.382l-.364-.426-.295.011s-.15-.084-.123-.174.334-.287.334-.287l.273-.374.932-.865a.362.362,0,0,0,.236-.174.831.831,0,0,0,.054-.484,1.669,1.669,0,0,0-.259-.275s-.17-.049-.191-.176a1.3,1.3,0,0,1,.019-.344s.141-.382.077-.414a3.709,3.709,0,0,0-.425.006.5.5,0,0,1-.178-.13c0-.157,0-.316,0-.475l-.312-.326a.253.253,0,0,1-.367.1,5.485,5.485,0,0,0-.591-.295l-.1-.881.17-.714.057-.62c-.135-.363-.112-.6-.462-.719l-.287-.094c-1.591-.437-.031-.945-1.2-1.465-.171-.077-.331-.1-.712-.247-.21-.082-1.027-.4-1.122-.442a5.139,5.139,0,0,1-.535-.557.692.692,0,0,0-.044-.516c-.141-.2-.12-.4-.236-.355l-.593.21s-.375.506-.724.47a4.747,4.747,0,0,0-1.061.121c-.345-.126-.184-.034-.259-.377-.047-.212.219-.729-.257-.39-.074.053-.292.249-.4.213a2.7,2.7,0,0,1-.372-.2,1.3,1.3,0,0,1-.4-.4c-.053-.1-.266-.5-.266-.5l-.11-.413c.018-.294.02-.233.229-.446l.145-.139-.074-.241c.037-.272.04-.457.292-.625a2.57,2.57,0,0,1,1.359-.393l.162-.268s.265-.8.265-.872-.019-.753-.019-.753q-.17-.272-.338-.544c.063-.209.125-.418.188-.627.356-.666.67-.559,1.25-.27C28.038,9.6,28.807,10.044,28.807,10.044Z" transform="translate(-16.954 2.045)" fill="#ffd400" fill-rule="evenodd"/>
      </g>
    </g>
    <g id="Grupo_1445" data-name="Grupo 1445" transform="translate(389.154 3896.9)">
      <g id="Grupo_1437-2" data-name="Grupo 1437" transform="translate(0 0)">
        <path id="Caminho_1969-2" data-name="Caminho 1969" d="M5.464,30.213H0A18.867,18.867,0,0,1,18.846,11.366v5.465A13.4,13.4,0,0,0,5.464,30.213Z" transform="translate(0 -11.366)" fill="#00862f"/>
      </g>
      <g id="Grupo_1438-2" data-name="Grupo 1438" transform="translate(10.583 10.945)">
        <path id="Caminho_1970-2" data-name="Caminho 1970" d="M16.532,19.93h.012v7.9H8.281a8.082,8.082,0,0,1,8.251-7.9" transform="translate(-8.281 -19.93)" fill="#e95a00"/>
      </g>
    </g>
  </g>
</svg>
