<svg xmlns="http://www.w3.org/2000/svg" width="48.5" height="47.578" viewBox="0 0 48.5 47.578">
  <g id="pv_p1sec9titum" transform="translate(-972 -3060.537)">
    <path id="Caminho_3113" data-name="Caminho 3113" d="M3.605,7.211a19.459,19.459,0,0,0,19.46-19.459,19.46,19.46,0,0,0-19.46-19.46,19.46,19.46,0,0,0-19.46,19.46A19.459,19.459,0,0,0,3.605,7.211" transform="translate(992.645 3096.534)" fill="#0fbed2"/>
    <path id="Caminho_3114" data-name="Caminho 3114" d="M0,3.251H0A17.711,17.711,0,0,0,17.544-14.2l6.834-.1,0,1.5A24.693,24.693,0,0,1,.015,10.009Z" transform="translate(996.118 3098.105)" fill="#fff"/>
    <path id="Caminho_3115" data-name="Caminho 3115" d="M0,1.253H0A17.171,17.171,0,0,1,17.625,18.17l6.835-.1,0-1.5A23.931,23.931,0,0,0-.012-5.505h0Z" transform="translate(996.039 3066.046)" fill="#ffbe31"/>
    <path id="Caminho_3116" data-name="Caminho 3116" d="M4.517,1.252h0A17.71,17.71,0,0,0-13.027,18.7l-6.834.1,0-1.5A24.693,24.693,0,0,1,4.5-5.506Z" transform="translate(991.865 3066.043)" fill="#f84942"/>
    <path id="Caminho_3117" data-name="Caminho 3117" d="M4.531,3.134h0A17.171,17.171,0,0,1-13.091-13.783l-6.835.1,0,1.5A23.931,23.931,0,0,0,4.546,9.892h0Z" transform="translate(991.928 3098.175)" fill="#fff"/>
    <path id="Caminho_3118" data-name="Caminho 3118" d="M2.013,4.606C9.582,5.756,3.344-.628,6.422-4.25c3.547-4.173,7.464,4.725,9.5-2.009,1.891-6.263-4.025-13.062-10.864-13.9S-8.688-16.187-8.85-9.3C-9.015-2.281-3.2,3.817,2.013,4.606" transform="translate(992.539 3092.081)" fill="#fff"/>
    <path id="Caminho_3119" data-name="Caminho 3119" d="M.493.986A2.662,2.662,0,0,0,3.155-1.675,2.662,2.662,0,0,0,.493-4.337,2.662,2.662,0,0,0-2.169-1.675,2.662,2.662,0,0,0,.493.986" transform="translate(990.054 3090.737)" fill="#ffbe31"/>
    <path id="Caminho_3120" data-name="Caminho 3120" d="M.493.986A2.662,2.662,0,0,0,3.155-1.675,2.662,2.662,0,0,0,.493-4.337,2.662,2.662,0,0,0-2.169-1.675,2.662,2.662,0,0,0,.493.986" transform="translate(988.28 3083.566)" fill="#595db0"/>
    <path id="Caminho_3121" data-name="Caminho 3121" d="M.493.986A2.662,2.662,0,0,0,3.155-1.675,2.662,2.662,0,0,0,.493-4.337,2.662,2.662,0,0,0-2.169-1.675,2.662,2.662,0,0,0,.493.986" transform="translate(994.269 3077.947)" fill="#f84942"/>
    <path id="Caminho_3122" data-name="Caminho 3122" d="M.493.986A2.662,2.662,0,0,0,3.155-1.675,2.662,2.662,0,0,0,.493-4.337,2.662,2.662,0,0,0-2.169-1.675,2.662,2.662,0,0,0,.493.986" transform="translate(1002.095 3080.608)" fill="#34b653"/>
  </g>
</svg>
