<svg xmlns="http://www.w3.org/2000/svg" width="28.894" height="30.56" viewBox="0 0 28.894 30.56">
  <g id="pv_p1sec4tit3_dois" transform="translate(-1348.073 -1438.123)">
    <path id="Caminho_3091" data-name="Caminho 3091" d="M73,0V30.56H90.972a10.922,10.922,0,0,0,10.922-10.922V10.921A10.92,10.92,0,0,0,90.973,0Z" transform="translate(1275.073 1438.123)" fill="#0fbed2"/>
    <path id="Caminho_3092" data-name="Caminho 3092" d="M0,0V-.017A10.417,10.417,0,0,1-10.22-10.388,10.42,10.42,0,0,1-20.484-.015a.061.061,0,0,1,0,.013A10.416,10.416,0,0,1-10.221,10.363,10.418,10.418,0,0,1,0,0M-10.211,10.556c0-.065-.009-.128-.01-.193,0,.065-.009.128-.009.193,0,.026,0,.051,0,.077h.012c0-.027,0-.052,0-.078m.014.079h-.018c0,.036-.005.071-.005.106ZM-20.488.076c0-.026,0-.052,0-.078H-20.5ZM-10.23-10.573c0,.031,0,.061,0,.092l.005-.271h0c0,.06-.008.119-.008.179m0,.092c0,.031.005.061.006.093,0-.032,0-.062,0-.094h-.01m.015-.092c0,.031,0,.061,0,.091h.019l-.023-.269c0,.06.009.119.009.179" transform="translate(1371.951 1453.072)" fill="#fff"/>
  </g>
</svg>
