<svg xmlns="http://www.w3.org/2000/svg" width="116.665" height="91.571" viewBox="0 0 116.665 91.571">
  <g id="pv_p1sec4titum" transform="translate(0 81.966)">
    <path id="Caminho_3043" data-name="Caminho 3043" d="M41.98-71.74H52.225V-81.966H41.98Zm0-10.226M21.42-71.74H31.7V-81.966H21.42Zm0-10.226M31.7-61.477H41.979V-71.723H31.7Zm0-10.246M41.98-61.477h0Zm-20.56,0h0Zm10.279,0h0Z" transform="translate(3.08 0)" fill="#ffbe31"/>
    <g id="Grupo_2069" data-name="Grupo 2069" transform="translate(0 -81.963)">
      <g id="Grupo_1895" data-name="Grupo 1895" transform="translate(86.109 0.001)">
        <path id="Caminho_3044" data-name="Caminho 3044" d="M3.842,3.873H-5.031a21.833,21.833,0,0,0-21.683-21.93V-26.93A30.714,30.714,0,0,1,3.842,3.873" transform="translate(26.714 26.93)" fill="#0fbed2"/>
      </g>
      <g id="Grupo_1896" data-name="Grupo 1896" transform="translate(86.108 17.3)">
        <path id="Caminho_3045" data-name="Caminho 3045" d="M1.611,1.7c0,.007,0,.014,0,.021H-11.2v-13.5c7.076,0,12.812,6.037,12.812,13.484" transform="translate(11.201 11.789)" fill="#0fbed2"/>
      </g>
      <path id="Caminho_3049" data-name="Caminho 3049" d="M48.35-51.159h30.8v-30.8H48.35Z" transform="translate(6.953 81.963)" fill="#ffbe31"/>
      <path id="Caminho_3050" data-name="Caminho 3050" d="M48.35-51.159h30.8v-30.8H48.35Z" transform="translate(6.953 81.963)" fill="#0fbed2"/>
      <g id="Grupo_1900" data-name="Grupo 1900" transform="translate(58.649 1.992)">
        <path id="Caminho_3051" data-name="Caminho 3051" d="M3.032,1.59V1.569a12.251,12.251,0,0,1-12.02-12.2,12.252,12.252,0,0,1-12.071,12.2.07.07,0,0,1,0,.016A12.249,12.249,0,0,1-8.99,13.778,12.254,12.254,0,0,1,3.032,1.59M-8.977,14c0-.078-.01-.151-.013-.226,0,.075-.01.149-.01.226,0,.031,0,.061,0,.09h.014c0-.03,0-.059,0-.09m.017.092h-.022c0,.042-.006.085-.007.127ZM-21.064,1.68c0-.032,0-.062,0-.093h-.022ZM-9-10.845c0,.037.006.071.006.108l0-.318c0,.07-.01.14-.01.21m.006.108c0,.037,0,.073.006.11,0-.037.006-.073.006-.11h-.011m.017-.108c0,.037-.006.071-.006.108h.023l-.027-.317h0c0,.07.011.14.011.21" transform="translate(21.082 11.055)" fill="#fff"/>
      </g>
      <g id="Grupo_1903" data-name="Grupo 1903" transform="translate(0 15.178)">
        <path id="Caminho_3054" data-name="Caminho 3054" d="M.865,5.733a6.88,6.88,0,0,1-6.88-6.88C-6.015-22.5,12-39.866,34.138-39.866a6.88,6.88,0,0,1,6.88,6.88,6.88,6.88,0,0,1-6.88,6.88c-14.554,0-26.393,11.2-26.393,24.959a6.88,6.88,0,0,1-6.88,6.88" transform="translate(6.015 39.866)" fill="#ffbe31"/>
      </g>
      <g id="Grupo_1904" data-name="Grupo 1904" transform="translate(39.381 15.178)">
        <path id="Caminho_3055" data-name="Caminho 3055" d="M5.048,4.868H-8.712c0-13.762-11.84-24.959-26.393-24.959v-13.76c22.141,0,40.153,17.37,40.153,38.719" transform="translate(35.105 33.851)" fill="#f84942"/>
      </g>
      <g id="Grupo_1905" data-name="Grupo 1905" transform="translate(65.772 53.745)">
        <path id="Caminho_3056" data-name="Caminho 3056" d="M-16.018,4.847c-21.568,0-18.177-17.025-18.177-37.822h13.76c0,13.21-2.1,23.994,4.417,24.062Z" transform="translate(34.195 32.975)" fill="#0fbed2"/>
      </g>
      <g id="Grupo_1906" data-name="Grupo 1906" transform="translate(14.773 65.431)">
        <path id="Caminho_3057" data-name="Caminho 3057" d="M5.9,0h-7.41A16.138,16.138,0,0,1-17.572,16.12,16.138,16.138,0,0,1-33.635,0h-7.41A23.557,23.557,0,0,0-17.629,23.529v0l.057,0,.058,0v0A23.557,23.557,0,0,0,5.9,0" transform="translate(41.045)" fill="#f84942"/>
      </g>
      <g id="Grupo_1907" data-name="Grupo 1907" transform="translate(14.773 42.131)">
        <path id="Caminho_3058" data-name="Caminho 3058" d="M3.44.042V1.65h-4V-.293A23.557,23.557,0,0,0-23.924,23.235h7.41A16.138,16.138,0,0,1-.451,7.115a16.138,16.138,0,0,1,16.065,16.12h7.41A23.565,23.565,0,0,0,3.44.042" transform="translate(23.924 0.293)" fill="#0fbed2"/>
      </g>
      <g id="Grupo_1908" data-name="Grupo 1908" transform="translate(41.048 43.4)">
        <path id="Caminho_3059" data-name="Caminho 3059" d="M2.093.05A3.269,3.269,0,0,0-2.315,1.381h0L-14.553,23.906-8.909,27.1,3.325,4.572l0,0A3.407,3.407,0,0,0,2.093.05" transform="translate(14.553 0.346)" fill="#ffbe31"/>
      </g>
      <g id="Grupo_1909" data-name="Grupo 1909" transform="translate(29.762 37.016)">
        <path id="Caminho_3060" data-name="Caminho 3060" d="M3.116.726a3.407,3.407,0,0,0-1.23-4.52A3.268,3.268,0,0,0-2.523-2.463h0L-3.793-.128h0A3.408,3.408,0,0,0-5.025-4.65,3.269,3.269,0,0,0-9.435-3.318h0L-21.671,19.207l5.642,3.191,6.275-11.551L-16.027,22.4l5.642,3.191L3.119.727Z" transform="translate(21.671 5.046)" fill="#ffbe31"/>
      </g>
      <g id="Grupo_1910" data-name="Grupo 1910" transform="translate(24.543 39.279)">
        <path id="Caminho_3061" data-name="Caminho 3061" d="M1.822.618l0,0A3.407,3.407,0,0,0,.59-3.9,3.268,3.268,0,0,0-3.818-2.573h0L-12.669,13.72l5.642,3.19Z" transform="translate(12.669 4.3)" fill="#ffbe31"/>
      </g>
      <g id="Grupo_1911" data-name="Grupo 1911" transform="translate(22.116 57.688)">
        <path id="Caminho_3062" data-name="Caminho 3062" d="M3.826,2.006-24.389-13.952c-4.531,8.341-1.887,18.675,5.9,23.082S-.7,10.346,3.826,2.006" transform="translate(26.603 13.952)" fill="#ffbe31"/>
      </g>
      <g id="Grupo_1912" data-name="Grupo 1912" transform="translate(22.129 52.321)">
        <path id="Caminho_3063" data-name="Caminho 3063" d="M.251.723,1.265-1.146A17.115,17.115,0,0,1,20.593-2.778a17.855,17.855,0,0,1,8.887,17.591l-1.016,1.869-.018-.01c-4.623,8.055-14.413,11.092-22.085,6.753S-3.973,9,.269.733Z" transform="translate(1.744 5.026)" fill="#ffdc94"/>
      </g>
      <g id="Grupo_1913" data-name="Grupo 1913" transform="translate(30.173 56.721)">
        <path id="Caminho_3064" data-name="Caminho 3064" d="M3.633.618A3.407,3.407,0,0,0,2.4-3.9a3.267,3.267,0,0,0-4.408,1.33h0L-6.56,5.807a12.464,12.464,0,0,0-17.153,4.914A12.869,12.869,0,0,0-24.894,19.9C-17.269,24-7.676,20.949-3.114,13l.018.01h0l.146-.269,1.18-2.171a0,0,0,0,0,0,0l5.4-9.95Z" transform="translate(25.26 4.297)" fill="#ffbe31"/>
      </g>
    </g>
  </g>
</svg>
