<svg xmlns="http://www.w3.org/2000/svg" width="71.482" height="43.285" viewBox="0 0 71.482 43.285">
  <g id="pv_para_saber_mais" transform="translate(-1319 -885.368)">
    <g id="Grupo_2051" data-name="Grupo 2051" transform="translate(1339.414 887.605)">
      <path id="Caminho_3247" data-name="Caminho 3247" d="M3.792,0A13.276,13.276,0,0,0-9.485,13.277v20.3H41.584V0Z" transform="translate(9.485)" fill="#f84942"/>
    </g>
    <g id="Grupo_2052" data-name="Grupo 2052" transform="translate(1359.591 909.114)">
      <path id="Caminho_3248" data-name="Caminho 3248" d="M.423,3h0A15.118,15.118,0,0,0,18.745-7.509L24.4-6.083l-.33,1.24A21.079,21.079,0,0,1-1.057,8.578Z" transform="translate(1.057 7.509)" fill="#fff"/>
    </g>
    <g id="Grupo_2053" data-name="Grupo 2053" transform="translate(1368.534 885.945)">
      <path id="Caminho_3249" data-name="Caminho 3249" d="M0,1.593H0A14.658,14.658,0,0,1,10.793,19.437l5.659,1.425.33-1.24A20.431,20.431,0,0,0,1.48-3.984Z" transform="translate(0 3.984)" fill="#fff"/>
    </g>
    <g id="Grupo_2054" data-name="Grupo 2054" transform="translate(1344.834 885.368)">
      <path id="Caminho_3250" data-name="Caminho 3250" d="M6.849,1.778h0A15.118,15.118,0,0,0-11.474,12.289l-5.659-1.426.33-1.24A21.079,21.079,0,0,1,8.329-3.8Z" transform="translate(17.133 4.448)" fill="#ffbe31"/>
    </g>
    <g id="Grupo_2055" data-name="Grupo 2055" transform="translate(1344.207 900.391)">
      <path id="Caminho_3251" data-name="Caminho 3251" d="M4.9,5.5h0A14.658,14.658,0,0,1-5.894-12.341l-5.659-1.425-.33,1.24A20.431,20.431,0,0,0,3.42,11.08Z" transform="translate(12.256 13.766)" fill="#fff"/>
    </g>
    <g id="Grupo_2056" data-name="Grupo 2056" transform="translate(1353.672 894.346)">
      <path id="Caminho_3252" data-name="Caminho 3252" d="M3.956.064A11.6,11.6,0,0,0-9.654,9,11.31,11.31,0,0,0-.708,22.4a11.64,11.64,0,0,0,2.59.209l.185.318c1.015,1.748,3.954,2,6.566.559s3.905-4.021,2.889-5.768L11.3,17.33A11.287,11.287,0,0,0,3.956.064" transform="translate(9.895 0.159)" fill="#ffbe31"/>
    </g>
    <g id="Grupo_2057" data-name="Grupo 2057" transform="translate(1365.831 913.207)">
      <path id="Caminho_3253" data-name="Caminho 3253" d="M3.2,0h0L4.414,1.684c.67.929-.5,2.473-2.609,3.453L-6.6,9.02-7.813,7.34c-.669-.935.5-2.48,2.611-3.453Z" transform="translate(8.002)" fill="#0fbed2"/>
    </g>
    <g id="Grupo_2058" data-name="Grupo 2058" transform="translate(1368.939 917.809)">
      <path id="Caminho_3254" data-name="Caminho 3254" d="M2.832,0h0L3.849,1.426c.56.789-.693,2.23-2.8,3.217L-5.937,7.918-6.952,6.489c-.56-.787.693-2.227,2.8-3.215Z" transform="translate(7.085)" fill="#0fbed2"/>
    </g>
    <g id="Grupo_2059" data-name="Grupo 2059" transform="translate(1372.259 922.043)">
      <path id="Caminho_3255" data-name="Caminho 3255" d="M2.164,0h0l.943,1.335c.522.736-.192,1.873-1.594,2.532L-4.3,6.61l-.943-1.335c-.522-.739.192-1.873,1.594-2.538Z" transform="translate(5.413)" fill="#0fbed2"/>
    </g>
    <g id="Grupo_2060" data-name="Grupo 2060" transform="translate(1319 900.766)">
      <path id="Caminho_3256" data-name="Caminho 3256" d="M1.69,5.83H-4.228A20.436,20.436,0,0,1,16.185-14.584v5.918A14.513,14.513,0,0,0,1.69,5.83" transform="translate(4.228 14.584)" fill="#0fbed2"/>
    </g>
    <g id="Grupo_2061" data-name="Grupo 2061" transform="translate(1330.464 912.62)">
      <path id="Caminho_3257" data-name="Caminho 3257" d="M2.552,0h.013V8.559H-6.384A8.754,8.754,0,0,1,2.552,0" transform="translate(6.384)" fill="#fc86bf"/>
    </g>
  </g>
</svg>
