<svg id="pv_p0tit2mp" xmlns="http://www.w3.org/2000/svg" width="269.062" height="80.603" viewBox="0 0 269.062 80.603">
  <path id="Caminho_3374" data-name="Caminho 3374" d="M152.755,12.958a7.562,7.562,0,0,1,15.122-.133,7.562,7.562,0,1,1,7.558,7.7h0v.008h0a7.565,7.565,0,1,1-7.538,8.127h-.04a7.561,7.561,0,1,1-8.178-8.1v-.069a7.562,7.562,0,0,1-6.924-7.534M188.377.027h-41v41h41Z" fill="#00a8c3"/>
  <path id="Caminho_3375" data-name="Caminho 3375" d="M106.537,27.359h.021V41.026H92.268c0-7.548,6.388-13.667,14.269-13.667" fill="#e970a8"/>
  <path id="Caminho_3376" data-name="Caminho 3376" d="M79.294,40.778H65.628A40.8,40.8,0,0,1,106.378.027V13.693A27.115,27.115,0,0,0,79.294,40.778Z" fill="#e970a8"/>
  <path id="Caminho_3377" data-name="Caminho 3377" d="M39.672,80.6a6.833,6.833,0,1,1,0-13.666A26.125,26.125,0,0,0,65.628,40.778,6.746,6.746,0,0,1,72.51,34.1a6.834,6.834,0,0,1,6.833,6.834A39.715,39.715,0,0,1,39.672,80.6Z" fill="#da3137"/>
  <path id="Caminho_3378" data-name="Caminho 3378" d="M39.672,80.6A39.716,39.716,0,0,1,0,40.932a6.833,6.833,0,1,1,13.666,0,26.035,26.035,0,0,0,26.006,26,6.833,6.833,0,0,1,0,13.666Z" fill="#32a43d"/>
  <path id="Caminho_3379" data-name="Caminho 3379" d="M211.883,2.078l-.072,9.683,5.633-7.876-3.06,9.187,7.792-5.749-5.749,7.791,9.186-3.06-7.876,5.633,9.683-.071-9.23,2.924,9.23,2.924-9.683-.072,7.876,5.635-9.186-3.061,5.749,7.791-7.792-5.749,3.06,9.187-5.633-7.876L211.883,39l-2.925-9.231L206.034,39l.072-9.683-5.633,7.876,3.06-9.187-7.792,5.749,5.75-7.791L192.3,29.027l7.875-5.635-9.683.072,9.231-2.924L190.5,17.616l9.683.071L192.3,12.054l9.186,3.06-5.75-7.791,7.792,5.749-3.06-9.187,5.633,7.876-.072-9.683,2.924,9.231ZM188.377,41.026H229.4V0H188.377Z" fill="#da3137"/>
  <rect id="Retângulo_393" data-name="Retângulo 393" width="13.666" height="13.666" transform="translate(106.378 0.027)" fill="#ffb300"/>
  <rect id="Retângulo_394" data-name="Retângulo 394" width="13.666" height="13.666" transform="translate(120.045 13.693)" fill="#ffb300"/>
  <rect id="Retângulo_395" data-name="Retângulo 395" width="13.666" height="13.666" transform="translate(133.711 0.027)" fill="#ffb300"/>
  <rect id="Retângulo_396" data-name="Retângulo 396" width="13.666" height="13.666" transform="translate(133.711 27.359)" fill="#ffb300"/>
  <rect id="Retângulo_397" data-name="Retângulo 397" width="13.666" height="13.666" transform="translate(106.378 27.359)" fill="#ffb300"/>
  <g id="Grupo_2199" data-name="Grupo 2199">
    <path id="Caminho_3380" data-name="Caminho 3380" d="M229.424,13.523H229.4V0h14.14c0,7.469-6.322,13.523-14.119,13.523" fill="#e970a8"/>
  </g>
  <path id="Caminho_3381" data-name="Caminho 3381" d="M263.6.328a6.831,6.831,0,0,0-8.069,5.317,27.314,27.314,0,0,1-26.132,21.7V41.014A41.031,41.031,0,0,0,268.921,8.4,6.833,6.833,0,0,0,263.6.328Z" fill="#e970a8"/>
</svg>
