<svg xmlns="http://www.w3.org/2000/svg" width="121.906" height="69.128" viewBox="0 0 121.906 69.128">
  <g id="pv_p1sec3tit1" transform="translate(-55 -1300.371)">
    <g id="pv_sec_mundo_queremos_um">
      <path id="Caminho_3027" data-name="Caminho 3027" d="M125.906,26.19h-7.485A18.355,18.355,0,0,0,100.087,7.856V.371A25.848,25.848,0,0,1,125.906,26.19" transform="translate(51 1300)" fill="#9e006e"/>
      <path id="Caminho_3028" data-name="Caminho 3028" d="M110.88,26.229v.017H100.085V14.959a11.04,11.04,0,0,1,10.795,11.27" transform="translate(51 1300)" fill="#e95a00"/>
      <rect id="Retângulo_367" data-name="Retângulo 367" width="39.614" height="25.911" transform="translate(85.561 1300.371)" fill="#e95a00"/>
      <path id="Caminho_3035" data-name="Caminho 3035" d="M96.688,18.11a4.779,4.779,0,0,1-9.557.084,4.779,4.779,0,1,1-4.776-4.865h0v-.005h0a4.781,4.781,0,1,1,4.763-5.135h.026a4.779,4.779,0,1,1,5.168,5.116v.043a4.78,4.78,0,0,1,4.376,4.762M74.176,26.282h25.911V.371H74.176Z" transform="translate(51 1300)" fill="#00862f"/>
    </g>
    <g id="pv_sec_mundo_queremos_dois" transform="translate(-5.436 -42.629)">
      <path id="Caminho_3030" data-name="Caminho 3030" d="M0,34.564A34.564,34.564,0,0,0,34.564,69.128V34.564Z" transform="translate(60.436 1343)" fill="#00862f"/>
      <path id="Caminho_3031" data-name="Caminho 3031" d="M34.564,0V34.564H69.128A34.564,34.564,0,0,0,34.564,0" transform="translate(60.436 1343)" fill="#00862f"/>
      <path id="Caminho_3032" data-name="Caminho 3032" d="M34.564,0A34.564,34.564,0,0,0,0,34.564H34.564Z" transform="translate(60.436 1343)" fill="#ffd000"/>
      <path id="Caminho_3033" data-name="Caminho 3033" d="M34.564,69.128A34.564,34.564,0,0,0,69.128,34.564H34.564Z" transform="translate(60.436 1343)" fill="#fff"/>
      <path id="Caminho_3034" data-name="Caminho 3034" d="M34.564,58.807A24.243,24.243,0,1,0,10.321,34.564,24.243,24.243,0,0,0,34.564,58.807" transform="translate(60.436 1343)" fill="#9e006e"/>
      <path id="Caminho_3036" data-name="Caminho 3036" d="M19.823,34.564A14.742,14.742,0,0,0,34.565,49.306V34.564Z" transform="translate(60.436 1343)" fill="#fff"/>
      <path id="Caminho_3037" data-name="Caminho 3037" d="M34.564,19.823V34.565H49.306A14.742,14.742,0,0,0,34.564,19.823" transform="translate(60.436 1343)" fill="#fff"/>
      <path id="Caminho_3038" data-name="Caminho 3038" d="M34.564,19.823A14.742,14.742,0,0,0,19.822,34.565H34.564Z" transform="translate(60.436 1343)" fill="#00862f"/>
      <path id="Caminho_3039" data-name="Caminho 3039" d="M34.564,49.306A14.742,14.742,0,0,0,49.306,34.564H34.564Z" transform="translate(60.436 1343)" fill="#e95a00"/>
    </g>
  </g>
</svg>
