<svg xmlns="http://www.w3.org/2000/svg" width="114.64" height="61.728" viewBox="0 0 114.64 61.728">
  <g id="pv_p1sec6titum" transform="translate(-954 -2080.124)">
    <path id="Caminho_3186" data-name="Caminho 3186" d="M30.864-41.322H61.651V-67.858H30.864Z" transform="translate(954 2152.31)" fill="#595db0"/>
    <path id="Caminho_3187" data-name="Caminho 3187" d="M87.973-67.858H61.725v26.746H87.973ZM84.126-54.475H84.1a9.478,9.478,0,0,0-9.265,9.517c0,.06.009.117.009.177,0,.024,0,.048,0,.072h.016l-.021.1c0-.033,0-.065,0-.1h-.011c0-.024,0-.047,0-.071,0-.06.007-.117.008-.177a9.477,9.477,0,0,0-9.247-9.516c0,.024,0,.047,0,.072l-.013-.073h.017v-.012a9.479,9.479,0,0,0,9.248-9.524c0-.028,0-.056,0-.085s0-.056,0-.084c0-.06.007-.118.008-.177l.022.26h-.017c0,.029,0,.058,0,.086A9.477,9.477,0,0,0,84.1-54.486l.026,0s0,.009,0,.013M74.83-64.1h.009c0-.028,0-.055,0-.083,0-.06-.008-.118-.009-.177Z" transform="translate(954 2152.31)" fill="#fc86bf"/>
    <g id="Grupo_2007" data-name="Grupo 2007" transform="translate(1052.099 2110.973)">
      <path id="Caminho_3188" data-name="Caminho 3188" d="M0,0V.015H-10.125V-10.073A10.1,10.1,0,0,1,0,0" fill="#ffbe31"/>
    </g>
    <g id="Grupo_2008" data-name="Grupo 2008" transform="translate(1061.112 2110.988)">
      <path id="Caminho_3189" data-name="Caminho 3189" d="M0,0H0A19.18,19.18,0,0,0-19.139-19.108v-7.428h1.676A26.687,26.687,0,0,1,7.528,0Z" fill="#0fbed2"/>
    </g>
    <g id="Grupo_2009" data-name="Grupo 2009" transform="translate(971.701 2110.988)">
      <path id="Caminho_3190" data-name="Caminho 3190" d="M0,0A13.163,13.163,0,0,0,13.163,13.163V0Z" fill="#0fbed2"/>
    </g>
    <g id="Grupo_2010" data-name="Grupo 2010" transform="translate(984.864 2097.825)">
      <path id="Caminho_3191" data-name="Caminho 3191" d="M0,0V13.163H13.163A13.163,13.163,0,0,0,0,0" fill="#fff"/>
    </g>
    <g id="Grupo_2011" data-name="Grupo 2011" transform="translate(984.864 2097.825)">
      <path id="Caminho_3192" data-name="Caminho 3192" d="M0,0A13.163,13.163,0,0,0-13.163,13.163H0Z" fill="#f84942"/>
    </g>
    <g id="Grupo_2013" data-name="Grupo 2013" transform="translate(964.568 2110.989)">
      <path id="Caminho_3194" data-name="Caminho 3194" d="M0,0H-10.568A30.863,30.863,0,0,0,20.3,30.863V20.3A20.3,20.3,0,0,1,0,0" fill="#ffbe31"/>
    </g>
    <g id="Grupo_2014" data-name="Grupo 2014" transform="translate(1005.159 2110.988)">
      <path id="Caminho_3195" data-name="Caminho 3195" d="M0,0H10.568A30.863,30.863,0,0,0-20.3-30.864V-20.3A20.3,20.3,0,0,1,0,0" fill="#ffbe31"/>
    </g>
    <g id="Grupo_2015" data-name="Grupo 2015" transform="translate(984.864 2090.692)">
      <path id="Caminho_3196" data-name="Caminho 3196" d="M0,0V-10.568A30.864,30.864,0,0,0-30.864,20.3H-20.3A20.3,20.3,0,0,1,0,0" fill="#0fbed2"/>
    </g>
    <g id="Grupo_2018" data-name="Grupo 2018" transform="translate(965.021 2093.552)">
      <path id="Caminho_3199" data-name="Caminho 3199" d="M0,0,8.027,8.46a14.526,14.526,0,1,0,5.008-4.375L4.819-4.573A3.331,3.331,0,0,0,.123-4.7,3.332,3.332,0,0,0,0,0M19.288,8.618a8.255,8.255,0,1,1-7.737,8.744,8.255,8.255,0,0,1,7.737-8.744" fill="#fc86bf"/>
    </g>
  </g>
</svg>
