<svg xmlns="http://www.w3.org/2000/svg" width="116.352" height="29.144" viewBox="0 0 116.352 29.144">
  <g id="pv_p1sec3tit1" transform="translate(-157.594 -1449.211)">
    <path id="Caminho_142" data-name="Caminho 142" d="M0,0A24.724,24.724,0,0,1,24.724,24.725" transform="translate(245.03 1453.588)" fill="none" stroke="#0ebfda" stroke-linejoin="round" stroke-width="8.383"/>
    <path id="Caminho_143" data-name="Caminho 143" d="M0,0C0,.006,0,.013,0,.019H-12.124V-12.659A12.4,12.4,0,0,1,0,0" transform="translate(257.154 1478.294)" fill="#0ebfda"/>
    <path id="Caminho_145" data-name="Caminho 145" d="M160.927-74.687h29.1v-29.1h-29.1Z" transform="translate(55 1553)" fill="#f84942"/>
    <path id="Caminho_146" data-name="Caminho 146" d="M102.594-74.646h29.1v-29.1h-29.1Zm0-29.1,25.285,19.924a5.369,5.369,0,0,1-5.37,5.369,5.366,5.366,0,0,1-5.364-5.275,5.367,5.367,0,0,1-5.365,5.275,5.37,5.37,0,0,1-5.37-5.369,5.37,5.37,0,0,1,5.37-5.37h0V-89.2h0a5.37,5.37,0,0,1-5.37-5.369,5.37,5.37,0,0,1,5.37-5.37,5.366,5.366,0,0,1,5.35,4.971h.029a5.366,5.366,0,0,1,5.35-4.971,5.37,5.37,0,0,1,5.37,5.37,5.369,5.369,0,0,1-4.915,5.348v.048a5.37,5.37,0,0,1,4.915,5.349" transform="translate(55 1553)" fill="#0ebfda"/>
    <path id="Caminho_147" data-name="Caminho 147" d="M0,0A24.724,24.724,0,0,1,24.724,24.725" transform="translate(245.03 1453.588)" fill="none" stroke="#0ebfda" stroke-linejoin="round" stroke-width="8.383"/>
    <path id="Caminho_148" data-name="Caminho 148" d="M0,0C0,.006,0,.013,0,.019H-12.124V-12.659A12.4,12.4,0,0,1,0,0" transform="translate(257.154 1478.294)" fill="#0ebfda"/>
    <path id="Caminho_150" data-name="Caminho 150" d="M160.927-74.687h29.1v-29.1h-29.1Z" transform="translate(55 1553)" fill="#fc86bf"/>
    <path id="Caminho_152" data-name="Caminho 152" d="M0,0V-.019A11.574,11.574,0,0,1-11.356-11.542,11.575,11.575,0,0,1-22.76-.017a.076.076,0,0,1,0,.015,11.573,11.573,0,0,1,11.4,11.517A11.576,11.576,0,0,1,0,0M-11.346,11.729c0-.073-.009-.142-.011-.214,0,.072-.01.141-.01.214,0,.029,0,.057,0,.086h.013c0-.029,0-.057,0-.086m.017.087h-.021c0,.04,0,.079-.006.119ZM-22.765.085c0-.03,0-.058,0-.087h-.021Zm11.4-11.833c0,.035,0,.068,0,.1l.005-.3h0c0,.066-.01.131-.01.2m0,.1c0,.035.005.069.006.1,0-.035.005-.069.005-.1h-.011m.016-.1c0,.035-.005.068-.005.1h.022l-.026-.3h0c0,.066.01.131.01.2" transform="translate(242.197 1463.861)" fill="#fff"/>
    <path id="Caminho_167" data-name="Caminho 167" d="M131.7-74.645h31.049v-29.144H131.7Z" transform="translate(55 1553)" fill="#34b653"/>
    <path id="Caminho_168" data-name="Caminho 168" d="M0,0-2.057,6.585-4.113,0l.05,6.908L-8.026,1.289l2.153,6.554-5.481-4.1L-7.31,9.3l-6.461-2.183,5.539,4.018-6.811-.051L-8.55,13.17l-6.493,2.086,6.811-.05-5.539,4.018,6.461-2.183L-11.354,22.6l5.481-4.1-2.153,6.554,3.963-5.618-.05,6.907,2.056-6.585L0,26.341l-.05-6.907,3.962,5.618L1.76,18.5l5.48,4.1L3.2,17.041l6.462,2.183-5.54-4.018,6.811.05L4.436,13.17l6.493-2.086-6.811.051,5.54-4.018L3.2,9.3,7.24,3.741l-5.48,4.1L3.912,1.289-.05,6.908Z" transform="translate(204.276 1450.592)" fill="#fff"/>
  </g>
</svg>
