<svg xmlns="http://www.w3.org/2000/svg" width="55.382" height="45.403" viewBox="0 0 55.382 45.403">
  <g id="pv_referencias_biblio" transform="translate(-91 -4207.138)">
    <path id="Caminho_3214" data-name="Caminho 3214" d="M0,0H-.013V7.554H7.661A7.609,7.609,0,0,0,0,0" transform="translate(126.778 4218.919)" fill="#fc86bf"/>
    <path id="Caminho_3215" data-name="Caminho 3215" d="M0-.939H0A14.046,14.046,0,0,1,14.127,12.938h5.491V11.723A19.57,19.57,0,0,0,0-6.4Z" transform="translate(126.764 4213.536)" fill="#f84942"/>
    <path id="Caminho_3216" data-name="Caminho 3216" d="M-.857,0A5.064,5.064,0,0,0-5.834,5.146V19.938H13.449V0Z" transform="translate(113.316 4207.138)" fill="#0fbed2"/>
    <path id="Caminho_3217" data-name="Caminho 3217" d="M-2.987-1.789l-4.551-.035,3.7,2.738L-8.153-.573l2.7,3.786L-9.113.419l1.438,4.465-2.648-3.827.034,4.705-1.374-4.486-1.374,4.486L-13,1.057l-2.648,3.827L-14.214.419l-3.662,2.794,2.7-3.786L-19.491.914l3.7-2.738-4.552.035L-16-3.21l-4.339-1.421,4.552.035-3.7-2.738,4.318,1.487-2.7-3.786,3.662,2.794L-15.652-11.3-13-7.477l-.034-4.705L-11.663-7.7l1.374-4.486-.034,4.705L-7.675-11.3-9.113-6.839l3.662-2.794-2.7,3.786,4.318-1.487L-7.537-4.6l4.551-.035L-7.325-3.21Z" transform="translate(128.754 4220.304)" fill="#fff"/>
    <path id="Caminho_3218" data-name="Caminho 3218" d="M-2.854,0V10.331a8.291,8.291,0,0,1-8.291,8.291,8.291,8.291,0,0,1-8.29-8.291V0Z" transform="translate(110.456 4233.919)" fill="#ffbe31"/>
    <path id="Caminho_3219" data-name="Caminho 3219" d="M0-2.962c0,.009,0,.017,0,.026H16.482V-20.17C7.379-20.17,0-12.465,0-2.962" transform="translate(91 4237.002)" fill="#f84942"/>
  </g>
</svg>
