<svg xmlns="http://www.w3.org/2000/svg" width="91.345" height="25.911" viewBox="0 0 91.345 25.911">
  <g id="pv_sec_mundo_queremos_um" transform="translate(-85.561 -1300.371)">
    <path id="Caminho_3027" data-name="Caminho 3027" d="M125.906,26.19h-7.485A18.355,18.355,0,0,0,100.087,7.856V.371A25.848,25.848,0,0,1,125.906,26.19" transform="translate(51 1300)" fill="#9e006e"/>
    <path id="Caminho_3028" data-name="Caminho 3028" d="M110.88,26.229v.017H100.085V14.959a11.04,11.04,0,0,1,10.795,11.27" transform="translate(51 1300)" fill="#e95a00"/>
    <rect id="Retângulo_367" data-name="Retângulo 367" width="39.614" height="25.911" transform="translate(85.561 1300.371)" fill="#e95a00"/>
    <path id="Caminho_3035" data-name="Caminho 3035" d="M96.688,18.11a4.779,4.779,0,0,1-9.557.084,4.779,4.779,0,1,1-4.776-4.865h0v-.005h0a4.781,4.781,0,1,1,4.763-5.135h.026a4.779,4.779,0,1,1,5.168,5.116v.043a4.78,4.78,0,0,1,4.376,4.762M74.176,26.282h25.911V.371H74.176Z" transform="translate(51 1300)" fill="#00862f"/>
  </g>
</svg>
