<svg xmlns="http://www.w3.org/2000/svg" width="124.709" height="68.471" viewBox="0 0 124.709 68.471">
  <g id="pv_sumariole" transform="translate(0 68.549)">
    <g id="Grupo_2175" data-name="Grupo 2175">
      <g id="Grupo_2158" data-name="Grupo 2158" transform="translate(124.708 -42.608)">
        <path id="Caminho_3348" data-name="Caminho 3348" d="M0,0H-7.414A18.179,18.179,0,0,0-25.573-18.159v-7.414A25.6,25.6,0,0,1,0,0" fill="#0fbed2"/>
      </g>
      <g id="Grupo_2159" data-name="Grupo 2159" transform="translate(109.826 -42.57)">
        <path id="Caminho_3349" data-name="Caminho 3349" d="M0,0V.017H-10.692v-11.18A10.935,10.935,0,0,1,0,0" fill="#0fbed2"/>
      </g>
    </g>
    <path id="Caminho_3351" data-name="Caminho 3351" d="M34.232-42.517H73.468V-68.181H34.232Z" fill="#0fbed2"/>
    <g id="Grupo_2174" data-name="Grupo 2174">
      <g id="Grupo_2162" data-name="Grupo 2162" transform="translate(0 -34.313)">
        <path id="Caminho_3353" data-name="Caminho 3353" d="M0,0A34.235,34.235,0,0,0,34.236,34.235V0Z" fill="#fc86bf"/>
      </g>
      <g id="Grupo_2163" data-name="Grupo 2163" transform="translate(34.236 -68.549)">
        <path id="Caminho_3354" data-name="Caminho 3354" d="M0,0V34.236H34.235A34.235,34.235,0,0,0,0,0" fill="#fc86bf"/>
      </g>
      <g id="Grupo_2164" data-name="Grupo 2164" transform="translate(34.236 -68.549)">
        <path id="Caminho_3355" data-name="Caminho 3355" d="M0,0A34.236,34.236,0,0,0-34.236,34.236H0Z" fill="#34b653"/>
      </g>
      <g id="Grupo_2165" data-name="Grupo 2165" transform="translate(34.236 -0.078)">
        <path id="Caminho_3356" data-name="Caminho 3356" d="M0,0A34.235,34.235,0,0,0,34.235-34.235H0Z" fill="#fff"/>
      </g>
      <g id="Grupo_2166" data-name="Grupo 2166" transform="translate(34.236 -10.301)">
        <path id="Caminho_3357" data-name="Caminho 3357" d="M0,0A24.013,24.013,0,0,0,24.012-24.012,24.013,24.013,0,0,0,0-48.025,24.013,24.013,0,0,0-24.012-24.012,24.013,24.013,0,0,0,0,0" fill="#f84942"/>
      </g>
      <g id="Grupo_2167" data-name="Grupo 2167" transform="translate(95.768 -50.611)">
        <path id="Caminho_3358" data-name="Caminho 3358" d="M0,0A4.736,4.736,0,0,1-4.735,4.736,4.733,4.733,0,0,1-9.466.083,4.734,4.734,0,0,1-14.2,4.736,4.735,4.735,0,0,1-18.932,0,4.735,4.735,0,0,1-14.2-4.736h0v-.005h0a4.734,4.734,0,0,1-4.735-4.735A4.734,4.734,0,0,1-14.2-14.211,4.733,4.733,0,0,1-9.479-9.827h.026a4.732,4.732,0,0,1,4.718-4.384A4.735,4.735,0,0,1,0-9.476,4.735,4.735,0,0,1-4.334-4.759v.042A4.735,4.735,0,0,1,0,0M-22.3,8.094H3.367V-17.571H-22.3Z" fill="#f84942"/>
      </g>
      <g id="Grupo_2168" data-name="Grupo 2168" transform="translate(19.634 -34.313)">
        <path id="Caminho_3359" data-name="Caminho 3359" d="M0,0A14.6,14.6,0,0,0,14.6,14.6V0Z" fill="#fff"/>
      </g>
      <g id="Grupo_2169" data-name="Grupo 2169" transform="translate(34.236 -48.915)">
        <path id="Caminho_3360" data-name="Caminho 3360" d="M0,0V14.6H14.6A14.6,14.6,0,0,0,0,0" fill="#fff"/>
      </g>
      <g id="Grupo_2170" data-name="Grupo 2170" transform="translate(34.236 -48.915)">
        <path id="Caminho_3361" data-name="Caminho 3361" d="M0,0A14.6,14.6,0,0,0-14.6,14.6H0Z" fill="#0fbed2"/>
      </g>
      <g id="Grupo_2171" data-name="Grupo 2171" transform="translate(34.236 -19.712)">
        <path id="Caminho_3362" data-name="Caminho 3362" d="M0,0A14.6,14.6,0,0,0,14.6-14.6H0Z" fill="#0fbed2"/>
      </g>
    </g>
  </g>
</svg>
