<svg xmlns="http://www.w3.org/2000/svg" xmlns:xlink="http://www.w3.org/1999/xlink" width="14.064" height="28.048" viewBox="0 0 14.064 28.048">
  <defs>
    <clipPath id="clip-path">
      <path id="Caminho_3269" data-name="Caminho 3269" d="M0,14.054H14.064V-13.994H0Z" transform="translate(0 13.994)" fill="none"/>
    </clipPath>
  </defs>
  <g id="pv_vocabulario" transform="translate(0 13.994)">
    <g id="Grupo_2072" data-name="Grupo 2072" transform="translate(0 -13.994)" clip-path="url(#clip-path)">
      <g id="Grupo_2070" data-name="Grupo 2070" transform="translate(0 0)">
        <path id="Caminho_3267" data-name="Caminho 3267" d="M0,7.027A13.87,13.87,0,0,1,13.713-7c.1,0,.206.006.311.008V21.043c-.1,0-.206.008-.311.008A13.87,13.87,0,0,1,0,7.027" transform="translate(0 6.997)" fill="#34b653"/>
      </g>
      <g id="Grupo_2071" data-name="Grupo 2071" transform="translate(4.151 4.15)">
        <path id="Caminho_3268" data-name="Caminho 3268" d="M0,4.967A9.8,9.8,0,0,1,9.693-4.946c.074,0,.146,0,.22.006V14.874c-.074,0-.146.006-.22.006A9.805,9.805,0,0,1,0,4.967" transform="translate(0 4.946)" fill="#ffbe31"/>
      </g>
    </g>
  </g>
</svg>
