<svg xmlns="http://www.w3.org/2000/svg" xmlns:xlink="http://www.w3.org/1999/xlink" width="54.225" height="50" viewBox="0 0 54.225 50">
  <defs>
    <clipPath id="clip-path">
      <rect id="Retângulo_199" data-name="Retângulo 199" width="54.225" height="50" transform="translate(0 0)" fill="none"/>
    </clipPath>
  </defs>
  <g id="alfabeto_z_fim" transform="translate(0 0)">
    <g id="Grupo_1568" data-name="Grupo 1568" transform="translate(0 0)" clip-path="url(#clip-path)">
      <path id="Caminho_2585" data-name="Caminho 2585" d="M55.085,11.724S57.6,2.423,62.256.991c0,0,1.85-.732,1.556,2.342,0,0,.273,4.836-.164,6.268" transform="translate(-22.154 -0.368)" fill="#e8dcd3"/>
      <path id="Caminho_2586" data-name="Caminho 2586" d="M55.049,11.583a19.052,19.052,0,0,1,4.425-8.907C60.385,1.659,62.882-.647,63.86,1.4a4.059,4.059,0,0,1,.176,1.783,21.459,21.459,0,0,1-.381,6.288,53.607,53.607,0,0,0-.1-6.261,4.153,4.153,0,0,0-.108-1.645A.861.861,0,0,0,62.3,1.035c-2.11.637-3.624,2.549-4.56,4.478-1.029,1.94-1.825,4.133-2.688,6.07" transform="translate(-22.139 -0.233)" fill="#baaea6"/>
      <path id="Caminho_2587" data-name="Caminho 2587" d="M41.806,18.868s3.98-7.874-.8-8.033c0,0-.2-1.513-2.348-1.035,0,0-1.552-1.79-2.388-.836a1.32,1.32,0,0,0-2.149-.836S32.931,6.518,31.857,7.8c0,0-1.672-.866-2.269.447,0,0-1.552-1.074-2.03.478a1.194,1.194,0,0,0-2.03.358l-7.044,2.507s-4.179.6-4.537,3.879A1.731,1.731,0,0,0,11.8,17.2s-1.91.955-1.672,2.626a4.061,4.061,0,0,0-1.313,2.985A3.429,3.429,0,0,0,7.024,26.28s-2.149,1.8-1.672,3.584A3.946,3.946,0,0,0,3.8,32.751a4.272,4.272,0,0,0-1.074,3.994,5.223,5.223,0,0,0-1.553,4.143s-1.432.371-.716,3.506c0,0-.879,2.776-.2,3.91S1.032,50.3,3.42,51.221" transform="translate(0 -2.938)" fill="#1a1818"/>
      <path id="Caminho_2588" data-name="Caminho 2588" d="M31.464,49.089a51.991,51.991,0,0,1-.589-9.5c.173.686,8.006.925,8.931.9a9.079,9.079,0,0,1,1.97.209s12.416,6.448,13.968.359S52.162,31.5,49.3,27.679s-3.1-6.088-3.1-6.088C42.611,7.98,28.822,11.8,28.822,11.8a16.782,16.782,0,0,0-.975-4.656s-2.388-5.253-3.5-6.526-2.547.955-2.547.955c-5.73,8.6-1.273,14.087-1.273,14.087S6.038,35.638,5.72,48.373L30.63,50.05a.8.8,0,0,0,.835-.961" transform="translate(-2.3 -0.09)" fill="#e8dcd3"/>
      <path id="Caminho_2589" data-name="Caminho 2589" d="M31.325,49a48.341,48.341,0,0,1-.612-9.757l.092.239c.3.284.844.291,1.242.378,3.2.527,6.538.17,9.651.619,3.494,1.581,7.4,3.388,11.308,2.745,2.256-.5,2.623-2.438,2.717-4.442-.053-5.449-5.351-8.535-7.857-12.874a13.324,13.324,0,0,1-1.9-4.383,16.225,16.225,0,0,0-2.239-5.07c-3.2-4.83-9.674-5.976-15-4.649l-.135.033a8.964,8.964,0,0,0-.31-2.47,30.065,30.065,0,0,0-3.6-7.946C24.394,1,24.113.489,23.7.333c-1.36-.287-2.39,2.162-2.98,3.133-1.951,3.628-2.611,8.446-.148,11.974l.094.129-.087.122c-5.133,7.421-9.863,15.286-12.889,23.819a31.326,31.326,0,0,0-1.913,8.778l-.158-.173c4.423.326,15.515,1.138,19.779,1.444l3.3.239,1.648.12A.8.8,0,0,0,31.325,49m.044-.01a.853.853,0,0,1-1.036.984l-1.649-.1-3.3-.205c-4.227-.262-15.435-.954-19.794-1.218l-.163-.01,0-.164c.558-10.912,8.692-23.913,14.807-32.83l.007.251c-2.923-4.194-1.665-9.808.976-13.788.942-1.662,2.518-2.993,3.708-.64A30.7,30.7,0,0,1,28.5,9.322a9.432,9.432,0,0,1,.3,2.394l-.131-.105a18.165,18.165,0,0,1,5.6-.426c6.075.364,10.479,4.465,11.907,10.287.7,3.084,2.742,5.718,4.808,8.045,2.384,2.6,5.11,5.5,5.11,9.271-.08,2.215-.532,4.28-3.007,4.809-3.967.648-8.072-1.281-11.463-2.873-3.329-.529-7.267-.069-10.617-.984-.1-.051-.233-.075-.3-.23l.1-.011a47.314,47.314,0,0,0,.563,9.495" transform="translate(-2.183 0)" fill="#baaea6"/>
      <path id="Caminho_2590" data-name="Caminho 2590" d="M34.969,7.319s-.836-2.03-1.91.716-.955,7.641,1.91,8.238,1.968-5.19,0-8.954" transform="translate(-13.044 -2.653)" fill="#f58f7f"/>
      <path id="Caminho_2591" data-name="Caminho 2591" d="M74.964,48.52s-9.238,2.418-9.357,11.85c0,0,10.452,5.508,13.76,1.358,3.086-3.872-1.563-10.93-4.4-13.207" transform="translate(-26.385 -19.514)" fill="#443e37"/>
      <path id="Caminho_2592" data-name="Caminho 2592" d="M74.892,48.527c-5.467,1.932-8.961,6.243-9.311,11.749,3.312,1.683,10.869,4.758,13.648,1.145,2.6-3.932-1.4-10.116-4.337-12.894m.01-.044c3.347,2.662,7.551,9.055,4.7,13.2-3.079,3.9-10.528.359-14.146-1.277C65.2,54.653,69.456,49.855,74.9,48.483" transform="translate(-26.318 -19.499)" fill="#35322e"/>
      <path id="Caminho_2593" data-name="Caminho 2593" d="M55.5,41.433a3.264,3.264,0,1,1-5.4-3.516,3.264,3.264,0,1,1,5.4,3.516" transform="translate(-19.868 -14.501)" fill="#fff"/>
      <path id="Caminho_2594" data-name="Caminho 2594" d="M55.477,41.335c-1.652,2.761-5.808,2.7-6.144-.905C49,37.61,52.217,34.592,54.9,36.276c1.712,1.1,1.621,3.548.573,5.058m-.025-.016c2.384-4.13-2.488-7.35-5.324-3.463-2.642,4.1,2.543,7.36,5.324,3.463" transform="translate(-19.831 -14.394)" fill="#1a1818"/>
      <path id="Caminho_2595" data-name="Caminho 2595" d="M56.772,42.494c-1,1.53-2.533,2.3-3.434,1.71s-.824-2.3.172-3.832,2.534-2.3,3.434-1.71.824,2.3-.172,3.832" transform="translate(-21.198 -15.47)" fill="#1a1818"/>
      <path id="Caminho_2596" data-name="Caminho 2596" d="M68.615,64.348c.461,1.982,2.561,3.027,4.089,4.148.563.377,1.142.731,1.7,1.144-2.142-.6-6.107-2.652-5.791-5.293" transform="translate(-27.588 -25.879)" fill="#1a1818"/>
      <path id="Caminho_2597" data-name="Caminho 2597" d="M79.65,58.993c.249.991.062,1.892-.417,2.013s-1.071-.585-1.32-1.576-.063-1.892.417-2.013,1.07.585,1.32,1.576" transform="translate(-31.29 -23.086)" fill="#1a1818"/>
      <path id="Caminho_2598" data-name="Caminho 2598" d="M85.98,58.263c.249.991.063,1.892-.417,2.013s-1.071-.585-1.32-1.576-.063-1.892.417-2.013,1.071.585,1.32,1.576" transform="translate(-33.836 -22.793)" fill="#1a1818"/>
      <path id="Caminho_2599" data-name="Caminho 2599" d="M9.861,62.509c2.094,1.577,4.219,3.075,6.448,4.434.8.514,1.722.8,2.528,1.3a20.726,20.726,0,0,1,3.729,3.125c.4.56-1.993.588-2.3.524a7.453,7.453,0,0,1-2.1-.52c-1.941-.8-3.243-2.581-4.758-3.934-.3-.289-4.746-5.31-3.546-4.927" transform="translate(-3.883 -25.131)" fill="#1a1818"/>
      <path id="Caminho_2600" data-name="Caminho 2600" d="M15.152,50.928a32.47,32.47,0,0,0,4.67,3.792,13.261,13.261,0,0,1,2.463,1.529,8.66,8.66,0,0,1,1.878,2.642.191.191,0,0,1-.131.269,5.094,5.094,0,0,1-4.732-1.4l-1.063-1.253a17.2,17.2,0,0,1-3.342-5.431.153.153,0,0,1,.258-.152" transform="translate(-5.986 -20.462)" fill="#1a1818"/>
      <path id="Caminho_2601" data-name="Caminho 2601" d="M44.289,74.955A8.2,8.2,0,0,1,42.3,76.937c-.388.27-.762.676-1.278.7a2,2,0,0,1-1.556-.508.132.132,0,0,1-.017-.175,3.8,3.8,0,0,1,1.044-1.031c.325-.246.776-.166,1.185-.279.833-.235,1.678-.506,2.5-.827a.094.094,0,0,1,.114.139" transform="translate(-15.854 -30.086)" fill="#1a1818"/>
      <path id="Caminho_2602" data-name="Caminho 2602" d="M21.143,41.4A15.714,15.714,0,0,0,23.681,43.8c.441.366,1.107.514,1.317,1.075a3.709,3.709,0,0,1,.279,2.182.258.258,0,0,1-.2.214,3.119,3.119,0,0,1-2.257-.354c-.82-.572-.946-1.706-1.427-2.532a6.753,6.753,0,0,1-.539-2.929.157.157,0,0,1,.295-.049" transform="translate(-8.377 -16.618)" fill="#1a1818"/>
      <path id="Caminho_2603" data-name="Caminho 2603" d="M47.376,61.169A7.241,7.241,0,0,1,46.262,57.6a3.943,3.943,0,0,1,1.11-3.555.068.068,0,0,1,.112.041c.355,1.81-.5,3.464-.307,5.275a6.917,6.917,0,0,0,.3,1.753.06.06,0,0,1-.106.053" transform="translate(-18.586 -21.73)" fill="#1a1818"/>
      <path id="Caminho_2604" data-name="Caminho 2604" d="M54.135,61.958c-.487-2.242-1.47-6.668,1.089-7.935a.066.066,0,0,1,.09.077,46.072,46.072,0,0,0-.987,5.809c-.054.673-.068,1.351-.074,2.032a.061.061,0,0,1-.118.017" transform="translate(-21.531 -21.725)" fill="#1a1818"/>
      <path id="Caminho_2605" data-name="Caminho 2605" d="M60.671,62.121a22.923,22.923,0,0,1-.621-4.167,4.7,4.7,0,0,1,.533-3.213,1.54,1.54,0,0,1,.951-.732.065.065,0,0,1,.069.093A5.356,5.356,0,0,0,61.3,56a35.181,35.181,0,0,0-.434,4.026c-.044.69-.054,1.383-.072,2.079a.061.061,0,0,1-.119.014" transform="translate(-24.128 -21.721)" fill="#1a1818"/>
      <path id="Caminho_2606" data-name="Caminho 2606" d="M50.5,18.8a26.744,26.744,0,0,1,6.864,3.574c2.213,1.425,4.4,3.944,3.7,6.767a.1.1,0,0,1-.179.015,14.345,14.345,0,0,0-2.067-2.965,25.308,25.308,0,0,0-5.244-5.1c-1-.762-2.061-1.46-3.143-2.127A.09.09,0,0,1,50.5,18.8" transform="translate(-20.261 -7.557)" fill="#1a1818"/>
      <path id="Caminho_2607" data-name="Caminho 2607" d="M15.156,46.627s6.727-16.046,12.685-19.251c0,0,.346.088-1.365,2.094s-7.185,8.715-9.257,15.016-2.063,2.141-2.063,2.141" transform="translate(-6.095 -11.01)" fill="#fff"/>
    </g>
  </g>
</svg>
