<svg xmlns="http://www.w3.org/2000/svg" xmlns:xlink="http://www.w3.org/1999/xlink" width="62.189" height="50" viewBox="0 0 62.189 50">
  <defs>
    <clipPath id="clip-path">
      <rect id="Retângulo_162" data-name="Retângulo 162" width="62.189" height="50" transform="translate(0 0)" fill="none"/>
    </clipPath>
  </defs>
  <g id="alfabeto_h_e001_fim" transform="translate(0 0)">
    <g id="Grupo_1512" data-name="Grupo 1512" transform="translate(0 0)" clip-path="url(#clip-path)">
      <path id="Caminho_2199" data-name="Caminho 2199" d="M40.927,4.027c0,.558-.852,1.011-1.9,1.011s-1.9-.453-1.9-1.011.852-1.011,1.9-1.011,1.9.453,1.9,1.011" transform="translate(-12.915 -1.049)" fill="#00abc4"/>
      <path id="Caminho_2200" data-name="Caminho 2200" d="M40.9,3.935c-.28,1.293-2.1,1.342-3.083.855-.345-.158-.768-.376-.826-.855.142-1.592,3.711-1.562,3.909,0m-.033,0c-.123-1.168-3.507-1.1-3.7,0,.048.789,1.176.933,1.813.875.649-.083,1.744-.057,1.885-.875" transform="translate(-12.867 -0.958)" fill="#006a96"/>
      <path id="Caminho_2201" data-name="Caminho 2201" d="M40.443,12.262H38.71V5.2a.452.452,0,0,1,.453-.453h.828a.453.453,0,0,1,.453.453Z" transform="translate(-13.467 -1.653)" fill="#00abc4"/>
      <path id="Caminho_2202" data-name="Caminho 2202" d="M40.379,12.2c-.575.04-1.219.083-1.85.1-.046-1.4-.06-2.8.022-4.2.058-1.042.017-2.037.014-3.086.068-.447.6-.46.937-.45a4.577,4.577,0,0,1,.539,0c.686.145.434,1.032.49,1.509.026,2.023-.046,4.17-.151,6.133m-.023-.023c-.128-2.44-.177-4.73-.144-7.115a.317.317,0,0,0-.229-.244c-.112-.021-.325-.015-.482-.024-.3,0-.672-.1-.773.254-.14,2.368.15,4.768.016,7.141l-.109-.11c.55.019,1.112.061,1.722.1" transform="translate(-13.391 -1.584)" fill="#006a96"/>
      <path id="Caminho_2203" data-name="Caminho 2203" d="M40.336,15.284H36.884a.954.954,0,0,0-.954.954V18.59h5.36V16.238a.954.954,0,0,0-.954-.954" transform="translate(-12.5 -5.317)" fill="#00abc4"/>
      <path id="Caminho_2204" data-name="Caminho 2204" d="M40.286,15.219c-1.182.01-2.461.125-3.621.143a.871.871,0,0,0-.6.464,12.56,12.56,0,0,0-.127,2.682l-.058-.059c1.787-.058,3.574-.139,5.36-.108l-.166.166c0-.642.023-1.283.068-1.925.117-.672-.09-1.325-.856-1.365m0-.033a1,1,0,0,1,.842.441,1.706,1.706,0,0,1,.211.957c.044.642.068,1.283.068,1.925v.164c-1.842.038-3.684-.045-5.527-.1l-.06,0v-.057c.08-.943-.137-1.832.027-2.775.236-.718,1.1-.715,1.7-.663.913.028,1.826.118,2.739.115" transform="translate(-12.449 -5.236)" fill="#006a96"/>
      <path id="Caminho_2205" data-name="Caminho 2205" d="M19.161,56.878a7.707,7.707,0,0,0-1.795,3.146l-4.3,1.476s-2.055-1.6-2.568,0-.128,2.889,2.183,2.247,15.857-6.163,15.857-6.163l-4.394-.257-.635.749L19.1,59.446a8.667,8.667,0,0,1,1.669-2.568" transform="translate(-3.582 -19.787)" fill="#00abc4"/>
      <path id="Caminho_2206" data-name="Caminho 2206" d="M19.161,56.878a7.707,7.707,0,0,0-1.795,3.146l-4.3,1.476s-2.055-1.6-2.568,0-.128,2.889,2.183,2.247,15.857-6.163,15.857-6.163l-4.394-.257-.635.749L19.1,59.446a8.667,8.667,0,0,1,1.669-2.568" transform="translate(-3.582 -19.787)" fill="none" stroke="#006a96" stroke-miterlimit="10" stroke-width="0.5"/>
      <path id="Caminho_2207" data-name="Caminho 2207" d="M54.318,28.518a3.115,3.115,0,0,0,1.6-1.733c.642-1.412,2.119-5.842,3.21-5.842s.706,3.338.706,3.338-.576,6.1-2.728,7.447-14.542,9.18-16.853,9.887c-2.188.669-15.546,8.246-24.425-.929a7.66,7.66,0,0,1-2.042-3.961c-.763-4.247-.614-13.324,13.179-17,0,0,7.085-1.605,12.723,3.151a11.724,11.724,0,0,1,1.949,2.184A22.6,22.6,0,0,0,44.3,28.326c1.027.834,3.082,3.787,10.015.192" transform="translate(-4.711 -6.771)" fill="#0a2039"/>
      <path id="Caminho_2208" data-name="Caminho 2208" d="M54.2,28.375c1.266-.552,1.692-1.974,2.166-3.158.412-.843,2.038-5.945,3.249-4.035.645,1.931.106,4.005-.226,5.943-.432,1.923-1.043,4.138-2.958,5.079-5.041,3.162-10.062,6.383-15.383,9.066-1.058.465-2.608,1.013-3.679,1.495C30.054,45.815,20.906,46.8,15.191,40.2c-1.8-2.081-2.078-4.984-1.911-7.632A13.18,13.18,0,0,1,19.35,22.6c6.342-4.267,14.459-5.066,20.5.157,1.49,1.342,2.424,3.166,3.725,4.655a14.486,14.486,0,0,0,1.405,1.373c2.636,2.395,6.436.983,9.221-.409m.019.045c-2.8,1.443-6.64,2.856-9.357.5a14.269,14.269,0,0,1-1.458-1.363c-1.34-1.466-2.284-3.245-3.782-4.546a14.948,14.948,0,0,0-8.972-3.395,14.408,14.408,0,0,0-3.867.272c-3.75,1.053-7.466,2.727-10.094,5.667a13.124,13.124,0,0,0-2.831,10.95A7.451,7.451,0,0,0,15.439,40c4.386,5.3,11.922,5.932,18.125,3.887a78.261,78.261,0,0,0,7.368-2.871c5.248-2.743,10.221-6.078,15.288-9.151a4.731,4.731,0,0,0,2.308-2.929,20.907,20.907,0,0,0,1.159-5.767c.1-1.206-.258-3.447-1.551-1.487a21.846,21.846,0,0,0-1.694,3.566c-.485,1.188-.933,2.627-2.221,3.173" transform="translate(-4.605 -6.65)" fill="#0a1928"/>
      <path id="Caminho_2209" data-name="Caminho 2209" d="M37.048,37.671S36.567,15.4,22.026,21.3c0,0-10.133,4.489-8.487,14.759a5.171,5.171,0,0,0,2.877,3.883c2.953,1.378,9.077,2.375,20.633-2.271" transform="translate(-4.647 -7.064)" fill="#90d8f9"/>
      <path id="Caminho_2210" data-name="Caminho 2210" d="M36.91,37.587c-.558-5.511-1.622-12.481-6.388-15.962-3.836-2.579-8.976-.827-12.168,2.033A12.959,12.959,0,0,0,13.58,35.414c.372,5.034,6.42,5.558,10.389,5.3A46.668,46.668,0,0,0,36.91,37.587m.041.027c-5.5,2.3-11.434,4.242-17.467,3.445-3.187-.389-6.163-2.078-6.361-5.59a12.5,12.5,0,0,1,2.083-8.633c2.584-3.63,6.623-6.564,11.19-6.733,8.423-.016,10.382,10.884,10.556,17.511" transform="translate(-4.529 -6.994)" fill="#70bdd9"/>
      <path id="Caminho_2211" data-name="Caminho 2211" d="M17.056,46.2s11.81,4.62,20.38.672S58.506,35.318,58.506,35.318l.226,1.607S39.129,51.678,25.86,50.576a12.938,12.938,0,0,1-8.8-4.374" transform="translate(-5.934 -12.287)" fill="#0a1928"/>
      <path id="Caminho_2212" data-name="Caminho 2212" d="M78.522,30.209s-4.345-4.782-2.74-6.13,3.956,4.077,3.956,4.077" transform="translate(-26.24 -8.302)" fill="#acacac"/>
      <path id="Caminho_2213" data-name="Caminho 2213" d="M78.452,30.117a9.281,9.281,0,0,1-2.883-4.129,2.733,2.733,0,0,1-.224-1.71c.684-1.579,2.338-.224,2.911.693a8.669,8.669,0,0,1,1.407,3.086c-.6-.951-1.172-1.908-1.829-2.779-.456-.552-.947-1.363-1.712-1.3-.846.217-.723,1.291-.408,1.954.741,1.472,2.031,2.76,2.736,4.189" transform="translate(-26.188 -8.193)" fill="#8c8c8c"/>
      <path id="Caminho_2214" data-name="Caminho 2214" d="M85.357,33.448s6.234-1.187,6.3,1.381-6.587,0-6.587,0" transform="translate(-29.595 -11.541)" fill="#acacac"/>
      <path id="Caminho_2215" data-name="Caminho 2215" d="M85.348,33.3c1.942-.563,4.557-.906,6.138.64a1.264,1.264,0,0,1-.185,1.81,4.2,4.2,0,0,1-2.809.2,13.2,13.2,0,0,1-3.436-1.225c1.109.11,2.376.572,3.529.711.884.108,2.67.56,2.925-.607a1.217,1.217,0,0,0-.83-1.32c-1.693-.546-3.641-.053-5.332-.213" transform="translate(-29.59 -11.421)" fill="#8c8c8c"/>
      <path id="Caminho_2216" data-name="Caminho 2216" d="M81.542,37.783s-.9,7.573-3.21,6.353,1.455-6.353,1.455-6.353" transform="translate(-26.989 -13.144)" fill="#acacac"/>
      <path id="Caminho_2217" data-name="Caminho 2217" d="M81.447,37.779a10.477,10.477,0,0,1-1.4,5.467c-.329.536-.775,1.214-1.513,1.13-1.63-.242-1.44-2.3-.938-3.414a11.158,11.158,0,0,1,2.054-3.2c-.419,1.084-1.2,2.241-1.567,3.388a2.939,2.939,0,0,0-.157,2.493c.686.922,1.565.4,1.983-.474A54.748,54.748,0,0,0,81.4,37.773l.048.006" transform="translate(-26.87 -13.137)" fill="#8c8c8c"/>
      <path id="Caminho_2218" data-name="Caminho 2218" d="M83.495,33.1c-.344,1.5-1.379,2.55-2.312,2.337s-1.411-1.605-1.067-3.109,1.379-2.55,2.312-2.337,1.411,1.6,1.068,3.109" transform="translate(-27.832 -10.426)" fill="#00abc4"/>
      <path id="Caminho_2219" data-name="Caminho 2219" d="M83.481,33.032a3.5,3.5,0,0,1-1.39,2.32,1.282,1.282,0,0,1-1.735-.438c-1-1.613-.276-5.371,2.079-5.158,1.369.406,1.308,2.162,1.046,3.276m-.032-.007c.531-3.382-2.272-4.117-3.277-.749-.824,3.489,2.345,4.063,3.277.749" transform="translate(-27.803 -10.349)" fill="#006a96"/>
      <path id="Caminho_2220" data-name="Caminho 2220" d="M83.462,33.562c-.171.747-.617,1.283-1,1.2s-.548-.763-.378-1.51.617-1.283,1-1.2.548.763.378,1.51" transform="translate(-28.534 -11.147)" fill="#0a2039"/>
      <path id="Caminho_2221" data-name="Caminho 2221" d="M83.449,33.478c-.125.525-.3,1.441-1.042,1.325-.392-.155-.41-.531-.448-.8a3.838,3.838,0,0,1,.014-.865c.3-2,2.136-1.688,1.476.337m-.032-.007c.1-.407-.026-1.187-.4-1.337-.753.037-1.437,2.122-.55,2.4.424-.025.854-.636.95-1.068" transform="translate(-28.506 -11.059)" fill="#0a1928"/>
      <path id="Caminho_2222" data-name="Caminho 2222" d="M42.956,3.1S63.4-2.655,66.99,2.481s-22.132,3.1-24.034.618" transform="translate(-14.944 -0.121)" fill="#acacac"/>
      <path id="Caminho_2223" data-name="Caminho 2223" d="M42.92,3.036C49.081,1.164,55.5-.211,61.962.3a8.514,8.514,0,0,1,4.566,1.491,2.5,2.5,0,0,1,.912,1.386c.127,2.121-4.07,2.372-5.586,2.561A54.446,54.446,0,0,1,49,5.071,25.487,25.487,0,0,1,44.3,3.9a3.208,3.208,0,0,1-1.383-.86m.047.016c1.728,1.191,4.06,1.266,6.086,1.642,5.254.595,10.68,1.121,15.913.161,2.092-.446,3.139-1.566,1.125-3.162C61.455-1.428,48.516,2,42.967,3.051" transform="translate(-14.931 -0.066)" fill="#8c8c8c"/>
      <path id="Caminho_2224" data-name="Caminho 2224" d="M24.283,3.038S3.33-3.406.442,3.038s22.9,1.774,23.842,0" transform="translate(-0.075 -0.061)" fill="#acacac"/>
      <path id="Caminho_2225" data-name="Caminho 2225" d="M24.186,2.987C18.6,1.769,7.187-1.38,2.138,1.277.907,1.92-.5,3.809.817,4.962,4.3,7.2,13.933,5.451,18.1,4.781a41.166,41.166,0,0,0,4.687-1.11,3.757,3.757,0,0,0,1.4-.685m.045-.019c-.7.806-1.957,1.014-2.923,1.377A55.64,55.64,0,0,1,11.8,6.215a39.368,39.368,0,0,1-6.474.263C3.716,6.351,1.937,6.244.607,5.206A1.671,1.671,0,0,1,.033,3.629C.554,1.31,3.087.491,5.155.2,11.625-.564,18.1.98,24.231,2.968" transform="translate(0 0)" fill="#8c8c8c"/>
      <path id="Caminho_2226" data-name="Caminho 2226" d="M37.017,53.392a1.036,1.036,0,0,0-1.381,1.027s1.99.787,3.917,7.038L31.785,64.82s-2.5-1.477-2.89.834,2.5,1.284,2.5,1.284L56.693,55s.642-1.572-.578-1.653a.889.889,0,0,0-1.027,1.075l-5.007,2.568s-.9-5.778-4.238-7.126c0,0-1.926-.385-1.091.963a11.146,11.146,0,0,1,3.98,6.42l-7.7,3.467s-2.191-6.1-4.021-7.319" transform="translate(-10.04 -17.328)" fill="#00abc4"/>
      <path id="Caminho_2227" data-name="Caminho 2227" d="M37.017,53.392a1.036,1.036,0,0,0-1.381,1.027s1.99.787,3.917,7.038L31.785,64.82s-2.5-1.477-2.89.834,2.5,1.284,2.5,1.284L56.693,55s.642-1.572-.578-1.653a.889.889,0,0,0-1.027,1.075l-5.007,2.568s-.9-5.778-4.238-7.126c0,0-1.926-.385-1.091.963a11.146,11.146,0,0,1,3.98,6.42l-7.7,3.467S38.846,54.612,37.017,53.392Z" transform="translate(-10.04 -17.328)" fill="none" stroke="#006a96" stroke-miterlimit="10" stroke-width="0.5"/>
    </g>
  </g>
</svg>
