<svg id="alfabeto_p_e001_fim" xmlns="http://www.w3.org/2000/svg" xmlns:xlink="http://www.w3.org/1999/xlink" width="57.254" height="50" viewBox="0 0 57.254 50">
  <defs>
    <clipPath id="clip-path">
      <rect id="Ret창ngulo_171" data-name="Ret창ngulo 171" width="57.254" height="50" fill="none"/>
    </clipPath>
    <clipPath id="clip-path-3">
      <rect id="Ret창ngulo_169" data-name="Ret창ngulo 169" width="37.882" height="18.312" fill="none"/>
    </clipPath>
  </defs>
  <g id="Grupo_1531" data-name="Grupo 1531" clip-path="url(#clip-path)">
    <g id="Grupo_1530" data-name="Grupo 1530" transform="translate(0 0)">
      <g id="Grupo_1529" data-name="Grupo 1529" clip-path="url(#clip-path)">
        <path id="Caminho_2343" data-name="Caminho 2343" d="M37.119,20.824s-5.364-7.809,3.439-11.359c0,0,3.28-.994,4.48-3.407s2.9-7.383,8.583-5.4A6.643,6.643,0,0,1,58.3,8.046s-.561,4.686-1.555,5.253" transform="translate(-14.774 -0.085)" fill="#004188"/>
        <path id="Caminho_2344" data-name="Caminho 2344" d="M37.038,20.747c-3.09-4.611-2-9.519,3.425-11.451a8.869,8.869,0,0,0,3.452-1.987c1.007-.922,1.358-2.287,2.015-3.466A8,8,0,0,1,48.524.73c3.6-2.113,9.009.642,9.727,4.684a13.638,13.638,0,0,1-.631,6.036,3.5,3.5,0,0,1-.939,1.777,4.051,4.051,0,0,0,.827-1.809c.423-1.935.939-3.979.485-5.948-.74-3.819-5.9-6.481-9.351-4.549-1.743,1.073-2.628,3.017-3.49,4.8a7.878,7.878,0,0,1-4.639,3.746C35.2,11.6,34.346,16.012,37.038,20.747" transform="translate(-14.704 0)" fill="#003058"/>
        <path id="Caminho_2345" data-name="Caminho 2345" d="M20.653,33.074S8.443,39.132,5.177,20.959c0,0-.852-6.673-4.543-9.513,0,0,18.6,3.643,20.019,21.628" transform="translate(-0.264 -4.763)" fill="#004188"/>
        <path id="Caminho_2346" data-name="Caminho 2346" d="M20.4,32.958c-5.937,2.76-11.6-.138-13.86-6.067-1.158-2.627-1.526-5.468-2.125-8.247-.716-2.691-1.874-5.476-4.1-7.25L0,11.149l.387.086c10.608,2.4,19.468,10.426,20.014,21.723m-.025-.015C19.476,21.79,10.824,14,.353,11.411l.072-.159C5.069,15.108,4.43,21.713,6.737,26.807c2.4,5.86,7.6,8.617,13.639,6.136" transform="translate(0 -4.64)" fill="#003058"/>
        <path id="Caminho_2347" data-name="Caminho 2347" d="M1.611,69.248C10.782,68.336,18.7,62.135,21,53.228L19.082,48.46l.08.054A19.127,19.127,0,0,0,11.8,50.2c-4.883,2.164-6.193,8.072-6,12.938a7.967,7.967,0,0,1-4.19,6.106m-.028.008a7.9,7.9,0,0,0,4.01-7.071c-.249-4.681,1.47-10.243,6.089-12.234a18.816,18.816,0,0,1,7.538-1.611l.022.055L21.1,53.189A21.172,21.172,0,0,1,1.583,69.256" transform="translate(-0.659 -20.118)" fill="#003058"/>
        <path id="Caminho_2348" data-name="Caminho 2348" d="M1.607,69.314S16.8,68.746,21.058,53.27l-1.886-4.78S11.049,48.49,8,53.27a15.486,15.486,0,0,0-2.272,9.087,7.675,7.675,0,0,1-4.117,6.957" transform="translate(-0.669 -20.18)" fill="#004188"/>
        <path id="Caminho_2349" data-name="Caminho 2349" d="M24.252,50.175c-3.386,1.169-7.745,2.035-9.373,5.6-.712,1.75-.8,3.707-1.486,5.465a2.966,2.966,0,0,1-.739.9,5.019,5.019,0,0,0,.606-.959c.528-1.812.582-3.751,1.366-5.508,1.461-3.013,6.528-5.12,9.626-5.5" transform="translate(-5.266 -20.881)" fill="#003058"/>
        <path id="Caminho_2350" data-name="Caminho 2350" d="M12.658,66.263a19.911,19.911,0,0,0,4.857-5.283,8.7,8.7,0,0,0,.853-2.241,11.339,11.339,0,0,1,6.117-7.23c.016-.009.03.016.014.026-2.637,1.763-5.062,4.134-5.976,7.244a12.976,12.976,0,0,1-5.865,7.485" transform="translate(-5.268 -21.435)" fill="#003058"/>
        <path id="Caminho_2351" data-name="Caminho 2351" d="M24.879,64.809a12.564,12.564,0,0,0,2.369-3.16c.469-1.081,1.087-2.6,1.613-3.647a.015.015,0,0,1,.028.009,12.589,12.589,0,0,1-2.026,4.569,4.534,4.534,0,0,1-1.984,2.229" transform="translate(-10.354 -24.135)" fill="#003058"/>
        <path id="Caminho_2352" data-name="Caminho 2352" d="M11.578,19.335c3.382.507,5.527,3.6,7.683,5.952a39.565,39.565,0,0,1,5.313,8.339.015.015,0,0,1-.019-.006c-2.826-4.331-5.494-9.481-9.763-12.559a9.674,9.674,0,0,0-3.215-1.726" transform="translate(-4.818 -8.046)" fill="#003058"/>
        <path id="Caminho_2353" data-name="Caminho 2353" d="M12.681,25.893a8.35,8.35,0,0,1,3.406,2.512c.923,1.126,1.232,2.563,2.014,3.733a19.078,19.078,0,0,0,5.7,6.081c.015.008,0,.034-.013.026a13.4,13.4,0,0,1-5.83-6.029A15.011,15.011,0,0,0,15.9,28.559a14,14,0,0,0-3.219-2.666" transform="translate(-5.277 -10.776)" fill="#003058"/>
        <path id="Caminho_2354" data-name="Caminho 2354" d="M12.7,33.209c1.306,5.584,4.81,7.918,10.213,8.9a20.053,20.053,0,0,1,2.069.319A13.339,13.339,0,0,1,17,40.152c-2.193-1.635-4.277-4.164-4.3-6.943" transform="translate(-5.284 -13.82)" fill="#003058"/>
        <path id="Caminho_2355" data-name="Caminho 2355" d="M41.762,23.1a1.224,1.224,0,0,1,.844.724c.423.445.941,1.015.77,1.677-.4-.507-.477-1.116-.842-1.616a2.788,2.788,0,0,1-.786-.76.016.016,0,0,1,.015-.025" transform="translate(-17.372 -9.612)" fill="#003058"/>
        <path id="Caminho_2356" data-name="Caminho 2356" d="M47.453,16.411a2.739,2.739,0,0,1,1.381,1.4,4.106,4.106,0,0,1,.991,3.1,14.358,14.358,0,0,0-1.07-3.049,17.9,17.9,0,0,1-1.3-1.448" transform="translate(-19.748 -6.83)" fill="#003058"/>
        <path id="Caminho_2357" data-name="Caminho 2357" d="M55.083,9.845A5.145,5.145,0,0,1,56.957,12a5.188,5.188,0,0,1,.949,4.571.015.015,0,0,1-.029-.006,7.218,7.218,0,0,0-1.6-5.248L55.065,9.868c-.012-.011,0-.032.018-.023" transform="translate(-22.914 -4.096)" fill="#003058"/>
        <path id="Caminho_2358" data-name="Caminho 2358" d="M62.715,6.566a9.937,9.937,0,0,1,2.413,4.872A7.144,7.144,0,0,1,64.5,16.8a.015.015,0,0,1-.027-.012,11.4,11.4,0,0,0,.5-5.322c-.232-1.808-1.449-3.4-2.257-4.9" transform="translate(-26.1 -2.732)" fill="#003058"/>
        <path id="Caminho_2359" data-name="Caminho 2359" d="M31.886,36.938a2.637,2.637,0,0,1-.18-1.347c.2-1.446,1.258-4.8,6.27-10.622C45,16.8,54.019,19.786,57.427,21.632s12.778,9.3,12.707,13.985-.852,8.519-11.5,15.9S36.251,47.239,34.426,43c-1.334-3.1-2.181-5.172-2.54-6.061" transform="translate(-13.185 -8.134)" fill="#00abc4"/>
        <path id="Caminho_2360" data-name="Caminho 2360" d="M31.882,36.83c-1.122-3.26,3.968-9.558,6-12.06,4.765-5.869,12.352-6.956,18.988-3.687A40.423,40.423,0,0,1,67.5,29.888c1.432,1.755,2.961,3.846,2.755,6.231.152,4.853-3.028,8.817-6.594,11.742A58.658,58.658,0,0,1,58.1,52.022c-3.982,2.616-9.249,2.5-13.433.433A23.313,23.313,0,0,1,34.536,43.22L31.882,36.83m.04-.016c.91,2.116,1.782,4.256,2.722,6.353a23.233,23.233,0,0,0,10.193,8.916c7.837,3.467,12.544.486,18.555-4.536,2.583-2.2,5.151-4.724,6.13-8.055.531-2.156.915-4.623-.235-6.652a27.461,27.461,0,0,0-6.843-7.666c-7.3-6.545-17.389-8.146-24.355-.224-2.13,2.5-7.227,8.493-6.167,11.864" transform="translate(-13.202 -8.017)" fill="#0079ad"/>
        <path id="Caminho_2361" data-name="Caminho 2361" d="M73.07,23.119s-8.852,12.45.472,30.361c0,0,13.442-7.5,12.235-16.377,0,0-.135-3.317-3.764-6.744a104.053,104.053,0,0,0-8.943-7.241" transform="translate(-28.829 -9.621)" fill="#87d0da"/>
        <path id="Caminho_2362" data-name="Caminho 2362" d="M72.953,23.125c-3.993,6.852-4.453,15.4-2.372,22.951a38.6,38.6,0,0,0,1.251,3.755c.494,1.224,1.106,2.4,1.658,3.6l-.106-.032c6.658-4.026,16.1-12.369,10.3-20.637a18.736,18.736,0,0,0-3.247-3.515c-2.39-2.143-4.957-4.16-7.486-6.12m-.007-.043A91.38,91.38,0,0,1,80.657,29a19.08,19.08,0,0,1,3.39,3.515C90.107,41,80.469,49.531,73.46,53.532l-.072.042-.033-.074A55.5,55.5,0,0,1,71,48.022l-.35-.932-.276-.956c-2.367-7.558-1.854-16.328,2.569-23.052" transform="translate(-28.708 -9.606)" fill="#0079ad"/>
        <g id="Grupo_1528" data-name="Grupo 1528" transform="translate(18.521 27.457)" opacity="0.5">
          <g id="Grupo_1527" data-name="Grupo 1527">
            <g id="Grupo_1526" data-name="Grupo 1526" clip-path="url(#clip-path-3)">
              <path id="Caminho_2363" data-name="Caminho 2363" d="M31.723,47.028S46.245,76.858,69.6,51.3c0,0-5.035,12.364-18.679,14.039,0,0-15.2-.343-19.2-18.312" transform="translate(-31.723 -47.028)" fill="#0083ad"/>
            </g>
          </g>
        </g>
        <path id="Caminho_2364" data-name="Caminho 2364" d="M57.851,30.835c-2.445.886-3.177,2.532-1.249,4.5a.2.2,0,0,1-.022.284c-.846.312-2.031.73-2.195,1.735-.058,1,.913,1.753,1.638,2.316a.072.072,0,0,1-.029.127c-.872.2-2.2.6-2.3,1.618.064.991,1.087,1.672,1.824,2.245a.206.206,0,0,1,.046.287c-2.188,1.381-1.635,2.78.257,4.023a.211.211,0,0,1-.013.348c-1.685,1.076-2.012,2.366-.022,3.342l.629.292a.022.022,0,0,1,.013.028c-2.626-.643-3.185-2.394-.841-4.019l0,.356C53.393,47,52.843,45.057,55.3,43.647L55.275,44c-.814-.666-1.862-1.406-1.86-2.595.207-1.209,1.562-1.505,2.555-1.741l-.029.127c-.783-.643-1.771-1.314-1.8-2.448.113-1.157,1.3-1.727,2.266-2.055l-.089.319c-.716-.8-1.463-1.875-1.056-3a3.283,3.283,0,0,1,2.586-1.767" transform="translate(-22.229 -12.832)" fill="#004188"/>
        <path id="Caminho_2365" data-name="Caminho 2365" d="M46.932,35.041c-2.252.89-2.335,2.07-.521,3.568a.187.187,0,0,1,.01.264,6.165,6.165,0,0,0-1.18.956c-1.328,1.419-.452,2.748,1.012,3.54a.138.138,0,0,1,.022.214c-1.126,1.084-2.176,2.791-.187,3.6l.636.236a.229.229,0,0,1,.147.3c-1.076,1.385-1.681,3.023.074,4.138a2.2,2.2,0,0,1-1.116-3.248,5.061,5.061,0,0,1,.657-1.115l.111.363c-1.817-.488-2.743-1.733-1.512-3.421a5.423,5.423,0,0,1,1.008-1.054l.016.22c-1.474-.976-2.292-2.356-1.062-3.932a4.8,4.8,0,0,1,1.144-1.08l-.02.3c-.689-.579-1.494-1.322-1.367-2.326.232-.98,1.253-1.378,2.116-1.566.026-.006.035.035.011.043" transform="translate(-18.498 -14.565)" fill="#004188"/>
        <path id="Caminho_2366" data-name="Caminho 2366" d="M39.636,36.865c-1.8.608-1.659,1.625-.816,3a.134.134,0,0,1-.072.191c-2.2.833-2.088,2.407-.31,3.683a.226.226,0,0,1-.043.374c-.946.51-1.9,1.409-.953,2.432a7.814,7.814,0,0,0,.87.762c.022.013,0,.05-.022.039-.736-.342-1.571-.8-1.646-1.73,0-.939.816-1.53,1.563-1.9l-.042.374-.5-.46c-1.511-1.481-.654-2.977.977-3.831l-.06.213a2.413,2.413,0,0,1-.7-2.039,1.812,1.812,0,0,1,1.752-1.154.022.022,0,0,1,.006.043" transform="translate(-15.25 -15.324)" fill="#004188"/>
        <path id="Caminho_2367" data-name="Caminho 2367" d="M84.542,40.568a2.414,2.414,0,1,1-2.414-2.414,2.414,2.414,0,0,1,2.414,2.414" transform="translate(-33.175 -15.878)" fill="#fff"/>
        <path id="Caminho_2368" data-name="Caminho 2368" d="M84.52,40.532a2.437,2.437,0,1,1-4.874,0,2.437,2.437,0,1,1,4.874,0m-.015,0a2.391,2.391,0,0,0-4.78,0c.029,3.14,4.684,3.078,4.78,0" transform="translate(-33.146 -15.843)" fill="#003058"/>
        <path id="Caminho_2369" data-name="Caminho 2369" d="M84.3,41.174a1.562,1.562,0,1,1-1.562-1.562A1.562,1.562,0,0,1,84.3,41.174" transform="translate(-33.781 -16.485)" fill="#1a1818"/>
        <path id="Caminho_2370" data-name="Caminho 2370" d="M40.155,77.706s9.751,6.225,16.41-5.984c0,0-4.866-2.414-8.546,0s-5.378,6.148-7.865,5.984" transform="translate(-16.711 -29.401)" fill="#004188"/>
        <path id="Caminho_2371" data-name="Caminho 2371" d="M40.159,77.6a11.031,11.031,0,0,0,13.5-2,17.99,17.99,0,0,0,2.826-4.027l.037.117a11.729,11.729,0,0,0-4.552-1c-3.3-.155-5.7,2.363-7.851,4.536-1.081,1.043-2.313,2.5-3.955,2.379m-.027-.009c1.671-.034,2.756-1.423,3.833-2.515,3.81-4.343,7.006-6.027,12.629-3.542l.082.037-.044.08a19.8,19.8,0,0,1-2.906,4.012,10.391,10.391,0,0,1-13.593,1.927" transform="translate(-16.702 -29.288)" fill="#003058"/>
        <path id="Caminho_2372" data-name="Caminho 2372" d="M92.468,53.355c-1.7.493-4.848,1.52-6.191-.035,1.96.724,4.288.285,6.191.035" transform="translate(-35.906 -22.19)" fill="#0079ad"/>
        <path id="Caminho_2373" data-name="Caminho 2373" d="M64.613,2.753S69.32,4.244,69.32,7.332a16.317,16.317,0,0,1-.532,4.685,8.51,8.51,0,0,0-4.176-9.264" transform="translate(-26.89 -1.146)" fill="#6cb5e5"/>
      </g>
    </g>
  </g>
</svg>
