<svg id="alfabeto_g_fim" xmlns="http://www.w3.org/2000/svg" xmlns:xlink="http://www.w3.org/1999/xlink" width="68.68" height="50" viewBox="0 0 68.68 50">
  <defs>
    <clipPath id="clip-path">
      <rect id="Ret창ngulo_161" data-name="Ret창ngulo 161" width="68.68" height="50" fill="none"/>
    </clipPath>
    <clipPath id="clip-path-3">
      <rect id="Ret창ngulo_159" data-name="Ret창ngulo 159" width="48.475" height="34.055" fill="none"/>
    </clipPath>
  </defs>
  <g id="Grupo_1510" data-name="Grupo 1510" clip-path="url(#clip-path)">
    <g id="Grupo_1509" data-name="Grupo 1509" transform="translate(0 0)">
      <g id="Grupo_1508" data-name="Grupo 1508" clip-path="url(#clip-path)">
        <path id="Caminho_2164" data-name="Caminho 2164" d="M33.762,18.8S16.726,21.088,12.954,41.882A7.328,7.328,0,0,0,14.8,48.189c3.134,3.379,10.033,8.024,23.852,6.952,0,0,17.235-1.475,23.094-13.225a7.008,7.008,0,0,0,.24-5.59c-2.29-6.083-9.611-19.943-28.22-17.531" transform="translate(-3.759 -5.423)" fill="#2e2e2e"/>
        <path id="Caminho_2165" data-name="Caminho 2165" d="M33.678,18.8c-10,1.928-17.2,10.127-19.792,19.689-.209,1.188-.787,2.906-.89,4.084-.332,2.854,1.322,5.376,3.517,7.075,4.337,3.624,10.045,5.181,15.613,5.442A36.383,36.383,0,0,0,55.9,48.354c3.49-2.848,7.657-7.389,5.639-12.19-.2-.489-.584-1.457-.816-1.93C55.526,23,46.078,17.271,33.678,18.8m-.007-.052C46.915,16.917,57.3,23.611,62.055,35.965c2.162,5.027-2.162,9.844-5.849,12.783-9.157,6.694-21.64,8.246-32.414,5.072-4.906-1.65-11.7-5.253-11.234-11.281.1-1.249.655-2.934.882-4.172.323-1.16.8-2.382,1.179-3.529A33.444,33.444,0,0,1,16.8,30.582,25.652,25.652,0,0,1,33.671,18.75" transform="translate(-3.671 -5.404)" fill="#1a1818"/>
        <g id="Grupo_1507" data-name="Grupo 1507" transform="translate(8.744 13.123)" opacity="0.78">
          <g id="Grupo_1506" data-name="Grupo 1506">
            <g id="Grupo_1505" data-name="Grupo 1505" clip-path="url(#clip-path-3)">
              <path id="Caminho_2166" data-name="Caminho 2166" d="M60.841,33.961s-19.31-15.8-34.464-4.22-5.534,22.872-5.534,22.872-8.239-3.95-8.466-8.61c-.33-6.74,6.637-16.589,13.232-22.085,3.466-2.888,24.011-9.809,35.232,12.042" transform="translate(-12.366 -18.559)" fill="#1a1818"/>
            </g>
          </g>
        </g>
        <path id="Caminho_2167" data-name="Caminho 2167" d="M28.113,21.555s3.073.949,3.073,3a13.752,13.752,0,0,0,.416,4.1c.317,1.168-2.133,3.448-3.489,2.7s-4.54-1.245-4.76.146a2.873,2.873,0,0,1-2.525,2.416c-1.281.219-2.233,3.162-3.4,6.047s-3.761.593-3.761.593a28.481,28.481,0,0,1,14.45-19.008" transform="translate(-4.002 -6.313)" fill="#894619"/>
        <path id="Caminho_2168" data-name="Caminho 2168" d="M28.01,21.517c4.5,1.417,2.68,3.58,3.679,7,.307,1.45-1.52,3.013-2.867,3.191a1.855,1.855,0,0,1-1.146-.277c-1.2-.472-2.768-.972-3.983-.365-.276.167-.3.479-.408.864a2.9,2.9,0,0,1-1.4,1.684c-.612.383-1.434.257-1.906.868a7.544,7.544,0,0,0-1.073,1.833c-1.308,2.629-1.593,7.353-5.59,4.328A27.6,27.6,0,0,1,28.01,21.517m.006.053a30.943,30.943,0,0,0-12.24,13.282,25.036,25.036,0,0,0-1.992,5.734l-.073-.2a3.206,3.206,0,0,0,1.8.834,1.634,1.634,0,0,0,1.529-1.027c.943-1.9,1.474-4.119,2.827-5.815.456-.627,1.318-.552,1.931-.93a2.54,2.54,0,0,0,1.242-1.587c.078-.342.127-.814.474-1.033,1.434-.831,3.4-.227,4.81.4,1.165.243,3.166-1.369,2.954-2.6-.994-3.425,1.051-5.351-3.261-7.059" transform="translate(-3.901 -6.302)" fill="#6b3014"/>
        <path id="Caminho_2169" data-name="Caminho 2169" d="M74.864,49.141a9.8,9.8,0,0,1,4.412-2.174c2.541-.955,5.757-1.546,7.917.528a.027.027,0,0,1-.031.042,10.967,10.967,0,0,0-7.831-.407,46.39,46.39,0,0,1-4.466,2.01" transform="translate(-21.926 -13.501)" fill="#1a1818"/>
        <path id="Caminho_2170" data-name="Caminho 2170" d="M74.878,52.636a15.589,15.589,0,0,1,6.169-.5c3.38.037,7.331.341,9.557,3.253.019.023-.016.057-.039.036a17.215,17.215,0,0,0-9.523-3.117c-2.015.071-4.264.443-6.165.327" transform="translate(-21.93 -15.242)" fill="#1a1818"/>
        <path id="Caminho_2171" data-name="Caminho 2171" d="M74.9,54.507c1.855.1,3.3,1.264,4.992,1.854,1.58.635,3.64,1.594,4.009,3.414a7.183,7.183,0,0,0-1.938-1.725,23.65,23.65,0,0,0-3.377-2.035A12.785,12.785,0,0,1,74.9,54.507" transform="translate(-21.936 -15.964)" fill="#1a1818"/>
        <path id="Caminho_2172" data-name="Caminho 2172" d="M16.258,56.49a45.671,45.671,0,0,1-5.067-.578,19.98,19.98,0,0,0-8.2,1.587c-.025.016-.054-.023-.03-.043C5.189,55.42,8.4,55.572,11.2,55.741a10.916,10.916,0,0,1,5.059.75" transform="translate(-0.865 -16.299)" fill="#1a1818"/>
        <path id="Caminho_2173" data-name="Caminho 2173" d="M16.83,59.161c-2.232.617-4.488.974-6.757,1.369a38.255,38.255,0,0,0-6.431,2.365A8.3,8.3,0,0,0,.05,65.514c-.013.027-.059.008-.048-.022.557-1.494,2.046-2.4,3.4-3.109a33,33,0,0,1,6.634-2.02,20.747,20.747,0,0,1,6.8-1.2" transform="translate(0 -17.322)" fill="#1a1818"/>
        <path id="Caminho_2174" data-name="Caminho 2174" d="M20.447,61.946c-1.215.546-2.446.877-3.676,1.323A11.6,11.6,0,0,0,12.4,67.857a.027.027,0,0,1-.051-.016c.259-2.363,2.336-3.838,4.347-4.726a5.9,5.9,0,0,1,3.754-1.17" transform="translate(-3.616 -18.131)" fill="#1a1818"/>
        <path id="Caminho_2175" data-name="Caminho 2175" d="M42.444,58.345a4.857,4.857,0,0,0,1.31.715c1.459.375,2.781-1.076,3.1-2.406a.174.174,0,0,1,.214-.122.243.243,0,0,1,.112.083c.965.979,2.4,2.1,3.771,1.242.479-.2,1.037-.934,1.262-.981-1.047,2.959-4.016,2.391-5.338-.049l.326-.039c-.267.482-.547.924-.828,1.381-.494.994-1.625,2.034-2.817,1.4a2.686,2.686,0,0,1-1.167-1.177.036.036,0,0,1,.054-.046" transform="translate(-12.414 -16.556)" fill="#1a1818"/>
        <path id="Caminho_2176" data-name="Caminho 2176" d="M46.26,55.247s-.567-.513,0-.769,3.221-.933,3.441-.256-1.043,1.72-1.611,1.738a5.58,5.58,0,0,1-1.83-.713" transform="translate(-13.475 -15.795)" fill="#1a1818"/>
        <path id="Caminho_2177" data-name="Caminho 2177" d="M67.956,44.285A6.06,6.06,0,1,1,61.9,38.224a6.061,6.061,0,0,1,6.061,6.061" transform="translate(-16.353 -11.195)" fill="#be8c22"/>
        <path id="Caminho_2178" data-name="Caminho 2178" d="M67.927,44.17a6.039,6.039,0,0,1-10.438,4.35,6.329,6.329,0,0,1-.111-8.812A6.15,6.15,0,0,1,67.927,44.17m-.053,0c0-5.095-6.592-7.691-10.143-4.109a5.759,5.759,0,0,0,4.109,9.95,6.065,6.065,0,0,0,6.034-5.841" transform="translate(-16.298 -11.081)" fill="#1a1818"/>
        <path id="Caminho_2179" data-name="Caminho 2179" d="M35.247,47.924a6.06,6.06,0,1,1-6.061-6.061,6.061,6.061,0,0,1,6.061,6.061" transform="translate(-6.773 -12.261)" fill="#be8c22"/>
        <path id="Caminho_2180" data-name="Caminho 2180" d="M35.218,47.809a6.039,6.039,0,0,1-10.438,4.35,6.329,6.329,0,0,1-.111-8.812,6.15,6.15,0,0,1,10.549,4.462m-.053,0c0-5.095-6.592-7.691-10.143-4.109a5.759,5.759,0,0,0,4.109,9.95,6.065,6.065,0,0,0,6.034-5.841" transform="translate(-6.718 -12.146)" fill="#1a1818"/>
        <path id="Caminho_2181" data-name="Caminho 2181" d="M66.036,45.744a4.477,4.477,0,1,1-4.477-4.477,4.477,4.477,0,0,1,4.477,4.477" transform="translate(-16.718 -12.087)" fill="#1a1818"/>
        <path id="Caminho_2182" data-name="Caminho 2182" d="M35.323,49.489a4.477,4.477,0,1,1-4.477-4.477,4.477,4.477,0,0,1,4.477,4.477" transform="translate(-7.723 -13.183)" fill="#1a1818"/>
        <path id="Caminho_2183" data-name="Caminho 2183" d="M66.968,43.445c.476.614.577,1.332.226,1.6s-1.021,0-1.5-.619-.577-1.332-.226-1.6,1.021,0,1.5.619" transform="translate(-19.114 -12.513)" fill="#fff"/>
        <path id="Caminho_2184" data-name="Caminho 2184" d="M36.353,47.192c.476.614.577,1.332.226,1.6s-1.021,0-1.5-.619-.577-1.332-.226-1.6,1.021,0,1.5.619" transform="translate(-10.148 -13.61)" fill="#fff"/>
        <path id="Caminho_2185" data-name="Caminho 2185" d="M14.17,33.527s-6.445-6.364-3.7-17.894c0,0,.055-1.317,1.51-.549s6.286,2.965,6.286,2.965,5.191,2.766,5.066,3.8c0,0-2.54,5.205-5.066,7.4a31.571,31.571,0,0,0-4.1,4.278" transform="translate(-2.867 -4.348)" fill="#1a1818"/>
        <path id="Caminho_2186" data-name="Caminho 2186" d="M14.091,33.524A16.858,16.858,0,0,1,9.553,22.687,25.149,25.149,0,0,1,10.3,15.6c.052-.878.879-1.053,1.551-.664l1.754.8,3.519,1.576a26.941,26.941,0,0,1,5.057,2.872c.54.474,1.287.833,1.346,1.663a29.625,29.625,0,0,1-4.1,6.412c-1.773,1.834-3.717,3.267-5.341,5.26m0-.053c1.366-2.053,3.342-3.69,5-5.5a38.755,38.755,0,0,0,3.886-6.182c-.156-.472-.717-.849-1.107-1.175a31,31,0,0,0-4.9-2.964l-3.454-1.713-1.732-.839c-.573-.33-1.265-.267-1.3.513-1.333,6.075-.349,12.933,3.611,17.864" transform="translate(-2.787 -4.317)" fill="#1a1818"/>
        <path id="Caminho_2187" data-name="Caminho 2187" d="M10.881,15.65s5.271,5.49,5.929,6.808,3.954,5.71.549,8.455l-3.075,2.2s-5.38-4.5-3.4-17.459" transform="translate(-3.059 -4.584)" fill="#896a65"/>
        <path id="Caminho_2188" data-name="Caminho 2188" d="M11.062,15.65s12.115,10.724,6.479,15.263c0,0,.33-4.5-6.479-15.263" transform="translate(-3.24 -4.584)" fill="#644f4c"/>
        <path id="Caminho_2189" data-name="Caminho 2189" d="M72.944,26.57s4.545-7.836-1.136-18.237c0,0-.4-1.257-1.6-.133s-5.285,4.514-5.285,4.514-4.28,4.033-3.888,5c0,0,3.82,4.354,6.834,5.808a31.523,31.523,0,0,1,5.077,3.051" transform="translate(-17.868 -2.265)" fill="#1a1818"/>
        <path id="Caminho_2190" data-name="Caminho 2190" d="M72.831,26.516c2.524-5.8,1.669-12.674-1.214-18.184-.24-.735-.919-.63-1.39-.153L68.776,9.444,65.895,12a31,31,0,0,0-3.951,4.149,3.243,3.243,0,0,0-.759,1.426,39.02,39.02,0,0,0,5.376,4.943c2.075,1.314,4.412,2.374,6.271,4m.01.052C70.75,25.072,68.5,24.2,66.3,22.9a29.587,29.587,0,0,1-5.64-5.108c-.164-.815.467-1.36.861-1.959a26.888,26.888,0,0,1,4.124-4.1l2.98-2.446,1.481-1.238c.554-.543,1.376-.617,1.672.233a25.171,25.171,0,0,1,2.587,6.641,16.854,16.854,0,0,1-1.529,11.649" transform="translate(-17.76 -2.238)" fill="#1a1818"/>
        <path id="Caminho_2191" data-name="Caminho 2191" d="M73.955,8.363s-3.641,6.683-3.93,8.128-2.312,6.549,1.694,8.3l3.543,1.31s4.007-5.759-1.307-17.74" transform="translate(-20.285 -2.45)" fill="#896a65"/>
        <path id="Caminho_2192" data-name="Caminho 2192" d="M73.954,8.363S65.086,21.9,71.718,24.793c0,0-1.5-4.257,2.236-16.43" transform="translate(-20.284 -2.45)" fill="#644f4c"/>
        <path id="Caminho_2193" data-name="Caminho 2193" d="M40.855,17.464c-.653-1.592-.417-3.332-1.1-4.889-.725-1.457-1.2-3.108-2.6-4.061a.027.027,0,0,1,.017-.05c2.311.55,2.669,3.323,3.138,5.26a6.85,6.85,0,0,1,.546,3.74" transform="translate(-10.878 -2.479)" fill="#1a1818"/>
        <path id="Caminho_2194" data-name="Caminho 2194" d="M51.7.038c-.921,2.449-2.609,4.484-3.437,6.957-.692,2.419-1.879,4.888-1.4,7.436.011.028-.033.049-.048.022-1.406-3.152.759-6.5,2.029-9.326A17.913,17.913,0,0,1,51.658.01.027.027,0,0,1,51.7.038" transform="translate(-13.578 0)" fill="#1a1818"/>
        <path id="Caminho_2195" data-name="Caminho 2195" d="M53.739,67.046s-.514-3.331,1.464-3.111,1.319-1.976,3.076-2.2,2.881-2.147,4.661-1.183a6.287,6.287,0,0,1,2.423,2.1,55.429,55.429,0,0,1-11.624,4.392" transform="translate(-15.722 -17.657)" fill="#ec8e0e"/>
        <path id="Caminho_2196" data-name="Caminho 2196" d="M53.68,67.036a3.285,3.285,0,0,1,.476-3.058c.556-.536,1.38-.053,1.925-.47.5-.4.634-1.167,1.18-1.614a1.763,1.763,0,0,1,1.047-.392c1.336-.124,2.383-1.424,3.8-1.319A5.981,5.981,0,0,1,65.5,62.517l.117.175-.2.115A40.747,40.747,0,0,1,53.68,67.036m.029-.045a114.908,114.908,0,0,0,11.506-4.555l-.08.29a5.458,5.458,0,0,0-3.043-2.367c-1.416-.129-2.346,1.276-3.724,1.513-1.2.1-1.182,1.379-2.025,2.005a1.652,1.652,0,0,1-1.121.24c-1.546-.233-1.51,1.821-1.513,2.874" transform="translate(-15.677 -17.625)" fill="#b66d1b"/>
        <path id="Caminho_2197" data-name="Caminho 2197" d="M67.442,11.708a3.7,3.7,0,0,1-.668,3.374c-1.292,1.391-3.049.16-2.829,1.471s-3.157,2.324-3.157,2.324-.182-.213.812-1.745c1.192-1.839,5.842-5.423,5.842-5.423" transform="translate(-17.8 -3.429)" fill="#ec8e0e"/>
        <path id="Caminho_2198" data-name="Caminho 2198" d="M67.442,11.708a3.7,3.7,0,0,1-.668,3.374c-1.292,1.391-3.049.16-2.829,1.471s-3.157,2.324-3.157,2.324-.182-.213.812-1.745C62.792,15.292,67.442,11.708,67.442,11.708Z" transform="translate(-17.8 -3.429)" fill="none" stroke="#b66d1b" stroke-miterlimit="10" stroke-width="0.5"/>
      </g>
    </g>
  </g>
</svg>
