<svg xmlns="http://www.w3.org/2000/svg" xmlns:xlink="http://www.w3.org/1999/xlink" width="52.57" height="50" viewBox="0 0 52.57 50">
  <defs>
    <clipPath id="clip-path">
      <rect id="Retângulo_158" data-name="Retângulo 158" width="52.57" height="50" transform="translate(0 0)" fill="none"/>
    </clipPath>
  </defs>
  <g id="alfabeto_f_e001_fim" transform="translate(0 0)">
    <g id="Grupo_1503" data-name="Grupo 1503" transform="translate(0 0)" clip-path="url(#clip-path)">
      <path id="Caminho_2146" data-name="Caminho 2146" d="M19.136,19.651S.547,11.221,9.085,4.953s18.481-5.08,18.481.541a60.99,60.99,0,0,1-1.3,11.456S29.835,5.925,33.294,3.008,39.13-.774,41.94,1.819s5.944,9.727,5.944,9.727,1.405,3.134-2.378,4.647-14.482,4.756-14.482,4.756,9.727-3.026,14.806-3.134,7.349,3.134,6.593,6.592-2.594,9.51-2.594,9.51-1.513,2.27-5.62,1.08-13.942-9.185-13.942-9.185,12.212,9.834,12.1,13.726,0,4.322-3.134,6.052-16.968,8-17.616,1.081S23.675,27,23.675,27s-3.458,14.591-6.268,17.509-6.917,0-6.917,0-6.377-4.54-6.809-7.242S2.167,32.08,5.842,30.351s13.834-5.288,13.834-5.288S8.328,29.055,6.167,29.055-.1,28.081.222,24.191-.828,13.4,4.005,13.707c5.106.324,15.13,5.944,15.13,5.944" transform="translate(-0.071 -0.096)" fill="#ec4115"/>
      <path id="Caminho_2147" data-name="Caminho 2147" d="M19.086,19.567c-4.32-1.976-16.678-8.558-10.9-14.181A20.426,20.426,0,0,1,20.874.5c2.273.044,4.894.629,6.186,2.7a5.731,5.731,0,0,1,.582,3.425c-.03,1.151-.115,2.3-.225,3.444a65,65,0,0,1-1.035,6.823l-.367-.1c.766-2.311,1.627-4.581,2.6-6.81,1.273-2.707,2.523-5.716,4.948-7.639C36.1.2,39.13-1.221,41.9,1.484c2.623,2.592,4.193,6.007,5.792,9.268a3.758,3.758,0,0,1,.145,3.634,5.138,5.138,0,0,1-3,2.115c-4.57,1.655-9.21,3.057-13.848,4.477l-.077-.251c2.878-.863,5.78-1.635,8.719-2.253,2.927-.531,6-1.311,8.946-.5a5.371,5.371,0,0,1,3.652,7.2c-.7,2.919-1.533,5.8-2.386,8.679a3.947,3.947,0,0,1-2.513,1.413c-2.948.46-5.6-1.231-7.985-2.718a113.105,113.105,0,0,1-9.232-6.726l.163-.2c2.133,1.741,4.2,3.554,6.183,5.465a31.809,31.809,0,0,1,5.352,6.3,4.462,4.462,0,0,1,.66,2.021c-.087,1.395.117,2.831-.537,4.139A4.37,4.37,0,0,1,40.387,45a41.163,41.163,0,0,1-7.509,3.474c-3.171,1.032-9.93,3.339-11.4-1.076-.618-4.144.02-8.289.509-12.4q.57-4.09,1.394-8.138l.448.1q-.874,3.61-1.93,7.166c-1.16,3.524-2.044,7.254-4.269,10.311-3.015,3.36-7.445.458-10.029-1.94C6,41.039,4.156,39.561,3.422,37.447c-.247-1.564-.79-3.039-.4-4.7a4.457,4.457,0,0,1,2.648-2.7c2.267-1.029,4.583-1.883,6.9-2.754s4.643-1.694,6.976-2.51l.131.372q-3.063,1.06-6.149,2.044c-2.589.707-5.175,1.857-7.895,1.907A7.035,7.035,0,0,1,1.1,27.329C-.623,25.657.238,23.152.07,21.036c.046-2.133-.165-4.482,1.061-6.364,1.45-1.97,4.2-.984,6.15-.466a64.578,64.578,0,0,1,11.8,5.361m-.044-.022c-3.1-1.492-15.439-8.39-17.726-4.738C.153,16.613.365,18.96.331,21.034c.189,2.026-.668,4.5.976,6.088,3.5,3.214,8.213.847,12.1-.27q3.077-1,6.129-2.072l.13.372q-3.487,1.24-6.954,2.542c-2.3.88-4.621,1.75-6.848,2.775a4,4,0,0,0-2.378,2.406c-.358,1.387.175,3.009.4,4.448.717,1.993,2.492,3.407,4.02,4.805,2.4,2.222,6.553,5.091,9.363,1.992,2.136-2.949,3.046-6.69,4.178-10.131q1.055-3.543,1.928-7.139l.449.1c-.55,2.682-1.013,5.391-1.393,8.105a73.416,73.416,0,0,0-.744,8.178c.089,1.9-.425,4.314,1.272,5.578,3.509,2.06,10.089-.811,13.587-2.257,1.741-.89,3.9-1.578,5.065-3.2a4.487,4.487,0,0,0,.435-1.913c.07-1.345.26-2.7-.533-3.9a31.584,31.584,0,0,0-5.263-6.248c-1.965-1.912-4.021-3.737-6.139-5.476l.163-.2a112.774,112.774,0,0,0,9.186,6.742c2.344,1.469,4.949,3.156,7.835,2.716A3.963,3.963,0,0,0,49.672,33.8c.862-2.87,1.7-5.75,2.414-8.661a5.206,5.206,0,0,0-3.56-6.99c-2.9-.78-5.96.009-8.847.546-2.927.63-5.824,1.414-8.687,2.286l-.077-.251c4.626-1.439,9.267-2.864,13.809-4.529,2.484-.72,4.068-2.787,2.645-5.3C45.667,7.629,42.684.483,38.523.386c-2.326.139-4.4,1.9-5.966,3.52-2.928,3.8-4.573,8.516-6.179,13.006l-.367-.1A61.093,61.093,0,0,0,27.3,6.617a4.505,4.505,0,0,0-3.112-5.242C18.721-.369,12.644,2.13,8.35,5.563c-5.6,5.494,6.614,11.886,10.692,13.982" transform="translate(0 0)" fill="#691611"/>
      <path id="Caminho_2148" data-name="Caminho 2148" d="M30.365,23.522s3.33-7.295,5.758-7.133,2.428,2.122,1.132,3.33-6.019,5.5-6.019,5.5,7.478-7.322,9.829-6.944-1.891,5.445-6.62,7.492l.432,1.155s8.781-2.051,9.024.609-9.24,1.931-9.24,1.931,9.835.81,9.376,3.647-9.592-2.459-9.592-2.459l-.3,1.413s5.268,5.288,3.269,7.4-5.89-6.3-5.89-6.3,3.323,8.349.919,9.484-3.783-8.642-3.783-8.642l-1.837.32s-1.405,7.484-6.079,6.377,4.134-8.052,4.134-8.052-9.106,7.646-8.916,4.782S23.449,30.6,23.449,30.6l-1.054-1.162s-9.484,1.651-9.592-.93,10.268-.974,10.268-.974-9.646-1.366-9.105-3.527S24.356,25.9,24.356,25.9l.794-1.134s-4.4-6.052-3.2-7.782,4.476,4.08,5.109,7.782c0,0-3.1-8.7-1.231-9.43s3.5,3.162,3.21,7.863" transform="translate(-4.465 -5.318)" fill="#d73319"/>
      <path id="Caminho_2149" data-name="Caminho 2149" d="M27.97,19.065a14.816,14.816,0,0,1,1.379,2.985c.848,1.61,1.716,3.212,2.617,4.791A9.293,9.293,0,0,1,29.691,23.1c-.491-1.363-1.521-2.62-1.721-4.037" transform="translate(-9.755 -6.649)" fill="#691711"/>
      <path id="Caminho_2150" data-name="Caminho 2150" d="M34.1,17.909c.516,1.243.378,2.579.649,3.867a8.574,8.574,0,0,1,.075,3.916c-.1-1.155-.234-2.751-.251-3.9,0-1.3-.625-2.623-.473-3.887" transform="translate(-11.885 -6.246)" fill="#691711"/>
      <path id="Caminho_2151" data-name="Caminho 2151" d="M42.69,26.394a4.043,4.043,0,0,1,1.168-2.7,12.318,12.318,0,0,1,3.183-3.768c-.916,1.386-2.136,2.49-3.1,3.827a23.729,23.729,0,0,0-1.256,2.646" transform="translate(-14.887 -6.948)" fill="#691711"/>
      <path id="Caminho_2152" data-name="Caminho 2152" d="M51.286,21.42a27.161,27.161,0,0,1-3.019,2.014,22.708,22.708,0,0,0-4.245,4.234c.662-2,2.568-3.154,4.183-4.319a9.85,9.85,0,0,1,3.081-1.929" transform="translate(-15.354 -7.471)" fill="#691711"/>
      <path id="Caminho_2153" data-name="Caminho 2153" d="M54.475,34.1a16.876,16.876,0,0,1-2.991.035,16.637,16.637,0,0,0-4.8,1.1c1.253-1.245,3.164-1.131,4.794-1.209a6.97,6.97,0,0,1,3,.071" transform="translate(-16.282 -11.823)" fill="#691711"/>
      <path id="Caminho_2154" data-name="Caminho 2154" d="M54.248,40.422a12.875,12.875,0,0,1-3.093-1.06,24.962,24.962,0,0,1-5.11-1.889,29.518,29.518,0,0,1,5.146,1.79,10.6,10.6,0,0,1,3.057,1.159" transform="translate(-16.06 -13.07)" fill="#691711"/>
      <path id="Caminho_2155" data-name="Caminho 2155" d="M47.2,47.744c-.986-.939-1.452-2.221-2.3-3.255a14.105,14.105,0,0,1-2.156-3.356,24.752,24.752,0,0,1,2.833,4.1,8.881,8.881,0,0,1,1.625,2.51" transform="translate(-14.906 -14.346)" fill="#691711"/>
      <path id="Caminho_2156" data-name="Caminho 2156" d="M41.248,50.629c-.566-1.379-.479-2.864-.8-4.292a9.257,9.257,0,0,1-.136-4.355c.128,1.81.231,3.613.432,5.415a12.306,12.306,0,0,1,.5,3.233" transform="translate(-13.986 -14.642)" fill="#691711"/>
      <path id="Caminho_2157" data-name="Caminho 2157" d="M25.77,48.569c.688-1.392,1.893-2.366,2.8-3.6.915-1.136,1.981-2.608,3.414-2.97A29.483,29.483,0,0,0,28.7,45.088c-1.1,1.037-1.772,2.565-2.93,3.481" transform="translate(-8.988 -14.649)" fill="#691711"/>
      <path id="Caminho_2158" data-name="Caminho 2158" d="M19.8,44.913a9.689,9.689,0,0,1,2.688-1.948c1.514-.941,3.2-2.365,5.107-1.892a13.656,13.656,0,0,0-5.05,1.98A15.778,15.778,0,0,1,19.8,44.913" transform="translate(-6.905 -14.293)" fill="#691711"/>
      <path id="Caminho_2159" data-name="Caminho 2159" d="M15.832,34.962c1.743-.28,3.472.094,5.214.055a12.716,12.716,0,0,1,5.156.717c-1.717-.26-3.441-.311-5.165-.539-1.708-.232-3.558.145-5.205-.233" transform="translate(-5.522 -12.157)" fill="#691711"/>
      <path id="Caminho_2160" data-name="Caminho 2160" d="M17.665,28.677c1.458.19,2.687.992,4.067,1.416a11.063,11.063,0,0,1,2.953,1.339c.21.162.77.548.742.8a7.194,7.194,0,0,0-1.833-1.035c-.969-.441-1.914-.981-2.915-1.362a11.8,11.8,0,0,1-3.014-1.154" transform="translate(-6.161 -10.002)" fill="#691711"/>
      <path id="Caminho_2161" data-name="Caminho 2161" d="M27.131,32.456a1.9,1.9,0,0,0,.137-1.1,2.728,2.728,0,0,1,.55-1.786,4.325,4.325,0,0,0,.61-1.117,2.227,2.227,0,0,0,1.012-.669,2.671,2.671,0,0,1,1.652-.931,4.709,4.709,0,0,0,2.09-.772,2.627,2.627,0,0,1,2.372-.464,4.944,4.944,0,0,1,2.06,1.215s2.594.656,2.269,2.057c0,0,2.542,4.859.028,7.13a2.876,2.876,0,0,1-2.406,1.3s-1.621,2.7-4.431,1.837c0,0-4-.108-3.891-2.378,0,0,.1-.7-1.188-1.4,0,0-1.838-2.579-.865-2.911" transform="translate(-9.364 -8.895)" fill="#ffbf33"/>
      <path id="Caminho_2162" data-name="Caminho 2162" d="M27.107,32.378c.264-.667-.053-1.444.217-2.129.225-.714.808-1.227,1-1.951.88-.234,1.27-1.219,2.143-1.489a9.077,9.077,0,0,0,2.421-.779,3.7,3.7,0,0,1,1.17-.618,3.91,3.91,0,0,1,3.593,1.3c.785.221,2.5.878,2.268,2.122a10.165,10.165,0,0,1,.72,1.734c.58,1.784.839,4.06-.651,5.485a2.949,2.949,0,0,1-2.509,1.355l.148-.077a4.089,4.089,0,0,1-4.572,1.921c-1.559-.1-4.013-.571-4-2.549a.793.793,0,0,0-.1-.4,2.74,2.74,0,0,0-1.042-.946c-.36-.589-1.694-2.51-.8-2.975m.019.026c-.825.472.587,2.292.927,2.846a2.592,2.592,0,0,1,1.088.946,1.037,1.037,0,0,1,.143.516c.064,1.806,2.362,2.087,3.781,2.206a3.836,3.836,0,0,0,4.343-1.833,2.694,2.694,0,0,0,2.4-1.237c1.448-1.325,1.225-3.523.7-5.24a15.423,15.423,0,0,0-.689-1.8c.173-1.2-1.334-1.707-2.256-1.978-1.192-1.169-3.138-1.812-4.521-.559a8.133,8.133,0,0,1-2.476.787c-.855.269-1.229,1.224-2.122,1.433l.074-.069c-.22.7-.809,1.2-1.052,1.875-.3.675-.012,1.439-.339,2.107" transform="translate(-9.349 -8.83)" fill="#691711"/>
      <path id="Caminho_2163" data-name="Caminho 2163" d="M32.729,32.715c-1.158.937-2.61,1.062-3.244.279s-.208-2.177.949-3.114,2.61-1.062,3.244-.279.208,2.177-.949,3.114" transform="translate(-10.182 -10.145)" fill="#ffe4ab"/>
    </g>
  </g>
</svg>
