<svg xmlns="http://www.w3.org/2000/svg" xmlns:xlink="http://www.w3.org/1999/xlink" width="51.766" height="50" viewBox="0 0 51.766 50">
  <defs>
    <clipPath id="clip-path">
      <rect id="Retângulo_151" data-name="Retângulo 151" width="51.766" height="50" fill="none"/>
    </clipPath>
  </defs>
  <g id="alfabeto_c_fim" transform="translate(0 0)">
    <g id="Grupo_1486" data-name="Grupo 1486" transform="translate(0 0)" clip-path="url(#clip-path)">
      <path id="Caminho_2072" data-name="Caminho 2072" d="M38.28,36.3l-.289.992s.427.189.289-.992" transform="translate(-12.23 -11.685)" fill="#fff"/>
      <path id="Caminho_2073" data-name="Caminho 2073" d="M27.39,21.153a.023.023,0,0,0,.046,0c.332-2,3.8-20.238,19.651-18.11C62.409,5.1,33.282,43.031,28.16,49.538a1.054,1.054,0,0,1-1.593.078C20.871,43.676-11.279,9.062,6.03,2.161,24.07-5.031,27.138,18.847,27.39,21.153" transform="translate(-0.311 -0.263)" fill="#ce001b"/>
      <path id="Caminho_2074" data-name="Caminho 2074" d="M27.148,20.883a.046.046,0,0,0-.061-.037c-.034.024-.028.044-.024.014.024-.155.079-.448.109-.606C28.289,15.017,30.388,9.733,34.367,6a14.65,14.65,0,0,1,4.862-2.99c4.142-1.412,11.8-2.041,12.484,3.8,1.149,10.424-16.37,32.637-22.767,41.543L28.1,49.465a1.387,1.387,0,0,1-2.025.176c-.162-.136-.587-.607-.753-.763C17.593,40.83-5.5,16.007,1.206,4.612,3.444,1.213,7.866.224,11.653,0c10.6-.063,14.41,12.2,15.494,20.883m-.135.015C25.928,12.542,21.831.766,11.684,1.13,8.37,1.4,4.286,2.454,2.369,5.342-3.5,15.548,18.932,40.645,25.829,48.4l.475.513c.075.078.17.186.227.24a.733.733,0,0,0,1.077-.068l.877-1.09c6.714-8.4,22.824-30.533,22.025-41.021-.27-3.013-3.046-3.759-5.645-3.8a14.158,14.158,0,0,0-10.1,3.277C30.6,10,28.3,15.337,27.243,20.626l-.031.172c-.021.065.009.122-.073.175a.092.092,0,0,1-.126-.074" transform="translate(0 0)" fill="#af0a1b"/>
      <path id="Caminho_2075" data-name="Caminho 2075" d="M53.683,8.562s4.567-3.591,9.8-1.791a3.752,3.752,0,0,1,2.43,2.263c.393,1.136.341,5.278-.191,5.278,0,0,.511-11.129-12.035-5.75" transform="translate(-17.281 -2.017)" fill="#fff"/>
      <path id="Caminho_2076" data-name="Caminho 2076" d="M28.826,49.615v.054s-.547,1.364-1.313.525-4.182-4.519-4.182-4.519S12.3,33.7,11.426,30.967c0,0-20.976-27.829-1.26-28.807,0,0-7.362,2.931-3.642,11.673,0,0,.734,4.6,22.3,35.782" transform="translate(-0.553 -0.695)" fill="#af0a1b"/>
    </g>
  </g>
</svg>
