<svg xmlns="http://www.w3.org/2000/svg" xmlns:xlink="http://www.w3.org/1999/xlink" width="49.953" height="50" viewBox="0 0 49.953 50">
  <defs>
    <clipPath id="clip-path">
      <rect id="Retângulo_165" data-name="Retângulo 165" width="49.953" height="50" transform="translate(0 0)" fill="none"/>
    </clipPath>
  </defs>
  <g id="alfabeto_l_fim" transform="translate(0 0)">
    <g id="Grupo_1518" data-name="Grupo 1518" transform="translate(0 0)" clip-path="url(#clip-path)">
      <path id="Caminho_2264" data-name="Caminho 2264" d="M70.241,1.639S73.705-.319,74.082.133,72.877,3.75,72.877,3.75l-1.883.676-.753-.9Z" transform="translate(-24.207 -0.023)" fill="#70b32f"/>
      <path id="Caminho_2265" data-name="Caminho 2265" d="M70.2,1.612A9.643,9.643,0,0,1,73.9,0c.8.119-.8,3.254-1.005,3.788-.653.244-1.307.484-1.965.713-.271-.32-.53-.651-.792-.98.015-.644.029-1.288.058-1.909m.014.009c.01.577.079,1.446.043,1.838.258.295.518.589.767.891l-.092-.025c.553-.178,1.467-.574,1.844-.631a17.066,17.066,0,0,0,1.2-2.768c.334-1.163-.232-.858-1.023-.575-.634.235-2.105.974-2.736,1.27" transform="translate(-24.172 0)" fill="#518530"/>
      <path id="Caminho_2266" data-name="Caminho 2266" d="M63.906,13.538l4.255-8.96a3.294,3.294,0,0,1-2.636-2.111L57.278,6.689,56.557,8l2.5,5.536Z" transform="translate(-19.491 -0.85)" fill="#ffc584"/>
      <path id="Caminho_2267" data-name="Caminho 2267" d="M63.855,13.51c1.382-3.021,2.761-6,4.21-8.977l.038.077a4.041,4.041,0,0,1-1.617-.729,3.08,3.08,0,0,1-1.036-1.428l.041.018C63.1,3.685,59.683,5.49,57.266,6.735c.129-.168-.715,1.315-.687,1.284.7,1.407,1.877,3.954,2.433,5.435l4.843.056m.009.014-4.852.056h-.04c-.869-1.859-1.7-3.733-2.548-5.6l.019-.034.722-1.313.012-.02.02-.01c2.452-1.238,5.888-2.962,8.3-4.2a3.156,3.156,0,0,0,1.8,1.843,4.827,4.827,0,0,0,.9.271l-.029.062c-1.387,3-2.844,5.992-4.3,8.944" transform="translate(-19.445 -0.829)" fill="#ffbc7b"/>
      <path id="Caminho_2268" data-name="Caminho 2268" d="M.54,46.268,37.973,8.91s-.339.937,0,1.238,1.28.276,1.393.439-.226,1.482.225,1.745,2.147.188,2.184.64.037,2.033.377,2.146,2.447.64,2.447.64L9.291,52.107Z" transform="translate(-0.186 -3.071)" fill="#70b32f"/>
      <path id="Caminho_2269" data-name="Caminho 2269" d="M.515,46.156c10.779-10.913,26.659-26.762,37.409-37.4l.172-.174a3.421,3.421,0,0,0-.221.931c-.082.859.99.607,1.5.888a.27.27,0,0,1,.072.22,3.655,3.655,0,0,0,.06,1.413c.088.182.362.208.589.256a9.029,9.029,0,0,1,1.452.263c.109.045.277.115.3.307l.022.368a3.891,3.891,0,0,0,.293,1.688c.084.034.226.062.336.093.552.134,1.72.448,2.279.585Q35.949,24.8,27.05,33.929c-4.385,4.528-13.275,13.639-17.7,18.13l-.055.056-.064-.044Zm.033,0,8.787,5.763-.119.013c4.377-4.571,13.2-13.69,17.609-18.218,5.6-5.548,12.372-13.127,17.744-17.97-.488-.132-1.657-.44-2.124-.565a3.062,3.062,0,0,1-.364-.107.61.61,0,0,1-.216-.364,10.628,10.628,0,0,1-.176-1.832c-.129-.272-.608-.264-.891-.331-.4-.1-1.185-.042-1.415-.44-.241-.541-.007-1.1-.089-1.6-.463-.222-1.228-.062-1.492-.612a1.9,1.9,0,0,1,.109-1.114l.1.06C27.4,19.489,11.411,35.488.548,46.153" transform="translate(-0.177 -2.958)" fill="#518530"/>
      <path id="Caminho_2270" data-name="Caminho 2270" d="M7.2,50.64c3.32-3.555,6.809-6.938,10.32-10.3C23.235,34.6,28.853,28.759,34.8,23.25l.023.023c-5.554,5.9-11.437,11.475-17.22,17.148C14.2,43.867,10.785,47.474,7.2,50.64" transform="translate(-2.481 -8.013)" fill="#518530"/>
      <path id="Caminho_2271" data-name="Caminho 2271" d="M12.232,53.8c3.454-3.691,7.077-7.21,10.722-10.708C28.892,37.122,34.732,31.054,40.9,25.318l.024.023C35.146,31.47,29.04,37.27,23.034,43.169c-3.529,3.584-7.083,7.326-10.8,10.628" transform="translate(-4.215 -8.725)" fill="#518530"/>
      <path id="Caminho_2272" data-name="Caminho 2272" d="M9.134,71.28c-.906,1.357-3.6,1.151-6.016-.461S-.523,66.8.384,65.44s3.6-1.151,6.016.461,3.641,4.021,2.735,5.378" transform="translate(-0.029 -22.243)" fill="#ffc584"/>
      <path id="Caminho_2273" data-name="Caminho 2273" d="M9.119,71.211a3.074,3.074,0,0,1-3.037.9A8.068,8.068,0,0,1,.716,68.477C-.95,65.994.434,63.849,3.386,64.4c2.709.372,7.207,3.762,5.733,6.806m-.028-.018c1.77-3.317-6.258-8.622-8.663-5.78-1.952,3.337,6.33,8.675,8.663,5.78" transform="translate(0 -22.165)" fill="#ffbc7b"/>
      <path id="Caminho_2274" data-name="Caminho 2274" d="M8.223,70.628c-.423.634-1.682.538-2.81-.216s-1.7-1.878-1.278-2.513,1.681-.537,2.81.216,1.7,1.878,1.278,2.513" transform="translate(-1.377 -23.256)" fill="#70b32f"/>
      <path id="Caminho_2275" data-name="Caminho 2275" d="M8.221,70.594C6.949,72.1,3.267,69.554,4.088,67.836c1.267-1.525,5.023,1.015,4.133,2.758m-.014-.009c.81-1.566-2.907-4.008-4.044-2.7-.89,1.574,2.932,4.036,4.044,2.7" transform="translate(-1.368 -23.217)" fill="#518530"/>
    </g>
  </g>
</svg>
