<svg id="alfabeto_a_e001_fim" xmlns="http://www.w3.org/2000/svg" xmlns:xlink="http://www.w3.org/1999/xlink" width="50.368" height="50" viewBox="0 0 50.368 50">
  <defs>
    <clipPath id="clip-path">
      <rect id="Ret창ngulo_149" data-name="Ret창ngulo 149" width="50.368" height="50" fill="none"/>
    </clipPath>
    <clipPath id="clip-path-3">
      <rect id="Ret창ngulo_147" data-name="Ret창ngulo 147" width="24.571" height="11.998" fill="none"/>
    </clipPath>
  </defs>
  <g id="Grupo_1482" data-name="Grupo 1482" clip-path="url(#clip-path)">
    <g id="Grupo_1481" data-name="Grupo 1481" transform="translate(0 0)">
      <g id="Grupo_1480" data-name="Grupo 1480" clip-path="url(#clip-path)">
        <path id="Caminho_2024" data-name="Caminho 2024" d="M22.348,28.528S28.319-.7,38.808.142s6.008,12.83,6.008,12.83Z" transform="translate(-7.146 -0.039)" fill="#d0ecf2"/>
        <path id="Caminho_2025" data-name="Caminho 2025" d="M22.32,28.516c1.636-8.637,4.774-20.3,11.3-26.474a7.654,7.654,0,0,1,9.118-.991c4.168,2.381,3.7,8.054,2.386,12-6.432,4.794-16.063,10.89-22.8,15.466m.037-.056c6.519-4.688,15.713-11.375,22.258-15.8.8-3.073,2.073-8.782-2.056-11.3-7.079-4.006-11.457,3.243-14,8.868a115.925,115.925,0,0,0-6.2,18.24" transform="translate(-7.137 0)" fill="#92d3d8"/>
        <path id="Caminho_2026" data-name="Caminho 2026" d="M29.3,32.07S50.06,31.4,49.144,49.53c0,0-5.193,5.906-10.794,4.073s-13.543-6.518-13.543-6.518" transform="translate(-7.932 -10.253)" fill="#ffb000"/>
        <path id="Caminho_2027" data-name="Caminho 2027" d="M29.295,32.041c7.347-.2,16,2.637,18.81,10.06a18.323,18.323,0,0,1,1.141,7.462,15.008,15.008,0,0,1-5.6,3.948,8.015,8.015,0,0,1-5.107.312,70.584,70.584,0,0,1-13.75-6.733,113.951,113.951,0,0,0,12.251,5.853,8.336,8.336,0,0,0,6.491.259,16.369,16.369,0,0,0,5.5-3.688,17.67,17.67,0,0,0-1.025-7.373c-2.918-7.322-11.556-9.8-18.711-10.1" transform="translate(-7.927 -10.242)" fill="#e98111"/>
        <path id="Caminho_2028" data-name="Caminho 2028" d="M52.911,41.7s-2.35,12.624-7,15.339c0,0,5.079,1.321,9.981-4.426,0,0,.683-6.607-2.981-10.913" transform="translate(-14.68 -13.332)" fill="#1a1818"/>
        <path id="Caminho_2029" data-name="Caminho 2029" d="M52.834,41.7c-.917,5.01-2.644,12.265-6.973,15.376l-.016-.114c3.814.654,7.461-1.654,9.829-4.482.15-3.235-.45-7.872-2.84-10.781m-.009-.033c2.643,2.956,3.4,7.145,3.16,11-2.435,2.921-6.269,5.162-10.171,4.414l-.156-.034.141-.08c3.974-2.553,5.805-10.847,7.027-15.3" transform="translate(-14.599 -13.324)" fill="#1a1818"/>
        <path id="Caminho_2030" data-name="Caminho 2030" d="M29.444,48.958c3.357-1.317,6.994-16.879,8.247-16.891,1.433-.015,6.275,3.4,6.275,3.4-.867,9.6-8.635,16.421-8.635,16.421s-6.138-2.829-5.887-2.928" transform="translate(-9.412 -10.253)" fill="#1a1818"/>
        <path id="Caminho_2031" data-name="Caminho 2031" d="M29.439,48.913c1.9-1.126,2.57-3.514,3.441-5.419,1.209-3.047,2.227-6.171,3.454-9.215a8.263,8.263,0,0,1,1.143-2.2c.222-.2.584-.042.841.024a30.794,30.794,0,0,1,5.751,3.284,21.337,21.337,0,0,1-.927,4.722A27.748,27.748,0,0,1,35.4,51.938l-.054.048-.063-.031c-1.36-.7-3.849-1.863-5.171-2.575-.114-.064-.431-.236-.539-.305-.045-.051-.146-.046-.137-.162m.013.032c1.588.978,4.207,2,5.925,2.814,3.911-4.115,7.949-10.1,8.494-16.332-1.478-.821-3.633-2.577-5.588-3.216-.231-.049-.516-.2-.724-.04a2.58,2.58,0,0,0-.431.665c-1.51,3.516-2.447,7.254-4.048,10.742-.948,1.861-1.737,4.279-3.628,5.367" transform="translate(-9.413 -10.225)" fill="#1a1818"/>
        <g id="Grupo_1479" data-name="Grupo 1479" transform="translate(16.669 31.918)" opacity="0.19">
          <g id="Grupo_1478" data-name="Grupo 1478">
            <g id="Grupo_1477" data-name="Grupo 1477" clip-path="url(#clip-path-3)">
              <path id="Caminho_2032" data-name="Caminho 2032" d="M26.391,47.274S44.176,56.54,48.979,52.06a17.424,17.424,0,0,1-.041,2.342s-4.761,7.322-13.149,3.2a110.151,110.151,0,0,1-10.984-5.924Z" transform="translate(-24.601 -47.033)" fill="#1a1818"/>
              <path id="Caminho_2033" data-name="Caminho 2033" d="M26.391,47.274S44.176,56.54,48.979,52.06a17.424,17.424,0,0,1-.041,2.342s-4.761,7.322-13.149,3.2a110.151,110.151,0,0,1-10.984-5.924Z" transform="translate(-24.601 -47.033)" fill="none" stroke="#1a1818" stroke-miterlimit="10" stroke-width="0.5"/>
            </g>
          </g>
        </g>
        <path id="Caminho_2034" data-name="Caminho 2034" d="M14.8,33.669s-.165-.99.493-1.261a.591.591,0,0,0,.4-.532l.2-.708.931.9.6-1.033.611,1.033.814-1.6.407,1.6.51-1.134.814,1.134s0-1.656.407-1.6.509,1.6.509,1.6,1.018-2.473,1.629-1.6a1.165,1.165,0,0,1,0,1.507,1.337,1.337,0,0,1,1.222.365,2.242,2.242,0,0,1,.393,1.086.6.6,0,0,0,.165.361c.578.6,2.585,2.79,1.885,3.665-.814,1.018,1.426.164.612,1.253a2.6,2.6,0,0,1-2.139.987l1.527.815H24.757l1.018,1.018h-.99a.6.6,0,0,0-.522.9l.393.686s.832,1.061-.908.551c0,0,1.129,2.852,0,2.546s.6,1.629-.62,1.527a1.678,1.678,0,0,1-1.222-.649.611.611,0,0,0-.868-.122l-.135.108a.6.6,0,0,1-.973-.388l-.162-1.19-1.222,1.425.2-1.852-1.106,1.065a.6.6,0,0,1-1.021-.383,3.563,3.563,0,0,1,.2-1.681l-1.029.407-.443-1.366" transform="translate(-4.726 -9.683)" fill="#1a1818"/>
        <path id="Caminho_2035" data-name="Caminho 2035" d="M14.771,33.629a1.463,1.463,0,0,1,.186-1.063c.21-.286.7-.316.669-.744,0,0,.178-.714.179-.718a.081.081,0,0,1,.1-.059.084.084,0,0,1,.038.022l.942.89-.152.021.593-1.037a.107.107,0,0,1,.184,0l.618,1.028-.2.006.8-1.605a.129.129,0,0,1,.173-.057,13.49,13.49,0,0,1,.486,1.68l-.266-.023.5-1.138a.151.151,0,0,1,.26-.027l.814,1.135-.27.087a5.256,5.256,0,0,1,.156-1.337c.067-.184.143-.416.42-.4.274.078.314.274.382.407a4.9,4.9,0,0,1,.235,1.324l-.245-.04a8.22,8.22,0,0,1,.5-.97c.458-.8,1.205-1.4,1.573-.1a1.21,1.21,0,0,1-.265,1.087L23.1,31.85a1.3,1.3,0,0,1,1.374.516,2.175,2.175,0,0,1,.273.7c.056.252.029.5.211.652.692.848,2.622,2.648,1.834,3.794-.352.448.2.374.492.446.653.1.275.673.016.948a2.715,2.715,0,0,1-2.053.844l.057-.2,1.535.8a.12.12,0,0,1-.056.226l-2.037.019.1-.237,1.027,1.009a.153.153,0,0,1-.107.26l-.76,0c-.478-.078-.832.276-.6.691-.016-.027.431.742.367.638.722,1.025-.351,1.086-1.086.819l.21-.23a7.631,7.631,0,0,1,.514,1.908,1.035,1.035,0,0,1-.161.752c-.19.238-.54.116-.731.1-.027,0-.021.006-.007-.011,0,.283.2.621.234.968.077,1.031-1.409.533-1.815.073-.184-.189-.252-.324-.416-.36a.435.435,0,0,0-.439.119.808.808,0,0,1-.735.21c-.8-.2-.586-1.238-.734-1.839l.263.078-1.236,1.414a.133.133,0,0,1-.231-.1l.222-1.851.192.095c-.31.264-.95.959-1.3,1.18-1.338.428-1.09-1.556-.762-2.286l.081.084-1.037.388a.041.041,0,0,1-.055-.022s-.417-1.375-.42-1.378a.017.017,0,0,1,.012-.021.017.017,0,0,1,.021.011l.467,1.357-.056-.027,1.022-.426a.062.062,0,0,1,.082.033,3.855,3.855,0,0,0-.2,1.15c.009.373-.035.8.29.952.366.191.62-.093.872-.354l.822-.807a.114.114,0,0,1,.193.095l-.186,1.854-.231-.1,1.208-1.437a.149.149,0,0,1,.21-.018,9.814,9.814,0,0,1,.239,1.346.449.449,0,0,0,.77.153.784.784,0,0,1,.75-.182c.24.05.42.292.561.442a1.519,1.519,0,0,0,1.037.426c.189-.022.191-.018.185-.213-.111-.569-.648-1.575.45-1.3.078.007.114,0,.139-.031.154-.256.031-.769-.035-1.088a9.835,9.835,0,0,0-.373-1.2.174.174,0,0,1,.1-.225c.293-.007.637.178.9.124.095-.027.1,0,.1-.095a.955.955,0,0,0-.172-.337l-.374-.661a.769.769,0,0,1,.462-1.142c.32-.042.862-.014,1.176-.018l-.107.26-1.009-1.028a.139.139,0,0,1,.1-.237l2.037.019-.056.226-1.52-.829a.1.1,0,0,1,.056-.2,2.506,2.506,0,0,0,1.91-.754c.2-.237.552-.613.08-.676-.225-.063-.611-.01-.72-.292a.544.544,0,0,1,.142-.393c.335-.357.148-.892-.05-1.308a9.681,9.681,0,0,0-1.754-2.318.668.668,0,0,1-.192-.346,2.379,2.379,0,0,0-.328-1.014,1.143,1.143,0,0,0-1.218-.429.086.086,0,0,1-.1-.069,1.226,1.226,0,0,0,.227-1c-.331-1.094-.817-.464-1.194.176a8.089,8.089,0,0,0-.462.949.127.127,0,0,1-.166.069.133.133,0,0,1-.079-.11c-.069-.459-.082-1.144-.4-1.465a.468.468,0,0,0-.1.207,5.063,5.063,0,0,0-.133,1.251.15.15,0,0,1-.27.087l-.816-1.133.259-.027-.518,1.131a.141.141,0,0,1-.265-.023l-.4-1.6.24.027-.827,1.593a.116.116,0,0,1-.154.052.12.12,0,0,1-.048-.046l-.6-1.037h.183L16.9,32.076a.1.1,0,0,1-.152.021l-.92-.914.135-.036-.221.7c0,.459-.482.492-.724.763a1.416,1.416,0,0,0-.212,1.011c.006.022-.031.027-.033.005" transform="translate(-4.715 -9.64)" fill="#1a1818"/>
        <path id="Caminho_2036" data-name="Caminho 2036" d="M9.557,34.145a3.908,3.908,0,0,0-4.079-.468c-2.063.947-4.994,3.2-5.384,8.409a2.546,2.546,0,0,0,1.12,2.444,6.042,6.042,0,0,0,.54.375A7.55,7.55,0,0,0,8.26,45.6,5.287,5.287,0,0,0,11.7,42.29a7.388,7.388,0,0,0-2.145-8.145" transform="translate(-0.021 -10.65)" fill="#ffb000"/>
        <path id="Caminho_2037" data-name="Caminho 2037" d="M9.525,34.142C6.208,31.7,2.272,35.48.99,38.51a11.172,11.172,0,0,0-.863,3.573c-.256,2.146,2.246,3.256,3.992,3.65,2.814.57,6.345-.536,7.363-3.421a7.393,7.393,0,0,0-1.957-8.17m.021-.027a7.535,7.535,0,0,1,2.263,8.31c-1.03,3.067-4.828,4.245-7.739,3.531-1.83-.478-4.3-1.652-4.054-3.9a12.542,12.542,0,0,1,.759-3.634c1.143-3.258,5.455-6.848,8.771-4.308" transform="translate(0 -10.633)" fill="#e98111"/>
        <path id="Caminho_2038" data-name="Caminho 2038" d="M4.446,41.961A6.249,6.249,0,0,1,6.022,38.58c.821-.917,2.01-1.833,3.2-1.309a3.516,3.516,0,0,1,2.24,3.622,4.479,4.479,0,0,1-3.869,4.349,2.838,2.838,0,0,1-1.948-.28,2.737,2.737,0,0,1-1.2-3" transform="translate(-1.409 -11.868)" fill="#1a1818"/>
        <path id="Caminho_2039" data-name="Caminho 2039" d="M4.412,41.9a6.042,6.042,0,0,1,3.25-4.816,2.669,2.669,0,0,1,2.784.878c1.519,1.45,1.346,3.96.2,5.611C8.616,46.3,3.78,46.134,4.412,41.9m.034,0C4.087,44.648,6.4,45.73,8.706,44.666c2.432-.934,3.684-4.693,1.659-6.614a2.4,2.4,0,0,0-2.6-.7,6.289,6.289,0,0,0-3.32,4.558" transform="translate(-1.393 -11.813)" fill="#1a1818"/>
        <path id="Caminho_2040" data-name="Caminho 2040" d="M9.628,31.467c.012-2.575-1.842-4.493-3.457-6.272a3.965,3.965,0,0,1-.7-.873.039.039,0,0,1,.037-.005,6.48,6.48,0,0,1,3.177,2.957,6.8,6.8,0,0,1,1.011,4.2.034.034,0,0,1-.067-.01" transform="translate(-1.749 -7.774)" fill="#1a1818"/>
        <path id="Caminho_2041" data-name="Caminho 2041" d="M5.759,32.223c-.42-2.54-2.571-4.12-4.461-5.6a4.006,4.006,0,0,1-.838-.744A.038.038,0,0,1,.5,25.866a6.479,6.479,0,0,1,3.629,2.382,6.8,6.8,0,0,1,1.7,3.973.034.034,0,0,1-.068,0" transform="translate(-0.147 -8.27)" fill="#1a1818"/>
        <path id="Caminho_2042" data-name="Caminho 2042" d="M22.936,28.5s-1.324.815,0,1.018,40.426-5.5,33.706-21.893S27.986,25.889,22.936,28.5" transform="translate(-7.146 -1.036)" fill="#d0ecf2"/>
        <path id="Caminho_2043" data-name="Caminho 2043" d="M22.938,28.406c-2.353,1.761,3.459.458,4.088.371A104.141,104.141,0,0,0,43.721,24a31.332,31.332,0,0,0,9.995-5.667,10.9,10.9,0,0,0,3.167-4.716c1.079-3.376-.475-8.254-3.7-9.856-1.74-.758-3.706-.176-5.342.631-6.761,3.757-11.592,10.115-16.8,15.7-2.622,2.726-5.027,6.139-8.107,8.313m-.033-.059c3.124-2.273,5.286-5.646,7.8-8.544,2.446-3.007,4.966-5.963,7.7-8.737C43.08,6.17,53.373-2.856,56.956,7.9c4.52,13.43-20.355,19.785-29.9,21.051a23.253,23.253,0,0,1-4.343.446c-.8-.207-.258-.789.191-1.051" transform="translate(-7.131 -0.911)" fill="#92d3d8"/>
        <path id="Caminho_2044" data-name="Caminho 2044" d="M6.168,41.14s-.1.916.577.51,2.274-2.376,1.6-3.055-1.9.95-2.173,2.546" transform="translate(-1.971 -12.29)" fill="#fff"/>
        <path id="Caminho_2045" data-name="Caminho 2045" d="M50.782,38.54s4.378,2.893,4.4,7.257,1.363,1.536.893-.849S49.5,36.3,50.782,38.54" transform="translate(-16.181 -12.17)" fill="#fff"/>
        <path id="Caminho_2046" data-name="Caminho 2046" d="M39.573,55.956c-2.124,3.522-.034,7.5,2.052,10.49.32.443.637.892.929,1.374a.034.034,0,0,1-.049.046,10.362,10.362,0,0,1-4.141-8.831,6.437,6.437,0,0,1,1.156-3.121.034.034,0,0,1,.054.042" transform="translate(-12.257 -17.874)" fill="#1a1818"/>
        <path id="Caminho_2047" data-name="Caminho 2047" d="M21.095,57.837c-.167-1.314,1.539-1.621,2.52-1.655l-.184.308c-1.05-1.869-.979-4.545.931-5.824a.035.035,0,0,1,.05.046,10.012,10.012,0,0,0-.624,1.361,5.8,5.8,0,0,0,.013,4.219.208.208,0,0,1-.1.292,6.556,6.556,0,0,0-1.639.163,1.1,1.1,0,0,0-.9,1.075c.011.042-.059.06-.067.015" transform="translate(-6.741 -16.198)" fill="#1a1818"/>
        <path id="Caminho_2048" data-name="Caminho 2048" d="M25.9,59.642c.512-.809,1.408-1.682,2.459-1.413l-.216.2a33.154,33.154,0,0,1-1.317-6.367c.027-.671-.1-1.678.461-2.154a.035.035,0,0,1,.035.058,1.7,1.7,0,0,0-.065.99c.146,1.053.369,2.092.505,3.152.177,1.419.433,2.835.711,4.241a.175.175,0,0,1-.137.2,2.311,2.311,0,0,0-2.379,1.123.034.034,0,0,1-.057-.037" transform="translate(-8.278 -15.958)" fill="#1a1818"/>
      </g>
    </g>
  </g>
</svg>
