<svg xmlns="http://www.w3.org/2000/svg" xmlns:xlink="http://www.w3.org/1999/xlink" width="21.108" height="50" viewBox="0 0 21.108 50">
  <defs>
    <clipPath id="clip-path">
      <rect id="Retângulo_186" data-name="Retângulo 186" width="21.108" height="50" transform="translate(0 0)" fill="none"/>
    </clipPath>
  </defs>
  <g id="alfabeto_s_e001_fim" transform="translate(0 0)">
    <g id="Grupo_1537" data-name="Grupo 1537" transform="translate(0 0)" clip-path="url(#clip-path)">
      <path id="Caminho_2400" data-name="Caminho 2400" d="M4.194,37.51,7.352,47.859l-.79.526,4.8,14.121s1.076,1.93,2.041-.7,6.49-24.294,6.49-24.294Z" transform="translate(-1.48 -13.234)" fill="#f6a23e"/>
      <path id="Caminho_2401" data-name="Caminho 2401" d="M20.929,39s-1.822,4.985-1.885,6.782.372,3.932-.386,5.635a23.156,23.156,0,0,0-1.734,6.759c-.029,1.7-2.849,2.579-2.849,2.579s.505,2.587,1.531,2.958,2.024-3.831,2.024-3.831l5.3-20.093Z" transform="translate(-4.966 -13.76)" fill="#f5932b"/>
      <path id="Caminho_2402" data-name="Caminho 2402" d="M4.2,37.43c.827,2.569,2.459,7.73,3.263,10.3l.027.087-.077.052-.786.531.051-.15c.829,2.343,1.593,4.709,2.383,7.066l2.35,7.077c1.756,2.6,2.593-3.471,3.032-4.53,1.247-4.579,4.041-15.746,5.284-20.487l.159.2c-4.508-.034-11.1-.1-15.686-.154m-.026-.019c4.651-.019,11.118-.162,15.712-.155H20.1l-.052.205c-1.65,6.586-3.611,13.87-5.448,20.448-.481,1.169-1.375,7.274-3.295,4.536-1.432-4.173-3.511-9.979-4.871-14.108l-.032-.1.083-.054.792-.521-.05.139c-.769-2.584-2.3-7.8-3.051-10.395" transform="translate(-1.473 -13.145)" fill="#f28027"/>
      <path id="Caminho_2403" data-name="Caminho 2403" d="M7.843,49.412c2.194-1.32,4.609-2.212,6.736-3.636,2.053-1.467,4.315-2.782,5.8-4.864l.028.015a9.5,9.5,0,0,1-.48.84,16.3,16.3,0,0,1-5.26,4.161c-2.241,1.179-4.419,2.79-6.828,3.484" transform="translate(-2.767 -14.435)" fill="#f28027"/>
      <path id="Caminho_2404" data-name="Caminho 2404" d="M6.685,42.427q2.732-2.675,5.6-5.2,3.377,3.336,6.943,6.467l.075.067-.056.086A26.454,26.454,0,0,1,8.867,52.276c3.73-2.268,7.531-4.962,10.181-8.558l.019.153q-3.345-3.281-6.874-6.363h.181c-1.852,1.655-3.757,3.446-5.69,4.917" transform="translate(-2.359 -13.135)" fill="#f28027"/>
      <path id="Caminho_2405" data-name="Caminho 2405" d="M12.38,63.308a13.218,13.218,0,0,1,2.634-1.828c1.413-1.057,2.853-2.223,4.289-3.18a10.777,10.777,0,0,1-3.331,2.686c-1.237.683-2.267,1.888-3.592,2.322" transform="translate(-4.368 -20.57)" fill="#f28027"/>
      <path id="Caminho_2406" data-name="Caminho 2406" d="M13.645,70.177a5.1,5.1,0,0,1,1.676-1.154,11.417,11.417,0,0,1,2.838-1.862,9.988,9.988,0,0,1-2.78,1.949,4.156,4.156,0,0,1-1.734,1.067" transform="translate(-4.814 -23.696)" fill="#f28027"/>
      <path id="Caminho_2407" data-name="Caminho 2407" d="M14.739,74.158a1.035,1.035,0,0,1,.827.362c.48.182,1.007.21,1.336.691l-.014.029c-.582.038-.929-.36-1.368-.625a1.034,1.034,0,0,1-.8-.427Z" transform="translate(-5.195 -26.164)" fill="#f28027"/>
      <path id="Caminho_2408" data-name="Caminho 2408" d="M7.349,47.248a3.751,3.751,0,0,1,1.4,1.046c.764.569,1.787,1.006,2.26,1.844a8.557,8.557,0,0,1-2.325-1.762,3.126,3.126,0,0,1-1.339-1.129" transform="translate(-2.593 -16.67)" fill="#f28027"/>
      <path id="Caminho_2409" data-name="Caminho 2409" d="M8.592,47.825c1.161-1.475,2.739-2.5,4.011-3.858a28.152,28.152,0,0,1,4.132-3.728A33.66,33.66,0,0,1,12.724,44.1c-1.44,1.144-2.585,2.79-4.132,3.728" transform="translate(-3.031 -14.197)" fill="#f28027"/>
      <path id="Caminho_2410" data-name="Caminho 2410" d="M11.955,43.633a4,4,0,0,1,1.533.962,7.78,7.78,0,0,1,2.484,1.711,9.152,9.152,0,0,1-2.541-1.623,3.33,3.33,0,0,1-1.476-1.05" transform="translate(-4.218 -15.395)" fill="#f28027"/>
      <path id="Caminho_2411" data-name="Caminho 2411" d="M16.341,49.464A7.506,7.506,0,0,1,18.1,51.226a14.61,14.61,0,0,1,2.832,3.026A17.22,17.22,0,0,1,18.02,51.3a6.22,6.22,0,0,1-1.679-1.835" transform="translate(-5.766 -17.452)" fill="#f28027"/>
      <path id="Caminho_2412" data-name="Caminho 2412" d="M11.148,53.1c1.251,1.025,2.062,2.431,3.26,3.5a28.551,28.551,0,0,0,3.607,3.06c-1.45-.241-2.75-1.855-3.734-2.937-.985-1.235-2.433-2.224-3.132-3.62" transform="translate(-3.933 -18.735)" fill="#f28027"/>
      <path id="Caminho_2413" data-name="Caminho 2413" d="M11.145,63.24a9.945,9.945,0,0,1,2.064,1.75c1.194.912,2.425,1.755,3.6,2.691a7.192,7.192,0,0,1-3-2c-.819-.866-2.082-1.408-2.667-2.437" transform="translate(-3.932 -22.313)" fill="#f28027"/>
      <path id="Caminho_2414" data-name="Caminho 2414" d="M16.294,25.92c-.685.45-.877,2.017-.395,3.42s.219,2.719-1.316,2.675-2.468-1.184-2.024-2.456,2.551-3.771.445-3.727-2.2,1.271-2.962.92L9.278,26.4s-.745-.526-.7.395,1.009,6.709.044,7.367S6.6,33.112,6.734,31.138s.526-4.779-.614-4.911a4.661,4.661,0,0,0-2.5.746S-.15,27.982,1.6,24.166c0,0-3.552-3.114.483-6.315,0,0-2.324-3.742,2.017-6.037,0,0-1.169-3.742,5.029-6.432,0,0,4.21-2.456,0-4.093,0,0-.665-.036.124-.65S16.667-.9,15.461,7.458c0,0,4.473.044,3.114,5.175,0,0,4.414,1.578,1.023,5.788,0,0,3.391,2.237,0,4.6,0,0,.76.658,0,2.5s.029,3.42-.936,3.42-.965-2.193-.965-2.193,0-1.754-1.4-.833" transform="translate(-0.056 -0.092)" fill="#ea76ac"/>
      <path id="Caminho_2415" data-name="Caminho 2415" d="M16.236,25.824a2.588,2.588,0,0,0-.629,2.27,21.335,21.335,0,0,1,.463,2.421,1.4,1.4,0,0,1-1.676,1.407,1.911,1.911,0,0,1-1.9-2.545,23.468,23.468,0,0,0,1.3-2.787.72.72,0,0,0-.069-.568c-.25-.327-.747-.259-1.12-.243a4.8,4.8,0,0,0-2.236.955c-.346.087-.86-.286-1.181-.4-.523-.351-.691-.008-.615.5l.153,1.287a22.213,22.213,0,0,1,.239,5.191c-.046.447-.322.968-.84.952-1.373-.207-1.6-2.236-1.538-3.355-.02-.986.689-4.5-.6-4.708a4.333,4.333,0,0,0-2.382.738c-2.488.586-3.2-.746-2.168-2.934l.027.125c-2.18-2.075-1.851-4.7.479-6.489l-.027.156A4.191,4.191,0,0,1,3.19,12.071c.256-.168.523-.32.784-.481l-.063.154c-.636-3.222,2.5-5.476,5.1-6.6,2.28-1.458,2.492-2.983-.211-3.9-.424-.335.217-.806.517-.955a4.726,4.726,0,0,1,5.481,1.6,8.317,8.317,0,0,1,.757,5.479l-.157-.183a3.634,3.634,0,0,1,3.113,1.769,5.178,5.178,0,0,1,.128,3.6l-.084-.159a4.591,4.591,0,0,1,1.531,1.01c1.518,1.451.688,3.583-.477,4.965l-.022-.142a4.41,4.41,0,0,1,1.033,1.024c1.057,1.434.272,2.832-1.046,3.717l.006-.109a1.747,1.747,0,0,1,.338,1.378c-.12.939-.656,1.747-.687,2.7a5.509,5.509,0,0,1-.212,1.742.451.451,0,0,1-.324.178c-.825.051-.968-1.019-1.053-1.628-.021-.984-.146-2.223-1.4-1.413m-.018-.027c.368-.266.988-.452,1.246.057.388.85.058,1.9.648,2.677a.6.6,0,0,0,.57.256c.234-.01.349-.234.375-.458.062-.452.027-.926.073-1.393-.007-1.318,1.307-2.845.3-4.028l.061-.049c2.011-1.366,1.856-3.193-.1-4.524,1.811-2.215,1.905-4.562-1.04-5.729.039-.157.163-.824.2-.979A3.26,3.26,0,0,0,15.22,7.5a12.668,12.668,0,0,0,.061-3.277A6.612,6.612,0,0,0,14.9,2.733l-.362-.671c-.149-.2-.318-.393-.476-.592A4.366,4.366,0,0,0,9.146.755a.753.753,0,0,0-.2.238c0,.026-.013-.014,0,.008.933.328,2.235.957,2.1,2.155A3.8,3.8,0,0,1,9.119,5.4,20.725,20.725,0,0,0,7.182,6.414C5.424,7.509,3.687,9.458,4.16,11.666l.024.1L4.1,11.82a4.044,4.044,0,0,0-1.977,5.859l.049.088-.076.068c-2.257,1.734-2.556,4.183-.43,6.2a8.078,8.078,0,0,0-.428,1.219c-.2.867.14,1.571,1.1,1.619A4.29,4.29,0,0,0,3.5,26.78a4.5,4.5,0,0,1,2.505-.76.786.786,0,0,1,.6.363c.976,2.217-.584,4.843.609,7.012.44.884,1.461,1.052,1.6-.1a22.138,22.138,0,0,0-.208-5.151l-.145-1.291c-.052-.3.006-.874.462-.742.214.1.635.287.863.4a.861.861,0,0,0,.557.139c.362-.129.664-.464,1.048-.628a3.183,3.183,0,0,1,2.136-.239c.086.058.2.1.249.2.351,1.729-1.753,2.909-1.29,4.605.452,1.556,3.536,1.915,3.534-.076a21.552,21.552,0,0,0-.456-2.415,2.615,2.615,0,0,1,.649-2.3" transform="translate(0 0)" fill="#dc4b92"/>
      <path id="Caminho_2416" data-name="Caminho 2416" d="M11.262,13.953c-2.613,1.4-9.451,2.774-9.155,6.549l-.031.009c-.665-2.14,1.79-3.8,3.535-4.39,1.893-.642,3.691-1.895,5.651-2.167" transform="translate(-0.693 -4.923)" fill="#dc4b92"/>
      <path id="Caminho_2417" data-name="Caminho 2417" d="M24.2,12.161a12.458,12.458,0,0,0-2.092-.843,2.212,2.212,0,0,0-.708.263,8.568,8.568,0,0,1-2.935.962A12.518,12.518,0,0,1,22.1,11.214a2.483,2.483,0,0,1,2.1.947" transform="translate(-6.516 -3.953)" fill="#dc4b92"/>
      <path id="Caminho_2418" data-name="Caminho 2418" d="M.389,28.033a3.912,3.912,0,0,1,1.686-2.369c.451-.214.916-.344,1.366-.522a35.354,35.354,0,0,1,6.838-2.382l.01.03a54.791,54.791,0,0,1-5.446,1.962A11.718,11.718,0,0,0,2.2,25.9,6.877,6.877,0,0,0,.389,28.033" transform="translate(-0.137 -8.03)" fill="#dc4b92"/>
      <path id="Caminho_2419" data-name="Caminho 2419" d="M27.96,20.492a3.839,3.839,0,0,0-2-1.18,6.719,6.719,0,0,0-2.277.754,3.936,3.936,0,0,1-1.6.4c1.443-.731,3.04-1.586,4.717-1.148.5.182,1.105.667,1.157,1.171" transform="translate(-7.793 -6.775)" fill="#dc4b92"/>
      <path id="Caminho_2420" data-name="Caminho 2420" d="M8.823,33.45c-1.745.458-3.619.494-5.156,1.537-.472.24-1.167.755-1.447.938a3.392,3.392,0,0,0-.586,1.593l-.032.006a2.658,2.658,0,0,1,.351-1.775,5.894,5.894,0,0,1,1.579-1.024c1.684-.588,3.511-1.5,5.291-1.276" transform="translate(-0.547 -11.79)" fill="#dc4b92"/>
      <path id="Caminho_2421" data-name="Caminho 2421" d="M29.14,29.881a3.93,3.93,0,0,0-1.788-1.8c-.916-.09-1.5.836-2.274,1.225a3.327,3.327,0,0,1-1.728.558c1.41-.487,2.457-1.914,4.02-1.887a2.118,2.118,0,0,1,1.77,1.9" transform="translate(-8.238 -9.871)" fill="#dc4b92"/>
      <path id="Caminho_2422" data-name="Caminho 2422" d="M28.019,37.21c.051-1.146.076-2.455-1.415-1.67a4.682,4.682,0,0,1-3.246.2,26.019,26.019,0,0,0,4-.544c1.1-.168,1.094,1.483.66,2.018" transform="translate(-8.241 -12.413)" fill="#dc4b92"/>
      <path id="Caminho_2423" data-name="Caminho 2423" d="M20.474,2.483S19.063.972,19.237,1.957c.406,2.291,1.623,2.017,1.623,2.017s.691-.066-.386-1.491" transform="translate(-6.782 -0.573)" fill="#f3cfe3"/>
      <path id="Caminho_2424" data-name="Caminho 2424" d="M21.713,6.271s.335-.674.628-.219c.676,1.048.307,1.3.307,1.3s-1.331.247-.936-1.081" transform="translate(-7.635 -2.079)" fill="#f3cfe3"/>
      <path id="Caminho_2425" data-name="Caminho 2425" d="M9.052,15.937c-.3.458-.417.916-.255,1.023s.538-.178.841-.636.416-.916.255-1.023-.538.178-.841.636" transform="translate(-3.078 -5.39)" fill="#9fdbef"/>
      <path id="Caminho_2426" data-name="Caminho 2426" d="M17.327,18.672c.425.348.869.509.991.359s-.122-.554-.546-.9-.868-.509-.991-.359.122.553.546.9" transform="translate(-5.909 -6.25)" fill="#ffe984"/>
      <path id="Caminho_2427" data-name="Caminho 2427" d="M8.041,29.078c.135.532.4.925.583.878s.232-.518.1-1.05-.4-.925-.583-.878-.231.517-.1,1.05" transform="translate(-2.809 -9.887)" fill="#704594"/>
      <path id="Caminho_2428" data-name="Caminho 2428" d="M20.678,29.814c-.547-.047-1,.072-1.02.265s.413.388.96.434,1-.072,1.02-.265-.414-.388-.96-.434" transform="translate(-6.936 -10.516)" fill="#9fdbef"/>
      <path id="Caminho_2429" data-name="Caminho 2429" d="M25.475,23.989c-.138.531-.1,1,.088,1.05s.452-.342.591-.874.1-1-.089-1.05-.452.342-.59.874" transform="translate(-8.959 -8.154)" fill="#704594"/>
      <path id="Caminho_2430" data-name="Caminho 2430" d="M14.489,35.987c-.138.531-.1,1,.089,1.05s.452-.342.59-.874.1-1-.089-1.05-.452.342-.59.874" transform="translate(-5.083 -12.387)" fill="#ffe984"/>
    </g>
  </g>
</svg>
