<svg xmlns="http://www.w3.org/2000/svg" xmlns:xlink="http://www.w3.org/1999/xlink" width="50.126" height="50" viewBox="0 0 50.126 50">
  <defs>
    <clipPath id="clip-path">
      <rect id="Retângulo_268" data-name="Retângulo 268" width="50.126" height="50" fill="none"/>
    </clipPath>
  </defs>
  <g id="alfabeto_r_fim" transform="translate(0 0)">
    <g id="Grupo_1642" data-name="Grupo 1642" transform="translate(0 0)" clip-path="url(#clip-path)">
      <path id="Caminho_2671" data-name="Caminho 2671" d="M46.23,23.64A22.609,22.609,0,1,1,23.623,1.032,22.608,22.608,0,0,1,46.23,23.64" transform="translate(1.357 1.382)" fill="#d8f0f6"/>
      <path id="Caminho_2672" data-name="Caminho 2672" d="M46.23,23.64A22.609,22.609,0,1,1,23.623,1.032,22.608,22.608,0,0,1,46.23,23.64Z" transform="translate(1.357 1.382)" fill="none" stroke="#067d87" stroke-miterlimit="10" stroke-width="2.026"/>
      <path id="Caminho_2673" data-name="Caminho 2673" d="M46.591,23.332A22.609,22.609,0,1,1,23.984.724,22.608,22.608,0,0,1,46.591,23.332" transform="translate(1.841 0.97)" fill="#d8f0f6"/>
      <path id="Caminho_2674" data-name="Caminho 2674" d="M46.591,23.332A22.609,22.609,0,1,1,23.984.724,22.608,22.608,0,0,1,46.591,23.332Z" transform="translate(1.841 0.97)" fill="none" stroke="#00abc4" stroke-miterlimit="10" stroke-width="1.447"/>
      <path id="Caminho_2675" data-name="Caminho 2675" d="M13.751,11.582A1.682,1.682,0,1,1,12.068,9.9a1.683,1.683,0,0,1,1.682,1.682" transform="translate(13.916 13.264)" fill="#355a66"/>
      <line id="Linha_4" data-name="Linha 4" x1="1.717" y1="6.126" transform="translate(24.266 18.722)" fill="none" stroke="#355a66" stroke-linecap="round" stroke-linejoin="round" stroke-width="0.289"/>
      <path id="Caminho_2676" data-name="Caminho 2676" d="M11.933,9.595a5.011,5.011,0,0,1-2.674,1.865,9.215,9.215,0,0,0,1.949-4.45A9.723,9.723,0,0,0,15.188,9.8a5.172,5.172,0,0,1-3.255-.2" transform="translate(12.406 9.39)" fill="#355a66"/>
      <line id="Linha_5" data-name="Linha 5" x1="10.012" y2="2.995" transform="translate(25.649 22.371)" fill="none" stroke="#355a66" stroke-linecap="round" stroke-linejoin="round" stroke-width="0.289"/>
      <path id="Caminho_2677" data-name="Caminho 2677" d="M16.222,11.108a4.993,4.993,0,0,0-.145,3.257,9.208,9.208,0,0,1,2.717-4.027,9.729,9.729,0,0,1-4.481-1.872,5.176,5.176,0,0,0,1.909,2.642" transform="translate(19.177 11.343)" fill="#355a66"/>
      <rect id="Retângulo_256" data-name="Retângulo 256" width="1.321" height="3.172" transform="translate(15.896 8.292) rotate(-29.972)" fill="#355a66"/>
      <rect id="Retângulo_257" data-name="Retângulo 257" width="1.32" height="3.173" transform="translate(24.14 5.606)" fill="#355a66"/>
      <rect id="Retângulo_258" data-name="Retângulo 258" width="3.174" height="1.32" transform="matrix(0.532, -0.847, 0.847, 0.532, 33.103, 10.328)" fill="#355a66"/>
      <rect id="Retângulo_259" data-name="Retângulo 259" width="1.321" height="3.172" transform="translate(33.261 38.222) rotate(-29.971)" fill="#355a66"/>
      <rect id="Retângulo_260" data-name="Retângulo 260" width="1.32" height="3.173" transform="translate(26.426 39.824)" fill="#355a66"/>
      <rect id="Retângulo_261" data-name="Retângulo 261" width="3.174" height="1.32" transform="translate(15.977 40.26) rotate(-57.887)" fill="#355a66"/>
      <rect id="Retângulo_262" data-name="Retângulo 262" width="1.321" height="3.172" transform="translate(9.369 15.547) rotate(-60.029)" fill="#355a66"/>
      <rect id="Retângulo_263" data-name="Retângulo 263" width="3.172" height="1.321" transform="matrix(0.866, -0.5, 0.5, 0.866, 39.157, 15.875)" fill="#355a66"/>
      <rect id="Retângulo_264" data-name="Retângulo 264" width="3.173" height="1.32" transform="translate(7.616 23.623)" fill="#355a66"/>
      <rect id="Retângulo_265" data-name="Retângulo 265" width="3.173" height="1.32" transform="translate(40.861 23.623)" fill="#355a66"/>
      <rect id="Retângulo_266" data-name="Retângulo 266" width="1.321" height="3.172" transform="matrix(0.5, -0.866, 0.866, 0.5, 39.174, 32.707)" fill="#355a66"/>
      <rect id="Retângulo_267" data-name="Retângulo 267" width="3.172" height="1.321" transform="translate(9.386 33.26) rotate(-29.972)" fill="#355a66"/>
      <path id="Caminho_2678" data-name="Caminho 2678" d="M12.411.358s21.681,2.518,21.651,24.03c0,0-.548,2.188-1.116-1.736S33.3,5.335,13.289,1.079c0,0-3.217-.772-.877-.721" transform="translate(15.487 0.476)" fill="#fff"/>
    </g>
  </g>
</svg>
