<svg xmlns="http://www.w3.org/2000/svg" xmlns:xlink="http://www.w3.org/1999/xlink" width="84.158" height="50" viewBox="0 0 84.158 50">
  <defs>
    <clipPath id="clip-path">
      <rect id="Retângulo_168" data-name="Retângulo 168" width="84.158" height="50" transform="translate(0 0)" fill="none"/>
    </clipPath>
  </defs>
  <g id="alfabeto_o_fim" transform="translate(0 0)">
    <g id="Grupo_1524" data-name="Grupo 1524" transform="translate(0 0)" clip-path="url(#clip-path)">
      <path id="Caminho_2329" data-name="Caminho 2329" d="M71.292,21.844,53.785,15.3.7,26.5S-2.45,15.873,4.63,11.774C21.893,1.776,44.082,3.3,44.082,3.3S63.784,4.921,74.8,18.358Z" transform="translate(0 0.006)" fill="#fdaf75"/>
      <path id="Caminho_2330" data-name="Caminho 2330" d="M3.9,12.1C25.228-.377,55.636-2.634,73.5,16.933c.046.042-.024.115-.069.072a50.292,50.292,0,0,0-9.251-7C45.734-.975,22.024,3.224,3.9,12.1" transform="translate(0.007 0.004)" fill="#a75d2e"/>
      <path id="Caminho_2331" data-name="Caminho 2331" d="M70.4,23.1A26.447,26.447,0,0,1,52.769,41.9c-15.14,5.157-36.269-4.825-36.934-7.154s-4.991-2.995-4.991-2.995C1.528,30.587.7,27.427.7,27.427s0-3.494,6.488-4.991c0,0,28.615-21.794,63.219.665" transform="translate(0.001 0.024)" fill="#fff"/>
      <path id="Caminho_2332" data-name="Caminho 2332" d="M70.453,23.11C68.1,33.425,58.943,41.455,48.581,43.144c-10.386,1.5-21.137-1.2-30.346-6.019a7.387,7.387,0,0,1-2.679-2.159c-.872-2.205-3.618-2.66-5.742-2.984a20.129,20.129,0,0,1-7.562-2.365,4.263,4.263,0,0,1-1.976-2.19C.468,24.219,5,22.351,6.906,22.07a54.417,54.417,0,0,1,48.527-6.563,56.805,56.805,0,0,1,14.943,7.637A70.447,70.447,0,0,0,55.25,16.062a55.574,55.574,0,0,0-47.871,6.8c-2.478.589-5.762,1.76-6.265,4.564L1.1,27.32a2.83,2.83,0,0,0,.63.865c2.236,1.974,5.323,2.556,8.2,3.055,2.244.324,5.374,1,6.27,3.459a7.735,7.735,0,0,0,2.372,1.844c9.032,4.822,19.693,7.57,29.941,6.191A27.235,27.235,0,0,0,70.453,23.11" transform="translate(0.001 0.023)" fill="#1a1818"/>
      <path id="Caminho_2333" data-name="Caminho 2333" d="M54.751,25.431c0,7.075-6.651,12.811-14.857,12.811S25.037,32.506,25.037,25.431,31.688,12.62,39.893,12.62s14.857,5.736,14.857,12.811" transform="translate(0.046 0.023)" fill="#1a1818"/>
      <path id="Caminho_2334" data-name="Caminho 2334" d="M39.174,21.816a3.486,3.486,0,1,1-3.486-3.486,3.486,3.486,0,0,1,3.486,3.486" transform="translate(0.059 0.033)" fill="#fff"/>
      <path id="Caminho_2335" data-name="Caminho 2335" d="M66.841,30.557a5.347,5.347,0,0,1,6.047,4.294c.016.04-.039.078-.065.038a9.374,9.374,0,0,0-5.982-4.332" transform="translate(0.123 0.056)" fill="#1a1818"/>
      <path id="Caminho_2336" data-name="Caminho 2336" d="M61.428,37.032c2.3.25,5.058,2.356,4.516,4.889a.037.037,0,0,1-.071-.006A4.865,4.865,0,0,0,64.136,39.1a14.01,14.01,0,0,0-2.743-2,.038.038,0,0,1,.035-.066" transform="translate(0.113 0.068)" fill="#1a1818"/>
      <path id="Caminho_2337" data-name="Caminho 2337" d="M54.79,41.019c2.079.593,3.807,3.151,2.788,5.227a.035.035,0,0,1-.066-.018,5.1,5.1,0,0,0-.86-2.831,10.182,10.182,0,0,0-1.911-2.319c-.034-.031.008-.081.048-.058" transform="translate(0.101 0.075)" fill="#1a1818"/>
      <path id="Caminho_2338" data-name="Caminho 2338" d="M47.325,43.045a5.866,5.866,0,0,1,.9,5.8.036.036,0,0,1-.068-.011c-.072-.972-.2-1.939-.366-2.9-.142-.964-.318-1.924-.536-2.873-.008-.044.054-.058.073-.018" transform="translate(0.087 0.079)" fill="#1a1818"/>
      <path id="Caminho_2339" data-name="Caminho 2339" d="M38.039,43.041A6.9,6.9,0,0,1,39.367,49.9a.036.036,0,0,1-.069-.014,16.229,16.229,0,0,0-.421-3.452,26.666,26.666,0,0,0-.908-3.366.038.038,0,0,1,.07-.026" transform="translate(0.07 0.079)" fill="#1a1818"/>
      <path id="Caminho_2340" data-name="Caminho 2340" d="M10.614,23.091c-.564,3.313.939,6.345,2.278,9.222-2.711-1.877-3.242-6.512-2.278-9.222" transform="translate(0.019 0.042)" fill="#1a1818"/>
      <path id="Caminho_2341" data-name="Caminho 2341" d="M23.368,14.982s6.067-3.78,11.169-3.78c0,0,6.656-5.434,6.323-11.2,0,0,.959,7.542-.963,10.648l3.513.665S51.95,9.427,53.392.444c0,0,.887,9.649-3.993,12.2l4.056,1S63.817,9.15,64.815,2.523c0,0-.554,9.916-5.989,12.459l3.882,1.992S71.3,13.2,72.935,7.763c0,0-3.018,8.557-6.955,10.6l1.83,1.267s10.314-1.664,11.978-6.1c0,0-2.883,6.324-8.541,8.319,0,0,9.206,1.774,12.867-2.33a12.624,12.624,0,0,1-6.281,4.734,8.709,8.709,0,0,1-8.812-1.833,7.075,7.075,0,0,0-1.175-.855c-2.109-1.2-22.374-13.119-44.479-6.584" transform="translate(0.043 0)" fill="#1a1818"/>
      <path id="Caminho_2342" data-name="Caminho 2342" d="M70.453,23.11C68.1,33.425,58.943,41.455,48.581,43.144c-10.386,1.5-21.137-1.2-30.346-6.019a7.387,7.387,0,0,1-2.679-2.159c-.872-2.205-3.618-2.66-5.742-2.984a20.129,20.129,0,0,1-7.562-2.365,4.263,4.263,0,0,1-1.976-2.19C.468,24.219,5,22.351,6.906,22.07a54.417,54.417,0,0,1,48.527-6.563,56.805,56.805,0,0,1,14.943,7.637A70.447,70.447,0,0,0,55.25,16.062a55.574,55.574,0,0,0-47.871,6.8c-2.478.589-5.762,1.76-6.265,4.564L1.1,27.32a2.83,2.83,0,0,0,.63.865c2.236,1.974,5.323,2.556,8.2,3.055,2.244.324,5.374,1,6.27,3.459a7.735,7.735,0,0,0,2.372,1.844c9.032,4.822,19.693,7.57,29.941,6.191A27.235,27.235,0,0,0,70.453,23.11" transform="translate(0.001 0.023)" fill="#1a1818"/>
    </g>
  </g>
</svg>
