<svg xmlns="http://www.w3.org/2000/svg" xmlns:xlink="http://www.w3.org/1999/xlink" width="70.322" height="50" viewBox="0 0 70.322 50">
  <defs>
    <clipPath id="clip-path">
      <rect id="Retângulo_167" data-name="Retângulo 167" width="70.322" height="50" transform="translate(0 0)" fill="none"/>
    </clipPath>
  </defs>
  <g id="alfabeto_n_fim" transform="translate(0 0)">
    <g id="Grupo_1522" data-name="Grupo 1522" transform="translate(0 0)" clip-path="url(#clip-path)">
      <path id="Caminho_2292" data-name="Caminho 2292" d="M31.6,17.931V2.625S36.077-2.2,45.831,1.29L47.7,12.584,42.339,20.7Z" transform="translate(-8.489 -0.006)" fill="#5a5a58"/>
      <path id="Caminho_2293" data-name="Caminho 2293" d="M31.561,17.931c-.007-4.543-.106-10.863-.063-15.342,3.367-3.049,8.37-3,12.525-1.908l1.793.56.026.008.005.027c0,.037,1.908,11.288,1.912,11.32s-5.374,8.1-5.38,8.139l-.032.05-.057-.016Zm.015-.012c-.088.045,11.116,2.67,10.666,2.725-.025.014,5.46-8.3,5.343-8.053l-1.83-11.3.03.035L44,.757c-4.07-1.2-9.218-.968-12.363,1.863.016,4.419-.029,10.814-.064,15.3" transform="translate(-8.459 0)" fill="#303030"/>
      <path id="Caminho_2294" data-name="Caminho 2294" d="M16.705,15.09c-5.044-.731-6.815.231-7.008,1.887s-2,.847-2,.847c-4.235-.578-5.083,1.656-5.083,1.656S5,18.863,6,19.479a6.8,6.8,0,0,0,2.156.808S5.27,22.421,3.769,21.913a2.522,2.522,0,0,0-2.426.3s2.426.539,2.888,1.5,3.311,1.809,4.793.192,3.551-4.045,8.157-2.85" transform="translate(-0.361 -3.987)" fill="#ce001b"/>
      <path id="Caminho_2295" data-name="Caminho 2295" d="M16.635,15.077c-2.067-.161-6.389-.929-6.926,1.851a1.18,1.18,0,0,1-.76,1.095A2.126,2.126,0,0,1,7.6,17.87c-1.641-.222-4.089-.149-5.01,1.6l-.052-.057c1.145-.22,2.478-.524,3.546.091a6.759,6.759,0,0,0,2.115.736,13.938,13.938,0,0,1-1.643,1.035,4.681,4.681,0,0,1-2.656.728,2.775,2.775,0,0,0-2.566.248l-.037-.144a8.394,8.394,0,0,1,2.121.783c.732.331.879,1.156,1.656,1.448a3.32,3.32,0,0,0,4-.706,7.232,7.232,0,0,1,8.045-2.59,7.252,7.252,0,0,0-7.916,2.71,3.485,3.485,0,0,1-4.2.745c-.791-.285-.927-1.1-1.667-1.458a8.64,8.64,0,0,0-2.242-.81,2.831,2.831,0,0,1,2.834-.363A4.591,4.591,0,0,0,6.5,21.186a13.46,13.46,0,0,0,1.561-.954l.018.076A13.388,13.388,0,0,1,5.4,19.288a7.128,7.128,0,0,0-2.928.233c.9-1.888,3.364-2.029,5.19-1.788.813.356,1.842.248,1.9-.824.584-2.884,4.97-2.133,7.073-1.831" transform="translate(-0.292 -3.965)" fill="#8c0d18"/>
      <path id="Caminho_2296" data-name="Caminho 2296" d="M23.966,13.977s-.8-1.188-1.617.146l.616,8.5,1.874-.128Z" transform="translate(-6.004 -3.624)" fill="#5a5a58"/>
      <path id="Caminho_2297" data-name="Caminho 2297" d="M23.937,13.97c-.581-.747-1.191-.44-1.554.14l.181,2.122c.116,1.894.251,4.486.431,6.374l-.053-.047,1.871-.157-.074.088c-.274-2.519-.634-6.021-.8-8.519m.017-.006c.341,2.44.7,6.016.943,8.509l.01.083-.083,0-1.876.1-.051,0,0-.05-.132-2.125c-.163-1.891-.4-4.475-.49-6.37.393-.773,1.18-.931,1.682-.154" transform="translate(-5.984 -3.614)" fill="#303030"/>
      <path id="Caminho_2298" data-name="Caminho 2298" d="M20.755,34.064l-.611-8.121s-.822-2.772,2.874-3.08,12.834-1.232,12.834-1.232V18.14L53,16.5l1.335,14.477s-31.325,8.953-33.579,3.091" transform="translate(-5.391 -4.432)" fill="#0a2039"/>
      <path id="Caminho_2299" data-name="Caminho 2299" d="M30.25,33.232s1.858-2.538,4.34-.9l.39-2.032-4.528-1.2-1.3,1.765Z" transform="translate(-7.833 -7.817)" fill="#0a1928"/>
      <path id="Caminho_2300" data-name="Caminho 2300" d="M51.034,36.49l6.447-.557a.394.394,0,0,0,.358-.426l-1-11.6a.4.4,0,0,0-.426-.358l-6.447.557a.394.394,0,0,0-.358.426l1,11.6a.394.394,0,0,0,.426.358" transform="translate(-13.327 -6.326)" fill="#ec4115"/>
      <path id="Caminho_2301" data-name="Caminho 2301" d="M50.964,36.435c1.992-.174,4.021-.428,6.013-.645.271-.053.562.031.632-.225-.314-3.683-.472-7.414-.869-11.1-.058-.249.045-.894-.39-.853l-4.814.488-1.2.113c-.268.053-.538-.034-.6.2a1.136,1.136,0,0,0,.01.236l.206,2.41c.256,2.734.38,5.7.573,8.447.047.306-.061.961.445.932m0,.037c-.537.037-.461-.611-.51-.962-.279-2.742-.67-5.681-.886-8.421l-.21-2.409a.655.655,0,0,1,.268-.712,1.718,1.718,0,0,1,.673-.114l1.206-.094,4.825-.345a.491.491,0,0,1,.522.434l.042.606c.2,3.739.822,7.463,1.011,11.19-.108.427-.572.413-.906.431-2,.126-4.041.227-6.035.4" transform="translate(-13.257 -6.289)" fill="#691611"/>
      <path id="Caminho_2302" data-name="Caminho 2302" d="M59.534,16.817,39.392,18.558a.484.484,0,0,1-.524-.441l-.138-1.594A.486.486,0,0,1,39.17,16l20.142-1.741a.485.485,0,0,1,.525.441l.137,1.6a.484.484,0,0,1-.441.524" transform="translate(-10.405 -3.829)" fill="#acacac"/>
      <path id="Caminho_2303" data-name="Caminho 2303" d="M59.517,16.814c-6.1.6-12.757,1.177-18.892,1.653l-.726.067a2.614,2.614,0,0,1-.739.021.6.6,0,0,1-.365-.619l-.067-.726-.065-.73a.535.535,0,0,1,.485-.543c4.09-.355,13.476-1.245,17.439-1.515.451-.034,1.738-.134,2.182-.169a2.617,2.617,0,0,1,.738-.012.592.592,0,0,1,.353.616l.057.727.056.728a.5.5,0,0,1-.456.5m0-.018a.476.476,0,0,0,.429-.483l-.067-.725-.069-.726a.528.528,0,0,0-.322-.56c-5.393.439-14.816,1.319-20.33,1.735a.439.439,0,0,0-.4.442l.058.724.059.727a.522.522,0,0,0,.31.558C45.8,18.009,52.9,17.243,59.516,16.8" transform="translate(-10.387 -3.818)" fill="#8c8c8c"/>
      <path id="Caminho_2304" data-name="Caminho 2304" d="M31.618,27.187a5.342,5.342,0,1,0,5.342,5.342,5.343,5.343,0,0,0-5.342-5.342m0,7.313a2.241,2.241,0,1,1,2.241-2.241A2.241,2.241,0,0,1,31.618,34.5" transform="translate(-7.059 -7.304)" fill="#fff"/>
      <path id="Caminho_2305" data-name="Caminho 2305" d="M31.566,27.2c-4.511-.057-6.918,5.915-3.733,9.057a5.211,5.211,0,0,0,7.389-.077c3.2-3.156.883-8.994-3.656-8.98m0-.037a5.41,5.41,0,0,1,3.9,9.259,5.539,5.539,0,0,1-7.721-.077,5.329,5.329,0,0,1,3.822-9.183" transform="translate(-7.007 -7.297)" fill="#d9d9d8"/>
      <path id="Caminho_2306" data-name="Caminho 2306" d="M32.711,35.522c-3.264-.066-3.05-4.357,0-4.6a2.3,2.3,0,1,1,0,4.6m0-.037a2.188,2.188,0,0,0,0-4.364c-2.846-.107-2.671,4.286,0,4.364" transform="translate(-8.152 -8.307)" fill="#d9d9d8"/>
      <path id="Caminho_2307" data-name="Caminho 2307" d="M32.643,30.038l-.257-3.714h.874v3.714" transform="translate(-8.701 -7.072)" fill="#95512b"/>
      <path id="Caminho_2308" data-name="Caminho 2308" d="M32.6,29.984a18.8,18.8,0,0,1-.312-3.777l.074,0c.334-.02.67-.059,1-.084.041.669.077,1.339.057,2.008a7.689,7.689,0,0,1-.206,1.856,16.015,16.015,0,0,1-.122-3.713l.14.14c-.291-.024-.582-.056-.873-.073l.067-.072c.032,1.221.475,2.551.172,3.72" transform="translate(-8.674 -7.017)" fill="#6d381a"/>
      <path id="Caminho_2309" data-name="Caminho 2309" d="M36.126,33.32l3.985-.257v.774l-4,.271" transform="translate(-9.7 -8.883)" fill="#95512b"/>
      <path id="Caminho_2310" data-name="Caminho 2310" d="M36.125,33.274a22.092,22.092,0,0,1,4.049-.314l.006.075.065.774.009.116a18.345,18.345,0,0,1-4.147.173,14.723,14.723,0,0,1,3.995-.422l-.124.133.065-.774.073.069c-1.311.019-2.732.479-3.991.17" transform="translate(-9.701 -8.855)" fill="#6d381a"/>
      <path id="Caminho_2311" data-name="Caminho 2311" d="M29.467,34.123l-3.714.271v.649l4.082-.26" transform="translate(-6.919 -9.167)" fill="#95512b"/>
      <path id="Caminho_2312" data-name="Caminho 2312" d="M29.423,34.111a17.116,17.116,0,0,1-3.71.317l.06-.064c.007.216.03.432.048.649L25.7,34.9c.676-.1,1.354-.174,2.035-.209a8.7,8.7,0,0,1,2.054.08,17.019,17.019,0,0,1-4.2.353l.009-.11c.021-.237.046-.475.05-.712,1.24-.038,2.589-.486,3.778-.189" transform="translate(-6.874 -9.137)" fill="#6d381a"/>
      <path id="Caminho_2313" data-name="Caminho 2313" d="M33.581,36.911v2.833h.666V36.911" transform="translate(-9.022 -9.916)" fill="#95512b"/>
      <path id="Caminho_2314" data-name="Caminho 2314" d="M33.54,36.911a10.185,10.185,0,0,1,.048,2.833l-.067-.067c.222-.016.445-.049.666-.073l-.14.14a9.351,9.351,0,0,1,.121-2.833,4.542,4.542,0,0,1,.207,1.417,13.1,13.1,0,0,1-.061,1.57c-.287-.029-.576-.073-.864-.092.066-.945-.3-2.025.088-2.895" transform="translate(-8.962 -9.916)" fill="#6d381a"/>
      <path id="Caminho_2315" data-name="Caminho 2315" d="M70.16,25.039a1.787,1.787,0,0,0-2.054-1.121c-1.437.4-9.24,2.764-9.24,2.764s-1.54,0-1.95,2.669-9.858,4-9.858,4S14.3,37.873,3.832,34.793c0,0-2.567-.725-3.388,1.075s-.617,16.38,3.8,18.741S47.922,57,58.249,51.4c12.218-6.622,11.807-9.625,11.911-26.361" transform="translate(-0.018 -6.407)" fill="#acacac"/>
      <path id="Caminho_2316" data-name="Caminho 2316" d="M70.132,25.038a1.755,1.755,0,0,0-2.5-.97l-2.924.881-5.848,1.763a2.254,2.254,0,0,0-1.712,1.743c-.15.412-.151.848-.328,1.271a2.667,2.667,0,0,1-.891.972c-4.585,2.674-10.119,2.786-15.245,3.512C30.262,35.3,19.749,36.357,9.269,35.69a31.5,31.5,0,0,1-5.182-.807c-1.2-.325-2.813-.4-3.527.808-.742,2.023-.421,4.344-.4,6.477C.4,45.621.8,49.2,2.327,52.342a5.565,5.565,0,0,0,1.605,2.006,6.768,6.768,0,0,0,2.449.8,80.756,80.756,0,0,0,10.443.811,177.389,177.389,0,0,0,31.366-1.792,36.117,36.117,0,0,0,10.026-2.854c2.985-1.675,6.216-3.425,8.472-6.048,2.385-2.647,2.985-6.3,3.216-9.743.224-3.488.188-6.991.23-10.484m.018,0c-.026,3.5.026,7-.182,10.492-.215,3.458-.805,7.139-3.194,9.812-2.259,2.65-5.486,4.422-8.481,6.117a35.323,35.323,0,0,1-10.073,2.888,176.971,176.971,0,0,1-31.4,1.776,80.829,80.829,0,0,1-10.46-.845,6.848,6.848,0,0,1-2.495-.829,5.666,5.666,0,0,1-1.636-2.053C.7,49.22.308,45.644.075,42.171.063,40.025-.252,37.7.508,35.66c.731-1.228,2.385-1.164,3.6-.837a31.478,31.478,0,0,0,5.172.788c10.476.644,20.975-.475,31.388-1.554,5.115-.7,10.639-.795,15.211-3.432.881-.537.976-1.27,1.2-2.2.252-.818.878-1.709,1.767-1.783l5.856-1.738,2.928-.87a1.778,1.778,0,0,1,2.53,1" transform="translate(0 -6.404)" fill="#8c8c8c"/>
      <path id="Caminho_2317" data-name="Caminho 2317" d="M14.415,46.043a1.951,1.951,0,1,1-1.95-1.95,1.95,1.95,0,0,1,1.95,1.95" transform="translate(-2.824 -11.846)" fill="#3ba5bb"/>
      <path id="Caminho_2318" data-name="Caminho 2318" d="M14.376,45.9c-.012,3.173-3.725,2.782-4.139,0a2.084,2.084,0,1,1,4.139,0m-.073,0a1.856,1.856,0,0,0-3.665,0c-.3,2.355,3.6,2.032,3.665,0" transform="translate(-2.749 -11.706)" fill="#5a5a58"/>
      <path id="Caminho_2319" data-name="Caminho 2319" d="M25.249,46.263a1.951,1.951,0,1,1-1.951-1.95,1.951,1.951,0,0,1,1.951,1.95" transform="translate(-5.735 -11.905)" fill="#3ba5bb"/>
      <path id="Caminho_2320" data-name="Caminho 2320" d="M25.211,46.124c-.012,3.173-3.725,2.782-4.139,0a2.084,2.084,0,1,1,4.139,0m-.073,0a1.856,1.856,0,0,0-3.665,0c-.3,2.355,3.6,2.032,3.665,0" transform="translate(-5.66 -11.765)" fill="#5a5a58"/>
      <path id="Caminho_2321" data-name="Caminho 2321" d="M49.635,44.337a1.951,1.951,0,1,1-1.95-1.95,1.95,1.95,0,0,1,1.95,1.95" transform="translate(-12.287 -11.388)" fill="#3ba5bb"/>
      <path id="Caminho_2322" data-name="Caminho 2322" d="M49.6,44.2c-.012,3.173-3.726,2.782-4.139,0a2.084,2.084,0,1,1,4.139,0m-.073,0a1.856,1.856,0,0,0-3.665,0c-.3,2.355,3.6,2.032,3.665,0" transform="translate(-12.211 -11.248)" fill="#5a5a58"/>
      <path id="Caminho_2323" data-name="Caminho 2323" d="M61.67,42.387a1.951,1.951,0,1,1-1.951-1.95,1.951,1.951,0,0,1,1.951,1.95" transform="translate(-15.52 -10.864)" fill="#3ba5bb"/>
      <path id="Caminho_2324" data-name="Caminho 2324" d="M61.631,42.248c-.011,3.173-3.725,2.782-4.139,0a2.084,2.084,0,1,1,4.139,0m-.072,0a1.856,1.856,0,0,0-3.665,0c-.295,2.355,3.6,2.032,3.665,0" transform="translate(-15.445 -10.724)" fill="#5a5a58"/>
      <path id="Caminho_2325" data-name="Caminho 2325" d="M75.043,39a1.951,1.951,0,1,1-1.95-1.95A1.95,1.95,0,0,1,75.043,39" transform="translate(-19.113 -9.954)" fill="#3ba5bb"/>
      <path id="Caminho_2326" data-name="Caminho 2326" d="M75,38.863c-.012,3.173-3.725,2.782-4.139,0a2.084,2.084,0,1,1,4.139,0m-.073,0A1.783,1.783,0,0,0,73.017,37.3a1.8,1.8,0,0,0-1.751,1.561c-.3,2.355,3.6,2.032,3.665,0" transform="translate(-19.038 -9.814)" fill="#5a5a58"/>
      <path id="Caminho_2327" data-name="Caminho 2327" d="M67.245,24.465s3.823,17.431-6.65,22.976-56.969,5.6-56.969,5.6a9.716,9.716,0,0,0,2.066,1.79c2.027,1.277,30.2,3.322,46.659-1.161s17.6-12.347,17.6-12.347,1.926-11.139,1.159-16.269c0,0-.352-2.132-3.87-.589" transform="translate(-0.974 -6.422)" fill="#8c8c8c"/>
      <path id="Caminho_2328" data-name="Caminho 2328" d="M41.652,20.106v-.531L58.9,18.068l.076.823Z" transform="translate(-11.19 -4.854)" fill="#0a1928"/>
    </g>
  </g>
</svg>
