<svg id="alfabeto_e_e001_fim" xmlns="http://www.w3.org/2000/svg" xmlns:xlink="http://www.w3.org/1999/xlink" width="75.046" height="50" viewBox="0 0 75.046 50">
  <defs>
    <clipPath id="clip-path">
      <rect id="Retângulo_157" data-name="Retângulo 157" width="75.046" height="50" fill="none"/>
    </clipPath>
    <clipPath id="clip-path-3">
      <rect id="Retângulo_153" data-name="Retângulo 153" width="28.261" height="34.76" fill="none"/>
    </clipPath>
    <clipPath id="clip-path-5">
      <rect id="Retângulo_155" data-name="Retângulo 155" width="3.984" height="20.209" fill="none"/>
    </clipPath>
  </defs>
  <g id="Grupo_1501" data-name="Grupo 1501" clip-path="url(#clip-path)">
    <g id="Grupo_1500" data-name="Grupo 1500" transform="translate(0 0)">
      <g id="Grupo_1499" data-name="Grupo 1499" clip-path="url(#clip-path)">
        <path id="Caminho_2093" data-name="Caminho 2093" d="M59.114,2.572S70.328-4.1,78.435,4.464,89.8,16.074,88.208,19.626s-4.546,7.136-6.895,7.276c0,0-5.91,7.262-10.607,7.338,0,0-4.849,5.157-8.486,2.048a7.976,7.976,0,0,1-3.106-6.759Z" transform="translate(-13.63 -0.023)" fill="#9fa4a4"/>
        <path id="Caminho_2094" data-name="Caminho 2094" d="M59.041,2.54c5.425-3.133,12.768-3.751,17.874.338A59.011,59.011,0,0,1,81.35,7.348c1.43,1.53,2.864,3.058,4.217,4.663,1.294,1.622,2.769,3.321,3.036,5.463.337,2.812-4.56,9.468-7.277,9.462-2.84,3.147-6.217,6.957-10.674,7.447-1.376,1.656-5.114,4.085-7.791,2.586a8.336,8.336,0,0,1-4-7.491C58.824,21.8,59,10.427,59.041,2.54m.034.018c.09,7.953.171,19.121.182,26.948a8.051,8.051,0,0,0,3.788,7.118c2.762,1.394,5.62-.829,7.6-2.572,4.357-.445,7.759-4.188,10.566-7.259,2.987-.16,7.506-6.473,7.215-9.3-.282-2.078-1.765-3.746-3.048-5.321-1.362-1.582-2.81-3.094-4.254-4.608-1.459-1.5-2.863-3.07-4.41-4.434C71.727-.961,64.5-.327,59.074,2.559" transform="translate(-13.574 0)" fill="#4c4c4c"/>
        <g id="Grupo_1492" data-name="Grupo 1492" transform="translate(45.484 2.549)" opacity="0.42">
          <g id="Grupo_1491" data-name="Grupo 1491">
            <g id="Grupo_1490" data-name="Grupo 1490" clip-path="url(#clip-path-3)">
              <path id="Caminho_2095" data-name="Caminho 2095" d="M87.383,17.859S75.109-3.8,65.411,7.823c0,0-3.648-4.509-6.289-4.509l1.629,34.713,2.262-.54a3.91,3.91,0,0,0,3.811.151c1.987-1.064.4-2.959-.05-4.7s-3.638-19.628,7.424-21.9c0,0,7.048-2.495,13.185,6.825" transform="translate(-59.122 -3.314)" fill="#3d4342"/>
            </g>
          </g>
        </g>
        <path id="Caminho_2096" data-name="Caminho 2096" d="M85.307,32.333a39.544,39.544,0,0,0-1.85-4.6c-1.568-2.319-4.281-3.361-6.912-4.028a.029.029,0,0,1,0-.058,7.1,7.1,0,0,1,6.57,3.3c1.174,1.484,2.493,3.527,2.189,5.382" transform="translate(-17.652 -5.45)" fill="#4c4c4c"/>
        <path id="Caminho_2097" data-name="Caminho 2097" d="M73.245,42.082a20,20,0,0,1-.36-3.257,17.019,17.019,0,0,0-2.66-4.674.029.029,0,0,1,.037-.044c1.806.864,2.484,2.838,2.8,4.675a4.663,4.663,0,0,1,.236,3.3.03.03,0,0,1-.058-.005" transform="translate(-16.198 -7.867)" fill="#4c4c4c"/>
        <path id="Caminho_2098" data-name="Caminho 2098" d="M72.454,5.891a13.558,13.558,0,0,0-3.5,2.066c-1.236,1.372-1.472,3.31-1.939,5.028-.079.451-.164.9-.291,1.364a.029.029,0,0,1-.058,0,7.481,7.481,0,0,1,2.149-6.515,4.321,4.321,0,0,1,3.628-2,.029.029,0,0,1,.007.057" transform="translate(-15.355 -1.345)" fill="#4c4c4c"/>
        <path id="Caminho_2099" data-name="Caminho 2099" d="M29.576,2.6S18.361-4.067,10.255,4.495-1.11,16.1.481,19.657s4.546,7.136,6.895,7.276c0,0,5.911,7.262,10.607,7.338,0,0,4.849,5.157,8.486,2.048a7.978,7.978,0,0,0,3.107-6.759Z" transform="translate(-0.021 -0.03)" fill="#9fa4a4"/>
        <path id="Caminho_2100" data-name="Caminho 2100" d="M29.537,2.591C24.116-.3,16.885-.931,11.9,3.158,10.35,4.522,8.946,6.1,7.487,7.593,6.042,9.107,4.6,10.618,3.232,12.2,1.948,13.776.467,15.445.184,17.522c-.3,2.826,4.233,9.145,7.214,9.3,2.806,3.071,6.21,6.813,10.566,7.259,1.983,1.743,4.844,3.967,7.6,2.572a8.049,8.049,0,0,0,3.788-7.119c.014-7.786.1-19.044.182-26.946m.034-.019c.037,7.982.21,19.1.182,26.965a8.377,8.377,0,0,1-4,7.462c-2.84,1.417-5.925-.665-7.909-2.637l.118.052a7.685,7.685,0,0,1-3.2-.958,27.089,27.089,0,0,1-7.47-6.489c-1.832-.122-3.672-2.178-4.82-3.754C1.372,21.486-.13,19.67.008,17.505c.268-2.143,1.743-3.841,3.036-5.464C4.4,10.438,5.832,8.91,7.261,7.38A59.023,59.023,0,0,1,11.7,2.908C16.8-1.178,24.146-.562,29.571,2.571" transform="translate(0 -0.008)" fill="#4c4c4c"/>
        <g id="Grupo_1495" data-name="Grupo 1495" transform="translate(1.294 2.573)" opacity="0.42">
          <g id="Grupo_1494" data-name="Grupo 1494">
            <g id="Grupo_1493" data-name="Grupo 1493" clip-path="url(#clip-path-3)">
              <path id="Caminho_2101" data-name="Caminho 2101" d="M1.682,17.89S13.956-3.773,23.654,7.854c0,0,3.648-4.509,6.289-4.509L28.314,38.058l-2.262-.54a3.91,3.91,0,0,1-3.811.151c-1.987-1.064-.4-2.958.05-4.7s3.638-19.628-7.424-21.9c0,0-7.048-2.495-13.185,6.825" transform="translate(-1.682 -3.345)" fill="#3d4342"/>
            </g>
          </g>
        </g>
        <path id="Caminho_2102" data-name="Caminho 2102" d="M34.576,28.668A15.258,15.258,0,0,1,30.9,20.144c-.228-4.774,0-6.44,0-8.713S33.326,1.278,44.009.672,57.647,8.021,57.95,9.765s.227,5.491.455,6.155,1.17,7.668-3.544,12.5-20.285.248-20.285.248" transform="translate(-7.105 -0.148)" fill="#9fa4a4"/>
        <path id="Caminho_2103" data-name="Caminho 2103" d="M34.576,28.668A15.258,15.258,0,0,1,30.9,20.144c-.228-4.774,0-6.44,0-8.713S33.326,1.278,44.009.672,57.647,8.021,57.95,9.765s.227,5.491.455,6.155,1.17,7.668-3.544,12.5S34.576,28.668,34.576,28.668Z" transform="translate(-7.105 -0.148)" fill="none" stroke="#4c4c4c" stroke-miterlimit="10" stroke-width="0.5"/>
        <path id="Caminho_2104" data-name="Caminho 2104" d="M58.341,18.663c.91-1.489,3.324-1.866,4.2-.139a2.423,2.423,0,0,1,.23.675.024.024,0,0,1-.025-.008c-1.109-2.025-2.874-1.654-4.405-.529" transform="translate(-13.458 -4.01)" fill="#4c4c4c"/>
        <path id="Caminho_2105" data-name="Caminho 2105" d="M38.012,19.307c-1.659-1.114-2.779-1.643-4.312,0-.013.02-.048,0-.034-.019A2.334,2.334,0,0,1,35.8,17.878a3.439,3.439,0,0,1,2.209,1.429" transform="translate(-7.765 -4.122)" fill="#4c4c4c"/>
        <path id="Caminho_2106" data-name="Caminho 2106" d="M35.126,40.522,31.7,48.856s-.909,1.97-.253,2.728,2.3-.555,3.02-1.768,4-5.556,3.5-7.274-2.512-2.822-2.841-2.02" transform="translate(-7.2 -9.286)" fill="#d7cc9b"/>
        <path id="Caminho_2107" data-name="Caminho 2107" d="M35.132,40.521c-1.064,2.691-1.988,5.506-3.242,8.126-.9,1.553-1.042,4.394,1.368,2.4a33.3,33.3,0,0,0,3.786-5.79c.447-.983,1.118-2.089.6-3.166-.225-.71-1.82-2.456-2.511-1.571m-.035-.015c.128-.308.512-.327.79-.238a3.2,3.2,0,0,1,2.259,3.062,14.867,14.867,0,0,1-2.578,5.113,12.831,12.831,0,0,1-2.175,2.766c-2.631,1.942-2.551-.842-1.7-2.647.95-2.746,2.268-5.391,3.4-8.056" transform="translate(-7.189 -9.279)" fill="#aca486"/>
        <path id="Caminho_2108" data-name="Caminho 2108" d="M60.545,40.944l3.422,8.334s.909,1.97.252,2.728-2.3-.556-3.019-1.768-4-5.557-3.5-7.274,2.512-2.822,2.841-2.02" transform="translate(-13.299 -9.384)" fill="#d7cc9b"/>
        <path id="Caminho_2109" data-name="Caminho 2109" d="M60.517,40.929c1.135,2.663,2.453,5.311,3.4,8.056.846,1.792.939,4.594-1.7,2.647a12.739,12.739,0,0,1-2.175-2.766,14.868,14.868,0,0,1-2.578-5.113,3.2,3.2,0,0,1,2.259-3.062c.278-.088.662-.072.79.238m-.035.015c-.125-.278-.477-.282-.736-.188A2.976,2.976,0,0,0,57.806,43.7a18.238,18.238,0,0,0,2.54,4.965c.8,1.162,1.392,2.6,2.7,3.3,1.986.915,1.214-2,.675-2.894-1.255-2.621-2.177-5.434-3.242-8.126" transform="translate(-13.253 -9.376)" fill="#aca486"/>
        <path id="Caminho_2110" data-name="Caminho 2110" d="M33.689,22.6s1.894-1.78,3.22-.492,0,6.515,0,6.515-2.539,4.13-1.478,7.994c0,0,1.326-.682,1.553-.19s5.91,9.888,13.372,4.13c0,0,2.166-1.4,2.5-2.652s.385-.969,2.67-.417a11.678,11.678,0,0,0-1.722-8.637,9.436,9.436,0,0,1-.752-4.925c.335-2.765,2.722-2.5,3.858-1.326" transform="translate(-7.771 -4.993)" fill="#9fa4a4"/>
        <path id="Caminho_2111" data-name="Caminho 2111" d="M33.672,22.571c.865-.864,2.591-1.584,3.478-.332.673,1.161.472,2.587.368,3.858a20.49,20.49,0,0,1-.476,2.595,12.885,12.885,0,0,0-1.715,5.851,8.122,8.122,0,0,0,.222,2.026l-.178-.078a3.717,3.717,0,0,1,1.095-.357.564.564,0,0,1,.6.224c2.7,4.855,8.312,8.173,13.192,4.064a6.935,6.935,0,0,0,2.353-2.4c.155-.355.185-1.119.754-1.2a10.9,10.9,0,0,1,2.2.449l-.243.142a12.151,12.151,0,0,0-1.669-8.5c-.806-1.846-1.676-6.43.866-7.194a2.648,2.648,0,0,1,2.4.844,2.781,2.781,0,0,0-2.361-.7c-1.774.6-1.5,2.96-1.339,4.454.3,2.414,2.063,4.22,2.445,6.635a10.727,10.727,0,0,1,.052,4.569.194.194,0,0,1-.236.144,13.632,13.632,0,0,0-2.055-.469c-.092.014-.135.049-.2.155a5.848,5.848,0,0,1-2.794,3.312,8.82,8.82,0,0,1-4.094,1.779c-4.077.466-7.45-2.793-9.459-6-.338-.3-1.02.109-1.4.264a.125.125,0,0,1-.179-.078c-.773-2.688.153-5.885,1.445-8.066.3-1.7,1.642-6.341-.759-6.852a3.551,3.551,0,0,0-2.319.855" transform="translate(-7.767 -4.975)" fill="#4c4c4c"/>
        <path id="Caminho_2112" data-name="Caminho 2112" d="M41.144,32.659s-.758.024-.758,2.676c0,2.617.2,22.647,15.108,22.082a1.59,1.59,0,0,0,1.219-.649,2.237,2.237,0,0,0-.142-2.85,1.566,1.566,0,0,0-1.1-.612,13.583,13.583,0,0,1-2.959-.545c-.834-.378-2.994-3.008-1.289-6.895s2.652-11.185,1.44-13.207" transform="translate(-9.316 -7.534)" fill="#9fa4a4"/>
        <path id="Caminho_2113" data-name="Caminho 2113" d="M41.118,32.672c-.579.293-.582,1.146-.656,1.723a38.111,38.111,0,0,0,.349,5.875c.894,7.507,4.257,16.714,13.1,17.008a8.8,8.8,0,0,0,1.919-.057,1.969,1.969,0,0,0,.668-3.081,1.743,1.743,0,0,0-1.582-.718,6.267,6.267,0,0,1-2.929-.772,5.452,5.452,0,0,1-1.58-4.673A18.216,18.216,0,0,1,51.621,44.2a29.957,29.957,0,0,0,1.449-7.687,9.591,9.591,0,0,0-.42-3.871,8.207,8.207,0,0,1,.61,3.877,30.221,30.221,0,0,1-1.289,7.794c-.942,2.376-1.969,5-.34,7.335a2.225,2.225,0,0,0,1.407,1.086,17.024,17.024,0,0,0,1.918.329,2.064,2.064,0,0,1,1.82.889c.862,1.1.58,3.076-.875,3.512a12.2,12.2,0,0,1-9.213-2.93C41.706,50,40.439,42.807,40.272,36.362a10.137,10.137,0,0,1,.257-2.953c.108-.3.232-.671.587-.775Z" transform="translate(-9.29 -7.528)" fill="#4c4c4c"/>
        <path id="Caminho_2114" data-name="Caminho 2114" d="M37.573,24.429a2.022,2.022,0,0,1-1.819,2.178,2.022,2.022,0,0,1-1.818-2.178,2.022,2.022,0,0,1,1.818-2.178,2.022,2.022,0,0,1,1.819,2.178" transform="translate(-7.828 -5.133)" fill="#fff"/>
        <path id="Caminho_2115" data-name="Caminho 2115" d="M37.56,24.373c-.005,3.181-3.535,2.989-3.761,0-.058-3.11,3.817-3.191,3.761,0m-.038,0c-.227-2.634-3.314-2.59-3.512,0-.112,2.711,3.374,2.62,3.512,0" transform="translate(-7.797 -5.078)" fill="#1a1818"/>
        <path id="Caminho_2116" data-name="Caminho 2116" d="M37.82,24.7a1.646,1.646,0,0,1-1.406,1.809,1.646,1.646,0,0,1-1.4-1.809,1.646,1.646,0,0,1,1.4-1.809A1.646,1.646,0,0,1,37.82,24.7" transform="translate(-8.076 -5.281)" fill="#1a1818"/>
        <path id="Caminho_2117" data-name="Caminho 2117" d="M37.808,24.639c.112,1.6-1.442,2.827-2.528,1.232-.764-1.077-.479-3.16,1.1-3.247,1.056.023,1.455,1.15,1.425,2.015m-.038,0c-.218-2.144-2.5-2.094-2.686,0-.129,2.212,2.556,2.139,2.686,0" transform="translate(-8.045 -5.219)" fill="#1a1818"/>
        <path id="Caminho_2118" data-name="Caminho 2118" d="M36.758,24.033a.655.655,0,1,1-.655-.655.655.655,0,0,1,.655.655" transform="translate(-8.177 -5.393)" fill="#fff"/>
        <path id="Caminho_2119" data-name="Caminho 2119" d="M58.859,24.429a1.848,1.848,0,1,0,3.637,0,1.848,1.848,0,1,0-3.637,0" transform="translate(-13.578 -5.133)" fill="#fff"/>
        <path id="Caminho_2120" data-name="Caminho 2120" d="M58.872,24.373c.138,2.62,3.624,2.71,3.512,0-.2-2.59-3.286-2.633-3.512,0m-.038,0c-.055-3.193,3.82-3.109,3.761,0-.227,2.99-3.756,3.18-3.761,0" transform="translate(-13.572 -5.078)" fill="#1a1818"/>
        <path id="Caminho_2121" data-name="Caminho 2121" d="M58.859,24.7a1.451,1.451,0,1,0,2.811,0,1.451,1.451,0,1,0-2.811,0" transform="translate(-13.578 -5.281)" fill="#1a1818"/>
        <path id="Caminho_2122" data-name="Caminho 2122" d="M58.871,24.639c.131,2.139,2.816,2.211,2.686,0-.182-2.095-2.469-2.143-2.686,0m-.039,0c-.03-.865.369-1.993,1.425-2.015,1.582.088,1.867,2.169,1.1,3.247-1.086,1.595-2.64.369-2.528-1.232" transform="translate(-13.57 -5.219)" fill="#1a1818"/>
        <path id="Caminho_2123" data-name="Caminho 2123" d="M60.371,24.033a.655.655,0,1,0,.655-.655.656.656,0,0,0-.655.655" transform="translate(-13.926 -5.393)" fill="#fff"/>
        <path id="Caminho_2124" data-name="Caminho 2124" d="M43.392,18.5c2.177-1.879,5.588-1.682,8-.356l-.012.036a9.986,9.986,0,0,0-7.986.32" transform="translate(-10.01 -3.95)" fill="#4c4c4c"/>
        <path id="Caminho_2125" data-name="Caminho 2125" d="M42.472,21.232a7.414,7.414,0,0,1,8.853-.809,4.815,4.815,0,0,1,1.049.84,8.768,8.768,0,0,0-9.9-.031" transform="translate(-9.797 -4.458)" fill="#4c4c4c"/>
        <path id="Caminho_2126" data-name="Caminho 2126" d="M42.476,23.239c2.771-1.78,6.957-2.35,9.566,0l-.022.032c-2.84-1.955-6.621-1.216-9.544-.033" transform="translate(-9.798 -5.002)" fill="#4c4c4c"/>
        <path id="Caminho_2127" data-name="Caminho 2127" d="M40.827,28.052c2.7-3.5,7.952-4.544,11.292-1.324a9.687,9.687,0,0,1,1.184,1.35c-.438-.4-.85-.823-1.309-1.192-3.6-2.977-8.072-1.813-11.167,1.166" transform="translate(-9.418 -5.719)" fill="#4c4c4c"/>
        <path id="Caminho_2128" data-name="Caminho 2128" d="M41.882,30.452c2.709-2.2,6.982-2.909,9.86-.638a10.773,10.773,0,0,1,1.074,1.044l-.027.028c-2.983-2.985-7.606-2.394-10.907-.434" transform="translate(-9.661 -6.556)" fill="#4c4c4c"/>
        <path id="Caminho_2129" data-name="Caminho 2129" d="M42.476,32.957c2.663-1.763,6.775-2.358,9.263,0l-.022.032c-2.727-1.965-6.42-1.2-9.241-.033" transform="translate(-9.798 -7.245)" fill="#4c4c4c"/>
        <path id="Caminho_2130" data-name="Caminho 2130" d="M41.117,38.572c.933-4.987,8.222-5.131,11.031-1.716a3.543,3.543,0,0,1,.789,1.725c-.819-2.46-3.567-3.573-5.983-3.656a5.439,5.439,0,0,0-5.837,3.647" transform="translate(-9.485 -7.965)" fill="#4c4c4c"/>
        <path id="Caminho_2131" data-name="Caminho 2131" d="M41.872,42.472a5.156,5.156,0,0,1,5.384-4.521c1.883.012,4.108.576,5.006,2.406a2.95,2.95,0,0,1,.263,1.863c.108-2.769-2.9-3.991-5.268-3.885a5.276,5.276,0,0,0-5.386,4.137" transform="translate(-9.659 -8.754)" fill="#4c4c4c"/>
        <path id="Caminho_2132" data-name="Caminho 2132" d="M9.521,32.356a8.241,8.241,0,0,1,2.246-5.375,7.094,7.094,0,0,1,6.57-3.3.029.029,0,0,1,0,.058c-2.63.667-5.345,1.709-6.912,4.028C10.621,29.182,10.2,31,9.521,32.356" transform="translate(-2.195 -5.457)" fill="#4c4c4c"/>
        <path id="Caminho_2133" data-name="Caminho 2133" d="M23.249,42.117a4.663,4.663,0,0,1,.236-3.305c.32-1.836,1-3.812,2.8-4.675a.03.03,0,0,1,.037.045,17,17,0,0,0-2.66,4.674c-.058.435-.138,3.116-.418,3.262" transform="translate(-5.315 -7.874)" fill="#4c4c4c"/>
        <path id="Caminho_2134" data-name="Caminho 2134" d="M23.319,5.863C25.4,5.73,26.71,7.477,27.844,8.956A7.183,7.183,0,0,1,29.1,14.377a.029.029,0,0,1-.058,0c-.127-.459-.211-.913-.291-1.363-.466-1.718-.7-3.657-1.939-5.028a13.547,13.547,0,0,0-3.5-2.067.029.029,0,0,1,.007-.057" transform="translate(-5.373 -1.351)" fill="#4c4c4c"/>
        <g id="Grupo_1498" data-name="Grupo 1498" transform="translate(23.866 7.908)" opacity="0.42">
          <g id="Grupo_1497" data-name="Grupo 1497">
            <g id="Grupo_1496" data-name="Grupo 1496" clip-path="url(#clip-path-5)">
              <path id="Caminho_2135" data-name="Caminho 2135" d="M31.294,12.253c-.3.857-.246,8.373-.246,8.373A14.54,14.54,0,0,0,33.339,28.9c.392.619,1.187,1.591,1.187,1.591l.48-2.059s-.72-.075-1.933-2.4-.707-8.89,0-12.527-1.059-3.209-1.059-3.209-.605,1.633-.721,1.959" transform="translate(-31.022 -10.279)" fill="#3d4342"/>
            </g>
          </g>
        </g>
        <path id="Caminho_2136" data-name="Caminho 2136" d="M42.161,46.969a4.312,4.312,0,0,1,1.664-3.02c2.658-1.842,8.565-1.376,8.242,2.787l-.038,0C51.834,43.912,48.7,43,46.3,43.177c-2.069.173-3.44,2.036-4.138,3.791" transform="translate(-9.726 -9.902)" fill="#4c4c4c"/>
        <path id="Caminho_2137" data-name="Caminho 2137" d="M60.009,59.486c.642.546.507,1.369.733,2.089a1.644,1.644,0,0,1-.711,2.044l-.025-.029a4.1,4.1,0,0,0,.482-2.532,3.389,3.389,0,0,1-.479-1.572" transform="translate(-13.841 -13.722)" fill="#4c4c4c"/>
        <path id="Caminho_2138" data-name="Caminho 2138" d="M57.662,59.163a1.983,1.983,0,0,1,.781,1.595,2.191,2.191,0,0,1-.782,2.746l-.028-.027a4.413,4.413,0,0,0,.689-2.691,6.045,6.045,0,0,1-.659-1.623" transform="translate(-13.295 -13.648)" fill="#4c4c4c"/>
        <path id="Caminho_2139" data-name="Caminho 2139" d="M55.978,58.782c.51.714.215,1.533.356,2.322.132.751-.065,1.907-.973,2.052l-.015-.035a4.061,4.061,0,0,0,.8-2.6,3.433,3.433,0,0,1-.172-1.74" transform="translate(-12.767 -13.56)" fill="#4c4c4c"/>
        <path id="Caminho_2140" data-name="Caminho 2140" d="M54.515,57.756a2.666,2.666,0,0,1,.1,1.982c-.049,1.134-.509,2.485-1.841,2.553l-.012-.037a3.887,3.887,0,0,0,1.729-2.532,5.966,5.966,0,0,1,.027-1.966" transform="translate(-12.17 -13.323)" fill="#4c4c4c"/>
        <path id="Caminho_2141" data-name="Caminho 2141" d="M53.176,55.7a3.816,3.816,0,0,1-.439,2.187c-.289,1.1-.785,2.95-2.283,2.669l0-.038a1.83,1.83,0,0,0,1.1-.786,6.607,6.607,0,0,0,1.06-1.881,5.923,5.923,0,0,1,.559-2.15" transform="translate(-11.638 -12.848)" fill="#4c4c4c"/>
        <path id="Caminho_2142" data-name="Caminho 2142" d="M52.41,53.228c-.276,1.217-1.224,2.026-1.765,3.1-.554.992-1.316,2.279-2.436,2.577a38.091,38.091,0,0,0,2.78-3.416,7.038,7.038,0,0,1,1.42-2.262" transform="translate(-11.121 -12.279)" fill="#4c4c4c"/>
        <path id="Caminho_2143" data-name="Caminho 2143" d="M45.794,55.91c.7-1.414,1.993-2.309,2.953-3.513a8.783,8.783,0,0,1,2.583-2.308c.236-.142.952-.416,1.137-.252a5.291,5.291,0,0,0-1.849,1.216L48.9,52.542c-1.178.964-1.872,2.535-3.1,3.367" transform="translate(-10.564 -11.485)" fill="#4c4c4c"/>
        <path id="Caminho_2144" data-name="Caminho 2144" d="M43.382,51.9c.555-3.287,4.567-5.029,7.582-4.141a5.772,5.772,0,0,1,1.271.509c-.455-.054-.895-.131-1.331-.215-4.067-.5-5.625.268-7.522,3.847" transform="translate(-10.007 -10.964)" fill="#4c4c4c"/>
        <path id="Caminho_2145" data-name="Caminho 2145" d="M63.979,13.9s.461-.619.712.8a26.433,26.433,0,0,1,.5,5.38c-.125,1.35-.544,7.514-2.222,8.647s1.782-3.259,1.656-7.792-.985-5.067-.649-7.032" transform="translate(-14.42 -3.176)" fill="#e5e5e4"/>
      </g>
    </g>
  </g>
</svg>
