<svg xmlns="http://www.w3.org/2000/svg" xmlns:xlink="http://www.w3.org/1999/xlink" width="44.96" height="50" viewBox="0 0 44.96 50">
  <defs>
    <clipPath id="clip-path">
      <rect id="Retângulo_152" data-name="Retângulo 152" width="44.96" height="50" fill="none"/>
    </clipPath>
  </defs>
  <g id="alfabeto_d_e001_fim" transform="translate(0 0)">
    <g id="Grupo_1488" data-name="Grupo 1488" transform="translate(0 0.001)" clip-path="url(#clip-path)">
      <path id="Caminho_2077" data-name="Caminho 2077" d="M33.167,36.879a5.013,5.013,0,0,0-.757,2.457,5.734,5.734,0,0,0-2.5-4.331,4.925,4.925,0,0,0,2.473.591,5.013,5.013,0,0,0,2.493-.568,5.019,5.019,0,0,0-1.708,1.852" transform="translate(-9.887 -11.572)" fill="#00abc4"/>
      <path id="Caminho_2078" data-name="Caminho 2078" d="M44.59,12.641A4.934,4.934,0,0,0,42.8,11.034L25.416,1A4.952,4.952,0,0,0,22.993.418h-.256A4.956,4.956,0,0,0,20.315,1L2.927,11.034a5.358,5.358,0,0,0-1.69,1.6l13.569,7.9,5.59,3.2a4.91,4.91,0,0,0,2.465.59,5.008,5.008,0,0,0,2.5-.572L30.993,20.5Z" transform="translate(-0.409 -0.139)" fill="#00abc4"/>
      <path id="Caminho_2079" data-name="Caminho 2079" d="M44.464,12.495a6.7,6.7,0,0,0-2.431-1.857l-2.75-1.516C36.543,7.6,31.07,4.5,28.353,2.947L25.638,1.376A4.816,4.816,0,0,0,22.811.556a4.846,4.846,0,0,0-2.868.729L17.2,2.812C12.656,5.322,8.069,7.979,3.6,10.628a5.9,5.9,0,0,0-2.3,1.979l-.06-.27c5.4,3.016,10.747,6.141,16.135,9.186a34.225,34.225,0,0,0,4.005,2.146,5.71,5.71,0,0,0,2.876,0,35.206,35.206,0,0,0,4.008-2.148c3.409-1.952,12.649-7.063,16.2-9.024m.065.016c-3.555,2.153-12.479,7.546-15.945,9.564a30.9,30.9,0,0,1-4.145,2.25,5.907,5.907,0,0,1-4.729-.657L17.024,22.13c-5.357-3.1-10.673-6.272-15.975-9.467A.186.186,0,0,1,.982,12.4a6.319,6.319,0,0,1,2.461-2.03c4.537-2.55,9.124-5.2,13.576-7.878L19.713.885A5.329,5.329,0,0,1,22.811,0a5.437,5.437,0,0,1,3.118.868L28.65,2.439c2.7,1.576,8.135,4.772,10.816,6.382l2.686,1.623a5.989,5.989,0,0,1,2.377,2.068" transform="translate(-0.316 0)" fill="#00577d"/>
      <path id="Caminho_2080" data-name="Caminho 2080" d="M22.6,56.134a4.384,4.384,0,0,1-2.3-.572L2.918,45.524a4.939,4.939,0,0,1-1.71-1.808c-.022-.038-.108-.189-.13-.223a4.978,4.978,0,0,1-.71-2.385V21.03A4.638,4.638,0,0,1,.95,18.674l13.593,7.888,5.567,3.215A5.708,5.708,0,0,1,22.6,34.093V56.134Z" transform="translate(-0.122 -6.174)" fill="#00abc4"/>
      <path id="Caminho_2081" data-name="Caminho 2081" d="M22.5,56.063a4.977,4.977,0,0,1-3.024-.87l-2.753-1.518c-2.74-1.53-8.232-4.621-10.95-6.185L3.055,45.916A5.428,5.428,0,0,1,.767,43.623a5.389,5.389,0,0,1-.751-3.14L.064,37.34c.1-5.2.093-10.509.032-15.717a5.546,5.546,0,0,1,.57-3.142.188.188,0,0,1,.258-.065c5.187,2.888,10.9,6.185,16.092,9.145a31.294,31.294,0,0,1,4,2.478,6.241,6.241,0,0,1,1.788,3.6c.04.552-.007,3.286,0,3.887-.011,3.957-.216,14.451-.3,18.533m-.047-.048c-.082-4.1-.284-14.526-.3-18.485l-.017-3.085a4.683,4.683,0,0,0-.736-2.763,4.73,4.73,0,0,0-2.071-1.972l-2.672-1.543C11.5,25.154,5.829,21.81.733,18.745l.258-.066a5.233,5.233,0,0,0-.6,2.943C.338,26.834.329,32.137.428,37.34l.048,3.144a4.887,4.887,0,0,0,.767,2.86,4.782,4.782,0,0,0,2.1,2.067l2.723,1.568c2.709,1.568,8.141,4.782,10.828,6.388l2.692,1.626a5.352,5.352,0,0,0,2.868,1.023" transform="translate(0 -6.08)" fill="#00577d"/>
      <path id="Caminho_2082" data-name="Caminho 2082" d="M33.582,56.135a4.386,4.386,0,0,0,2.3-.572L53.267,45.525a4.95,4.95,0,0,0,1.71-1.808c.021-.038.108-.189.129-.223a4.971,4.971,0,0,0,.71-2.385V21.031a3.864,3.864,0,0,0-.533-2.354L41.641,26.563l-5.566,3.215a5.714,5.714,0,0,0-2.494,4.316V56.135Z" transform="translate(-11.102 -6.175)" fill="#00abc4"/>
      <path id="Caminho_2083" data-name="Caminho 2083" d="M33.438,56.018a5.354,5.354,0,0,0,2.868-1.024L39,53.369c2.689-1.617,8.119-4.81,10.828-6.389l2.723-1.568a4.776,4.776,0,0,0,2.1-2.066,4.883,4.883,0,0,0,.767-2.861l.048-3.144c.1-5.2.091-10.51.033-15.718a4.859,4.859,0,0,0-.539-2.929l.25.055c-5.1,3.055-10.8,6.4-15.958,9.409L36.58,29.7a5.277,5.277,0,0,0-2.827,4.728l-.017,3.087c-.015,3.921-.216,14.451-.3,18.5m-.047.048c-.084-4.145-.284-14.547-.3-18.548,0-.623-.044-3.318,0-3.892a6.263,6.263,0,0,1,1.8-3.6,32.587,32.587,0,0,1,4-2.474c5.2-2.961,10.913-6.244,16.119-9.131a.188.188,0,0,1,.25.054,5.125,5.125,0,0,1,.527,3.149c-.062,5.211-.064,10.515.033,15.718l.048,3.144a5.96,5.96,0,0,1-3.038,5.433l-2.722,1.575c-2.719,1.554-8.212,4.667-10.951,6.186L36.415,55.2a4.977,4.977,0,0,1-3.024.87" transform="translate(-10.934 -6.081)" fill="#00577d"/>
      <path id="Caminho_2084" data-name="Caminho 2084" d="M7.09,34.537a4.713,4.713,0,0,1-.675-2.273c0-1.469,1.034-2.066,2.313-1.335a4.718,4.718,0,0,1,1.629,1.721,4.72,4.72,0,0,1,.675,2.271c-.006,1.469-1.038,2.066-2.311,1.335a4.713,4.713,0,0,1-1.631-1.72" transform="translate(-2.121 -10.122)" fill="#002734"/>
      <path id="Caminho_2085" data-name="Caminho 2085" d="M7.374,49.744A4.686,4.686,0,0,1,6.7,47.467c0-1.466,1.032-2.062,2.309-1.334a4.73,4.73,0,0,1,1.633,1.722,4.709,4.709,0,0,1,.673,2.269c-.008,1.474-1.039,2.069-2.311,1.334a4.679,4.679,0,0,1-1.634-1.714" transform="translate(-2.217 -15.149)" fill="#002734"/>
      <path id="Caminho_2086" data-name="Caminho 2086" d="M20.391,42.517a4.663,4.663,0,0,1-.672-2.273c0-1.471,1.034-2.066,2.311-1.335A5.1,5.1,0,0,1,24.337,42.9c-.009,1.47-1.039,2.065-2.314,1.334a4.7,4.7,0,0,1-1.632-1.719" transform="translate(-6.519 -12.76)" fill="#002734"/>
      <path id="Caminho_2087" data-name="Caminho 2087" d="M20.676,57.722A4.72,4.72,0,0,1,20,55.445c0-1.466,1.036-2.063,2.311-1.334A5.1,5.1,0,0,1,24.62,58.1c-.005,1.471-1.037,2.066-2.312,1.335a4.693,4.693,0,0,1-1.632-1.716" transform="translate(-6.613 -17.786)" fill="#002734"/>
      <path id="Caminho_2088" data-name="Caminho 2088" d="M15.032,14.181a4.893,4.893,0,0,0-2.4.579c-1.333.767-1.333,2.014,0,2.781a4.92,4.92,0,0,0,2.4.574,4.91,4.91,0,0,0,2.4-.574c1.325-.767,1.325-2.014,0-2.781a4.884,4.884,0,0,0-2.4-.579" transform="translate(-3.844 -4.688)" fill="#002734"/>
      <path id="Caminho_2089" data-name="Caminho 2089" d="M48.779,14.181a4.9,4.9,0,0,0-2.4.579c-1.327.767-1.327,2.014,0,2.781a5.309,5.309,0,0,0,4.8,0c1.335-.767,1.335-2.014,0-2.781a4.872,4.872,0,0,0-2.4-.579" transform="translate(-15.002 -4.688)" fill="#002734"/>
      <path id="Caminho_2090" data-name="Caminho 2090" d="M31.906,14a4.872,4.872,0,0,0-2.4.58c-1.327.768-1.327,2.009,0,2.781a5.324,5.324,0,0,0,4.8,0c1.323-.773,1.323-2.013,0-2.781a4.882,4.882,0,0,0-2.4-.58" transform="translate(-9.425 -4.628)" fill="#002734"/>
      <path id="Caminho_2091" data-name="Caminho 2091" d="M49.207,44.089a5.02,5.02,0,0,0-.714,2.415c.005,1.563,1.1,2.2,2.457,1.418a5.422,5.422,0,0,0,2.449-4.24c-.008-1.563-1.1-2.2-2.456-1.418a4.977,4.977,0,0,0-1.735,1.825" transform="translate(-16.031 -13.862)" fill="#002734"/>
      <path id="Caminho_2092" data-name="Caminho 2092" d="M60.313,22.859c-.264.189,2.618-.689,2.571.389-.052,1.171-.171,18.917-.171,18.917s-.039,2.177-.912,2.453c-.7.22,1.005.89,1.568-1.427.679-2.8.228-20.02.228-20.02s.3-2.488-3.282-.311" transform="translate(-19.933 -7.262)" fill="#fff"/>
    </g>
  </g>
</svg>
