<svg xmlns="http://www.w3.org/2000/svg" xmlns:xlink="http://www.w3.org/1999/xlink" width="33.57" height="50" viewBox="0 0 33.57 50">
  <defs>
    <clipPath id="clip-path">
      <rect id="Retângulo_150" data-name="Retângulo 150" width="33.57" height="50" transform="translate(0 0)" fill="none"/>
    </clipPath>
  </defs>
  <g id="alfabeto_b_fim" transform="translate(0 0)">
    <g id="Grupo_1484" data-name="Grupo 1484" transform="translate(0 0)" clip-path="url(#clip-path)">
      <path id="Caminho_2049" data-name="Caminho 2049" d="M41.925,20.683s-3.251-.281-4.372.941l.874,6.767,2.579.373Z" transform="translate(-12.089 -6.649)" fill="#ffe5b1"/>
      <path id="Caminho_2050" data-name="Caminho 2050" d="M41.876,20.685c-1.4-.077-3.342.079-4.29.922l.941,6.757-.117-.118L41,28.589l-.191.147c.289-2.707.663-5.326,1.072-8.051m.026-.022c-.2,2.661-.441,5.429-.765,8.111l-.02.174-.171-.027-2.575-.4-.1-.016-.012-.1-.806-6.775,0-.033.022-.022c1.188-1.056,2.939-.978,4.436-.905" transform="translate(-12.054 -6.639)" fill="#ebbe76"/>
      <path id="Caminho_2051" data-name="Caminho 2051" d="M44.658,29.7l-2.24-1.3s-1.969-7.677.747-7.954,1.969,7.922,1.493,9.252" transform="translate(-13.433 -6.579)" fill="#f5a500"/>
      <path id="Caminho_2052" data-name="Caminho 2052" d="M44.632,29.741c-.742-.37-1.558-.771-2.356-1.2a16.8,16.8,0,0,1-.647-4.661c.056-1.093-.024-2.594,1.08-3.217a1.5,1.5,0,0,1,1.989.991,13.541,13.541,0,0,1-.066,8.09m-.012-.032a22.084,22.084,0,0,0,.091-6.854,3.063,3.063,0,0,0-.92-1.936,1.085,1.085,0,0,0-1-.083c-1.619.936-.916,3.78-.718,5.321.138.755.262,1.517.441,2.261l-.061-.079c.707.425,1.406.884,2.171,1.37" transform="translate(-13.4 -6.607)" fill="#f49707"/>
      <path id="Caminho_2053" data-name="Caminho 2053" d="M15.851,29.235S7.818,24.112,3.2,32c0,0,2.919-5.958,10.386.559a6.617,6.617,0,0,1,2.261,5.809s.749-7.913,0-9.135" transform="translate(-1.031 -8.884)" fill="#ffe5b1"/>
      <path id="Caminho_2054" data-name="Caminho 2054" d="M15.795,29.231c-3.668-2.2-8.739-2.325-11.512,1.323-.387.462-.687.993-1.035,1.485l-.183-.1c2.118-3.812,6.513-2.755,9.389-.475a7.772,7.772,0,0,1,3.082,3.643,7.531,7.531,0,0,1,.422,3.256l-.305-.026c.224-2.278.408-4.57.407-6.86a6.627,6.627,0,0,0-.264-2.248m.024-.024a13.243,13.243,0,0,1,.385,4.569c-.04,1.532-.128,3.062-.247,4.592l-.305-.026a7.819,7.819,0,0,0-.433-3.114,7.625,7.625,0,0,0-2.956-3.505c-2.73-2.219-6.934-3.336-9.011.309l-.183-.1A10.576,10.576,0,0,1,5.459,29.15c2.939-2.449,7.277-1.805,10.36.057" transform="translate(-0.987 -8.869)" fill="#ebbe76"/>
      <path id="Caminho_2055" data-name="Caminho 2055" d="M18.55,29.027s1.493-14.256-7.06-25.8A1.96,1.96,0,0,1,12.305.516c1.765-1.222,9.1.814,12.9,6.245s5.657,14.8,5.657,14.8S29.819,39.346,18.55,29.027" transform="translate(-3.617 -0.056)" fill="#ffe5b1"/>
      <path id="Caminho_2056" data-name="Caminho 2056" d="M23.684,2.787a29.488,29.488,0,0,1,8.722,19.124l2.462.49S31.412,6.134,23.684,2.787" transform="translate(-7.624 -0.897)" fill="#ffd493"/>
      <path id="Caminho_2057" data-name="Caminho 2057" d="M18.486,28.978a42.63,42.63,0,0,0-2.362-16.758c-.4-1.023-.815-2.152-1.309-3.138A35.057,35.057,0,0,0,11.356,3.23a2.126,2.126,0,0,1,.9-2.89C13.947-.429,15.9.272,17.546.809a17.226,17.226,0,0,1,7,4.871c3.536,4.562,5.158,10.29,6.43,15.834-.707,8.2-4.6,15.044-12.5,7.464m.032-.012c7.919,7.228,11.488.647,12.124-7.471-1.234-5.24-2.878-11.17-6.316-15.627A16.889,16.889,0,0,0,17.46,1.039C15.863.5,13.988-.17,12.371.526a1.918,1.918,0,0,0-.844,2.6A35.143,35.143,0,0,1,14.967,9.01c.492,1,.9,2.13,1.294,3.161a42.637,42.637,0,0,1,2.256,16.8" transform="translate(-3.568 0)" fill="#ebbe76"/>
      <path id="Caminho_2058" data-name="Caminho 2058" d="M21.853,39.4s.794-8.658,7.854-8.591c5.431.052,8.17,1.921,9.145,2.781a2.093,2.093,0,0,1,.6.917c.863,2.59,4.132,14.776-7.987,21.683a.3.3,0,0,1-.269.014l-2.579-1.14a.283.283,0,0,1-.171-.3c.416-2.794,4.547-31.948-6.6-15.363" transform="translate(-7.035 -9.918)" fill="#ffe5b1"/>
      <path id="Caminho_2059" data-name="Caminho 2059" d="M21.844,39.406c.391-3.705,2.464-7.87,6.465-8.544,3.723-.355,7.953.29,10.818,2.872a6.553,6.553,0,0,1,.882,2.407c1.073,4.536.78,9.565-1.643,13.624a7,7,0,0,1-.692,1.077,14.575,14.575,0,0,1-1.627,1.973,21.4,21.4,0,0,1-2.387,2.129c-.349.233-1.25.811-1.609,1.048-.275.163-.642.537-.989.321l-.291-.127c-.394-.17-1.368-.6-1.745-.767a2.917,2.917,0,0,1-.622-.311c-.222-.218-.087-.514-.069-.751l.088-.629c.76-6,3.719-29.322-6.578-14.321m.012-.032c10.411-15.808,7.764,9.3,6.765,15.345-.039.213.068.16.25.264.186.085.681.3.872.385.279.117,1.292.587,1.556.688a.148.148,0,0,0,.073-.009l.515-.328c.363-.231,1.245-.8,1.593-1.023a21.227,21.227,0,0,0,2.361-2.08,17.951,17.951,0,0,0,1.988-2.437A16.831,16.831,0,0,0,40.38,41.2a21.661,21.661,0,0,0-.882-6.238,2.753,2.753,0,0,0-.51-1.111,12.155,12.155,0,0,0-6.879-2.826c-6.146-1.108-9.394,2.592-10.254,8.349" transform="translate(-7.032 -9.906)" fill="#ebbe76"/>
      <path id="Caminho_2060" data-name="Caminho 2060" d="M21.515,55.119c-3.258,5.023-9.571,4.956-11.744,4.548a16.8,16.8,0,0,0-6.034.272c-.331.2-1.433,1.222-1.433,1.222C1.15,60.21.2,56.409.2,56.409,12.012,55.73,15,40.388,15,40.388S16.7,35.7,18.936,35.5c0,0,4.085-.966,3.53,7.264-.494,7.318-.951,12.355-.951,12.355" transform="translate(-0.064 -11.416)" fill="#f5a500"/>
      <path id="Caminho_2061" data-name="Caminho 2061" d="M13.03,33.52S6.386,27.287,2.4,32.96c0,0-2.919,3.546-1.086,13.049H3.622s1.194-11,9.408-12.489" transform="translate(-0.228 -9.842)" fill="#f5a500"/>
      <path id="Caminho_2062" data-name="Caminho 2062" d="M21.474,55.028c-2.36,3.954-7.418,5.44-11.792,4.754A17.439,17.439,0,0,0,3.839,60a12.367,12.367,0,0,0-1.473,1.2l-.127.113a3.687,3.687,0,0,1-.915-1.228A18.785,18.785,0,0,1,0,56.209a13.148,13.148,0,0,0,9.98-5.446A27.236,27.236,0,0,0,14.7,40.2c.794-1.872,2.184-5.318,4.659-5.032A3.718,3.718,0,0,1,22,37.6c.9,2.243.637,4.673.5,7-.225,3.488-.519,6.956-1.028,10.422m-.047-.018c.317-3.46.547-6.949.69-10.424.084-2.27.254-4.652-.593-6.784a3.2,3.2,0,0,0-2.255-2.108c-2.032-.212-3.424,3.11-4.1,4.678a27.885,27.885,0,0,1-1.9,5.542C10.9,51.233,6.252,56.108.141,56.416l.1-.133a23.051,23.051,0,0,0,.832,2.472,6.052,6.052,0,0,0,1.286,2.162l-.245.007c.324-.306.65-.608.989-.9a2.04,2.04,0,0,1,1.287-.574,16.858,16.858,0,0,1,5.372-.089,12.283,12.283,0,0,0,2.6.166c3.482-.094,7.078-1.544,9.064-4.513" transform="translate(0 -11.316)" fill="#f49707"/>
      <path id="Caminho_2063" data-name="Caminho 2063" d="M12.987,33.4C9.843,30.557,4.7,28.669,2.159,33.241.255,37.131.6,41.725,1.422,45.865l-.134-.111L3.6,45.731l-.158.142C4.125,40.534,7.12,34.26,12.987,33.4m.033.01c-5.731,1.191-8.468,7.227-9.266,12.5l-.02.143H3.6l-2.308-.023H1.174l-.019-.109c-.7-4.225-.932-8.755.8-12.779,2.473-4.821,8.053-2.951,11.069.269" transform="translate(-0.202 -9.723)" fill="#f49707"/>
      <path id="Caminho_2064" data-name="Caminho 2064" d="M.711,66.353s.638,3.351,1.792,4.3a18.378,18.378,0,0,1,1.422-1.231s1.316-.214,1.841-.261l-1.519-3.6a21.939,21.939,0,0,1-3.536.789" transform="translate(-0.229 -21.105)" fill="#311e0d"/>
      <path id="Caminho_2065" data-name="Caminho 2065" d="M.711,66.353s.638,3.351,1.792,4.3a18.378,18.378,0,0,1,1.422-1.231s1.316-.214,1.841-.261l-1.519-3.6A21.939,21.939,0,0,1,.711,66.353Z" transform="translate(-0.229 -21.105)" fill="none" stroke="#311e0d" stroke-miterlimit="10" stroke-width="1"/>
      <path id="Caminho_2066" data-name="Caminho 2066" d="M13.6,69.548s-1.124.1-.742.574,1.105-.475.742-.574" transform="translate(-4.112 -22.388)" fill="#311e0d"/>
      <path id="Caminho_2067" data-name="Caminho 2067" d="M11.464,67.059s-.271-1.1-.683-.643.642,1.017.683.643" transform="translate(-3.44 -21.344)" fill="#311e0d"/>
      <path id="Caminho_2068" data-name="Caminho 2068" d="M18.536,70.338s.823.772.923.168-1.092-.5-.923-.168" transform="translate(-5.962 -22.555)" fill="#311e0d"/>
      <path id="Caminho_2069" data-name="Caminho 2069" d="M16.223,68.712s.867-.118.652.286-.911-.155-.652-.286" transform="translate(-5.204 -22.114)" fill="#311e0d"/>
      <path id="Caminho_2070" data-name="Caminho 2070" d="M13.025,4.657s0-1.052-.43-1.1a.472.472,0,0,0-.431.765c.239.382.622,1,.86.334" transform="translate(-3.885 -1.144)" fill="#fff"/>
      <path id="Caminho_2071" data-name="Caminho 2071" d="M13.478,6.1a31.375,31.375,0,0,1,3.064,6.142s.5-1.6-1.027-4.158A4.718,4.718,0,0,0,13.478,6.1" transform="translate(-4.339 -1.962)" fill="#fff"/>
    </g>
  </g>
</svg>
