<svg xmlns="http://www.w3.org/2000/svg" xmlns:xlink="http://www.w3.org/1999/xlink" width="58.584" height="50" viewBox="0 0 58.584 50">
  <defs>
    <clipPath id="clip-path">
      <rect id="Retângulo_166" data-name="Retângulo 166" width="58.584" height="50" transform="translate(0 0)" fill="none"/>
    </clipPath>
  </defs>
  <g id="alfabeto_m_e001_fim" transform="translate(0 0)">
    <g id="Grupo_1520" data-name="Grupo 1520" transform="translate(0 0)" clip-path="url(#clip-path)">
      <path id="Caminho_2276" data-name="Caminho 2276" d="M12.157,5.505a15.524,15.524,0,0,1,3.833,2.32c1.412,1.311,5.85,4.337,5.85,4.337S29.749,17,30.535,18.113a14.435,14.435,0,0,0,4.921,3.53c1.412.5,9.582,5.85,10.086,6.757s9.222,6.131,9.222,6.131S39.525,57.8,20.73,42.722C3.576,28.96,2.575,14.366,12.157,5.505" transform="translate(-2.111 -1.908)" fill="#e60d2b"/>
      <path id="Caminho_2277" data-name="Caminho 2277" d="M12.113,5.48A19.92,19.92,0,0,1,17.518,9c1.736,1.27,3.467,2.558,5.307,3.673,2.285,1.43,4.586,2.846,6.757,4.45a5.309,5.309,0,0,1,1.191,1.123A15.528,15.528,0,0,0,34.6,21.1a58.355,58.355,0,0,1,9.59,6c.91.592,1.523,1.516,2.418,2.127,2.625,1.879,5.4,3.555,8.146,5.244-4.636,6.9-12.677,13.612-21.532,13.448-5.373-.072-10.234-2.892-14.164-6.359a50.606,50.606,0,0,1-7.295-7.581c-6.916-8.741-8.6-20.485.351-28.5m.006.032c-8.745,8.207-6.974,19.5-.1,28.274a50.294,50.294,0,0,0,7.239,7.542c3.886,3.44,8.666,6.205,13.971,6.333,8.937.291,16.62-6.542,21.464-13.086-1.85-1.106-3.689-2.231-5.506-3.392a19.29,19.29,0,0,1-3.894-2.895A67.385,67.385,0,0,0,33.07,20.512a13.636,13.636,0,0,1-2.5-2.1,5.047,5.047,0,0,0-1.144-1.093c-2.151-1.613-4.436-3.041-6.707-4.484-1.836-1.133-3.567-2.429-5.292-3.723a20.2,20.2,0,0,0-5.309-3.6" transform="translate(-2.071 -1.899)" fill="#d50029"/>
      <path id="Caminho_2278" data-name="Caminho 2278" d="M14.52,6.818a3.329,3.329,0,0,1,0,2.622c-.605,1.412-1.715,3.934-1.614,4.841s3.429,7.363,2.622,9.279-1.9,3.246-1.252,4.145,3.471,1.907,3.672,3.621,1.21,5.447,2.119,6.455,2.724,1.613,2.824,2.824,2.926.605,3.43,2.017,6.3.706,6.576,2.017l2,2.32L20.509,43.329l-9.418-11.9-2.574-9.38,1.868-11.1Z" transform="translate(-2.951 -2.363)" fill="#d0001c"/>
      <path id="Caminho_2279" data-name="Caminho 2279" d="M53.944,33.728l4.774,3.03S34.074,63.684,13.9,41.595,10.077,3.559,10.077,3.559l2.817,2.13S1.629,19.88,13.6,34.938s33.485,10.591,40.344-1.21" transform="translate(-1.326 -1.233)" fill="#dfeabb"/>
      <path id="Caminho_2280" data-name="Caminho 2280" d="M53.9,33.629l4.807,3,.056.035-.044.047c-8,8.128-19.352,15.417-31.222,13.2-6.354-1.28-11.564-5.529-15.54-10.47C6.09,32.39,1.974,22.894,4.444,13.662A23.838,23.838,0,0,1,9.956,3.393l.069-.073.084.063L12.932,5.5l.1.075C5.2,16.452,7.209,29.9,17.319,38.507c10.519,9.21,29.115,7.262,36.582-4.878m.008.032c-3.323,5.7-9.586,9.276-15.978,10.44a24.969,24.969,0,0,1-22.619-7.038c-5.847-5.841-8.9-14.509-6.705-22.634a25.671,25.671,0,0,1,4.148-8.9l.023.182L9.967,3.57l.152-.01A23.557,23.557,0,0,0,4.6,13.7c-3.116,11.7,4,23.378,12.6,30.835,9.835,8.428,22.321,6.25,32.407-.493a64.854,64.854,0,0,0,9.041-7.326l-4.741-3.059" transform="translate(-1.287 -1.15)" fill="#c0ca9d"/>
      <path id="Caminho_2281" data-name="Caminho 2281" d="M56.462,34.876c-1.015,1.533-12.236,17.513-34.226,10.01C-.848,37.011,4.765,12.478,4.765,11.664c0-.756,3.578-8.2,4.1-9.275L5.627.181S.987,9.763.987,10.67-5.266,38.911,20.454,47.686,58.68,36.39,58.68,36.39Z" transform="translate(-0.11 -0.063)" fill="#368b34"/>
      <path id="Caminho_2282" data-name="Caminho 2282" d="M56.385,34.829A28.144,28.144,0,0,1,37.879,46.574C28.814,47.917,18.428,45.118,11.7,38.8,4.55,32.006,3,21.326,4.583,11.973A21.015,21.015,0,0,1,6.334,7.384Q7.5,4.826,8.716,2.294l.024.09L5.5.184,5.618.153c-.9,1.887-1.8,3.781-2.663,5.686C2.158,7.747,1.049,9.6.862,11.692c-1.947,12.448,1.5,26.119,13,32.766,15.318,8.741,34.114,6.786,44.715-8.145l.008.036Zm-.007-.032L58.613,36.3A31.4,31.4,0,0,1,37.973,49.554,37.573,37.573,0,0,1,13.7,44.729C2.088,37.977-1.413,24.249.639,11.659c.046-.206.135-.936.178-1.158A12.188,12.188,0,0,1,1.5,8.63C2.761,5.717,4.137,2.858,5.515,0l.076.052L8.821,2.266l.052.035-.027.056q-1.223,2.528-2.4,5.077a20.959,20.959,0,0,0-1.762,4.554,38.547,38.547,0,0,0-.136,11.87C6.294,36.122,14.942,43.5,26.725,45.943A28.426,28.426,0,0,0,56.378,34.8" transform="translate(-0.03 0)" fill="#2f7330"/>
      <path id="Caminho_2283" data-name="Caminho 2283" d="M.1,24.246S2.4,27.687,1.516,30.175s.983,6.182.983,6.182,2.535,4.136,3.066,6.993,5.364,6.186,5.364,6.186,6.008.594,5.917,2.824,4.169,2.272,4.169,2.272,3.5-.255,4.572,1.225,5.341.328,6.354,1.025a12.111,12.111,0,0,0,3.378,1.387S15.754,60.615,5.365,45.587c0,0-6.2-7.161-5.27-21.341" transform="translate(0 -8.402)" fill="#214d22"/>
      <path id="Caminho_2284" data-name="Caminho 2284" d="M17.029,23.438c-.769.643-1.132,1.476-.811,1.861s1.206.175,1.975-.468,1.132-1.476.81-1.861-1.206-.175-1.975.468" transform="translate(-5.58 -7.893)" fill="#1a1818"/>
      <path id="Caminho_2285" data-name="Caminho 2285" d="M19.859,35.5c-.182.986.071,1.859.565,1.95s1.04-.635,1.221-1.622-.071-1.858-.564-1.949-1.04.635-1.221,1.621" transform="translate(-6.861 -11.736)" fill="#1a1818"/>
      <path id="Caminho_2286" data-name="Caminho 2286" d="M32.437,29.687c-.868.5-1.369,1.26-1.118,1.694s1.157.38,2.026-.122,1.369-1.26,1.119-1.694-1.158-.38-2.026.122" transform="translate(-10.831 -10.144)" fill="#1a1818"/>
      <path id="Caminho_2287" data-name="Caminho 2287" d="M30.237,42.628c.331.947.982,1.58,1.455,1.415s.589-1.067.259-2.013-.981-1.58-1.455-1.415-.589,1.066-.259,2.013" transform="translate(-10.413 -14.066)" fill="#1a1818"/>
      <path id="Caminho_2288" data-name="Caminho 2288" d="M46.847,58.173c-.658.757-.885,1.637-.506,1.966s1.219-.018,1.877-.774.884-1.637.506-1.966-1.218.018-1.876.774" transform="translate(-15.996 -19.848)" fill="#1a1818"/>
      <path id="Caminho_2289" data-name="Caminho 2289" d="M58.515,58.162c-.98.215-1.687.785-1.579,1.276s.988.712,1.968.5,1.687-.786,1.579-1.276-.988-.713-1.968-.5" transform="translate(-19.727 -20.127)" fill="#1a1818"/>
      <path id="Caminho_2290" data-name="Caminho 2290" d="M54.2,48.907c.215.98.785,1.687,1.276,1.579s.712-.987.5-1.968-.786-1.686-1.276-1.579-.713.989-.5,1.968" transform="translate(-18.753 -16.263)" fill="#1a1818"/>
      <path id="Caminho_2291" data-name="Caminho 2291" d="M68.944,50.34s.423-.576.722-.282S66.827,56.768,55,59.4c0,0-2.276.605-.643-.007s1.9-.609,2.013-.783a2.537,2.537,0,0,1,1.445-.65,2.978,2.978,0,0,0,2.735-1.091c1.073-1.25,4.672-1.8,4.945-2.5A14.7,14.7,0,0,1,67.83,51.8Z" transform="translate(-18.632 -17.318)" fill="#fff"/>
    </g>
  </g>
</svg>
