<svg id="alfabeto_u_e001_fim" xmlns="http://www.w3.org/2000/svg" xmlns:xlink="http://www.w3.org/1999/xlink" width="38.209" height="50" viewBox="0 0 38.209 50">
  <defs>
    <clipPath id="clip-path">
      <rect id="Ret창ngulo_194" data-name="Ret창ngulo 194" width="38.209" height="50" fill="none"/>
    </clipPath>
    <clipPath id="clip-path-3">
      <rect id="Ret창ngulo_192" data-name="Ret창ngulo 192" width="4.139" height="7.262" fill="none"/>
    </clipPath>
  </defs>
  <g id="Grupo_1557" data-name="Grupo 1557" clip-path="url(#clip-path)">
    <g id="Grupo_1556" data-name="Grupo 1556" transform="translate(0 0)">
      <g id="Grupo_1555" data-name="Grupo 1555" clip-path="url(#clip-path)">
        <path id="Caminho_2485" data-name="Caminho 2485" d="M30.36,13.182s1.6-4.911,1.418-7.774L30.052,7.075,28.192.648S24.264,3.923,20.883.209c0,0-.9,3.812.657,4.948a18.726,18.726,0,0,0-3.224.5s1.786,5.67,5.076,5.771l-2.769,1.24s6.988,3.839,9.736.52" transform="translate(-8.89 -0.101)" fill="#214d22"/>
        <path id="Caminho_2486" data-name="Caminho 2486" d="M30.21,13.075a26.818,26.818,0,0,0,1.334-7.762l.161.062L29.991,7.053l-.131.128L29.807,7c-.539-1.861-1.293-4.545-1.826-6.436L28.1.605a6.838,6.838,0,0,1-1.8.978A5.026,5.026,0,0,1,20.7.146l.1-.025A10.518,10.518,0,0,0,20.565,2.7a2.83,2.83,0,0,0,1.092,2.43,17.911,17.911,0,0,0-3.433.534l.066-.144c.926,2.459,2.462,5.782,5.523,5.7-.292.128-2.917,1.3-3.277,1.457l.009-.221c2.719,1.355,7.175,3.231,9.665.622m.023.012c-2.445,2.755-7.023.908-9.806-.417l-.224-.116.233-.106L23.2,11.2l.05.253c-2.9-.3-4.283-3.454-5.184-5.867l-.034-.106A14.507,14.507,0,0,1,21.4,4.963l-.048.168a2.189,2.189,0,0,1-.727-1.123A8.376,8.376,0,0,1,20.712,0a6.561,6.561,0,0,0,1.649,1.314c1.8,1.018,4.094.392,5.645-.825l.09-.071.032.108c.546,1.9,1.369,4.542,1.894,6.416l-.184-.049,1.736-1.655.151-.144a23.728,23.728,0,0,1-1.491,7.993" transform="translate(-8.752 0)" fill="#152816"/>
        <path id="Caminho_2487" data-name="Caminho 2487" d="M35.139,18.229a10.461,10.461,0,0,1-3.906-3.471,9.465,9.465,0,0,1-2.046-4.809l.025-.005a16.12,16.12,0,0,0,2.928,5.77,31.37,31.37,0,0,0,3,2.516" transform="translate(-14.166 -4.826)" fill="#152816"/>
        <path id="Caminho_2488" data-name="Caminho 2488" d="M28.343,16.711c.7-.047,1.385-.027,2.07-.136a3.356,3.356,0,0,0,2.141-2.447l.025,0a2.356,2.356,0,0,1-1.469,2.3,3.674,3.674,0,0,1-2.767.282" transform="translate(-13.757 -6.858)" fill="#152816"/>
        <path id="Caminho_2489" data-name="Caminho 2489" d="M31.978,22.222a10.717,10.717,0,0,0,1.546-.038A3.417,3.417,0,0,0,35,20.825c.089-.1.225-.409.325-.424a2.311,2.311,0,0,1-1.78,1.862,1.576,1.576,0,0,1-1.57-.041" transform="translate(-15.521 -9.902)" fill="#152816"/>
        <path id="Caminho_2490" data-name="Caminho 2490" d="M40.035,17.763s4.492-9.117,6.821-10.514,2.462,0,2.462,0,.6,1.8-.4,2-2.063.4-2.063.4-3.393,2.638-5.29,8.672" transform="translate(-19.432 -3.217)" fill="#8a4d1a"/>
        <path id="Caminho_2491" data-name="Caminho 2491" d="M40.013,17.693a39.718,39.718,0,0,1,6.063-9.909c.646-.706,2.873-2.141,3.308-.607a2.671,2.671,0,0,1,.094,1.661c-.248.584-1.032.5-1.534.653l-1.075.216a22.109,22.109,0,0,0-5.325,8.543,17.96,17.96,0,0,1,5.278-8.795l1.077-.2c.351-.07.733-.127,1.061-.2s.427-.446.433-.788a3.736,3.736,0,0,0-.161-1.068c-.106-.713-.992-.623-1.5-.391-1.864.686-2.812,2.607-3.845,4.175-1.365,2.173-2.595,4.538-3.87,6.717" transform="translate(-19.421 -3.152)" fill="#703e17"/>
        <path id="Caminho_2492" data-name="Caminho 2492" d="M28.383,60.957c0,2.447-2.339,4.43-5.224,4.43s-5.224-1.983-5.224-4.43,2.339-4.43,5.224-4.43,5.224,1.983,5.224,4.43" transform="translate(-8.705 -27.436)" fill="#4d2c51"/>
        <path id="Caminho_2493" data-name="Caminho 2493" d="M28.293,60.71c-.124,4.44-5.716,5.978-8.838,3.319a4.2,4.2,0,0,1-.1-6.764c3.1-2.619,8.879-.943,8.935,3.444m-.051,0c-.18-4.023-5.782-5.277-8.586-3.063a3.815,3.815,0,0,0-.1,6.251c2.853,2.175,8.511.812,8.683-3.188" transform="translate(-8.589 -27.189)" fill="#351b39"/>
        <path id="Caminho_2494" data-name="Caminho 2494" d="M38.534,64.152c0,2.447-2.339,4.43-5.224,4.43s-5.224-1.983-5.224-4.43,2.339-4.43,5.224-4.43,5.224,1.983,5.224,4.43" transform="translate(-13.632 -28.987)" fill="#4d2c51"/>
        <path id="Caminho_2495" data-name="Caminho 2495" d="M38.443,63.905c-.124,4.44-5.716,5.978-8.838,3.319a4.2,4.2,0,0,1-.1-6.763c3.1-2.62,8.879-.943,8.936,3.444m-.051,0c-.18-4.023-5.782-5.277-8.586-3.063a3.816,3.816,0,0,0-.1,6.251c2.853,2.175,8.511.811,8.683-3.188" transform="translate(-13.516 -28.74)" fill="#351b39"/>
        <path id="Caminho_2496" data-name="Caminho 2496" d="M46.268,73.432a4.809,4.809,0,1,1-4.791-4.4,4.608,4.608,0,0,1,4.791,4.4" transform="translate(-17.806 -33.505)" fill="#725174"/>
        <path id="Caminho_2497" data-name="Caminho 2497" d="M46.177,73.181c-.03,4.27-5.191,6.063-8.185,3.237a4.387,4.387,0,0,1-.1-6.593c2.993-2.789,8.313-.878,8.29,3.356m-.051,0c-.06-3.813-5.291-5.358-7.919-2.993a3.982,3.982,0,0,0-.1,6.1c2.68,2.326,7.965.7,8.023-3.112" transform="translate(-17.689 -33.254)" fill="#351b39"/>
        <path id="Caminho_2498" data-name="Caminho 2498" d="M13.965,55.2a5.022,5.022,0,0,1-5.224,4.791,4.809,4.809,0,1,1,0-9.583A5.022,5.022,0,0,1,13.965,55.2" transform="translate(-1.707 -24.468)" fill="#725174"/>
        <path id="Caminho_2499" data-name="Caminho 2499" d="M13.872,54.953c-.037,4.632-5.667,6.57-8.916,3.52a4.747,4.747,0,0,1-.1-7.159c3.246-3.013,9.038-.955,9.02,3.639m-.051,0c-.06-4.169-5.775-5.867-8.649-3.275a4.343,4.343,0,0,0-.1,6.67c2.927,2.552,8.7.769,8.754-3.395" transform="translate(-1.589 -24.218)" fill="#351b39"/>
        <path id="Caminho_2500" data-name="Caminho 2500" d="M12.22,69.561c0,2.447-2.339,4.43-5.224,4.43s-5.224-1.983-5.224-4.43S4.111,65.131,7,65.131s5.224,1.983,5.224,4.43" transform="translate(-0.86 -31.612)" fill="#725174"/>
        <path id="Caminho_2501" data-name="Caminho 2501" d="M12.13,69.314c-.124,4.44-5.716,5.978-8.838,3.319a4.2,4.2,0,0,1-.1-6.764c3.1-2.62,8.879-.943,8.935,3.444m-.051,0c-.18-4.023-5.782-5.277-8.586-3.063a3.815,3.815,0,0,0-.1,6.251c2.853,2.175,8.511.812,8.683-3.188" transform="translate(-0.744 -31.366)" fill="#351b39"/>
        <path id="Caminho_2502" data-name="Caminho 2502" d="M29.1,47.642c0,2.646-2.428,4.791-5.424,4.791s-5.423-2.145-5.423-4.791,2.428-4.791,5.423-4.791S29.1,45,29.1,47.642" transform="translate(-8.862 -20.798)" fill="#4d2c51"/>
        <path id="Caminho_2503" data-name="Caminho 2503" d="M29.015,47.394C28.933,52.1,23.1,53.9,19.8,50.945a4.638,4.638,0,0,1-.1-7.224c3.3-2.917,9.286-.992,9.315,3.673m-.051,0c-.119-4.262-6-5.807-8.955-3.3a4.243,4.243,0,0,0-.1,6.724c3,2.464,8.939.831,9.056-3.423" transform="translate(-8.746 -20.55)" fill="#351b39"/>
        <path id="Caminho_2504" data-name="Caminho 2504" d="M62.237,48.069c0,2.315-2.145,4.192-4.791,4.192s-4.791-1.877-4.791-4.192,2.145-4.192,4.791-4.192,4.791,1.877,4.791,4.192" transform="translate(-25.556 -21.296)" fill="#4d2c51"/>
        <path id="Caminho_2505" data-name="Caminho 2505" d="M62.145,47.82c-.081,4.161-5.218,5.72-8.141,3.122a4.061,4.061,0,0,1-.1-6.367c2.9-2.561,8.232-.865,8.241,3.245m-.051,0c-.127-3.729-5.3-5.016-7.883-2.871a3.668,3.668,0,0,0-.1,5.864c2.639,2.1,7.857.728,7.984-2.993" transform="translate(-25.439 -21.047)" fill="#351b39"/>
        <path id="Caminho_2506" data-name="Caminho 2506" d="M53.444,57.847a4.809,4.809,0,1,1-4.791-4.4,4.608,4.608,0,0,1,4.791,4.4" transform="translate(-21.289 -25.941)" fill="#725174"/>
        <path id="Caminho_2507" data-name="Caminho 2507" d="M53.353,57.6c-.03,4.27-5.191,6.063-8.185,3.237a4.387,4.387,0,0,1-.1-6.593c2.993-2.789,8.313-.877,8.29,3.356m-.051,0c-.06-3.812-5.291-5.358-7.919-2.993a3.982,3.982,0,0,0-.1,6.1c2.68,2.326,7.965.7,8.023-3.112" transform="translate(-21.172 -25.689)" fill="#351b39"/>
        <path id="Caminho_2508" data-name="Caminho 2508" d="M40.19,47.5A4.791,4.791,0,1,1,35.4,42.713,4.791,4.791,0,0,1,40.19,47.5" transform="translate(-14.856 -20.731)" fill="#4d2c51"/>
        <path id="Caminho_2509" data-name="Caminho 2509" d="M40.083,47.244a4.851,4.851,0,0,1-4.817,5.005c-4.238-.11-6.592-5.531-3.559-8.565a4.871,4.871,0,0,1,8.376,3.559m-.051,0c0-4-5.213-6-7.983-3.217a4.608,4.608,0,0,0-.112,6.546c2.76,2.755,8.147.631,8.095-3.329" transform="translate(-14.724 -20.471)" fill="#351b39"/>
        <path id="Caminho_2510" data-name="Caminho 2510" d="M18.531,25.362a4.791,4.791,0,1,1-4.791-4.791,4.791,4.791,0,0,1,4.791,4.791" transform="translate(-4.343 -9.984)" fill="#4d2c51"/>
        <path id="Caminho_2511" data-name="Caminho 2511" d="M18.424,25.1a4.851,4.851,0,0,1-4.817,5.005c-4.238-.11-6.592-5.531-3.559-8.565A4.871,4.871,0,0,1,18.424,25.1m-.051,0c0-4-5.213-5.995-7.983-3.217a4.608,4.608,0,0,0-.112,6.546c2.76,2.755,8.147.631,8.095-3.329" transform="translate(-4.211 -9.725)" fill="#351b39"/>
        <path id="Caminho_2512" data-name="Caminho 2512" d="M9.855,38.332a4.791,4.791,0,1,1-4.791-4.791,4.791,4.791,0,0,1,4.791,4.791" transform="translate(-0.132 -16.28)" fill="#725174"/>
        <path id="Caminho_2513" data-name="Caminho 2513" d="M9.748,38.072a4.851,4.851,0,0,1-4.817,5.005c-4.238-.11-6.592-5.531-3.559-8.565a4.871,4.871,0,0,1,8.376,3.559m-.051,0c0-4-5.213-5.995-7.983-3.217A4.608,4.608,0,0,0,1.6,41.4c2.76,2.755,8.147.631,8.095-3.329" transform="translate(0 -16.02)" fill="#351b39"/>
        <path id="Caminho_2514" data-name="Caminho 2514" d="M20.018,38.194A4.791,4.791,0,1,1,15.226,33.4a4.791,4.791,0,0,1,4.791,4.791" transform="translate(-5.065 -16.213)" fill="#725174"/>
        <path id="Caminho_2515" data-name="Caminho 2515" d="M19.912,37.934A4.851,4.851,0,0,1,15.1,42.94c-4.239-.11-6.592-5.531-3.559-8.565a4.871,4.871,0,0,1,8.376,3.559m-.051,0c0-4-5.214-5.995-7.983-3.216a4.608,4.608,0,0,0-.112,6.546c2.759,2.755,8.147.631,8.095-3.329" transform="translate(-4.933 -15.953)" fill="#351b39"/>
        <path id="Caminho_2516" data-name="Caminho 2516" d="M50.987,42.59A4.792,4.792,0,1,1,46.2,37.8a4.791,4.791,0,0,1,4.791,4.791" transform="translate(-20.096 -18.346)" fill="#725174"/>
        <path id="Caminho_2517" data-name="Caminho 2517" d="M50.88,42.33a4.851,4.851,0,0,1-4.817,5.005c-4.238-.11-6.592-5.531-3.559-8.565A4.871,4.871,0,0,1,50.88,42.33m-.051,0c0-4-5.213-6-7.983-3.217a4.608,4.608,0,0,0-.112,6.546c2.76,2.755,8.147.631,8.095-3.329" transform="translate(-19.964 -18.086)" fill="#351b39"/>
        <g id="Grupo_1554" data-name="Grupo 1554" transform="translate(26.673 19.97)" opacity="0.53">
          <g id="Grupo_1553" data-name="Grupo 1553">
            <g id="Grupo_1552" data-name="Grupo 1552" clip-path="url(#clip-path-3)">
              <path id="Caminho_2518" data-name="Caminho 2518" d="M51.83,38.8s4.081.309,4.139,4.339a3.985,3.985,0,0,1-1.32,2.923s.774-3.718-2.82-7.262" transform="translate(-51.83 -38.803)" fill="#4d2c51"/>
            </g>
          </g>
        </g>
        <path id="Caminho_2519" data-name="Caminho 2519" d="M36.347,31.892c0,2.646-2.428,4.791-5.424,4.791S25.5,34.539,25.5,31.892,27.928,27.1,30.923,27.1s5.424,2.145,5.424,4.791" transform="translate(-12.377 -13.154)" fill="#725174"/>
        <path id="Caminho_2520" data-name="Caminho 2520" d="M36.257,31.644c-.082,4.7-5.911,6.508-9.215,3.551a4.638,4.638,0,0,1-.1-7.224c3.3-2.917,9.286-.992,9.315,3.673m-.051,0c-.119-4.262-6-5.806-8.955-3.3a4.243,4.243,0,0,0-.1,6.724c3,2.464,8.939.831,9.056-3.423" transform="translate(-12.261 -12.905)" fill="#351b39"/>
        <path id="Caminho_2521" data-name="Caminho 2521" d="M17.109,82.9a4.791,4.791,0,1,1-4.791-4.791A4.791,4.791,0,0,1,17.109,82.9" transform="translate(-3.653 -37.911)" fill="#725174"/>
        <path id="Caminho_2522" data-name="Caminho 2522" d="M17,82.64a4.851,4.851,0,0,1-4.817,5.005c-4.238-.11-6.592-5.531-3.559-8.565A4.871,4.871,0,0,1,17,82.64m-.051,0c0-4-5.213-5.995-7.983-3.216a4.608,4.608,0,0,0-.112,6.546c2.76,2.755,8.147.631,8.095-3.329" transform="translate(-3.521 -37.651)" fill="#351b39"/>
        <path id="Caminho_2523" data-name="Caminho 2523" d="M34.824,82.511a4.608,4.608,0,0,1-4.791,4.4,4.417,4.417,0,1,1,0-8.8,4.608,4.608,0,0,1,4.791,4.4" transform="translate(-12.251 -37.912)" fill="#725174"/>
        <path id="Caminho_2524" data-name="Caminho 2524" d="M34.733,82.259c-.03,4.27-5.191,6.063-8.185,3.237a4.387,4.387,0,0,1-.1-6.593c2.993-2.789,8.313-.877,8.29,3.356m-.051,0c-.06-3.813-5.291-5.358-7.919-2.993a3.982,3.982,0,0,0-.1,6.1c2.68,2.326,7.965.7,8.023-3.112" transform="translate(-12.134 -37.66)" fill="#351b39"/>
        <path id="Caminho_2525" data-name="Caminho 2525" d="M26.444,70.088c0,2.447-2.339,4.43-5.224,4.43S16,72.535,16,70.088s2.339-4.43,5.224-4.43,5.224,1.983,5.224,4.43" transform="translate(-7.764 -31.868)" fill="#725174"/>
        <path id="Caminho_2526" data-name="Caminho 2526" d="M26.354,69.841c-.124,4.44-5.716,5.977-8.838,3.319a4.2,4.2,0,0,1-.1-6.764c3.1-2.62,8.879-.943,8.935,3.444m-.051,0c-.18-4.023-5.782-5.277-8.586-3.063a3.815,3.815,0,0,0-.1,6.251c2.853,2.175,8.511.812,8.683-3.188" transform="translate(-7.648 -31.621)" fill="#351b39"/>
        <path id="Caminho_2527" data-name="Caminho 2527" d="M44.852,19.806A2.985,2.985,0,0,1,46.6,17.862a24.283,24.283,0,0,1,6.6-2.011l-1.425,1.93,6.616,1s-2.729,4.326,1.4,7.187c0,0-3.66,1.4-4.991,0a18.68,18.68,0,0,1-.066,3.261s-5.856-1.024-6.389-4.272l-.865,2.908S44,23.144,44.852,19.806" transform="translate(-21.704 -7.694)" fill="#214d22"/>
        <path id="Caminho_2528" data-name="Caminho 2528" d="M44.847,19.684c.406-1.708,2.276-2.183,3.694-2.783a17.112,17.112,0,0,1,4.885-1.3c-.516.71-1.032,1.421-1.561,2.122l-.072-.173L58.4,18.6l.093.014-.049.082a5.21,5.21,0,0,0-.056,5.7A6.645,6.645,0,0,0,59.92,25.87l-.108.039c-1.579.5-3.663,1.2-5.092.012l.185-.08a14.37,14.37,0,0,1-.08,3.411c-2.548-.56-5.91-1.523-6.611-4.394l.253.015-.892,2.9-.062.2L47.4,27.8c-1.532-2.369-3.108-5.21-2.55-8.119m.025.006c-.541,2.9,1.122,5.683,2.688,7.993l-.178.031c.107-.391.905-3.137.99-3.444.323,3.05,3.824,4.116,6.382,4.715l-.141.09a4.483,4.483,0,0,0,.093-.783c.039-.906.012-1.819-.025-2.725,1.274,1.413,3.509.691,5.086.218l-.014.116A5.628,5.628,0,0,1,57.8,23.565a5.879,5.879,0,0,1,.538-4.938l.044.1L51.76,17.77l-.178-.025c.5-.7,1.016-1.388,1.533-2.076l.094.17A18.944,18.944,0,0,0,48.577,17c-1.428.551-3.285,1-3.706,2.692" transform="translate(-21.711 -7.574)" fill="#152816"/>
        <path id="Caminho_2529" data-name="Caminho 2529" d="M45.083,23.263a24,24,0,0,0,3.3,2.091,16.117,16.117,0,0,0,6.392,1l0,.026a9.465,9.465,0,0,1-5.206-.457c-1.6-.623-3.439-1.278-4.492-2.658" transform="translate(-21.882 -11.291)" fill="#152816"/>
        <path id="Caminho_2530" data-name="Caminho 2530" d="M54.852,28.423a3.908,3.908,0,0,1-.566-2.73,2.357,2.357,0,0,1,1.729-2.108l.011.023A3.356,3.356,0,0,0,54.363,26.4c.081.681.4,1.368.489,2.023" transform="translate(-26.34 -11.447)" fill="#152816"/>
        <path id="Caminho_2531" data-name="Caminho 2531" d="M49.234,27.47a1.7,1.7,0,0,1-.5-1.5,2.312,2.312,0,0,1,1.22-2.269c.019.1-.238.33-.3.441a3.415,3.415,0,0,0-.834,1.826c.065.515.336,1.008.421,1.5" transform="translate(-23.644 -11.506)" fill="#152816"/>
        <path id="Caminho_2532" data-name="Caminho 2532" d="M44.227,43.574c-.413.413-.522.974-.244,1.253s.84.17,1.253-.243.522-.974.243-1.253-.84-.17-1.253.243" transform="translate(-21.273 -20.956)" fill="#b996bb"/>
        <path id="Caminho_2533" data-name="Caminho 2533" d="M30.731,29.684c-.9.357-1.543.843-1.447,1.086s.9.149,1.8-.209,1.543-.843,1.447-1.085-.9-.149-1.8.208" transform="translate(-14.209 -14.241)" fill="#b996bb"/>
        <path id="Caminho_2534" data-name="Caminho 2534" d="M13.855,36.629c-.76.595-1.164,1.345-.906,1.675s1.084.115,1.843-.479,1.164-1.345.905-1.675-1.084-.116-1.842.479" transform="translate(-6.247 -17.47)" fill="#b996bb"/>
        <path id="Caminho_2535" data-name="Caminho 2535" d="M13.859,22.9c-.9.358-1.5.963-1.34,1.353s1.008.416,1.9.058,1.5-.963,1.34-1.352-1.008-.416-1.9-.059" transform="translate(-6.064 -10.991)" fill="#b996bb"/>
        <path id="Caminho_2536" data-name="Caminho 2536" d="M2.95,37.1c-.682.682-1.034,1.435-.787,1.682s1-.1,1.682-.787,1.034-1.435.787-1.682-1,.105-1.682.787" transform="translate(-1.011 -17.584)" fill="#b996bb"/>
        <path id="Caminho_2537" data-name="Caminho 2537" d="M7.808,53.928c-.835.482-1.37,1.118-1.2,1.421s.993.157,1.829-.325,1.37-1.118,1.2-1.421-.993-.157-1.829.325" transform="translate(-3.193 -25.94)" fill="#b996bb"/>
        <path id="Caminho_2538" data-name="Caminho 2538" d="M40.058,72.409c-.517.405-.761.957-.546,1.232s.81.17,1.326-.236.761-.957.546-1.232-.809-.17-1.326.236" transform="translate(-19.14 -34.956)" fill="#b996bb"/>
        <path id="Caminho_2539" data-name="Caminho 2539" d="M4.356,69.853c-.463.5-.678,1.054-.479,1.238s.734-.072,1.2-.572.678-1.054.48-1.238-.735.073-1.2.572" transform="translate(-1.846 -33.598)" fill="#b996bb"/>
        <path id="Caminho_2540" data-name="Caminho 2540" d="M18.353,69.691c-.6.881-.779,1.809-.391,2.075s1.19-.233,1.794-1.114.779-1.81.391-2.075-1.19.233-1.794,1.114" transform="translate(-8.618 -33.251)" fill="#b996bb"/>
        <path id="Caminho_2541" data-name="Caminho 2541" d="M11.229,81.475c-.561.519-.84,1.131-.623,1.365s.849,0,1.41-.515.84-1.13.622-1.365-.849,0-1.41.515" transform="translate(-5.112 -39.25)" fill="#b996bb"/>
      </g>
    </g>
  </g>
</svg>
