<svg xmlns="http://www.w3.org/2000/svg" xmlns:xlink="http://www.w3.org/1999/xlink" width="62.693" height="50" viewBox="0 0 62.693 50">
  <defs>
    <clipPath id="clip-path">
      <rect id="Retângulo_163" data-name="Retângulo 163" width="62.693" height="50" transform="translate(0 0)" fill="none"/>
    </clipPath>
  </defs>
  <g id="alfabeto_i_fim" transform="translate(0 0)">
    <g id="Grupo_1514" data-name="Grupo 1514" transform="translate(0 0)" clip-path="url(#clip-path)">
      <path id="Caminho_2228" data-name="Caminho 2228" d="M47.885,19.526A19.179,19.179,0,1,1,28.706.347,19.179,19.179,0,0,1,47.885,19.526" transform="translate(-3.225 -0.118)" fill="#ec4115"/>
      <path id="Caminho_2229" data-name="Caminho 2229" d="M47.849,19.543c.086,13.748-13.86,23.409-26.622,17.888C5.5,30.594,5.234,8.28,21.167,1.507A19.307,19.307,0,0,1,47.849,19.543m-.066,0C47.654,2.806,27.156-5.526,15.3,6.2c-7.378,7.086-7.568,19.684-.139,26.822,11.867,11.694,32.55,3.232,32.626-13.481" transform="translate(-3.156 0)" fill="#b62f1b"/>
      <path id="Caminho_2230" data-name="Caminho 2230" d="M46.2,21.073A18.414,18.414,0,1,1,27.783,2.659,18.414,18.414,0,0,1,46.2,21.073" transform="translate(-3.171 -0.9)" fill="#70b32f"/>
      <path id="Caminho_2231" data-name="Caminho 2231" d="M46.16,20.887c.084,13.207-13.3,22.494-25.564,17.181C5.5,31.5,5.23,10.067,20.535,3.557A18.541,18.541,0,0,1,46.16,20.887m-.066,0c-.127-16.059-19.8-24.05-31.182-12.8-7.081,6.8-7.271,18.891-.139,25.74C26.159,45.042,46.02,36.921,46.094,20.887" transform="translate(-3.102 -0.714)" fill="#53852f"/>
      <path id="Caminho_2232" data-name="Caminho 2232" d="M50.47,40.655s2,3.714-3.661,9.479a9.011,9.011,0,0,0-2.6,4.983c-.335,2.376.385,5.11,5.122,5.728,0,0,4.483,1.216,9.879-4.18s17.1-8.434,17.477-.684-8.739,4.256-8.739,4.256-6.656-2.155-8.556-1.471l2.241-1.918s7.981,1.8,9.431,2.173c1.636.426,6.468-1.706,3.191-4.711-3.081-2.826-8.43-1.769-15.754,5.294a14.641,14.641,0,0,1-5.683,3.476c-1.947.618-4.224.869-6.071-.259-4.1-2.508-7.067-4.7-3.5-11.469s5.624-10.7,5.624-10.7Z" transform="translate(-14.098 -13.761)" fill="#ebbe76"/>
      <path id="Caminho_2233" data-name="Caminho 2233" d="M50.425,40.625c1.191,3.095-.8,6.323-2.759,8.626a20.913,20.913,0,0,0-2.037,2.386c-1.7,2.4-2.351,6.584.707,8.18,4.09,2.172,8.743.443,11.935-2.529a21.021,21.021,0,0,1,8.474-5.314c2.991-.952,7.373-1.624,9.3,1.51.982,1.949,1.015,4.7-.509,6.382a4.591,4.591,0,0,1-3.091,1.187c-3.394.1-6.48-1.641-9.8-2.1a7.976,7.976,0,0,0-3.275-.119l-.429.141.341-.294,2.233-1.926.038-.032.05.011c3.048.679,6.095,1.348,9.136,2.064a4.2,4.2,0,0,0,4.046-1.43c1.062-1.351-.339-2.878-1.515-3.589-2.744-1.673-6.132-.368-8.669,1.141-4.138,2.251-6.818,6.614-11.369,8.161-2.182.793-4.873,1.087-6.888-.317-1.951-1.228-4.2-2.649-4.734-5.059-.617-3.23,1.406-6.087,2.78-8.817L48.8,40.611c.01-.01,1.608.021,1.621.014m-.017.028-1.587.014.024-.015L44.54,48.967c-2.233,4.15-4.993,8.891.014,12.263A10.63,10.63,0,0,0,48.6,63.341c3.059.411,6.152-.97,8.535-2.823,1.209-.97,2.278-2.134,3.489-3.112,2.405-1.989,5.06-3.873,8.167-4.552,5.086-1.337,10.357,4.8,3.081,6.321a2.805,2.805,0,0,1-1.2-.115c-2.883-.746-6.467-1.437-9.028-2.151L59.4,58.817l-.089-.152c2.225-.433,4.477.4,6.63.9,3.787,1.275,10.365,3.257,10.633-2.81.345-5.875-5.531-6.1-9.757-4.578a20.754,20.754,0,0,0-8.357,5.314c-3.249,3.091-8.084,4.778-12.238,2.532-3.162-1.666-2.534-6.012-.742-8.492a21,21,0,0,1,2.066-2.391c1.951-2.258,3.974-5.419,2.866-8.489" transform="translate(-14.045 -13.745)" fill="#d6a05f"/>
      <path id="Caminho_2234" data-name="Caminho 2234" d="M38.56,19.931A19.179,19.179,0,1,1,19.381.752,19.179,19.179,0,0,1,38.56,19.931" transform="translate(-0.069 -0.255)" fill="#ec4115"/>
      <path id="Caminho_2235" data-name="Caminho 2235" d="M35.4,23.249A16.732,16.732,0,1,1,18.672,6.516,16.733,16.733,0,0,1,35.4,23.249" transform="translate(-0.657 -2.206)" fill="#70b32f"/>
      <path id="Caminho_2236" data-name="Caminho 2236" d="M35.366,23.064c.106,11.989-12.111,20.495-23.239,15.628C-1.594,32.7-1.861,13.219,12.066,7.287a16.856,16.856,0,0,1,23.3,15.776m-.066,0C35.178,8.5,17.308,1.256,6.988,11.452.566,17.581.376,28.634,6.85,34.814,17.176,44.977,35.23,37.6,35.3,23.064" transform="translate(-0.585 -2.021)" fill="#53852f"/>
      <path id="Caminho_2237" data-name="Caminho 2237" d="M30.091,28.816a5.851,5.851,0,1,1-5.851-5.851,5.851,5.851,0,0,1,5.851,5.851" transform="translate(-6.224 -7.773)" fill="#4f55a1"/>
      <path id="Caminho_2238" data-name="Caminho 2238" d="M38.525,19.948C38.611,33.7,24.665,43.357,11.9,37.836-3.824,31-4.09,8.685,11.842,1.912A19.307,19.307,0,0,1,38.525,19.948m-.066,0C38.329,3.211,17.831-5.121,5.972,6.607-1.406,13.693-1.6,26.291,5.833,33.428,17.7,45.122,38.382,36.661,38.458,19.948" transform="translate(0 -0.137)" fill="#b62f1b"/>
      <path id="Caminho_2239" data-name="Caminho 2239" d="M30.032,28.636c.1,3.171-2.565,6.3-5.884,6.126-5.178-.146-8.062-6.772-4.357-10.484a5.956,5.956,0,0,1,10.242,4.357m-.066,0c.02-4.849-6.4-7.3-9.736-3.918a5.472,5.472,0,0,0,3.918,9.494c2.964-.043,5.856-2.467,5.818-5.576" transform="translate(-6.132 -7.593)" fill="#434d8b"/>
      <path id="Caminho_2240" data-name="Caminho 2240" d="M24.287,30.338A2.575,2.575,0,0,1,20.852,31.5a2.747,2.747,0,0,1,2.724-4.718,2.574,2.574,0,0,1,.711,3.556" transform="translate(-6.679 -8.968)" fill="#838ac3"/>
      <path id="Caminho_2241" data-name="Caminho 2241" d="M12.553,12.8a17.117,17.117,0,0,1,3.075-1.513c1.546-.6,4.555-.673,1.421-1.613C12.489,8.31,5.763,15.2,5.194,18.226,4.727,20.7,5.536,21.3,7.7,18c1.809-2.761,2.322-3.576,4.851-5.195" transform="translate(-1.715 -3.216)" fill="#b0d181"/>
    </g>
  </g>
</svg>
