<svg id="alfabeto_t_e001_fim" xmlns="http://www.w3.org/2000/svg" xmlns:xlink="http://www.w3.org/1999/xlink" width="76.508" height="50" viewBox="0 0 76.508 50">
  <defs>
    <clipPath id="clip-path">
      <rect id="Retângulo_191" data-name="Retângulo 191" width="76.508" height="50" fill="none"/>
    </clipPath>
    <clipPath id="clip-path-3">
      <rect id="Retângulo_187" data-name="Retângulo 187" width="7.619" height="4.223" fill="none"/>
    </clipPath>
    <clipPath id="clip-path-4">
      <rect id="Retângulo_188" data-name="Retângulo 188" width="12.702" height="5.686" fill="none"/>
    </clipPath>
    <clipPath id="clip-path-5">
      <rect id="Retângulo_189" data-name="Retângulo 189" width="47.615" height="18.448" fill="none"/>
    </clipPath>
  </defs>
  <g id="Grupo_1550" data-name="Grupo 1550" clip-path="url(#clip-path)">
    <g id="Grupo_1549" data-name="Grupo 1549" transform="translate(0 0)">
      <g id="Grupo_1548" data-name="Grupo 1548" clip-path="url(#clip-path)">
        <path id="Caminho_2431" data-name="Caminho 2431" d="M51.83,34.261s6.646,8.7,10.636,7.677-8.482-14.314-8.482-14.314" transform="translate(-6.99 -3.726)" fill="#596531"/>
        <path id="Caminho_2432" data-name="Caminho 2432" d="M51.87,34.231c1.849,1.863,3.674,3.709,5.629,5.379,1.366,1.152,3.13,2.715,5.033,2.135.613-.176.585-.891.409-1.453-.926-2.364-2.682-4.4-4.207-6.43-1.477-2.082-3.461-4.173-4.712-6.271a47.122,47.122,0,0,1,5.438,5.7c1.587,2.117,3.276,4.249,3.942,6.886.555,3.831-4.9,1.164-6.351,0a19.132,19.132,0,0,1-5.18-5.944" transform="translate(-6.995 -3.721)" fill="#434924"/>
        <g id="Grupo_1541" data-name="Grupo 1541" transform="translate(46.995 30.926)" opacity="0.57">
          <g id="Grupo_1540" data-name="Grupo 1540">
            <g id="Grupo_1539" data-name="Grupo 1539" clip-path="url(#clip-path-3)">
              <path id="Caminho_2433" data-name="Caminho 2433" d="M54.321,37.886s2.133,2.786,5.114,1.918,3.1-.858,1.4-3.254-6.518,1.336-6.518,1.336" transform="translate(-54.321 -35.748)" fill="#434924"/>
            </g>
          </g>
        </g>
        <path id="Caminho_2434" data-name="Caminho 2434" d="M27.666,29.156s13.518,11.4,34.855,4.177l-3.578-8.413-16.964-5.6" transform="translate(-3.731 -2.605)" fill="#dfe48c"/>
        <path id="Caminho_2435" data-name="Caminho 2435" d="M27.7,29.116a40.636,40.636,0,0,0,21.4,6.413l2.273-.039,2.257-.273a37.135,37.135,0,0,0,4.452-.886c1.462-.388,2.884-.917,4.33-1.344l-.215.479c-.931-2.082-2.766-6.282-3.673-8.373l.279.258c-2.831-.921-5.642-1.907-8.449-2.9C47.622,21.4,44.487,20.5,42,19.267c5.743,1.586,11.44,3.338,17.1,5.207l.2.067.079.19c.953,2.3,2.709,6.533,3.64,8.835A62.5,62.5,0,0,1,54.8,35.391c-.717.087-2.672.276-3.415.365a56.267,56.267,0,0,1-6.874.033,30.37,30.37,0,0,1-8.954-2.024c-2.762-1.114-5.9-2.586-7.863-4.65" transform="translate(-3.735 -2.599)" fill="#a2a361"/>
        <path id="Caminho_2436" data-name="Caminho 2436" d="M19.056,16.443s-8.217.132-14.711,2.484S.37,28.371,2.49,31.419s2.518-.663,2.518-.663,1.325-5.168,1.59-7.024,20.277.8,20.277.8" transform="translate(-0.025 -2.218)" fill="#596531"/>
        <path id="Caminho_2437" data-name="Caminho 2437" d="M19.032,16.478c-5.433.651-11.455,1.149-16.351,3.647-3.843,2.5-2.334,8.048-.052,11.156,1.168,1.6,1.812,1.3,2.029-.587.519-2.325,1.1-4.659,1.476-6.982.126-.793,1.072-.879,1.665-.988,4.078-.381,8.156.241,12.2.682,2.3.305,4.583.654,6.861,1.074l-.011.086c-6.047-.353-12.92-1.279-18.929-.942a2.678,2.678,0,0,0-.933.234.136.136,0,0,0,.024-.071c-.005.03-.042.237-.048.273-.536,2.693-1.243,5.345-1.941,7.828C3.39,35.24.9,29.045.5,27.611c-1.568-5.183.612-8.53,5.811-9.728a39.461,39.461,0,0,1,12.722-1.4" transform="translate(0 -2.21)" fill="#434924"/>
        <g id="Grupo_1544" data-name="Grupo 1544" transform="translate(4.321 15.465)" opacity="0.57">
          <g id="Grupo_1543" data-name="Grupo 1543">
            <g id="Grupo_1542" data-name="Grupo 1542" clip-path="url(#clip-path-4)">
              <path id="Caminho_2438" data-name="Caminho 2438" d="M4.994,19.12l6.8,4.173,5.9.269-2.253-4.9-6.495-.789Z" transform="translate(-4.994 -17.876)" fill="#434924"/>
            </g>
          </g>
        </g>
        <path id="Caminho_2439" data-name="Caminho 2439" d="M60.923,34.277s5.367,4.572,6.759,7.156,6.957,6.957,16.5,7.156c0,0,1.193-.994-1.59-3.777s-8.548-8.946-13.916-10.536a13.686,13.686,0,0,0,4-2.783" transform="translate(-8.216 -4.248)" fill="#889d4d"/>
        <path id="Caminho_2440" data-name="Caminho 2440" d="M60.947,34.24a34.5,34.5,0,0,1,6.5,6.174,12.823,12.823,0,0,0,3.456,3.867,20.892,20.892,0,0,0,13.275,4.042l-.174.061a1.11,1.11,0,0,0,.024-1.008,9.8,9.8,0,0,0-2.492-3.055c-1.3-1.293-2.627-2.556-3.986-3.772-2.865-2.558-5.933-5.066-9.629-6.257a19.665,19.665,0,0,0,2.784-1.368,9.93,9.93,0,0,0,1.932-1.462l.066.056a12.048,12.048,0,0,1-3.923,3l-.035-.509c3.621,1.029,6.673,3.385,9.424,5.853,1.37,1.246,2.658,2.572,3.935,3.894a9.587,9.587,0,0,1,2.517,3.43,1.564,1.564,0,0,1-.343,1.666l-.109-.006c-4.772-.334-9.6-1.369-13.673-4a10.84,10.84,0,0,1-2.681-2.5,20.1,20.1,0,0,0-2.026-2.892c-1.53-1.787-3.216-3.467-4.9-5.147Z" transform="translate(-8.212 -4.243)" fill="#748438"/>
        <path id="Caminho_2441" data-name="Caminho 2441" d="M29.474,22.766s-3.446,4.506-5.3,5.831,0,7.256,0,7.256,2.65,11.3.529,13.816c0,0-8.216-.862-11.265-13.816,0,0-1.06-10.436,6.229-11.629a18.371,18.371,0,0,0-7.156-5.566C7.606,16.4-1.008,11.633,1.113,4.875S5.354.766,11.715,1.959s7.951,9.674,7.951,9.674" transform="translate(-0.106 -0.059)" fill="#889d4d"/>
        <path id="Caminho_2442" data-name="Caminho 2442" d="M29.442,22.734a35.063,35.063,0,0,1-5.064,5.888c-1,.754-.832,2.226-.752,3.363.6,3.584,1.726,7.063,2.032,10.707.151,2.364.614,5.031-.747,7.149L24.785,50l-.186-.034c-3.662-.714-6.435-3.422-8.342-6.456a27.992,27.992,0,0,1-3.018-7.685,18.579,18.579,0,0,1,.063-3.677c.294-3.655,2.284-7.652,6.25-8.278l-.2.461c-2.764-3.761-7.305-5.31-11.249-7.508C1.818,13.255-2.618,7.642,2.576.884,3.95-.6,6.281.134,7.858.594c1.107.322,2.2.638,3.314.873,4.9.716,7.624,5.661,8.471,10.1l-.086.016C18.482,7.336,15.77,2.66,11.039,2.109,5.372,1.017,2.925-1.5,1.251,5.931.619,10.621,4.97,13.868,8.538,16.1c4.006,2.273,8.573,3.929,11.308,7.9l.27.371-.468.09c-5.207.74-6.486,6.951-6.145,11.3a33.772,33.772,0,0,0,1.446,4.449,16.74,16.74,0,0,0,5.591,7.271,10.318,10.318,0,0,0,4.134,1.77l-.311.125a5.849,5.849,0,0,0,.712-3.147,50.119,50.119,0,0,0-1.3-10.362c-.487-1.994-1.681-6.074.319-7.621,2.01-1.491,3.639-3.9,5.344-5.517" transform="translate(-0.039 0)" fill="#748438"/>
        <g id="Grupo_1547" data-name="Grupo 1547" transform="translate(16.241 13.654)" opacity="0.56">
          <g id="Grupo_1546" data-name="Grupo 1546">
            <g id="Grupo_1545" data-name="Grupo 1545" clip-path="url(#clip-path-5)">
              <path id="Caminho_2443" data-name="Caminho 2443" d="M18.773,15.783S36.3,44.88,66.388,29.989Z" transform="translate(-18.773 -15.783)" fill="#434924"/>
            </g>
          </g>
        </g>
        <path id="Caminho_2444" data-name="Caminho 2444" d="M18.773,14.074a6.682,6.682,0,0,0,2.03-1.59S29.748.755,45.253,3.538,68.71,22.821,68.71,22.821s.6,2.187,1.193,1.988c0,0-4.173,8.128-24.369,5.976a32.739,32.739,0,0,1-14.278-5.007c-4.63-2.98-10.382-7.342-12.483-11.7" transform="translate(-2.532 -0.42)" fill="#3a3f2a"/>
        <path id="Caminho_2445" data-name="Caminho 2445" d="M18.726,14A9.3,9.3,0,0,0,21.5,11.4a26.409,26.409,0,0,1,2.771-2.679A25.352,25.352,0,0,1,47.938,3.786c9.25,2.985,16.321,10.552,20.98,18.876a4.6,4.6,0,0,0,.891,1.83l.331.387a12.542,12.542,0,0,1-5.9,4.53c-8.42,3.291-20.816,2.735-29.006-1.056A49.529,49.529,0,0,1,23.18,19.879,20.044,20.044,0,0,1,18.726,14m.081.029c2.4,4.221,6.525,7.239,10.461,9.966a38.225,38.225,0,0,0,6.3,3.613c6.658,2.957,14.189,3.395,21.371,2.769,4.6-.574,9.849-1.838,12.711-5.752l.331.386a.589.589,0,0,1-.533-.119,4.556,4.556,0,0,1-.976-2.068C61.523,9.008,46.768-.85,31.093,5.294a28.17,28.17,0,0,0-9.382,6.3,8.516,8.516,0,0,1-2.9,2.436" transform="translate(-2.525 -0.365)" fill="#292c1e"/>
        <path id="Caminho_2446" data-name="Caminho 2446" d="M20.249,14.81c13.578,12.9,31.443,20.859,49.162,10.935l.022.037A32.174,32.174,0,0,1,61.7,29.341c-14.332,4.6-31.854-4.02-41.448-14.531" transform="translate(-2.731 -1.998)" fill="#a2a361"/>
        <path id="Caminho_2447" data-name="Caminho 2447" d="M20.679,17.257a81.045,81.045,0,0,0,7.544-5.642l-.084.226a34.527,34.527,0,0,1-.7-4.259l.042-.01a35.333,35.333,0,0,1,1.131,4.319c-.992.745-2.042,1.413-3.055,2.127-1.53,1.174-3,2.748-4.877,3.24" transform="translate(-2.789 -1.021)" fill="#a2a361"/>
        <path id="Caminho_2448" data-name="Caminho 2448" d="M24.346,21.228c3.08-1.666,6.384-2.842,9.459-4.513l-.072.1c.056-.741.127-1.479.208-2.217s.149-1.477.255-2.211l.225.254q-2.784.005-5.566-.2a45.858,45.858,0,0,1,5.566-.247h.251c-.183,1.584-.426,3.161-.7,4.733-3.249,1.285-6.271,3.493-9.629,4.3" transform="translate(-3.283 -1.644)" fill="#a2a361"/>
        <path id="Caminho_2449" data-name="Caminho 2449" d="M28.522,25.842c1.006-.472,2.064-1.447,3.179-1.372a7.7,7.7,0,0,1-3.179,1.372" transform="translate(-3.847 -3.3)" fill="#a2a361"/>
        <path id="Caminho_2450" data-name="Caminho 2450" d="M35.969,28.992c1.343-3.219,3.585-5.928,5.108-9.061l.09.3a48.189,48.189,0,0,1-5.188-2.655l.019-.04a48.962,48.962,0,0,1,5.556,2.422c-.929,1.55-2.066,2.977-2.874,4.6a27.893,27.893,0,0,1-2.71,4.437" transform="translate(-4.851 -2.365)" fill="#a2a361"/>
        <path id="Caminho_2451" data-name="Caminho 2451" d="M35.929,11.341c.536-1.614,1.863-2.742,2.512-4.293l.025.206a15.988,15.988,0,0,1-2.792-2.918l.03-.031a16.356,16.356,0,0,1,3.089,2.821c-1.159,1.244-1.589,3.152-2.865,4.215" transform="translate(-4.811 -0.581)" fill="#a2a361"/>
        <path id="Caminho_2452" data-name="Caminho 2452" d="M39.044,7.554q2.843.927,5.64,1.98c.747,1.519,1.434,3.066,2.1,4.621l-.07.061c-1.71,1.464-3.36,2.991-4.974,4.558l-.036-.182c2.674.921,5.344,1.854,7.993,2.842l.138.052.01.146c.164,2.39.288,5.033.374,7.438l-.094,2.486h-.043c-.074-3.221-.511-6.693-.689-9.895l.148.2c-2.652-.98-5.283-2.016-7.911-3.063l-.167-.067.131-.115c1.691-1.484,3.346-3.006,4.942-4.593l-.03.153c-.735-1.459-1.454-2.926-2.119-4.419l.1.093C42.7,9.1,40.7,8.422,39.044,7.554" transform="translate(-5.266 -1.019)" fill="#a2a361"/>
        <path id="Caminho_2453" data-name="Caminho 2453" d="M49.869,3.858A6.18,6.18,0,0,1,48.24,5.89C47.352,7,46.629,8.46,45.392,9.166A14.114,14.114,0,0,1,48.133,5.8a5.136,5.136,0,0,1,1.736-1.943" transform="translate(-6.122 -0.521)" fill="#a2a361"/>
        <path id="Caminho_2454" data-name="Caminho 2454" d="M58.2,7.591a30.571,30.571,0,0,1-2.98,4.686,41.988,41.988,0,0,1-7.408,1.868L47.8,14.1a38.46,38.46,0,0,1,7.313-1.925c.988-1.519,1.791-3.365,3.085-4.586" transform="translate(-6.447 -1.024)" fill="#a2a361"/>
        <path id="Caminho_2455" data-name="Caminho 2455" d="M55.664,12.936c.4,2.237-.132,4.481.153,6.724a27.3,27.3,0,0,1-4.537,2.73l-.023-.036a27.187,27.187,0,0,1,4.293-2.921l-.079.144c.029-.554.1-1.107.1-1.66,0-1.63-.33-3.438.093-4.98" transform="translate(-6.913 -1.745)" fill="#a2a361"/>
        <path id="Caminho_2456" data-name="Caminho 2456" d="M56.324,19.85a33.349,33.349,0,0,1,5.647-.447c.626-.06,1.249-.176,1.876-.24l-.131.068a31.688,31.688,0,0,1,3.5-4.106l.034.028a31.889,31.889,0,0,1-3.3,4.375c-2.531-.158-5.169.666-7.622.322" transform="translate(-7.596 -2.04)" fill="#a2a361"/>
        <path id="Caminho_2457" data-name="Caminho 2457" d="M65.058,20c1.111,2.338,1.347,4.929,2.38,7.294.24.733.622,1.834.727,2.4a12.465,12.465,0,0,1,1.05,2.159c-.514-.626-.966-1.29-1.418-1.954-.291-.815-.514-1.651-.738-2.486-.4-2.526-1.786-4.919-2-7.408" transform="translate(-8.774 -2.697)" fill="#a2a361"/>
        <path id="Caminho_2458" data-name="Caminho 2458" d="M43.609,33.785c.344-1.057.358-2.5,1.176-3.256a7.7,7.7,0,0,1-1.176,3.256" transform="translate(-5.881 -4.117)" fill="#a2a361"/>
        <path id="Caminho_2459" data-name="Caminho 2459" d="M56.866,35.516c-.088-.83-.608-2.058-.149-2.768a2.178,2.178,0,0,1,.247,1.372,6.1,6.1,0,0,1-.1,1.4" transform="translate(-7.624 -4.417)" fill="#a2a361"/>
        <path id="Caminho_2460" data-name="Caminho 2460" d="M63.291,35.145c-.245-.8-.989-1.9-.673-2.69a2.18,2.18,0,0,1,.5,1.3,6.087,6.087,0,0,1,.17,1.389" transform="translate(-8.434 -4.377)" fill="#a2a361"/>
        <path id="Caminho_2461" data-name="Caminho 2461" d="M75.007,31.177c-.388-.593-1.337-1.391-1.177-2.109a1.676,1.676,0,0,1,.738.967c.118.342.453.844.439,1.142" transform="translate(-9.954 -3.92)" fill="#a2a361"/>
        <path id="Caminho_2462" data-name="Caminho 2462" d="M7.025,4.962A1.946,1.946,0,0,1,9.65,4.189,1.945,1.945,0,0,1,10.006,6.9a1.947,1.947,0,0,1-2.625.774,1.948,1.948,0,0,1-.356-2.714" transform="translate(-0.896 -0.531)" fill="#fff"/>
        <path id="Caminho_2463" data-name="Caminho 2463" d="M6.988,4.922c1.69-2.594,4.455-.53,3.1,2.016a2.067,2.067,0,0,1-2.85.9,2.052,2.052,0,0,1-.248-2.919m.036.023c-1.157,2.16,1.359,3.8,2.864,1.863,1.541-2.11-1.48-3.822-2.864-1.863" transform="translate(-0.877 -0.503)" fill="#1a1818"/>
        <path id="Caminho_2464" data-name="Caminho 2464" d="M7.055,4.9c.549-.844,1.4-1.267,1.894-.943s.454,1.269-.1,2.114-1.4,1.266-1.894.943-.454-1.269.1-2.114" transform="translate(-0.892 -0.519)" fill="#1a1818"/>
        <path id="Caminho_2465" data-name="Caminho 2465" d="M.808,6.556A17.188,17.188,0,0,0,2.638,8.987c1.3,1.077,3.019,1.093,4.231,1.764.1.042.441.418.279.452a.629.629,0,0,0-.378-.259,8.011,8.011,0,0,0-1.483-.258A7.707,7.707,0,0,1,2.549,9.1,3.361,3.361,0,0,1,.808,6.556" transform="translate(-0.109 -0.884)" fill="#292c1e"/>
        <path id="Caminho_2466" data-name="Caminho 2466" d="M56.925,7.347s7.7,3.983,12.118,11.309c0,0,.484,1.3-.985-.446s-5.267-6.719-10.8-9.882-.335-.98-.335-.98" transform="translate(-7.379 -0.892)" fill="#f7f8df"/>
        <path id="Caminho_2467" data-name="Caminho 2467" d="M15.216,5.183c-.205.355-.807.39-1.344.08s-.808-.85-.6-1.2.807-.39,1.345-.08.808.85.6,1.2" transform="translate(-1.78 -0.508)" fill="#748438"/>
        <path id="Caminho_2468" data-name="Caminho 2468" d="M17.843,7.456a.761.761,0,0,1-1,.308c-.445-.15-.719-.529-.613-.848a.761.761,0,0,1,1-.308c.445.15.72.529.613.848" transform="translate(-2.186 -0.883)" fill="#748438"/>
        <path id="Caminho_2469" data-name="Caminho 2469" d="M15.3,7.36a.613.613,0,0,1-1.126-.377A.613.613,0,0,1,15.3,7.36" transform="translate(-1.909 -0.903)" fill="#748438"/>
        <path id="Caminho_2470" data-name="Caminho 2470" d="M27.106,50.842c-.492.111-1.027-.4-1.195-1.151s.1-1.441.587-1.551,1.028.4,1.2,1.151-.1,1.441-.587,1.552" transform="translate(-3.488 -6.49)" fill="#748438"/>
        <path id="Caminho_2471" data-name="Caminho 2471" d="M27.263,55.119c-.378.17-.876-.121-1.113-.649a.937.937,0,0,1,.256-1.262c.379-.17.877.121,1.113.649a.936.936,0,0,1-.256,1.262" transform="translate(-3.51 -7.169)" fill="#748438"/>
        <path id="Caminho_2472" data-name="Caminho 2472" d="M25.251,52.724a.755.755,0,1,1,.217-.9.664.664,0,0,1-.217.9" transform="translate(-3.285 -6.926)" fill="#748438"/>
        <path id="Caminho_2473" data-name="Caminho 2473" d="M25.812,46.029a1.115,1.115,0,1,1,1.1-.914,1.017,1.017,0,0,1-1.1.914" transform="translate(-3.384 -5.915)" fill="#748438"/>
        <path id="Caminho_2474" data-name="Caminho 2474" d="M24.169,48.709c-.4.091-.835-.292-.962-.857s.1-1.1.5-1.186.835.293.962.857-.1,1.1-.5,1.186" transform="translate(-3.125 -6.292)" fill="#748438"/>
        <path id="Caminho_2475" data-name="Caminho 2475" d="M77.234,47.12c.108-.441.738-.667,1.408-.5s1.126.654,1.017,1.1-.738.667-1.408.5-1.126-.654-1.018-1.1" transform="translate(-10.414 -6.28)" fill="#748438"/>
        <path id="Caminho_2476" data-name="Caminho 2476" d="M73.816,45.568c.015-.374.449-.659.97-.639s.931.34.916.713-.448.659-.969.639-.932-.339-.917-.713" transform="translate(-9.955 -6.059)" fill="#748438"/>
        <path id="Caminho_2477" data-name="Caminho 2477" d="M84.99,49.179a.68.68,0,1,1,.638.536.6.6,0,0,1-.638-.536" transform="translate(-11.462 -6.567)" fill="#748438"/>
        <path id="Caminho_2478" data-name="Caminho 2478" d="M81.72,48.013a1,1,0,1,1,.3,1.25.917.917,0,0,1-.3-1.25" transform="translate(-11.002 -6.436)" fill="#748438"/>
        <path id="Caminho_2479" data-name="Caminho 2479" d="M80.231,45.628a.844.844,0,0,1,1.077-.433c.507.124.845.518.757.881s-.571.557-1.077.433-.845-.517-.757-.881" transform="translate(-10.818 -6.09)" fill="#748438"/>
        <path id="Caminho_2480" data-name="Caminho 2480" d="M3.926,32.364c-.413.041-.792-.393-.85-.968s.232-1.075.644-1.116.793.393.85.968-.231,1.075-.644,1.116" transform="translate(-0.414 -4.083)" fill="#434924"/>
        <path id="Caminho_2481" data-name="Caminho 2481" d="M2.791,29.449c-.311.031-.6-.27-.635-.671a.665.665,0,0,1,.491-.783c.312-.031.6.27.635.671a.664.664,0,0,1-.491.783" transform="translate(-0.29 -3.775)" fill="#434924"/>
        <path id="Caminho_2482" data-name="Caminho 2482" d="M4.863,28.242c-.413-.042-.7-.543-.64-1.119s.441-1.007.854-.965.7.542.639,1.118-.44,1.008-.853.965" transform="translate(-0.568 -3.528)" fill="#434924"/>
        <path id="Caminho_2483" data-name="Caminho 2483" d="M59.785,41.8c-.311.031-.6-.27-.635-.671a.665.665,0,0,1,.491-.783c.311-.031.6.27.635.671a.663.663,0,0,1-.491.783" transform="translate(-7.977 -5.441)" fill="#434924"/>
        <path id="Caminho_2484" data-name="Caminho 2484" d="M62.8,42.946c-.413-.042-.7-.543-.64-1.119s.441-1.007.854-.965.7.542.639,1.118-.44,1.008-.853.965" transform="translate(-8.381 -5.511)" fill="#434924"/>
      </g>
    </g>
  </g>
</svg>
