<svg id="alfabeto_x_fim" xmlns="http://www.w3.org/2000/svg" xmlns:xlink="http://www.w3.org/1999/xlink" width="84.492" height="50" viewBox="0 0 84.492 50">
  <defs>
    <clipPath id="clip-path">
      <rect id="Ret창ngulo_198" data-name="Ret창ngulo 198" width="84.492" height="50" fill="none"/>
    </clipPath>
    <clipPath id="clip-path-3">
      <rect id="Ret창ngulo_196" data-name="Ret창ngulo 196" width="22.558" height="38.29" fill="none"/>
    </clipPath>
  </defs>
  <g id="Grupo_1566" data-name="Grupo 1566" clip-path="url(#clip-path)">
    <g id="Grupo_1565" data-name="Grupo 1565" transform="translate(0 0)">
      <g id="Grupo_1564" data-name="Grupo 1564" clip-path="url(#clip-path)">
        <path id="Caminho_2573" data-name="Caminho 2573" d="M53.642,9.1s7.824-6.065,14.994-1.853S71.163,24.6,66.614,28.474A34.674,34.674,0,0,1,45.545,37.4l-1-5.214s5.559,1.066,9.6-.506C57.686,30.3,71.457,21.356,68.3,13.988a6.025,6.025,0,0,0-5.851-3.509c-2.548.13-6.118,1.358-9.2,6.259" transform="translate(11.847 1.532)" fill="#80579f"/>
        <path id="Caminho_2574" data-name="Caminho 2574" d="M53.688,9.108c4.166-3.161,10.174-4.833,14.981-2.091,7.359,4.49,3.341,16.338-1.563,21.311a36.33,36.33,0,0,1-21.479,9.3l-.173.015-.035-.173L44.369,32.26l-.068-.343c4.388.756,9.133.549,12.856-2.133C61.832,26.622,69.3,21.422,68.407,15.07c-1-4.759-6.955-5.36-10.481-2.927-1.913,1.065-3.365,3-4.638,4.609,1.7-2.818,4.238-5.418,7.558-6.185,3.3-.99,7.344.815,8.1,4.381,1.352,7.193-8.767,14.21-14.41,16.96a19.031,19.031,0,0,1-9.967.544l.286-.286L45.8,37.39l-.209-.158a33.812,33.812,0,0,0,21.279-9.152,19.9,19.9,0,0,0,5.2-14.294c-.028-5.745-6.034-8.655-11.14-7.625a21.093,21.093,0,0,0-7.245,2.946" transform="translate(11.782 1.499)" fill="#2d1545"/>
        <path id="Caminho_2575" data-name="Caminho 2575" d="M15.667,34.259v4.212a40.03,40.03,0,0,0,27.8,0V33.417" transform="translate(4.167 8.888)" fill="#80579f"/>
        <path id="Caminho_2576" data-name="Caminho 2576" d="M15.749,34.259c.108,1.4.153,2.808.2,4.212l-.141-.214c4.4,1.509,9.1,2.729,13.8,2.51A50.3,50.3,0,0,0,43.426,38.23l-.167.241a46.8,46.8,0,0,1,.287-5.054q.161,2.615.229,5.23a35.1,35.1,0,0,1-14.165,2.441c-4.736-.215-9.576-.477-13.988-2.4l-.146-.061a34.577,34.577,0,0,1,.271-4.365" transform="translate(4.116 8.888)" fill="#2d1545"/>
        <path id="Caminho_2577" data-name="Caminho 2577" d="M.112,5.071S-1.91,31.521,15.443,42.134c0,0,23.081,5.56,35.21,0S65,25.624,67.09,5.071" transform="translate(0.011 1.349)" fill="#80579f"/>
        <path id="Caminho_2578" data-name="Caminho 2578" d="M.154,5.073C-.06,18.625,3.466,34.191,15.529,42.01c9.249,2.038,19.5,3.3,29.064,1.622C64.138,40.161,64.85,20.919,67.132,5.073c-1.482,16.351-2.594,35.775-22.44,39.1-9.769,1.527-19.717,0-29.314-1.918C3.062,34.675-.866,18.572.154,5.073" transform="translate(0 1.349)" fill="#2d1545"/>
        <path id="Caminho_2579" data-name="Caminho 2579" d="M1.553,17.67s25.415,15.122,62.453.738c0,0-1.561,7.244-3.8,10.992a2.788,2.788,0,0,1-1.867,1.294c-5.6,1.12-30.7,5.575-49.958-.337a6.017,6.017,0,0,1-3.359-3.031A47.659,47.659,0,0,1,1.553,17.67" transform="translate(0.413 4.7)" fill="#70b32f"/>
        <g id="Grupo_1563" data-name="Grupo 1563" transform="translate(44.52 6.643)" opacity="0.46">
          <g id="Grupo_1562" data-name="Grupo 1562">
            <g id="Grupo_1561" data-name="Grupo 1561" clip-path="url(#clip-path-3)">
              <path id="Caminho_2580" data-name="Caminho 2580" d="M46.3,9.762s10.906-1.68,11.424-4.514c0,0-2.6,18.7-3.836,21s-1.777,9.94-12.962,15.667a30.24,30.24,0,0,1-5.76,1.619S50.211,37.3,46.3,9.762" transform="translate(-35.167 -5.247)" fill="#634480"/>
            </g>
          </g>
        </g>
        <path id="Caminho_2581" data-name="Caminho 2581" d="M67.075,6.345c0,3.35-14.994,6.065-33.49,6.065S.1,9.695.1,6.345,15.09.28,33.585.28,67.075,3,67.075,6.345" transform="translate(0.026 0.075)" fill="#482865"/>
        <path id="Caminho_2582" data-name="Caminho 2582" d="M67.131,6.42a2.352,2.352,0,0,1-1.29,1.7,21.914,21.914,0,0,1-6.16,2.2c-14.256,3.083-29.07,2.9-43.517,1.408-21.534-2.3-21.55-8.3-.019-10.773C30.608-.513,45.417-.5,59.682,2.524a21.908,21.908,0,0,1,6.16,2.2,2.358,2.358,0,0,1,1.289,1.7m-.063,0A2.29,2.29,0,0,0,65.8,4.8a20.768,20.768,0,0,0-6.151-2.1C45.357.127,30.63.267,16.211,1.536-4.86,3.73-4.889,9.114,16.19,11.48c7.273,1.1,48.709,1.86,50.877-5.06" transform="translate(0.001 0)" fill="#2d1545"/>
        <path id="Caminho_2583" data-name="Caminho 2583" d="M35.052,36.184v2.31l2.941-.809.105-2.139s-1.853.462-3.046.638" transform="translate(9.322 9.454)" fill="#634480"/>
        <path id="Caminho_2584" data-name="Caminho 2584" d="M5.641,9.793S2.5,8.67,2.272,9.793s2.133,17.149,6.4,21.939,4.493,5.241,4.493,6.14S3.141,28.636,2.257,19.159.474,8.221,1.373,8.221,7.1,9.007,5.641,9.793" transform="translate(0.266 2.187)" fill="#c4abd2"/>
      </g>
    </g>
  </g>
</svg>
