<svg xmlns="http://www.w3.org/2000/svg" xmlns:xlink="http://www.w3.org/1999/xlink" width="52.286" height="50" viewBox="0 0 52.286 50">
  <defs>
    <clipPath id="clip-path">
      <rect id="Retângulo_195" data-name="Retângulo 195" width="52.286" height="50" transform="translate(0 0)" fill="none"/>
    </clipPath>
  </defs>
  <g id="alfabeto_v_fim" transform="translate(0 0)">
    <g id="Grupo_1559" data-name="Grupo 1559" transform="translate(0 0)" clip-path="url(#clip-path)">
      <path id="Caminho_2542" data-name="Caminho 2542" d="M13.838,29.332C2.431,29.589.992,23.577.529,21.5s-1.49-3.624,3.752-4.035,9.763,5.332,9.763,5.332l-.312,1.6s-5.227-3.391-6.646-4.624-6.66-.36-6.66-.36" transform="translate(-0.03 -4.013)" fill="#e8dcd3"/>
      <path id="Caminho_2543" data-name="Caminho 2543" d="M13.809,29.324C8.78,29.737,2.284,28.385.7,22.865.464,22.142.357,21.4.183,20.687s-.383-1.6.179-2.216a3.925,3.925,0,0,1,2.059-.907c4.585-1.2,8.972,1.592,11.829,5.01l.085.1-.027.142c-.062.33-.336,1.752-.393,2.052-2.2-1.46-4.41-2.889-6.5-4.531a3.252,3.252,0,0,0-1.506-.876A18.071,18.071,0,0,0,.4,19.406,14.088,14.088,0,0,1,6,19.055a3.614,3.614,0,0,1,1.709.9c.985.734,2.029,1.408,3.053,2.1s2.064,1.374,3.1,2.047l-.464.2.317-1.6.059.242c-2.725-3.3-6.827-6.266-11.322-5.188A3.474,3.474,0,0,0,.5,18.6c-.477.544-.273,1.343-.085,2.031.213.715.36,1.445.618,2.123,1.907,5.385,7.9,6.274,12.772,6.574" transform="translate(0 -3.976)" fill="#baaea6"/>
      <path id="Caminho_2544" data-name="Caminho 2544" d="M.405,20.724c-.018-.35-.23-1.213.119-1.182,1.4.124,4.215-.838,6.32.565C9.618,21.957,13.2,25,13.749,25.02l-.523,4.7s-7.729.6-10.52-3.725C.935,23.241.512,22.877.405,20.724" transform="translate(-0.075 -4.449)" fill="#f58f7f"/>
      <path id="Caminho_2545" data-name="Caminho 2545" d="M.366,20.671A4.516,4.516,0,0,1,.3,19.651c.012-.082.074-.2.191-.2a5.8,5.8,0,0,0,.759-.028c4.77-.948,5.727.249,9.257,3.113a16.726,16.726,0,0,0,3.337,2.374c-.182,1.648-.288,3.3-.427,4.956-3.648.232-8-.207-10.485-3.2C1.73,24.833.335,22.94.366,20.671m.058,0a6.348,6.348,0,0,0,1.608,3.937,9.763,9.763,0,0,0,2.894,3.07A15.973,15.973,0,0,0,13.2,29.448l-.2.19c.219-1.561.464-3.117.641-4.682l.092.105a3.39,3.39,0,0,1-.93-.514c-.816-.56-1.68-1.209-2.488-1.768C8.1,21.353,6.143,19.216,3.283,19.446c-.838,0-1.691.113-2.54.1-.177,0-.357-.07-.376.123a4.665,4.665,0,0,0,.056,1" transform="translate(-0.065 -4.395)" fill="#baaea6"/>
      <path id="Caminho_2546" data-name="Caminho 2546" d="M12.356,25.48l.586-.805L7.769,21.038a6.973,6.973,0,0,0-4.355-1.522s-2.755.154-2.85.115-.167.051-.174.146,3.969.223,4.469.887,7.5,4.816,7.5,4.816" transform="translate(-0.09 -4.491)" fill="#ce8277"/>
      <path id="Caminho_2547" data-name="Caminho 2547" d="M20.647,11.68S14.6,8.114,16,1.639c0,0-.418-2.056-1.155,0s-3.583,10.389,3.7,14.7" transform="translate(-3.148 -0.167)" fill="#131313"/>
      <path id="Caminho_2548" data-name="Caminho 2548" d="M20.553,11.679A8.988,8.988,0,0,1,15.829,1.593c-.088-.291-.348-1.353-.778-.386-2.041,5.637-1.688,11.431,3.4,15.131-5.892-2.881-6.106-9.911-3.584-15.224.5-1.022,1-.28,1.148.48a8.4,8.4,0,0,0-.035,2.927c.409,2.929,2.474,5.348,4.572,7.158" transform="translate(-3.07 -0.141)" fill="#1a1818"/>
      <path id="Caminho_2549" data-name="Caminho 2549" d="M15.743,23.912s1.079-1.584,2.929-4.491c0,0,1.233-5.035,3.237-6.361s10.483-5.18,16.34.986a27.535,27.535,0,0,1,4.008,14.246c.154,8.723-.617,16.739-9.249,20.439,0,0-1.85-.154-5.858,2.467s-11.407-.925-11.407-.925-1.233-9.316,0-11.209-.925-10.526,0-15.151" transform="translate(-3.497 -2.451)" fill="#e8dcd3"/>
      <path id="Caminho_2550" data-name="Caminho 2550" d="M15.743,23.912s1.079-1.584,2.929-4.491c0,0,1.233-5.035,3.237-6.361s10.483-5.18,16.34.986a27.535,27.535,0,0,1,4.008,14.246c.154,8.723-.617,16.739-9.249,20.439,0,0-1.85-.154-5.858,2.467s-11.407-.925-11.407-.925-1.233-9.316,0-11.209S14.819,28.536,15.743,23.912Z" transform="translate(-3.497 -2.451)" fill="none" stroke="#baaea6" stroke-miterlimit="10" stroke-width="0.75"/>
      <path id="Caminho_2551" data-name="Caminho 2551" d="M42.089,15.487s-7.31,3.628-8.44,6.609S31.593,25.076,30.873,26s-1.541,1.275-.719,4.131.719,2.692.719,5.91,2.056,2.374,2.364,5.056-2.072,3.136-1.139,5.221,4.5,3.755,4.5,3.755,9.508-3.9,9.365-14.529-.059-14.232-3.879-20.058" transform="translate(-6.86 -3.564)" fill="#131313"/>
      <path id="Caminho_2552" data-name="Caminho 2552" d="M42.009,15.506c-2.883,1.765-6.577,3.583-8.222,6.66A9.468,9.468,0,0,1,32.5,24.634c-.808,1.009-2.117,1.744-2.464,3.031-.206,1.313.393,2.578.668,3.879.869,2.69-.827,5.7,1.712,7.609,1.362,1.437.934,3.683-.152,5.117a2.146,2.146,0,0,0-.347,1.23c.433,2.223,2.855,3.417,4.688,4.4,5.712-3.116,9.424-8.379,8.975-15.605-.044-6.445.243-13.242-3.575-18.787m.015-.055c4.153,5.365,4.055,12.39,4.15,18.835a15.951,15.951,0,0,1-9.648,15.986c-1.932-1.076-4.394-2.384-4.813-4.759a2.352,2.352,0,0,1,.386-1.341c1.087-1.4,1.478-3.506.166-4.873-2.588-1.828-1.1-5.137-1.992-7.644-.328-1.311-.951-2.669-.731-4.089.327-1.434,1.709-2.195,2.584-3.232a9.033,9.033,0,0,0,1.24-2.327c.795-1.75,2.4-2.807,3.89-3.878a36.144,36.144,0,0,1,4.768-2.678" transform="translate(-6.788 -3.556)" fill="#1a1818"/>
      <path id="Caminho_2553" data-name="Caminho 2553" d="M18.472,21.894a21.91,21.91,0,0,1,.745,4.657c.1,2.466-.925,3.554-.514,4.757s1.349,5.766.212,6.208-.407,4.493-3.1,3.243l-.482-8.787.323-4.708-.323-.63" transform="translate(-3.528 -5.038)" fill="#131313"/>
      <path id="Caminho_2554" data-name="Caminho 2554" d="M18.425,21.883a16.564,16.564,0,0,1,.952,5.281c.08,1.342-.666,2.6-.585,3.882a18.667,18.667,0,0,1,.657,5.3,1.443,1.443,0,0,1-.564,1.255c-.691.473-.615,1.6-.92,2.349a1.546,1.546,0,0,1-2.332,1.042l-.005,0-.135-.046q-.193-2.281-.308-4.565c-.069-1.473-.142-2.945-.178-4.419.142-1.57.3-3.139.5-4.7.048.153-.286-.635-.281-.612l.052-.026.358.611c.009,1.582-.069,3.174-.135,4.756.229,2.758.414,5.872.493,8.755,0,0-.164-.232-.146-.219,1.567.9,1.888-.757,2.224-1.935a1.746,1.746,0,0,1,.733-1.173c.326-.172.419-.667.46-1.082a14.2,14.2,0,0,0-.921-5.194c-.217-1.384.59-2.64.56-3.989a37.216,37.216,0,0,0-.483-5.265" transform="translate(-3.454 -5.036)" fill="#1a1818"/>
      <path id="Caminho_2555" data-name="Caminho 2555" d="M13.708,30.2a2.521,2.521,0,0,1,2.468-2.543A2.521,2.521,0,0,1,18.3,30.488a2.52,2.52,0,0,1-2.468,2.543A2.521,2.521,0,0,1,13.708,30.2" transform="translate(-3.153 -6.363)" fill="#fff"/>
      <path id="Caminho_2556" data-name="Caminho 2556" d="M13.682,30.153c.3-3.863,4.682-3.387,4.719.3-.211,3.79-4.99,3.563-4.719-.3m.038,0c.038,3.323,4.04,3.541,4.471.284.309-3.384-4.109-3.564-4.471-.284" transform="translate(-3.146 -6.32)" fill="#1a1818"/>
      <path id="Caminho_2557" data-name="Caminho 2557" d="M13.715,30.178c.082-1.3.771-2.317,1.537-2.268s1.32,1.143,1.236,2.444-.77,2.317-1.536,2.268-1.32-1.143-1.237-2.444" transform="translate(-3.154 -6.422)" fill="#1a1818"/>
      <path id="Caminho_2558" data-name="Caminho 2558" d="M35.355,32.307a2.521,2.521,0,0,1,2.468-2.543A2.521,2.521,0,0,1,39.95,32.6a2.521,2.521,0,0,1-2.468,2.543,2.521,2.521,0,0,1-2.126-2.835" transform="translate(-8.135 -6.848)" fill="#fff"/>
      <path id="Caminho_2559" data-name="Caminho 2559" d="M35.329,32.262c.3-3.863,4.682-3.387,4.719.3-.21,3.79-4.99,3.563-4.719-.3m.038,0c.038,3.323,4.04,3.541,4.471.284.309-3.384-4.109-3.564-4.471-.284" transform="translate(-8.128 -6.806)" fill="#1a1818"/>
      <path id="Caminho_2560" data-name="Caminho 2560" d="M35.361,32.288c.082-1.3.771-2.317,1.537-2.268s1.32,1.143,1.236,2.444-.77,2.317-1.536,2.268-1.32-1.143-1.237-2.444" transform="translate(-8.136 -6.908)" fill="#1a1818"/>
      <path id="Caminho_2561" data-name="Caminho 2561" d="M15.62,48.549a2.557,2.557,0,0,1,.667.192,4.782,4.782,0,0,0,3.7-.124c2.456-.965,5.058-.256,5.452.777s-1.069,3.7-1.224,4.445,1.156,4.68-1,5.3-4.548.925-6.089-.617c0,0-.021-.385-1.783-.077-1.543.269-4.036.717-4.481-1.293a2.656,2.656,0,0,1,.172-1.532,5.4,5.4,0,0,0,.389-2.635c-.231-1.554-.962-3.862,1.6-4.365a6.451,6.451,0,0,1,2.6-.068" transform="translate(-2.488 -11.083)" fill="#f58f7f"/>
      <path id="Caminho_2562" data-name="Caminho 2562" d="M15.537,48.454a5.554,5.554,0,0,0,3.317.316,12.481,12.481,0,0,1,3.329-.893c1.909-.068,4.247.655,3.257,3.053-.259.8-.657,1.616-.989,2.384-.4.789-.049,1.608-.02,2.452.1,1.213.142,2.975-1.3,3.411-2.015.6-4.829,1.183-6.345-.71.035.156.047.089.033.1a.312.312,0,0,0-.061-.022c-1.9-.179-4.414,1.256-5.908-.556-1.021-1.353.129-2.833.229-4.213.126-1.327-.6-2.828.059-4.163.861-1.491,2.935-1.32,4.4-1.163m-.008.057c-2.375-.276-4.924.162-4.166,3.187a6.269,6.269,0,0,1-.23,4.205c-.774,3.192,2.986,2.369,4.9,2.1.4,0,1.108-.108,1.25.432l-.072-.162A4.072,4.072,0,0,0,20.164,59.4a9.337,9.337,0,0,0,3.283-.576c.975-.624.879-2.008.776-3.036-.044-.831-.454-1.788-.075-2.59.277-.767.641-1.624.843-2.4a2.19,2.19,0,0,0,.075-1.472c-1.027-1.186-3.075-1.139-4.521-.824a7.323,7.323,0,0,1-3.377.488c-.577-.049-1.078-.386-1.638-.477" transform="translate(-2.401 -11.017)" fill="#ce8277"/>
      <path id="Caminho_2563" data-name="Caminho 2563" d="M14.689,52.6c.736.865,1.157,1.714.942,1.9s-.988-.367-1.724-1.231-1.158-1.715-.942-1.9.988.368,1.724,1.232" transform="translate(-2.971 -11.812)" fill="#3c0c0d"/>
      <path id="Caminho_2564" data-name="Caminho 2564" d="M23.439,53c.8-.8,1.616-1.29,1.817-1.09s-.288,1.014-1.09,1.817-1.616,1.29-1.817,1.09S22.636,53.8,23.439,53" transform="translate(-5.133 -11.935)" fill="#3c0c0d"/>
      <path id="Caminho_2565" data-name="Caminho 2565" d="M45.5,12.048s2.962-.893,2.551-10.964c0,0,.129-1.827.989-.5s5.589,13.116-.783,16.767" transform="translate(-10.47 -0.023)" fill="#131313"/>
      <path id="Caminho_2566" data-name="Caminho 2566" d="M45.487,12c1.564-1.15,1.791-3.356,2.1-5.147a47.011,47.011,0,0,0,.353-5.8c.055-.38.138-1.192.691-1.033a2.288,2.288,0,0,1,.788,1.042,23.871,23.871,0,0,1,2.267,7.264c.5,3.249-.124,7.482-3.421,9.023a7.136,7.136,0,0,0,2.664-4.04c.7-3.244.034-6.635-.859-9.8-.395-1.1-.637-2.524-1.508-3.332-.337-.1-.381.642-.413.885.185,2.857.295,5.963-.8,8.718A3.955,3.955,0,0,1,45.5,12.054Z" transform="translate(-10.468 0)" fill="#1a1818"/>
      <path id="Caminho_2567" data-name="Caminho 2567" d="M62.184,18.216s-5.241-.874-6.66.36c-1.273,1.106-8.281,5.14-9.709,5.957a.128.128,0,0,1-.187-.143l.187-.807a2.3,2.3,0,0,1,.68-1.172c1.736-1.6,7.444-6.492,11.835-6.147,5.241.411,4.214,1.955,3.752,4.035-.454,2.041-2.515,8.128-13.37,8.112a2.189,2.189,0,0,1-1.292-.43,4.866,4.866,0,0,1-1.936-2.738" transform="translate(-10.467 -3.739)" fill="#e8dcd3"/>
      <path id="Caminho_2568" data-name="Caminho 2568" d="M62.165,18.191a16.329,16.329,0,0,0-5.828.122,2.24,2.24,0,0,0-.787.445,90.225,90.225,0,0,1-9.622,5.873.361.361,0,0,1-.248.052.317.317,0,0,1-.23-.182c-.077-.189.028-.323.051-.481a2.986,2.986,0,0,1,.928-1.8c2.761-2.344,5.675-4.641,9.164-5.822a8.655,8.655,0,0,1,3.986-.266c1.27.135,3.305.588,3.152,2.26C62.09,25.356,56.29,28.53,49.825,28.507l-.995.013C47.1,28.508,45.8,26.74,45.442,25.2l.056-.012a4.713,4.713,0,0,0,2.422,2.869,11.779,11.779,0,0,0,3.838-.115c3.778-.466,7.726-2.282,9.375-5.9a14.219,14.219,0,0,0,1.056-3.679c.112-1.353-1.631-1.6-2.674-1.8-3.972-.8-7.638,1.593-10.666,3.919-.928.826-2.186,1.6-2.761,2.688a8.248,8.248,0,0,0-.285,1.168c-.014.068,0,.008-.009,0a.061.061,0,0,0-.044-.036c-.169.054.3-.192.3-.2,3.047-1.9,6.3-3.612,9.229-5.667a4.808,4.808,0,0,1,2.947-.72,15.238,15.238,0,0,1,3.936.476" transform="translate(-10.453 -3.685)" fill="#baaea6"/>
      <path id="Caminho_2569" data-name="Caminho 2569" d="M61.68,22.731a6.554,6.554,0,0,0,.768-3.716.266.266,0,0,0-.266-.274c-1.437.065-4.153-.807-6.2.557-2.775,1.85-9.806,5.782-10.351,5.8a2.459,2.459,0,0,0,.71,2.362c1.1,1.045,1.071,1.275,2.39,1.474s6.308-.549,7.989-1.544c.386-.229.774-.469,1.143-.7a11.308,11.308,0,0,0,3.817-3.956" transform="translate(-10.486 -4.263)" fill="#f58f7f"/>
      <path id="Caminho_2570" data-name="Caminho 2570" d="M61.59,22.651a6.543,6.543,0,0,0,.671-3.717.143.143,0,0,0-.116-.123,10.594,10.594,0,0,1-1.4-.03c-1.861-.163-3.737-.19-5.231.986-2.346,1.377-5,2.787-7.367,4.144-.564.318-1.6.9-2.183,1.171a1.644,1.644,0,0,1-.392.137l.172-.133a2.286,2.286,0,0,0,.694,2.125c.537.463,1.164,1.3,1.955,1.328,4.892.222,10.584-1.4,13.2-5.888m.05.028A11.964,11.964,0,0,1,53.5,28.656a22.572,22.572,0,0,1-3.868.528,3.6,3.6,0,0,1-2.621-.7c-1.007-.907-2.073-2.049-1.624-3.5.026-.118.029-.076.172-.133a55.772,55.772,0,0,0,9.71-5.465c1.957-1.692,4.6-1.066,6.923-.837a.4.4,0,0,1,.31.373,7.6,7.6,0,0,1-.861,3.761" transform="translate(-10.42 -4.198)" fill="#baaea6"/>
      <path id="Caminho_2571" data-name="Caminho 2571" d="M58,19.853c.48-.678,4.377-.661,4.37-.755s-.062-.243-.182-.237c-.1,0-2.742-.156-2.742-.156a6.926,6.926,0,0,0-3.959,1.226,10.283,10.283,0,0,1-1.04.632l-8.8,4.577s0,1.343.5,1.825a3.5,3.5,0,0,0,.154-1.041c0-.6,11.423-5.687,11.7-6.071" transform="translate(-10.505 -4.304)" fill="#ce8277"/>
      <path id="Caminho_2572" data-name="Caminho 2572" d="M22.158,17.631a6.211,6.211,0,0,1,4.884-4.8c4.327-1.025,3.14,0,3.14,0s-4.187.481-5.3,1.681-3,4.891-2.721,3.529" transform="translate(-5.093 -2.848)" fill="#fff"/>
    </g>
  </g>
</svg>
