<svg id="alfabeto_j_e001_fim" xmlns="http://www.w3.org/2000/svg" xmlns:xlink="http://www.w3.org/1999/xlink" width="53.04" height="50" viewBox="0 0 53.04 50">
  <defs>
    <clipPath id="clip-path">
      <rect id="Retângulo_164" data-name="Retângulo 164" width="53.04" height="50" fill="none"/>
    </clipPath>
  </defs>
  <g id="Grupo_1516" data-name="Grupo 1516" clip-path="url(#clip-path)">
    <path id="Caminho_2242" data-name="Caminho 2242" d="M32.681,8.188s1.465-4.263,8.128-2.265,5.33,9.193,5.33,9.193-14.923.533-13.458-6.929" transform="translate(-2.78 -0.46)" fill="#1a1818"/>
    <path id="Caminho_2243" data-name="Caminho 2243" d="M45.231,13.1c.194-.595.111-1.153-.185-1.25s-.693.307-.886.9-.112,1.153.185,1.25.692-.307.886-.9" transform="translate(-3.759 -1.01)" fill="#fff"/>
    <path id="Caminho_2244" data-name="Caminho 2244" d="M36.547,8.984c.349-.518.424-1.078.166-1.253s-.751.1-1.1.622-.424,1.079-.166,1.253.751-.1,1.1-.622" transform="translate(-3.011 -0.655)" fill="#fff"/>
    <path id="Caminho_2245" data-name="Caminho 2245" d="M40.4,5.419S40.825,1.572,39.16,1.2,37.917.1,38.449.017s2.932-.132,2.266,5.4" transform="translate(-3.24 0)" fill="#1a1818"/>
    <path id="Caminho_2246" data-name="Caminho 2246" d="M43.969,7.389s2.866-2.6,4.143-1.467,1.625.357,1.377-.121-1.614-2.45-5.7,1.337" transform="translate(-3.736 -0.415)" fill="#1a1818"/>
    <path id="Caminho_2247" data-name="Caminho 2247" d="M14.19,7.573c2.847-1.272,7.084,1.158,6.4,4.484-1.909-2.2-3.844-2.931-6.4-4.484" transform="translate(-1.211 -0.617)" fill="#1a1818"/>
    <path id="Caminho_2248" data-name="Caminho 2248" d="M5.026,14.133c2.847-1.272,7.084,1.159,6.4,4.484-1.909-2.2-3.844-2.931-6.4-4.484" transform="translate(-0.429 -1.177)" fill="#1a1818"/>
    <path id="Caminho_2249" data-name="Caminho 2249" d="M0,31.123c1.43-2.772,6.256-3.519,7.8-.492-2.867-.528-4.833.112-7.8.492" transform="translate(0 -2.447)" fill="#1a1818"/>
    <path id="Caminho_2250" data-name="Caminho 2250" d="M57.349,31.018c-2.521-1.6-4.031-3.015-6.85-3.753,2.679-2.088,6.731.636,6.85,3.753" transform="translate(-4.309 -2.264)" fill="#1a1818"/>
    <path id="Caminho_2251" data-name="Caminho 2251" d="M55.518,42.138c-2.521-1.6-4.031-3.015-6.85-3.753,2.679-2.088,6.731.636,6.85,3.753" transform="translate(-4.152 -3.212)" fill="#1a1818"/>
    <path id="Caminho_2252" data-name="Caminho 2252" d="M42.686,53.991c-.969-2.825-1.265-4.872-3.007-7.209,3.4.043,4.861,4.7,3.007,7.209" transform="translate(-3.385 -3.992)" fill="#1a1818"/>
    <path id="Caminho_2253" data-name="Caminho 2253" d="M20.444,25.891c-4.93,8.539-5.783,17.276-1.905,19.515S29.555,42.536,34.485,34s5.784-17.276,1.906-19.515S25.374,17.352,20.444,25.891" transform="translate(-1.374 -1.191)" fill="#1a1818"/>
    <path id="Caminho_2254" data-name="Caminho 2254" d="M36.706,10.853A22.836,22.836,0,0,0,20.123,9.234,18.12,18.12,0,0,0,8.194,19.856C2.154,33.98,12.9,42.863,16.189,44.106l13-23.308L19.92,45.541s19.632,9.225,27.626-10.762c5.317-13.292-4-20.553-10.84-23.926" transform="translate(-0.545 -0.713)" fill="#e01319"/>
    <path id="Caminho_2255" data-name="Caminho 2255" d="M36.594,10.914C26.16,5.55,12.212,9.583,8.484,21.231a18.111,18.111,0,0,0,2.191,17.617,15.884,15.884,0,0,0,5.571,4.9l-.445.163c2.229-3.85,4.431-7.715,6.553-11.625,2.158-3.89,4.251-7.816,6.336-11.746a.49.49,0,0,1,.888.412c-1.459,4.156-2.894,8.321-4.393,12.462-1.474,4.151-2.991,8.285-4.5,12.421l-.456-1.119c10.1,4.136,20.685,1.961,25.627-8.406,5.761-10.913,1.431-20.18-9.26-25.394m.08-.164C43.87,14.116,50.5,20.676,49.55,29.243c-.791,8.035-5.881,16.36-14.008,18.627A24.378,24.378,0,0,1,19.47,46.327a.868.868,0,0,1-.456-1.119c1.579-4.111,3.152-8.225,4.768-12.322,1.591-4.107,3.246-8.189,4.876-12.28l.888.411c-2.247,3.84-4.488,7.682-6.664,11.562-2.212,3.86-4.344,7.764-6.448,11.683a.358.358,0,0,1-.445.163A18.755,18.755,0,0,1,6.151,32.487a18.97,18.97,0,0,1,.8-11.825C11.087,8.373,25.988,5.208,36.675,10.75" transform="translate(-0.474 -0.693)" fill="#c0081c"/>
    <path id="Caminho_2256" data-name="Caminho 2256" d="M25.325,9.049a.122.122,0,0,0,0-.243c-2.354-.212-8.089.078-13.976,6.471C7.078,19.915,5.88,27.862,7.39,33.078c.908,3.137,4.181,8.328,8.191,10.45a.172.172,0,0,0,.2-.272c-2.52-2.634-11.309-8.2-6.262-23.438,2.8-8.465,12.982-10.461,15.8-10.769" transform="translate(-0.577 -0.747)" fill="#fff"/>
    <path id="Caminho_2257" data-name="Caminho 2257" d="M49.887,24.242a5.176,5.176,0,1,1-5.176-5.175,5.176,5.176,0,0,1,5.176,5.175" transform="translate(-3.373 -1.627)" fill="#1a1818"/>
    <path id="Caminho_2258" data-name="Caminho 2258" d="M37.273,43.494A5.175,5.175,0,1,1,32.1,38.319a5.175,5.175,0,0,1,5.175,5.175" transform="translate(-2.297 -3.269)" fill="#1a1818"/>
    <path id="Caminho_2259" data-name="Caminho 2259" d="M19.172,35.012A3.576,3.576,0,1,1,15.6,31.436a3.576,3.576,0,0,1,3.576,3.576" transform="translate(-1.025 -2.682)" fill="#1a1818"/>
    <path id="Caminho_2260" data-name="Caminho 2260" d="M22.3,16.535a4.32,4.32,0,1,1-4.32-4.32,4.32,4.32,0,0,1,4.32,4.32" transform="translate(-1.166 -1.042)" fill="#1a1818"/>
    <path id="Caminho_2261" data-name="Caminho 2261" d="M33.234,28.194a3.91,3.91,0,1,1-3.91-3.91,3.91,3.91,0,0,1,3.91,3.91" transform="translate(-2.168 -2.072)" fill="#1a1818"/>
    <path id="Caminho_2262" data-name="Caminho 2262" d="M45.966,42.025a1.757,1.757,0,0,0,2.485-.488c.962-1.467,2.558-4.105,2.894-5.926.488-2.645-4.909-1.469-6.508.6-1.006,1.3-.715,4.477,1.129,5.811" transform="translate(-3.777 -2.908)" fill="#1a1818"/>
    <path id="Caminho_2263" data-name="Caminho 2263" d="M45.966,42.025a1.757,1.757,0,0,0,2.485-.488c.962-1.467,2.558-4.105,2.894-5.926.488-2.645-4.909-1.469-6.508.6C43.832,37.518,44.122,40.692,45.966,42.025Z" transform="translate(-3.777 -2.908)" fill="none" stroke="#1a1818" stroke-miterlimit="10" stroke-width="1"/>
  </g>
</svg>
