<svg xmlns="http://www.w3.org/2000/svg" xmlns:xlink="http://www.w3.org/1999/xlink" width="62.386" height="50" viewBox="0 0 62.386 50">
  <defs>
    <clipPath id="clip-path">
      <rect id="Retângulo_172" data-name="Retângulo 172" width="62.386" height="50" fill="none"/>
    </clipPath>
  </defs>
  <g id="alfabeto_q_fim" transform="translate(0 0)">
    <g id="Grupo_1533" data-name="Grupo 1533" transform="translate(0 0)" clip-path="url(#clip-path)">
      <path id="Caminho_2374" data-name="Caminho 2374" d="M.424,24.111v5.622s4.545.479,3.589,5.025S.424,38.7.424,38.7v12.68L24.469,47.2s1.675-4.546,4.545-4.9,5.264,2.752,5.264,2.752l27.633-5.5v-26.8S20.64,22.795.424,24.111" transform="translate(-0.058 -1.755)" fill="#ffdc3b"/>
      <path id="Caminho_2375" data-name="Caminho 2375" d="M62.4,10.433c-.957-2.871-10.54-6.205-10.54-6.205s-3.11,1.077-4.785.239-.837-1.794-.837-1.794C44.805,1.836,27.579.4,27.579.4S1.141,19.181.424,22.411l16.747,4.143Z" transform="translate(-0.058 -0.055)" fill="#ffdc3b"/>
      <path id="Caminho_2376" data-name="Caminho 2376" d="M.4,23.984.5,29.577.38,29.439a4.285,4.285,0,0,1,3.791,2.91C4.649,34.8,3.456,39.092.3,38.837l.36-.288L.73,51.229.3,50.871c8.006-1.448,16.031-2.79,24.061-4.093l-.205.172a12.483,12.483,0,0,1,1.655-2.916c2.465-3.5,6.242-2.119,8.527.761l-.152-.057C42.234,43.223,53.678,40.8,61.8,39.124l-.216.262c-.083-6.675-.137-20.122-.166-26.8l.536.421c-10.145,2.462-20.337,4.708-30.6,6.636C21.133,21.512,10.773,23.416.4,23.984m-.063-.059c20.773-2.216,41.08-7.158,61.416-11.755l.538-.127,0,.547c-.033,6.684-.087,20.116-.166,26.8l0,.221-.214.041c-8.213,1.545-19.6,3.736-27.656,5.391l-.089.018-.063-.075c-3.949-4.587-7.584-2.884-9.491,2.3-8.049,1.5-16.1,2.958-24.179,4.309L0,51.659l0-.43.068-12.68,0-.349c2.85.622,4.08-3.538,3.684-5.744a3.967,3.967,0,0,0-3.4-2.741l-.127-.022,0-.116Z" transform="translate(0 -1.658)" fill="#a45f1c"/>
      <path id="Caminho_2377" data-name="Caminho 2377" d="M62.355,10.29a5.556,5.556,0,0,0-2.173-2.082,45.641,45.641,0,0,0-8.444-3.752h.236C50.21,5,48.07,5.527,46.42,4.383a1.378,1.378,0,0,1-.435-2.043l.082.5C40.074,1.247,33.723,1.017,27.549.561c.835-.408-14,10.559-13.825,10.486-3.471,2.666-7,5.267-10.322,8.111-1.034.969-2.321,1.855-2.943,3.147l-.085-.019a11.423,11.423,0,0,1,2.74-3.442,123.872,123.872,0,0,1,10.072-8.5C17.705,6.872,22.709,3.24,27.411.059c.087-.058.076-.07.185-.051,3.121.354,6.238.7,9.36,1.027l4.687.467a23.113,23.113,0,0,1,4.757.77l.334.148c-.4.479-.579.905.11,1.375,1.475.943,3.423.366,5.024-.064a36.482,36.482,0,0,1,8.515,4.184,5.422,5.422,0,0,1,2.054,2.349Z" transform="translate(-0.052 0)" fill="#a45f1c"/>
      <path id="Caminho_2378" data-name="Caminho 2378" d="M30.814,2.5a.976.976,0,0,1,1.016-.655C39.161,1.838,52.4,5.706,55.4,6.61c8.344,2.512-3.506,0-3.506,0s-8.15-1.794-13.806-3.229c-4.87-1.237-7.543.189-7.275-.881" transform="translate(-4.24 -0.254)" fill="#fff"/>
      <path id="Caminho_2379" data-name="Caminho 2379" d="M51.086,8.665c0,1.883-2.289,3.41-5.114,3.41s-5.114-1.526-5.114-3.41,2.289-3.41,5.114-3.41,5.114,1.526,5.114,3.41" transform="translate(-5.625 -0.724)" fill="#e92"/>
      <path id="Caminho_2380" data-name="Caminho 2380" d="M51.095,8.593c-.365,3.914-5.7,4.624-8.478,2.753-2.549-1.356-2.757-4.27-.128-5.738,2.865-1.766,8.247-.9,8.606,2.985m-.086,0c-.366-4-9.442-3.912-9.949,0-.162,4.321,9.8,3.869,9.949,0" transform="translate(-5.591 -0.652)" fill="#a45f1c"/>
      <path id="Caminho_2381" data-name="Caminho 2381" d="M29.188,15.287c0,1.212-1.594,2.194-3.561,2.194s-3.561-.982-3.561-2.194,1.594-2.194,3.561-2.194,3.561.982,3.561,2.194" transform="translate(-3.038 -1.803)" fill="#e92"/>
      <path id="Caminho_2382" data-name="Caminho 2382" d="M29.193,15.217c-.343,2.73-3.919,3.1-5.886,1.838a2.526,2.526,0,0,1-1.514-1.838c.068-3.473,7.148-3.543,7.4,0m-.086,0c-.182-2.409-6.485-2.269-6.842,0-.029,1.613,2.062,2,3.324,1.835s3.342-.216,3.517-1.835" transform="translate(-3 -1.733)" fill="#a45f1c"/>
      <path id="Caminho_2383" data-name="Caminho 2383" d="M34.453,32.767c0,2.093-2.275,3.79-5.082,3.79s-5.081-1.7-5.081-3.79,2.275-3.79,5.081-3.79,5.082,1.7,5.082,3.79" transform="translate(-3.344 -3.99)" fill="#e92"/>
      <path id="Caminho_2384" data-name="Caminho 2384" d="M34.462,32.7c-.2,4.136-5.642,5.216-8.528,2.978a3.534,3.534,0,0,1-.144-6.179c2.939-2.16,8.505-.878,8.672,3.2m-.086,0c-.382-4.477-9.389-4.419-9.884,0-.13,4.816,9.65,4.383,9.884,0" transform="translate(-3.31 -3.918)" fill="#a45f1c"/>
      <path id="Caminho_2385" data-name="Caminho 2385" d="M6.6,45.23C6.6,47.311,8,49,9.737,49s3.141-1.688,3.141-3.768-1.406-3.768-3.141-3.768S6.6,43.15,6.6,45.23" transform="translate(-0.908 -5.709)" fill="#e92"/>
      <path id="Caminho_2386" data-name="Caminho 2386" d="M6.633,45.16c.214,4.289,6.255,4.726,6,0-.135-1.586-1.236-3.291-2.9-3.308a3.348,3.348,0,0,0-3.1,3.308m-.086,0c-.154-5.715,6.717-5.5,6.56,0-.517,5.25-6.552,5.683-6.56,0" transform="translate(-0.901 -5.639)" fill="#a45f1c"/>
      <path id="Caminho_2387" data-name="Caminho 2387" d="M55.12,37.129c0,2.076-1.989,3.757-4.441,3.757s-4.441-1.682-4.441-3.757,1.988-3.757,4.441-3.757,4.441,1.682,4.441,3.757" transform="translate(-6.366 -4.595)" fill="#e92"/>
      <path id="Caminho_2388" data-name="Caminho 2388" d="M55.125,37.061c-.263,5.68-8.485,5.2-9.161,0,.031-5.541,9.063-5.62,9.161,0m-.086,0c-.348-4.4-8.182-4.368-8.6,0-.181,4.743,8.38,4.342,8.6,0" transform="translate(-6.328 -4.526)" fill="#a45f1c"/>
      <path id="Caminho_2389" data-name="Caminho 2389" d="M54.648,24.429c0,2.775,1.569,5.026,3.506,5.026s3.507-2.251,3.507-5.026-1.57-5.024-3.507-5.024-3.506,2.25-3.506,5.024" transform="translate(-7.524 -2.672)" fill="#e92"/>
      <path id="Caminho_2390" data-name="Caminho 2390" d="M54.684,24.356c-.012,2.024,1.384,4.454,3.463,4.665,2.248.115,3.5-2.67,3.27-4.665-.128-3.246-3.072-6.557-5.707-3.089a5.312,5.312,0,0,0-1.026,3.089m-.086,0c-.067-2.233.81-5.394,3.549-5.484,4.087.368,4.5,5.925,2.8,8.788-.791,1.692-2.964,2.817-4.594,1.491-1.465-1.113-1.726-3.126-1.757-4.8" transform="translate(-7.516 -2.598)" fill="#a45f1c"/>
      <path id="Caminho_2391" data-name="Caminho 2391" d="M63.92,8.956a9.783,9.783,0,0,1,2.6.65c.266.316-.07,1.217-1.42.522S63.224,8.844,63.92,8.956" transform="translate(-8.758 -1.231)" fill="#fff"/>
    </g>
  </g>
</svg>
