<svg xmlns="http://www.w3.org/2000/svg" xmlns:xlink="http://www.w3.org/1999/xlink" width="24.833" height="20" viewBox="0 0 24.833 20">
  <defs>
    <clipPath id="clip-path">
      <rect id="Ret창ngulo_217" data-name="Ret창ngulo 217" width="24.833" height="20" fill="none"/>
    </clipPath>
  </defs>
  <g id="tecla_on_c_fim" transform="translate(0 0)">
    <g id="Grupo_1587" data-name="Grupo 1587" transform="translate(0 0)" clip-path="url(#clip-path)">
      <path id="Caminho_2625" data-name="Caminho 2625" d="M3.892.5A3.392,3.392,0,0,0,.5,3.892V15.554a3.4,3.4,0,0,0,3.392,3.395h16.5a3.389,3.389,0,0,0,3.39-3.395V3.892A3.387,3.387,0,0,0,20.391.5H3.892Z" transform="translate(0.276 0.276)" fill="#fff"/>
      <path id="Ret창ngulo_216" data-name="Ret창ngulo 216" d="M2.186,0H18.5a2.186,2.186,0,0,1,2.186,2.186V16.265A2.187,2.187,0,0,1,18.5,18.452H2.187A2.187,2.187,0,0,1,0,16.265V2.186A2.186,2.186,0,0,1,2.186,0Z" transform="translate(3.364 0.858)" fill="#882c86"/>
      <path id="Caminho_2626" data-name="Caminho 2626" d="M3.892.5A3.392,3.392,0,0,0,.5,3.892V15.554a3.4,3.4,0,0,0,3.392,3.395h16.5a3.389,3.389,0,0,0,3.39-3.395V3.892A3.387,3.387,0,0,0,20.391.5H3.892" transform="translate(0.276 0.276)" fill="none" stroke="#882c86" stroke-linecap="round" stroke-miterlimit="10" stroke-width="1"/>
      <text id="ON" transform="translate(3.337 8.853) rotate(-0.927)" fill="#fff" font-size="8" font-family="Ubuntu"><tspan x="0" y="0">ON</tspan></text>
      <text id="C" transform="translate(16.268 16.496) rotate(-0.52)" fill="#fff" font-size="7" font-family="Ubuntu"><tspan x="0" y="0">C</tspan></text>
      <line id="Linha_3" data-name="Linha 3" y1="9.506" x2="13.512" transform="translate(7.406 6.843)" fill="none" stroke="#fff" stroke-linecap="round" stroke-miterlimit="10" stroke-width="0.5"/>
    </g>
  </g>
</svg>
