<svg xmlns="http://www.w3.org/2000/svg" xmlns:xlink="http://www.w3.org/1999/xlink" width="24.833" height="20" viewBox="0 0 24.833 20">
  <defs>
    <clipPath id="clip-path">
      <rect id="Ret창ngulo_205" data-name="Ret창ngulo 205" width="24.833" height="20" fill="none"/>
    </clipPath>
  </defs>
  <g id="tecla_2_fim" transform="translate(0 0)">
    <g id="Grupo_1574" data-name="Grupo 1574" transform="translate(0 0)" clip-path="url(#clip-path)">
      <path id="Caminho_2612" data-name="Caminho 2612" d="M3.891.5h16.5a3.389,3.389,0,0,1,3.39,3.395V15.557a3.387,3.387,0,0,1-3.39,3.392H3.891A3.392,3.392,0,0,1,.5,15.557V3.895A3.4,3.4,0,0,1,3.891.5" transform="translate(0.275 0.276)" fill="#fff"/>
      <path id="Ret창ngulo_204" data-name="Ret창ngulo 204" d="M2.186,0h15.8a2.188,2.188,0,0,1,2.188,2.188V16.266a2.186,2.186,0,0,1-2.186,2.186H2.186A2.186,2.186,0,0,1,0,16.266V2.186A2.186,2.186,0,0,1,2.186,0Z" transform="translate(3.872 0.764)" fill="#fe0"/>
      <text id="_2" data-name="2" transform="translate(8.826 14.273)" fill="#1a1818" font-size="13" font-family="Ubuntu"><tspan x="0" y="0">2</tspan></text>
      <path id="Caminho_2613" data-name="Caminho 2613" d="M3.891.5h16.5a3.389,3.389,0,0,1,3.39,3.395V15.557a3.387,3.387,0,0,1-3.39,3.392H3.891A3.392,3.392,0,0,1,.5,15.557V3.895A3.4,3.4,0,0,1,3.891.5" transform="translate(0.275 0.276)" fill="none" stroke="#ff9d00" stroke-linecap="round" stroke-miterlimit="10" stroke-width="1"/>
    </g>
  </g>
</svg>
