<svg xmlns="http://www.w3.org/2000/svg" xmlns:xlink="http://www.w3.org/1999/xlink" width="24.989" height="20" viewBox="0 0 24.989 20">
  <defs>
    <clipPath id="clip-path">
      <rect id="Ret창ngulo_252" data-name="Ret창ngulo 252" width="24.989" height="20" fill="none"/>
    </clipPath>
  </defs>
  <g id="tecla_mr_fim" transform="translate(0 0)">
    <g id="Grupo_1632" data-name="Grupo 1632" transform="translate(0 0)">
      <g id="Grupo_1631" data-name="Grupo 1631" clip-path="url(#clip-path)">
        <path id="Caminho_2663" data-name="Caminho 2663" d="M4,.5H21.031a3.5,3.5,0,0,1,3.5,3.5V16.039a3.5,3.5,0,0,1-3.5,3.5H4a3.5,3.5,0,0,1-3.5-3.5V4A3.5,3.5,0,0,1,4,.5" transform="translate(-0.021 -0.021)" fill="#fff"/>
        <path id="Ret창ngulo_251" data-name="Ret창ngulo 251" d="M3.654,0H17.175a3.654,3.654,0,0,1,3.654,3.654V15.389a3.657,3.657,0,0,1-3.657,3.657H3.654A3.654,3.654,0,0,1,0,15.392V3.654A3.654,3.654,0,0,1,3.654,0Z" transform="translate(3.675 0.363)" fill="#fe0"/>
        <path id="Caminho_2664" data-name="Caminho 2664" d="M4,.5H21.031a3.5,3.5,0,0,1,3.5,3.5V16.039a3.5,3.5,0,0,1-3.5,3.5H4a3.5,3.5,0,0,1-3.5-3.5V4A3.5,3.5,0,0,1,4,.5" transform="translate(-0.021 -0.021)" fill="none" stroke="#ff9d00" stroke-linecap="round" stroke-miterlimit="10" stroke-width="1"/>
      </g>
    </g>
    <text id="MR" transform="translate(3.085 13.834)" fill="#1a1818" font-size="12" font-family="Ubuntu"><tspan x="0" y="0">MR</tspan></text>
  </g>
</svg>
