<svg xmlns="http://www.w3.org/2000/svg" xmlns:xlink="http://www.w3.org/1999/xlink" width="24.833" height="20" viewBox="0 0 24.833 20">
  <defs>
    <clipPath id="clip-path">
      <rect id="Ret창ngulo_225" data-name="Ret창ngulo 225" width="24.833" height="20" fill="none"/>
    </clipPath>
  </defs>
  <g id="tecla_m_menos_fim" transform="translate(0 0)">
    <g id="Grupo_1597" data-name="Grupo 1597" transform="translate(0 0)" clip-path="url(#clip-path)">
      <path id="Caminho_2634" data-name="Caminho 2634" d="M3.892.5A3.392,3.392,0,0,0,.5,3.892V15.554a3.4,3.4,0,0,0,3.392,3.395h16.5a3.389,3.389,0,0,0,3.39-3.395V3.892A3.387,3.387,0,0,0,20.391.5H3.892Z" transform="translate(0.276 0.276)" fill="#fff"/>
      <path id="Ret창ngulo_224" data-name="Ret창ngulo 224" d="M2.186,0h15.8a2.188,2.188,0,0,1,2.188,2.188V16.265a2.187,2.187,0,0,1-2.187,2.187H2.187A2.187,2.187,0,0,1,0,16.265V2.186A2.186,2.186,0,0,1,2.186,0Z" transform="translate(3.879 0.664)" fill="#fe0"/>
      <path id="Caminho_2635" data-name="Caminho 2635" d="M3.892.5A3.392,3.392,0,0,0,.5,3.892V15.554a3.4,3.4,0,0,0,3.392,3.395h16.5a3.389,3.389,0,0,0,3.39-3.395V3.892A3.387,3.387,0,0,0,20.391.5H3.892" transform="translate(0.276 0.276)" fill="none" stroke="#ff9d00" stroke-linecap="round" stroke-miterlimit="10" stroke-width="1"/>
      <text id="M-" transform="translate(4.486 14.054)" fill="#1a1818" font-size="13" font-family="Ubuntu"><tspan x="0" y="0">M-</tspan></text>
    </g>
  </g>
</svg>
