<svg xmlns="http://www.w3.org/2000/svg" xmlns:xlink="http://www.w3.org/1999/xlink" width="20" height="37.35" viewBox="0 0 20 37.35">
  <defs>
    <clipPath id="clip-path">
      <rect id="Ret창ngulo_270" data-name="Ret창ngulo 270" width="20" height="37.35" fill="none"/>
    </clipPath>
  </defs>
  <g id="tecla_adicao_fim" transform="translate(0 0)">
    <g id="Grupo_1645" data-name="Grupo 1645" transform="translate(0 0)">
      <g id="Grupo_1644" data-name="Grupo 1644" clip-path="url(#clip-path)">
        <path id="Caminho_2679" data-name="Caminho 2679" d="M3.4.666H16.685A2.729,2.729,0,0,1,19.416,3.4V34.035a2.728,2.728,0,0,1-2.731,2.731H3.4A2.731,2.731,0,0,1,.666,34.035V3.4A2.732,2.732,0,0,1,3.4.666" transform="translate(-0.042 -0.041)" fill="#fff"/>
        <path id="Ret창ngulo_269" data-name="Ret창ngulo 269" d="M2.913,0H13.336a2.915,2.915,0,0,1,2.915,2.915V33.189A2.915,2.915,0,0,1,13.336,36.1H2.913A2.913,2.913,0,0,1,0,33.191V2.913A2.913,2.913,0,0,1,2.913,0Z" transform="translate(3.119 0.614)" fill="#fe0"/>
        <path id="Caminho_2680" data-name="Caminho 2680" d="M3.4.666H16.685A2.729,2.729,0,0,1,19.416,3.4V34.035a2.728,2.728,0,0,1-2.731,2.731H3.4A2.731,2.731,0,0,1,.666,34.035V3.4A2.732,2.732,0,0,1,3.4.666" transform="translate(-0.042 -0.041)" fill="none" stroke="#ff9d00" stroke-linecap="round" stroke-miterlimit="10" stroke-width="1.333"/>
      </g>
    </g>
    <text id="_" data-name="+" transform="translate(6.606 22.087)" fill="#1a1818" font-size="11.995" font-family="Ubuntu"><tspan x="0" y="0">+</tspan></text>
  </g>
</svg>
