<svg xmlns="http://www.w3.org/2000/svg" xmlns:xlink="http://www.w3.org/1999/xlink" width="24.833" height="20" viewBox="0 0 24.833 20">
  <defs>
    <clipPath id="clip-path">
      <rect id="Ret창ngulo_221" data-name="Ret창ngulo 221" width="24.833" height="20" fill="none"/>
    </clipPath>
  </defs>
  <g id="tecla_multiplicacao_fim" transform="translate(0 0)">
    <g id="Grupo_1592" data-name="Grupo 1592" transform="translate(0 0)" clip-path="url(#clip-path)">
      <path id="Caminho_2629" data-name="Caminho 2629" d="M3.892.5h16.5a3.387,3.387,0,0,1,3.39,3.392V15.555a3.388,3.388,0,0,1-3.39,3.393H3.892A3.393,3.393,0,0,1,.5,15.555V3.892A3.392,3.392,0,0,1,3.892.5" transform="translate(0.276 0.276)" fill="#fff"/>
      <path id="Ret창ngulo_220" data-name="Ret창ngulo 220" d="M2.186,0h15.8a2.188,2.188,0,0,1,2.188,2.188V16.266a2.186,2.186,0,0,1-2.186,2.186H2.186A2.186,2.186,0,0,1,0,16.266V2.186A2.186,2.186,0,0,1,2.186,0Z" transform="translate(3.872 0.666)" fill="#fe0"/>
      <path id="Caminho_2630" data-name="Caminho 2630" d="M3.892.5h16.5a3.387,3.387,0,0,1,3.39,3.392V15.555a3.388,3.388,0,0,1-3.39,3.393H3.892A3.393,3.393,0,0,1,.5,15.555V3.892A3.392,3.392,0,0,1,3.892.5" transform="translate(0.276 0.276)" fill="none" stroke="#ff9d00" stroke-linecap="round" stroke-miterlimit="10" stroke-width="1"/>
      <path id="Caminho_2631" data-name="Caminho 2631" d="M9.839,7.443l2.233-2.236-.77-.768L9.07,6.675,6.833,4.442l-.766.771L8.3,7.444,6.069,9.678l.77.768L9.073,8.211l2.236,2.234.766-.771Z" transform="translate(3.345 2.449)" fill="#1a1818"/>
    </g>
  </g>
</svg>
