<svg xmlns="http://www.w3.org/2000/svg" xmlns:xlink="http://www.w3.org/1999/xlink" width="24.833" height="20" viewBox="0 0 24.833 20">
  <defs>
    <clipPath id="clip-path">
      <rect id="Retângulo_232" data-name="Retângulo 232" width="24.833" height="20" fill="none"/>
    </clipPath>
  </defs>
  <g id="tecla_divisao_fim" transform="translate(0 0)">
    <g id="Grupo_1604" data-name="Grupo 1604" transform="translate(0 0)" clip-path="url(#clip-path)">
      <path id="Caminho_2640" data-name="Caminho 2640" d="M3.892.5h16.5a3.387,3.387,0,0,1,3.39,3.392V15.554a3.389,3.389,0,0,1-3.39,3.395H3.892A3.4,3.4,0,0,1,.5,15.554V3.892A3.392,3.392,0,0,1,3.892.5" transform="translate(0.276 0.276)" fill="#fff"/>
      <path id="Retângulo_230" data-name="Retângulo 230" d="M2.186,0h15.8a2.188,2.188,0,0,1,2.188,2.188V16.265a2.187,2.187,0,0,1-2.187,2.187H2.186A2.186,2.186,0,0,1,0,16.266V2.186A2.186,2.186,0,0,1,2.186,0Z" transform="translate(3.872 0.664)" fill="#fe0"/>
      <path id="Caminho_2641" data-name="Caminho 2641" d="M3.892.5h16.5a3.387,3.387,0,0,1,3.39,3.392V15.554a3.389,3.389,0,0,1-3.39,3.395H3.892A3.4,3.4,0,0,1,.5,15.554V3.892A3.392,3.392,0,0,1,3.892.5" transform="translate(0.276 0.276)" fill="none" stroke="#ff9d00" stroke-linecap="round" stroke-miterlimit="10" stroke-width="1"/>
      <path id="Caminho_2642" data-name="Caminho 2642" d="M9.636,5.079A1.157,1.157,0,1,1,8.48,3.923,1.157,1.157,0,0,1,9.636,5.079" transform="translate(4.038 2.164)" fill="#1a1818"/>
      <path id="Caminho_2643" data-name="Caminho 2643" d="M9.636,8.556A1.157,1.157,0,1,1,8.48,7.4,1.157,1.157,0,0,1,9.636,8.556" transform="translate(4.038 4.082)" fill="#1a1818"/>
      <rect id="Retângulo_231" data-name="Retângulo 231" width="8.381" height="0.822" transform="translate(8.294 9.529)" fill="#1a1818"/>
    </g>
  </g>
</svg>
