<svg xmlns="http://www.w3.org/2000/svg" xmlns:xlink="http://www.w3.org/1999/xlink" width="24.833" height="20" viewBox="0 0 24.833 20">
  <defs>
    <clipPath id="clip-path">
      <rect id="Ret창ngulo_227" data-name="Ret창ngulo 227" width="24.833" height="20" fill="none"/>
    </clipPath>
  </defs>
  <g id="tecla_m_mais_fim" transform="translate(0 0)">
    <g id="Grupo_1600" data-name="Grupo 1600" transform="translate(0 0)">
      <g id="Grupo_1599" data-name="Grupo 1599" clip-path="url(#clip-path)">
        <path id="Caminho_2636" data-name="Caminho 2636" d="M3.892.5A3.392,3.392,0,0,0,.5,3.892V15.554a3.4,3.4,0,0,0,3.392,3.395h16.5a3.389,3.389,0,0,0,3.39-3.395V3.892A3.387,3.387,0,0,0,20.391.5H3.892Z" transform="translate(0.276 0.276)" fill="#fff"/>
        <path id="Ret창ngulo_226" data-name="Ret창ngulo 226" d="M2.186,0h15.8a2.188,2.188,0,0,1,2.188,2.188V16.264a2.188,2.188,0,0,1-2.188,2.188H2.186A2.186,2.186,0,0,1,0,16.266V2.186A2.186,2.186,0,0,1,2.186,0Z" transform="translate(3.872 0.664)" fill="#fe0"/>
        <path id="Caminho_2637" data-name="Caminho 2637" d="M3.892.5A3.392,3.392,0,0,0,.5,3.892V15.554a3.4,3.4,0,0,0,3.392,3.395h16.5a3.389,3.389,0,0,0,3.39-3.395V3.892A3.387,3.387,0,0,0,20.391.5H3.892" transform="translate(0.276 0.276)" fill="none" stroke="#ff9d00" stroke-linecap="round" stroke-miterlimit="10" stroke-width="1"/>
      </g>
    </g>
    <text id="M_" data-name="M+" transform="translate(2.032 14.573)" fill="#1a1818" font-size="14" font-family="Ubuntu"><tspan x="0" y="0">M+</tspan></text>
  </g>
</svg>
