<svg xmlns="http://www.w3.org/2000/svg" xmlns:xlink="http://www.w3.org/1999/xlink" width="24.833" height="20" viewBox="0 0 24.833 20">
  <defs>
    <clipPath id="clip-path">
      <rect id="Retângulo_209" data-name="Retângulo 209" width="24.833" height="20" fill="none"/>
    </clipPath>
  </defs>
  <g id="tecla_subtracao_fim" transform="translate(0 0)">
    <g id="Grupo_1578" data-name="Grupo 1578" transform="translate(0 0)" clip-path="url(#clip-path)">
      <path id="Caminho_2616" data-name="Caminho 2616" d="M3.892.5h16.5a3.388,3.388,0,0,1,3.39,3.393V15.555a3.388,3.388,0,0,1-3.39,3.393H3.892A3.393,3.393,0,0,1,.5,15.555V3.893A3.393,3.393,0,0,1,3.892.5" transform="translate(0.276 0.276)" fill="#fff"/>
      <path id="Retângulo_208" data-name="Retângulo 208" d="M2.186,0h15.8a2.188,2.188,0,0,1,2.188,2.188V16.266a2.186,2.186,0,0,1-2.186,2.186H2.186A2.186,2.186,0,0,1,0,16.266V2.186A2.186,2.186,0,0,1,2.186,0Z" transform="translate(3.879 0.666)" fill="#fe0"/>
      <path id="Caminho_2617" data-name="Caminho 2617" d="M3.892.5h16.5a3.388,3.388,0,0,1,3.39,3.393V15.555a3.388,3.388,0,0,1-3.39,3.393H3.892A3.393,3.393,0,0,1,.5,15.555V3.893A3.393,3.393,0,0,1,3.892.5" transform="translate(0.276 0.276)" fill="none" stroke="#ff9d00" stroke-linecap="round" stroke-miterlimit="10" stroke-width="1"/>
      <text id="_" data-name="–" transform="translate(9.522 13.591)" fill="#1a1818" font-size="13" font-family="Ubuntu"><tspan x="0" y="0">–</tspan></text>
    </g>
  </g>
</svg>
