<svg xmlns="http://www.w3.org/2000/svg" xmlns:xlink="http://www.w3.org/1999/xlink" width="24.988" height="20" viewBox="0 0 24.988 20">
  <defs>
    <clipPath id="clip-path">
      <rect id="Ret창ngulo_249" data-name="Ret창ngulo 249" width="24.988" height="20" fill="none"/>
    </clipPath>
  </defs>
  <g id="tecla_ac_fim" transform="translate(0 0)">
    <g id="Grupo_1626" data-name="Grupo 1626" transform="translate(0 0)">
      <g id="Grupo_1625" data-name="Grupo 1625" clip-path="url(#clip-path)">
        <path id="Caminho_2658" data-name="Caminho 2658" d="M4,.5A3.5,3.5,0,0,0,.5,4V16.033a3.5,3.5,0,0,0,3.5,3.5H21.024a3.5,3.5,0,0,0,3.5-3.5V4a3.5,3.5,0,0,0-3.5-3.5H4Z" transform="translate(-0.017 -0.017)" fill="#fff"/>
        <path id="Ret창ngulo_248" data-name="Ret창ngulo 248" d="M3.621,0h14.11a3.621,3.621,0,0,1,3.621,3.621V15.413a3.624,3.624,0,0,1-3.624,3.624H3.622A3.622,3.622,0,0,1,0,15.415V3.621A3.621,3.621,0,0,1,3.621,0Z" transform="translate(3.154 0.768)" fill="#882c86"/>
        <path id="Caminho_2659" data-name="Caminho 2659" d="M4,.5A3.5,3.5,0,0,0,.5,4V16.033a3.5,3.5,0,0,0,3.5,3.5H21.024a3.5,3.5,0,0,0,3.5-3.5V4a3.5,3.5,0,0,0-3.5-3.5H4Z" transform="translate(-0.017 -0.017)" fill="none" stroke="#882c86" stroke-linecap="round" stroke-miterlimit="10" stroke-width="1"/>
      </g>
    </g>
    <text id="AC" transform="translate(4.103 14.21)" fill="#fff" font-size="13.256" font-family="Ubuntu"><tspan x="0" y="0" letter-spacing="-0.018em">A</tspan><tspan y="0">C</tspan></text>
  </g>
</svg>
