<svg xmlns="http://www.w3.org/2000/svg" xmlns:xlink="http://www.w3.org/1999/xlink" width="24.833" height="20" viewBox="0 0 24.833 20">
  <defs>
    <clipPath id="clip-path">
      <rect id="Ret창ngulo_238" data-name="Ret창ngulo 238" width="24.833" height="20" fill="none"/>
    </clipPath>
  </defs>
  <g id="tecla_9_fim" transform="translate(0 0)">
    <g id="Grupo_1612" data-name="Grupo 1612" transform="translate(0 0)" clip-path="url(#clip-path)">
      <path id="Caminho_2648" data-name="Caminho 2648" d="M3.891.5A3.4,3.4,0,0,0,.5,3.895V15.557a3.392,3.392,0,0,0,3.392,3.392h16.5a3.387,3.387,0,0,0,3.39-3.392V3.895A3.389,3.389,0,0,0,20.39.5H3.891Z" transform="translate(0.275 0.276)" fill="#fff"/>
      <path id="Ret창ngulo_237" data-name="Ret창ngulo 237" d="M2.186,0h15.8a2.188,2.188,0,0,1,2.188,2.188V16.266a2.186,2.186,0,0,1-2.186,2.186H2.186A2.186,2.186,0,0,1,0,16.266V2.186A2.186,2.186,0,0,1,2.186,0Z" transform="translate(3.878 0.667)" fill="#fe0"/>
      <text id="_9" data-name="9" transform="translate(8.919 14.251)" fill="#1a1818" font-size="13" font-family="Ubuntu"><tspan x="0" y="0">9</tspan></text>
      <path id="Caminho_2649" data-name="Caminho 2649" d="M3.891.5A3.4,3.4,0,0,0,.5,3.895V15.557a3.392,3.392,0,0,0,3.392,3.392h16.5a3.387,3.387,0,0,0,3.39-3.392V3.895A3.389,3.389,0,0,0,20.39.5H3.891" transform="translate(0.275 0.276)" fill="none" stroke="#ff9d00" stroke-linecap="round" stroke-miterlimit="10" stroke-width="1"/>
    </g>
  </g>
</svg>
